<svg xmlns="http://www.w3.org/2000/svg" width="96" height="89.879" viewBox="0 0 96 89.879">
  <g id="Grupo_70356" data-name="Grupo 70356" transform="translate(-334 -963.146)">
    <ellipse id="Elipse_4095" data-name="Elipse 4095" cx="48" cy="12" rx="48" ry="12" transform="translate(334 1029)" fill="#f2b6b6"/>
    <g id="reflexionando" transform="translate(304.615 963.146)">
      <path id="Trazado_157064" data-name="Trazado 157064" d="M275.471,44.939c0,24.819-17.025,44.939-38.026,44.939l-3.951-44.939L237.446,0C258.447,0,275.471,20.12,275.471,44.939Z" transform="translate(-160.035)" fill="#e64a55"/>
      <path id="Trazado_157065" data-name="Trazado 157065" d="M77.411,0V89.879c-21,0-38.026-20.12-38.026-44.939S56.409,0,77.411,0Z" transform="translate(0)" fill="#ed6350"/>
      <path id="Trazado_157066" data-name="Trazado 157066" d="M114.52,45.011C97.883,45.011,84.4,61.593,84.4,82.049h7.9l28.365-36.266A24.836,24.836,0,0,0,114.52,45.011Z" transform="translate(-37.11 -37.11)" fill="#aee6ff"/>
      <path id="Trazado_157067" data-name="Trazado 157067" d="M275.961,98h-3.927L256,162.771c16.637,0,30.124-16.582,30.124-37.038C286.124,114.692,282.194,104.782,275.961,98Z" transform="translate(-178.589 -80.793)" fill="#74c8ee"/>
      <g id="Grupo_70350" data-name="Grupo 70350" transform="translate(51.253 8.673)">
        <path id="Trazado_157068" data-name="Trazado 157068" d="M157.347,125.733c0-11.041-3.157-20.951-8.164-27.737h-3.975l-38.217,46.119c5.193,11.146,14.962,18.656,26.158,18.656C146.513,162.771,157.347,146.188,157.347,125.733Z" transform="translate(-106.991 -89.466)" fill="#aee6ff"/>
        <path id="Trazado_157069" data-name="Trazado 157069" d="M289.52,49.406l-.313.313,11.786,10.563,2.346-2.346A28.407,28.407,0,0,0,289.52,49.406Z" transform="translate(-257.22 -49.406)" fill="#aee6ff"/>
      </g>
      <path id="Trazado_157070" data-name="Trazado 157070" d="M120.349,51.189,84.4,87.142a43.573,43.573,0,0,0,3.967,18.382l43.773-43.773C129,56.657,124.932,52.924,120.349,51.189Z" transform="translate(-37.11 -42.203)" fill="#fff"/>
    </g>
    <path id="Trazado_157075" data-name="Trazado 157075" d="M0,2.942v7.3H6.93V46.953H0v7.3H21.26v-7.3H14.33V2.942Z" transform="translate(372 979.504)" opacity="0.35"/>
  </g>
</svg>
