<?xml version="1.0" encoding="utf-8"?>
<!-- Generator: Adobe Illustrator 26.0.1, SVG Export Plug-In . SVG Version: 6.00 Build 0)  -->
<svg version="1.1" id="info_1_4-02" xmlns="http://www.w3.org/2000/svg" xmlns:xlink="http://www.w3.org/1999/xlink" x="0px"
	 y="0px" viewBox="0 0 426.8 227.5" style="enable-background:new 0 0 426.8 227.5;" xml:space="preserve">
<style type="text/css">
	.st0{fill:#FCEE21;}
	.st1{fill:#F2F2F2;}
	.st2{opacity:0.75;}
	.st3{opacity:0.5;}
	.st4{opacity:0.25;}
</style>
<g>
	<rect id="Rectángulo_5375" y="173" class="st0" width="53.3" height="54.5"/>
	<rect id="Rectángulo_5376" class="st0" width="213.4" height="173"/>
	<rect id="Rectángulo_5377" x="213.4" class="st1" width="213.4" height="227.5"/>
	<g id="Grupo_57672" transform="translate(53.345 173)" class="st2">
		<rect id="Rectángulo_5378" x="0" class="st0" width="53.3" height="54.5"/>
	</g>
	<g id="Grupo_57673" transform="translate(106.697 173)" class="st3">
		<rect id="Rectángulo_5379" x="0" class="st0" width="53.3" height="54.5"/>
	</g>
	<g id="Grupo_57674" transform="translate(160.042 173)" class="st4">
		<rect id="Rectángulo_5380" x="0" class="st0" width="53.3" height="54.5"/>
	</g>
	<g id="Grupo_57675" transform="translate(238.386 40.819)">
		<path id="Trazado_102146" d="M15.8,21.6l-1.5-4.2H5.8l-1.5,4.2H0L7.5,1.3h5.2l7.5,20.3H15.8z M7,13.9h6.1l-3-8.6L7,13.9z"/>
		<path id="Trazado_102147" d="M39.7,6.9c1.3-0.1,2.7,0.3,3.7,1.2c1,0.9,1.5,2.1,1.4,3.4v10.1h-4v-9c0-0.7-0.2-1.3-0.7-1.8
			c-0.4-0.4-1-0.6-1.6-0.6c-0.7,0-1.4,0.2-2,0.8c-0.6,0.7-0.8,1.6-0.8,2.5v8.2h-4.1v-9c0.1-0.7-0.2-1.4-0.6-1.9
			c-0.5-0.4-1.1-0.7-1.7-0.6c-0.7,0-1.5,0.3-2,0.8c-0.6,0.8-0.8,1.7-0.8,2.7v7.9h-4V7.1h4v1.7c1-1.3,2.5-2,4.2-1.9
			c0.9,0,1.9,0.2,2.7,0.6c0.7,0.3,1.3,0.9,1.7,1.6C36.3,7.6,38,6.8,39.7,6.9z"/>
		<path id="Trazado_102148" d="M60.6,17.7c0,1.2,0.1,2.4,0.3,3.5v0.4h-3.8L56.8,20c-0.5,0.6-1.2,1.1-2,1.4c-0.8,0.3-1.7,0.5-2.6,0.5
			c-0.5,0-0.9,0-1.3-0.1c-0.4-0.1-0.8-0.2-1.2-0.4c-0.4-0.2-0.7-0.5-1-0.8c-0.3-0.3-0.5-0.7-0.7-1.1c-0.2-0.5-0.3-1-0.3-1.6
			c0-0.5,0.1-1.1,0.3-1.6c0.2-0.4,0.4-0.8,0.7-1.2c0.3-0.3,0.7-0.6,1.1-0.9c0.5-0.3,0.9-0.5,1.4-0.6c0.6-0.2,1.1-0.3,1.7-0.4
			l2.4-0.5c0.4-0.1,0.8-0.2,1.1-0.5c0.2-0.2,0.3-0.5,0.3-0.8c0-0.6-0.2-1.1-0.7-1.4c-0.5-0.3-1.1-0.4-1.7-0.4
			c-1.7,0-2.6,0.8-2.8,2.2l-3.6-0.6c0.2-1.3,1-2.5,2.1-3.3c1.4-0.8,3-1.1,4.5-1.1c4,0,6.1,1.7,6.1,5.2L60.6,17.7z M53.5,19.1
			c0.9,0,1.9-0.4,2.5-1.1c0.7-0.9,1.1-2,1-3.1l-3.4,1c-0.5,0.1-1,0.3-1.4,0.6c-0.3,0.2-0.5,0.6-0.5,1c0,0.4,0.2,0.9,0.5,1.2
			C52.5,19,53,19.2,53.5,19.1L53.5,19.1z"/>
		<path id="Trazado_102149" d="M68.4,9.4c0.5-0.7,1.1-1.3,1.9-1.7c0.9-0.5,1.8-0.8,2.8-0.8v3.6c-1.2-0.1-2.4,0.2-3.5,0.9
			c-0.8,0.8-1.2,2-1.1,3.1v7.1h-4.1V7.1h3.9V9.4z"/>
		<path id="Trazado_102150" d="M77.6,5c-1.3,0-2.3-1-2.3-2.3c0,0,0,0,0,0c0-0.6,0.2-1.2,0.7-1.6c0.4-0.4,1-0.7,1.7-0.7
			c1.3,0,2.3,1,2.3,2.3S78.9,5,77.6,5L77.6,5z M75.5,21.6V7.1h4.1v14.4H75.5z"/>
		<path id="Trazado_102151" d="M83.8,21.6V0h4.1v21.6H83.8z"/>
		<path id="Trazado_102152" d="M92.1,21.6V0h4.1v21.6H92.1z"/>
		<path id="Trazado_102153" d="M107.1,21.9c-1.4,0-2.8-0.3-4.1-0.9c-1.2-0.6-2.1-1.5-2.8-2.6c-0.7-1.2-1.1-2.6-1-4
			c-0.1-2.1,0.7-4.1,2.2-5.5c3.3-2.7,8.1-2.7,11.5,0c1.5,1.4,2.3,3.4,2.2,5.5c0.1,2.1-0.7,4.1-2.2,5.5
			C111.2,21.2,109.2,22,107.1,21.9L107.1,21.9z M107,18.6c1.1,0,2.1-0.4,2.9-1.2c1.5-1.8,1.5-4.4,0-6.2c-0.7-0.8-1.8-1.2-2.9-1.2
			c-1.1,0-2.1,0.4-2.8,1.2c-1.4,1.8-1.4,4.4,0,6.2C105,18.3,106,18.7,107,18.6L107,18.6z"/>
	</g>
	<path id="Trazado_102154" d="M247.1,115.5h-3.4v2.7h3v0.9h-3v2.8h3.4v1h-4.5v-8.3h4.5V115.5z"/>
	<path id="Trazado_102155" d="M251.6,116.9c0.5,0,1.1,0.2,1.5,0.5c0.4,0.4,0.6,1,0.5,1.5v3.9h-1v-3.7c0-0.4-0.1-0.8-0.4-1
		c-0.2-0.2-0.6-0.4-0.9-0.3c-0.4,0-0.8,0.1-1,0.4c-0.3,0.3-0.4,0.8-0.4,1.2v3.5h-1v-5.8h1v0.8C250.3,117.2,250.9,116.9,251.6,116.9z
		"/>
	<path id="Trazado_102156" d="M257.5,122.9c-0.4,0-0.8-0.1-1.1-0.4c-0.3-0.3-0.4-0.7-0.4-1.2v-3.4h-1.2V117h0.4c0.2,0,0.5,0,0.6-0.2
		c0.1-0.2,0.2-0.4,0.2-0.7v-1h1v1.9h1.3v0.8h-1.3v3.3c0,0.2,0.1,0.5,0.2,0.6c0.2,0.2,0.4,0.2,0.6,0.2h0.5v0.8L257.5,122.9z"/>
	<path id="Trazado_102157" d="M263.4,117h1v5.8h-1v-0.8c-0.2,0.3-0.4,0.5-0.7,0.7c-0.3,0.2-0.7,0.2-1,0.2c-0.5,0-1.1-0.2-1.5-0.5
		c-0.4-0.4-0.6-1-0.5-1.5V117h1v3.7c0,0.4,0.1,0.8,0.4,1c0.2,0.2,0.6,0.4,0.9,0.3c0.4,0,0.8-0.1,1-0.4c0.3-0.3,0.4-0.8,0.4-1.2
		L263.4,117z"/>
	<path id="Trazado_102158" d="M268.3,123c-0.6,0-1.1-0.1-1.6-0.4c-0.4-0.3-0.7-0.7-0.8-1.2l0.9-0.3c0,0.3,0.2,0.6,0.4,0.8
		c0.3,0.2,0.6,0.3,1,0.3c0.2,0,0.4,0,0.6-0.1c0.2-0.1,0.3-0.2,0.4-0.3c0.1-0.1,0.2-0.3,0.2-0.5c0-0.1,0-0.2,0-0.2
		c0-0.1-0.1-0.1-0.1-0.2c0-0.1-0.1-0.1-0.2-0.2c-0.1-0.1-0.3-0.2-0.5-0.2l-0.3-0.1l-0.3-0.1l-0.3-0.1c-0.2-0.1-0.4-0.1-0.6-0.2
		c-0.2-0.1-0.3-0.2-0.5-0.3c-0.2-0.1-0.3-0.3-0.4-0.5c-0.1-0.2-0.1-0.4-0.1-0.7c0-0.3,0.1-0.7,0.3-0.9c0.2-0.3,0.5-0.4,0.8-0.5
		c0.3-0.1,0.7-0.2,1-0.2c0.5,0,1,0.1,1.4,0.4c0.4,0.3,0.6,0.7,0.7,1.1l-0.8,0.2c0-0.3-0.2-0.6-0.4-0.8c-0.2-0.2-0.5-0.3-0.8-0.2
		c-0.3,0-0.5,0.1-0.8,0.2c-0.2,0.1-0.3,0.4-0.3,0.6c0,0.1,0,0.2,0.1,0.3c0.1,0.2,0.3,0.3,0.5,0.4c0.1,0,0.2,0.1,0.3,0.1l0.4,0.1h0.1
		l0.6,0.2c0.2,0.1,0.3,0.1,0.5,0.2c0.2,0.1,0.3,0.2,0.5,0.3c0.3,0.3,0.4,0.7,0.4,1.1c0,0.3-0.1,0.5-0.2,0.8
		c-0.1,0.2-0.3,0.4-0.5,0.5c-0.2,0.1-0.4,0.2-0.7,0.3C268.9,122.9,268.6,122.9,268.3,123z"/>
	<path id="Trazado_102159" d="M272.6,115.7c-0.2,0-0.4-0.1-0.5-0.2c-0.1-0.1-0.2-0.3-0.2-0.5c0-0.2,0.1-0.4,0.2-0.5
		c0.1-0.1,0.3-0.2,0.5-0.2c0.2,0,0.4,0.1,0.5,0.2c0.1,0.1,0.2,0.3,0.2,0.5C273.3,115.4,273,115.7,272.6,115.7z M272.1,122.9V117h1
		v5.8H272.1z"/>
	<path id="Trazado_102160" d="M276.5,123c-0.5,0-0.9-0.1-1.3-0.4c-0.3-0.3-0.5-0.7-0.5-1.2c0-0.3,0-0.5,0.2-0.8
		c0.1-0.2,0.3-0.4,0.5-0.5c0.2-0.1,0.4-0.3,0.7-0.3c0.3-0.1,0.6-0.2,0.9-0.2l0.9-0.2c0.3-0.1,0.5-0.2,0.5-0.5c0-0.3-0.1-0.7-0.4-0.9
		c-0.3-0.2-0.6-0.3-0.9-0.3c-0.3,0-0.6,0.1-0.9,0.3c-0.3,0.2-0.4,0.5-0.4,0.8l-0.9-0.2c0.1-0.5,0.3-1,0.8-1.2c0.5-0.3,1-0.4,1.6-0.4
		c0.3,0,0.6,0,0.8,0.1c0.3,0.1,0.5,0.2,0.7,0.3c0.2,0.2,0.4,0.4,0.5,0.6c0.1,0.3,0.2,0.6,0.2,1v2.4c0,0.2,0,0.4,0.1,0.6
		c0.1,0.1,0.3,0.2,0.5,0.2h0.1v0.8h-0.5c-0.6,0-1-0.3-1.1-0.8h0C278,122.7,277.3,123,276.5,123L276.5,123z M276.8,122.1
		c0.5,0,0.9-0.2,1.2-0.6c0.3-0.4,0.5-1,0.5-1.5l-1.5,0.3c-0.3,0-0.6,0.1-0.9,0.3c-0.4,0.3-0.4,0.8-0.1,1.2c0,0,0,0.1,0.1,0.1
		C276.3,122.1,276.5,122.2,276.8,122.1L276.8,122.1z"/>
	<path id="Trazado_102161" d="M283.4,123c-0.6,0-1.1-0.1-1.6-0.4c-0.4-0.3-0.7-0.7-0.8-1.2l0.9-0.3c0,0.3,0.2,0.6,0.5,0.8
		c0.3,0.2,0.6,0.3,1,0.3c0.2,0,0.4,0,0.6-0.1c0.2-0.1,0.3-0.2,0.4-0.3c0.1-0.1,0.2-0.3,0.2-0.5c0-0.1,0-0.2,0-0.2
		c0-0.1-0.1-0.1-0.1-0.2c0-0.1-0.1-0.1-0.2-0.2l-0.2-0.1l-0.3-0.1l-0.3-0.1l-0.3-0.1l-0.3-0.1c-0.2-0.1-0.4-0.1-0.6-0.2
		c-0.2-0.1-0.3-0.2-0.5-0.3c-0.2-0.1-0.3-0.3-0.4-0.5c-0.1-0.2-0.1-0.4-0.1-0.7c0-0.3,0.1-0.7,0.3-0.9c0.2-0.3,0.5-0.4,0.8-0.5
		c0.3-0.1,0.7-0.2,1-0.2c0.5,0,1,0.1,1.4,0.4c0.4,0.3,0.6,0.7,0.7,1.1l-0.8,0.2c0-0.3-0.2-0.6-0.4-0.8c-0.2-0.2-0.5-0.3-0.8-0.2
		c-0.3,0-0.5,0.1-0.8,0.2c-0.2,0.1-0.3,0.4-0.3,0.6c0,0.1,0,0.2,0.1,0.3c0,0.1,0.1,0.2,0.2,0.2c0.1,0.1,0.2,0.1,0.3,0.2
		c0.1,0.1,0.2,0.1,0.3,0.1l0.4,0.1h0.1l0.6,0.2c0.2,0.1,0.3,0.1,0.5,0.2c0.2,0.1,0.3,0.2,0.5,0.3c0.1,0.1,0.2,0.3,0.3,0.4
		c0.1,0.2,0.1,0.4,0.1,0.6c0,0.3-0.1,0.5-0.2,0.8c-0.1,0.2-0.3,0.4-0.5,0.5c-0.2,0.1-0.4,0.2-0.7,0.3
		C283.9,122.9,283.7,122.9,283.4,123L283.4,123z"/>
	<path id="Trazado_102162" d="M289,122.9c-0.4,0-0.8-0.1-1.1-0.4c-0.3-0.3-0.4-0.7-0.4-1.2v-3.4h-1.2V117h0.4c0.2,0,0.5,0,0.6-0.2
		c0.1-0.2,0.2-0.4,0.2-0.7v-1h0.9v1.9h1.3v0.8h-1.4v3.3c0,0.2,0.1,0.5,0.2,0.6c0.2,0.2,0.4,0.2,0.6,0.2h0.5v0.8L289,122.9z"/>
	<path id="Trazado_102163" d="M292.5,123c-0.5,0-0.9-0.1-1.3-0.4c-0.3-0.3-0.5-0.7-0.5-1.2c0-0.3,0-0.5,0.2-0.8
		c0.1-0.2,0.3-0.4,0.5-0.5c0.2-0.1,0.4-0.3,0.7-0.3c0.3-0.1,0.6-0.2,0.9-0.2l0.9-0.2c0.3-0.1,0.5-0.2,0.5-0.5c0-0.3-0.1-0.7-0.4-0.9
		c-0.3-0.2-0.6-0.3-0.9-0.3c-0.3,0-0.6,0.1-0.9,0.3c-0.3,0.2-0.4,0.5-0.4,0.8l-0.9-0.2c0.1-0.5,0.3-1,0.8-1.2c0.5-0.3,1-0.4,1.6-0.4
		c0.3,0,0.6,0,0.8,0.1c0.3,0.1,0.5,0.2,0.7,0.3c0.2,0.2,0.4,0.4,0.5,0.6c0.1,0.3,0.2,0.6,0.2,1v2.4c0,0.2,0,0.4,0.1,0.6
		c0.1,0.1,0.3,0.2,0.5,0.2h0.1v0.8h-0.5c-0.5,0.1-1-0.2-1.1-0.8h0C294,122.7,293.3,123,292.5,123L292.5,123z M292.8,122.1
		c0.5,0,0.9-0.2,1.2-0.6c0.3-0.4,0.5-1,0.5-1.5l-1.5,0.3c-0.3,0-0.6,0.1-0.9,0.3c-0.4,0.3-0.4,0.8-0.1,1.2c0,0,0,0.1,0.1,0.1
		C292.3,122.1,292.5,122.2,292.8,122.1L292.8,122.1z"/>
	<path id="Trazado_102164" d="M246.2,137.5c-0.6,0-1.1-0.1-1.6-0.3c-0.5-0.2-0.9-0.5-1.3-0.8c-0.4-0.4-0.7-0.8-0.9-1.4
		c-0.4-1.2-0.4-2.4,0-3.6c0.2-0.5,0.5-1,0.9-1.4c0.4-0.4,0.8-0.6,1.3-0.8c0.5-0.2,1.1-0.3,1.6-0.3c0.6,0,1.1,0.1,1.6,0.3
		c1,0.4,1.8,1.2,2.2,2.2c0.2,0.6,0.3,1.2,0.3,1.8c0,0.6-0.1,1.2-0.3,1.8c-0.2,0.5-0.5,1-0.9,1.4c-0.4,0.4-0.8,0.6-1.3,0.8
		C247.3,137.4,246.8,137.5,246.2,137.5z M246.2,136.5c0.8,0,1.6-0.3,2.2-0.9c0.6-0.7,0.9-1.5,0.9-2.4c0-0.5-0.1-0.9-0.2-1.4
		c-0.3-0.8-0.9-1.4-1.6-1.7c-0.8-0.3-1.6-0.3-2.4,0c-0.4,0.1-0.7,0.4-1,0.6c-0.3,0.3-0.5,0.6-0.7,1c-0.2,0.4-0.2,0.9-0.2,1.4
		c0,0.5,0.1,1,0.2,1.4c0.1,0.4,0.4,0.7,0.7,1c0.3,0.3,0.6,0.5,1,0.6C245.4,136.4,245.8,136.5,246.2,136.5z"/>
	<path id="Trazado_102165" d="M255.2,131.5c0.4,0,0.7,0.1,1.1,0.2c0.3,0.1,0.6,0.3,0.9,0.6c0.3,0.3,0.5,0.6,0.6,1
		c0.1,0.4,0.2,0.8,0.2,1.3c0,0.8-0.2,1.6-0.8,2.2c-0.5,0.5-1.2,0.9-1.9,0.8c-0.4,0-0.9-0.1-1.2-0.3c-0.4-0.2-0.6-0.5-0.8-0.9v4h-1.1
		v-8.8h1v1.1c0.2-0.4,0.5-0.7,0.8-0.9C254.3,131.6,254.8,131.4,255.2,131.5z M255,136.6c0.5,0,1-0.2,1.3-0.6c0.7-0.9,0.7-2.2,0-3.1
		c-0.3-0.4-0.8-0.6-1.3-0.6c-0.5,0-1,0.2-1.4,0.6c-0.7,0.9-0.7,2.2,0,3C254,136.4,254.5,136.6,255,136.6L255,136.6z"/>
	<path id="Trazado_102166" d="M262,137.5c-0.5,0-1.1-0.1-1.5-0.4c-0.4-0.2-0.8-0.6-1-1.1c-0.3-0.5-0.4-1-0.4-1.6
		c0-0.8,0.3-1.6,0.8-2.2c1.2-1.1,3-1.1,4.2,0c1.1,1.3,1.1,3.1,0,4.4C263.5,137.2,262.7,137.5,262,137.5z M262,136.7
		c0.5,0,1-0.2,1.4-0.6c0.4-0.4,0.6-1,0.5-1.6c0-0.6-0.2-1.1-0.5-1.6c-0.3-0.4-0.9-0.6-1.4-0.6c-0.5,0-1,0.2-1.4,0.6
		c-0.7,0.9-0.7,2.2,0,3.1C260.9,136.4,261.4,136.7,262,136.7L262,136.7z"/>
	<path id="Trazado_102167" d="M267.5,132.6c0.2-0.3,0.4-0.6,0.7-0.8c0.3-0.2,0.7-0.3,1.1-0.3v1c-0.5,0-1,0.1-1.4,0.4
		c-0.3,0.4-0.5,0.9-0.5,1.4v3.1h-1v-5.8h1V132.6z"/>
	<path id="Trazado_102168" d="M272.7,137.4c-0.4,0-0.8-0.1-1.1-0.4c-0.3-0.3-0.4-0.7-0.4-1.2v-3.4H270v-0.8h0.4c0.2,0,0.5,0,0.6-0.2
		c0.1-0.2,0.2-0.4,0.2-0.7v-1.1h1v1.9h1.3v0.8h-1.3v3.3c0,0.2,0.1,0.5,0.2,0.6c0.2,0.2,0.4,0.2,0.6,0.2h0.5v0.8L272.7,137.4z"/>
	<path id="Trazado_102169" d="M278.6,131.6h1v5.8h-1v-0.8c-0.2,0.3-0.4,0.5-0.8,0.7c-0.3,0.2-0.7,0.2-1,0.2c-0.5,0-1.1-0.2-1.5-0.5
		c-0.4-0.4-0.6-1-0.6-1.5v-3.9h1v3.7c0,0.4,0.1,0.8,0.4,1c0.2,0.2,0.6,0.4,0.9,0.3c0.4,0,0.8-0.1,1-0.4c0.3-0.3,0.4-0.8,0.4-1.2
		L278.6,131.6z"/>
	<path id="Trazado_102170" d="M284.5,131.5c0.5,0,1.1,0.2,1.5,0.5c0.4,0.4,0.6,1,0.6,1.5v3.9h-1v-3.7c0-0.4-0.1-0.8-0.4-1
		c-0.2-0.2-0.6-0.4-0.9-0.3c-0.4,0-0.8,0.1-1,0.4c-0.3,0.3-0.4,0.8-0.4,1.2v3.5h-1.1v-5.8h1v0.8
		C283.1,131.8,283.8,131.4,284.5,131.5z"/>
	<path id="Trazado_102171" d="M289,130.2c-0.2,0-0.4-0.1-0.5-0.2c-0.1-0.1-0.2-0.3-0.2-0.5c0-0.2,0.1-0.4,0.2-0.5
		c0.3-0.3,0.7-0.3,1,0c0.1,0.1,0.2,0.3,0.2,0.5c0,0.2-0.1,0.4-0.2,0.5C289.4,130.1,289.2,130.2,289,130.2z M288.5,137.4v-5.8h1v5.8
		H288.5z"/>
	<path id="Trazado_102172" d="M295.9,128.3h1v9.1h-1v-1.1c-0.2,0.4-0.5,0.7-0.8,0.9c-0.4,0.2-0.8,0.3-1.2,0.3
		c-0.4,0-0.7-0.1-1.1-0.2c-0.3-0.1-0.6-0.3-0.9-0.6c-0.3-0.3-0.5-0.6-0.6-1c-0.1-0.4-0.2-0.8-0.2-1.2c0-0.8,0.2-1.6,0.8-2.2
		c0.5-0.5,1.2-0.9,1.9-0.8c0.4,0,0.9,0.1,1.2,0.3c0.4,0.2,0.6,0.5,0.8,0.9L295.9,128.3z M294.1,136.6c0.5,0,1-0.2,1.4-0.6
		c0.7-0.9,0.7-2.1,0-3c-0.7-0.8-1.8-0.8-2.6-0.2c0,0-0.1,0.1-0.1,0.1c-0.4,0.4-0.6,1-0.6,1.6c0,0.6,0.2,1.1,0.5,1.5
		C293,136.4,293.5,136.6,294.1,136.6L294.1,136.6z"/>
	<path id="Trazado_102173" d="M300.3,137.5c-0.5,0-0.9-0.1-1.3-0.4c-0.3-0.3-0.5-0.7-0.5-1.2c0-0.3,0-0.5,0.2-0.8
		c0.1-0.2,0.3-0.4,0.5-0.5c0.2-0.1,0.4-0.3,0.7-0.3c0.3-0.1,0.6-0.2,0.9-0.2l0.9-0.2c0.3-0.1,0.5-0.2,0.5-0.5c0-0.3-0.1-0.7-0.4-0.9
		c-0.3-0.2-0.6-0.3-0.9-0.3c-0.3,0-0.6,0.1-0.9,0.3c-0.3,0.2-0.4,0.5-0.4,0.8l-0.9-0.2c0.1-0.5,0.3-1,0.8-1.2c0.5-0.3,1-0.4,1.6-0.4
		c0.3,0,0.6,0,0.8,0.1c0.3,0.1,0.5,0.2,0.7,0.3c0.2,0.2,0.4,0.4,0.5,0.6c0.1,0.3,0.2,0.6,0.2,1v2.4c0,0.2,0,0.4,0.1,0.6
		c0.1,0.1,0.3,0.2,0.5,0.2h0.1v0.8h-0.5c-0.5,0.1-1-0.2-1.1-0.8h0C301.8,137.3,301.1,137.6,300.3,137.5L300.3,137.5z M300.6,136.7
		c0.5,0,0.9-0.2,1.2-0.6c0.3-0.4,0.5-1,0.5-1.5l-1.5,0.3c-0.3,0-0.6,0.1-0.9,0.3c-0.4,0.3-0.4,0.9-0.1,1.2c0,0,0,0,0.1,0.1
		C300.1,136.6,300.3,136.7,300.6,136.7L300.6,136.7z"/>
	<path id="Trazado_102174" d="M309.5,128.3h1v9.1h-1v-1.1c-0.2,0.4-0.5,0.7-0.8,0.9c-0.4,0.2-0.8,0.3-1.2,0.3
		c-0.4,0-0.7-0.1-1.1-0.2c-0.3-0.1-0.6-0.3-0.9-0.6c-0.3-0.3-0.5-0.6-0.6-1c-0.1-0.4-0.2-0.8-0.2-1.2c0-0.8,0.2-1.6,0.8-2.2
		c0.5-0.5,1.2-0.9,1.9-0.8c0.4,0,0.9,0.1,1.2,0.3c0.4,0.2,0.6,0.5,0.8,0.9L309.5,128.3z M307.7,136.6c0.5,0,1-0.2,1.4-0.6
		c0.7-0.9,0.7-2.1,0-3c-0.7-0.8-1.8-0.8-2.6-0.2c0,0-0.1,0.1-0.1,0.1c-0.4,0.4-0.6,1-0.6,1.6c0,0.6,0.2,1.1,0.5,1.5
		C306.7,136.4,307.2,136.6,307.7,136.6L307.7,136.6z"/>
	<path id="Trazado_102175" d="M247.1,144.6h-3.4v2.7h3v0.9h-3v2.7h3.4v1h-4.5v-8.3h4.5V144.6z"/>
	<path id="Trazado_102177" d="M258.1,146c0.4,0,0.7,0.1,1.1,0.2c0.3,0.1,0.6,0.3,0.9,0.6c0.3,0.3,0.5,0.6,0.6,1
		c0.1,0.4,0.2,0.8,0.2,1.3c0,0.8-0.2,1.6-0.8,2.2c-0.5,0.5-1.2,0.9-1.9,0.8c-0.4,0-0.9-0.1-1.2-0.3c-0.4-0.2-0.6-0.5-0.8-0.9v4h-1
		v-8.8h1v1.1c0.2-0.4,0.5-0.7,0.8-0.9C257.2,146.1,257.7,146,258.1,146z M257.9,151.2c0.5,0,1-0.2,1.3-0.6c0.7-0.9,0.7-2.2,0-3.1
		c-0.3-0.4-0.8-0.6-1.3-0.6c-0.5,0-1,0.2-1.4,0.6c-0.7,0.9-0.7,2.2,0,3C256.9,150.9,257.4,151.2,257.9,151.2L257.9,151.2z"/>
	<path id="Trazado_102178" d="M264.9,152c-0.5,0-1.1-0.1-1.5-0.4c-0.4-0.2-0.8-0.6-1-1.1c-0.3-0.5-0.4-1-0.4-1.6
		c0-0.8,0.3-1.6,0.8-2.2c1.2-1.1,3-1.1,4.2,0c1.1,1.3,1.1,3.1,0,4.4C266.4,151.8,265.7,152.1,264.9,152z M264.9,151.2
		c0.5,0,1-0.2,1.4-0.6c0.4-0.4,0.6-1,0.5-1.6c0-0.6-0.2-1.1-0.5-1.6c-0.3-0.4-0.9-0.6-1.4-0.6c-0.5,0-1,0.2-1.4,0.6
		c-0.7,0.9-0.7,2.2,0,3.1C263.9,151,264.4,151.2,264.9,151.2L264.9,151.2z"/>
	<path id="Trazado_102179" d="M272.2,146c0.5,0,1.1,0.2,1.5,0.5c0.4,0.4,0.6,1,0.5,1.5v3.9h-1v-3.7c0-0.4-0.1-0.8-0.4-1
		c-0.2-0.2-0.6-0.4-0.9-0.3c-0.4,0-0.8,0.1-1,0.4c-0.3,0.3-0.4,0.8-0.4,1.2v3.5h-1v-5.8h1v0.8C270.8,146.3,271.5,146,272.2,146z"/>
	<path id="Trazado_102180" d="M278,151.9c-0.4,0-0.8-0.1-1.1-0.4c-0.3-0.3-0.4-0.7-0.4-1.2v-3.4h-1.2v-0.8h0.4c0.2,0,0.5,0,0.6-0.2
		c0.1-0.2,0.2-0.4,0.2-0.7v-1.1h0.9v1.9h1.3v0.8h-1.3v3.3c0,0.2,0.1,0.5,0.2,0.6c0.2,0.2,0.4,0.2,0.6,0.2h0.5v0.8L278,151.9z"/>
	<path id="Trazado_102181" d="M281.6,152c-0.5,0-0.9-0.1-1.3-0.4c-0.3-0.3-0.5-0.7-0.5-1.2c0-0.3,0-0.5,0.2-0.8
		c0.1-0.2,0.3-0.4,0.5-0.5c0.2-0.1,0.4-0.3,0.7-0.3c0.3-0.1,0.6-0.2,0.9-0.2l0.9-0.2c0.3-0.1,0.5-0.2,0.5-0.5c0-0.3-0.1-0.7-0.4-0.9
		c-0.3-0.2-0.6-0.3-0.9-0.3c-0.3,0-0.6,0.1-0.9,0.3c-0.3,0.2-0.4,0.5-0.4,0.8l-0.9-0.2c0.1-0.5,0.3-1,0.8-1.2c0.5-0.3,1-0.4,1.6-0.4
		c0.3,0,0.6,0,0.8,0.1c0.3,0.1,0.5,0.2,0.7,0.3c0.2,0.2,0.4,0.4,0.5,0.6c0.1,0.3,0.2,0.6,0.2,1v2.4c0,0.2,0,0.4,0.1,0.6
		c0.1,0.1,0.3,0.2,0.5,0.2h0.1v0.8h-0.5c-0.5,0.1-1-0.2-1.1-0.8h0C283,151.8,282.3,152.1,281.6,152L281.6,152z M281.8,151.2
		c0.5,0,0.9-0.2,1.2-0.6c0.3-0.4,0.5-1,0.5-1.5l-1.5,0.3c-0.3,0-0.6,0.1-0.9,0.3c-0.4,0.3-0.4,0.8-0.1,1.2c0,0,0,0.1,0.1,0.1
		C281.3,151.2,281.6,151.2,281.8,151.2L281.8,151.2z"/>
	<path id="Trazado_102182" d="M289.3,146c0.5,0,1.1,0.2,1.5,0.5c0.4,0.4,0.6,1,0.5,1.5v3.9h-1v-3.7c0-0.4-0.1-0.8-0.4-1
		c-0.2-0.2-0.6-0.4-0.9-0.3c-0.4,0-0.8,0.1-1,0.4c-0.3,0.3-0.4,0.8-0.4,1.2v3.5h-1v-5.8h1v0.8C287.9,146.3,288.6,146,289.3,146z"/>
	<path id="Trazado_102183" d="M298.4,148.9v0.3h-4.5c0,0.6,0.2,1.1,0.6,1.5c0.4,0.3,0.8,0.5,1.3,0.5c0.3,0,0.7-0.1,1-0.3
		c0.3-0.2,0.5-0.4,0.7-0.8l0.9,0.2c-0.2,0.5-0.5,0.9-1,1.2c-0.4,0.3-1,0.5-1.5,0.5c-0.8,0-1.5-0.3-2.1-0.8c-1.1-1.3-1.1-3.1,0-4.4
		c0.5-0.5,1.3-0.8,2.1-0.8c0.7,0,1.4,0.2,2,0.8C298.2,147.4,298.4,148.1,298.4,148.9z M295.7,146.8c-0.4,0-0.9,0.1-1.2,0.4
		c-0.3,0.3-0.6,0.7-0.6,1.2h3.5c0-0.5-0.2-0.9-0.5-1.2C296.5,146.9,296.1,146.8,295.7,146.8L295.7,146.8z"/>
	<path id="Trazado_102184" d="M302.4,152c-0.5,0-1.1-0.1-1.5-0.4c-0.4-0.2-0.8-0.6-1-1.1c-0.3-0.5-0.4-1-0.4-1.6
		c0-0.8,0.3-1.6,0.8-2.2c1.2-1.1,3-1.1,4.2,0c1.1,1.3,1.1,3.1,0,4.4C304,151.8,303.2,152.1,302.4,152L302.4,152z M302.4,151.2
		c0.5,0,1-0.2,1.4-0.6c0.4-0.4,0.6-1,0.5-1.6c0-0.6-0.2-1.1-0.5-1.6c-0.3-0.4-0.9-0.6-1.4-0.6c-0.5,0-1,0.2-1.4,0.6
		c-0.7,0.9-0.7,2.2,0,3.1C301.4,151,301.9,151.2,302.4,151.2L302.4,151.2z"/>
	<path id="Trazado_102185" d="M247.1,159.1h-3.4v2.7h3v1h-3v3.7h-1.1v-8.3h4.5V159.1z"/>
	<path id="Trazado_102186" d="M253.5,163.4v0.3H249c0,0.6,0.2,1.1,0.6,1.5c0.4,0.3,0.8,0.5,1.3,0.5c0.7,0,1.3-0.4,1.6-1.1l0.9,0.2
		c-0.2,0.5-0.5,0.9-1,1.2c-0.4,0.3-1,0.5-1.5,0.5c-0.8,0-1.5-0.3-2.1-0.8c-1.1-1.3-1.1-3.1,0-4.4c0.5-0.5,1.3-0.8,2.1-0.8
		c0.7,0,1.4,0.2,2,0.8C253.3,161.9,253.6,162.7,253.5,163.4z M250.8,161.3c-0.4,0-0.9,0.1-1.2,0.4c-0.3,0.3-0.6,0.7-0.6,1.2h3.5
		c0-0.5-0.2-0.9-0.5-1.2C251.7,161.5,251.2,161.3,250.8,161.3L250.8,161.3z"/>
	<path id="Trazado_102187" d="M255.1,166.5v-9.1h1v9.1H255.1z"/>
	<path id="Trazado_102188" d="M258.8,159.3c-0.4,0-0.7-0.3-0.7-0.7c0,0,0,0,0,0c0-0.2,0.1-0.4,0.2-0.5c0.3-0.3,0.7-0.3,1,0
		c0.1,0.1,0.2,0.3,0.2,0.5C259.4,159,259.1,159.3,258.8,159.3L258.8,159.3z M258.2,166.5v-5.8h1v5.8H258.2z"/>
	<path id="Trazado_102189" d="M262.1,165.6h3.1v0.8h-4.6l3.1-5h-2.9v-0.8h4.5L262.1,165.6z"/>
	<path id="Trazado_102190" d="M245.8,172.7c0.5,0,0.9,0.1,1.3,0.3c0.4,0.2,0.7,0.5,0.9,0.9c0.2,0.4,0.3,0.8,0.3,1.3
		c0,0.7-0.2,1.3-0.7,1.8c-0.5,0.5-1.1,0.8-1.8,0.8h-2.1v3.2h-1v-8.3H245.8z M245.6,176.8c0.4,0,0.9-0.1,1.2-0.4
		c0.6-0.7,0.6-1.7,0-2.4c-0.3-0.3-0.7-0.5-1.2-0.5h-1.9v3.3H245.6z"/>
	<path id="Trazado_102191" d="M251.8,181.1c-0.5,0-1.1-0.1-1.5-0.4c-0.4-0.2-0.8-0.6-1.1-1.1c-0.3-0.5-0.4-1-0.4-1.6
		c0-0.8,0.3-1.6,0.8-2.2c1.2-1.1,3-1.1,4.2,0c1.1,1.3,1.1,3.1,0,4.4C253.3,180.8,252.6,181.1,251.8,181.1L251.8,181.1z M251.8,180.3
		c0.5,0,1-0.2,1.4-0.6c0.4-0.4,0.6-1,0.5-1.6c0-0.6-0.2-1.1-0.5-1.6c-0.3-0.4-0.9-0.6-1.4-0.6c-0.5,0-1,0.2-1.4,0.6
		c-0.4,0.4-0.6,1-0.5,1.6c0,0.6,0.2,1.1,0.5,1.6C250.8,180.1,251.3,180.3,251.8,180.3L251.8,180.3z"/>
	<path id="Trazado_102192" d="M258.2,181.1c-0.6,0-1.1-0.1-1.6-0.4c-0.4-0.3-0.7-0.7-0.8-1.2l0.9-0.3c0.1,0.3,0.2,0.6,0.5,0.8
		c0.3,0.2,0.6,0.3,1,0.3c0.2,0,0.4,0,0.6-0.1c0.2-0.1,0.3-0.2,0.4-0.3c0.1-0.1,0.2-0.3,0.2-0.5c0-0.1,0-0.2-0.1-0.2
		c0-0.1-0.1-0.1-0.1-0.2c0-0.1-0.1-0.1-0.2-0.2c-0.1,0-0.1-0.1-0.2-0.1c-0.1,0-0.2-0.1-0.3-0.1l-0.3-0.1l-0.3-0.1l-0.3-0.1
		c-0.2-0.1-0.4-0.1-0.6-0.2c-0.2-0.1-0.3-0.2-0.5-0.3c-0.2-0.1-0.3-0.3-0.4-0.5c-0.1-0.2-0.1-0.4-0.1-0.7c0-0.3,0.1-0.7,0.3-0.9
		c0.2-0.3,0.5-0.4,0.8-0.5c0.3-0.1,0.7-0.2,1-0.2c0.5,0,1,0.1,1.4,0.4c0.4,0.3,0.6,0.7,0.7,1.1l-0.8,0.2c0-0.3-0.2-0.6-0.4-0.8
		c-0.2-0.2-0.5-0.3-0.8-0.2c-0.3,0-0.5,0.1-0.8,0.2c-0.2,0.1-0.3,0.4-0.3,0.6c0,0.1,0,0.2,0.1,0.3c0,0.1,0.1,0.2,0.2,0.2
		c0.1,0.1,0.2,0.1,0.3,0.2c0.1,0.1,0.2,0.1,0.3,0.1l0.4,0.1h0.1l0.6,0.2c0.2,0.1,0.3,0.1,0.5,0.2c0.2,0.1,0.3,0.2,0.5,0.3
		c0.1,0.1,0.2,0.3,0.3,0.4c0.1,0.2,0.1,0.4,0.1,0.6c0,0.3-0.1,0.5-0.2,0.8c-0.1,0.2-0.3,0.4-0.5,0.5c-0.2,0.1-0.4,0.2-0.7,0.3
		C258.8,181,258.5,181.1,258.2,181.1z"/>
	<path id="Trazado_102193" d="M262.4,173.8c-0.2,0-0.4-0.1-0.5-0.2c-0.1-0.1-0.2-0.3-0.2-0.5c0-0.2,0.1-0.4,0.2-0.5
		c0.3-0.3,0.7-0.3,1,0c0.1,0.1,0.2,0.3,0.2,0.5c0,0.2-0.1,0.4-0.2,0.5C262.8,173.8,262.6,173.8,262.4,173.8L262.4,173.8z M261.9,181
		v-5.8h1v5.8L261.9,181z"/>
	<path id="Trazado_102194" d="M266.9,181c-0.4,0-0.8-0.1-1.1-0.4c-0.3-0.3-0.4-0.7-0.4-1.2V176h-1.2v-0.8h0.4c0.2,0,0.5,0,0.6-0.2
		c0.1-0.2,0.2-0.4,0.2-0.7v-1.1h1v1.9h1.3v0.8h-1.3v3.3c0,0.2,0.1,0.5,0.2,0.6c0.2,0.2,0.4,0.2,0.6,0.2h0.5v0.8L266.9,181z"/>
	<path id="Trazado_102195" d="M269.7,173.8c-0.4,0-0.7-0.3-0.7-0.7c0,0,0,0,0,0c0-0.2,0.1-0.4,0.2-0.5c0.1-0.1,0.3-0.2,0.5-0.2
		c0.2,0,0.4,0.1,0.5,0.2c0.1,0.1,0.2,0.3,0.2,0.5c0,0.2-0.1,0.4-0.2,0.5C270.1,173.8,269.9,173.8,269.7,173.8L269.7,173.8z
		 M269.2,181v-5.8h1v5.8L269.2,181z"/>
	<path id="Trazado_102196" d="M275.9,175.2h1.1l-2.4,5.8h-0.9l-2.4-5.8h1.1l1.7,4.6L275.9,175.2z"/>
	<path id="Trazado_102197" d="M280.5,181.1c-0.5,0-1.1-0.1-1.5-0.4c-0.4-0.2-0.8-0.6-1-1.1c-0.3-0.5-0.4-1-0.4-1.6
		c0-0.8,0.3-1.6,0.8-2.2c1.2-1.1,3-1.1,4.2,0c0.6,0.6,0.9,1.4,0.8,2.2c0,0.8-0.3,1.6-0.8,2.2C282,180.9,281.2,181.2,280.5,181.1z
		 M280.5,180.3c0.5,0,1-0.2,1.4-0.6c0.4-0.4,0.6-1,0.6-1.6c0-0.6-0.2-1.1-0.6-1.6c-0.3-0.4-0.8-0.6-1.4-0.6c-0.5,0-1,0.2-1.4,0.6
		c-0.4,0.4-0.6,1-0.5,1.6c0,0.6,0.2,1.1,0.5,1.6C279.4,180.1,279.9,180.3,280.5,180.3L280.5,180.3z"/>
	<g id="Grupo_57677" transform="translate(337.132 113.763)">
		<path id="Trazado_102198" d="M0.3,9.1V0.8h1.1v8.3H0.3z"/>
		<path id="Trazado_102199" d="M4.7,4.3C4.9,4,5.2,3.7,5.5,3.5c0.3-0.2,0.7-0.3,1.1-0.3v1c-0.5,0-1,0.1-1.3,0.4C4.9,5,4.7,5.5,4.8,6
			v3.1h-1V3.3h1L4.7,4.3z"/>
		<path id="Trazado_102200" d="M8.8,4.3C8.9,4,9.2,3.7,9.5,3.5c0.3-0.2,0.7-0.3,1.1-0.3v1c-0.5,0-1,0.1-1.4,0.4C8.9,5,8.7,5.5,8.8,6
			v3.1h-1V3.3h1V4.3z"/>
		<path id="Trazado_102201" d="M13.1,9.2c-0.5,0-0.9-0.1-1.3-0.4c-0.3-0.3-0.5-0.7-0.5-1.2c0-0.3,0-0.5,0.2-0.8
			c0.1-0.2,0.3-0.4,0.5-0.5c0.2-0.1,0.4-0.3,0.7-0.3c0.3-0.1,0.6-0.2,0.9-0.2l0.9-0.2C14.8,5.6,15,5.4,15,5.1c0-0.3-0.1-0.7-0.4-0.9
			C14.3,4,14,3.9,13.7,3.9c-0.3,0-0.6,0.1-0.9,0.3c-0.3,0.2-0.4,0.5-0.4,0.8l-0.9-0.2c0.1-0.5,0.3-1,0.8-1.2c0.5-0.3,1-0.4,1.6-0.4
			c0.3,0,0.6,0,0.8,0.1c0.3,0.1,0.5,0.2,0.7,0.3c0.2,0.2,0.4,0.4,0.5,0.6c0.1,0.3,0.2,0.6,0.2,1v2.4c0,0.2,0,0.4,0.1,0.6
			c0.1,0.1,0.3,0.2,0.5,0.2h0.1v0.8h-0.5c-0.5,0.1-1-0.2-1.1-0.8h0C14.6,8.9,13.8,9.3,13.1,9.2z M13.3,8.4c0.5,0,0.9-0.2,1.2-0.6
			c0.3-0.4,0.5-1,0.5-1.5l-1.5,0.3c-0.3,0-0.6,0.1-0.9,0.3c-0.4,0.3-0.4,0.8-0.1,1.2c0,0,0,0.1,0.1,0.1C12.8,8.3,13.1,8.4,13.3,8.4
			L13.3,8.4z"/>
		<path id="Trazado_102202" d="M20.4,9.2c-0.8,0-1.5-0.3-2.1-0.8c-1.1-1.2-1.1-3.1,0-4.4c0.5-0.6,1.3-0.9,2.1-0.8
			c0.6,0,1.2,0.2,1.7,0.5c0.5,0.3,0.8,0.8,1,1.4l-1,0.2c-0.1-0.4-0.3-0.7-0.7-0.9C21.1,4.1,20.7,4,20.4,4c-0.5,0-1,0.2-1.3,0.6
			c-0.7,0.9-0.7,2.2,0,3.1c0.3,0.4,0.8,0.6,1.3,0.6c0.4,0,0.7-0.1,1.1-0.3c0.3-0.2,0.5-0.5,0.7-0.9l1,0.2c-0.2,0.6-0.5,1.1-1,1.4
			C21.6,9,21,9.2,20.4,9.2L20.4,9.2z"/>
		<path id="Trazado_102203" d="M25.1,1.9c-0.4,0-0.7-0.3-0.7-0.7c0,0,0,0,0,0c0-0.2,0.1-0.4,0.2-0.5c0.1-0.1,0.3-0.2,0.5-0.2
			c0.2,0,0.4,0.1,0.5,0.2c0.1,0.1,0.2,0.3,0.2,0.5c0,0.2-0.1,0.4-0.2,0.5C25.4,1.8,25.2,1.9,25.1,1.9z M24.5,9.1V3.3h1v5.8H24.5z"/>
		<path id="Trazado_102204" d="M30.1,9.2c-0.5,0-1.1-0.1-1.5-0.4c-0.4-0.2-0.8-0.6-1.1-1.1c-0.3-0.5-0.4-1-0.4-1.6
			c0-0.8,0.3-1.6,0.8-2.2c0.6-0.6,1.3-0.8,2.1-0.8c0.8,0,1.6,0.3,2.1,0.8C32.7,4.6,33,5.4,33,6.2c0,0.8-0.3,1.6-0.8,2.2
			C31.6,8.9,30.9,9.2,30.1,9.2z M30.1,8.4c0.5,0,1-0.2,1.4-0.6c0.4-0.4,0.6-1,0.6-1.6c0-0.6-0.2-1.1-0.6-1.6C31.1,4.2,30.6,4,30.1,4
			c-0.5,0-1,0.2-1.4,0.6c-0.4,0.4-0.6,1-0.5,1.6c0,0.6,0.2,1.1,0.5,1.6C29.1,8.1,29.6,8.4,30.1,8.4L30.1,8.4z"/>
		<path id="Trazado_102205" d="M37.4,3.2c0.5,0,1.1,0.2,1.5,0.5c0.4,0.4,0.6,1,0.5,1.5v3.9h-1V5.4c0-0.4-0.1-0.8-0.4-1
			c-0.2-0.2-0.6-0.4-0.9-0.3c-0.4,0-0.8,0.1-1,0.4c-0.3,0.3-0.4,0.8-0.4,1.2v3.5h-1V3.3h1v0.8C36,3.5,36.7,3.1,37.4,3.2z"/>
		<path id="Trazado_102206" d="M42.7,9.2c-0.5,0-0.9-0.1-1.3-0.4c-0.3-0.3-0.5-0.7-0.5-1.2c0-0.3,0-0.5,0.2-0.8
			c0.1-0.2,0.3-0.4,0.5-0.5C41.8,6.2,42,6.1,42.3,6c0.3-0.1,0.6-0.2,0.9-0.2l0.9-0.2c0.3-0.1,0.5-0.2,0.5-0.5c0-0.3-0.1-0.7-0.4-0.9
			C44,4,43.6,3.9,43.3,3.9c-0.3,0-0.6,0.1-0.9,0.3C42.1,4.4,42,4.7,42,5L41,4.8c0.1-0.5,0.3-1,0.8-1.2c0.5-0.3,1-0.4,1.6-0.4
			c0.3,0,0.6,0,0.8,0.1c0.3,0.1,0.5,0.2,0.7,0.3c0.2,0.2,0.4,0.4,0.5,0.6c0.1,0.3,0.2,0.6,0.2,1v2.4c0,0.2,0,0.4,0.1,0.6
			c0.1,0.1,0.3,0.2,0.5,0.2h0.1v0.8h-0.5c-0.5,0.1-1-0.3-1.1-0.8h0C44.2,8.9,43.5,9.3,42.7,9.2L42.7,9.2z M42.9,8.4
			c0.5,0,0.9-0.2,1.2-0.6c0.3-0.4,0.5-1,0.5-1.5l-1.5,0.3c-0.3,0-0.6,0.1-0.9,0.3c-0.4,0.3-0.4,0.8-0.1,1.2c0,0,0,0.1,0.1,0.1
			C42.5,8.3,42.7,8.4,42.9,8.4L42.9,8.4z"/>
		<path id="Trazado_102207" d="M47.7,9.1V0h1v9.1H47.7z"/>
		<path id="Trazado_102208" d="M9.1,23.6h-1l-0.6-6.9l-2.7,6.9H4.2l-2.6-6.8L1,23.6H0l0.6-8.3H2l2.5,6.5l2.5-6.5h1.4L9.1,23.6z"/>
		<path id="Trazado_102209" d="M11.7,16.4c-0.4,0-0.7-0.3-0.7-0.7c0,0,0,0,0,0c0-0.2,0.1-0.4,0.2-0.5c0.1-0.1,0.3-0.2,0.5-0.2
			c0.4,0,0.7,0.3,0.7,0.7v0c0,0.2-0.1,0.4-0.2,0.5C12,16.4,11.9,16.4,11.7,16.4L11.7,16.4z M11.2,23.6v-5.8h1v5.8H11.2z"/>
		<path id="Trazado_102210" d="M19.4,20.6v0.3h-4.5c0,0.6,0.2,1.1,0.6,1.5c0.4,0.3,0.8,0.5,1.3,0.5c0.3,0,0.7-0.1,1-0.3
			c0.3-0.2,0.5-0.4,0.7-0.8l0.9,0.2c-0.2,0.5-0.5,0.9-1,1.2c-0.4,0.3-1,0.5-1.5,0.5c-0.8,0-1.5-0.3-2.1-0.8c-1.1-1.3-1.1-3.1,0-4.4
			c0.5-0.5,1.3-0.8,2.1-0.8c0.7,0,1.4,0.2,2,0.8C19.2,19.1,19.4,19.8,19.4,20.6z M16.7,18.5c-0.4,0-0.9,0.1-1.2,0.4
			c-0.3,0.3-0.6,0.7-0.6,1.2h3.5c0-0.5-0.2-0.9-0.5-1.2C17.5,18.6,17.1,18.5,16.7,18.5L16.7,18.5z"/>
		<path id="Trazado_102211" d="M25.3,14.5h1v9.1h-1v-1.1c-0.2,0.4-0.5,0.7-0.8,0.9c-0.4,0.2-0.8,0.3-1.2,0.3c-0.4,0-0.7-0.1-1.1-0.2
			c-0.3-0.1-0.6-0.3-0.9-0.6c-0.3-0.3-0.5-0.6-0.6-1c-0.1-0.4-0.2-0.8-0.2-1.2c0-0.8,0.2-1.6,0.8-2.2c0.5-0.5,1.2-0.9,1.9-0.8
			c0.4,0,0.9,0.1,1.2,0.3c0.4,0.2,0.6,0.5,0.8,0.9L25.3,14.5z M23.4,22.9c0.5,0,1-0.2,1.3-0.6c0.7-0.9,0.7-2.1,0-3
			c-0.3-0.4-0.8-0.6-1.3-0.6c-0.5,0-1,0.2-1.4,0.6c-0.4,0.4-0.6,1-0.6,1.6c0,0.6,0.2,1.1,0.6,1.5C22.4,22.7,22.9,22.9,23.4,22.9
			L23.4,22.9z"/>
		<path id="Trazado_102212" d="M30.8,23.7c-0.5,0-1.1-0.1-1.5-0.4c-0.4-0.2-0.8-0.6-1-1.1c-0.3-0.5-0.4-1-0.4-1.6
			c0-0.8,0.3-1.6,0.8-2.2c1.2-1.1,3-1.1,4.2,0c1.1,1.3,1.1,3.1,0,4.4C32.3,23.5,31.6,23.8,30.8,23.7z M30.8,22.9
			c0.5,0,1-0.2,1.4-0.6c0.4-0.4,0.6-1,0.5-1.6c0-0.6-0.2-1.1-0.5-1.6c-0.3-0.4-0.8-0.6-1.4-0.6c-0.5,0-1,0.2-1.4,0.6
			c-0.4,0.4-0.6,1-0.5,1.6c0,0.6,0.2,1.1,0.5,1.6C29.8,22.7,30.3,22.9,30.8,22.9L30.8,22.9z"/>
		<path id="Trazado_102213" d="M4.8,30.8H1.4v2.7h3v1h-3v3.7H0.3v-8.3h4.5L4.8,30.8z"/>
		<path id="Trazado_102214" d="M7.3,33.4c0.2-0.3,0.4-0.6,0.8-0.8c0.3-0.2,0.7-0.3,1.1-0.3v1c-0.5,0-1,0.1-1.3,0.4
			c-0.3,0.4-0.5,0.9-0.5,1.4v3.1h-1v-5.8h1L7.3,33.4z"/>
		<path id="Trazado_102215" d="M11.6,38.3c-0.5,0-0.9-0.1-1.3-0.4c-0.4-0.3-0.5-0.7-0.5-1.2c0-0.3,0-0.5,0.2-0.8
			c0.1-0.2,0.3-0.4,0.5-0.5c0.2-0.1,0.4-0.3,0.7-0.3c0.3-0.1,0.6-0.2,0.9-0.2l0.9-0.2c0.3-0.1,0.5-0.2,0.5-0.5
			c0-0.3-0.1-0.7-0.4-0.9c-0.3-0.2-0.6-0.3-0.9-0.3c-0.3,0-0.6,0.1-0.9,0.3c-0.3,0.2-0.4,0.5-0.4,0.8L10,33.9c0.1-0.5,0.3-1,0.8-1.2
			c0.5-0.3,1-0.4,1.6-0.4c0.3,0,0.6,0,0.8,0.1c0.3,0.1,0.5,0.2,0.7,0.3c0.2,0.2,0.4,0.4,0.5,0.6c0.1,0.3,0.2,0.6,0.2,1v2.4
			c0,0.2,0,0.4,0.1,0.6c0.1,0.1,0.3,0.2,0.5,0.2h0.1v0.8h-0.5c-0.5,0.1-1-0.2-1.1-0.8h-0.1C13.1,38,12.4,38.3,11.6,38.3L11.6,38.3z
			 M11.9,37.5c0.5,0,0.9-0.2,1.2-0.6c0.3-0.4,0.5-1,0.5-1.5l-1.5,0.3c-0.3,0-0.6,0.1-0.9,0.3c-0.4,0.3-0.4,0.9-0.1,1.2
			c0,0,0,0,0.1,0.1C11.4,37.4,11.6,37.5,11.9,37.5L11.9,37.5z"/>
		<path id="Trazado_102216" d="M20.7,32.4h1v5.5c0.1,1.6-1.2,3-2.9,3c-1.2,0-2.3-0.7-2.8-1.8l0.8-0.4c0.3,0.8,1.1,1.4,1.9,1.3
			c0.5,0,1-0.2,1.4-0.6c0.3-0.5,0.5-1,0.5-1.6v-1.1c-0.2,0.4-0.5,0.6-0.8,0.8c-1,0.6-2.3,0.3-3.1-0.5c-0.5-0.6-0.8-1.3-0.8-2.1
			c0-0.8,0.2-1.5,0.8-2.1c0.5-0.5,1.2-0.8,1.9-0.8c0.4,0,0.8,0.1,1.2,0.3c0.3,0.2,0.6,0.5,0.8,0.9L20.7,32.4z M18.9,37.1
			c0.5,0,1-0.2,1.3-0.6c0.4-0.4,0.6-0.9,0.6-1.4c0-0.5-0.2-1-0.6-1.4c-0.3-0.4-0.8-0.6-1.3-0.6c-0.5,0-1,0.2-1.3,0.6
			c-0.4,0.4-0.6,0.9-0.6,1.4c0,0.5,0.2,1.1,0.6,1.4C17.9,36.9,18.4,37.1,18.9,37.1L18.9,37.1z"/>
		<path id="Trazado_102217" d="M24.3,31c-0.2,0-0.4-0.1-0.5-0.2c-0.1-0.1-0.2-0.3-0.2-0.5c0-0.2,0.1-0.4,0.2-0.5
			c0.3-0.3,0.7-0.3,1,0c0.1,0.1,0.2,0.3,0.2,0.5c0,0.2-0.1,0.4-0.2,0.5C24.7,30.9,24.5,31,24.3,31z M23.8,38.2v-5.8h1v5.8H23.8z"/>
		<path id="Trazado_102218" d="M26.9,38.2v-9.1h1v9.1H26.9z"/>
		<path id="Trazado_102219" d="M30.6,31c-0.2,0-0.4-0.1-0.5-0.2c-0.1-0.1-0.2-0.3-0.2-0.5c0-0.2,0.1-0.4,0.2-0.5
			c0.3-0.3,0.7-0.3,1,0c0.1,0.1,0.2,0.3,0.2,0.5c0,0.2-0.1,0.4-0.2,0.5C30.9,30.9,30.8,31,30.6,31z M30,38.2v-5.8h1v5.8H30z"/>
		<path id="Trazado_102220" d="M37.5,29.1h1v9.1h-1V37c-0.2,0.4-0.5,0.7-0.8,0.9c-0.4,0.2-0.8,0.3-1.2,0.3c-0.4,0-0.7-0.1-1.1-0.2
			c-0.3-0.1-0.6-0.3-0.9-0.6c-0.3-0.3-0.5-0.6-0.6-1c-0.1-0.4-0.2-0.8-0.2-1.2c0-0.8,0.2-1.6,0.8-2.2c0.5-0.5,1.2-0.9,1.9-0.8
			c0.4,0,0.9,0.1,1.2,0.3c0.4,0.2,0.6,0.5,0.8,0.9L37.5,29.1z M35.6,37.4c0.5,0,1-0.2,1.4-0.6c0.4-0.4,0.6-1,0.5-1.5
			c0-0.6-0.2-1.1-0.6-1.5c-0.3-0.4-0.8-0.6-1.3-0.6c-0.5,0-1,0.2-1.4,0.6c-0.7,0.9-0.7,2.2,0,3.1C34.6,37.2,35.1,37.4,35.6,37.4
			L35.6,37.4z"/>
		<path id="Trazado_102221" d="M41.9,38.3c-0.5,0-0.9-0.1-1.3-0.4c-0.3-0.3-0.5-0.7-0.5-1.2c0-0.3,0-0.5,0.2-0.8
			c0.1-0.2,0.3-0.4,0.5-0.5c0.2-0.1,0.4-0.3,0.7-0.3c0.3-0.1,0.6-0.2,0.9-0.2l0.9-0.2c0.3-0.1,0.5-0.2,0.5-0.5
			c0-0.3-0.1-0.7-0.4-0.9c-0.3-0.2-0.6-0.3-0.9-0.3c-0.3,0-0.6,0.1-0.9,0.3c-0.3,0.2-0.4,0.5-0.4,0.8l-0.9-0.2
			c0.1-0.5,0.3-1,0.8-1.2c0.5-0.3,1-0.4,1.6-0.4c0.3,0,0.6,0,0.8,0.1c0.3,0.1,0.5,0.2,0.7,0.3c0.2,0.2,0.4,0.4,0.5,0.6
			c0.1,0.3,0.2,0.6,0.2,1v2.4c0,0.2,0,0.4,0.1,0.6c0.1,0.1,0.3,0.2,0.5,0.2h0.1v0.8H45c-0.5,0.1-1-0.2-1.1-0.8h-0.1
			C43.3,38,42.6,38.3,41.9,38.3z M42.1,37.5c0.5,0,0.9-0.2,1.2-0.6c0.3-0.4,0.5-1,0.5-1.5l-1.5,0.3c-0.3,0-0.6,0.1-0.9,0.3
			c-0.4,0.3-0.4,0.9-0.1,1.2c0,0,0,0,0.1,0.1C41.7,37.4,41.9,37.5,42.1,37.5L42.1,37.5z"/>
		<path id="Trazado_102222" d="M51.1,29.1h1v9.1h-1V37c-0.2,0.4-0.5,0.7-0.8,0.9c-0.4,0.2-0.8,0.3-1.2,0.3c-0.4,0-0.7-0.1-1.1-0.2
			c-0.3-0.1-0.6-0.3-0.9-0.6c-0.3-0.3-0.5-0.6-0.6-1c-0.1-0.4-0.2-0.8-0.2-1.2c0-0.8,0.2-1.6,0.8-2.2c0.5-0.5,1.2-0.9,1.9-0.8
			c0.4,0,0.9,0.1,1.2,0.3c0.4,0.2,0.6,0.5,0.8,0.9L51.1,29.1z M49.3,37.4c0.5,0,1-0.2,1.4-0.6c0.4-0.4,0.6-1,0.5-1.5
			c0-0.6-0.2-1.1-0.6-1.5c-0.3-0.4-0.8-0.6-1.3-0.6c-0.5,0-1,0.2-1.4,0.6c-0.7,0.9-0.7,2.2,0,3.1C48.3,37.2,48.7,37.4,49.3,37.4
			L49.3,37.4z"/>
		<path id="Trazado_102223" d="M4.8,45.3H1.4v2.7h3v1h-3v2.7h3.4v1H0.3v-8.3h4.5L4.8,45.3z"/>
		<path id="Trazado_102224" d="M12.5,46.8c0.5,0,1,0.2,1.4,0.5c0.4,0.4,0.5,0.9,0.5,1.4v4h-1v-3.8c0-0.4-0.1-0.7-0.3-1
			c-0.2-0.2-0.5-0.3-0.8-0.3c-0.3,0-0.7,0.1-0.9,0.4c-0.2,0.3-0.4,0.7-0.3,1.1v3.6h-1V49c0-0.4-0.1-0.7-0.3-1
			c-0.2-0.2-0.5-0.3-0.8-0.3c-0.3,0-0.7,0.1-0.9,0.4c-0.2,0.3-0.4,0.7-0.3,1.1v3.6h-1v-5.8h1v0.8C7.7,47.4,8,47.2,8.2,47
			c0.3-0.2,0.6-0.2,0.9-0.2c0.3,0,0.7,0.1,1,0.2c0.3,0.2,0.5,0.4,0.6,0.7c0.2-0.3,0.4-0.5,0.7-0.7C11.8,46.9,12.1,46.8,12.5,46.8z"
			/>
		<path id="Trazado_102225" d="M18.8,52.8c-0.5,0-1.1-0.1-1.5-0.4c-0.4-0.2-0.8-0.6-1.1-1.1c-0.3-0.5-0.4-1-0.4-1.6
			c0-0.8,0.3-1.6,0.8-2.2c1.2-1.1,3-1.1,4.2,0c1.1,1.3,1.1,3.1,0,4.4C20.3,52.6,19.6,52.9,18.8,52.8z M18.8,52c0.5,0,1-0.2,1.4-0.6
			c0.4-0.4,0.6-1,0.5-1.6c0-0.6-0.2-1.1-0.5-1.6c-0.3-0.4-0.9-0.6-1.4-0.6c-0.5,0-1,0.2-1.4,0.6c-0.4,0.4-0.6,1-0.5,1.6
			c0,0.6,0.2,1.1,0.5,1.6C17.8,51.8,18.3,52,18.8,52L18.8,52z"/>
		<path id="Trazado_102226" d="M25.7,52.8c-0.8,0-1.5-0.3-2.1-0.8c-0.6-0.6-0.9-1.4-0.8-2.2c0-0.8,0.3-1.6,0.8-2.2
			c1-1,2.6-1.1,3.8-0.3c0.5,0.3,0.8,0.8,1,1.4l-1,0.2c-0.2-0.7-0.9-1.2-1.7-1.2c-0.5,0-1,0.2-1.3,0.6c-0.7,0.9-0.7,2.2,0,3.1
			c0.3,0.4,0.8,0.6,1.3,0.6c0.8,0,1.5-0.5,1.7-1.2l1,0.2c-0.2,0.6-0.5,1.1-1,1.4C26.9,52.7,26.3,52.9,25.7,52.8L25.7,52.8z"/>
		<path id="Trazado_102227" d="M30.4,45.5c-0.4,0-0.7-0.3-0.7-0.7c0,0,0,0,0,0c0-0.2,0.1-0.4,0.2-0.5c0.1-0.1,0.3-0.2,0.5-0.2
			c0.2,0,0.4,0.1,0.5,0.2c0.1,0.1,0.2,0.3,0.2,0.5c0,0.2-0.1,0.4-0.2,0.5C30.8,45.5,30.6,45.5,30.4,45.5L30.4,45.5z M29.9,52.7v-5.8
			h1v5.8H29.9z"/>
		<path id="Trazado_102228" d="M35.5,52.8c-0.5,0-1.1-0.1-1.5-0.4c-0.4-0.2-0.8-0.6-1-1.1c-0.3-0.5-0.4-1-0.4-1.6
			c0-0.8,0.3-1.6,0.8-2.2c1.2-1.1,3-1.1,4.2,0c1.1,1.3,1.1,3.1,0,4.4C37,52.6,36.2,52.9,35.5,52.8L35.5,52.8z M35.5,52
			c0.5,0,1-0.2,1.4-0.6c0.4-0.4,0.6-1,0.5-1.6c0-0.6-0.2-1.1-0.5-1.6c-0.3-0.4-0.9-0.6-1.4-0.6c-0.5,0-1,0.2-1.4,0.6
			c-0.7,0.9-0.7,2.2,0,3.1C34.5,51.8,34.9,52,35.5,52L35.5,52z"/>
		<path id="Trazado_102229" d="M42.7,46.8c0.5,0,1.1,0.2,1.5,0.5c0.4,0.4,0.6,1,0.5,1.5v3.9h-1v-3.7c0-0.4-0.1-0.8-0.4-1
			c-0.2-0.2-0.6-0.4-0.9-0.3c-0.4,0-0.8,0.1-1,0.4c-0.3,0.3-0.4,0.8-0.4,1.2v3.5h-1v-5.8h1v0.8C41.4,47.1,42.1,46.8,42.7,46.8
			L42.7,46.8z"/>
		<path id="Trazado_102230" d="M48.1,52.8c-0.5,0-0.9-0.1-1.3-0.4c-0.3-0.3-0.5-0.7-0.5-1.2c0-0.3,0-0.5,0.2-0.8
			c0.1-0.2,0.3-0.4,0.5-0.5c0.2-0.1,0.4-0.3,0.7-0.3c0.3-0.1,0.6-0.2,0.9-0.2l0.9-0.2c0.3-0.1,0.5-0.2,0.5-0.5
			c0-0.3-0.1-0.7-0.4-0.9c-0.3-0.2-0.6-0.3-0.9-0.3c-0.3,0-0.6,0.1-0.9,0.3c-0.3,0.2-0.4,0.5-0.4,0.8l-0.9-0.2
			c0.1-0.5,0.3-1,0.8-1.2c0.5-0.3,1-0.4,1.6-0.4c0.3,0,0.6,0,0.8,0.1c0.3,0.1,0.5,0.2,0.7,0.3c0.2,0.2,0.4,0.4,0.5,0.6
			c0.1,0.3,0.2,0.6,0.2,1v2.4c0,0.2,0,0.4,0.1,0.6c0.1,0.1,0.3,0.2,0.5,0.2h0.1v0.8h-0.5c-0.5,0.1-1-0.2-1.1-0.8h0
			C49.5,52.6,48.8,52.9,48.1,52.8L48.1,52.8z M48.3,52c0.5,0,0.9-0.2,1.2-0.6c0.3-0.4,0.5-1,0.5-1.5l-1.5,0.3
			c-0.3,0-0.6,0.1-0.9,0.3c-0.4,0.3-0.4,0.9-0.1,1.2c0,0,0,0,0.1,0.1C47.8,52,48.1,52,48.3,52L48.3,52z"/>
		<path id="Trazado_102231" d="M53.1,52.7v-9.1h1v9.1H53.1z"/>
		<path id="Trazado_102232" d="M4.8,59.9H1.4v2.7h3v1h-3v3.7H0.3v-8.3h4.5L4.8,59.9z"/>
		<path id="Trazado_102233" d="M7.3,62.5c0.2-0.3,0.4-0.6,0.8-0.8c0.3-0.2,0.7-0.3,1.1-0.3v1c-0.5,0-1,0.1-1.3,0.4
			c-0.3,0.4-0.5,0.9-0.5,1.4v3.1h-1v-5.8h1L7.3,62.5z"/>
		<path id="Trazado_102234" d="M14,61.4h1v5.8h-1v-0.8c-0.2,0.3-0.4,0.5-0.7,0.7c-0.3,0.2-0.7,0.2-1,0.2c-0.5,0-1.1-0.2-1.5-0.5
			c-0.4-0.4-0.6-1-0.5-1.5v-3.9h1v3.7c0,0.4,0.1,0.8,0.4,1c0.2,0.2,0.6,0.4,0.9,0.3c0.4,0,0.8-0.1,1-0.4c0.3-0.3,0.4-0.8,0.4-1.2
			L14,61.4z"/>
		<path id="Trazado_102235" d="M18.9,67.4c-0.6,0-1.1-0.1-1.6-0.4c-0.4-0.3-0.7-0.7-0.8-1.2l0.9-0.3c0.1,0.3,0.2,0.6,0.5,0.8
			c0.3,0.2,0.6,0.3,1,0.3c0.2,0,0.4,0,0.6-0.1c0.2-0.1,0.3-0.2,0.4-0.3c0.1-0.2,0.2-0.3,0.2-0.5c0-0.1,0-0.2-0.1-0.2
			c0-0.1-0.1-0.1-0.1-0.2c0-0.1-0.1-0.1-0.2-0.2C19.7,65,19.6,65,19.6,65c-0.1,0-0.2-0.1-0.3-0.1L19,64.8l-0.3-0.1l-0.3-0.1
			c-0.2-0.1-0.4-0.1-0.6-0.2c-0.2-0.1-0.3-0.2-0.5-0.3c-0.2-0.1-0.3-0.3-0.4-0.5c-0.1-0.2-0.1-0.4-0.1-0.7c0-0.3,0.1-0.7,0.3-0.9
			c0.2-0.3,0.5-0.4,0.8-0.5c0.3-0.1,0.7-0.2,1-0.2c0.5,0,1,0.1,1.4,0.4c0.4,0.3,0.6,0.7,0.7,1.1L20.1,63c0-0.3-0.2-0.6-0.4-0.8
			c-0.2-0.2-0.5-0.3-0.8-0.2c-0.3,0-0.5,0.1-0.8,0.2c-0.2,0.1-0.3,0.4-0.3,0.6c0,0.1,0,0.2,0.1,0.3c0,0.1,0.1,0.2,0.2,0.2
			c0.1,0.1,0.2,0.1,0.3,0.2c0.1,0.1,0.2,0.1,0.3,0.1l0.4,0.1h0.1l0.6,0.2c0.2,0.1,0.3,0.1,0.5,0.2c0.2,0.1,0.3,0.2,0.5,0.3
			c0.3,0.3,0.4,0.7,0.4,1.1c0,0.3-0.1,0.5-0.2,0.8c-0.1,0.2-0.3,0.4-0.5,0.5c-0.2,0.1-0.4,0.2-0.7,0.3
			C19.5,67.3,19.2,67.3,18.9,67.4L18.9,67.4z"/>
		<path id="Trazado_102236" d="M24.6,67.2c-0.4,0-0.8-0.1-1.1-0.4c-0.3-0.3-0.4-0.7-0.4-1.2v-3.4h-1.2v-0.8h0.4c0.2,0,0.5,0,0.6-0.2
			c0.1-0.2,0.2-0.4,0.2-0.7v-1.1h1v1.9h1.3v0.8H24v3.3c0,0.2,0.1,0.5,0.2,0.6c0.2,0.2,0.4,0.2,0.6,0.2h0.5v0.8L24.6,67.2z"/>
		<path id="Trazado_102237" d="M27.8,62.5c0.2-0.3,0.4-0.6,0.7-0.8c0.3-0.2,0.7-0.3,1.1-0.3v1c-0.5,0-1,0.1-1.4,0.4
			c-0.3,0.4-0.5,0.9-0.5,1.4v3.1h-1v-5.8h1V62.5z"/>
		<path id="Trazado_102238" d="M32.2,67.4c-0.5,0-0.9-0.1-1.3-0.4c-0.3-0.3-0.5-0.7-0.5-1.2c0-0.3,0-0.5,0.2-0.8
			c0.1-0.2,0.3-0.4,0.5-0.5c0.2-0.1,0.4-0.3,0.7-0.3c0.3-0.1,0.6-0.2,0.9-0.2l0.9-0.2c0.3-0.1,0.5-0.2,0.5-0.5
			c0-0.3-0.1-0.7-0.4-0.9c-0.3-0.2-0.6-0.3-0.9-0.3c-0.3,0-0.6,0.1-0.9,0.3c-0.3,0.2-0.4,0.5-0.4,0.8L30.5,63c0.1-0.5,0.3-1,0.8-1.2
			c0.5-0.3,1-0.4,1.6-0.4c0.3,0,0.6,0,0.8,0.1c0.3,0.1,0.5,0.2,0.7,0.3c0.2,0.2,0.4,0.4,0.5,0.6c0.1,0.3,0.2,0.6,0.2,1v2.4
			c0,0.2,0,0.4,0.1,0.6c0.1,0.1,0.3,0.2,0.5,0.2h0.1v0.8h-0.5c-0.6,0-1-0.3-1.1-0.8h0C33.6,67.1,32.9,67.4,32.2,67.4z M32.4,66.5
			c0.5,0,0.9-0.2,1.2-0.6c0.3-0.4,0.5-1,0.5-1.5l-1.5,0.3c-0.3,0-0.6,0.1-0.9,0.3c-0.4,0.3-0.4,0.8-0.1,1.2c0,0,0,0.1,0.1,0.1
			C31.9,66.5,32.2,66.6,32.4,66.5L32.4,66.5z"/>
		<path id="Trazado_102239" d="M39.5,67.4c-0.8,0-1.5-0.3-2.1-0.8c-1.1-1.2-1.1-3.1,0-4.4c0.5-0.6,1.3-0.9,2.1-0.8
			c0.6,0,1.2,0.2,1.7,0.5c0.5,0.3,0.8,0.8,1,1.4l-1,0.2c-0.1-0.4-0.3-0.7-0.7-0.9c-0.3-0.2-0.7-0.3-1.1-0.3c-0.5,0-1,0.2-1.3,0.6
			c-0.7,0.9-0.7,2.2,0,3.1c0.3,0.4,0.8,0.6,1.3,0.6c0.4,0,0.7-0.1,1.1-0.3c0.3-0.2,0.5-0.5,0.7-0.9l1,0.2c-0.2,0.6-0.5,1.1-1,1.4
			C40.7,67.2,40.1,67.4,39.5,67.4z"/>
		<path id="Trazado_102240" d="M44.2,60.1c-0.2,0-0.4-0.1-0.5-0.2c-0.1-0.1-0.2-0.3-0.2-0.5c0-0.2,0.1-0.4,0.2-0.5
			c0.3-0.3,0.7-0.3,1,0c0.1,0.1,0.2,0.3,0.2,0.5c0,0.2-0.1,0.4-0.2,0.5C44.5,60,44.3,60.1,44.2,60.1z M43.6,67.2v-5.8h1v5.8
			L43.6,67.2z"/>
		<path id="Trazado_102241" d="M49.2,67.4c-0.5,0-1.1-0.1-1.5-0.4c-0.4-0.2-0.8-0.6-1.1-1.1c-0.3-0.5-0.4-1-0.4-1.6
			c0-0.8,0.3-1.6,0.8-2.2c1.2-1.1,3-1.1,4.2,0c0.6,0.6,0.9,1.4,0.8,2.2c0,0.8-0.3,1.6-0.8,2.2C50.7,67.1,50,67.4,49.2,67.4z
			 M49.2,66.5c0.5,0,1-0.2,1.4-0.6c0.4-0.4,0.6-1,0.5-1.6c0-0.6-0.2-1.1-0.5-1.6c-0.3-0.4-0.9-0.6-1.4-0.6c-0.5,0-1,0.2-1.4,0.6
			c-0.4,0.4-0.6,1-0.5,1.6c0,0.6,0.2,1.1,0.5,1.6C48.2,66.3,48.7,66.5,49.2,66.5L49.2,66.5z M48.8,60.5l1.5-1.9l0.5,0.4l-1.3,1.5
			L48.8,60.5z"/>
		<path id="Trazado_102242" d="M56.5,61.3c0.5,0,1.1,0.2,1.5,0.5c0.4,0.4,0.6,1,0.5,1.5v3.9h-1.1v-3.7c0-0.4-0.1-0.8-0.4-1
			c-0.2-0.2-0.6-0.4-0.9-0.3c-0.4,0-0.8,0.1-1,0.4c-0.3,0.3-0.4,0.8-0.4,1.2v3.5h-1v-5.8h1v0.8C55.1,61.6,55.8,61.3,56.5,61.3z"/>
	</g>
	<g id="Grupo_57678" transform="translate(242.438 88.287)">
		<path id="Trazado_102243" d="M3.6,0.4c0.7,0,1.5,0.2,2,0.8c0.5,0.5,0.8,1.2,0.8,2c0,0.7-0.2,1.4-0.8,2C5,5.6,4.3,5.9,3.6,5.8H1.8
			v3H0V0.4L3.6,0.4z M3.3,4.4c0.4,0,0.7-0.1,1-0.3c0.2-0.3,0.3-0.6,0.3-0.9c0-0.3-0.1-0.7-0.3-0.9C4,2,3.6,1.9,3.3,1.9H1.7v2.5
			L3.3,4.4z"/>
		<path id="Trazado_102244" d="M10.2,9.1C9.6,9.1,9,9,8.4,8.7C8,8.5,7.5,8.1,7.3,7.6C7,7.1,6.8,6.5,6.8,5.9c0-0.9,0.3-1.7,0.9-2.3
			c1.4-1.1,3.4-1.1,4.8,0c1.2,1.3,1.2,3.3,0,4.6C11.9,8.8,11,9.1,10.2,9.1z M10.2,7.7c0.5,0,0.9-0.2,1.2-0.5
			c0.3-0.4,0.5-0.8,0.5-1.3c0-0.5-0.1-1-0.5-1.3c-0.3-0.3-0.7-0.5-1.2-0.5C9.7,4.1,9.3,4.3,9,4.6C8.4,5.4,8.4,6.4,9,7.2
			C9.3,7.5,9.7,7.7,10.2,7.7L10.2,7.7z"/>
		<path id="Trazado_102245" d="M16.9,9.1c-0.6,0-1.2-0.1-1.8-0.4c-0.5-0.3-0.8-0.7-0.9-1.3L15.7,7c0.1,0.6,0.6,1,1.2,0.9
			c0.2,0,0.4,0,0.6-0.1c0.2-0.1,0.3-0.3,0.2-0.5c0-0.1,0-0.2-0.1-0.3c-0.1-0.1-0.2-0.2-0.3-0.2l-0.4-0.2l-0.5-0.2
			c-0.2,0-0.4-0.1-0.6-0.2c-0.2-0.1-0.4-0.1-0.5-0.2c-0.2-0.1-0.3-0.2-0.4-0.3c-0.1-0.1-0.3-0.3-0.3-0.5c-0.1-0.2-0.1-0.4-0.1-0.7
			c0-0.5,0.2-1.1,0.7-1.4c0.5-0.3,1.1-0.5,1.7-0.5c0.6,0,1.1,0.1,1.6,0.4c0.4,0.3,0.7,0.7,0.8,1.2l-1.3,0.3
			c-0.1-0.5-0.6-0.8-1.1-0.8c-0.2,0-0.4,0-0.6,0.1C16.1,4.1,16,4.3,16,4.5c0,0.1,0,0.1,0,0.2c0,0.1,0.1,0.1,0.1,0.1l0.2,0.1
			c0.1,0,0.2,0.1,0.2,0.1c0.1,0,0.2,0.1,0.3,0.1l0.3,0.1l0.3,0.1c0.2,0.1,0.4,0.1,0.6,0.2c0.2,0.1,0.4,0.2,0.5,0.2
			C18.7,5.8,18.8,5.9,19,6c0.1,0.2,0.2,0.3,0.3,0.5c0.1,0.2,0.1,0.4,0.1,0.7c0,0.3-0.1,0.6-0.2,0.9c-0.1,0.2-0.3,0.5-0.6,0.6
			c-0.2,0.1-0.5,0.3-0.8,0.3C17.5,9.1,17.2,9.1,16.9,9.1z"/>
		<path id="Trazado_102246" d="M21.5,2c-0.5,0-1-0.4-1-1c0-0.3,0.1-0.5,0.3-0.7C21,0.1,21.2,0,21.5,0c0.5,0,0.9,0.5,0.9,1.1
			C22.4,1.5,22,1.9,21.5,2L21.5,2z M20.6,9V2.9h1.7V9H20.6z"/>
		<path id="Trazado_102247" d="M26.4,9c-0.5,0-1-0.1-1.4-0.5c-0.3-0.4-0.5-0.9-0.5-1.4V4.2h-1.2V2.9h0.4c0.3,0,0.6-0.1,0.8-0.2
			c0.2-0.3,0.3-0.6,0.2-0.9V0.9h1.5v2h1.3v1.3h-1.3v2.7c0,0.5,0.2,0.8,0.7,0.8h0.6v1.3L26.4,9z"/>
		<path id="Trazado_102248" d="M29.7,2c-0.3,0-0.5-0.1-0.7-0.3c-0.2-0.2-0.3-0.4-0.3-0.7c0-0.3,0.1-0.5,0.3-0.7
			C29.2,0.1,29.4,0,29.7,0c0.3,0,0.5,0.1,0.7,0.3c0.4,0.4,0.4,1,0,1.4c0,0,0,0,0,0C30.2,1.9,30,2,29.7,2z M28.8,9V2.9h1.7V9H28.8z"
			/>
		<path id="Trazado_102249" d="M36.3,2.9h1.8l-2.6,6.1H34l-2.6-6.1h1.8L34.7,7L36.3,2.9z"/>
		<path id="Trazado_102250" d="M41.6,9.1c-0.6,0-1.2-0.1-1.7-0.4c-0.5-0.2-0.9-0.6-1.2-1.1c-0.3-0.5-0.4-1.1-0.4-1.7
			c0-0.9,0.3-1.7,0.9-2.3c1.4-1.1,3.4-1.1,4.8,0c1.2,1.3,1.2,3.3,0,4.6C43.3,8.8,42.4,9.1,41.6,9.1z M41.6,7.7
			c0.5,0,0.9-0.2,1.2-0.5c0.3-0.4,0.5-0.8,0.5-1.3c0-0.5-0.1-1-0.5-1.3c-0.3-0.3-0.7-0.5-1.2-0.5c-0.4,0-0.9,0.2-1.2,0.5
			c-0.6,0.8-0.6,1.9,0,2.6C40.7,7.5,41.1,7.7,41.6,7.7L41.6,7.7z"/>
	</g>
	<g id="Grupo_57679" transform="translate(337.215 88.287)">
		<path id="Trazado_102251" d="M5.8,0.4h1.8V9H5.6L1.8,2.8V9H0V0.4h2.1l3.8,6.1L5.8,0.4z"/>
		<path id="Trazado_102252" d="M15.3,5.8v0.4h-4.5c0,0.4,0.2,0.8,0.5,1.1c0.5,0.4,1.3,0.5,1.9,0.2c0.2-0.1,0.4-0.4,0.5-0.6l1.6,0.2
			c-0.2,0.6-0.6,1.1-1.1,1.4c-0.5,0.3-1.2,0.5-1.8,0.5c-0.9,0-1.7-0.3-2.4-0.8C9.4,7.6,9,6.8,9.1,5.9C9,5,9.4,4.2,10,3.6
			c0.6-0.6,1.5-0.9,2.3-0.8c1.5-0.1,2.9,1,3,2.5C15.3,5.4,15.3,5.6,15.3,5.8L15.3,5.8z M12.3,3.9c-0.7-0.1-1.4,0.4-1.5,1.2h2.8
			c0-0.3-0.2-0.6-0.4-0.9C12.9,4.1,12.6,3.9,12.3,3.9L12.3,3.9z"/>
		<path id="Trazado_102253" d="M20.8,2.9h1.6v5.6c0,0.5-0.1,1-0.2,1.5c-0.1,0.4-0.4,0.8-0.7,1c-0.3,0.3-0.6,0.5-1,0.6
			c-0.4,0.1-0.9,0.2-1.3,0.2c-1.4,0.2-2.6-0.6-3.1-1.9l1.4-0.6c0.1,0.3,0.4,0.7,0.7,0.9c0.3,0.2,0.6,0.3,1,0.3
			c1.1,0,1.6-0.6,1.6-1.9V7.9c-0.2,0.3-0.5,0.5-0.8,0.6c-0.3,0.2-0.7,0.2-1.1,0.2c-0.4,0-0.7-0.1-1.1-0.2c-0.3-0.1-0.6-0.3-0.9-0.6
			c-0.3-0.3-0.5-0.6-0.6-1c-0.3-0.8-0.3-1.7,0-2.5c0.1-0.4,0.3-0.7,0.6-0.9c0.2-0.3,0.6-0.5,0.9-0.6c0.3-0.1,0.7-0.2,1.1-0.2
			c0.4,0,0.8,0.1,1.1,0.3c0.3,0.1,0.6,0.4,0.8,0.7L20.8,2.9z M18.2,6.9c0.3,0.3,0.7,0.5,1.1,0.5c0.4,0,0.8-0.2,1.1-0.5
			c0.6-0.7,0.6-1.7,0-2.3c-0.6-0.6-1.6-0.6-2.2,0c0,0,0,0,0,0c-0.3,0.3-0.5,0.7-0.4,1.2C17.7,6.2,17.9,6.6,18.2,6.9z"/>
		<path id="Trazado_102254" d="M29.2,7.3c0,0.5,0,1,0.1,1.5V9h-1.6l-0.1-0.7c-0.2,0.3-0.5,0.5-0.8,0.6C26.4,9,26,9.1,25.6,9.1
			c-0.2,0-0.4,0-0.6-0.1c-0.2,0-0.3-0.1-0.5-0.2c-0.2-0.1-0.3-0.2-0.4-0.3c-0.1-0.1-0.2-0.3-0.3-0.5c-0.2-0.4-0.2-0.9,0-1.3
			c0.1-0.2,0.2-0.3,0.3-0.5c0.1-0.1,0.3-0.3,0.5-0.4c0.2-0.1,0.4-0.2,0.6-0.3c0.2-0.1,0.5-0.1,0.8-0.2l1-0.2c0.2,0,0.3-0.1,0.4-0.2
			c0.1-0.1,0.1-0.2,0.1-0.3c0-0.2-0.1-0.5-0.3-0.6C27,4,26.8,4,26.5,4c-0.6-0.1-1.1,0.3-1.2,0.9c0,0,0,0,0,0l-1.5-0.3
			c0.1-0.6,0.4-1.1,0.9-1.4c0.6-0.3,1.2-0.5,1.9-0.4c1.7,0,2.6,0.7,2.6,2.2L29.2,7.3z M26.1,7.9c0.4,0,0.8-0.2,1.1-0.4
			c0.3-0.4,0.4-0.8,0.4-1.3l-1.4,0.4c-0.2,0-0.4,0.1-0.6,0.2c-0.1,0.1-0.2,0.3-0.2,0.4c0,0.2,0.1,0.4,0.2,0.5
			C25.7,7.9,26,7.9,26.1,7.9L26.1,7.9z"/>
		<path id="Trazado_102255" d="M33,9c-0.5,0-1-0.1-1.4-0.5c-0.3-0.4-0.5-0.9-0.5-1.4V4.2H30V2.9h0.4c0.3,0,0.5-0.1,0.8-0.2
			c0.2-0.3,0.3-0.6,0.2-0.9V0.9h1.5v2h1.2v1.3h-1.2v2.7c0,0.5,0.2,0.8,0.7,0.8h0.5v1.3L33,9z"/>
		<path id="Trazado_102256" d="M36.3,2c-0.3,0-0.5-0.1-0.7-0.3c-0.2-0.2-0.3-0.4-0.3-0.7c0-0.3,0.1-0.5,0.3-0.7c0.4-0.4,1-0.4,1.4,0
			s0.4,1,0,1.4C36.8,1.9,36.6,2,36.3,2z M35.5,9V2.9h1.7V9H35.5z"/>
		<path id="Trazado_102257" d="M42.9,2.9h1.8l-2.6,6.1h-1.5L38,2.9h1.8L41.3,7L42.9,2.9z"/>
		<path id="Trazado_102258" d="M48.2,9.1c-0.6,0-1.2-0.1-1.7-0.4c-0.5-0.2-0.9-0.6-1.2-1.1c-0.3-0.5-0.4-1.1-0.4-1.7
			c0-0.9,0.3-1.7,0.9-2.3c1.4-1.1,3.4-1.1,4.8,0c1.2,1.3,1.2,3.3,0,4.6C49.9,8.8,49.1,9.1,48.2,9.1L48.2,9.1z M48.2,7.7
			c0.5,0,0.9-0.2,1.2-0.5c0.3-0.4,0.5-0.8,0.5-1.3c0-0.5-0.1-1-0.5-1.3c-0.3-0.3-0.7-0.5-1.2-0.5c-0.4,0-0.9,0.2-1.2,0.5
			c-0.6,0.8-0.6,1.8,0,2.6C47.3,7.5,47.7,7.7,48.2,7.7L48.2,7.7z"/>
	</g>
	<path id="Trazado_102192_00000169555731999987770060000012156098175187102370_" d="M251.1,152.2c-0.6,0-1.1-0.1-1.6-0.4
		c-0.4-0.3-0.7-0.7-0.8-1.2l0.9-0.3c0.1,0.3,0.2,0.6,0.5,0.8c0.3,0.2,0.6,0.3,1,0.3c0.2,0,0.4,0,0.6-0.1c0.2-0.1,0.3-0.2,0.4-0.3
		c0.1-0.1,0.2-0.3,0.2-0.5c0-0.1,0-0.2-0.1-0.2c0-0.1-0.1-0.1-0.1-0.2c0-0.1-0.1-0.1-0.2-0.2c-0.1,0-0.1-0.1-0.2-0.1
		c-0.1,0-0.2-0.1-0.3-0.1l-0.3-0.1l-0.3-0.1l-0.3-0.1c-0.2-0.1-0.4-0.1-0.6-0.2c-0.2-0.1-0.3-0.2-0.5-0.3c-0.2-0.1-0.3-0.3-0.4-0.5
		c-0.1-0.2-0.1-0.4-0.1-0.7c0-0.3,0.1-0.7,0.3-0.9c0.2-0.3,0.5-0.4,0.8-0.5c0.3-0.1,0.7-0.2,1-0.2c0.5,0,1,0.1,1.4,0.4
		c0.4,0.3,0.6,0.7,0.7,1.1l-0.8,0.2c0-0.3-0.2-0.6-0.4-0.8c-0.2-0.2-0.5-0.3-0.8-0.2c-0.3,0-0.5,0.1-0.8,0.2
		c-0.2,0.1-0.3,0.4-0.3,0.6c0,0.1,0,0.2,0.1,0.3c0,0.1,0.1,0.2,0.2,0.2c0.1,0.1,0.2,0.1,0.3,0.2c0.1,0.1,0.2,0.1,0.3,0.1l0.4,0.1
		h0.1l0.6,0.2c0.2,0.1,0.3,0.1,0.5,0.2c0.2,0.1,0.3,0.2,0.5,0.3c0.1,0.1,0.2,0.3,0.3,0.4c0.1,0.2,0.1,0.4,0.1,0.6
		c0,0.3-0.1,0.5-0.2,0.8c-0.1,0.2-0.3,0.4-0.5,0.5c-0.2,0.1-0.4,0.2-0.7,0.3C251.7,152.1,251.4,152.1,251.1,152.2z"/>
	<polygon points="281.9,145.6 283.4,143.7 283.9,144.1 282.6,145.6 	"/>
</g>
</svg>
