<?xml version="1.0" encoding="utf-8"?>
<!-- Generator: Adobe Illustrator 26.0.1, SVG Export Plug-In . SVG Version: 6.00 Build 0)  -->
<svg version="1.1" id="info_1_4-09" xmlns="http://www.w3.org/2000/svg" xmlns:xlink="http://www.w3.org/1999/xlink" x="0px"
	 y="0px" viewBox="0 0 426.8 227.5" style="enable-background:new 0 0 426.8 227.5;" xml:space="preserve">
<style type="text/css">
	.st0{fill:#999999;}
	.st1{fill:#F2F2F2;}
	.st2{opacity:0.75;}
	.st3{opacity:0.5;}
	.st4{opacity:0.25;}
</style>
<rect id="Rectángulo_5417" y="173" class="st0" width="53.3" height="54.5"/>
<rect id="Rectángulo_5418" class="st0" width="213.4" height="173"/>
<rect id="Rectángulo_5419" x="213.4" class="st1" width="213.4" height="227.5"/>
<g id="Grupo_57731" transform="translate(53.345 173)" class="st2">
	<rect id="Rectángulo_5420" x="0" class="st0" width="53.3" height="54.5"/>
</g>
<g id="Grupo_57732" transform="translate(106.697 173)" class="st3">
	<rect id="Rectángulo_5421" x="0" class="st0" width="53.3" height="54.5"/>
</g>
<g id="Grupo_57733" transform="translate(160.042 173)" class="st4">
	<rect id="Rectángulo_5422" x="0" class="st0" width="53.3" height="54.5"/>
</g>
<g id="Grupo_57734" transform="translate(239.193 41.144)">
	<path id="Trazado_102919" d="M10.2,21.5c-1.4,0-2.8-0.3-4.1-0.8c-1.2-0.5-2.3-1.2-3.2-2.1c-0.9-0.9-1.7-2.1-2.1-3.3
		c-1-2.8-1-5.8,0-8.6C1.3,5.6,2,4.5,3,3.5C3.9,2.6,5,1.9,6.3,1.5C7.6,0.9,9,0.7,10.4,0.7c1.8,0,3.7,0.4,5.3,1.2
		c1.5,0.8,2.8,2,3.7,3.5l-3.7,2c-0.5-1-1.2-1.7-2.1-2.3c-0.9-0.5-2-0.8-3.1-0.8C8.7,4.4,7.1,5,6,6.2c-1.2,1.4-1.8,3.1-1.7,4.9
		c-0.1,1.8,0.5,3.6,1.7,5c1.2,1.3,2.9,1.9,4.6,1.9c0.8,0,1.7-0.1,2.5-0.4c0.8-0.3,1.4-0.8,2-1.4c0.6-0.7,1-1.5,1.1-2.4h-5.6v-3.5
		h9.5v11h-3.3v-2.8C15.4,20.5,13.2,21.5,10.2,21.5z"/>
	<path id="Trazado_102920" d="M27.8,9.1c0.5-0.7,1.1-1.3,1.9-1.7c0.9-0.5,1.8-0.8,2.8-0.8v3.6c-1.2-0.1-2.4,0.2-3.5,0.9
		c-0.8,0.8-1.2,2-1.1,3.1v7.1h-4.1V6.8h3.9V9.1z"/>
	<path id="Trazado_102921" d="M37,4.6c-1.3,0-2.3-1-2.3-2.3c0,0,0,0,0,0c0-0.6,0.2-1.2,0.7-1.6C35.8,0.2,36.4,0,37,0
		c1.3,0,2.3,1,2.3,2.3S38.3,4.6,37,4.6L37,4.6z M35,21.3V6.8H39v14.4H35z"/>
	<path id="Trazado_102922" d="M48.3,21.5c-1.5,0.1-2.9-0.3-4.2-1c-1.1-0.6-1.9-1.8-2.1-3l3.4-1c0.3,1.3,1.5,2.3,2.9,2.1
		c0.5,0,1-0.1,1.5-0.3c0.4-0.2,0.6-0.7,0.6-1.1c0-0.3-0.1-0.5-0.2-0.8c-0.2-0.2-0.5-0.4-0.8-0.5c-0.3-0.1-0.7-0.3-1-0.4
		s-0.8-0.2-1.3-0.4c-0.5-0.1-0.9-0.3-1.3-0.4c-0.4-0.1-0.9-0.3-1.3-0.5c-0.4-0.2-0.7-0.5-1.1-0.8c-0.3-0.3-0.6-0.7-0.8-1.1
		c-0.2-0.5-0.3-1-0.3-1.5c-0.1-1.3,0.5-2.5,1.6-3.2c1.2-0.8,2.6-1.1,4.1-1c1.3,0,2.6,0.3,3.8,0.9c1,0.6,1.7,1.7,1.9,2.9l-3.1,0.7
		c-0.3-1.2-1.4-1.9-2.6-1.8c-0.5,0-1,0.1-1.4,0.3c-0.4,0.2-0.6,0.6-0.6,1c0,0.1,0,0.3,0.1,0.4c0.1,0.1,0.2,0.3,0.3,0.4
		c0.1,0.1,0.3,0.2,0.4,0.3c0.2,0.1,0.4,0.2,0.6,0.2L48,12l0.8,0.2l0.8,0.2c0.5,0.1,1,0.3,1.4,0.4c0.4,0.2,0.8,0.4,1.2,0.6
		c0.4,0.2,0.8,0.5,1.1,0.9c0.3,0.3,0.5,0.8,0.7,1.2c0.2,0.5,0.3,1.1,0.3,1.6c0,0.7-0.1,1.4-0.5,2.1c-0.3,0.6-0.8,1.1-1.4,1.4
		c-0.6,0.3-1.2,0.6-1.9,0.8C49.8,21.5,49,21.5,48.3,21.5z"/>
</g>
<g id="Grupo_57735" transform="translate(241.665 113.763)">
	<path id="Trazado_102923" d="M6.6,0.8h1.1v8.3H6.5L2,2.3v6.7H1V0.8h1.1l4.5,6.7V0.8z"/>
	<path id="Trazado_102924" d="M15,6.1v0.3h-4.5c0,0.6,0.2,1.1,0.6,1.5c0.4,0.3,0.8,0.5,1.3,0.5c0.7,0,1.3-0.4,1.6-1.1l0.9,0.2
		c-0.2,0.5-0.5,0.9-1,1.3c-0.4,0.3-1,0.5-1.5,0.5c-0.8,0-1.5-0.3-2.1-0.8c-1.1-1.3-1.1-3.1,0-4.4c0.5-0.5,1.3-0.8,2.1-0.8
		c0.7,0,1.4,0.2,2,0.8C14.8,4.5,15,5.3,15,6.1z M12.3,3.9c-0.4,0-0.9,0.1-1.2,0.4c-0.3,0.3-0.6,0.7-0.6,1.2h3.5
		c0-0.5-0.2-0.9-0.5-1.2C13.1,4.1,12.7,3.9,12.3,3.9L12.3,3.9z"/>
	<path id="Trazado_102925" d="M20.2,3.3h1v5.8h-1V8.3c-0.2,0.3-0.4,0.5-0.7,0.7c-0.3,0.2-0.7,0.2-1,0.2C18,9.2,17.4,9,17,8.7
		c-0.4-0.4-0.6-1-0.5-1.5V3.3h1v3.7c0,0.4,0.1,0.8,0.4,1c0.2,0.2,0.6,0.4,0.9,0.3c0.4,0,0.8-0.1,1-0.4c0.3-0.3,0.4-0.8,0.4-1.2
		L20.2,3.3z"/>
	<path id="Trazado_102926" d="M25.2,9.1c-0.4,0-0.8-0.1-1.1-0.4c-0.3-0.3-0.4-0.7-0.4-1.2V4.1h-1.2V3.3h0.4c0.2,0,0.5,0,0.6-0.2
		c0.1-0.2,0.2-0.4,0.2-0.7v-1h0.9v1.9H26v0.8h-1.3v3.3c0,0.2,0.1,0.5,0.2,0.6c0.2,0.2,0.4,0.2,0.6,0.2H26v0.8L25.2,9.1z"/>
	<path id="Trazado_102927" d="M28.5,4.3c0.2-0.3,0.4-0.6,0.8-0.8c0.3-0.2,0.7-0.3,1.1-0.3v1c-0.5,0-1,0.1-1.3,0.4
		C28.6,5,28.5,5.5,28.5,6v3.1h-1V3.3h1L28.5,4.3z"/>
	<path id="Trazado_102928" d="M32.8,9.2c-0.5,0-0.9-0.1-1.3-0.4C31.2,8.5,31,8.1,31,7.6c0-0.3,0-0.5,0.2-0.8
		c0.1-0.2,0.3-0.4,0.5-0.5c0.2-0.1,0.4-0.3,0.7-0.3c0.3-0.1,0.6-0.2,0.9-0.2l0.9-0.2c0.3-0.1,0.5-0.2,0.5-0.5c0-0.3-0.1-0.7-0.4-0.9
		C34,4,33.7,3.9,33.4,4c-0.3,0-0.6,0.1-0.9,0.3C32.2,4.4,32,4.7,32,5l-0.9-0.2c0.1-0.5,0.3-1,0.8-1.2c0.5-0.3,1-0.4,1.6-0.4
		c0.3,0,0.6,0,0.8,0.1c0.3,0.1,0.5,0.2,0.7,0.3c0.2,0.2,0.4,0.4,0.5,0.6c0.1,0.3,0.2,0.6,0.2,1v2.4c0,0.2,0,0.4,0.1,0.6
		c0.1,0.1,0.3,0.2,0.5,0.2h0.1v0.8h-0.5c-0.5,0.1-1-0.2-1.1-0.8h-0.1C34.2,8.9,33.5,9.3,32.8,9.2z M33,8.4c0.5,0,0.9-0.2,1.2-0.6
		c0.3-0.4,0.5-1,0.5-1.5l-1.5,0.3c-0.3,0-0.6,0.1-0.9,0.3c-0.4,0.3-0.4,0.8-0.1,1.2c0,0,0.1,0.1,0.1,0.1C32.5,8.3,32.8,8.4,33,8.4
		L33,8.4z"/>
	<path id="Trazado_102929" d="M37.8,9.1V0h1v9.1H37.8z"/>
	<path id="Trazado_102930" d="M4.1,15.3c0.5,0,0.9,0.1,1.3,0.3c0.4,0.2,0.7,0.5,0.9,0.9c0.2,0.4,0.3,0.8,0.3,1.3
		c0,0.7-0.2,1.3-0.7,1.8c-0.5,0.5-1.1,0.8-1.8,0.8H2v3.2H1v-8.3L4.1,15.3z M4,19.5c0.4,0,0.9-0.1,1.2-0.4c0.6-0.7,0.6-1.7,0-2.4
		c-0.3-0.3-0.7-0.5-1.2-0.5H2v3.3H4z"/>
	<path id="Trazado_102931" d="M9.2,18.8c0.2-0.3,0.4-0.6,0.8-0.8c0.3-0.2,0.7-0.3,1.1-0.3v1c-0.5,0-1,0.1-1.3,0.4
		c-0.3,0.4-0.5,0.9-0.5,1.4v3.1h-1v-5.8h1L9.2,18.8z"/>
	<path id="Trazado_102932" d="M13.5,23.7c-0.5,0-0.9-0.1-1.3-0.4c-0.3-0.3-0.5-0.7-0.5-1.2c0-0.3,0-0.5,0.2-0.8
		c0.1-0.2,0.3-0.4,0.5-0.5c0.2-0.1,0.4-0.3,0.7-0.3c0.3-0.1,0.6-0.2,0.9-0.2l0.9-0.2c0.3-0.1,0.5-0.2,0.5-0.5c0-0.3-0.1-0.7-0.4-0.9
		c-0.3-0.2-0.6-0.3-0.9-0.3c-0.3,0-0.6,0.1-0.9,0.3c-0.3,0.2-0.4,0.5-0.4,0.8l-0.9-0.2c0.1-0.5,0.3-1,0.8-1.2c0.5-0.3,1-0.4,1.6-0.4
		c0.3,0,0.6,0,0.8,0.1c0.3,0.1,0.5,0.2,0.7,0.3c0.2,0.2,0.4,0.4,0.5,0.6c0.1,0.3,0.2,0.6,0.2,1v2.4c0,0.2,0,0.4,0.1,0.6
		c0.1,0.1,0.3,0.2,0.5,0.2h0.1v0.8h-0.6c-0.5,0.1-1-0.2-1.1-0.8h-0.1C15,23.5,14.3,23.8,13.5,23.7z M13.8,22.9
		c0.5,0,0.9-0.2,1.2-0.6c0.3-0.4,0.5-1,0.5-1.5L14,21.1c-0.3,0-0.6,0.1-0.9,0.3c-0.4,0.3-0.4,0.8-0.1,1.2c0,0,0.1,0.1,0.1,0.1
		C13.3,22.9,13.5,22.9,13.8,22.9L13.8,22.9z"/>
	<path id="Trazado_102933" d="M20.8,23.7c-0.8,0-1.5-0.3-2.1-0.8c-1.1-1.2-1.1-3.1,0-4.4c1-1,2.6-1.1,3.8-0.3c0.5,0.3,0.8,0.8,1,1.4
		l-1,0.2c-0.2-0.7-0.9-1.2-1.7-1.2c-0.5,0-1,0.2-1.3,0.6c-0.7,0.9-0.7,2.2,0,3.1c0.7,0.7,1.8,0.8,2.6,0.1c0.2-0.2,0.4-0.5,0.5-0.8
		l1,0.2c-0.2,0.6-0.5,1.1-1,1.4C22,23.6,21.4,23.8,20.8,23.7z"/>
	<path id="Trazado_102934" d="M26.8,23.6c-0.4,0-0.8-0.1-1.1-0.4c-0.3-0.3-0.4-0.7-0.4-1.2v-3.4h-1.2v-0.8h0.4c0.2,0,0.5,0,0.6-0.2
		c0.1-0.2,0.2-0.4,0.2-0.7v-1.1h1v1.9h1.3v0.8h-1.3v3.3c0,0.2,0.1,0.5,0.2,0.6c0.2,0.2,0.4,0.2,0.6,0.2h0.5v0.8L26.8,23.6z"/>
	<path id="Trazado_102935" d="M29.7,16.4c-0.4,0-0.7-0.3-0.7-0.7c0,0,0,0,0,0c0-0.2,0.1-0.4,0.2-0.5c0.3-0.3,0.7-0.3,1,0
		c0.1,0.1,0.2,0.3,0.2,0.5c0,0.2-0.1,0.4-0.2,0.5C30,16.4,29.8,16.4,29.7,16.4z M29.1,23.6v-5.8h1.1v5.8H29.1z"/>
	<path id="Trazado_102936" d="M34.7,23.7c-0.8,0-1.5-0.3-2.1-0.8c-1.1-1.2-1.1-3.1,0-4.4c0.5-0.6,1.3-0.9,2.1-0.8
		c0.6,0,1.2,0.2,1.7,0.5c0.5,0.3,0.8,0.8,1,1.4l-1,0.2c-0.2-0.7-0.9-1.2-1.7-1.2c-0.5,0-1,0.2-1.3,0.6c-0.7,0.9-0.7,2.2,0,3.1
		c0.7,0.7,1.8,0.8,2.6,0.1c0.2-0.2,0.4-0.5,0.5-0.8l1,0.2c-0.2,0.6-0.5,1.1-1,1.4C35.9,23.6,35.3,23.7,34.7,23.7L34.7,23.7z"/>
	<path id="Trazado_102937" d="M41.3,23.7c-0.5,0-1.1-0.1-1.5-0.4c-0.4-0.2-0.8-0.6-1.1-1.1c-0.3-0.5-0.4-1-0.4-1.6
		c0-0.8,0.3-1.6,0.8-2.2c1.2-1.1,3-1.1,4.2,0c1.1,1.3,1.1,3.1,0,4.4C42.8,23.5,42.1,23.8,41.3,23.7L41.3,23.7z M41.3,22.9
		c0.5,0,1-0.2,1.4-0.6c0.7-0.9,0.7-2.2,0-3.1c-0.3-0.4-0.9-0.6-1.4-0.6c-0.5,0-1,0.2-1.4,0.6c-0.7,0.9-0.7,2.2,0,3.1
		C40.3,22.7,40.8,22.9,41.3,22.9L41.3,22.9z"/>
	<path id="Trazado_102938" d="M4.5,38.3c-0.6,0-1.1-0.1-1.6-0.3c-0.5-0.2-0.9-0.5-1.3-0.8c-0.4-0.4-0.7-0.8-0.9-1.4
		c-0.4-1.2-0.4-2.4,0-3.6c0.2-0.5,0.5-1,0.9-1.4C2,30.5,2.4,30.2,2.9,30c0.5-0.2,1.1-0.3,1.6-0.3c0.8,0,1.5,0.2,2.2,0.6
		c0.7,0.4,1.2,0.9,1.5,1.6l-1,0.4c-0.2-0.5-0.6-0.9-1.1-1.2c-0.5-0.3-1-0.4-1.6-0.4c-0.4,0-0.8,0.1-1.2,0.2c-0.4,0.1-0.7,0.4-1,0.6
		c-0.3,0.3-0.5,0.6-0.7,1C1.5,33,1.5,33.5,1.5,34c0,0.5,0.1,0.9,0.2,1.4c0.1,0.4,0.4,0.7,0.7,1c0.3,0.3,0.6,0.5,1,0.6
		c0.4,0.2,0.8,0.2,1.2,0.2c0.6,0,1.1-0.1,1.6-0.4c0.5-0.3,0.9-0.7,1.1-1.2l1,0.4c-0.3,0.7-0.9,1.3-1.5,1.6
		C6.1,38.1,5.3,38.3,4.5,38.3z"/>
	<path id="Trazado_102939" d="M12.2,38.3c-0.5,0-1.1-0.1-1.5-0.4c-0.4-0.2-0.8-0.6-1.1-1.1c-0.3-0.5-0.4-1-0.4-1.6
		c0-0.8,0.3-1.6,0.8-2.2c1.2-1.1,3-1.1,4.2,0c0.6,0.6,0.9,1.4,0.8,2.2c0,0.8-0.3,1.6-0.8,2.2C13.7,38,13,38.3,12.2,38.3z M12.2,37.4
		c0.5,0,1-0.2,1.4-0.6c0.4-0.4,0.6-1,0.5-1.6c0-0.6-0.2-1.1-0.5-1.6c-0.3-0.4-0.9-0.6-1.4-0.6c-0.5,0-1,0.2-1.4,0.6
		c-0.4,0.4-0.6,1-0.5,1.6c0,0.6,0.2,1.1,0.5,1.6C11.2,37.2,11.7,37.4,12.2,37.4L12.2,37.4z"/>
	<path id="Trazado_102940" d="M19.5,32.2c0.5,0,1.1,0.2,1.5,0.5c0.4,0.4,0.6,1,0.5,1.5v3.9h-1v-3.7c0-0.4-0.1-0.8-0.4-1
		c-0.2-0.2-0.6-0.3-0.9-0.3c-0.4,0-0.8,0.1-1,0.4c-0.3,0.3-0.4,0.8-0.4,1.2v3.5h-1v-5.8h1v0.8C18.1,32.6,18.8,32.2,19.5,32.2
		L19.5,32.2z"/>
	<path id="Trazado_102941" d="M25.3,38.3c-0.6,0-1.1-0.1-1.6-0.4c-0.4-0.3-0.7-0.7-0.8-1.2l0.9-0.3c0.1,0.3,0.2,0.6,0.5,0.8
		c0.3,0.2,0.6,0.3,1,0.3c0.2,0,0.4,0,0.6-0.1c0.2-0.1,0.3-0.2,0.4-0.3c0.1-0.2,0.2-0.3,0.2-0.5c0-0.1,0-0.2-0.1-0.2
		c0-0.1-0.1-0.1-0.1-0.2c0-0.1-0.1-0.1-0.2-0.2c-0.1,0-0.1-0.1-0.2-0.1c-0.1,0-0.2-0.1-0.3-0.1l-0.3-0.1l-0.3-0.1l-0.3-0.1
		c-0.2-0.1-0.4-0.1-0.6-0.2c-0.2-0.1-0.3-0.2-0.5-0.3c-0.2-0.1-0.3-0.3-0.4-0.5c-0.1-0.2-0.1-0.4-0.1-0.7c0-0.3,0.1-0.7,0.3-0.9
		c0.2-0.3,0.5-0.4,0.8-0.6c0.3-0.1,0.7-0.2,1-0.2c0.5,0,1,0.1,1.4,0.4c0.4,0.3,0.6,0.7,0.7,1.1L26.5,34c0-0.3-0.2-0.6-0.4-0.8
		C25.8,33,25.5,33,25.2,33c-0.3,0-0.5,0.1-0.8,0.2c-0.2,0.1-0.3,0.4-0.3,0.6c0,0.1,0,0.2,0.1,0.3c0,0.1,0.1,0.2,0.2,0.2
		c0.1,0.1,0.2,0.1,0.3,0.2l0.3,0.1l0.4,0.1h0.1c0.2,0.1,0.4,0.1,0.6,0.2c0.2,0.1,0.3,0.1,0.5,0.2c0.2,0.1,0.3,0.2,0.5,0.3
		c0.1,0.1,0.2,0.3,0.3,0.5c0.1,0.2,0.1,0.4,0.1,0.6c0,0.3-0.1,0.5-0.2,0.8c-0.1,0.2-0.3,0.4-0.5,0.5c-0.2,0.1-0.4,0.2-0.7,0.3
		C25.9,38.2,25.6,38.3,25.3,38.3L25.3,38.3z"/>
	<path id="Trazado_102942" d="M34.2,35.1v0.3h-4.5c0,0.6,0.2,1.1,0.6,1.5c0.4,0.3,0.8,0.5,1.3,0.5c0.7,0,1.3-0.4,1.6-1.1l0.9,0.2
		c-0.2,0.5-0.5,0.9-1,1.2c-0.4,0.3-1,0.5-1.5,0.5c-0.8,0-1.5-0.3-2.1-0.8c-1.1-1.3-1.1-3.1,0-4.4c0.5-0.5,1.3-0.8,2.1-0.8
		c0.7,0,1.4,0.2,2,0.8C34,33.6,34.2,34.4,34.2,35.1z M31.5,33c-0.4,0-0.9,0.1-1.2,0.4c-0.3,0.3-0.6,0.7-0.6,1.2h3.5
		c0-0.5-0.2-0.9-0.5-1.2C32.3,33.2,31.9,33,31.5,33L31.5,33z"/>
	<path id="Trazado_102943" d="M36.8,33.4c0.2-0.3,0.4-0.6,0.7-0.8c0.3-0.2,0.7-0.3,1.1-0.3v1c-0.5,0-1,0.1-1.3,0.4
		c-0.3,0.4-0.5,0.9-0.5,1.4v3.1h-1v-5.8h1V33.4z"/>
	<path id="Trazado_102944" d="M43.6,32.4h1.1l-2.4,5.8h-0.9l-2.4-5.8h1.1l1.7,4.6L43.6,32.4z"/>
	<path id="Trazado_102945" d="M47,38.3c-0.5,0-0.9-0.1-1.3-0.4c-0.3-0.3-0.5-0.7-0.5-1.2c0-0.3,0-0.5,0.2-0.8
		c0.1-0.2,0.3-0.4,0.5-0.5c0.2-0.1,0.4-0.3,0.7-0.3c0.3-0.1,0.6-0.2,0.9-0.2l0.9-0.2c0.3-0.1,0.5-0.2,0.5-0.5c0-0.3-0.1-0.7-0.4-0.9
		c-0.3-0.2-0.6-0.3-0.9-0.3c-0.3,0-0.6,0.1-0.9,0.3c-0.3,0.2-0.4,0.5-0.4,0.8l-0.9-0.2c0.1-0.5,0.3-1,0.8-1.2c0.5-0.3,1-0.4,1.6-0.4
		c0.3,0,0.6,0,0.8,0.1c0.3,0.1,0.5,0.2,0.7,0.3c0.2,0.2,0.4,0.4,0.5,0.6c0.1,0.3,0.2,0.6,0.2,1v2.4c0,0.2,0,0.4,0.1,0.6
		c0.1,0.1,0.3,0.2,0.5,0.2h0.1v0.8H50c-0.5,0.1-1-0.2-1.1-0.8h-0.1C48.4,38,47.7,38.3,47,38.3z M47.2,37.5c0.5,0,0.9-0.2,1.2-0.6
		c0.3-0.4,0.5-1,0.5-1.5l-1.5,0.3c-0.3,0-0.6,0.1-0.9,0.3c-0.4,0.3-0.4,0.8-0.1,1.2c0,0,0.1,0.1,0.1,0.1
		C46.7,37.4,47,37.5,47.2,37.5L47.2,37.5z"/>
	<path id="Trazado_102946" d="M56.2,29.1h1v9.1h-1V37c-0.2,0.4-0.5,0.7-0.8,0.9c-0.4,0.2-0.8,0.3-1.2,0.3c-0.4,0-0.7-0.1-1.1-0.2
		c-0.3-0.1-0.6-0.3-0.9-0.6c-0.3-0.3-0.5-0.6-0.6-1c-0.1-0.4-0.2-0.8-0.2-1.2c0-0.8,0.2-1.6,0.8-2.2c0.5-0.5,1.2-0.9,1.9-0.8
		c0.4,0,0.9,0.1,1.2,0.3c0.4,0.2,0.6,0.5,0.8,0.9L56.2,29.1z M54.3,37.4c0.5,0,1-0.2,1.4-0.6c0.4-0.4,0.6-1,0.5-1.5
		c0-0.6-0.2-1.1-0.6-1.5c-0.3-0.4-0.8-0.6-1.3-0.6c-0.5,0-1,0.2-1.4,0.6c-0.4,0.4-0.6,1-0.5,1.5c0,0.6,0.2,1.1,0.5,1.5
		C53.3,37.2,53.8,37.4,54.3,37.4L54.3,37.4z"/>
	<path id="Trazado_102947" d="M61.7,38.3c-0.5,0-1.1-0.1-1.5-0.4c-0.4-0.2-0.8-0.6-1.1-1.1c-0.3-0.5-0.4-1-0.4-1.6
		c0-0.8,0.3-1.6,0.8-2.2c1.2-1.1,3-1.1,4.2,0c1.1,1.3,1.1,3.1,0,4.4C63.2,38,62.5,38.3,61.7,38.3z M61.7,37.4c0.5,0,1-0.2,1.4-0.6
		c0.4-0.4,0.6-1,0.5-1.6c0-0.6-0.2-1.1-0.5-1.6c-0.3-0.4-0.9-0.6-1.4-0.6c-0.5,0-1,0.2-1.4,0.6c-0.4,0.4-0.6,1-0.5,1.6
		c0,0.6,0.2,1.1,0.5,1.6C60.7,37.2,61.2,37.4,61.7,37.4L61.7,37.4z"/>
	<path id="Trazado_102948" d="M67.2,33.4c0.2-0.3,0.4-0.6,0.8-0.8c0.3-0.2,0.7-0.3,1.1-0.3v1c-0.5,0-1,0.1-1.3,0.4
		c-0.3,0.4-0.5,0.9-0.5,1.4v3.1h-1v-5.8h1L67.2,33.4z"/>
	<path id="Trazado_102949" d="M5.5,45.3H2.1v2.7h3v1h-3v3.7H1v-8.3h4.5V45.3z"/>
	<path id="Trazado_102950" d="M9.2,52.8c-0.5,0-1.1-0.1-1.5-0.4c-0.4-0.2-0.8-0.6-1-1.1c-0.3-0.5-0.4-1-0.4-1.6
		c0-0.8,0.3-1.6,0.8-2.2c1.2-1.1,3-1.1,4.2,0c1.1,1.3,1.1,3.1,0,4.4C10.7,52.6,10,52.9,9.2,52.8z M9.2,52c0.5,0,1-0.2,1.4-0.6
		c0.7-0.9,0.7-2.2,0-3.1c-0.3-0.4-0.9-0.6-1.4-0.6c-0.5,0-1,0.2-1.4,0.6c-0.7,0.9-0.7,2.2,0,3.1C8.2,51.8,8.7,52,9.2,52L9.2,52z"/>
	<path id="Trazado_102951" d="M14.7,47.9c0.2-0.3,0.4-0.6,0.7-0.8c0.3-0.2,0.7-0.3,1.1-0.3v1c-0.5,0-1,0.1-1.4,0.4
		c-0.3,0.4-0.5,0.9-0.5,1.4v3.1h-1v-5.8h1V47.9z"/>
	<path id="Trazado_102952" d="M23.7,46.8c0.5,0,1,0.2,1.4,0.5c0.4,0.4,0.5,0.9,0.5,1.4v4h-1v-3.8c0-0.4-0.1-0.7-0.3-1
		c-0.2-0.2-0.5-0.3-0.8-0.3c-0.3,0-0.7,0.1-0.9,0.4c-0.2,0.3-0.4,0.7-0.3,1.1v3.6h-1V49c0-0.4-0.1-0.7-0.3-1
		c-0.2-0.2-0.5-0.3-0.8-0.3c-0.3,0-0.7,0.1-0.9,0.4c-0.2,0.3-0.4,0.7-0.3,1.1v3.6h-1v-5.8h1v0.8c0.2-0.3,0.4-0.5,0.7-0.6
		c0.3-0.1,0.6-0.2,0.9-0.2c0.3,0,0.7,0.1,1,0.2c0.3,0.2,0.5,0.4,0.6,0.7c0.2-0.3,0.4-0.5,0.7-0.7C23,46.9,23.4,46.8,23.7,46.8
		L23.7,46.8z"/>
	<path id="Trazado_102953" d="M28.9,52.8c-0.5,0-0.9-0.1-1.3-0.4c-0.3-0.3-0.5-0.7-0.5-1.2c0-0.3,0-0.5,0.2-0.8
		c0.1-0.2,0.3-0.4,0.5-0.5c0.2-0.1,0.4-0.3,0.7-0.3c0.3-0.1,0.6-0.2,0.9-0.2l0.9-0.2c0.3-0.1,0.5-0.2,0.5-0.5c0-0.3-0.1-0.7-0.4-0.9
		c-0.6-0.4-1.3-0.4-1.8,0c-0.3,0.2-0.4,0.5-0.4,0.8l-0.9-0.2c0.1-0.5,0.3-1,0.8-1.2c0.5-0.3,1-0.4,1.6-0.4c0.3,0,0.6,0,0.8,0.1
		c0.3,0.1,0.5,0.2,0.7,0.3c0.2,0.2,0.4,0.4,0.5,0.6c0.1,0.3,0.2,0.6,0.2,1v2.4c0,0.2,0,0.4,0.1,0.6c0.1,0.1,0.3,0.2,0.5,0.2h0.1v0.8
		H32c-0.6,0-1-0.3-1.1-0.8h0C30.4,52.6,29.6,52.9,28.9,52.8z M29.2,52c0.5,0,0.9-0.2,1.2-0.6c0.3-0.4,0.5-1,0.5-1.5l-1.5,0.3
		c-0.3,0-0.6,0.2-0.9,0.3c-0.4,0.3-0.4,0.8-0.1,1.2c0,0,0,0.1,0.1,0.1C28.7,52,28.9,52,29.2,52L29.2,52z"/>
	<path id="Trazado_102954" d="M33.9,52.7v-9.1h1v9.1H33.9z"/>
	<path id="Trazado_102955" d="M5.3,58.9v1H3.2v7.4H2.1v-7.3H0v-1H5.3z"/>
	<path id="Trazado_102956" d="M7,62.5c0.2-0.3,0.4-0.6,0.7-0.8c0.3-0.2,0.7-0.3,1.1-0.3v1c-0.5,0-1,0.1-1.4,0.4
		C7.1,63.2,7,63.7,7,64.2v3.1H6v-5.8h1V62.5z"/>
	<path id="Trazado_102957" d="M11.3,67.4c-0.5,0-0.9-0.1-1.3-0.4c-0.3-0.3-0.5-0.7-0.5-1.2c0-0.3,0-0.5,0.2-0.8
		c0.1-0.2,0.3-0.4,0.5-0.5c0.2-0.1,0.4-0.3,0.7-0.3c0.3-0.1,0.6-0.2,0.9-0.2l0.9-0.2c0.3-0.1,0.5-0.2,0.5-0.5c0-0.3-0.1-0.7-0.4-0.9
		c-0.3-0.2-0.6-0.3-0.9-0.3c-0.3,0-0.6,0.1-0.9,0.3c-0.3,0.2-0.4,0.5-0.4,0.8L9.6,63c0.1-0.5,0.3-1,0.8-1.2c0.5-0.3,1-0.4,1.6-0.4
		c0.3,0,0.6,0,0.8,0.1c0.3,0.1,0.5,0.2,0.7,0.3c0.2,0.2,0.4,0.4,0.5,0.6c0.1,0.3,0.2,0.6,0.2,1v2.4c0,0.2,0,0.4,0.1,0.6
		c0.1,0.1,0.3,0.2,0.5,0.2h0.1v0.8h-0.6c-0.5,0.1-1-0.3-1.1-0.8h0C12.7,67.1,12,67.4,11.3,67.4L11.3,67.4z M11.5,66.5
		c0.5,0,0.9-0.2,1.2-0.6c0.3-0.4,0.5-1,0.5-1.5l-1.5,0.3c-0.3,0-0.6,0.1-0.9,0.3c-0.4,0.3-0.4,0.8-0.1,1.2c0,0,0,0.1,0.1,0.1
		C11,66.5,11.3,66.6,11.5,66.5L11.5,66.5z"/>
	<path id="Trazado_102958" d="M19,61.3c0.5,0,1.1,0.2,1.5,0.5c0.4,0.4,0.6,1,0.5,1.5v3.9h-1v-3.7c0-0.4-0.1-0.8-0.4-1
		c-0.2-0.2-0.6-0.4-0.9-0.3c-0.4,0-0.8,0.1-1,0.4c-0.3,0.3-0.4,0.8-0.4,1.2v3.5h-1v-5.8h1v0.8C17.7,61.6,18.4,61.3,19,61.3z"/>
	<path id="Trazado_102959" d="M27.3,61.4h1v8.7h-1v-4c-0.2,0.4-0.5,0.7-0.8,0.9c-0.4,0.2-0.8,0.3-1.2,0.3c-0.7,0-1.4-0.3-1.9-0.8
		c-0.5-0.6-0.8-1.4-0.8-2.2c0-0.4,0.1-0.9,0.2-1.3c0.1-0.4,0.3-0.7,0.6-1c0.2-0.3,0.5-0.5,0.9-0.6c0.3-0.1,0.7-0.2,1.1-0.2
		c0.4,0,0.9,0.1,1.2,0.3c0.4,0.2,0.6,0.5,0.8,0.9L27.3,61.4z M25.5,66.5c0.5,0,1-0.2,1.4-0.6c0.7-0.9,0.7-2.1,0-3
		c-0.3-0.4-0.8-0.6-1.4-0.6c-0.5,0-1,0.2-1.3,0.6c-0.7,0.9-0.7,2.2,0,3.1C24.5,66.3,25,66.5,25.5,66.5L25.5,66.5z"/>
	<path id="Trazado_102960" d="M34,61.4h1v5.8h-1v-0.8c-0.2,0.3-0.4,0.5-0.7,0.7c-0.3,0.2-0.7,0.2-1,0.2c-0.5,0-1.1-0.2-1.5-0.5
		c-0.4-0.4-0.6-1-0.5-1.5v-3.9h1v3.7c0,0.4,0.1,0.8,0.4,1c0.2,0.2,0.6,0.4,0.9,0.3c0.4,0,0.8-0.1,1-0.4c0.3-0.3,0.4-0.8,0.4-1.2
		L34,61.4z"/>
	<path id="Trazado_102961" d="M37.7,60.1c-0.4,0-0.7-0.3-0.7-0.7c0,0,0,0,0,0c0-0.2,0.1-0.4,0.2-0.5c0.3-0.3,0.7-0.3,1,0
		c0.1,0.1,0.2,0.3,0.2,0.5C38.4,59.7,38.1,60.1,37.7,60.1C37.7,60.1,37.7,60.1,37.7,60.1L37.7,60.1z M37.1,67.2v-5.8h1v5.8
		L37.1,67.2z"/>
	<path id="Trazado_102962" d="M40.3,67.2v-9.1h1v9.1H40.3z"/>
	<path id="Trazado_102963" d="M45.8,67.4c-0.5,0-1.1-0.1-1.5-0.4c-0.4-0.2-0.8-0.6-1-1.1c-0.3-0.5-0.4-1-0.4-1.6
		c0-0.8,0.3-1.6,0.8-2.2c1.2-1.1,3-1.1,4.2,0c1.1,1.3,1.1,3.1,0,4.4C47.4,67.1,46.6,67.4,45.8,67.4z M45.8,66.5c0.5,0,1-0.2,1.4-0.6
		c0.4-0.4,0.6-1,0.5-1.6c0-0.6-0.2-1.1-0.5-1.6c-0.3-0.4-0.9-0.6-1.4-0.6c-0.5,0-1,0.2-1.4,0.6c-0.7,0.9-0.7,2.2,0,3.1
		C44.8,66.3,45.3,66.5,45.8,66.5L45.8,66.5z"/>
</g>
<g id="Grupo_57736" transform="translate(242.438 88.287)">
	<path id="Trazado_102964" d="M3.6,0.4c0.7,0,1.5,0.2,2,0.8c0.5,0.5,0.8,1.2,0.8,2c0,0.7-0.3,1.4-0.8,2C5,5.6,4.3,5.9,3.6,5.8H1.8v3
		H0V0.4L3.6,0.4z M3.3,4.4c0.4,0,0.7-0.1,1-0.3c0.2-0.3,0.3-0.6,0.3-0.9c0-0.3-0.1-0.7-0.3-0.9C4,2,3.6,1.9,3.3,1.9H1.7v2.5L3.3,4.4
		z"/>
	<path id="Trazado_102965" d="M10.2,9.1C9.6,9.1,9,9,8.4,8.7C8,8.5,7.5,8.1,7.3,7.6C7,7.1,6.8,6.5,6.8,5.9c0-0.9,0.3-1.7,0.9-2.3
		c1.4-1.1,3.4-1.1,4.8,0c1.2,1.3,1.2,3.3,0,4.6C11.9,8.8,11,9.1,10.2,9.1z M10.2,7.7c0.5,0,0.9-0.2,1.2-0.5c0.3-0.4,0.5-0.8,0.5-1.3
		c0-0.5-0.1-1-0.5-1.3c-0.3-0.3-0.7-0.5-1.2-0.5C9.7,4.1,9.3,4.3,9,4.6C8.4,5.4,8.4,6.4,9,7.2C9.3,7.5,9.7,7.7,10.2,7.7L10.2,7.7z"
		/>
	<path id="Trazado_102966" d="M16.9,9.1c-0.6,0-1.2-0.1-1.8-0.4c-0.5-0.3-0.8-0.7-0.9-1.3L15.7,7c0.1,0.6,0.6,1,1.2,0.9
		c0.2,0,0.4,0,0.6-0.1c0.2-0.1,0.3-0.3,0.2-0.5c0-0.1,0-0.2-0.1-0.3c-0.1-0.1-0.2-0.2-0.3-0.2l-0.4-0.2l-0.5-0.2
		c-0.2,0-0.4-0.1-0.6-0.2c-0.2-0.1-0.4-0.1-0.5-0.2c-0.2-0.1-0.3-0.2-0.4-0.3c-0.1-0.1-0.3-0.3-0.3-0.5c-0.1-0.2-0.1-0.4-0.1-0.7
		c0-0.5,0.2-1.1,0.7-1.4c0.5-0.3,1.1-0.5,1.7-0.5c0.6,0,1.1,0.1,1.6,0.4c0.4,0.3,0.7,0.7,0.8,1.2l-1.3,0.3c-0.1-0.5-0.6-0.8-1.1-0.8
		c-0.2,0-0.4,0-0.6,0.1C16,4.2,15.9,4.4,16,4.6c0,0.1,0.1,0.1,0.1,0.1l0.2,0.1c0.1,0,0.2,0.1,0.2,0.1c0.1,0,0.2,0.1,0.3,0.1l0.3,0.1
		l0.3,0.1c0.2,0,0.4,0.1,0.6,0.2c0.2,0.1,0.4,0.2,0.5,0.2C18.7,5.8,18.9,5.9,19,6c0.1,0.2,0.2,0.3,0.3,0.5c0.1,0.2,0.1,0.4,0.1,0.7
		c0,0.3-0.1,0.6-0.2,0.9c-0.1,0.2-0.3,0.5-0.6,0.6c-0.2,0.1-0.5,0.3-0.8,0.3C17.6,9.1,17.2,9.1,16.9,9.1z"/>
	<path id="Trazado_102967" d="M21.5,2c-0.5,0-1-0.4-1-1c0-0.3,0.1-0.5,0.3-0.7C21,0.1,21.2,0,21.5,0c0.5,0,0.9,0.5,0.9,1.1
		C22.4,1.5,22,1.9,21.5,2L21.5,2z M20.6,9V2.9h1.7V9H20.6z"/>
	<path id="Trazado_102968" d="M26.4,9c-0.5,0-1-0.1-1.4-0.5c-0.3-0.4-0.5-0.9-0.5-1.4V4.2h-1.2V2.9h0.4c0.3,0,0.6-0.1,0.8-0.3
		c0.2-0.3,0.3-0.6,0.2-0.9V0.9h1.5v2h1.3v1.3h-1.3v2.7c0,0.5,0.2,0.8,0.7,0.8h0.6v1.3L26.4,9z"/>
	<path id="Trazado_102969" d="M29.7,2c-0.3,0-0.5-0.1-0.7-0.3c-0.4-0.4-0.4-1,0-1.4C29.2,0.1,29.4,0,29.7,0c0.3,0,0.5,0.1,0.7,0.3
		c0.4,0.4,0.4,1,0,1.4c0,0,0,0,0,0C30.2,1.9,30,2,29.7,2z M28.8,9V2.9h1.7V9H28.8z"/>
	<path id="Trazado_102970" d="M36.3,2.9h1.8l-2.6,6.1H34l-2.6-6.1h1.8L34.7,7L36.3,2.9z"/>
	<path id="Trazado_102971" d="M41.6,9.1c-0.6,0-1.2-0.1-1.7-0.4c-0.5-0.2-0.9-0.6-1.2-1.1c-0.3-0.5-0.4-1.1-0.4-1.7
		c0-0.9,0.3-1.7,0.9-2.3c1.4-1.1,3.4-1.1,4.8,0c1.2,1.3,1.2,3.3,0,4.6C43.3,8.8,42.4,9.1,41.6,9.1z M41.6,7.7c0.5,0,0.9-0.2,1.2-0.5
		c0.3-0.4,0.5-0.8,0.5-1.3c0-0.5-0.1-1-0.5-1.3c-0.3-0.3-0.7-0.5-1.2-0.5c-0.4,0-0.9,0.2-1.2,0.5c-0.6,0.8-0.6,1.9,0,2.6
		C40.7,7.5,41.1,7.7,41.6,7.7L41.6,7.7z"/>
</g>
<g id="Grupo_57737" transform="translate(328.347 114.52)">
	<path id="Trazado_102972" d="M0,8.3V0h1.1v8.3H0z"/>
	<path id="Trazado_102973" d="M6.2,2.4c0.5,0,1.1,0.2,1.5,0.5c0.4,0.4,0.6,1,0.5,1.5v3.9h-1V4.7c0-0.4-0.1-0.8-0.4-1
		C6.5,3.4,6.2,3.3,5.9,3.3c-0.4,0-0.8,0.1-1,0.4C4.5,4,4.4,4.4,4.4,4.9v3.5h-1V2.5h1v0.8C4.8,2.7,5.5,2.4,6.2,2.4z"/>
	<path id="Trazado_102974" d="M12,8.4c-0.6,0-1.1-0.1-1.6-0.4C10,7.8,9.7,7.3,9.7,6.8l0.9-0.3c0.1,0.3,0.2,0.6,0.5,0.8
		c0.3,0.2,0.6,0.3,1,0.3c0.2,0,0.4,0,0.6-0.1c0.2-0.1,0.3-0.2,0.4-0.3c0.1-0.1,0.2-0.3,0.2-0.5c0-0.1,0-0.2,0-0.2
		c0-0.1-0.1-0.1-0.1-0.2c0-0.1-0.1-0.1-0.2-0.2c-0.1-0.1-0.3-0.2-0.5-0.2l-0.3-0.1l-0.3-0.1l-0.3-0.1c-0.2-0.1-0.4-0.1-0.6-0.2
		c-0.2-0.1-0.3-0.2-0.5-0.3C10.2,5,10,4.9,10,4.7C9.9,4.5,9.8,4.3,9.8,4.1c0-0.3,0.1-0.7,0.3-0.9c0.2-0.3,0.5-0.4,0.8-0.6
		c0.3-0.1,0.7-0.2,1-0.2c0.5,0,1,0.1,1.4,0.4C13.7,3,14,3.5,14,3.9l-0.8,0.2c0-0.3-0.2-0.6-0.4-0.8c-0.2-0.2-0.5-0.3-0.8-0.2
		c-0.3,0-0.5,0.1-0.8,0.2c-0.2,0.1-0.3,0.4-0.3,0.6c0,0.1,0,0.2,0.1,0.3c0.1,0.2,0.3,0.3,0.5,0.4c0.1,0,0.2,0.1,0.3,0.1l0.4,0.1h0.1
		l0.6,0.2c0.2,0.1,0.3,0.1,0.5,0.2c0.2,0.1,0.3,0.2,0.5,0.3c0.3,0.3,0.4,0.7,0.4,1.1c0,0.3-0.1,0.5-0.2,0.8
		c-0.1,0.2-0.3,0.4-0.5,0.5c-0.2,0.1-0.4,0.2-0.7,0.3C12.6,8.4,12.3,8.4,12,8.4z"/>
	<path id="Trazado_102975" d="M20.8,5.3v0.3h-4.5c0,0.6,0.2,1.1,0.6,1.5c0.4,0.3,0.8,0.5,1.3,0.5c0.3,0,0.7-0.1,1-0.3
		c0.3-0.2,0.5-0.4,0.7-0.8l0.9,0.2c-0.2,0.5-0.5,0.9-1,1.3c-0.4,0.3-1,0.5-1.5,0.5c-0.8,0-1.5-0.3-2.1-0.8c-1.1-1.3-1.1-3.1,0-4.4
		c0.5-0.5,1.3-0.8,2.1-0.8c0.7,0,1.4,0.2,2,0.8C20.6,3.8,20.9,4.5,20.8,5.3z M18.1,3.2c-0.4,0-0.9,0.1-1.2,0.4
		c-0.3,0.3-0.6,0.7-0.6,1.2h3.5c0-0.4-0.2-0.9-0.5-1.2C19,3.3,18.6,3.2,18.1,3.2L18.1,3.2z"/>
	<path id="Trazado_102976" d="M26.6,2.5h1V8c0.1,0.8-0.2,1.6-0.8,2.3c-1.3,1.1-3.3,1-4.4-0.2c-0.2-0.2-0.4-0.5-0.5-0.7l0.8-0.4
		c0.3,0.8,1.1,1.4,1.9,1.3c0.5,0,1-0.2,1.4-0.6c0.3-0.5,0.5-1,0.5-1.6V7c-0.2,0.4-0.5,0.6-0.8,0.8c-1,0.6-2.3,0.3-3.1-0.5
		c-1-1.2-1-2.9,0-4.1c0.5-0.5,1.2-0.8,1.9-0.8c0.4,0,0.8,0.1,1.2,0.3c0.3,0.2,0.6,0.5,0.8,0.9L26.6,2.5z M24.8,7.3
		c0.5,0,1-0.2,1.3-0.6c0.7-0.8,0.7-2,0-2.8c-0.7-0.7-1.8-0.8-2.6-0.1c0,0-0.1,0.1-0.1,0.1c-0.4,0.4-0.6,0.9-0.6,1.4
		c0,0.5,0.2,1,0.6,1.4C23.8,7.1,24.3,7.3,24.8,7.3L24.8,7.3z"/>
	<path id="Trazado_102977" d="M33.3,2.5h1.1v5.8h-1V7.6c-0.2,0.3-0.4,0.5-0.7,0.7c-0.3,0.2-0.7,0.2-1,0.2c-0.5,0-1.1-0.2-1.5-0.5
		c-0.4-0.4-0.6-1-0.5-1.5V2.5h0.9v3.7c0,0.4,0.1,0.8,0.4,1c0.2,0.2,0.6,0.4,0.9,0.3c0.4,0,0.8-0.1,1-0.4c0.3-0.3,0.4-0.8,0.4-1.2
		L33.3,2.5z"/>
	<path id="Trazado_102978" d="M37.4,3.5c0.2-0.3,0.4-0.6,0.8-0.8c0.3-0.2,0.7-0.3,1.1-0.3v1c-0.5,0-1,0.1-1.4,0.4
		c-0.3,0.4-0.5,0.9-0.5,1.4v3.1h-1V2.5h1V3.5z"/>
	<path id="Trazado_102979" d="M42.9,8.4c-0.5,0-1.1-0.1-1.5-0.4c-0.4-0.2-0.8-0.6-1.1-1.1c-0.3-0.5-0.4-1-0.4-1.6
		c0-0.8,0.3-1.6,0.8-2.2c0.6-0.6,1.3-0.8,2.1-0.8c0.8,0,1.6,0.3,2.1,0.8c0.6,0.6,0.9,1.4,0.8,2.2c0,0.8-0.3,1.6-0.8,2.2
		C44.4,8.2,43.6,8.5,42.9,8.4z M42.9,7.6c0.5,0,1-0.2,1.4-0.6c0.4-0.4,0.6-1,0.6-1.6c0-0.6-0.2-1.1-0.6-1.6
		c-0.3-0.4-0.8-0.6-1.4-0.6c-0.5,0-1,0.2-1.4,0.6c-0.4,0.4-0.6,1-0.5,1.6c0,0.6,0.2,1.1,0.5,1.6C41.8,7.4,42.3,7.6,42.9,7.6
		L42.9,7.6z"/>
	<path id="Trazado_102980" d="M0,22.9v-8.3h2.7c0.7,0,1.5,0.2,2.1,0.5c0.6,0.3,1,0.9,1.3,1.5c0.3,0.7,0.4,1.4,0.4,2.2
		c0,0.6-0.1,1.1-0.2,1.7c-0.1,0.5-0.4,0.9-0.7,1.3c-0.3,0.4-0.7,0.7-1.2,0.9c-0.5,0.2-1.1,0.3-1.7,0.3L0,22.9z M1.1,21.9h1.6
		c0.8,0.1,1.6-0.3,2.1-0.9c0.5-0.7,0.7-1.5,0.7-2.4c0-0.8-0.2-1.7-0.7-2.3c-0.5-0.6-1.3-0.9-2.1-0.8H1.1L1.1,21.9z"/>
	<path id="Trazado_102981" d="M13.4,19.9v0.3H8.9c0,0.6,0.2,1.1,0.6,1.5c0.4,0.3,0.8,0.5,1.3,0.5c0.3,0,0.7-0.1,1-0.3
		c0.3-0.2,0.5-0.4,0.7-0.8l0.9,0.2c-0.2,0.5-0.5,0.9-1,1.2c-0.4,0.3-1,0.5-1.5,0.5c-0.8,0-1.6-0.3-2.1-0.9c-1.1-1.3-1.1-3.1,0-4.4
		c0.5-0.5,1.3-0.8,2.1-0.8c0.7,0,1.4,0.2,2,0.8C13.2,18.3,13.5,19.1,13.4,19.9L13.4,19.9z M10.7,17.7c-0.4,0-0.9,0.1-1.2,0.4
		c-0.3,0.3-0.6,0.7-0.6,1.2h3.5c0-0.5-0.2-0.9-0.5-1.2C11.6,17.9,11.2,17.7,10.7,17.7L10.7,17.7z"/>
	<path id="Trazado_102982" d="M18.1,16.9c0.4,0,0.7,0.1,1.1,0.2c0.3,0.1,0.6,0.3,0.9,0.6c0.3,0.3,0.5,0.6,0.6,1
		c0.1,0.4,0.2,0.8,0.2,1.3c0,0.8-0.2,1.6-0.8,2.2c-0.5,0.5-1.2,0.9-1.9,0.8c-0.4,0-0.8-0.1-1.2-0.3c-0.4-0.2-0.6-0.5-0.8-0.9v4h-1
		v-8.8h1v1.1c0.2-0.4,0.5-0.7,0.8-0.9C17.2,17.1,17.7,16.9,18.1,16.9z M17.9,22.1c0.5,0,1-0.2,1.3-0.6c0.7-0.9,0.7-2.2,0-3.1
		c-0.3-0.4-0.8-0.6-1.3-0.6c-0.5,0-1,0.2-1.4,0.6c-0.7,0.9-0.7,2.1,0,3C16.9,21.9,17.4,22.1,17.9,22.1L17.9,22.1z"/>
	<path id="Trazado_102983" d="M23.4,18.1c0.2-0.3,0.4-0.6,0.8-0.8c0.3-0.2,0.7-0.3,1.1-0.3v1c-0.5,0-1,0.1-1.3,0.4
		c-0.3,0.4-0.5,0.9-0.5,1.4v3.1h-1v-5.8h1L23.4,18.1z"/>
	<path id="Trazado_102984" d="M31.5,19.8v0.3h-4.5c0,0.6,0.2,1.1,0.6,1.5c0.6,0.6,1.5,0.7,2.3,0.2c0.3-0.2,0.5-0.4,0.7-0.8l0.9,0.2
		c-0.2,0.5-0.5,0.9-1,1.2c-0.4,0.3-1,0.5-1.5,0.5c-0.8,0-1.5-0.3-2.1-0.8c-1.1-1.3-1.1-3.1,0-4.4c0.5-0.5,1.3-0.8,2.1-0.8
		c0.7,0,1.4,0.2,2,0.8C31.3,18.3,31.5,19.1,31.5,19.8z M28.8,17.7c-0.4,0-0.9,0.1-1.2,0.4c-0.3,0.3-0.6,0.7-0.6,1.2h3.5
		c0-0.5-0.2-0.9-0.5-1.2C29.6,17.9,29.2,17.7,28.8,17.7L28.8,17.7z"/>
	<path id="Trazado_102985" d="M34.9,23c-0.6,0-1.1-0.1-1.6-0.4c-0.4-0.3-0.7-0.7-0.8-1.2l0.9-0.3c0,0.3,0.2,0.6,0.5,0.8
		c0.3,0.2,0.6,0.3,1,0.3c0.2,0,0.4,0,0.6-0.1c0.2-0.1,0.3-0.2,0.4-0.3c0.1-0.1,0.2-0.3,0.2-0.5c0-0.1,0-0.2,0-0.2
		c0-0.1-0.1-0.1-0.1-0.2c0-0.1-0.1-0.1-0.2-0.2c-0.1-0.1-0.3-0.2-0.5-0.2L35,20.4l-0.3-0.1l-0.3-0.1c-0.2-0.1-0.4-0.1-0.6-0.2
		c-0.2-0.1-0.3-0.2-0.5-0.3c-0.2-0.1-0.3-0.3-0.4-0.5c-0.1-0.2-0.1-0.4-0.1-0.7c0-0.3,0.1-0.7,0.3-0.9c0.2-0.3,0.5-0.4,0.8-0.6
		c0.3-0.1,0.7-0.2,1-0.2c0.5,0,1,0.1,1.4,0.4c0.4,0.3,0.6,0.7,0.7,1.1l-0.8,0.2c0-0.3-0.2-0.6-0.4-0.8c-0.2-0.2-0.5-0.3-0.8-0.2
		c-0.3,0-0.5,0.1-0.8,0.2c-0.2,0.1-0.3,0.4-0.3,0.6c0,0.1,0,0.2,0.1,0.3c0,0.1,0.1,0.2,0.2,0.2c0.1,0.1,0.2,0.1,0.3,0.2l0.3,0.1
		l0.4,0.1h0.1l0.6,0.2c0.2,0.1,0.3,0.1,0.5,0.2c0.2,0.1,0.3,0.2,0.5,0.3c0.3,0.3,0.4,0.7,0.4,1.1c0,0.3-0.1,0.5-0.2,0.8
		c-0.1,0.2-0.3,0.4-0.5,0.5c-0.2,0.1-0.4,0.2-0.7,0.3C35.5,22.9,35.2,23,34.9,23z"/>
	<path id="Trazado_102986" d="M39.2,15.7c-0.2,0-0.4-0.1-0.5-0.2c-0.1-0.1-0.2-0.3-0.2-0.5c0-0.2,0.1-0.4,0.2-0.5
		c0.3-0.3,0.7-0.3,1,0c0.1,0.1,0.2,0.3,0.2,0.5c0,0.2-0.1,0.4-0.2,0.5C39.6,15.6,39.4,15.7,39.2,15.7L39.2,15.7z M38.7,22.9v-5.8h1
		v5.8H38.7z"/>
	<path id="Trazado_102987" d="M45.4,17.1h1.1l-2.4,5.8h-0.9l-2.4-5.8H42l1.7,4.6L45.4,17.1z"/>
	<path id="Trazado_102988" d="M49.9,23c-0.5,0-1.1-0.1-1.5-0.4c-0.4-0.2-0.8-0.6-1.1-1.1c-0.3-0.5-0.4-1-0.4-1.6
		c0-0.8,0.3-1.6,0.8-2.2c1.2-1.1,3-1.1,4.2,0c1.1,1.3,1.1,3.1,0,4.4C51.5,22.7,50.7,23,49.9,23L49.9,23z M49.9,22.1
		c0.5,0,1-0.2,1.4-0.6c0.4-0.4,0.6-1,0.5-1.6c0-0.6-0.2-1.1-0.5-1.6c-0.3-0.4-0.9-0.6-1.4-0.6c-0.5,0-1,0.2-1.4,0.6
		c-0.4,0.4-0.6,1-0.5,1.6c0,0.6,0.2,1.1,0.5,1.6C48.9,21.9,49.4,22.1,49.9,22.1L49.9,22.1z"/>
	<path id="Trazado_102989" d="M0,37.4v-8.3h1.1v8.3H0z"/>
	<path id="Trazado_102990" d="M6.2,31.5c0.5,0,1.1,0.2,1.5,0.5c0.4,0.4,0.6,1,0.5,1.5v3.9h-1v-3.7c0-0.4-0.1-0.8-0.4-1
		c-0.2-0.2-0.6-0.3-0.9-0.3c-0.4,0-0.8,0.1-1,0.4c-0.3,0.3-0.4,0.8-0.4,1.2v3.5h-1v-5.8h1v0.8C4.8,31.8,5.5,31.4,6.2,31.5z"/>
	<path id="Trazado_102991" d="M15.2,34.4v0.3h-4.5c0,0.6,0.2,1.1,0.6,1.5c0.4,0.3,0.8,0.5,1.3,0.5c0.3,0,0.7-0.1,1-0.3
		c0.3-0.2,0.5-0.4,0.7-0.8l0.9,0.2c-0.2,0.5-0.5,0.9-1,1.2c-0.4,0.3-1,0.5-1.5,0.5c-0.8,0-1.5-0.3-2.1-0.8c-1.1-1.3-1.1-3.1,0-4.4
		c0.5-0.5,1.3-0.8,2.1-0.8c0.7,0,1.4,0.2,2,0.8C15,32.9,15.3,33.6,15.2,34.4z M12.5,32.3c-0.4,0-0.9,0.1-1.2,0.4
		c-0.3,0.3-0.6,0.7-0.6,1.2h3.5c0-0.5-0.2-0.9-0.5-1.2C13.4,32.4,13,32.3,12.5,32.3L12.5,32.3z"/>
	<path id="Trazado_102992" d="M15.8,37.4l2.2-2.9l-2.2-2.9H17l1.6,2.2l1.6-2.2h1.3l-2.3,2.9l2.3,2.9h-1.2l-1.6-2.2l-1.6,2.2H15.8z"
		/>
	<path id="Trazado_102993" d="M25.8,31.5c0.4,0,0.7,0.1,1.1,0.2c0.3,0.1,0.6,0.3,0.9,0.6c0.3,0.3,0.5,0.6,0.6,1
		c0.1,0.4,0.2,0.8,0.2,1.3c0,0.8-0.2,1.6-0.8,2.2c-0.5,0.5-1.2,0.8-1.9,0.8c-0.4,0-0.9-0.1-1.2-0.3c-0.4-0.2-0.6-0.5-0.8-0.9v4h-1
		v-8.8h1v1.1c0.2-0.4,0.5-0.7,0.8-0.9C25,31.6,25.4,31.5,25.8,31.5z M25.6,36.6c0.5,0,1-0.2,1.3-0.6c0.7-0.9,0.7-2.2,0-3.1
		c-0.3-0.4-0.8-0.6-1.3-0.6c-0.5,0-1,0.2-1.4,0.6c-0.7,0.9-0.7,2.1,0,3C24.6,36.4,25.1,36.6,25.6,36.6L25.6,36.6z"/>
	<path id="Trazado_102994" d="M31.2,32.6c0.2-0.3,0.4-0.6,0.7-0.8c0.3-0.2,0.7-0.3,1.1-0.3v1c-0.5,0-1,0.1-1.4,0.4
		c-0.3,0.4-0.5,0.9-0.5,1.4v3.1h-1v-5.8h1V32.6z"/>
	<path id="Trazado_102995" d="M39.2,34.4v0.3h-4.5c0,0.6,0.2,1.1,0.6,1.5c0.4,0.3,0.8,0.5,1.3,0.5c0.3,0,0.7-0.1,1-0.3
		c0.3-0.2,0.5-0.4,0.7-0.8l0.9,0.2c-0.2,0.5-0.5,0.9-1,1.2c-0.4,0.3-1,0.5-1.5,0.5c-0.8,0-1.5-0.3-2.1-0.8c-1.1-1.3-1.1-3.1,0-4.4
		c0.5-0.5,1.3-0.8,2.1-0.8c0.7,0,1.4,0.2,2,0.8C39,32.9,39.3,33.6,39.2,34.4z M36.5,32.3c-0.4,0-0.9,0.1-1.2,0.4
		c-0.3,0.3-0.6,0.7-0.6,1.2h3.5c0-0.5-0.2-0.9-0.5-1.2C37.4,32.4,37,32.3,36.5,32.3L36.5,32.3z"/>
	<path id="Trazado_102996" d="M42.7,37.5c-0.6,0-1.1-0.1-1.6-0.4c-0.4-0.3-0.7-0.7-0.8-1.2l0.9-0.3c0,0.3,0.2,0.6,0.5,0.8
		c0.3,0.2,0.6,0.3,1,0.3c0.2,0,0.4,0,0.6-0.1c0.2-0.1,0.3-0.2,0.4-0.3c0.1-0.1,0.2-0.3,0.2-0.5c0-0.1,0-0.2,0-0.2
		c0-0.1-0.1-0.1-0.1-0.2c0-0.1-0.1-0.1-0.2-0.2c-0.1,0-0.1-0.1-0.2-0.1L43.1,35l-0.3-0.1l-0.3-0.1l-0.3-0.1
		c-0.2-0.1-0.4-0.1-0.6-0.2c-0.2-0.1-0.3-0.2-0.5-0.3c-0.2-0.1-0.3-0.3-0.4-0.5c-0.1-0.2-0.1-0.4-0.1-0.7c0-0.3,0.1-0.7,0.3-0.9
		c0.2-0.3,0.5-0.4,0.8-0.6c0.3-0.1,0.7-0.2,1-0.2c0.5,0,1,0.1,1.4,0.4c0.4,0.3,0.6,0.7,0.7,1.1l-0.8,0.2c0-0.3-0.2-0.6-0.4-0.8
		c-0.2-0.2-0.5-0.3-0.8-0.2c-0.3,0-0.5,0.1-0.8,0.2c-0.2,0.1-0.3,0.4-0.3,0.6c0,0.1,0,0.2,0.1,0.3c0,0.1,0.1,0.2,0.2,0.2
		c0.1,0.1,0.2,0.1,0.3,0.2l0.3,0.1l0.4,0.1h0.1c0.2,0.1,0.4,0.1,0.6,0.2c0.2,0.1,0.3,0.1,0.5,0.2c0.2,0.1,0.3,0.2,0.4,0.3
		c0.1,0.1,0.2,0.3,0.3,0.5c0.1,0.2,0.1,0.4,0.1,0.6c0,0.3-0.1,0.5-0.2,0.8c-0.1,0.2-0.3,0.4-0.5,0.5c-0.2,0.1-0.4,0.2-0.7,0.3
		C43.3,37.4,43,37.5,42.7,37.5z"/>
	<path id="Trazado_102997" d="M46.9,30.2c-0.4,0-0.7-0.3-0.7-0.7c0,0,0,0,0,0c0-0.2,0.1-0.4,0.2-0.5c0.1-0.1,0.3-0.2,0.5-0.2
		c0.2,0,0.4,0.1,0.5,0.2c0.1,0.1,0.2,0.3,0.2,0.5c0,0.2-0.1,0.4-0.2,0.5C47.3,30.2,47.1,30.2,46.9,30.2z M46.4,37.4v-5.8h1v5.8H46.4
		z"/>
	<path id="Trazado_102998" d="M53.2,31.6h1.1l-2.4,5.8H51l-2.4-5.8h1.1l1.7,4.6L53.2,31.6z"/>
	<path id="Trazado_102999" d="M57.7,37.5c-0.5,0-1.1-0.1-1.5-0.4c-0.4-0.2-0.8-0.6-1.1-1.1c-0.3-0.5-0.4-1-0.4-1.6
		c0-0.8,0.3-1.6,0.8-2.2c0.6-0.6,1.3-0.8,2.1-0.8c0.8,0,1.6,0.3,2.1,0.8c0.6,0.6,0.9,1.4,0.8,2.2c0,0.8-0.3,1.6-0.8,2.2
		C59.2,37.2,58.5,37.5,57.7,37.5L57.7,37.5z M57.7,36.7c0.5,0,1-0.2,1.4-0.6c0.4-0.4,0.6-1,0.6-1.6c0-0.6-0.2-1.1-0.6-1.6
		c-0.3-0.4-0.8-0.6-1.4-0.6c-0.5,0-1,0.2-1.4,0.6c-0.4,0.4-0.6,1-0.5,1.6c0,0.6,0.2,1.1,0.5,1.6C56.7,36.5,57.2,36.7,57.7,36.7
		L57.7,36.7z"/>
	<path id="Trazado_103000" d="M4.5,44.6H1.1v2.7h3v1h-3V51h3.4v1H0v-8.3h4.5L4.5,44.6z"/>
	<path id="Trazado_103001" d="M8.1,52.1c-0.6,0-1.1-0.1-1.6-0.4c-0.4-0.3-0.7-0.7-0.8-1.2l0.9-0.3c0,0.3,0.2,0.6,0.5,0.8
		c0.3,0.2,0.6,0.3,1,0.3c0.2,0,0.4,0,0.6-0.1c0.2-0.1,0.3-0.2,0.4-0.3c0.1-0.1,0.2-0.3,0.2-0.5c0-0.1,0-0.2,0-0.2
		c0-0.1-0.1-0.1-0.1-0.2c0-0.1-0.1-0.1-0.2-0.2c-0.1,0-0.1-0.1-0.2-0.1c-0.1,0-0.2-0.1-0.3-0.1l-0.3-0.1l-0.3-0.1l-0.3-0.1
		c-0.2-0.1-0.4-0.1-0.6-0.2c-0.2-0.1-0.3-0.2-0.5-0.3c-0.2-0.1-0.3-0.3-0.4-0.5c-0.1-0.2-0.1-0.4-0.1-0.7c0-0.3,0.1-0.7,0.3-0.9
		c0.2-0.3,0.5-0.4,0.8-0.5c0.3-0.1,0.7-0.2,1-0.2c0.5,0,1,0.1,1.4,0.4c0.4,0.3,0.6,0.7,0.7,1.1l-0.8,0.2c0-0.3-0.2-0.6-0.4-0.8
		c-0.2-0.2-0.5-0.3-0.8-0.2c-0.3,0-0.5,0.1-0.8,0.2c-0.2,0.1-0.3,0.4-0.3,0.6c0,0.1,0,0.2,0.1,0.3c0,0.1,0.1,0.2,0.2,0.2
		c0.1,0.1,0.2,0.1,0.3,0.2c0.1,0.1,0.2,0.1,0.3,0.1l0.4,0.1h0.1l0.6,0.2c0.2,0.1,0.3,0.1,0.5,0.2c0.2,0.1,0.3,0.2,0.4,0.3
		c0.1,0.1,0.2,0.3,0.3,0.4c0.1,0.2,0.1,0.4,0.1,0.6c0,0.3-0.1,0.5-0.2,0.8c-0.1,0.2-0.3,0.4-0.5,0.5c-0.2,0.1-0.4,0.2-0.7,0.3
		C8.7,52,8.4,52.1,8.1,52.1z"/>
	<path id="Trazado_103002" d="M13.7,52c-0.4,0-0.8-0.1-1.1-0.4c-0.3-0.3-0.4-0.7-0.4-1.2V47h-1.2v-0.8h0.4c0.2,0,0.5,0,0.6-0.2
		c0.1-0.2,0.2-0.4,0.2-0.7v-1.1h1v1.9h1.3V47h-1.3v3.3c0,0.2,0.1,0.5,0.2,0.6c0.2,0.2,0.4,0.2,0.6,0.2h0.5V52L13.7,52z"/>
	<path id="Trazado_103003" d="M17.3,52.1c-0.5,0-0.9-0.1-1.3-0.4c-0.3-0.3-0.5-0.7-0.5-1.2c0-0.3,0-0.5,0.2-0.8
		c0.1-0.2,0.3-0.4,0.5-0.5c0.2-0.1,0.4-0.3,0.7-0.3c0.3-0.1,0.6-0.2,0.9-0.2l0.9-0.2c0.3-0.1,0.5-0.2,0.5-0.5c0-0.3-0.1-0.7-0.4-0.9
		c-0.3-0.2-0.6-0.3-0.9-0.3c-0.3,0-0.6,0.1-0.9,0.3c-0.3,0.2-0.4,0.5-0.4,0.8l-0.9-0.2c0.1-0.5,0.3-1,0.8-1.2c0.5-0.3,1-0.4,1.6-0.4
		c0.3,0,0.6,0,0.8,0.1c0.3,0.1,0.5,0.2,0.7,0.3c0.2,0.2,0.4,0.4,0.5,0.6c0.1,0.3,0.2,0.6,0.2,1v2.4c0,0.2,0,0.4,0.1,0.6
		c0.1,0.1,0.3,0.2,0.5,0.2h0.1V52h-0.5c-0.6,0-1-0.3-1.1-0.8h0C18.7,51.8,18,52.2,17.3,52.1z M17.5,51.3c0.5,0,0.9-0.2,1.2-0.6
		c0.3-0.4,0.5-1,0.5-1.5l-1.5,0.3c-0.3,0-0.6,0.1-0.9,0.3c-0.4,0.3-0.4,0.8-0.1,1.2c0,0,0,0.1,0.1,0.1C17,51.2,17.2,51.3,17.5,51.3
		L17.5,51.3z"/>
	<path id="Trazado_103004" d="M25,46c0.5,0,1.1,0.2,1.5,0.5c0.4,0.4,0.6,1,0.5,1.5V52h-1v-3.7c0-0.4-0.1-0.8-0.4-1
		c-0.2-0.2-0.6-0.4-0.9-0.3c-0.4,0-0.8,0.1-1,0.4c-0.3,0.3-0.4,0.8-0.4,1.2V52h-1v-5.8h1v0.8C23.7,46.4,24.3,46,25,46z"/>
	<path id="Trazado_103005" d="M31.4,52.1c-0.8,0-1.5-0.3-2.1-0.8c-1.1-1.2-1.1-3.1,0-4.4c1-1,2.6-1.1,3.8-0.3c0.5,0.3,0.8,0.8,1,1.4
		l-1,0.2c-0.1-0.4-0.3-0.7-0.7-0.9c-0.3-0.2-0.7-0.3-1.1-0.3c-0.5,0-1,0.2-1.3,0.6c-0.7,0.9-0.7,2.2,0,3.1c0.3,0.4,0.8,0.6,1.3,0.6
		c0.4,0,0.7-0.1,1.1-0.3c0.3-0.2,0.5-0.5,0.7-0.9l1,0.2c-0.2,0.6-0.5,1.1-1,1.4C32.6,51.9,32,52.1,31.4,52.1z"/>
	<path id="Trazado_103006" d="M36.9,52.1c-0.5,0-0.9-0.1-1.3-0.4c-0.3-0.3-0.5-0.7-0.5-1.2c0-0.3,0-0.5,0.2-0.8
		c0.1-0.2,0.3-0.4,0.5-0.5c0.2-0.1,0.4-0.3,0.7-0.3c0.3-0.1,0.6-0.2,0.9-0.2l0.9-0.2c0.3-0.1,0.5-0.2,0.5-0.5c0-0.3-0.1-0.7-0.4-0.9
		c-0.3-0.2-0.6-0.3-0.9-0.3c-0.3,0-0.6,0.1-0.9,0.3c-0.3,0.2-0.4,0.5-0.4,0.8l-0.9-0.2c0.1-0.5,0.3-1,0.8-1.2c0.5-0.3,1-0.4,1.6-0.4
		c0.3,0,0.6,0,0.8,0.1c0.3,0.1,0.5,0.2,0.7,0.3c0.2,0.2,0.4,0.4,0.5,0.6c0.1,0.3,0.2,0.6,0.2,1v2.4c0,0.2,0,0.4,0.1,0.6
		c0.1,0.1,0.3,0.2,0.5,0.2h0V52h-0.5c-0.5,0.1-1-0.3-1.1-0.8h0C38.3,51.8,37.6,52.1,36.9,52.1z M37.2,51.3c0.5,0,0.9-0.2,1.2-0.6
		c0.3-0.4,0.5-1,0.5-1.5l-1.5,0.3c-0.3,0-0.6,0.1-0.9,0.3c-0.4,0.3-0.4,0.8-0.1,1.2c0,0,0,0.1,0.1,0.1
		C36.7,51.2,36.9,51.3,37.2,51.3L37.2,51.3z"/>
	<path id="Trazado_103007" d="M46.1,42.9h1V52h-1v-1.1c-0.2,0.4-0.5,0.7-0.8,0.9c-0.4,0.2-0.8,0.3-1.2,0.3c-0.4,0-0.7-0.1-1.1-0.2
		c-0.3-0.1-0.6-0.3-0.9-0.6c-0.3-0.3-0.5-0.6-0.6-1c-0.1-0.4-0.2-0.8-0.2-1.2c0-0.8,0.2-1.6,0.8-2.2c0.5-0.5,1.2-0.9,1.9-0.8
		c0.4,0,0.9,0.1,1.2,0.3c0.4,0.2,0.6,0.5,0.8,0.9L46.1,42.9z M44.3,51.2c0.5,0,1-0.2,1.3-0.6c0.7-0.9,0.7-2.1,0-3
		c-0.3-0.4-0.8-0.6-1.3-0.6c-0.5,0-1,0.2-1.4,0.6c-0.4,0.4-0.6,1-0.6,1.6c0,0.6,0.2,1.1,0.6,1.5C43.3,51,43.7,51.2,44.3,51.2
		L44.3,51.2z"/>
	<path id="Trazado_103008" d="M51.7,52.1c-0.5,0-1.1-0.1-1.5-0.4c-0.4-0.2-0.8-0.6-1-1.1c-0.3-0.5-0.4-1-0.4-1.6
		c0-0.8,0.3-1.6,0.8-2.2c1.2-1.1,3-1.1,4.2,0c1.1,1.3,1.1,3.1,0,4.4C53.2,51.8,52.4,52.1,51.7,52.1z M51.7,51.2c0.5,0,1-0.2,1.4-0.6
		c0.7-0.9,0.7-2.2,0-3.1c-0.3-0.4-0.8-0.6-1.4-0.6c-0.5,0-1,0.2-1.4,0.6c-0.7,0.9-0.7,2.2,0,3.1C50.6,51,51.1,51.2,51.7,51.2
		L51.7,51.2z"/>
	<path id="Trazado_103009" d="M0,66.5v-8.3h1.1v8.3H0z"/>
	<path id="Trazado_103010" d="M6.2,60.6c0.5,0,1.1,0.2,1.5,0.5c0.4,0.4,0.6,1,0.5,1.5v3.9h-1v-3.7c0-0.4-0.1-0.8-0.4-1
		c-0.2-0.2-0.6-0.4-0.9-0.3c-0.4,0-0.8,0.1-1,0.4c-0.3,0.3-0.4,0.8-0.4,1.2v3.5h-1v-5.8h1v0.8C4.8,60.8,5.5,60.5,6.2,60.6z"/>
	<path id="Trazado_103011" d="M15.2,63.4v0.3h-4.5c0,0.6,0.2,1.1,0.6,1.5c0.4,0.3,0.8,0.5,1.3,0.5c0.3,0,0.7-0.1,1-0.3
		c0.3-0.2,0.5-0.4,0.7-0.8l0.9,0.2c-0.2,0.5-0.5,0.9-1,1.2c-0.4,0.3-1,0.5-1.5,0.5c-0.8,0-1.5-0.3-2.1-0.8c-1.1-1.3-1.1-3.1,0-4.4
		c0.5-0.5,1.3-0.8,2.1-0.8c0.7,0,1.4,0.2,2,0.8C15,61.9,15.3,62.7,15.2,63.4L15.2,63.4z M12.5,61.3c-0.4,0-0.9,0.1-1.2,0.4
		c-0.3,0.3-0.6,0.7-0.6,1.2h3.5c0-0.5-0.2-0.9-0.5-1.2C13.4,61.5,13,61.3,12.5,61.3L12.5,61.3z"/>
	<path id="Trazado_103012" d="M17.8,61.7c0.2-0.3,0.4-0.6,0.7-0.8c0.3-0.2,0.7-0.3,1.1-0.3v1c-0.5,0-1,0.1-1.4,0.4
		c-0.3,0.4-0.5,0.9-0.5,1.4v3.1h-1v-5.8h1V61.7z"/>
	<path id="Trazado_103013" d="M23,66.5c-0.4,0-0.8-0.1-1.1-0.4c-0.3-0.3-0.4-0.7-0.4-1.2v-3.4h-1.2v-0.8h0.5c0.2,0,0.5,0,0.6-0.2
		c0.1-0.2,0.2-0.4,0.2-0.7v-1.1h0.9v1.9h1.3v0.8h-1.3v3.3c0,0.2,0.1,0.5,0.2,0.6c0.2,0.2,0.4,0.2,0.6,0.2h0.5v0.8L23,66.5z"/>
	<path id="Trazado_103014" d="M30.4,63.4v0.3h-4.5c0,0.6,0.2,1.1,0.6,1.5c0.4,0.3,0.8,0.5,1.3,0.5c0.7,0,1.3-0.4,1.6-1.1l0.9,0.2
		c-0.2,0.5-0.5,0.9-1,1.2c-0.4,0.3-1,0.5-1.5,0.5c-0.8,0-1.5-0.3-2.1-0.8c-1.1-1.3-1.1-3.1,0-4.4c0.5-0.5,1.3-0.8,2.1-0.8
		c0.7,0,1.4,0.2,2,0.8C30.2,61.9,30.4,62.7,30.4,63.4z M27.7,61.3c-0.4,0-0.9,0.1-1.2,0.4c-0.3,0.3-0.6,0.7-0.6,1.2h3.5
		c0-0.5-0.2-0.9-0.5-1.2C28.5,61.5,28.1,61.3,27.7,61.3L27.7,61.3z"/>
</g>
<g id="Grupo_57738" transform="translate(328.127 88.287)">
	<path id="Trazado_103015" d="M5.8,0.4h1.8V9H5.6L1.8,2.8V9H0V0.4h2.1l3.8,6.1L5.8,0.4z"/>
	<path id="Trazado_103016" d="M15.3,5.8v0.4h-4.5c0,0.4,0.2,0.8,0.5,1.1c0.5,0.4,1.3,0.5,1.9,0.2c0.2-0.1,0.4-0.4,0.5-0.6l1.6,0.2
		c-0.2,0.6-0.6,1.1-1.1,1.4c-0.5,0.3-1.2,0.5-1.8,0.5c-0.9,0-1.7-0.3-2.4-0.8C9.3,7.6,9,6.8,9.1,5.9C9,5,9.4,4.2,10,3.6
		c0.6-0.6,1.5-0.9,2.3-0.8c1.5-0.1,2.9,1,3,2.5C15.3,5.4,15.3,5.6,15.3,5.8L15.3,5.8z M12.3,3.9c-0.7-0.1-1.4,0.4-1.5,1.2h2.8
		c0-0.3-0.2-0.6-0.4-0.9C12.9,4,12.6,3.9,12.3,3.9L12.3,3.9z"/>
	<path id="Trazado_103017" d="M20.8,2.9h1.6v5.6c0,0.5-0.1,1-0.2,1.5c-0.1,0.4-0.4,0.8-0.7,1c-0.3,0.3-0.6,0.5-1,0.6
		c-0.4,0.1-0.9,0.2-1.3,0.2c-1.4,0.2-2.6-0.6-3.1-1.9l1.4-0.6c0.1,0.3,0.4,0.7,0.7,0.9c0.3,0.2,0.6,0.3,1,0.3c1.1,0,1.6-0.6,1.6-1.9
		V7.9c-0.2,0.3-0.5,0.5-0.8,0.6c-0.3,0.2-0.7,0.2-1.1,0.2c-0.4,0-0.7-0.1-1.1-0.2c-0.3-0.1-0.6-0.3-0.9-0.6c-0.3-0.3-0.5-0.6-0.6-1
		c-0.3-0.8-0.3-1.7,0-2.5c0.1-0.4,0.3-0.7,0.6-0.9c0.3-0.3,0.6-0.5,0.9-0.6c0.3-0.1,0.7-0.2,1.1-0.2c0.4,0,0.8,0.1,1.1,0.3
		c0.3,0.1,0.6,0.4,0.8,0.7L20.8,2.9z M18.2,6.9c0.3,0.3,0.7,0.5,1.1,0.5c0.4,0,0.8-0.2,1.1-0.5c0.6-0.7,0.6-1.7,0-2.3
		c-0.6-0.6-1.6-0.6-2.2,0c0,0,0,0,0,0c-0.3,0.3-0.5,0.7-0.4,1.2C17.7,6.2,17.9,6.6,18.2,6.9z"/>
	<path id="Trazado_103018" d="M29.2,7.3c0,0.5,0,1,0.1,1.5V9h-1.6l-0.1-0.7c-0.2,0.3-0.5,0.5-0.8,0.6C26.4,9,26,9.1,25.6,9.1
		c-0.2,0-0.4,0-0.6-0.1c-0.2,0-0.4-0.1-0.5-0.2c-0.2-0.1-0.3-0.2-0.4-0.3c-0.1-0.1-0.2-0.3-0.3-0.5c-0.1-0.2-0.1-0.4-0.1-0.7
		c0-0.2,0-0.4,0.1-0.7c0.1-0.2,0.2-0.3,0.3-0.5c0.1-0.1,0.3-0.3,0.5-0.4c0.2-0.1,0.4-0.2,0.6-0.3c0.2-0.1,0.5-0.1,0.8-0.2l1-0.2
		c0.2,0,0.3-0.1,0.5-0.2c0.1-0.1,0.1-0.2,0.1-0.3c0-0.2-0.1-0.5-0.3-0.6C27,4,26.8,4,26.5,4c-0.6-0.1-1.1,0.3-1.2,0.9c0,0,0,0,0,0
		l-1.5-0.3c0.1-0.6,0.4-1.1,0.9-1.4c0.6-0.3,1.2-0.5,1.9-0.4c1.7,0,2.6,0.7,2.6,2.2L29.2,7.3z M26.1,7.9c0.4,0,0.8-0.1,1.1-0.4
		c0.3-0.4,0.4-0.8,0.4-1.3l-1.4,0.4c-0.2,0-0.4,0.1-0.6,0.2c-0.1,0.1-0.2,0.3-0.2,0.4c0,0.2,0.1,0.4,0.2,0.5
		C25.7,7.9,26,7.9,26.1,7.9L26.1,7.9z"/>
	<path id="Trazado_103019" d="M33,9c-0.5,0-1-0.1-1.4-0.5c-0.3-0.4-0.5-0.9-0.5-1.4V4.2H30V2.9h0.4c0.3,0,0.6-0.1,0.8-0.3
		c0.2-0.3,0.3-0.6,0.2-0.9V0.9h1.5v2h1.2v1.3h-1.2v2.7c0,0.5,0.2,0.8,0.7,0.8h0.5v1.3L33,9z"/>
	<path id="Trazado_103020" d="M36.3,2c-0.3,0-0.5-0.1-0.7-0.3c-0.2-0.2-0.3-0.4-0.3-0.7c0-0.3,0.1-0.5,0.3-0.7c0.4-0.4,1-0.4,1.4,0
		s0.4,1,0,1.4C36.8,1.9,36.6,2,36.3,2z M35.5,9V2.9h1.7V9H35.5z"/>
	<path id="Trazado_103021" d="M42.9,2.9h1.8l-2.6,6.1h-1.5L38,2.9h1.8L41.3,7L42.9,2.9z"/>
	<path id="Trazado_103022" d="M48.2,9.1c-0.6,0-1.2-0.1-1.7-0.4c-0.5-0.2-0.9-0.6-1.2-1.1c-0.3-0.5-0.4-1.1-0.4-1.7
		c0-0.9,0.3-1.7,0.9-2.3c1.4-1.1,3.4-1.1,4.8,0c1.2,1.3,1.2,3.3,0,4.6C49.9,8.8,49.1,9.1,48.2,9.1L48.2,9.1z M48.2,7.7
		c0.5,0,0.9-0.2,1.2-0.5c0.3-0.4,0.5-0.8,0.5-1.3c0-0.5-0.1-1-0.5-1.3c-0.3-0.3-0.7-0.5-1.2-0.5c-0.4,0-0.9,0.2-1.2,0.5
		c-0.6,0.8-0.6,1.8,0,2.6C47.3,7.5,47.7,7.7,48.2,7.7L48.2,7.7z"/>
</g>
<polygon points="255.5,131.2 257,129.3 257.6,129.6 256.2,131.2 "/>
</svg>
