<?xml version="1.0" encoding="utf-8"?>
<!-- Generator: Adobe Illustrator 26.0.1, SVG Export Plug-In . SVG Version: 6.00 Build 0)  -->
<svg version="1.1" id="info_1_4-10" xmlns="http://www.w3.org/2000/svg" xmlns:xlink="http://www.w3.org/1999/xlink" x="0px"
	 y="0px" viewBox="0 0 426.8 227.5" style="enable-background:new 0 0 426.8 227.5;" xml:space="preserve">
<style type="text/css">
	.st0{fill:#F2F2F2;}
	.st1{opacity:0.75;}
	.st2{opacity:0.5;}
	.st3{opacity:0.25;}
</style>
<rect id="Rectángulo_5423" y="173" width="53.3" height="54.5"/>
<rect id="Rectángulo_5424" width="213.4" height="173"/>
<rect id="Rectángulo_5425" x="213.4" class="st0" width="213.4" height="227.5"/>
<g id="Grupo_57739" transform="translate(53.345 173)" class="st1">
	<rect id="Rectángulo_5426" x="0" width="53.3" height="54.5"/>
</g>
<g id="Grupo_57740" transform="translate(106.697 173)" class="st2">
	<rect id="Rectángulo_5427" x="0" width="53.3" height="54.5"/>
</g>
<g id="Grupo_57741" transform="translate(160.042 173)" class="st3">
	<rect id="Rectángulo_5428" x="0" width="53.3" height="54.5"/>
</g>
<g id="Grupo_57742" transform="translate(240.59 42.099)">
	<path id="Trazado_103023" d="M13.9,0h4.2v20.3h-4.9l-9-14.5v14.5H0V0h4.8l9,14.4L13.9,0z"/>
	<path id="Trazado_103024" d="M36.3,12.9l0,1H25.6c0,1,0.5,2,1.2,2.6c0.7,0.6,1.6,0.9,2.5,0.9c0.7,0,1.3-0.2,1.9-0.5
		c0.5-0.3,1-0.9,1.2-1.5l3.7,0.6c-0.4,1.4-1.3,2.6-2.6,3.4c-1.3,0.8-2.8,1.2-4.3,1.2c-2.1,0.1-4.1-0.6-5.6-2
		c-1.4-1.5-2.2-3.5-2.1-5.5c-0.1-2,0.7-4.1,2.1-5.5c1.5-1.4,3.5-2.1,5.5-2c3.6-0.3,6.9,2.4,7.2,6.1C36.4,12,36.3,12.5,36.3,12.9
		L36.3,12.9z M29.2,8.4c-1.7-0.2-3.3,1.1-3.5,2.8h6.6c-0.1-0.8-0.4-1.5-1-2.1C30.7,8.6,29.9,8.4,29.2,8.4L29.2,8.4z"/>
	<path id="Trazado_103025" d="M49.3,5.9h3.8v13.4c0,1.2-0.2,2.4-0.5,3.6c-0.3,0.9-0.9,1.8-1.6,2.5c-0.7,0.6-1.5,1.1-2.4,1.4
		c-1,0.3-2.1,0.5-3.1,0.4c-3.8,0-6.3-1.5-7.4-4.5l3.4-1.4c0.3,0.8,0.9,1.6,1.6,2.1c0.7,0.5,1.5,0.7,2.4,0.7c2.5,0,3.8-1.5,3.8-4.5
		v-1.7c-0.5,0.6-1.1,1.1-1.8,1.4c-0.8,0.4-1.7,0.6-2.6,0.5c-0.9,0-1.7-0.2-2.5-0.5c-0.8-0.3-1.5-0.8-2.1-1.4
		c-0.6-0.7-1.1-1.4-1.4-2.3c-0.7-1.9-0.7-4,0-5.9c0.3-0.9,0.8-1.6,1.4-2.3c0.6-0.6,1.3-1.1,2.1-1.4c0.8-0.3,1.7-0.5,2.6-0.5
		c0.9,0,1.8,0.2,2.7,0.6c0.7,0.3,1.4,0.9,1.8,1.6L49.3,5.9z M43.1,15.4c1.4,1.5,3.8,1.5,5.2,0.1c0,0,0,0,0.1-0.1
		c1.4-1.6,1.4-3.9,0-5.5c-1.5-1.5-3.8-1.5-5.3,0c-0.7,0.7-1.1,1.7-1.1,2.8C42,13.7,42.4,14.7,43.1,15.4L43.1,15.4z"/>
	<path id="Trazado_103026" d="M61.3,8.1c0.5-0.7,1.1-1.3,1.9-1.7C64,5.9,65,5.7,66,5.7v3.6c-1.2-0.1-2.4,0.2-3.5,0.9
		c-0.8,0.8-1.2,2-1.1,3.1v7.1h-4.1V5.9h3.9L61.3,8.1z"/>
	<path id="Trazado_103027" d="M75,20.6c-1.4,0-2.8-0.3-4.1-0.9c-1.2-0.6-2.1-1.5-2.8-2.6c-0.7-1.2-1.1-2.6-1-4
		C67,11,67.8,9,69.3,7.6c3.3-2.7,8.1-2.7,11.5,0C82.2,9,83,11,82.9,13.1c0.1,2.1-0.7,4.1-2.2,5.5C79.1,20,77.1,20.7,75,20.6z
		 M75,17.4c1.1,0.1,2.1-0.4,2.9-1.1c1.5-1.8,1.5-4.4,0-6.2C77.1,9.2,76,8.8,75,8.8c-1.1,0-2.1,0.4-2.8,1.2c-1.4,1.8-1.4,4.4,0,6.3
		C72.9,17,73.9,17.4,75,17.4L75,17.4z"/>
</g>
<g id="Grupo_57743" transform="translate(241.665 113.763)">
	<path id="Trazado_103028" d="M4.1,0.8c0.5,0,0.9,0.1,1.3,0.3C5.8,1.3,6.1,1.6,6.3,2c0.2,0.4,0.3,0.8,0.3,1.3c0,0.7-0.2,1.3-0.7,1.8
		C5.5,5.6,4.8,5.9,4.1,5.9H2v3.2H1V0.8L4.1,0.8z M4,4.9c0.4,0,0.9-0.1,1.2-0.4c0.6-0.7,0.6-1.7,0-2.4C4.8,1.8,4.4,1.7,4,1.7H2v3.3H4
		z"/>
	<path id="Trazado_103029" d="M10.1,9.2c-0.5,0-1.1-0.1-1.5-0.4C8.2,8.6,7.8,8.2,7.6,7.8c-0.3-0.5-0.4-1-0.4-1.6
		C7.1,5.4,7.4,4.6,8,4c1.2-1.1,3-1.1,4.2,0c1.1,1.3,1.1,3.1,0,4.4C11.7,8.9,10.9,9.2,10.1,9.2z M10.1,8.4c0.5,0,1-0.2,1.4-0.6
		c0.4-0.4,0.6-1,0.5-1.6c0-0.6-0.2-1.1-0.5-1.6C11.2,4.2,10.7,4,10.1,4c-0.5,0-1,0.2-1.4,0.6C8.4,5,8.2,5.6,8.2,6.2
		c0,0.6,0.2,1.1,0.5,1.6C9.1,8.1,9.6,8.4,10.1,8.4L10.1,8.4z"/>
	<path id="Trazado_103030" d="M19,0h1v9.1h-1V8c-0.2,0.4-0.5,0.7-0.8,0.9c-0.4,0.2-0.8,0.3-1.2,0.3c-0.4,0-0.7-0.1-1.1-0.2
		c-0.3-0.1-0.6-0.3-0.9-0.6c-0.3-0.3-0.5-0.6-0.6-1c-0.1-0.4-0.2-0.8-0.2-1.2c0-0.8,0.2-1.6,0.8-2.2c0.5-0.5,1.2-0.9,1.9-0.8
		c0.4,0,0.9,0.1,1.2,0.3C18.5,3.7,18.8,4,19,4.4L19,0z M17.1,8.3c0.5,0,1-0.2,1.4-0.6c0.4-0.4,0.6-1,0.5-1.5c0-0.6-0.2-1.1-0.6-1.5
		c-0.3-0.4-0.8-0.6-1.3-0.6c-0.5,0-1,0.2-1.4,0.6c-0.4,0.4-0.6,1-0.6,1.5c0,0.6,0.2,1.1,0.6,1.5C16.1,8.1,16.6,8.3,17.1,8.3
		L17.1,8.3z"/>
	<path id="Trazado_103031" d="M27.2,6.1v0.3h-4.5c0,0.6,0.2,1.1,0.6,1.5c0.4,0.3,0.8,0.5,1.3,0.5c0.7,0,1.3-0.4,1.6-1.1l0.9,0.2
		c-0.2,0.5-0.5,0.9-1,1.3c-0.4,0.3-1,0.5-1.5,0.5c-0.8,0-1.5-0.3-2.1-0.8c-1.1-1.3-1.1-3.1,0-4.4c0.5-0.5,1.3-0.8,2.1-0.8
		c0.7,0,1.4,0.2,2,0.8C27,4.5,27.2,5.3,27.2,6.1z M24.5,3.9c-0.4,0-0.9,0.1-1.2,0.4c-0.3,0.3-0.6,0.7-0.6,1.2h3.5
		c0-0.5-0.2-0.9-0.5-1.2C25.3,4.1,24.9,3.9,24.5,3.9L24.5,3.9z"/>
	<path id="Trazado_103032" d="M29.8,4.3c0.2-0.3,0.4-0.6,0.8-0.8c0.3-0.2,0.7-0.3,1.1-0.3v1c-0.5,0-1,0.1-1.3,0.4
		C29.9,5,29.8,5.5,29.8,6v3.1h-1V3.3h1L29.8,4.3z"/>
	<path id="Trazado_103033" d="M35.2,9.2c-0.5,0-1.1-0.1-1.5-0.4c-0.4-0.2-0.8-0.6-1.1-1.1c-0.3-0.5-0.4-1-0.4-1.6
		c0-0.8,0.3-1.6,0.8-2.2c1.2-1.1,3-1.1,4.2,0c1.1,1.3,1.1,3.1,0,4.4C36.7,8.9,36,9.2,35.2,9.2L35.2,9.2z M35.2,8.4
		c0.5,0,1-0.2,1.4-0.6c0.4-0.4,0.6-1,0.5-1.6c0-0.6-0.2-1.1-0.5-1.6C36.2,4.2,35.7,4,35.2,4c-0.5,0-1,0.2-1.4,0.6
		c-0.4,0.4-0.6,1-0.5,1.6c0,0.6,0.2,1.1,0.5,1.6C34.2,8.1,34.7,8.4,35.2,8.4L35.2,8.4z"/>
	<path id="Trazado_103034" d="M41.6,9.2c-0.6,0-1.1-0.1-1.6-0.4c-0.4-0.3-0.7-0.7-0.8-1.2l0.9-0.3c0,0.3,0.2,0.6,0.5,0.8
		c0.3,0.2,0.6,0.3,1,0.3c0.2,0,0.4,0,0.6-0.1c0.2-0.1,0.3-0.2,0.4-0.3c0.1-0.1,0.2-0.3,0.2-0.5c0-0.1,0-0.2-0.1-0.2
		c0-0.1-0.1-0.1-0.1-0.2c0-0.1-0.1-0.1-0.2-0.2l-0.2-0.1c-0.1,0-0.2-0.1-0.3-0.1l-0.3-0.1l-0.3-0.1L41,6.4c-0.2-0.1-0.4-0.1-0.6-0.2
		c-0.2-0.1-0.3-0.2-0.5-0.3c-0.2-0.1-0.3-0.3-0.4-0.5c-0.1-0.2-0.1-0.4-0.1-0.7c0-0.3,0.1-0.7,0.3-0.9c0.2-0.3,0.5-0.4,0.8-0.6
		c0.3-0.1,0.7-0.2,1-0.2c0.5,0,1,0.1,1.4,0.4c0.4,0.3,0.6,0.7,0.7,1.1l-0.8,0.2c0-0.3-0.2-0.6-0.4-0.8c-0.2-0.2-0.5-0.3-0.8-0.2
		c-0.3,0-0.5,0.1-0.8,0.2c-0.2,0.1-0.3,0.4-0.3,0.6c0,0.1,0,0.2,0.1,0.3c0,0.1,0.1,0.2,0.2,0.2c0.1,0.1,0.2,0.1,0.3,0.2
		c0.1,0.1,0.2,0.1,0.3,0.1l0.4,0.1h0.1l0.6,0.2C42.6,5.9,42.7,6,42.9,6c0.2,0.1,0.3,0.2,0.5,0.3c0.1,0.1,0.2,0.3,0.3,0.4
		c0.1,0.2,0.1,0.4,0.1,0.6c0,0.3-0.1,0.5-0.2,0.8c-0.1,0.2-0.3,0.4-0.5,0.5C42.9,8.9,42.7,9,42.4,9C42.1,9.1,41.9,9.2,41.6,9.2z"/>
	<path id="Trazado_103035" d="M47.7,9.2c-0.5,0-1.1-0.1-1.5-0.4c-0.4-0.2-0.8-0.6-1-1.1c-0.3-0.5-0.4-1-0.4-1.6
		c0-0.8,0.3-1.6,0.8-2.2c1.2-1.1,3-1.1,4.2,0c1.1,1.3,1.1,3.1,0,4.4C49.3,8.9,48.5,9.2,47.7,9.2z M47.7,8.4c0.5,0,1-0.2,1.4-0.6
		c0.4-0.4,0.6-1,0.5-1.6c0-0.6-0.2-1.1-0.5-1.6C48.8,4.2,48.3,4,47.7,4c-0.5,0-1,0.2-1.4,0.6c-0.7,0.9-0.7,2.2,0,3.1
		C46.7,8.1,47.2,8.4,47.7,8.4L47.7,8.4z"/>
	<path id="Trazado_103036" d="M4.5,23.7c-0.6,0-1.1-0.1-1.6-0.3C2.4,23.2,2,23,1.6,22.6c-0.4-0.4-0.7-0.8-0.9-1.4
		c-0.4-1.2-0.4-2.4,0-3.6c0.2-0.5,0.5-1,0.9-1.4C2,16,2.4,15.7,2.9,15.5c0.5-0.2,1.1-0.3,1.6-0.3c0.8,0,1.5,0.2,2.2,0.6
		c0.7,0.4,1.2,0.9,1.5,1.6l-1,0.4c-0.2-0.5-0.6-0.9-1.1-1.2c-0.5-0.3-1-0.4-1.6-0.4c-0.4,0-0.8,0.1-1.2,0.2c-0.4,0.1-0.7,0.4-1,0.6
		c-0.3,0.3-0.5,0.6-0.7,1c-0.2,0.4-0.2,0.9-0.2,1.4c0,0.5,0.1,0.9,0.2,1.4c0.1,0.4,0.4,0.7,0.7,1c0.3,0.3,0.6,0.5,1,0.6
		c0.4,0.2,0.8,0.2,1.2,0.2c0.6,0,1.1-0.1,1.6-0.4C6.6,22,7,21.6,7.3,21.1l1,0.4c-0.3,0.7-0.9,1.3-1.5,1.6
		C6.1,23.5,5.3,23.7,4.5,23.7L4.5,23.7z"/>
	<path id="Trazado_103037" d="M12.2,23.7c-0.5,0-1.1-0.1-1.5-0.4c-0.4-0.2-0.8-0.6-1.1-1.1c-0.3-0.5-0.4-1-0.4-1.6
		c0-0.8,0.3-1.6,0.8-2.2c1.2-1.1,3-1.1,4.2,0c0.6,0.6,0.9,1.4,0.8,2.2c0,0.8-0.3,1.6-0.8,2.2C13.7,23.5,13,23.8,12.2,23.7L12.2,23.7
		z M12.2,22.9c0.5,0,1-0.2,1.4-0.6c0.7-0.9,0.7-2.2,0-3.1c-0.3-0.4-0.9-0.6-1.4-0.6c-0.5,0-1,0.2-1.4,0.6c-0.7,0.9-0.7,2.2,0,3.1
		C11.2,22.7,11.7,22.9,12.2,22.9L12.2,22.9z"/>
	<path id="Trazado_103038" d="M19.5,17.7c0.5,0,1.1,0.2,1.5,0.5c0.4,0.4,0.6,1,0.5,1.5v3.9h-1V20c0-0.4-0.1-0.8-0.4-1
		c-0.2-0.2-0.6-0.4-0.9-0.3c-0.4,0-0.8,0.1-1,0.4c-0.3,0.3-0.4,0.8-0.4,1.2v3.5h-1v-5.8h1v0.8C18.1,18,18.8,17.7,19.5,17.7z"/>
	<path id="Trazado_103039" d="M25.3,23.6c-0.4,0-0.8-0.1-1.1-0.4c-0.3-0.3-0.4-0.7-0.4-1.2v-3.4h-1.2v-0.8h0.4c0.2,0,0.5,0,0.6-0.2
		c0.1-0.2,0.2-0.4,0.2-0.7v-1.1h1v1.9h1.3v0.8h-1.3v3.3c0,0.2,0.1,0.5,0.2,0.6c0.2,0.2,0.4,0.2,0.6,0.2h0.5v0.8L25.3,23.6z"/>
	<path id="Trazado_103040" d="M28.6,18.8c0.2-0.3,0.4-0.6,0.7-0.8c0.3-0.2,0.7-0.3,1.1-0.3v1c-0.5,0-1,0.1-1.4,0.4
		c-0.3,0.4-0.5,0.9-0.5,1.4v3.1h-1v-5.8h1V18.8z"/>
	<path id="Trazado_103041" d="M34.1,23.7c-0.5,0-1.1-0.1-1.5-0.4c-0.4-0.2-0.8-0.6-1-1.1c-0.3-0.5-0.4-1-0.4-1.6
		c0-0.8,0.3-1.6,0.8-2.2c1.2-1.1,3-1.1,4.2,0c1.1,1.3,1.1,3.1,0,4.4C35.6,23.5,34.8,23.8,34.1,23.7z M34.1,22.9c0.5,0,1-0.2,1.4-0.6
		c0.7-0.9,0.7-2.2,0-3.1c-0.7-0.8-1.9-0.8-2.6-0.1c0,0-0.1,0.1-0.1,0.1c-0.7,0.9-0.7,2.2,0,3.1C33,22.7,33.5,22.9,34.1,22.9
		L34.1,22.9z"/>
	<path id="Trazado_103042" d="M38.6,23.6v-9.1h1v9.1H38.6z"/>
	<path id="Trazado_103043" d="M43.1,23.7c-0.5,0-0.9-0.1-1.3-0.4c-0.3-0.3-0.5-0.7-0.5-1.2c0-0.3,0-0.5,0.2-0.8
		c0.1-0.2,0.3-0.4,0.5-0.5c0.2-0.1,0.4-0.3,0.7-0.3c0.3-0.1,0.6-0.2,0.9-0.2l0.9-0.2c0.3-0.1,0.5-0.2,0.5-0.5c0-0.3-0.1-0.7-0.4-0.9
		c-0.3-0.2-0.6-0.3-0.9-0.3c-0.3,0-0.6,0.1-0.9,0.3c-0.3,0.2-0.4,0.5-0.4,0.8l-0.9-0.2c0.1-0.5,0.3-1,0.8-1.2c0.5-0.3,1-0.4,1.6-0.4
		c0.3,0,0.6,0,0.8,0.1c0.3,0.1,0.5,0.2,0.7,0.3c0.2,0.2,0.4,0.4,0.5,0.6c0.1,0.3,0.2,0.6,0.2,1v2.4c0,0.2,0,0.4,0.1,0.6
		c0.1,0.1,0.3,0.2,0.5,0.2h0.1v0.8h-0.6c-0.5,0.1-1-0.2-1.1-0.8H45C44.5,23.5,43.8,23.8,43.1,23.7z M43.3,22.9
		c0.5,0,0.9-0.2,1.2-0.6c0.3-0.4,0.5-1,0.5-1.5l-1.5,0.3c-0.3,0-0.6,0.1-0.9,0.3c-0.4,0.3-0.4,0.8-0.1,1.2c0,0,0.1,0.1,0.1,0.1
		C42.8,22.9,43.1,22.9,43.3,22.9L43.3,22.9z"/>
	<path id="Trazado_103044" d="M52.2,14.5h1v9.1h-1v-1.1c-0.2,0.4-0.5,0.7-0.8,0.9c-0.4,0.2-0.8,0.3-1.2,0.3c-0.4,0-0.7-0.1-1.1-0.2
		c-0.3-0.1-0.6-0.3-0.9-0.6c-0.3-0.3-0.5-0.6-0.6-1c-0.1-0.4-0.2-0.8-0.2-1.2c0-0.8,0.2-1.6,0.8-2.2c0.5-0.5,1.2-0.9,1.9-0.8
		c0.4,0,0.9,0.1,1.2,0.3c0.4,0.2,0.6,0.5,0.8,0.9L52.2,14.5z M50.4,22.9c0.5,0,1-0.2,1.4-0.6c0.4-0.4,0.6-1,0.5-1.5
		c0-0.6-0.2-1.1-0.6-1.5c-0.3-0.4-0.8-0.6-1.3-0.6c-0.5,0-1,0.2-1.4,0.6c-0.4,0.4-0.6,1-0.5,1.6c0,0.6,0.2,1.1,0.5,1.5
		C49.4,22.7,49.9,22.9,50.4,22.9L50.4,22.9z"/>
	<path id="Trazado_103045" d="M57.8,23.7c-0.5,0-1.1-0.1-1.5-0.4c-0.4-0.2-0.8-0.6-1.1-1.1c-0.3-0.5-0.4-1-0.4-1.6
		c0-0.8,0.3-1.6,0.8-2.2c1.2-1.1,3-1.1,4.2,0c1.1,1.3,1.1,3.1,0,4.4C59.3,23.5,58.6,23.8,57.8,23.7L57.8,23.7z M57.8,22.9
		c0.5,0,1-0.2,1.4-0.6c0.7-0.9,0.7-2.2,0-3.1c-0.3-0.4-0.9-0.6-1.4-0.6c-0.5,0-1,0.2-1.4,0.6c-0.7,0.9-0.7,2.2,0,3.1
		C56.8,22.7,57.3,22.9,57.8,22.9L57.8,22.9z"/>
	<path id="Trazado_103046" d="M63.3,18.8c0.2-0.3,0.4-0.6,0.8-0.8c0.3-0.2,0.7-0.3,1.1-0.3v1c-0.5,0-1,0.1-1.3,0.4
		c-0.3,0.4-0.5,0.9-0.5,1.4v3.1h-1.1v-5.8h1V18.8z"/>
	<path id="Trazado_103047" d="M6.3,38.2l-0.7-2H1.8l-0.7,2H0l3.1-8.3h1.3l3.1,8.3H6.3z M2.2,35.2h3.1l-1.6-4.4L2.2,35.2z"/>
	<path id="Trazado_103048" d="M12.4,32.4h1v5.8h-1v-0.8c-0.2,0.3-0.4,0.5-0.8,0.7c-0.3,0.2-0.7,0.2-1,0.2c-0.5,0-1.1-0.2-1.5-0.5
		c-0.4-0.4-0.6-1-0.6-1.5v-3.9h1.1V36c0,0.4,0.1,0.8,0.4,1c0.2,0.2,0.6,0.4,0.9,0.3c0.4,0,0.8-0.1,1-0.4c0.3-0.3,0.4-0.8,0.4-1.2
		L12.4,32.4z"/>
	<path id="Trazado_103049" d="M17.4,38.2c-0.4,0-0.8-0.1-1.1-0.4c-0.3-0.3-0.4-0.7-0.4-1.2v-3.4h-1.2v-0.8h0.4c0.2,0,0.5,0,0.6-0.2
		c0.1-0.2,0.2-0.4,0.2-0.7v-1.1h1v1.9h1.3v0.8h-1.3v3.3c0,0.2,0.1,0.5,0.2,0.6c0.2,0.2,0.4,0.2,0.6,0.2h0.5v0.8L17.4,38.2z"/>
	<path id="Trazado_103050" d="M22.1,38.3c-0.5,0-1.1-0.1-1.5-0.4c-0.4-0.2-0.8-0.6-1-1.1c-0.3-0.5-0.4-1-0.4-1.6
		c0-0.8,0.3-1.6,0.8-2.2c1.2-1.1,3-1.1,4.2,0c1.1,1.3,1.1,3.1,0,4.4C23.6,38,22.9,38.3,22.1,38.3z M22.1,37.4c0.5,0,1-0.2,1.4-0.6
		c0.4-0.4,0.6-1,0.5-1.6c0-0.6-0.2-1.1-0.5-1.6c-0.3-0.4-0.9-0.6-1.4-0.6c-0.5,0-1,0.2-1.4,0.6c-0.7,0.9-0.7,2.2,0,3.1
		C21.1,37.2,21.6,37.4,22.1,37.4L22.1,37.4z"/>
	<path id="Trazado_103051" d="M27.6,33.4c0.2-0.3,0.4-0.6,0.7-0.8c0.3-0.2,0.7-0.3,1.1-0.3v1c-0.5,0-1,0.1-1.3,0.4
		c-0.3,0.4-0.5,0.9-0.5,1.4v3.1h-1v-5.8h1L27.6,33.4z"/>
	<path id="Trazado_103052" d="M31.2,31c-0.4,0-0.7-0.3-0.7-0.7c0,0,0,0,0,0c0-0.2,0.1-0.4,0.2-0.5c0.3-0.3,0.7-0.3,1,0
		c0.1,0.1,0.2,0.3,0.2,0.5c0,0.2-0.1,0.4-0.2,0.5C31.5,30.9,31.4,31,31.2,31z M30.7,38.2v-5.8h1.1v5.8H30.7z"/>
	<path id="Trazado_103053" d="M35.6,38.2c-0.4,0-0.8-0.1-1.1-0.4c-0.3-0.3-0.4-0.7-0.4-1.2v-3.4h-1.2v-0.8h0.4c0.2,0,0.5,0,0.6-0.2
		c0.1-0.2,0.2-0.4,0.2-0.7v-1.1h1v1.9h1.3v0.8h-1.3v3.3c0,0.2,0.1,0.5,0.2,0.6c0.2,0.2,0.4,0.2,0.6,0.2h0.5v0.8L35.6,38.2z"/>
	<path id="Trazado_103054" d="M39.2,38.3c-0.5,0-0.9-0.1-1.3-0.4c-0.3-0.3-0.5-0.7-0.5-1.2c0-0.3,0-0.5,0.2-0.8
		c0.1-0.2,0.3-0.4,0.5-0.5c0.2-0.1,0.4-0.3,0.7-0.3c0.3-0.1,0.6-0.2,0.9-0.2l0.9-0.2c0.3-0.1,0.5-0.2,0.5-0.5c0-0.3-0.1-0.7-0.4-0.9
		c-0.6-0.4-1.3-0.4-1.8,0c-0.3,0.2-0.4,0.5-0.4,0.8l-0.9-0.2c0.1-0.5,0.3-1,0.8-1.2c0.5-0.3,1-0.4,1.6-0.4c0.3,0,0.6,0,0.8,0.1
		c0.3,0.1,0.5,0.2,0.7,0.3c0.2,0.2,0.4,0.4,0.5,0.6c0.1,0.3,0.2,0.6,0.2,1v2.4c0,0.2,0,0.4,0.1,0.6c0.1,0.1,0.3,0.2,0.5,0.2h0.1v0.8
		h-0.5c-0.6,0-1-0.3-1.1-0.8h0C40.7,38,39.9,38.4,39.2,38.3z M39.4,37.5c0.5,0,0.9-0.2,1.2-0.6c0.3-0.4,0.5-1,0.5-1.5l-1.5,0.3
		c-0.3,0-0.6,0.1-0.9,0.3c-0.4,0.3-0.4,0.8-0.1,1.2c0,0,0,0.1,0.1,0.1C38.9,37.4,39.2,37.5,39.4,37.5L39.4,37.5z"/>
	<path id="Trazado_103055" d="M45.2,33.4c0.2-0.3,0.4-0.6,0.8-0.8c0.3-0.2,0.7-0.3,1.1-0.3v1c-0.5,0-1,0.1-1.3,0.4
		c-0.3,0.4-0.5,0.9-0.5,1.4v3.1h-1v-5.8h1L45.2,33.4z"/>
	<path id="Trazado_103056" d="M48.8,31c-0.4,0-0.7-0.3-0.7-0.7c0,0,0,0,0,0c0-0.2,0.1-0.4,0.2-0.5c0.1-0.1,0.3-0.2,0.5-0.2
		c0.2,0,0.4,0.1,0.5,0.2c0.1,0.1,0.2,0.3,0.2,0.5c0,0.2-0.1,0.4-0.2,0.5C49.1,30.9,48.9,31,48.8,31z M48.2,38.2v-5.8h1v5.8H48.2z"/>
	<path id="Trazado_103057" d="M53.8,38.3c-0.5,0-1.1-0.1-1.5-0.4c-0.4-0.2-0.8-0.6-1-1.1c-0.3-0.5-0.4-1-0.4-1.6
		c0-0.8,0.3-1.6,0.8-2.2c1.2-1.1,3-1.1,4.2,0c1.1,1.3,1.1,3.1,0,4.4C55.3,38,54.6,38.3,53.8,38.3z M53.8,37.4c0.5,0,1-0.2,1.4-0.6
		c0.4-0.4,0.6-1,0.5-1.6c0-0.6-0.2-1.1-0.5-1.6c-0.7-0.8-1.9-0.8-2.6-0.1c0,0-0.1,0.1-0.1,0.1c-0.7,0.9-0.7,2.2,0,3.1
		C52.8,37.2,53.3,37.4,53.8,37.4L53.8,37.4z"/>
	<path id="Trazado_103058" d="M1,52.7v-8.3h2.7c0.7,0,1.5,0.2,2.1,0.5c0.6,0.3,1,0.9,1.3,1.5c0.3,0.7,0.4,1.4,0.4,2.2
		c0,0.6-0.1,1.1-0.2,1.7c-0.2,0.5-0.4,0.9-0.7,1.3c-0.3,0.4-0.7,0.7-1.2,0.9c-0.5,0.2-1.1,0.3-1.7,0.3L1,52.7z M2,51.7h1.6
		c0.8,0.1,1.6-0.3,2.1-0.9c0.9-1.4,0.9-3.3,0-4.7c-0.5-0.6-1.3-0.9-2.1-0.8H2V51.7z"/>
	<path id="Trazado_103059" d="M9.8,45.5c-0.4,0-0.7-0.3-0.7-0.7c0,0,0,0,0,0c0-0.2,0.1-0.4,0.2-0.5c0.1-0.1,0.3-0.2,0.5-0.2
		c0.2,0,0.4,0.1,0.5,0.2c0.1,0.1,0.2,0.3,0.2,0.5c0,0.2-0.1,0.4-0.2,0.5C10.2,45.5,10,45.5,9.8,45.5L9.8,45.5z M9.3,52.7v-5.8h1v5.8
		H9.3z"/>
	<path id="Trazado_103060" d="M14.3,52.8c-0.6,0-1.1-0.1-1.6-0.4c-0.4-0.3-0.7-0.7-0.8-1.2l0.9-0.3c0,0.3,0.2,0.6,0.5,0.8
		c0.3,0.2,0.6,0.3,1,0.3c0.2,0,0.4,0,0.6-0.1c0.2-0.1,0.3-0.2,0.4-0.3c0.1-0.1,0.2-0.3,0.2-0.5c0-0.1,0-0.2,0-0.2
		c0-0.1-0.1-0.1-0.1-0.2c0-0.1-0.1-0.1-0.2-0.2c-0.1,0-0.1-0.1-0.2-0.1c-0.1,0-0.2-0.1-0.3-0.1l-0.3-0.1L14,50.1L13.7,50
		c-0.2-0.1-0.4-0.1-0.6-0.2c-0.2-0.1-0.3-0.2-0.5-0.3c-0.2-0.1-0.3-0.3-0.4-0.5c-0.1-0.2-0.1-0.4-0.1-0.7c0-0.3,0.1-0.7,0.3-0.9
		c0.2-0.3,0.5-0.4,0.8-0.6c0.3-0.1,0.7-0.2,1-0.2c0.5,0,1,0.1,1.4,0.4c0.4,0.3,0.6,0.7,0.7,1.1l-0.8,0.2c0-0.3-0.2-0.6-0.4-0.8
		c-0.2-0.2-0.5-0.3-0.8-0.2c-0.3,0-0.5,0.1-0.8,0.2c-0.2,0.1-0.3,0.4-0.3,0.6c0,0.1,0,0.2,0.1,0.3c0,0.1,0.1,0.2,0.2,0.2
		c0.1,0.1,0.2,0.1,0.3,0.2l0.3,0.1l0.4,0.1h0.1c0.2,0.1,0.4,0.1,0.6,0.2c0.2,0.1,0.3,0.1,0.5,0.2c0.2,0.1,0.3,0.2,0.4,0.3
		c0.1,0.1,0.2,0.3,0.3,0.5c0.1,0.2,0.1,0.4,0.1,0.6c0,0.3-0.1,0.5-0.2,0.8c-0.1,0.2-0.3,0.4-0.5,0.5c-0.2,0.1-0.4,0.2-0.7,0.3
		C14.8,52.7,14.5,52.8,14.3,52.8z"/>
	<path id="Trazado_103061" d="M20.4,52.8c-0.8,0-1.5-0.3-2.1-0.8c-1.1-1.2-1.1-3.1,0-4.4c0.5-0.6,1.3-0.9,2.1-0.8
		c0.6,0,1.2,0.2,1.7,0.5c0.5,0.3,0.8,0.8,1,1.4l-1,0.2c-0.2-0.7-0.9-1.2-1.7-1.2c-0.5,0-1,0.2-1.3,0.6c-0.7,0.9-0.7,2.2,0,3.1
		c0.7,0.7,1.8,0.8,2.6,0.1c0.2-0.2,0.4-0.5,0.5-0.8l1,0.2c-0.2,0.6-0.5,1.1-1,1.4C21.6,52.7,21,52.9,20.4,52.8z"/>
	<path id="Trazado_103062" d="M25.1,45.5c-0.2,0-0.4-0.1-0.5-0.2c-0.1-0.1-0.2-0.3-0.2-0.5c0-0.2,0.1-0.4,0.2-0.5
		c0.3-0.3,0.7-0.3,1,0c0.1,0.1,0.2,0.3,0.2,0.5c0,0.2-0.1,0.4-0.2,0.5C25.5,45.5,25.3,45.5,25.1,45.5z M24.6,52.7v-5.8h1v5.8H24.6z"
		/>
	<path id="Trazado_103063" d="M30.8,46.8c0.4,0,0.7,0.1,1.1,0.2c0.3,0.1,0.6,0.3,0.9,0.6c0.3,0.3,0.5,0.6,0.6,1
		c0.1,0.4,0.2,0.8,0.2,1.3c0,0.8-0.2,1.6-0.8,2.2c-0.5,0.5-1.2,0.8-1.9,0.8c-0.4,0-0.9-0.1-1.2-0.3c-0.4-0.2-0.6-0.5-0.8-0.9v4h-1
		v-8.8h1V48c0.2-0.4,0.5-0.7,0.8-0.9C29.9,46.9,30.3,46.8,30.8,46.8z M30.6,52c0.5,0,1-0.2,1.3-0.6c0.7-0.9,0.7-2.2,0-3.1
		c-0.3-0.4-0.8-0.6-1.3-0.6c-0.5,0-1,0.2-1.4,0.6c-0.4,0.4-0.6,1-0.6,1.5c0,0.6,0.2,1.1,0.6,1.5C29.5,51.7,30,52,30.6,52L30.6,52z"
		/>
	<path id="Trazado_103064" d="M35.1,52.7v-9.1h1v9.1H35.1z"/>
	<path id="Trazado_103065" d="M38.7,45.5c-0.2,0-0.4-0.1-0.5-0.2c-0.1-0.1-0.2-0.3-0.2-0.5c0-0.2,0.1-0.4,0.2-0.5
		c0.3-0.3,0.7-0.3,1,0c0.1,0.1,0.2,0.3,0.2,0.5c0,0.2-0.1,0.4-0.2,0.5C39.1,45.5,38.9,45.5,38.7,45.5z M38.2,52.7v-5.8h1v5.8H38.2z"
		/>
	<path id="Trazado_103066" d="M44.1,46.8c0.5,0,1.1,0.2,1.5,0.5c0.4,0.4,0.6,1,0.6,1.5v3.9h-1v-3.7c0-0.4-0.1-0.8-0.3-1
		c-0.2-0.2-0.6-0.3-0.9-0.3c-0.4,0-0.8,0.1-1,0.4c-0.3,0.3-0.4,0.8-0.4,1.2v3.5h-1v-5.8h1v0.8C42.7,47.1,43.4,46.7,44.1,46.8z"/>
	<path id="Trazado_103067" d="M49.4,52.8c-0.5,0-0.9-0.1-1.3-0.4c-0.4-0.3-0.5-0.7-0.5-1.2c0-0.3,0.1-0.5,0.2-0.8
		c0.1-0.2,0.3-0.4,0.5-0.5c0.2-0.1,0.4-0.3,0.7-0.3c0.3-0.1,0.6-0.2,0.9-0.2l0.9-0.2c0.3-0.1,0.5-0.2,0.5-0.5c0-0.3-0.1-0.7-0.4-0.9
		c-0.3-0.2-0.6-0.3-0.9-0.3c-0.3,0-0.6,0.1-0.9,0.3c-0.3,0.2-0.4,0.5-0.4,0.8l-0.9-0.2c0.1-0.5,0.3-1,0.8-1.2c0.5-0.3,1-0.4,1.6-0.4
		c0.3,0,0.6,0,0.8,0.1c0.3,0.1,0.5,0.2,0.7,0.3c0.2,0.2,0.4,0.4,0.5,0.6c0.1,0.3,0.2,0.6,0.2,1v2.4c0,0.2,0,0.4,0.1,0.6
		c0.1,0.1,0.3,0.2,0.5,0.2H53v0.8h-0.5c-0.5,0.1-1-0.2-1.1-0.8h-0.1C50.9,52.6,50.1,52.9,49.4,52.8L49.4,52.8z M49.6,52
		c0.5,0,0.9-0.2,1.2-0.6c0.3-0.4,0.5-1,0.5-1.5l-1.5,0.3c-0.3,0-0.6,0.2-0.9,0.3c-0.4,0.3-0.4,0.9-0.1,1.2c0,0,0,0,0.1,0.1
		C49.1,52,49.4,52,49.6,52L49.6,52z"/>
	<path id="Trazado_103068" d="M58.6,43.6h1v9.1h-1v-1.1c-0.2,0.4-0.5,0.7-0.8,0.9c-0.4,0.2-0.8,0.3-1.2,0.3c-0.4,0-0.7-0.1-1.1-0.2
		c-0.3-0.1-0.6-0.3-0.9-0.6c-0.3-0.3-0.5-0.6-0.6-1c-0.1-0.4-0.2-0.8-0.2-1.2c0-0.8,0.2-1.6,0.8-2.2c0.5-0.5,1.2-0.9,1.9-0.8
		c0.4,0,0.9,0.1,1.2,0.3c0.4,0.2,0.6,0.5,0.8,0.9L58.6,43.6z M56.8,52c0.5,0,1-0.2,1.4-0.6c0.4-0.4,0.6-1,0.5-1.5
		c0-0.6-0.2-1.1-0.6-1.5c-0.3-0.4-0.8-0.6-1.3-0.6c-0.5,0-1,0.2-1.4,0.6c-0.4,0.4-0.6,1-0.5,1.6c0,0.6,0.2,1.1,0.5,1.5
		C55.7,51.7,56.2,52,56.8,52L56.8,52z"/>
	<path id="Trazado_103069" d="M64.1,52.8c-0.5,0-1.1-0.1-1.5-0.4c-0.4-0.2-0.8-0.6-1.1-1.1c-0.3-0.5-0.4-1-0.4-1.6
		c0-0.8,0.3-1.6,0.8-2.2c1.2-1.1,3-1.1,4.2,0c1.1,1.3,1.1,3.1,0,4.4C65.7,52.6,64.9,52.9,64.1,52.8L64.1,52.8z M64.1,52
		c0.5,0,1-0.2,1.4-0.6c0.7-0.9,0.7-2.2,0-3.1c-0.3-0.4-0.9-0.6-1.4-0.6c-0.5,0-1,0.2-1.4,0.6c-0.7,0.9-0.7,2.2,0,3.1
		C63.1,51.8,63.6,52,64.1,52L64.1,52z"/>
	<path id="Trazado_103070" d="M5.4,59.9H2.1v2.7h3v0.9h-3v2.7h3.4v0.9H1v-8.3h4.5V59.9z"/>
	<path id="Trazado_103071" d="M7.2,67.2v-9.1h1v9.1H7.2z"/>
	<path id="Trazado_103072" d="M15.4,64.2v0.3h-4.5c0,0.6,0.2,1.1,0.6,1.5c0.4,0.3,0.8,0.5,1.3,0.5c0.3,0,0.7-0.1,1-0.3
		c0.3-0.2,0.5-0.4,0.7-0.8l0.9,0.2c-0.2,0.5-0.5,0.9-1,1.2c-0.4,0.3-1,0.5-1.5,0.5c-0.8,0-1.5-0.3-2.1-0.8c-1.1-1.3-1.1-3.1,0-4.4
		c0.5-0.5,1.3-0.8,2.1-0.8c0.7,0,1.4,0.2,2,0.8C15.2,62.7,15.5,63.4,15.4,64.2L15.4,64.2z M12.7,62.1c-0.4,0-0.9,0.1-1.2,0.4
		c-0.3,0.3-0.6,0.7-0.6,1.2h3.5c0-0.5-0.2-0.9-0.5-1.2C13.6,62.2,13.1,62.1,12.7,62.1L12.7,62.1z"/>
	<path id="Trazado_103073" d="M21.2,61.4h1V67c0,1.6-1.2,3-2.9,3c-1.2,0-2.3-0.7-2.8-1.8l0.8-0.4c0.3,0.8,1.1,1.4,1.9,1.3
		c0.5,0,1-0.2,1.4-0.6c0.3-0.5,0.5-1,0.5-1.6v-1.1c-0.2,0.4-0.5,0.6-0.8,0.8c-1,0.6-2.3,0.4-3.1-0.5c-0.5-0.6-0.8-1.3-0.8-2.1
		c0-0.8,0.2-1.5,0.8-2.1c0.5-0.5,1.2-0.8,1.9-0.8c0.4,0,0.8,0.1,1.2,0.3c0.4,0.2,0.6,0.5,0.8,0.9L21.2,61.4z M19.4,66.2
		c0.5,0,1-0.2,1.3-0.6c0.7-0.8,0.7-2,0-2.8c-0.3-0.4-0.8-0.6-1.3-0.6c-0.5,0-1,0.2-1.3,0.6c-0.4,0.4-0.6,0.9-0.5,1.4
		c0,0.5,0.2,1.1,0.6,1.4C18.4,66,18.9,66.2,19.4,66.2L19.4,66.2z"/>
	<path id="Trazado_103074" d="M25.7,67.4c-0.5,0-0.9-0.1-1.3-0.4c-0.3-0.3-0.5-0.7-0.5-1.2c0-0.3,0-0.5,0.2-0.8
		c0.1-0.2,0.3-0.4,0.5-0.5c0.2-0.1,0.4-0.3,0.7-0.3c0.3-0.1,0.6-0.2,0.9-0.2l0.9-0.2c0.3-0.1,0.5-0.2,0.5-0.5c0-0.3-0.1-0.7-0.4-0.9
		c-0.3-0.2-0.6-0.3-0.9-0.3c-0.3,0-0.6,0.1-0.9,0.3c-0.3,0.2-0.4,0.5-0.4,0.8L24,63c0.1-0.5,0.3-1,0.8-1.2c0.5-0.3,1-0.4,1.6-0.4
		c0.3,0,0.6,0,0.8,0.1c0.3,0.1,0.5,0.2,0.7,0.3c0.2,0.2,0.4,0.4,0.5,0.6c0.1,0.3,0.2,0.6,0.2,1v2.4c0,0.2,0,0.4,0.1,0.6
		c0.1,0.1,0.3,0.2,0.5,0.2h0.1v0.8h-0.6c-0.5,0.1-1-0.3-1.1-0.8h0C27.1,67.1,26.4,67.4,25.7,67.4z M25.9,66.5c0.5,0,0.9-0.2,1.2-0.6
		c0.3-0.4,0.5-1,0.5-1.5l-1.5,0.3c-0.3,0-0.6,0.1-0.9,0.3c-0.4,0.3-0.4,0.8-0.1,1.2c0,0,0,0.1,0.1,0.1
		C25.4,66.5,25.6,66.6,25.9,66.5L25.9,66.5z"/>
	<path id="Trazado_103075" d="M33.4,61.3c0.5,0,1.1,0.2,1.5,0.5c0.4,0.4,0.6,1,0.5,1.5v3.9h-1v-3.7c0-0.4-0.1-0.8-0.4-1
		c-0.2-0.2-0.6-0.4-0.9-0.3c-0.4,0-0.8,0.1-1,0.4c-0.3,0.3-0.4,0.8-0.4,1.2v3.5h-1v-5.8h1v0.8C32.1,61.6,32.7,61.3,33.4,61.3z"/>
	<path id="Trazado_103076" d="M39.2,67.2c-0.4,0-0.8-0.1-1.1-0.4c-0.3-0.3-0.4-0.7-0.4-1.2v-3.4h-1.2v-0.8h0.4c0.2,0,0.5,0,0.6-0.2
		c0.1-0.2,0.2-0.4,0.2-0.7v-1.1h1v1.9h1.3v0.8h-1.3v3.3c0,0.2,0.1,0.5,0.2,0.6c0.2,0.2,0.4,0.2,0.6,0.2h0.5v0.8L39.2,67.2z"/>
	<path id="Trazado_103077" d="M46.5,64.2v0.3H42c0,0.6,0.2,1.1,0.6,1.5c0.6,0.6,1.5,0.7,2.3,0.2c0.3-0.2,0.5-0.4,0.7-0.8l0.9,0.2
		c-0.2,0.5-0.5,0.9-1,1.2c-0.4,0.3-1,0.5-1.5,0.5c-0.8,0-1.5-0.3-2.1-0.8c-1.1-1.3-1.1-3.1,0-4.4c0.5-0.5,1.3-0.8,2.1-0.8
		c0.7,0,1.4,0.2,2,0.8C46.3,62.7,46.6,63.4,46.5,64.2z M43.9,62.1c-0.4,0-0.9,0.1-1.2,0.4c-0.3,0.3-0.6,0.7-0.6,1.2h3.5
		c0-0.5-0.2-0.9-0.5-1.2C44.7,62.2,44.3,62.1,43.9,62.1L43.9,62.1z"/>
</g>
<g id="Grupo_57744" transform="translate(242.438 88.287)">
	<path id="Trazado_103078" d="M3.6,0.4c0.7,0,1.5,0.2,2,0.8c0.5,0.5,0.8,1.2,0.8,2c0,0.7-0.2,1.4-0.8,2C5,5.6,4.3,5.9,3.6,5.8H1.8v3
		H0V0.4L3.6,0.4z M3.3,4.4c0.4,0,0.7-0.1,1-0.3c0.2-0.3,0.3-0.6,0.3-0.9c0-0.3-0.1-0.7-0.3-0.9C4,2,3.6,1.9,3.3,1.9H1.7v2.5L3.3,4.4
		z"/>
	<path id="Trazado_103079" d="M10.2,9.1C9.6,9.1,9,9,8.4,8.7C8,8.5,7.5,8.1,7.3,7.6C7,7.1,6.8,6.5,6.8,5.9c0-0.9,0.3-1.7,0.9-2.3
		c1.4-1.1,3.4-1.1,4.8,0c1.2,1.3,1.2,3.3,0,4.6C11.9,8.8,11,9.1,10.2,9.1z M10.2,7.7c0.5,0,0.9-0.2,1.2-0.5c0.3-0.4,0.5-0.8,0.5-1.3
		c0-0.5-0.1-1-0.5-1.3c-0.3-0.3-0.7-0.5-1.2-0.5C9.7,4.1,9.3,4.3,9,4.6C8.4,5.4,8.4,6.4,9,7.2C9.3,7.5,9.7,7.7,10.2,7.7L10.2,7.7z"
		/>
	<path id="Trazado_103080" d="M16.9,9.1c-0.6,0-1.2-0.1-1.8-0.4c-0.5-0.3-0.8-0.7-0.9-1.3L15.7,7c0.1,0.6,0.6,1,1.2,0.9
		c0.2,0,0.4,0,0.6-0.1c0.2-0.1,0.3-0.3,0.2-0.5c0-0.1,0-0.2-0.1-0.3c-0.1-0.1-0.2-0.2-0.3-0.2l-0.4-0.2l-0.5-0.2
		c-0.2,0-0.4-0.1-0.6-0.2c-0.2-0.1-0.4-0.1-0.5-0.2c-0.2-0.1-0.3-0.2-0.4-0.3c-0.1-0.1-0.3-0.3-0.3-0.5c-0.1-0.2-0.1-0.4-0.1-0.7
		c0-0.5,0.2-1.1,0.7-1.4c0.5-0.3,1.1-0.5,1.7-0.5c0.6,0,1.1,0.1,1.6,0.4c0.4,0.3,0.7,0.7,0.8,1.2l-1.3,0.3c-0.1-0.5-0.6-0.8-1.1-0.8
		c-0.2,0-0.4,0-0.6,0.1C16,4.2,15.9,4.4,16,4.6c0,0.1,0.1,0.1,0.1,0.1l0.2,0.1c0.1,0,0.2,0.1,0.2,0.1c0.1,0,0.2,0.1,0.3,0.1l0.3,0.1
		l0.3,0.1c0.2,0,0.4,0.1,0.6,0.2c0.2,0.1,0.4,0.2,0.5,0.2C18.7,5.8,18.9,5.9,19,6c0.1,0.2,0.2,0.3,0.3,0.5c0.1,0.2,0.1,0.4,0.1,0.7
		c0,0.3-0.1,0.6-0.2,0.9c-0.1,0.2-0.3,0.5-0.6,0.6c-0.2,0.1-0.5,0.3-0.8,0.3C17.6,9.1,17.2,9.1,16.9,9.1z"/>
	<path id="Trazado_103081" d="M21.5,2c-0.5,0-1-0.4-1-1c0-0.3,0.1-0.5,0.3-0.7C21,0.1,21.2,0,21.5,0c0.5,0,0.9,0.5,0.9,1.1
		C22.4,1.5,22,1.9,21.5,2L21.5,2z M20.6,9V2.9h1.7V9H20.6z"/>
	<path id="Trazado_103082" d="M26.4,9c-0.5,0-1-0.1-1.4-0.5c-0.3-0.4-0.5-0.9-0.5-1.4V4.2h-1.2V2.9h0.4c0.3,0,0.6-0.1,0.8-0.3
		c0.2-0.3,0.3-0.6,0.2-0.9V0.9h1.5v2h1.3v1.3h-1.3v2.7c0,0.5,0.2,0.8,0.7,0.8h0.6v1.3L26.4,9z"/>
	<path id="Trazado_103083" d="M29.7,2c-0.3,0-0.5-0.1-0.7-0.3c-0.2-0.2-0.3-0.4-0.3-0.7c0-0.3,0.1-0.5,0.3-0.7
		C29.2,0.1,29.4,0,29.7,0c0.3,0,0.5,0.1,0.7,0.3c0.4,0.4,0.4,1,0,1.4c0,0,0,0,0,0C30.2,1.9,30,2,29.7,2z M28.8,9V2.9h1.7V9H28.8z"/>
	<path id="Trazado_103084" d="M36.3,2.9h1.8l-2.6,6.1H34l-2.6-6.1h1.8L34.7,7L36.3,2.9z"/>
	<path id="Trazado_103085" d="M41.6,9.1c-0.6,0-1.2-0.1-1.7-0.4c-0.5-0.2-0.9-0.6-1.2-1.1c-0.3-0.5-0.4-1.1-0.4-1.7
		c0-0.9,0.3-1.7,0.9-2.3c1.4-1.1,3.4-1.1,4.8,0c1.2,1.3,1.2,3.3,0,4.6C43.3,8.8,42.4,9.1,41.6,9.1z M41.6,7.7c0.5,0,0.9-0.2,1.2-0.5
		c0.3-0.4,0.5-0.8,0.5-1.3c0-0.5-0.1-1-0.5-1.3c-0.3-0.3-0.7-0.5-1.2-0.5c-0.4,0-0.9,0.2-1.2,0.5c-0.6,0.8-0.6,1.9,0,2.6
		C40.7,7.5,41.1,7.7,41.6,7.7L41.6,7.7z"/>
</g>
<g id="Grupo_57745" transform="translate(327.385 114.293)">
	<path id="Trazado_103086" d="M4.5,8.7C4,8.7,3.4,8.6,2.9,8.4C2.4,8.2,2,7.9,1.6,7.5C1.2,7.1,0.9,6.7,0.7,6.2C0.3,5,0.3,3.8,0.7,2.6
		c0.2-0.5,0.5-1,0.9-1.4C2,0.9,2.4,0.6,2.9,0.4C3.9,0,5.1,0,6.2,0.4c1,0.4,1.8,1.2,2.2,2.2c0.2,0.6,0.3,1.2,0.3,1.8
		c0,0.6-0.1,1.2-0.3,1.8c-0.2,0.5-0.5,1-0.9,1.4C7.1,7.9,6.6,8.2,6.2,8.4C5.6,8.6,5.1,8.7,4.5,8.7z M4.5,7.7c0.8,0,1.6-0.3,2.2-0.9
		c0.6-0.6,0.9-1.5,0.9-2.4c0-0.5-0.1-0.9-0.2-1.4C7.2,2.6,7,2.3,6.7,2c-0.3-0.3-0.6-0.5-1-0.6C5.4,1.2,4.9,1.1,4.5,1.1
		c-0.4,0-0.8,0.1-1.2,0.2C3,1.5,2.6,1.7,2.3,2C2,2.3,1.8,2.6,1.7,3C1.5,3.4,1.4,3.9,1.4,4.4c0,0.5,0.1,1,0.2,1.4
		c0.1,0.4,0.4,0.7,0.7,1c0.3,0.3,0.6,0.5,1,0.6C3.7,7.6,4.1,7.7,4.5,7.7L4.5,7.7z"/>
	<path id="Trazado_103087" d="M13.5,2.6c0.4,0,0.7,0.1,1.1,0.2c0.3,0.1,0.6,0.3,0.9,0.6c0.3,0.3,0.5,0.6,0.6,1
		c0.1,0.4,0.2,0.8,0.2,1.3c0,0.8-0.2,1.6-0.8,2.2c-0.5,0.5-1.2,0.9-1.9,0.8c-0.4,0-0.8-0.1-1.2-0.3c-0.4-0.2-0.6-0.5-0.8-0.9v4h-1
		V2.7h1v1.1c0.2-0.4,0.5-0.7,0.8-0.9C12.7,2.7,13.1,2.6,13.5,2.6L13.5,2.6z M13.3,7.8c0.5,0,1-0.2,1.3-0.6c0.7-0.9,0.7-2.2,0-3.1
		c-0.3-0.4-0.8-0.6-1.3-0.6c-0.5,0-1,0.2-1.4,0.6c-0.7,0.9-0.7,2.1,0,3C12.3,7.6,12.8,7.8,13.3,7.8L13.3,7.8z"/>
	<path id="Trazado_103088" d="M18.8,3.8C19,3.4,19.3,3.2,19.6,3c0.3-0.2,0.7-0.3,1.1-0.3v1c-0.5,0-1,0.1-1.3,0.4
		C19,4.5,18.8,5,18.9,5.5v3.1h-1V2.8h1V3.8z"/>
	<path id="Trazado_103089" d="M26.9,5.5v0.3h-4.5c0,0.6,0.2,1.1,0.6,1.5c0.4,0.3,0.8,0.5,1.3,0.5c0.3,0,0.7-0.1,1-0.3
		c0.3-0.2,0.5-0.4,0.7-0.8L26.8,7c-0.2,0.5-0.5,0.9-1,1.2c-0.4,0.3-1,0.5-1.5,0.5c-0.8,0-1.5-0.3-2.1-0.8c-1.1-1.3-1.1-3.1,0-4.4
		c0.5-0.5,1.3-0.8,2.1-0.8c0.7,0,1.4,0.2,2,0.8C26.7,4,26.9,4.8,26.9,5.5z M24.2,3.4c-0.4,0-0.9,0.1-1.2,0.4
		c-0.3,0.3-0.6,0.7-0.6,1.2h3.5c0-0.5-0.2-0.9-0.5-1.2C25.1,3.5,24.6,3.4,24.2,3.4L24.2,3.4z"/>
	<path id="Trazado_103090" d="M30.3,8.7c-0.6,0-1.1-0.1-1.6-0.4C28.4,8,28.1,7.5,28,7.1l0.9-0.3c0,0.3,0.2,0.6,0.5,0.8
		c0.3,0.2,0.6,0.3,1,0.3c0.2,0,0.4,0,0.6-0.1c0.2-0.1,0.3-0.2,0.4-0.3c0.1-0.1,0.2-0.3,0.2-0.5c0-0.1,0-0.2,0-0.2
		c0-0.1-0.1-0.1-0.1-0.2c0-0.1-0.1-0.1-0.2-0.2c-0.1-0.1-0.3-0.2-0.5-0.2l-0.3-0.1L30.1,6l-0.3-0.1c-0.2-0.1-0.4-0.1-0.6-0.2
		c-0.2-0.1-0.3-0.2-0.5-0.3c-0.2-0.1-0.3-0.3-0.4-0.5c-0.1-0.2-0.1-0.4-0.1-0.7c0-0.3,0.1-0.7,0.3-0.9c0.2-0.3,0.5-0.4,0.8-0.6
		c0.3-0.1,0.7-0.2,1-0.2c0.5,0,1,0.1,1.4,0.4c0.4,0.3,0.6,0.7,0.7,1.1l-0.8,0.2c0-0.3-0.2-0.6-0.4-0.8c-0.2-0.2-0.5-0.3-0.8-0.2
		c-0.3,0-0.5,0.1-0.8,0.2c-0.2,0.1-0.3,0.4-0.3,0.6c0,0.1,0,0.2,0.1,0.3c0.1,0.2,0.3,0.3,0.5,0.4C29.9,5,30,5,30.1,5l0.4,0.1h0.1
		l0.6,0.2c0.2,0.1,0.3,0.1,0.5,0.2c0.2,0.1,0.3,0.2,0.5,0.3c0.3,0.3,0.4,0.7,0.4,1.1c0,0.3-0.1,0.5-0.2,0.8
		c-0.1,0.2-0.3,0.4-0.5,0.5c-0.2,0.1-0.4,0.2-0.7,0.3C30.9,8.6,30.6,8.6,30.3,8.7L30.3,8.7z"/>
	<path id="Trazado_103091" d="M34.6,1.4c-0.2,0-0.4-0.1-0.5-0.2c-0.1-0.1-0.2-0.3-0.2-0.5c0-0.2,0.1-0.4,0.2-0.5
		C34.3,0.1,34.4,0,34.6,0c0.2,0,0.4,0.1,0.5,0.2c0.1,0.1,0.2,0.3,0.2,0.5C35.3,1.1,35,1.4,34.6,1.4L34.6,1.4z M34.1,8.6V2.7h1v5.8
		H34.1z"/>
	<path id="Trazado_103092" d="M40.8,2.7h1.1l-2.4,5.8h-0.9l-2.4-5.8h1.1l1.7,4.6L40.8,2.7z"/>
	<path id="Trazado_103093" d="M45.4,8.7c-0.5,0-1.1-0.1-1.5-0.4c-0.4-0.2-0.8-0.6-1.1-1.1c-0.3-0.5-0.4-1-0.4-1.6
		c0-0.8,0.3-1.6,0.8-2.2c1.2-1.1,3-1.1,4.2,0C48,4,48.3,4.8,48.3,5.6c0,0.8-0.3,1.6-0.8,2.2C46.9,8.4,46.1,8.7,45.4,8.7L45.4,8.7z
		 M45.4,7.8c0.5,0,1-0.2,1.4-0.6c0.4-0.4,0.6-1,0.5-1.6c0-0.6-0.2-1.1-0.5-1.6c-0.3-0.4-0.9-0.6-1.4-0.6c-0.5,0-1,0.2-1.4,0.6
		c-0.4,0.4-0.6,1-0.5,1.6c0,0.6,0.2,1.1,0.5,1.6C44.3,7.6,44.8,7.8,45.4,7.8L45.4,7.8z"/>
	<path id="Trazado_103094" d="M5.5,15.7H2v2.7h3v1H2v3.7H1v-8.3h4.5L5.5,15.7z"/>
	<path id="Trazado_103095" d="M8,18.3c0.2-0.3,0.4-0.6,0.8-0.8c0.3-0.2,0.7-0.3,1.1-0.3v1c-0.5,0-1,0.1-1.3,0.4C8.2,19,8,19.5,8,20
		v3.1H7v-5.8h1L8,18.3z"/>
	<path id="Trazado_103096" d="M11.6,15.9c-0.4,0-0.7-0.3-0.7-0.7c0,0,0,0,0,0c0-0.2,0.1-0.4,0.2-0.5c0.1-0.1,0.3-0.2,0.5-0.2
		c0.2,0,0.4,0.1,0.5,0.2c0.1,0.1,0.2,0.3,0.2,0.5c0,0.2-0.1,0.4-0.2,0.5C11.9,15.8,11.7,15.9,11.6,15.9L11.6,15.9z M11,23.1v-5.8h1
		v5.8H11z"/>
	<path id="Trazado_103097" d="M16.6,23.2c-0.5,0-1.1-0.1-1.5-0.4c-0.4-0.2-0.8-0.6-1-1.1c-0.3-0.5-0.4-1-0.4-1.6
		c0-0.8,0.3-1.6,0.8-2.2c1.2-1.1,3-1.1,4.2,0c1.1,1.3,1.1,3.1,0,4.4C18.1,22.9,17.4,23.2,16.6,23.2L16.6,23.2z M16.6,22.4
		c0.5,0,1-0.2,1.4-0.6c0.4-0.4,0.6-1,0.5-1.6c0-0.6-0.2-1.1-0.5-1.6c-0.7-0.8-1.9-0.8-2.6-0.1c0,0-0.1,0.1-0.1,0.1
		c-0.7,0.9-0.7,2.2,0,3.1C15.6,22.2,16.1,22.4,16.6,22.4L16.6,22.4z"/>
	<path id="Trazado_103098" d="M6.3,37.6l-0.7-2H1.8l-0.7,2H0l3.1-8.3h1.3l3.1,8.3L6.3,37.6z M2.2,34.7h3.1l-1.6-4.4L2.2,34.7z"/>
	<path id="Trazado_103099" d="M14.8,31.7c0.5,0,1,0.2,1.4,0.5c0.4,0.4,0.5,0.9,0.5,1.4v4h-1v-3.8c0-0.4-0.1-0.7-0.3-1
		c-0.2-0.2-0.5-0.3-0.8-0.3c-0.3,0-0.7,0.1-0.9,0.4c-0.2,0.3-0.4,0.7-0.3,1.1v3.6h-1v-3.7c0-0.4-0.1-0.7-0.3-1
		c-0.2-0.2-0.5-0.3-0.8-0.3c-0.3,0-0.7,0.1-0.9,0.4c-0.2,0.3-0.4,0.7-0.3,1.1v3.6h-1v-5.8h1v0.8c0.2-0.3,0.4-0.5,0.7-0.6
		c0.3-0.2,0.6-0.2,0.9-0.2c0.3,0,0.7,0.1,1,0.2c0.3,0.2,0.5,0.4,0.6,0.7c0.2-0.3,0.4-0.5,0.7-0.7C14.1,31.8,14.4,31.7,14.8,31.7z"/>
	<path id="Trazado_103100" d="M23.7,34.6v0.3h-4.5c0,0.6,0.2,1.1,0.6,1.5c0.4,0.3,0.8,0.5,1.3,0.5c0.3,0,0.7-0.1,1-0.3
		c0.3-0.2,0.5-0.4,0.7-0.8l0.9,0.2c-0.2,0.5-0.5,0.9-1,1.2c-0.4,0.3-1,0.5-1.5,0.5c-0.8,0-1.5-0.3-2.1-0.8c-1.1-1.3-1.1-3.1,0-4.4
		c0.5-0.5,1.3-0.8,2.1-0.8c0.7,0,1.4,0.2,2,0.8C23.5,33.1,23.8,33.9,23.7,34.6z M21,32.5c-0.4,0-0.9,0.1-1.2,0.4
		c-0.3,0.3-0.6,0.7-0.6,1.2h3.5c0-0.5-0.2-0.9-0.5-1.2C21.9,32.6,21.4,32.5,21,32.5L21,32.5z"/>
	<path id="Trazado_103101" d="M28.1,31.7c0.5,0,1.1,0.2,1.5,0.5c0.4,0.4,0.6,1,0.5,1.5v3.9h-1V34c0-0.4-0.1-0.8-0.4-1
		c-0.2-0.2-0.6-0.3-0.9-0.3c-0.4,0-0.8,0.1-1,0.4c-0.3,0.3-0.4,0.8-0.4,1.2v3.5h-1v-5.8h1v0.8C26.7,32,27.4,31.7,28.1,31.7
		L28.1,31.7z"/>
	<path id="Trazado_103102" d="M33.4,37.8c-0.5,0-0.9-0.1-1.3-0.4c-0.3-0.3-0.5-0.7-0.5-1.2c0-0.3,0-0.5,0.2-0.8
		c0.1-0.2,0.3-0.4,0.5-0.5c0.2-0.1,0.4-0.3,0.7-0.3c0.3-0.1,0.6-0.2,0.9-0.2l0.9-0.2c0.3-0.1,0.5-0.2,0.5-0.5c0-0.3-0.1-0.7-0.4-0.9
		c-0.6-0.4-1.3-0.4-1.8,0c-0.3,0.2-0.4,0.5-0.4,0.8l-0.9-0.2c0.1-0.5,0.3-1,0.8-1.2c0.5-0.3,1-0.4,1.6-0.4c0.3,0,0.6,0,0.8,0.1
		c0.3,0.1,0.5,0.2,0.7,0.3c0.2,0.2,0.4,0.4,0.5,0.6c0.1,0.3,0.2,0.6,0.2,1v2.4c0,0.2,0,0.4,0.1,0.6c0.1,0.1,0.3,0.2,0.5,0.2H37v0.8
		h-0.5c-0.6,0-1-0.3-1.1-0.8h0C34.9,37.5,34.1,37.8,33.4,37.8z M33.6,36.9c0.5,0,0.9-0.2,1.2-0.6c0.3-0.4,0.5-1,0.5-1.5l-1.5,0.3
		c-0.3,0-0.6,0.1-0.9,0.3c-0.4,0.3-0.4,0.8-0.1,1.2c0,0,0,0.1,0.1,0.1C33.1,36.9,33.4,36.9,33.6,36.9L33.6,36.9z"/>
	<path id="Trazado_103103" d="M39.2,36.8h3.1v0.8h-4.7l3-5h-2.9v-0.8h4.5L39.2,36.8z"/>
	<path id="Trazado_103104" d="M44.9,37.8c-0.5,0-0.9-0.1-1.3-0.4c-0.3-0.3-0.5-0.7-0.5-1.2c0-0.3,0-0.5,0.2-0.8
		c0.1-0.2,0.3-0.4,0.5-0.5c0.2-0.1,0.4-0.3,0.7-0.3c0.3-0.1,0.6-0.2,0.9-0.2l0.9-0.2c0.3-0.1,0.5-0.2,0.5-0.5c0-0.3-0.1-0.7-0.4-0.9
		c-0.3-0.2-0.6-0.3-0.9-0.3c-0.3,0-0.6,0.1-0.9,0.3c-0.3,0.2-0.4,0.5-0.4,0.8l-0.9-0.2c0.1-0.5,0.3-1,0.8-1.2c0.5-0.3,1-0.4,1.6-0.4
		c0.3,0,0.6,0,0.8,0.1c0.3,0.1,0.5,0.2,0.7,0.3c0.2,0.2,0.4,0.4,0.5,0.6c0.1,0.3,0.2,0.6,0.2,1v2.4c0,0.2,0,0.4,0.1,0.6
		c0.1,0.1,0.3,0.2,0.5,0.2h0.1v0.8h-0.5c-0.6,0-1-0.3-1.1-0.8h-0.1C46.3,37.5,45.6,37.8,44.9,37.8L44.9,37.8z M45.1,36.9
		c0.5,0,0.9-0.2,1.2-0.6c0.3-0.4,0.5-1,0.5-1.5l-1.5,0.3c-0.3,0-0.6,0.1-0.9,0.3c-0.4,0.3-0.4,0.8-0.1,1.2c0,0,0,0.1,0.1,0.1
		C44.6,36.9,44.8,36.9,45.1,36.9L45.1,36.9z"/>
	<path id="Trazado_103105" d="M52.6,31.7c0.5,0,1.1,0.2,1.5,0.5c0.4,0.4,0.6,1,0.6,1.5v3.9h-1V34c0-0.4-0.1-0.8-0.3-1
		c-0.2-0.2-0.6-0.3-0.9-0.3c-0.4,0-0.8,0.1-1,0.4c-0.3,0.3-0.4,0.8-0.4,1.2v3.5h-1v-5.8h1v0.8C51.3,32,51.9,31.7,52.6,31.7
		L52.6,31.7z"/>
	<path id="Trazado_103106" d="M58.4,37.6c-0.4,0-0.8-0.1-1.1-0.4c-0.3-0.3-0.4-0.7-0.4-1.2v-3.4h-1.2v-0.8h0.4c0.2,0,0.5,0,0.6-0.2
		c0.1-0.2,0.2-0.4,0.2-0.7v-1.1h1v1.9h1.3v0.8h-1.3v3.3c0,0.2,0.1,0.5,0.2,0.6c0.2,0.2,0.4,0.2,0.6,0.2h0.5v0.8L58.4,37.6z"/>
	<path id="Trazado_103107" d="M65.8,34.6v0.3h-4.5c0,0.6,0.2,1.1,0.6,1.5c0.4,0.3,0.8,0.5,1.3,0.5c0.3,0,0.7-0.1,1-0.3
		c0.3-0.2,0.5-0.4,0.7-0.8l0.9,0.2c-0.2,0.5-0.5,0.9-1,1.2c-0.4,0.3-1,0.5-1.5,0.5c-0.8,0-1.5-0.3-2.1-0.8c-1.1-1.3-1.1-3.1,0-4.4
		c0.5-0.5,1.3-0.8,2.1-0.8c0.7,0,1.4,0.2,2,0.8C65.5,33.1,65.8,33.9,65.8,34.6L65.8,34.6z M63.1,32.5c-0.4,0-0.9,0.1-1.2,0.4
		c-0.3,0.3-0.6,0.7-0.6,1.2h3.5c0-0.5-0.2-0.9-0.5-1.2C63.9,32.6,63.5,32.5,63.1,32.5L63.1,32.5z"/>
	<path id="Trazado_103108" d="M4.1,43.8c0.5,0,0.9,0.1,1.3,0.3c0.4,0.2,0.7,0.5,0.9,0.9c0.2,0.4,0.3,0.8,0.3,1.3
		c0,0.7-0.2,1.3-0.7,1.8C5.5,48.7,4.8,49,4.1,49H2v3.2H1v-8.3L4.1,43.8z M4,48c0.4,0,0.9-0.1,1.2-0.4c0.6-0.7,0.6-1.7,0-2.4
		c-0.3-0.3-0.7-0.5-1.2-0.5H2V48H4z"/>
	<path id="Trazado_103109" d="M12.8,49.2v0.3H8.2c0,0.6,0.2,1.1,0.6,1.5c0.4,0.3,0.8,0.5,1.3,0.5c0.3,0,0.7-0.1,1-0.3
		c0.3-0.2,0.5-0.4,0.7-0.8l0.9,0.2c-0.2,0.5-0.5,0.9-1,1.2c-0.4,0.3-1,0.5-1.5,0.5c-0.8,0-1.5-0.3-2.1-0.8c-1.1-1.3-1.1-3.1,0-4.4
		c0.5-0.5,1.3-0.9,2-0.9c0.7,0,1.4,0.2,2,0.8C12.6,47.6,12.8,48.4,12.8,49.2z M10.1,47c-0.4,0-0.9,0.1-1.2,0.4
		c-0.3,0.3-0.6,0.7-0.6,1.2h3.5c0-0.5-0.2-0.9-0.5-1.2C10.9,47.1,10.5,47,10.1,47L10.1,47z"/>
	<path id="Trazado_103110" d="M16.2,52.3c-0.6,0-1.1-0.1-1.6-0.4c-0.4-0.3-0.7-0.7-0.8-1.2l0.9-0.3c0,0.3,0.2,0.6,0.5,0.8
		c0.3,0.2,0.6,0.3,1,0.3c0.2,0,0.4,0,0.6-0.1c0.2-0.1,0.3-0.2,0.4-0.3c0.1-0.1,0.2-0.3,0.2-0.5c0-0.1,0-0.2,0-0.2
		c0-0.1-0.1-0.1-0.1-0.2c0-0.1-0.1-0.1-0.2-0.2l-0.2-0.1c-0.1,0-0.2-0.1-0.3-0.1l-0.3-0.1L16,49.6l-0.3-0.1
		c-0.2-0.1-0.4-0.1-0.6-0.2c-0.2-0.1-0.3-0.2-0.5-0.3c-0.2-0.1-0.3-0.3-0.4-0.5c-0.1-0.2-0.1-0.4-0.1-0.7c0-0.3,0.1-0.7,0.3-0.9
		c0.2-0.3,0.5-0.4,0.8-0.5c0.3-0.1,0.7-0.2,1-0.2c0.5,0,1,0.1,1.4,0.4c0.4,0.3,0.6,0.7,0.7,1.1L17.4,48c0-0.3-0.2-0.6-0.4-0.8
		c-0.2-0.2-0.5-0.3-0.8-0.2c-0.3,0-0.5,0.1-0.8,0.2c-0.2,0.1-0.3,0.4-0.3,0.6c0,0.1,0,0.2,0.1,0.3c0,0.1,0.1,0.2,0.2,0.2
		c0.1,0.1,0.2,0.1,0.3,0.2c0.1,0.1,0.2,0.1,0.3,0.1l0.4,0.1h0.1l0.6,0.2c0.2,0.1,0.3,0.1,0.5,0.2c0.2,0.1,0.3,0.2,0.5,0.3
		c0.1,0.1,0.2,0.3,0.3,0.4c0.1,0.2,0.1,0.4,0.1,0.6c0,0.3-0.1,0.5-0.2,0.8c-0.1,0.2-0.3,0.4-0.5,0.5c-0.2,0.1-0.4,0.2-0.7,0.3
		C16.8,52.2,16.5,52.3,16.2,52.3z"/>
	<path id="Trazado_103111" d="M21.3,52.3c-0.5,0-0.9-0.1-1.3-0.4c-0.3-0.3-0.5-0.7-0.5-1.2c0-0.3,0-0.5,0.2-0.8
		c0.1-0.2,0.3-0.4,0.5-0.5c0.2-0.1,0.4-0.3,0.7-0.3c0.3-0.1,0.6-0.2,0.9-0.2l0.9-0.2c0.3-0.1,0.5-0.2,0.5-0.5c0-0.3-0.1-0.7-0.4-0.9
		c-0.3-0.2-0.6-0.3-0.9-0.3c-0.3,0-0.6,0.1-0.9,0.3c-0.3,0.2-0.4,0.5-0.4,0.8L19.6,48c0.1-0.5,0.3-1,0.8-1.2c0.5-0.3,1-0.4,1.6-0.4
		c0.3,0,0.6,0,0.8,0.1c0.3,0.1,0.5,0.2,0.7,0.3c0.2,0.2,0.4,0.4,0.5,0.6c0.1,0.3,0.2,0.6,0.2,1v2.4c0,0.2,0,0.4,0.1,0.6
		c0.1,0.1,0.3,0.2,0.5,0.2h0.1v0.8h-0.5c-0.5,0.1-1-0.2-1.1-0.8h0C22.8,52.1,22.1,52.4,21.3,52.3z M21.5,51.5c0.5,0,0.9-0.2,1.2-0.6
		c0.3-0.4,0.5-1,0.5-1.5l-1.5,0.3c-0.3,0-0.6,0.1-0.9,0.3c-0.4,0.3-0.4,0.8-0.1,1.2c0,0,0,0.1,0.1,0.1C21,51.4,21.3,51.5,21.5,51.5
		L21.5,51.5z"/>
	<path id="Trazado_103112" d="M30.5,43.1h1v9.1h-1v-1.1c-0.2,0.4-0.5,0.7-0.8,0.9c-0.4,0.2-0.8,0.3-1.2,0.3c-0.4,0-0.7-0.1-1.1-0.2
		c-0.3-0.1-0.6-0.3-0.9-0.6c-0.3-0.3-0.5-0.6-0.6-1c-0.2-0.4-0.2-0.8-0.2-1.2c0-0.8,0.2-1.6,0.8-2.2c0.5-0.5,1.2-0.9,1.9-0.8
		c0.4,0,0.9,0.1,1.2,0.3c0.4,0.2,0.6,0.5,0.8,0.9L30.5,43.1z M28.6,51.4c0.5,0,1-0.2,1.4-0.6c0.7-0.9,0.7-2.1,0-3
		c-0.7-0.8-1.8-0.8-2.6-0.2c0,0-0.1,0.1-0.1,0.1c-0.4,0.4-0.6,1-0.6,1.6c0,0.6,0.2,1.1,0.6,1.5C27.6,51.2,28.1,51.4,28.6,51.4
		L28.6,51.4z"/>
	<path id="Trazado_103113" d="M36,52.3c-0.5,0-1.1-0.1-1.5-0.4c-0.4-0.2-0.8-0.6-1-1.1c-0.3-0.5-0.4-1.1-0.4-1.6
		c0-0.8,0.3-1.6,0.8-2.2c1.2-1.1,3-1.1,4.2,0c1.1,1.3,1.1,3.1,0,4.4C37.6,52,36.8,52.3,36,52.3z M36,51.5c0.5,0,1-0.2,1.4-0.6
		c0.7-0.9,0.7-2.2,0-3.1c-0.3-0.4-0.9-0.6-1.4-0.6c-0.5,0-1,0.2-1.4,0.6c-0.7,0.9-0.7,2.2,0,3.1C35,51.2,35.5,51.5,36,51.5L36,51.5z
		"/>
	<path id="Trazado_103114" d="M9.8,66.7h-1l-0.6-6.9l-2.7,6.9H4.9l-2.6-6.8l-0.6,6.8h-1l0.6-8.3h1.4l2.5,6.5l2.5-6.5h1.4L9.8,66.7z"
		/>
	<path id="Trazado_103115" d="M13.1,66.8c-0.5,0-0.9-0.1-1.3-0.4c-0.3-0.3-0.5-0.7-0.5-1.2c0-0.3,0-0.5,0.2-0.8
		c0.1-0.2,0.3-0.4,0.5-0.5c0.2-0.1,0.4-0.3,0.7-0.3c0.3-0.1,0.6-0.2,0.9-0.2l0.9-0.2c0.3-0.1,0.5-0.2,0.5-0.5c0-0.3-0.1-0.7-0.4-0.9
		c-0.3-0.2-0.6-0.3-0.9-0.3c-0.3,0-0.6,0.1-0.9,0.3c-0.3,0.2-0.4,0.5-0.4,0.8l-0.9-0.2c0.1-0.5,0.3-1,0.8-1.2c0.5-0.3,1-0.4,1.6-0.4
		c0.3,0,0.6,0,0.8,0.1c0.3,0.1,0.5,0.2,0.7,0.3c0.2,0.2,0.4,0.4,0.5,0.6c0.1,0.3,0.2,0.6,0.2,1v2.4c0,0.2,0,0.4,0.1,0.6
		c0.1,0.1,0.3,0.2,0.5,0.2h0.1v0.8h-0.5c-0.6,0-1-0.3-1.1-0.8h0C14.6,66.6,13.8,66.9,13.1,66.8z M13.3,66c0.5,0,0.9-0.2,1.2-0.6
		c0.3-0.4,0.5-1,0.5-1.5l-1.5,0.3c-0.3,0-0.6,0.1-0.9,0.3c-0.4,0.3-0.4,0.8-0.1,1.2c0,0,0,0.1,0.1,0.1C12.8,66,13.1,66,13.3,66
		L13.3,66z"/>
	<path id="Trazado_103116" d="M18.1,66.7v-9.1h1v9.1H18.1z"/>
	<path id="Trazado_103117" d="M26.3,63.7V64h-4.5c0,0.6,0.2,1.1,0.6,1.5c0.4,0.3,0.8,0.5,1.3,0.5c0.3,0,0.7-0.1,1-0.3
		c0.3-0.2,0.5-0.4,0.7-0.8l0.9,0.2c-0.2,0.5-0.5,0.9-1,1.2c-0.4,0.3-1,0.5-1.5,0.5c-0.8,0-1.5-0.3-2.1-0.8c-1.1-1.3-1.1-3.1,0-4.4
		c0.5-0.5,1.3-0.8,2.1-0.8c0.7,0,1.4,0.2,2,0.8C26.1,62.2,26.3,62.9,26.3,63.7z M23.6,61.6c-0.4,0-0.9,0.1-1.2,0.4
		c-0.3,0.3-0.6,0.7-0.6,1.2h3.5c0-0.5-0.2-0.9-0.5-1.2C24.4,61.7,24,61.6,23.6,61.6L23.6,61.6z"/>
	<path id="Trazado_103118" d="M31.3,60.9h1.1L30,66.7h-0.9l-2.4-5.8h1.1l1.7,4.6L31.3,60.9z"/>
	<path id="Trazado_103119" d="M35.8,66.8c-0.5,0-1.1-0.1-1.5-0.4c-0.4-0.2-0.8-0.6-1.1-1.1c-0.3-0.5-0.4-1-0.4-1.6
		c0-0.8,0.3-1.6,0.8-2.2c1.2-1.1,3-1.1,4.2,0c1.1,1.3,1.1,3.1,0,4.4C37.3,66.6,36.6,66.9,35.8,66.8z M35.8,66c0.5,0,1-0.2,1.4-0.6
		c0.4-0.4,0.6-1,0.5-1.6c0-0.6-0.2-1.1-0.5-1.6c-0.3-0.4-0.9-0.6-1.4-0.6c-0.5,0-1,0.2-1.4,0.6c-0.4,0.4-0.6,1-0.5,1.6
		c0,0.6,0.2,1.1,0.5,1.6C34.8,65.8,35.3,66,35.8,66L35.8,66z"/>
	<path id="Trazado_103120" d="M40.3,66.7v-9.1h1v9.1H40.3z"/>
	<path id="Trazado_103121" d="M45.9,66.8c-0.5,0-1.1-0.1-1.5-0.4c-0.4-0.2-0.8-0.6-1.1-1.1c-0.3-0.5-0.4-1-0.4-1.6
		c0-0.8,0.3-1.6,0.8-2.2c0.6-0.6,1.3-0.8,2.1-0.8c0.8,0,1.6,0.3,2.1,0.8c0.6,0.6,0.9,1.4,0.8,2.2c0,0.8-0.3,1.6-0.8,2.2
		C47.4,66.6,46.7,66.9,45.9,66.8z M45.9,66c0.5,0,1-0.2,1.4-0.6c0.4-0.4,0.6-1,0.6-1.6c0-0.6-0.2-1.1-0.6-1.6
		c-0.3-0.4-0.8-0.6-1.4-0.6c-0.5,0-1,0.2-1.4,0.6c-0.4,0.4-0.6,1-0.5,1.6c0,0.6,0.2,1.1,0.5,1.6C44.9,65.8,45.4,66,45.9,66z"/>
</g>
<g id="Grupo_57746" transform="translate(328.127 88.287)">
	<path id="Trazado_103122" d="M5.8,0.4h1.8V9H5.6L1.8,2.8V9H0V0.4h2.1l3.8,6.1L5.8,0.4z"/>
	<path id="Trazado_103123" d="M15.3,5.8v0.4h-4.5c0,0.4,0.2,0.8,0.5,1.1c0.5,0.4,1.3,0.5,1.9,0.2c0.2-0.1,0.4-0.4,0.5-0.6l1.6,0.2
		c-0.2,0.6-0.6,1.1-1.1,1.4c-0.5,0.3-1.2,0.5-1.8,0.5c-0.9,0-1.7-0.3-2.4-0.8C9.3,7.6,9,6.8,9.1,5.9C9,5,9.4,4.2,10,3.6
		c0.6-0.6,1.5-0.9,2.3-0.8c1.5-0.1,2.9,1,3,2.5C15.3,5.4,15.3,5.6,15.3,5.8L15.3,5.8z M12.3,3.9c-0.7-0.1-1.4,0.4-1.5,1.2h2.8
		c0-0.3-0.2-0.6-0.4-0.9C12.9,4,12.6,3.9,12.3,3.9L12.3,3.9z"/>
	<path id="Trazado_103124" d="M20.8,2.9h1.6v5.6c0,0.5-0.1,1-0.2,1.5c-0.1,0.4-0.4,0.8-0.7,1c-0.3,0.3-0.6,0.5-1,0.6
		c-0.4,0.1-0.9,0.2-1.3,0.2c-1.4,0.2-2.6-0.6-3.1-1.9l1.4-0.6c0.1,0.3,0.4,0.7,0.7,0.9c0.3,0.2,0.6,0.3,1,0.3c1.1,0,1.6-0.6,1.6-1.9
		V7.9c-0.2,0.3-0.5,0.5-0.8,0.6c-0.3,0.2-0.7,0.2-1.1,0.2c-0.4,0-0.7-0.1-1.1-0.2c-0.3-0.1-0.6-0.3-0.9-0.6c-0.3-0.3-0.5-0.6-0.6-1
		c-0.3-0.8-0.3-1.7,0-2.5c0.1-0.4,0.3-0.7,0.6-0.9c0.3-0.3,0.6-0.5,0.9-0.6c0.3-0.1,0.7-0.2,1.1-0.2c0.4,0,0.8,0.1,1.1,0.3
		c0.3,0.1,0.6,0.4,0.8,0.7L20.8,2.9z M18.2,6.9c0.3,0.3,0.7,0.5,1.1,0.5c0.4,0,0.8-0.2,1.1-0.5c0.6-0.7,0.6-1.7,0-2.3
		c-0.6-0.6-1.6-0.6-2.2,0c0,0,0,0,0,0c-0.3,0.3-0.5,0.7-0.4,1.2C17.7,6.2,17.9,6.6,18.2,6.9z"/>
	<path id="Trazado_103125" d="M29.2,7.3c0,0.5,0,1,0.1,1.5V9h-1.6l-0.1-0.7c-0.2,0.3-0.5,0.5-0.8,0.6C26.4,9,26,9.1,25.6,9.1
		c-0.2,0-0.4,0-0.6-0.1c-0.2,0-0.3-0.1-0.5-0.2c-0.2-0.1-0.3-0.2-0.4-0.3c-0.1-0.1-0.2-0.3-0.3-0.5c-0.1-0.2-0.1-0.4-0.1-0.7
		c0-0.2,0-0.4,0.1-0.7c0.1-0.2,0.2-0.3,0.3-0.5c0.1-0.1,0.3-0.3,0.5-0.4c0.2-0.1,0.4-0.2,0.6-0.3c0.2-0.1,0.5-0.1,0.8-0.2l1-0.2
		c0.2,0,0.3-0.1,0.4-0.2c0.1-0.1,0.1-0.2,0.1-0.3c0-0.2-0.1-0.5-0.3-0.6C27,4,26.8,4,26.5,4c-0.6-0.1-1.1,0.3-1.2,0.9c0,0,0,0,0,0
		l-1.5-0.3c0.1-0.6,0.4-1.1,0.9-1.4c0.6-0.3,1.2-0.5,1.9-0.4c1.7,0,2.6,0.7,2.6,2.2L29.2,7.3z M26.1,7.9c0.4,0,0.8-0.1,1.1-0.4
		c0.3-0.4,0.4-0.8,0.4-1.3l-1.4,0.4c-0.2,0-0.4,0.1-0.6,0.2c-0.1,0.1-0.2,0.3-0.2,0.4c0,0.2,0.1,0.4,0.2,0.5
		C25.7,7.9,26,7.9,26.1,7.9L26.1,7.9z"/>
	<path id="Trazado_103126" d="M33,9c-0.5,0-1-0.1-1.4-0.5c-0.3-0.4-0.5-0.9-0.5-1.4V4.2H30V2.9h0.4c0.3,0,0.6-0.1,0.8-0.3
		c0.2-0.3,0.3-0.6,0.2-0.9V0.9h1.5v2h1.2v1.3h-1.2v2.7c0,0.5,0.2,0.8,0.7,0.8h0.5v1.3L33,9z"/>
	<path id="Trazado_103127" d="M36.3,2c-0.3,0-0.5-0.1-0.7-0.3c-0.2-0.2-0.3-0.4-0.3-0.7c0-0.3,0.1-0.5,0.3-0.7c0.4-0.4,1-0.4,1.4,0
		s0.4,1,0,1.4C36.8,1.9,36.6,2,36.3,2z M35.5,9V2.9h1.7V9H35.5z"/>
	<path id="Trazado_103128" d="M42.9,2.9h1.8l-2.6,6.1h-1.5L38,2.9h1.8L41.3,7L42.9,2.9z"/>
	<path id="Trazado_103129" d="M48.2,9.1c-0.6,0-1.2-0.1-1.7-0.4c-0.5-0.2-0.9-0.6-1.2-1.1c-0.3-0.5-0.4-1.1-0.4-1.7
		c0-0.9,0.3-1.7,0.9-2.3c1.4-1.1,3.4-1.1,4.8,0c1.2,1.3,1.2,3.3,0,4.6C49.9,8.8,49.1,9.1,48.2,9.1L48.2,9.1z M48.2,7.7
		c0.5,0,0.9-0.2,1.2-0.5c0.3-0.4,0.5-0.8,0.5-1.3c0-0.5-0.1-1-0.5-1.3c-0.3-0.3-0.7-0.5-1.2-0.5c-0.4,0-0.9,0.2-1.2,0.5
		c-0.6,0.8-0.6,1.8,0,2.6C47.3,7.5,47.7,7.7,48.2,7.7L48.2,7.7z"/>
</g>
<polygon points="350.7,174.7 352.2,172.8 352.7,173.2 351.4,174.7 "/>
</svg>
