<svg xmlns="http://www.w3.org/2000/svg" width="295" height="57" viewBox="0 0 295 57">
  <g id="Grupo_71069" data-name="Grupo 71069" transform="translate(-12379 5614)">
    <g id="Grupo_71067" data-name="Grupo 71067" transform="translate(0 328)">
      <g id="Grupo_71064" data-name="Grupo 71064" transform="translate(11569 -11700)">
        <rect id="Rectángulo_11547" data-name="Rectángulo 11547" width="295" height="57" transform="translate(810 5758)" fill="none"/>
      </g>
    </g>
    <g id="Grupo_71068" data-name="Grupo 71068" transform="translate(-2.963)">
      <path id="Trazado_158045" data-name="Trazado 158045" d="M768.473,194.278a1.833,1.833,0,0,1-1.833-1.833v-7.334a1.833,1.833,0,1,1,3.667,0v7.334a1.834,1.834,0,0,1-1.833,1.833" transform="translate(11717.323 -5774.277)" fill="#edc596"/>
      <path id="Trazado_158046" data-name="Trazado 158046" d="M791.062,188.337a1.833,1.833,0,0,1-1.833-1.833V168.168a1.833,1.833,0,1,1,3.667,0V186.5a1.833,1.833,0,0,1-1.833,1.833" transform="translate(11702.067 -5763.335)" fill="#edc596"/>
      <path id="Trazado_158047" data-name="Trazado 158047" d="M881.417,188.337a1.833,1.833,0,0,1-1.833-1.833V168.168a1.833,1.833,0,1,1,3.667,0V186.5a1.833,1.833,0,0,1-1.833,1.833" transform="translate(11641.048 -5763.335)" fill="#edc596"/>
      <path id="Trazado_158048" data-name="Trazado 158048" d="M813.651,180.416a1.833,1.833,0,0,1-1.833-1.833v-33a1.833,1.833,0,1,1,3.667,0v33A1.833,1.833,0,0,1,813.651,180.416Z" transform="translate(11686.814 -5747.746)" fill="#edc596"/>
      <path id="Trazado_158049" data-name="Trazado 158049" d="M904.007,180.416a1.834,1.834,0,0,1-1.833-1.833v-33a1.833,1.833,0,1,1,3.667,0v33A1.833,1.833,0,0,1,904.007,180.416Z" transform="translate(11625.793 -5747.746)" fill="#edc596"/>
      <path id="Trazado_158050" data-name="Trazado 158050" d="M836.24,188.337a1.834,1.834,0,0,1-1.833-1.833V168.168a1.833,1.833,0,0,1,3.667,0V186.5a1.833,1.833,0,0,1-1.833,1.833" transform="translate(11671.559 -5763.335)" fill="#edc596"/>
      <path id="Trazado_158051" data-name="Trazado 158051" d="M858.829,194.278A1.834,1.834,0,0,1,857,192.445v-7.334a1.833,1.833,0,1,1,3.667,0v7.334a1.834,1.834,0,0,1-1.833,1.833" transform="translate(11656.303 -5774.277)" fill="#edc596"/>
      <path id="Trazado_158052" data-name="Trazado 158052" d="M971.774,188.337a1.834,1.834,0,0,1-1.834-1.833V168.168a1.833,1.833,0,0,1,3.667,0V186.5a1.833,1.833,0,0,1-1.833,1.833" transform="translate(11580.028 -5763.335)" fill="#edc596"/>
      <path id="Trazado_158053" data-name="Trazado 158053" d="M949.184,180.416a1.834,1.834,0,0,1-1.833-1.833v-33a1.833,1.833,0,1,1,3.667,0v33A1.833,1.833,0,0,1,949.184,180.416Z" transform="translate(11595.284 -5747.746)" fill="#edc596"/>
      <path id="Trazado_158054" data-name="Trazado 158054" d="M926.6,170.515a1.834,1.834,0,0,1-1.833-1.833V117.344a1.833,1.833,0,1,1,3.667,0v51.338a1.834,1.834,0,0,1-1.833,1.833" transform="translate(11610.537 -5728.51)" fill="#edc596"/>
      <path id="Trazado_158055" data-name="Trazado 158055" d="M994.363,180.416a1.834,1.834,0,0,1-1.833-1.833v-33a1.833,1.833,0,1,1,3.667,0v33A1.833,1.833,0,0,1,994.363,180.416Z" transform="translate(11564.772 -5747.746)" fill="#edc596"/>
      <path id="Trazado_158056" data-name="Trazado 158056" d="M1016.951,188.337a1.833,1.833,0,0,1-1.833-1.833V168.168a1.833,1.833,0,0,1,3.667,0V186.5a1.834,1.834,0,0,1-1.833,1.833" transform="translate(11549.518 -5763.335)" fill="#edc596"/>
      <path id="Trazado_158057" data-name="Trazado 158057" d="M1039.54,194.278a1.833,1.833,0,0,1-1.833-1.833v-7.334a1.833,1.833,0,1,1,3.667,0v7.334a1.833,1.833,0,0,1-1.833,1.833" transform="translate(11534.263 -5774.277)" fill="#edc596"/>
    </g>
  </g>
</svg>
