<svg id="Grupo_71066" data-name="Grupo 71066" xmlns="http://www.w3.org/2000/svg" width="295" height="57" viewBox="0 0 295 57">
  <g id="Grupo_71064" data-name="Grupo 71064">
    <rect id="Rectángulo_11547" data-name="Rectángulo 11547" width="295" height="57" fill="none"/>
  </g>
  <g id="Grupo_71065" data-name="Grupo 71065" transform="translate(105.249 1)">
    <rect id="Rectángulo_11550" data-name="Rectángulo 11550" width="12.046" height="5.658" transform="translate(0 49.379)" fill="#edc596"/>
    <rect id="Rectángulo_11551" data-name="Rectángulo 11551" width="12.045" height="5.658" transform="translate(14.402 49.379)" fill="#edc596"/>
    <rect id="Rectángulo_11552" data-name="Rectángulo 11552" width="12.045" height="5.658" transform="translate(14.402 41.148)" fill="#edc596"/>
    <rect id="Rectángulo_11553" data-name="Rectángulo 11553" width="12.045" height="5.658" transform="translate(14.402 32.919)" fill="#edc596"/>
    <rect id="Rectángulo_11554" data-name="Rectángulo 11554" width="12.045" height="5.658" transform="translate(14.402 24.689)" fill="#edc596"/>
    <rect id="Rectángulo_11555" data-name="Rectángulo 11555" width="12.046" height="5.658" transform="translate(28.804 49.379)" fill="#edc596"/>
    <rect id="Rectángulo_11556" data-name="Rectángulo 11556" width="12.046" height="5.658" transform="translate(28.804 41.148)" fill="#edc596"/>
    <rect id="Rectángulo_11557" data-name="Rectángulo 11557" width="12.046" height="5.658" transform="translate(28.804 32.919)" fill="#edc596"/>
    <rect id="Rectángulo_11558" data-name="Rectángulo 11558" width="12.046" height="5.658" transform="translate(28.804 24.689)" fill="#edc596"/>
    <rect id="Rectángulo_11559" data-name="Rectángulo 11559" width="12.046" height="5.658" transform="translate(28.804 16.459)" fill="#edc596"/>
    <rect id="Rectángulo_11560" data-name="Rectángulo 11560" width="12.046" height="5.658" transform="translate(28.804 8.229)" fill="#edc596"/>
    <rect id="Rectángulo_11561" data-name="Rectángulo 11561" width="12.046" height="5.658" transform="translate(28.804)" fill="#edc596"/>
    <rect id="Rectángulo_11562" data-name="Rectángulo 11562" width="12.045" height="5.658" transform="translate(72.011 49.379)" fill="#edc596"/>
    <rect id="Rectángulo_11563" data-name="Rectángulo 11563" width="12.046" height="5.658" transform="translate(57.608 49.379)" fill="#edc596"/>
    <rect id="Rectángulo_11564" data-name="Rectángulo 11564" width="12.046" height="5.658" transform="translate(57.608 41.148)" fill="#edc596"/>
    <rect id="Rectángulo_11565" data-name="Rectángulo 11565" width="12.046" height="5.658" transform="translate(57.608 32.919)" fill="#edc596"/>
    <rect id="Rectángulo_11566" data-name="Rectángulo 11566" width="12.046" height="5.658" transform="translate(43.206 49.379)" fill="#edc596"/>
    <rect id="Rectángulo_11567" data-name="Rectángulo 11567" width="12.046" height="5.658" transform="translate(43.206 41.148)" fill="#edc596"/>
  </g>
</svg>
