<svg xmlns="http://www.w3.org/2000/svg" xmlns:xlink="http://www.w3.org/1999/xlink" width="1030" height="191.812" viewBox="0 0 1030 191.812">
  <defs>
    <clipPath id="clip-path">
      <rect id="Rectángulo_11270" data-name="Rectángulo 11270" width="1030" height="119.807" fill="#d44f4a"/>
    </clipPath>
    <clipPath id="clip-path-2">
      <rect id="Rectángulo_11512" data-name="Rectángulo 11512" width="153.076" height="191.812" fill="none"/>
    </clipPath>
    <clipPath id="clip-path-4">
      <rect id="Rectángulo_11508" data-name="Rectángulo 11508" width="19.351" height="16.805" fill="none"/>
    </clipPath>
    <clipPath id="clip-path-5">
      <rect id="Rectángulo_11509" data-name="Rectángulo 11509" width="4.725" height="3.746" fill="none"/>
    </clipPath>
    <clipPath id="clip-path-6">
      <rect id="Rectángulo_11510" data-name="Rectángulo 11510" width="25.61" height="41.472" fill="none"/>
    </clipPath>
  </defs>
  <g id="Grupo_71058" data-name="Grupo 71058" transform="translate(-285 -3785.913)">
    <g id="Grupo_70807" data-name="Grupo 70807" transform="translate(285 3829.576)">
      <g id="Grupo_70806" data-name="Grupo 70806" transform="translate(0 0)" clip-path="url(#clip-path)">
        <path id="Trazado_157954" data-name="Trazado 157954" d="M10.727,19.36C37.044,19.5,62.817,22.3,88.007,30.1,106.269,35.745,123.816,43.3,142.388,48c47.511,12.016,101.378,9.878,147.888-5.362,18.369-6.021,36.13-13.368,55.038-17.668,28.577-6.5,58.864-6.812,87.948-4.356,43.151,3.648,81.094,25.265,123.6,31.565,38.535,5.716,79.794,4.068,117.313-6.752,13.719-3.953,26.965-9.375,40.488-13.913a235.1,235.1,0,0,1,55.3-11.183C810.565,16.9,850.323,21.5,888.611,35.2c34.449,12.321,67.294,19.6,104.142,19.792,3.59.018,3.587-5.549,0-5.567-26.317-.136-52.094-2.939-77.286-10.735-18.26-5.649-35.81-13.209-54.383-17.906C813.569,8.767,759.7,10.9,713.187,26.145c-18.369,6.021-36.135,13.368-55.043,17.668-28.581,6.5-58.866,6.812-87.953,4.353C527.04,44.521,489.1,22.9,446.592,16.6c-38.533-5.712-79.791-4.068-117.311,6.752-13.717,3.955-26.962,9.377-40.486,13.915a235.043,235.043,0,0,1-55.3,11.183c-40.6,3.432-80.35-1.174-118.636-14.866-34.447-12.319-67.29-19.6-104.135-19.792-3.59-.018-3.59,5.549,0,5.567" transform="translate(9.857 16.01)" fill="#edc596" opacity="0.48"/>
        <path id="Trazado_157955" data-name="Trazado 157955" d="M10.727,23.054c13.405.192,25.987,2.265,38.223,7.83,8.5,3.861,16.327,9.061,25.034,12.481,21.836,8.578,47.779,8.8,69.844.891,8.119-2.908,15.579-7.4,23.2-11.359,12.176-6.326,24.827-9.186,38.5-9.789a91.467,91.467,0,0,1,39.918,6.807c9.085,3.864,17.4,9.3,26.495,13.169,20.945,8.905,46.663,8.95,68.154,2.013,8.288-2.672,15.908-7.1,23.562-11.165a91.325,91.325,0,0,1,36.876-10.664,96.385,96.385,0,0,1,39.749,5.108c9.818,3.518,18.623,9.471,28.094,13.777,20.776,9.448,46.149,9.958,67.893,3.737,16.922-4.843,30.848-16.256,48.061-20.549,24.39-6.084,48.87-.935,70.519,10.693,17.636,9.473,34.721,13.976,54.88,13.688,19.917-.285,35.948-7.876,53.172-16.826,21.248-11.041,46.912-12.713,69.831-6.155,17.9,5.122,32.394,17.211,50.878,21.146a101.56,101.56,0,0,0,59.857-5.734c7.629-3.244,14.713-7.683,22.181-11.27,12.02-5.781,25-7.64,38.23-7.83,3.585-.051,3.592-5.618,0-5.567-22.622.323-39.321,8-59.026,17.9-23.84,11.98-54.359,11.985-78.529.993-8.284-3.766-15.986-8.636-24.375-12.2-10.475-4.454-21.6-6.139-32.906-6.638-22.918-1.009-41.029,6.547-60.81,16.826-23.711,12.319-53.818,13.441-78.424,2.979-19.233-8.177-34.2-18.019-55.771-19.645-23.206-1.748-42.394,4.981-62.44,15.63a95.894,95.894,0,0,1-76.623,5.556c-17.037-6.108-30.759-16.8-49.012-20.035a101.039,101.039,0,0,0-61.1,8.219c-8.034,3.861-15.577,8.547-23.9,11.816-11.5,4.518-23.9,5.445-36.128,5.269-22.7-.325-38.807-11.488-58.772-19.977-18.75-7.972-40.76-8.4-60.467-4.206-18.166,3.868-32.877,16.2-50.622,21.282C112,47.832,86.671,44.213,65.723,33.331c-18.082-9.4-34.246-15.548-55-15.844-3.592-.051-3.587,5.516,0,5.567" transform="translate(9.857 21.223)" fill="#d44f4a" opacity="0.13"/>
        <path id="Trazado_157956" data-name="Trazado 157956" d="M997.752,62.422c-26.317-.136-52.09-2.939-77.28-10.733-18.26-5.652-35.81-13.212-54.381-17.906C818.58,21.766,764.715,23.9,718.2,39.145c-18.367,6.019-36.13,13.368-55.038,17.665-28.577,6.5-58.864,6.814-87.948,4.356C532.066,57.52,494.123,35.9,451.616,29.6c-38.535-5.712-79.794-4.068-117.313,6.752-13.719,3.955-26.965,9.377-40.488,13.915a235.211,235.211,0,0,1-55.3,11.183c-40.6,3.432-80.355-1.174-118.643-14.864C85.42,34.263,52.574,26.982,15.727,26.792c-3.59-.018-3.587,5.549,0,5.567C42.043,32.5,67.821,35.3,93.013,43.093,111.273,48.744,128.822,56.3,147.4,61c47.514,12.016,101.383,9.878,147.9-5.362,18.369-6.019,36.132-13.368,55.043-17.665,28.581-6.5,58.866-6.814,87.953-4.358,43.151,3.648,81.094,25.263,123.6,31.565,38.533,5.716,79.791,4.068,117.311-6.749,13.717-3.955,26.962-9.377,40.486-13.915a235.128,235.128,0,0,1,55.3-11.183C815.578,29.9,855.331,34.5,893.617,48.194c34.447,12.323,67.29,19.6,104.135,19.794,3.59.018,3.587-5.549,0-5.567" transform="translate(15.992 31.959)" fill="#d44f4a" opacity="0.4"/>
        <path id="Trazado_157957" data-name="Trazado 157957" d="M1003.886,53.26C990.479,53.068,977.9,51,965.661,45.43c-8.493-3.861-16.323-9.061-25.032-12.481-21.836-8.578-47.779-8.8-69.844-.891-8.119,2.908-15.581,7.4-23.2,11.359-12.178,6.326-24.831,9.186-38.506,9.789a91.436,91.436,0,0,1-39.918-6.81c-9.083-3.861-17.4-9.3-26.495-13.167-20.945-8.907-46.663-8.95-68.154-2.013-8.288,2.672-15.908,7.1-23.562,11.165a91.315,91.315,0,0,1-36.876,10.664,96.385,96.385,0,0,1-39.749-5.108c-9.82-3.521-18.625-9.471-28.1-13.777-20.776-9.448-46.146-9.958-67.891-3.737-16.922,4.843-30.848,16.256-48.061,20.549-24.39,6.084-48.87.935-70.519-10.693-17.636-9.473-34.721-13.976-54.88-13.688-19.917.285-35.948,7.876-53.172,16.826-21.248,11.041-46.915,12.713-69.833,6.155-17.9-5.119-32.394-17.211-50.876-21.146A101.542,101.542,0,0,0,71.138,34.16C63.509,37.4,56.423,41.843,48.957,45.43c-12.02,5.781-25,7.64-38.23,7.829-3.585.051-3.592,5.618,0,5.567,22.622-.323,39.321-8,59.026-17.9,23.84-11.98,54.359-11.985,78.529-1,8.284,3.766,15.986,8.638,24.375,12.2,10.475,4.454,21.6,6.139,32.906,6.638,22.918,1.011,41.029-6.549,60.81-16.826,23.711-12.319,53.818-13.441,78.422-2.979,19.235,8.177,34.2,18.019,55.773,19.645,23.206,1.748,42.394-4.981,62.438-15.63a95.91,95.91,0,0,1,76.625-5.556c17.037,6.108,30.757,16.8,49.012,20.035a101.023,101.023,0,0,0,61.1-8.219c8.034-3.864,15.577-8.547,23.9-11.815,11.495-4.518,23.9-5.445,36.128-5.269,22.7.325,38.807,11.49,58.772,19.977,18.748,7.97,40.76,8.4,60.469,4.206,18.162-3.87,32.875-16.2,50.62-21.282,22.987-6.58,48.315-2.959,69.263,7.923,18.084,9.4,34.246,15.548,55,15.844,3.592.051,3.587-5.516,0-5.567" transform="translate(9.858 32.213)" fill="#fa9300" opacity="0.66"/>
        <path id="Trazado_157958" data-name="Trazado 157958" d="M.368,11.722q19.694,35.994,39.39,71.993c5.057,9.241,10.936,23.473,22.823,24.642C76.966,109.771,82.448,94.417,86.43,83.3q8.381-23.392,16.759-46.783,2.782-7.769,5.567-15.541a66.76,66.76,0,0,1,4.561-10.1c6.852-12.272,13.443,5.233,14.7,10.506l9.673,40.51c2.979,12.475,4.723,27.034,11.107,38.337,17.712,31.374,49.56-27.817,57.688-39.606,7.714-11.181,15.766-27.559,27.566-34.979,19.329-12.154,29.4,24.584,34.431,36.847,4.8,11.7,8.751,27.515,16.759,37.618,12.432,15.686,25.33,3.38,30.708-11.265q7.449-20.285,14.9-40.564A66.641,66.641,0,0,1,335.629,37.9c7.783-13.483,15.577,1.285,18.32,8.914,2,5.551,3.679,11.239,5.514,16.846,4.284,13.087,7.353,31.454,17.83,41.174,11.956,11.09,24.836-4.1,30.311-13.922q11.273-20.228,22.549-40.455c6.046-10.847,21.2-46.186,34.774-25.4,3.236,4.955,4.592,12.018,6.271,17.7q3.788,12.843,7.576,25.68c3.118,10.564,5.739,30.173,15.432,36.8,13.145,8.981,21.446-9.313,25.475-19.124q8.541-20.79,17.077-41.581a38.635,38.635,0,0,1,7.7-12.6c8.072-8.4,13.829,8.854,15.085,13.254q2.629,9.2,5.26,18.4c3.83,13.417,6.162,31.249,16.521,41.383,11.965,11.7,26.751-1.2,34.142-11.052l28.2-37.6A149.814,149.814,0,0,1,654.109,43.2c13.294-14.127,24.711-.57,28.657,13.1,3.975,13.777,6.745,28.962,13.2,41.844,9.114,18.2,26.675,8.346,34.52-4.872L751.2,58.351c4.525-7.629,20.921-43.093,32.525-33.881,6.028,4.788,6.83,15.877,8.337,23.152q2.515,12.128,5.033,24.257c2.877,13.853,10.943,29.131,27.112,21.542,12.116-5.685,21.524-24.822,29-35.186,6.6-9.157,15.775-18.614,28.018-13.243,9.515,4.175,13.5,17.1,17.581,25.9,7.435,16.04,21.754,27.279,38.756,16.5,11.292-7.164,19.26-23.326,26.831-33.928,9.44-13.216,23.566-16.418,33.086-1.67,3.04,4.71,4.788,10.744,6.856,15.92q10.044,25.119,20.095,50.235c1.316,3.293,6.7,1.857,5.367-1.479q-7.1-17.757-14.207-35.518c-4.382-10.958-7.95-25.559-15.358-35.039-12.31-15.753-29.735-10.535-40.314,4.275C951.474,62,940.418,84.806,924.534,86.416c-20.342,2.062-23.341-33.647-36.29-43.405-14.909-11.234-29.545-1.879-39.047,11.3-6.687,9.275-26.02,44.939-39.762,32.915-5.877-5.14-6.705-15.545-8.235-22.916q-2.515-12.128-5.033-24.257c-2.775-13.368-11.4-30.585-26.722-19.175-9.622,7.164-15.993,22.758-21.945,32.794Q736.66,71.949,725.817,90.222c-3.013,5.079-6.712,10-12.336,12.308-9.077,3.723-14.109-9.5-16.08-15.583-1.948-6.024-3.518-12.2-5.273-18.28-3.868-13.41-6.364-31.387-21.3-36.685-13.593-4.819-24.074,11.007-30.962,20.2q-14.3,19.059-28.59,38.119c-5.794,7.725-14.225,17.391-24.7,11.709-7.727-4.189-9.578-16-11.842-23.925-3.868-13.53-6.324-29.069-12.481-41.82-9.386-19.44-23.727-10.58-30.443,5.774q-7.883,19.2-15.764,38.393c-2.846,6.925-5.3,14.122-10.617,19.623-9.161,9.484-15.129-12.232-17.122-18.986q-6.674-22.62-13.35-45.236C471.935,25.586,463.569,5.836,449.281,14c-11.208,6.407-16.879,20.988-22.936,31.855q-11.554,20.729-23.11,41.461c-4.071,7.3-10.8,19.206-20.785,14.385-7.64-3.685-9.865-15.833-12.343-23.4-4.618-14.116-8.083-29.681-15.08-42.866-9.765-18.4-24.141-3.345-28.871,9.533Q318.824,64.928,311.5,84.884A89.974,89.974,0,0,1,307.8,93.7c-5.376,11.009-13.851,9.756-19.854.461-3.4-5.258-5.4-11.965-7.765-17.719q-7.953-19.377-15.9-38.753c-7.063-17.211-22.529-25.508-38.214-13.147-9.522,7.5-16.427,21.738-23.15,31.483Q190.7,73.741,178.482,91.462A36.116,36.116,0,0,1,168.4,101.7c-9.35,6.135-15.6-4.5-18.193-11.842-1.608-4.563-2.4-9.58-3.525-14.265q-5.759-24.123-11.519-48.242C133.24,19.286,129.944-2.637,117.973.262,106.471,3.048,103.2,20.021,99.664,29.89L82.549,77.673q-1.81,5.047-3.616,10.092c-2.835,7.916-9.019,18.416-18.973,13.951-4.972-2.231-8.331-7.905-10.809-12.432q-9.085-16.6-18.169-33.206Q18.079,32.5,5.173,8.911C3.45,5.763-1.358,8.571.368,11.722" transform="translate(0 0.001)" fill="#d44f4a"/>
      </g>
    </g>
    <g id="Grupo_71057" data-name="Grupo 71057" transform="translate(1161.924 3785.913)">
      <g id="Grupo_71056" data-name="Grupo 71056" clip-path="url(#clip-path-2)">
        <g id="Grupo_71055" data-name="Grupo 71055">
          <g id="Grupo_71054" data-name="Grupo 71054" clip-path="url(#clip-path-2)">
            <path id="Trazado_157959" data-name="Trazado 157959" d="M5.948,672.126C.352,675.5-1.266,683.089.971,688.957c2.608,6.842,9.855,10.547,16.816,11.184a26.234,26.234,0,0,0,19.819-6.812,22.472,22.472,0,0,0,5.886-8.665c1.446-3.889,1.65-8.107,1.875-12.209.227-4.146.433-8.461,2.14-12.316a7.154,7.154,0,0,1,1.536-2.437,4.349,4.349,0,0,1,2.889-.906,48.3,48.3,0,0,1,5.734.1c3.645.291,7.425,1.265,9.94,4.1,2.448,2.755,3.209,6.574,4.174,10.018a22.114,22.114,0,0,0,13.579,15.9c7.884,3.362,16.658,2.672,24.708.257a62.437,62.437,0,0,0,11.8-4.737c3.273-1.776,6.315-4.232,7.809-7.734,1.718-4.026,1.261-8.463,1.79-12.709.453-3.641,1.9-7.634,5.746-8.809a4.84,4.84,0,0,1,4.4.613c.851.624,1.669-.8.827-1.414-2.787-2.046-6.672-1.011-9.054,1.169-2.927,2.678-3.531,7-3.762,10.747-.253,4.1-.166,8.456-2.689,11.939-2.174,3-5.66,4.821-8.975,6.276-7.9,3.468-16.915,6.154-25.612,4.737C85.336,686.11,78.4,682.2,75.166,675.661c-1.624-3.276-2.148-6.961-3.37-10.383-1.208-3.384-3.176-6.376-6.439-8.069-3.309-1.717-7.149-2.041-10.816-2.074-1.859-.016-4-.193-5.691.706-1.753.929-2.624,2.983-3.281,4.747-2.875,7.714-.768,16.343-3.8,24.015C39.176,691.16,33,695.889,26.322,697.732c-6.723,1.854-14.723.815-20.04-3.969a13.605,13.605,0,0,1-4.534-8.412,13.117,13.117,0,0,1,1.9-8.816,9.785,9.785,0,0,1,3.127-2.994.819.819,0,0,0-.826-1.414" transform="translate(0 -508.429)" fill="#424242"/>
            <path id="Trazado_157960" data-name="Trazado 157960" d="M57.411,603.9a33.925,33.925,0,0,0-14.245,8.9,34.715,34.715,0,0,0-4.99,6.763c-1.362,2.388-2.529,4.88-3.883,7.272a22.126,22.126,0,0,1-5.568,6.923.832.832,0,0,0,.2,1.5,66.275,66.275,0,0,0,17.9,3.134,89.6,89.6,0,0,0,18.168-1.254,137.724,137.724,0,0,0,18.1-4.365c5.937-1.828,11.773-3.964,17.555-6.233q9.207-3.612,18.257-7.608,1.15-.507,2.3-1.021a.825.825,0,0,0,.294-1.12.839.839,0,0,0-1.12-.294q-8.916,3.991-17.992,7.606c-5.759,2.292-11.562,4.478-17.463,6.378a147.258,147.258,0,0,1-17.8,4.626,92.228,92.228,0,0,1-17.992,1.7A66.128,66.128,0,0,1,31.5,634.338q-1.079-.31-2.145-.66l.2,1.5c4.416-3.36,6.643-8.481,9.189-13.242a36.792,36.792,0,0,1,4.566-6.855,32.174,32.174,0,0,1,14.539-9.6c1-.318.573-1.9-.435-1.579" transform="translate(-22.125 -471.406)" fill="#424242"/>
            <path id="Trazado_157961" data-name="Trazado 157961" d="M86.842,373.151a19.822,19.822,0,0,0-6.233,4.291c-1.894,2-4.527,4.883-5.176,7.5a42.789,42.789,0,0,0-.276,17.977,39.284,39.284,0,0,0,6.043,15.4,26.581,26.581,0,0,0,13.3,10.24,36.7,36.7,0,0,0,10.6,1.52,39.254,39.254,0,0,0,13.059-1.514,8.27,8.27,0,0,0,2.694-1.322c2.08-1.691,2.28-4.648,2.094-7.242a87.662,87.662,0,0,0-2.41-13.595c-1.642-7.032-3.351-14.106-6.438-20.685-2.563-5.462-2.251-10.868-7.733-13.975-5.584-3.164-13.976-.976-19.524,1.4" transform="translate(-58.034 -288.978)" fill="#636363"/>
            <path id="Trazado_157962" data-name="Trazado 157962" d="M167.723,388.781c7.116,15.629,3.672,32.493-7.692,37.667s-26.344-3.3-33.46-18.931-3.672-32.494,7.692-37.667,26.344,3.3,33.46,18.931" transform="translate(-95.918 -287.541)" fill="#545454"/>
            <path id="Trazado_157963" data-name="Trazado 157963" d="M186.1,8.395c-12.54,4.154-24.695,11.38-31.363,22.783-3.271,5.593-5.072,11.926-6.31,18.286-1.322,6.792-3.5,18.8-1.738,25.49a3.847,3.847,0,0,0,.973,1.949,3.771,3.771,0,0,0,1.5.719c2.708.8,9.875.72,10.491.316,1.471-.965,1.4-29.13,3.436-38.556S170,20.8,178.01,15.437c4.74-3.173,10.3-4.872,15.858-6.171,6.693-1.565,13.747-2.6,20.393-.852-2.4-.633-4.574-1.658-7.144-2.17a18.986,18.986,0,0,0-4.9-.773A61.3,61.3,0,0,0,186.1,8.395" transform="translate(-113.996 -4.262)" fill="#424242"/>
            <path id="Trazado_157964" data-name="Trazado 157964" d="M316.078,465.152c-4.558-2.378-8.683-5.811-10.805-10.31a23.332,23.332,0,0,1-1.935-9.618,37.278,37.278,0,0,1,9.781-26.112,33.663,33.663,0,0,1,26.676-10.472,44.692,44.692,0,0,1,9.676,2.067c4.842,1.523,9.76,3.67,12.727,7.6a19.8,19.8,0,0,1,3.409,8.971c1.247,7.906-.129,16.317-4.692,23.042a44.528,44.528,0,0,1-8.955,9.258,97.122,97.122,0,0,1-9.992,7.127c-3.741,2.327-7.788,4.081-12.317,2.992a58.894,58.894,0,0,1-13.573-4.546" transform="translate(-236.799 -318.93)" fill="#636363"/>
            <path id="Trazado_157965" data-name="Trazado 157965" d="M638.52,710.052l-1.907-1.417-4.873,6.559.044.743-.821.3.189,1.738,1.719-.321.053-.873.724-.173Z" transform="translate(-492.567 -553.203)" fill="#baced8"/>
            <path id="Trazado_157966" data-name="Trazado 157966" d="M637.365,708.144l-.544.732.746,1.787-3.613,5.169-1.542-1.021.044.743.57.423-.089.787-1.113.831,1.719-.321.053-.873.724-.173,4.953-6.667Z" transform="translate(-493.239 -552.819)" fill="#909fa5"/>
            <path id="Trazado_157967" data-name="Trazado 157967" d="M629.132,645.22c-.36.533-.718,1.239-.364,1.775a1.711,1.711,0,0,0,.727.523,29.184,29.184,0,0,1,5.884,3.789.373.373,0,0,1,.144.185.38.38,0,0,1-.1.286l-1.345,1.951a1.024,1.024,0,0,0,.21,1.722l2.458,1.915a.473.473,0,0,0,.8-.115q1.874-2.243,3.735-4.5a14.677,14.677,0,0,0,2.438-3.645.674.674,0,0,0,.049-.555.7.7,0,0,0-.214-.218l-10.006-7.544c-1.187-.895-1.4.2-2.018,1.034q-1.239,1.67-2.4,3.394" transform="translate(-490.74 -499.98)" fill="#636363"/>
            <path id="Trazado_157968" data-name="Trazado 157968" d="M636.217,654.691a1.024,1.024,0,0,1-.21-1.722l1.345-1.951a.283.283,0,0,0-.047-.471,29.2,29.2,0,0,0-5.884-3.789,1.71,1.71,0,0,1-.726-.523c-.355-.536,0-1.242.363-1.775q1.163-1.724,2.4-3.394c.054-.073.106-.149.155-.225l-.063-.047c-1.187-.895-1.4.2-2.018,1.034q-1.239,1.67-2.4,3.394c-.36.533-.718,1.239-.364,1.775a1.714,1.714,0,0,0,.727.523,29.187,29.187,0,0,1,5.884,3.789.372.372,0,0,1,.144.185.379.379,0,0,1-.1.286l-1.345,1.951a1.024,1.024,0,0,0,.211,1.722l2.457,1.915a.473.473,0,0,0,.8-.115l.769-.923-2.1-1.638" transform="translate(-490.74 -499.98)" fill="#424242"/>
            <path id="Trazado_157969" data-name="Trazado 157969" d="M402.983,468.364c-9.718,14.3-27.467,19.178-39.642,10.9s-14.167-26.576-4.449-40.873,27.467-19.178,39.642-10.9,14.167,26.575,4.449,40.872" transform="translate(-275.361 -330.58)" fill="#424242"/>
            <path id="Trazado_157970" data-name="Trazado 157970" d="M419.006,487.074c-7.731,11.373-21.85,15.256-31.536,8.672s-11.27-21.141-3.539-32.514,21.85-15.256,31.536-8.672,11.27,21.141,3.539,32.514" transform="translate(-295.892 -352.354)" fill="#f75b4b"/>
            <path id="Trazado_157971" data-name="Trazado 157971" d="M422.454,506.785a28.2,28.2,0,0,1-4.63,11.734c-7.731,11.373-21.85,15.255-31.535,8.672a18.8,18.8,0,0,1-6.983-8.943c-1.211,8.272,1.636,16.339,8.169,20.78,9.686,6.584,23.8,2.7,31.535-8.672,5.127-7.542,6.155-16.483,3.443-23.572" transform="translate(-295.897 -395.627)" fill="#e24333"/>
            <path id="Trazado_157972" data-name="Trazado 157972" d="M297.51,414.754c1.929.34,3.848-.887,4.983-2.484a21.94,21.94,0,0,0,2.343-5.367,36.549,36.549,0,0,1,39.723-23.653,4.457,4.457,0,0,0,2.492-.078,3.869,3.869,0,0,0,1.273-1.088,25.771,25.771,0,0,0,3.258-4.834,18.616,18.616,0,0,0-5.764-3.011c-.233,1.843-1.15,4.831-3.611,4.784-4.778-.09-14.424.447-20.576,1.991-6.1,1.531-11.439,5.36-15.7,9.986-2.521,2.734-16.721,22.291-8.415,23.755" transform="translate(-230.241 -292.153)" fill="#424242"/>
            <path id="Trazado_157973" data-name="Trazado 157973" d="M431.708,19.913c4.469,6.21,6.9,13.715,7.935,21.3s.739,15.28.162,22.91c-.461,6.1-.863,13.874-4.33,18.91-.746,1.084-1.988.795-1.987,2.11,0,1.9,1.831,3.218,3.468,4.185q2.875,1.7,5.786,3.335c1.115.627,2.427,1.264,3.619.8a4.194,4.194,0,0,0,1.956-2.208c6.065-11.954,5.622-38.883,2.405-53.187-.752-3.343-6.728-28.641-40.971-31.882,3.963,1.478,8.1,2.346,11.806,4.47a32.625,32.625,0,0,1,10.152,9.261" transform="translate(-319.875 -4.826)" fill="#636363"/>
            <path id="Trazado_157974" data-name="Trazado 157974" d="M86.8,331.876c-1.146,1.121-2.838,1.406-4.376,1.859-6.709,1.973-11.7,8.05-13.651,14.766s-1.2,13.966.73,20.689a13.993,13.993,0,0,0,2.309,5.061,5.581,5.581,0,0,0,4.871,2.236,2.662,2.662,0,0,0,2.074-1.3,3.89,3.89,0,0,0-.181-2.9c-2.31-7.015-4.264-14.408-3.2-21.717s5.841-14.526,12.993-16.368c2.243-.578,4.964-.844,6.082-2.872a6.025,6.025,0,0,0,.353-3.762,9.451,9.451,0,0,0-1.422-4.227,4.01,4.01,0,0,0-3.867-1.784c-4.138.84.033,7.626-2.715,10.316" transform="translate(-52.796 -250.982)" fill="#424242"/>
            <path id="Trazado_157975" data-name="Trazado 157975" d="M196.879,419.446a23.317,23.317,0,0,1,7.373,14.4,19.305,19.305,0,0,0-9.472-8.5c-4.051-1.514-8.977-1.023-12.2,1.86s-4.142,8.27-1.506,11.7a29.163,29.163,0,0,1-4.839-13.531c-.488-5.215.833-9.038,6.229-10.093a17.367,17.367,0,0,1,14.415,4.165" transform="translate(-137.507 -323.978)" fill="#424242"/>
            <g id="Grupo_71047" data-name="Grupo 71047" transform="translate(90.641 101.535)" opacity="0.44">
              <g id="Grupo_71046" data-name="Grupo 71046">
                <g id="Grupo_71045" data-name="Grupo 71045" clip-path="url(#clip-path-4)">
                  <path id="Trazado_157976" data-name="Trazado 157976" d="M423.762,465.314a28.6,28.6,0,0,0-9.283,8.743,6.84,6.84,0,0,0-1.189,2.568,2.758,2.758,0,0,0,.812,2.6,2.8,2.8,0,0,0,3.084.06,7.314,7.314,0,0,0,2.249-2.347c1.489-2.17,2.789-4.478,4.467-6.5a12.7,12.7,0,0,1,6.359-4.453c2.053-.529,3.652-2.76.754-3.043-2.344-.229-5.313,1.244-7.252,2.38" transform="translate(-413.242 -462.91)" fill="#fff"/>
                </g>
              </g>
            </g>
            <g id="Grupo_71050" data-name="Grupo 71050" transform="translate(113.147 101.954)" opacity="0.44">
              <g id="Grupo_71049" data-name="Grupo 71049">
                <g id="Grupo_71048" data-name="Grupo 71048" clip-path="url(#clip-path-5)">
                  <path id="Trazado_157977" data-name="Trazado 157977" d="M519.271,465.868l-1.438-.861a.886.886,0,0,0-.55-.18c-2.012.272-1.463,1.647-.968,2.436a3.15,3.15,0,0,0,2.373,1.29c.736.08,1.658-.132,1.853-.847.212-.775-.582-1.426-1.271-1.839" transform="translate(-515.852 -464.823)" fill="#fff"/>
                </g>
              </g>
            </g>
            <path id="Trazado_157978" data-name="Trazado 157978" d="M225.038,83.283c-1.611.029-3.066-1.627-2.22-3.068.006-.01,1.345-1.49,2.825-6.728.912-3.228,3.507-24.165,1.187-40.732-2.2-15.689-13.81-26.159-24.146-28.394-11.157-2.412-29.769.42-45.5,16.338-7.862,7.955-11.035,21.019-12.313,30.578a111.348,111.348,0,0,0-.879,19.3c.062.993,1.709,3.064.28,2.772-.975-.2-3.567-.324-3.876-2.546a109.8,109.8,0,0,1,.895-19.939,82.082,82.082,0,0,1,4.059-17.246,42.433,42.433,0,0,1,9.271-15.455A60.605,60.605,0,0,1,181.288,1.982,46.258,46.258,0,0,1,203.446.839a33.748,33.748,0,0,1,16.892,10.109A39.036,39.036,0,0,1,230.4,32.255c2.313,16.517-.051,37.831-1.288,42.211-1.7,6.032-3.716,8.811-4.073,8.817" transform="translate(-109.505 0)" fill="#7c7c7c"/>
            <g id="Grupo_71053" data-name="Grupo 71053" transform="translate(30.599 90.909)" opacity="0.08">
              <g id="Grupo_71052" data-name="Grupo 71052">
                <g id="Grupo_71051" data-name="Grupo 71051" clip-path="url(#clip-path-6)">
                  <path id="Trazado_157979" data-name="Trazado 157979" d="M150.763,451.013c2.939,2.745,6.649,5.075,10.668,4.918a4.321,4.321,0,0,0,2.764-.919c1.444-1.3,1.061-3.8-.254-5.236s-3.248-2.087-5.075-2.751c-3.818-1.389-7.725-3.209-10.055-6.538a19.258,19.258,0,0,1-2.455-5.587,63.3,63.3,0,0,1-2.468-13.137c-.184-2.3.708-3.157,1.509-5.128.456-1.122.511-1.87-.76-2.112-3.062-.582-4.421,3.475-4.755,5.593a35.954,35.954,0,0,0,10.883,30.9" transform="translate(-139.505 -414.466)" fill="#fff"/>
                </g>
              </g>
            </g>
            <path id="Trazado_157980" data-name="Trazado 157980" d="M15.016,718.377a27.517,27.517,0,0,0-3.45,3.972,4.184,4.184,0,0,0-.811,1.632c-.294,1.64,1.334,3.085,2.978,3.355s3.3-.249,4.946-.5a20.3,20.3,0,0,0,4.742-.87c1.49-.616,2.8-2.093,2.55-3.686a1.484,1.484,0,0,0-.227-.621,1.735,1.735,0,0,0-.462-.422c-.754-.514-1.628-.82-2.423-1.266a3.492,3.492,0,0,1-1.788-1.975,5.046,5.046,0,0,0-.4-1.572,1.578,1.578,0,0,0-1.626-.547,10.847,10.847,0,0,0-4.029,2.5" transform="translate(-8.369 -558.823)" fill="#545454"/>
          </g>
        </g>
      </g>
    </g>
  </g>
</svg>
