<svg xmlns="http://www.w3.org/2000/svg" xmlns:xlink="http://www.w3.org/1999/xlink" width="1030" height="154" viewBox="0 0 1030 154">
  <defs>
    <clipPath id="clip-path">
      <rect id="Rectángulo_11615" data-name="Rectángulo 11615" width="457.532" height="28.579" transform="translate(283.854 50.538)" fill="none"/>
    </clipPath>
  </defs>
  <g id="Grupo_71257" data-name="Grupo 71257" transform="translate(-285 -4058.34)">
    <g id="Grupo_71182" data-name="Grupo 71182" transform="translate(-8901 11660.34)">
      <g id="Grupo_71106" data-name="Grupo 71106" transform="translate(9186 -7602)">
        <rect id="Rectángulo_11611" data-name="Rectángulo 11611" width="1030" height="154" fill="#f8e2e2"/>
        <path id="Trazado_158121" data-name="Trazado 158121" d="M283.854,57.794V78.738h12.134V75.9h-8.667v-6.55h6.689V66.554h-6.689V60.57h8.533V57.794Z" transform="translate(0 6)" fill="#bc332e"/>
        <path id="Trazado_158122" data-name="Trazado 158122" d="M298.807,57.794V78.738h10.877v-2.93h-7.41V57.794Z" transform="translate(0 6)" fill="#bc332e"/>
        <path id="Trazado_158123" data-name="Trazado 158123" d="M312.154,57.794V78.738h12.13V75.9h-8.667v-6.55h6.689V66.554h-6.689V60.57h8.529V57.794Z" transform="translate(0 6)" fill="#bc332e"/>
        <path id="Trazado_158124" data-name="Trazado 158124" d="M340.63,57.794l-4.286,15.094-4.177-15.094h-5.141V78.738h2.9V60.846l4.883,17.892h2.519L342.3,60.867V78.738h3.249V57.794Z" transform="translate(0 6)" fill="#bc332e"/>
        <path id="Trazado_158125" data-name="Trazado 158125" d="M350.079,57.794V78.738h12.134V75.9h-8.667v-6.55h6.689V66.554h-6.689V60.57h8.529V57.794Z" transform="translate(0 6)" fill="#bc332e"/>
        <path id="Trazado_158126" data-name="Trazado 158126" d="M375.892,57.794V72.888l-6.885-15.094h-4.083V78.738h2.9V61.966l7.73,16.772h3.236V57.794Z" transform="translate(0 6)" fill="#bc332e"/>
        <path id="Trazado_158127" data-name="Trazado 158127" d="M380.675,57.794v2.944h4.648v18h3.466v-18h4.68V57.794Z" transform="translate(0 6)" fill="#bc332e"/>
        <g id="Grupo_71105" data-name="Grupo 71105" transform="translate(0 6)">
          <g id="Grupo_71104" data-name="Grupo 71104" clip-path="url(#clip-path)">
            <path id="Trazado_158128" data-name="Trazado 158128" d="M409.925,68.256q0,5.37-1.918,8.115a6.37,6.37,0,0,1-5.569,2.747,6.468,6.468,0,0,1-5.614-2.739q-1.947-2.739-1.948-8.123,0-5.337,1.933-8.092a7.066,7.066,0,0,1,11.183-.015q1.932,2.739,1.933,8.107m-3.635.008a16.059,16.059,0,0,0-.868-5.873,3.206,3.206,0,0,0-6.052.008,16.231,16.231,0,0,0-.857,5.865,16.535,16.535,0,0,0,.842,5.835,3.081,3.081,0,0,0,3.083,2.181,3.042,3.042,0,0,0,2.978-2.112,15.949,15.949,0,0,0,.874-5.9" fill="#bc332e"/>
            <path id="Trazado_158129" data-name="Trazado 158129" d="M426.212,62.473,423.254,63.5a5.609,5.609,0,0,0-1.373-2.459,3.273,3.273,0,0,0-2.327-.794,2.728,2.728,0,0,0-2.11.809,2.651,2.651,0,0,0-.744,1.853,2.255,2.255,0,0,0,.837,1.839,13.394,13.394,0,0,0,3.336,1.636,18.675,18.675,0,0,1,3.281,1.553,5.579,5.579,0,0,1,2.577,4.832,6.108,6.108,0,0,1-1.864,4.5,7.079,7.079,0,0,1-5.223,1.857q-5.8,0-7.179-5.861l3.1-.874q.813,3.865,4.234,3.865a3.443,3.443,0,0,0,2.538-.866,2.907,2.907,0,0,0,.867-2.14,2.83,2.83,0,0,0-.6-1.734,7.16,7.16,0,0,0-2.976-1.7A25.054,25.054,0,0,1,416,68.2a5.849,5.849,0,0,1-.936-9.078,6.332,6.332,0,0,1,4.625-1.7q5.109,0,6.52,5.062" fill="#bc332e"/>
            <path id="Trazado_158130" data-name="Trazado 158130" d="M436.667,57.794h4.714a10.706,10.706,0,0,1,5.473,1.212,7.585,7.585,0,0,1,3.1,3.6,13.046,13.046,0,0,1,1.052,5.308,14.831,14.831,0,0,1-.944,5.468,8.768,8.768,0,0,1-2.887,3.873,9.014,9.014,0,0,1-5.536,1.473h-4.976Zm3.467,2.776V75.957h1.445a4.864,4.864,0,0,0,4.4-2.094,10.1,10.1,0,0,0,1.368-5.592q0-7.7-5.765-7.7Z" fill="#bc332e"/>
            <path id="Trazado_158131" data-name="Trazado 158131" d="M454.827,57.794h12V60.57h-8.533v5.984h6.688v2.792h-6.688V75.9h8.667v2.837H454.827Z" fill="#bc332e"/>
            <path id="Trazado_158132" data-name="Trazado 158132" d="M480.073,57.794h3.881l5.622,20.94h-3.51l-1.312-5.247h-6.14l-1.3,5.247h-3.3Zm4,12.963-2.4-9.588-2.379,9.588Z" fill="#bc332e"/>
            <path id="Trazado_158133" data-name="Trazado 158133" d="M492.062,57.794h4.083l6.885,15.1v-15.1h2.9V78.733h-3.236l-7.732-16.766V78.733h-2.9Z" fill="#bc332e"/>
            <path id="Trazado_158134" data-name="Trazado 158134" d="M514.254,57.794h3.885l5.622,20.94h-3.507l-1.314-5.246H512.8l-1.3,5.246H508.2Zm4,12.963-2.4-9.588-2.379,9.588Zm-4.5-15.908,4.919-4.311,1.657,2.086-5.415,3.407Z" fill="#bc332e"/>
            <path id="Trazado_158135" data-name="Trazado 158135" d="M526.354,57.794h3.467V75.8h7.409v2.929H526.354Z" fill="#bc332e"/>
            <rect id="Rectángulo_11612" data-name="Rectángulo 11612" width="3.467" height="20.939" transform="translate(539.698 57.794)" fill="#bc332e"/>
            <path id="Trazado_158136" data-name="Trazado 158136" d="M560.154,62.473,557.193,63.5a5.6,5.6,0,0,0-1.369-2.463,3.274,3.274,0,0,0-2.324-.794,2.728,2.728,0,0,0-2.11.809,2.655,2.655,0,0,0-.744,1.853,2.255,2.255,0,0,0,.837,1.839,13.394,13.394,0,0,0,3.336,1.636A18.607,18.607,0,0,1,558.1,67.93a5.579,5.579,0,0,1,2.577,4.832,6.108,6.108,0,0,1-1.864,4.5,7.079,7.079,0,0,1-5.223,1.857q-5.8,0-7.179-5.861l3.1-.874q.813,3.866,4.234,3.865a3.443,3.443,0,0,0,2.538-.866,2.907,2.907,0,0,0,.867-2.14,2.829,2.829,0,0,0-.6-1.734,7.16,7.16,0,0,0-2.976-1.7,25.054,25.054,0,0,1-3.628-1.611,5.849,5.849,0,0,1-.936-9.078,6.332,6.332,0,0,1,4.625-1.7q5.109,0,6.52,5.062" fill="#bc332e"/>
            <rect id="Rectángulo_11613" data-name="Rectángulo 11613" width="3.467" height="20.939" transform="translate(564.25 57.794)" fill="#bc332e"/>
            <path id="Trazado_158137" data-name="Trazado 158137" d="M584.71,62.473,581.749,63.5a5.609,5.609,0,0,0-1.373-2.459,3.274,3.274,0,0,0-2.322-.794,2.728,2.728,0,0,0-2.11.809,2.651,2.651,0,0,0-.744,1.853,2.255,2.255,0,0,0,.837,1.839,13.394,13.394,0,0,0,3.336,1.636,18.641,18.641,0,0,1,3.281,1.553,5.579,5.579,0,0,1,2.577,4.832,6.108,6.108,0,0,1-1.864,4.5,7.079,7.079,0,0,1-5.223,1.857q-5.8,0-7.179-5.861l3.1-.874q.813,3.865,4.234,3.865a3.443,3.443,0,0,0,2.538-.866,2.907,2.907,0,0,0,.867-2.14,2.829,2.829,0,0,0-.6-1.734,7.16,7.16,0,0,0-2.976-1.7A25.053,25.053,0,0,1,574.5,68.2a5.849,5.849,0,0,1-.936-9.078,6.332,6.332,0,0,1,4.625-1.7q5.109,0,6.52,5.062" fill="#bc332e"/>
            <path id="Trazado_158138" data-name="Trazado 158138" d="M595.165,57.794h4.714a10.716,10.716,0,0,1,5.475,1.212,7.585,7.585,0,0,1,3.1,3.6,13.044,13.044,0,0,1,1.052,5.308,14.829,14.829,0,0,1-.944,5.468,8.768,8.768,0,0,1-2.887,3.873,9.014,9.014,0,0,1-5.536,1.473h-4.976Zm3.467,2.776V75.957h1.445a4.864,4.864,0,0,0,4.4-2.094,10.1,10.1,0,0,0,1.368-5.592q0-7.7-5.765-7.7Z" fill="#bc332e"/>
            <path id="Trazado_158139" data-name="Trazado 158139" d="M613.324,57.794h12V60.57h-8.529v5.984h6.688v2.792h-6.688V75.9h8.659v2.837h-12.13Z" fill="#bc332e"/>
            <path id="Trazado_158140" data-name="Trazado 158140" d="M628.277,57.794h3.467V75.8h7.41v2.929H628.277Z" fill="#bc332e"/>
            <path id="Trazado_158141" data-name="Trazado 158141" d="M660.454,62.473,657.493,63.5a5.609,5.609,0,0,0-1.373-2.459,3.275,3.275,0,0,0-2.324-.794,2.728,2.728,0,0,0-2.11.809,2.651,2.651,0,0,0-.744,1.853,2.255,2.255,0,0,0,.837,1.839,13.394,13.394,0,0,0,3.336,1.636,18.606,18.606,0,0,1,3.283,1.549,5.578,5.578,0,0,1,2.577,4.832,6.108,6.108,0,0,1-1.864,4.5,7.079,7.079,0,0,1-5.223,1.857q-5.8,0-7.179-5.861l3.1-.874q.813,3.865,4.234,3.865a3.443,3.443,0,0,0,2.538-.866,2.907,2.907,0,0,0,.867-2.14,2.83,2.83,0,0,0-.6-1.734,7.16,7.16,0,0,0-2.976-1.7,25.053,25.053,0,0,1-3.628-1.611,5.849,5.849,0,0,1-.936-9.078,6.332,6.332,0,0,1,4.625-1.7q5.109,0,6.52,5.062" fill="#bc332e"/>
            <path id="Trazado_158142" data-name="Trazado 158142" d="M678.905,68.256q0,5.37-1.918,8.115a6.37,6.37,0,0,1-5.569,2.747,6.468,6.468,0,0,1-5.614-2.739q-1.95-2.74-1.95-8.123,0-5.337,1.933-8.092a7.066,7.066,0,0,1,11.183-.015q1.932,2.739,1.933,8.107m-3.636.008a16.081,16.081,0,0,0-.867-5.873,3.206,3.206,0,0,0-6.052.008,16.21,16.21,0,0,0-.858,5.865,16.538,16.538,0,0,0,.843,5.835,3.081,3.081,0,0,0,3.083,2.181,3.039,3.039,0,0,0,2.977-2.112,15.93,15.93,0,0,0,.874-5.9" fill="#bc332e"/>
            <path id="Trazado_158143" data-name="Trazado 158143" d="M682.613,57.794H686.7l6.885,15.1v-15.1h2.9V78.733h-3.237l-7.732-16.766V78.733h-2.9Z" fill="#bc332e"/>
            <rect id="Rectángulo_11614" data-name="Rectángulo 11614" width="3.467" height="20.939" transform="translate(700.879 57.794)" fill="#bc332e"/>
            <path id="Trazado_158144" data-name="Trazado 158144" d="M708.868,57.794h4.714a10.7,10.7,0,0,1,5.472,1.212,7.585,7.585,0,0,1,3.1,3.6,13.045,13.045,0,0,1,1.052,5.308,14.831,14.831,0,0,1-.944,5.468,8.768,8.768,0,0,1-2.887,3.873,9.014,9.014,0,0,1-5.536,1.473h-4.976Zm3.467,2.776V75.957h1.445a4.864,4.864,0,0,0,4.4-2.094,10.1,10.1,0,0,0,1.368-5.592q0-7.7-5.765-7.7Z" fill="#bc332e"/>
            <path id="Trazado_158145" data-name="Trazado 158145" d="M741.387,68.256q0,5.37-1.918,8.115a6.37,6.37,0,0,1-5.569,2.747,6.47,6.47,0,0,1-5.615-2.739q-1.947-2.739-1.948-8.123,0-5.337,1.934-8.092a7.063,7.063,0,0,1,11.183-.015q1.934,2.739,1.934,8.107m-3.636.008a16.079,16.079,0,0,0-.867-5.873,3.206,3.206,0,0,0-6.052.008,16.212,16.212,0,0,0-.858,5.865,16.583,16.583,0,0,0,.842,5.835A3.082,3.082,0,0,0,733.9,76.28a3.038,3.038,0,0,0,2.976-2.112,15.908,15.908,0,0,0,.875-5.9" fill="#bc332e"/>
          </g>
        </g>
        <path id="Trazado_158146" data-name="Trazado 158146" d="M757.306,103.462l-1.488-.015-2.75-24-3.092,9.084H259.366v-1.5H748.9L752.723,75.8l1.455.156,2.444,21.333,3.75-27.893,1.489.019,1.575,14.455,2.4-8.452,4.8,12.081-1.394.555-3.168-7.976-2.243,7.9-1.467-.124-1.325-12.153Z" transform="translate(0 6)" fill="#fa9300"/>
      </g>
    </g>
  </g>
</svg>
