<svg xmlns="http://www.w3.org/2000/svg" xmlns:xlink="http://www.w3.org/1999/xlink" width="505" height="186" viewBox="0 0 505 186">
  <defs>
    <linearGradient id="linear-gradient" x1="0.5" x2="0.5" y2="1" gradientUnits="objectBoundingBox">
      <stop offset="0" stop-color="#fff8e3"/>
      <stop offset="1" stop-color="#fff"/>
    </linearGradient>
    <clipPath id="clip-path">
      <rect id="Rectángulo_11617" data-name="Rectángulo 11617" width="97.241" height="12.156" transform="translate(204 149)" fill="none"/>
    </clipPath>
    <clipPath id="clip-path-2">
      <path id="Trazado_158158" data-name="Trazado 158158" d="M197.741,81.031a54.74,54.74,0,0,0,9.888,31.466h90.223A55,55,0,1,0,197.741,81.031" fill="url(#linear-gradient)"/>
    </clipPath>
    <clipPath id="clip-path-3">
      <rect id="Rectángulo_11619" data-name="Rectángulo 11619" width="505" height="186" fill="none"/>
    </clipPath>
  </defs>
  <g id="Grupo_71256" data-name="Grupo 71256" transform="translate(-285 -4227.34)">
    <g id="Grupo_71180" data-name="Grupo 71180" transform="translate(-8901 11660.34)">
      <path id="Trazado_158350" data-name="Trazado 158350" d="M0,0H505V186H0V0Z" transform="translate(9186 -7433)" fill="#fff8e3"/>
      <g id="Grupo_71107" data-name="Grupo 71107" transform="translate(9186 -7433)">
        <g id="Grupo_71108" data-name="Grupo 71108">
          <g id="Grupo_71107-2" data-name="Grupo 71107" clip-path="url(#clip-path)">
            <path id="Trazado_158147" data-name="Trazado 158147" d="M204,161V149.625h3.985a5.235,5.235,0,0,1,3.14.793,2.713,2.713,0,0,1,1.075,2.324,2.571,2.571,0,0,1-.43,1.473,2.494,2.494,0,0,1-1.2.934,2.406,2.406,0,0,1,1.378.882,2.616,2.616,0,0,1,.5,1.625,3,3,0,0,1-1.047,2.485,4.72,4.72,0,0,1-2.984.859Zm2.344-6.609h1.734q1.773-.032,1.774-1.414a1.312,1.312,0,0,0-.452-1.114,2.369,2.369,0,0,0-1.418-.339h-1.638Zm0,1.656v3.07h2.008a1.946,1.946,0,0,0,1.293-.394,1.355,1.355,0,0,0,.465-1.09,1.428,1.428,0,0,0-1.618-1.586Z" fill="#636363"/>
            <path id="Trazado_158148" data-name="Trazado 158148" d="M218.961,161a2.484,2.484,0,0,1-.226-.758,2.732,2.732,0,0,1-2.133.915,3,3,0,0,1-2.059-.719,2.312,2.312,0,0,1-.816-1.813,2.387,2.387,0,0,1,1-2.062,4.9,4.9,0,0,1,2.873-.727h1.039v-.484a1.4,1.4,0,0,0-.3-.938,1.184,1.184,0,0,0-.949-.351,1.347,1.347,0,0,0-.9.273.931.931,0,0,0-.324.75h-2.257a2.265,2.265,0,0,1,.453-1.359,3,3,0,0,1,1.282-.981,4.667,4.667,0,0,1,1.859-.355,3.7,3.7,0,0,1,2.481.785,2.753,2.753,0,0,1,.918,2.207v3.664a4.035,4.035,0,0,0,.335,1.82V161Zm-1.867-1.57a1.935,1.935,0,0,0,.922-.223,1.459,1.459,0,0,0,.625-.6v-1.45H217.8q-1.7,0-1.805,1.171l-.007.133a.9.9,0,0,0,.3.7,1.15,1.15,0,0,0,.812.273" fill="#636363"/>
            <path id="Trazado_158149" data-name="Trazado 158149" d="M224.719,152.547l.07.977a2.952,2.952,0,0,1,2.43-1.133,2.45,2.45,0,0,1,2,.789,3.685,3.685,0,0,1,.672,2.359V161h-2.258v-5.406a1.465,1.465,0,0,0-.312-1.043,1.4,1.4,0,0,0-1.04-.324,1.55,1.55,0,0,0-1.429.812V161h-2.258v-8.453Z" fill="#636363"/>
            <path id="Trazado_158150" data-name="Trazado 158150" d="M231.25,156.711a5.088,5.088,0,0,1,.887-3.148,2.874,2.874,0,0,1,2.426-1.172,2.592,2.592,0,0,1,2.039.922V149h2.265v12h-2.039l-.109-.9a2.656,2.656,0,0,1-2.172,1.054,2.865,2.865,0,0,1-2.394-1.175,5.262,5.262,0,0,1-.9-3.27m2.258.168a3.34,3.34,0,0,0,.411,1.823,1.349,1.349,0,0,0,1.2.634,1.513,1.513,0,0,0,1.478-.882V155.11a1.491,1.491,0,0,0-1.461-.883q-1.634,0-1.633,2.652" fill="#636363"/>
            <path id="Trazado_158151" data-name="Trazado 158151" d="M245.515,161a2.484,2.484,0,0,1-.226-.758,2.732,2.732,0,0,1-2.133.915,3,3,0,0,1-2.059-.719,2.312,2.312,0,0,1-.816-1.813,2.387,2.387,0,0,1,1-2.062,4.9,4.9,0,0,1,2.879-.727H245.2v-.484a1.4,1.4,0,0,0-.3-.938,1.184,1.184,0,0,0-.949-.351,1.348,1.348,0,0,0-.9.273.931.931,0,0,0-.324.75h-2.258a2.265,2.265,0,0,1,.453-1.359,3,3,0,0,1,1.279-.981,4.667,4.667,0,0,1,1.859-.355,3.7,3.7,0,0,1,2.481.785,2.753,2.753,0,0,1,.918,2.207v3.664a4.035,4.035,0,0,0,.335,1.82V161Zm-1.867-1.57a1.935,1.935,0,0,0,.922-.223,1.459,1.459,0,0,0,.625-.6v-1.45h-.844q-1.7,0-1.8,1.171l-.007.133a.9.9,0,0,0,.3.7,1.15,1.15,0,0,0,.812.273" fill="#636363"/>
            <path id="Trazado_158152" data-name="Trazado 158152" d="M257.758,158.664a.727.727,0,0,0-.41-.652,4.626,4.626,0,0,0-1.317-.426q-3.015-.633-3.015-2.563a2.322,2.322,0,0,1,.933-1.879,3.766,3.766,0,0,1,2.442-.753,4.055,4.055,0,0,1,2.574.757,2.388,2.388,0,0,1,.965,1.969h-2.258a1.094,1.094,0,0,0-.312-.8,1.324,1.324,0,0,0-.977-.317,1.349,1.349,0,0,0-.883.258.81.81,0,0,0-.312.656.694.694,0,0,0,.355.6,3.647,3.647,0,0,0,1.2.4,9.708,9.708,0,0,1,1.422.379,2.334,2.334,0,0,1,1.788,2.272,2.2,2.2,0,0,1-.992,1.871,4.274,4.274,0,0,1-2.562.715,4.471,4.471,0,0,1-1.887-.379,3.163,3.163,0,0,1-1.293-1.039,2.414,2.414,0,0,1-.469-1.426h2.141a1.178,1.178,0,0,0,.445.922,1.759,1.759,0,0,0,1.11.321,1.643,1.643,0,0,0,.98-.246.768.768,0,0,0,.332-.645" fill="#636363"/>
            <path id="Trazado_158153" data-name="Trazado 158153" d="M261.054,156.7a5.007,5.007,0,0,1,.485-2.242,3.541,3.541,0,0,1,1.394-1.524,4.074,4.074,0,0,1,2.113-.539,3.843,3.843,0,0,1,2.793,1.047,4.209,4.209,0,0,1,1.207,2.844l.017.578a4.421,4.421,0,0,1-1.087,3.121,4.207,4.207,0,0,1-5.832,0,4.5,4.5,0,0,1-1.09-3.185Zm2.259.16a3.147,3.147,0,0,0,.452,1.84,1.629,1.629,0,0,0,2.578.008,3.462,3.462,0,0,0,.457-2.017,3.129,3.129,0,0,0-.461-1.831,1.5,1.5,0,0,0-1.3-.65,1.473,1.473,0,0,0-1.281.646,3.511,3.511,0,0,0-.452,2" fill="#636363"/>
            <path id="Trazado_158154" data-name="Trazado 158154" d="M272.531,152.547l.07.977a2.952,2.952,0,0,1,2.43-1.133,2.45,2.45,0,0,1,2,.789,3.682,3.682,0,0,1,.669,2.359V161h-2.255v-5.406a1.465,1.465,0,0,0-.312-1.043,1.4,1.4,0,0,0-1.04-.324,1.55,1.55,0,0,0-1.429.812V161h-2.258v-8.453Z" fill="#636363"/>
            <path id="Trazado_158155" data-name="Trazado 158155" d="M279.062,156.7a5.007,5.007,0,0,1,.485-2.242,3.541,3.541,0,0,1,1.394-1.524,4.074,4.074,0,0,1,2.113-.539,3.847,3.847,0,0,1,2.793,1.047,4.209,4.209,0,0,1,1.207,2.844l.016.578a4.42,4.42,0,0,1-1.086,3.121,4.207,4.207,0,0,1-5.832,0,4.494,4.494,0,0,1-1.09-3.185Zm2.258.16a3.155,3.155,0,0,0,.453,1.84,1.629,1.629,0,0,0,2.578.008,3.465,3.465,0,0,0,.461-2.015,3.137,3.137,0,0,0-.461-1.831,1.5,1.5,0,0,0-1.3-.65,1.473,1.473,0,0,0-1.281.646,3.512,3.512,0,0,0-.453,2" fill="#636363"/>
            <path id="Trazado_158156" data-name="Trazado 158156" d="M293.211,154.664a6.125,6.125,0,0,0-.811-.064,1.654,1.654,0,0,0-1.68.867V161h-2.259v-8.453h2.133l.062,1.008a2.089,2.089,0,0,1,1.883-1.164,2.371,2.371,0,0,1,.7.1Z" fill="#636363"/>
            <path id="Trazado_158157" data-name="Trazado 158157" d="M298.961,161a2.485,2.485,0,0,1-.226-.758,2.732,2.732,0,0,1-2.133.915,3,3,0,0,1-2.059-.719,2.313,2.313,0,0,1-.816-1.813,2.387,2.387,0,0,1,1-2.062,4.9,4.9,0,0,1,2.873-.727h1.039v-.484a1.4,1.4,0,0,0-.3-.938,1.184,1.184,0,0,0-.949-.351,1.347,1.347,0,0,0-.9.273.931.931,0,0,0-.324.75h-2.257a2.265,2.265,0,0,1,.453-1.359,3,3,0,0,1,1.282-.981,4.667,4.667,0,0,1,1.859-.355,3.7,3.7,0,0,1,2.481.785,2.753,2.753,0,0,1,.918,2.207v3.664a4.035,4.035,0,0,0,.335,1.82V161Zm-1.867-1.57a1.935,1.935,0,0,0,.922-.223,1.459,1.459,0,0,0,.625-.6v-1.45H297.8q-1.7,0-1.8,1.171l-.007.133a.9.9,0,0,0,.3.7,1.15,1.15,0,0,0,.812.273" fill="#636363"/>
          </g>
        </g>
        <g id="Grupo_71110" data-name="Grupo 71110">
          <g id="Grupo_71109" data-name="Grupo 71109" clip-path="url(#clip-path-2)">
            <rect id="Rectángulo_11618" data-name="Rectángulo 11618" width="110" height="86.466" transform="translate(197.741 26.031)" fill="url(#linear-gradient)"/>
          </g>
        </g>
        <g id="Grupo_71112" data-name="Grupo 71112">
          <g id="Grupo_71111" data-name="Grupo 71111" clip-path="url(#clip-path-3)">
            <path id="Trazado_158159" data-name="Trazado 158159" d="M291.7,100.211c-5.256-4.641-27.745-8.4-28.324-8.5H242.1c-.58.1-23.068,3.859-28.324,8.5-1.875,1.655-4.079,6.586-6.149,12.28a55.071,55.071,0,0,0,30.985,21.7l14.122-2.553,14.129,2.553a55.073,55.073,0,0,0,30.986-21.7c-2.071-5.694-4.274-10.625-6.149-12.28" fill="#213159"/>
            <path id="Trazado_158160" data-name="Trazado 158160" d="M245.778,133.963A58.912,58.912,0,0,1,224.6,95.593c-1.064.305-2.108.623-3.109.953-3.358,1.11-6.225,2.352-7.711,3.665a5.673,5.673,0,0,0-.6.626c-1.736,2.071-3.7,6.556-5.55,11.654v.005A55.008,55.008,0,0,0,243.206,135.2Z" fill="#23314c"/>
            <path id="Trazado_158161" data-name="Trazado 158161" d="M215.715,116.914V121.7a55.406,55.406,0,0,0,5.073,4.1l-2.7-9.227a1.21,1.21,0,0,0-2.372.34" fill="#182130"/>
            <path id="Trazado_158162" data-name="Trazado 158162" d="M289.766,116.914V121.7a55.4,55.4,0,0,1-5.073,4.1l2.7-9.227a1.21,1.21,0,0,1,2.371.34" fill="#182130"/>
            <path id="Trazado_158163" data-name="Trazado 158163" d="M279.761,110.9c-2.823-14.13-12.066-30.206-27.02-30.206s-24.2,16.076-27.021,30.206a4.843,4.843,0,0,0,3.509,5.628l.437.116a4.837,4.837,0,0,1,3.272,2.928l5.673,14.625a54.885,54.885,0,0,0,9.615,1.651l4.515-5.237,4.515,5.237a54.782,54.782,0,0,0,9.614-1.652l5.673-14.624a4.842,4.842,0,0,1,3.273-2.929l.437-.115a4.842,4.842,0,0,0,3.508-5.628" fill="#364a72"/>
            <path id="Trazado_158164" data-name="Trazado 158164" d="M265.623,92.109H239.858l8.367,43.738q2.233.182,4.515.184t4.516-.184Z" fill="#e9efff"/>
            <path id="Trazado_158165" data-name="Trazado 158165" d="M257.256,135.847l.939-4.909c-6.889-8.463-11.6-21.4-11.6-35.424v-3.4h-6.735l8.367,43.738q2.235.182,4.516.184T257.256,135.847Z" fill="#acbbef"/>
            <path id="Trazado_158166" data-name="Trazado 158166" d="M242.1,83.423h21.275a2.245,2.245,0,0,1,2.245,2.245v6.441s-3.688,4.112-12.882,4.112-12.883-4.112-12.883-4.112V85.668a2.245,2.245,0,0,1,2.245-2.245" fill="#e0e9fc"/>
            <path id="Trazado_158167" data-name="Trazado 158167" d="M246.593,85.668a2.245,2.245,0,0,1,2.245-2.245H242.1a2.245,2.245,0,0,0-2.245,2.245v6.441s2.005,2.23,6.735,3.4Z" fill="#9caddb"/>
            <path id="Trazado_158168" data-name="Trazado 158168" d="M276.344,49.635a23.6,23.6,0,0,0-23.6-23.6V54.142h23.6Z" fill="#774332"/>
            <path id="Trazado_158169" data-name="Trazado 158169" d="M229.137,49.635v4.507h23.6V26.031a23.6,23.6,0,0,0-23.6,23.6" fill="#774332"/>
            <path id="Trazado_158170" data-name="Trazado 158170" d="M269.59,56.464s2.331-5.676,6.487-4.357-.1,13.617-8.21,14.392Z" fill="#fcad6d"/>
            <path id="Trazado_158171" data-name="Trazado 158171" d="M235.891,56.464s-2.331-5.676-6.487-4.357.1,13.617,8.21,14.392Z" fill="#fd995b"/>
            <path id="Trazado_158172" data-name="Trazado 158172" d="M268.69,49.1a24.842,24.842,0,0,0-3.642-7.345,11.043,11.043,0,0,0-2.784-2.043,7.2,7.2,0,0,0-4.974-.561,19.075,19.075,0,0,1-9.1,0,7.2,7.2,0,0,0-4.975.561,11.038,11.038,0,0,0-2.783,2.043A24.82,24.82,0,0,0,236.79,49.1a7.021,7.021,0,0,1-3.7,4.107c-.007.276-.014.552-.014.832,0,14.48,8.8,31.463,19.664,31.463S272.4,68.517,272.4,54.037c0-.28-.007-.556-.014-.832A7.023,7.023,0,0,1,268.69,49.1Z" fill="#f9ba8f"/>
            <path id="Trazado_158173" data-name="Trazado 158173" d="M242.055,54.037a29.69,29.69,0,0,1,3.829-15.075,7.525,7.525,0,0,0-2.668.748,11.043,11.043,0,0,0-2.783,2.044A24.8,24.8,0,0,0,236.79,49.1a7.021,7.021,0,0,1-3.7,4.107c-.007.277-.014.553-.014.832,0,14.481,8.8,31.464,19.664,31.464a11.142,11.142,0,0,0,4.49-.976c-8.7-3.806-15.175-18.067-15.175-30.488" fill="#fcad6d"/>
            <path id="Trazado_158174" data-name="Trazado 158174" d="M272.78,51.256h-2.191l-4.547,13.2a3.364,3.364,0,0,1-5.3,1.518,12.015,12.015,0,0,0-16,0,3.365,3.365,0,0,1-5.3-1.518l-4.547-13.2H232.7c-3.564,25.419,7.626,40.456,20.04,40.456S276.344,76.675,272.78,51.256Z" fill="#774332"/>
            <path id="Trazado_158175" data-name="Trazado 158175" d="M244.955,65.811c-.071.056-.143.111-.212.167a3.365,3.365,0,0,1-5.3-1.518l-4.548-13.2H232.7c-3.564,25.419,7.626,40.456,20.04,40.456-10.96-4.833-13.13-20.953-7.786-25.9" fill="#633f32"/>
            <path id="Trazado_158176" data-name="Trazado 158176" d="M249.6,64.295l1.894-3.017a1.471,1.471,0,0,1,2.492,0l1.894,3.017a1.471,1.471,0,0,1-1.246,2.253h-3.788a1.471,1.471,0,0,1-1.246-2.253" fill="#fd995b"/>
            <path id="Trazado_158177" data-name="Trazado 158177" d="M248.112,75.165h9.256a6.994,6.994,0,0,0,2.023-3.06,1.677,1.677,0,0,0-1.6-2.19h-10.1a1.678,1.678,0,0,0-1.6,2.19,7,7,0,0,0,2.023,3.06" fill="#162544"/>
            <path id="Trazado_158178" data-name="Trazado 158178" d="M257.369,75.165a6.992,6.992,0,0,1-9.256,0,6.992,6.992,0,0,1,9.256,0" fill="#ff4155"/>
            <path id="Trazado_158179" data-name="Trazado 158179" d="M237.026,21.092h31.429a4.489,4.489,0,0,1,4.489,4.49V43.534H232.536V25.582a4.49,4.49,0,0,1,4.49-4.49" fill="#364a72"/>
            <path id="Trazado_158180" data-name="Trazado 158180" d="M250.5,21.092H237.027a4.49,4.49,0,0,0-4.49,4.49V43.534h13.469V25.582a4.49,4.49,0,0,1,4.49-4.49" fill="#213159"/>
            <path id="Trazado_158181" data-name="Trazado 158181" d="M231.414,37.473h42.653a2.245,2.245,0,0,1,2.245,2.245v6.735H229.169V39.718a2.245,2.245,0,0,1,2.245-2.245" fill="#bc332e"/>
            <path id="Trazado_158182" data-name="Trazado 158182" d="M244.883,37.473H231.414a2.245,2.245,0,0,0-2.245,2.245v6.735h13.469V39.718a2.245,2.245,0,0,1,2.245-2.245" fill="#9b2929"/>
            <path id="Trazado_158183" data-name="Trazado 158183" d="M282.33,43.934a3.376,3.376,0,0,0-4.039-3.3,52.513,52.513,0,0,0-8.774,2.671,46.211,46.211,0,0,1-33.554,0,52.5,52.5,0,0,0-8.773-2.671,3.371,3.371,0,1,0-1.334,6.609,46.409,46.409,0,0,1,7.742,2.368,52.952,52.952,0,0,0,38.284,0,46.438,46.438,0,0,1,7.742-2.368A3.366,3.366,0,0,0,282.33,43.934Z" fill="#364a72"/>
            <path id="Trazado_158184" data-name="Trazado 158184" d="M223.151,43.934a3.366,3.366,0,0,0,2.705,3.3,46.421,46.421,0,0,1,7.743,2.368,58.983,58.983,0,0,0,7.044,2.288,3.453,3.453,0,0,1,1.46-6.583h0a53.21,53.21,0,0,1-6.143-2.011,52.542,52.542,0,0,0-8.774-2.671,3.376,3.376,0,0,0-4.039,3.3" fill="#213159"/>
            <path id="Trazado_158185" data-name="Trazado 158185" d="M265.141,57.466a2.806,2.806,0,1,0-5.612,0,1.161,1.161,0,0,0,1.984.787,1.162,1.162,0,0,1,1.644,0A1.161,1.161,0,0,0,265.141,57.466Z" fill="#162544"/>
            <path id="Trazado_158186" data-name="Trazado 158186" d="M240.34,57.466a2.806,2.806,0,1,1,5.612,0,1.161,1.161,0,0,1-1.984.787,1.162,1.162,0,0,0-1.644,0,1.161,1.161,0,0,1-1.984-.787" fill="#162544"/>
            <path id="Trazado_158187" data-name="Trazado 158187" d="M295.609,62a20.064,20.064,0,0,1-4.021-5.6l-.837-1.867a.985.985,0,0,0-1.87.239l-2.566,15.24a3.9,3.9,0,0,0-1.851-.867,3.94,3.94,0,1,0,3.231,4.539l2.592-15.4A24.273,24.273,0,0,0,294.2,63.37a2.926,2.926,0,0,1,.8,2.553,2.96,2.96,0,0,1-3.4,2.424.985.985,0,1,0-.327,1.942A4.925,4.925,0,0,0,295.609,62"/>
            <path id="Trazado_158188" data-name="Trazado 158188" d="M313.8,66.13,299.414,67.7a.988.988,0,0,0-.862.816l-2.216,13.168a3.893,3.893,0,0,0-1.852-.867,3.94,3.94,0,1,0,3.231,4.539c.038-.221,2-11.894,2-11.894l12.346-1.347-1.346,7.995a3.89,3.89,0,0,0-1.851-.868,3.94,3.94,0,1,0,3.231,4.54c.037-.222,2.78-16.513,2.78-16.513A.986.986,0,0,0,313.8,66.13" fill="#bc332e"/>
            <path id="Trazado_158189" data-name="Trazado 158189" d="M204.9,110.067a56.413,56.413,0,0,0,96.043,0" fill="none" stroke="#bc332e" stroke-linecap="round" stroke-linejoin="round" stroke-width="2"/>
          </g>
        </g>
      </g>
    </g>
  </g>
</svg>
