<svg xmlns="http://www.w3.org/2000/svg" xmlns:xlink="http://www.w3.org/1999/xlink" width="505" height="186" viewBox="0 0 505 186">
  <defs>
    <linearGradient id="linear-gradient" x1="0.5" x2="0.5" y2="1" gradientUnits="objectBoundingBox">
      <stop offset="0" stop-color="#fff8e3"/>
      <stop offset="1" stop-color="#fff"/>
    </linearGradient>
    <clipPath id="clip-path">
      <path id="Trazado_158190" data-name="Trazado 158190" d="M193.129,81.089a54.735,54.735,0,0,0,9.885,31.459h90.23A55,55,0,1,0,193.129,81.089" fill="url(#linear-gradient)"/>
    </clipPath>
    <clipPath id="clip-path-2">
      <rect id="Rectángulo_11622" data-name="Rectángulo 11622" width="505" height="186" fill="none"/>
    </clipPath>
    <clipPath id="clip-path-3">
      <rect id="Rectángulo_11623" data-name="Rectángulo 11623" width="152.539" height="12.156" transform="translate(171.859 149)" fill="none"/>
    </clipPath>
  </defs>
  <g id="Grupo_71255" data-name="Grupo 71255" transform="translate(-810 -4227.34)">
    <g id="Grupo_71181" data-name="Grupo 71181" transform="translate(-8901 11660.34)">
      <g id="Grupo_71174" data-name="Grupo 71174">
        <g id="Grupo_71175" data-name="Grupo 71175">
          <rect id="Rectángulo_11591" data-name="Rectángulo 11591" width="505" height="186" transform="translate(9711 -7433)" fill="#fff8e3"/>
          <g id="Grupo_71121" data-name="Grupo 71121" transform="translate(9711 -7433)">
            <g id="Grupo_71114" data-name="Grupo 71114">
              <g id="Grupo_71113" data-name="Grupo 71113" clip-path="url(#clip-path)">
                <rect id="Rectángulo_11621" data-name="Rectángulo 11621" width="110" height="86.46" transform="translate(193.129 26.088)" fill="url(#linear-gradient)"/>
              </g>
            </g>
            <g id="Grupo_71116" data-name="Grupo 71116">
              <g id="Grupo_71115" data-name="Grupo 71115" clip-path="url(#clip-path-2)">
                <path id="Trazado_158191" data-name="Trazado 158191" d="M293.24,112.548c-1.853-5.1-3.814-9.582-5.55-11.653a5.881,5.881,0,0,0-.6-.627c-1.487-1.313-4.353-2.555-7.711-3.664a165.724,165.724,0,0,0-20.613-4.836H237.492A165.682,165.682,0,0,0,216.879,96.6c-3.359,1.109-6.225,2.351-7.712,3.664a5.878,5.878,0,0,0-.6.627c-1.735,2.071-3.7,6.555-5.55,11.653v.006a55.008,55.008,0,0,0,35.57,22.708l9.541-4.595,9.541,4.6a55.01,55.01,0,0,0,35.57-22.709v-.006" fill="#dae2fe"/>
                <path id="Trazado_158192" data-name="Trazado 158192" d="M241.166,134.021a58.912,58.912,0,0,1-21.179-38.37c-1.064.305-2.108.623-3.109.953-3.358,1.11-6.225,2.352-7.711,3.665a5.673,5.673,0,0,0-.6.626c-1.736,2.071-3.7,6.556-5.55,11.654v0a55.008,55.008,0,0,0,35.577,22.706Z" fill="#bec8f7"/>
                <path id="Trazado_158193" data-name="Trazado 158193" d="M275.149,110.956c-2.823-14.13-12.066-30.205-27.02-30.205s-24.2,16.075-27.021,30.205a4.844,4.844,0,0,0,3.509,5.629l.437.116a4.837,4.837,0,0,1,3.272,2.928L234,134.253a54.885,54.885,0,0,0,9.615,1.651l4.515-5.237,4.515,5.237a54.781,54.781,0,0,0,9.614-1.652l5.673-14.623A4.842,4.842,0,0,1,271.2,116.7l.437-.115a4.843,4.843,0,0,0,3.508-5.629" fill="#e9efff"/>
                <path id="Trazado_158194" data-name="Trazado 158194" d="M240,109.88l8.125,4.585,8.125-4.585,2.513-18.112V70.815H237.492V91.768Z" fill="#ffe5d2"/>
                <path id="Trazado_158195" data-name="Trazado 158195" d="M240,109.88l3.61,26.024q2.233.181,4.515.184t4.516-.184l3.61-26.024Z" fill="#ffe5d2"/>
                <path id="Trazado_158196" data-name="Trazado 158196" d="M237.491,70.7V91.768c21.264,0,21.275-11.987,21.275-11.987V70.7Z" fill="#ddbca6"/>
                <path id="Trazado_158197" data-name="Trazado 158197" d="M217.781,126.958a16.989,16.989,0,0,1,1.056-12.037,1.18,1.18,0,0,0-1.918-1.318,17.852,17.852,0,0,0-4.621,9.205,55.04,55.04,0,0,0,5.483,4.15" fill="#acbbef"/>
                <path id="Trazado_158198" data-name="Trazado 158198" d="M278.477,126.958a16.989,16.989,0,0,0-1.056-12.037,1.18,1.18,0,0,1,1.918-1.318,17.852,17.852,0,0,1,4.621,9.205,55.04,55.04,0,0,1-5.483,4.15" fill="#bec8f7"/>
                <path id="Trazado_158199" data-name="Trazado 158199" d="M270.476,39.831c-2.84-9.24-10.133-18.682-18.112-18.682-2.746,0-4.235,2.694-4.235,2.694s-1.489-2.694-4.236-2.694c-7.979,0-15.272,9.443-18.112,18.683a23.555,23.555,0,0,0-1.254,7.528c0,.029,0,.058,0,.087V54.2h47.207V47.447a23.573,23.573,0,0,0-1.256-7.616" fill="#876557"/>
                <path id="Trazado_158200" data-name="Trazado 158200" d="M241.273,54.2V39.02c-4.9-3.189-7.1-14.082.3-17.6C234.527,23,228.343,31.5,225.781,39.833a23.555,23.555,0,0,0-1.254,7.528c0,.029,0,.058,0,.086V54.2Z" fill="#876557"/>
                <path id="Trazado_158201" data-name="Trazado 158201" d="M231.279,56.971s-2.331-5.676-6.487-4.358.1,13.618,8.21,14.393Z" fill="#ffe5d2"/>
                <path id="Trazado_158202" data-name="Trazado 158202" d="M264.979,56.971s2.331-5.676,6.487-4.358-.1,13.618-8.21,14.393Z" fill="#ffe5d2"/>
                <path id="Trazado_158203" data-name="Trazado 158203" d="M264.079,49.156a24.843,24.843,0,0,0-3.642-7.345,11.043,11.043,0,0,0-2.784-2.043,7.2,7.2,0,0,0-4.974-.561,19.074,19.074,0,0,1-9.1,0,7.2,7.2,0,0,0-4.975.561,11.038,11.038,0,0,0-2.783,2.043,24.82,24.82,0,0,0-3.643,7.345,7.021,7.021,0,0,1-3.7,4.107c-.007.276-.014.552-.014.832,0,14.48,8.8,31.463,19.664,31.463S267.794,68.575,267.794,54.1c0-.28-.007-.556-.014-.832A7.023,7.023,0,0,1,264.079,49.156Z" fill="#e9efff"/>
                <path id="Trazado_158204" data-name="Trazado 158204" d="M237.444,54.094a29.691,29.691,0,0,1,3.829-15.075,7.525,7.525,0,0,0-2.668.748,11.043,11.043,0,0,0-2.783,2.044,24.8,24.8,0,0,0-3.643,7.344,7.021,7.021,0,0,1-3.7,4.107c-.007.277-.014.553-.014.832,0,14.481,8.8,31.464,19.664,31.464a11.142,11.142,0,0,0,4.49-.976c-8.7-3.806-15.175-18.067-15.175-30.488" fill="#dbdbdb"/>
                <path id="Trazado_158205" data-name="Trazado 158205" d="M224.831,43.659s28.182-20.825,45.645-3.828l2.606-18.417s-20.821-10.573-49.907,3.912l-6.866,5.348Z" fill="#e9efff"/>
                <path id="Trazado_158206" data-name="Trazado 158206" d="M251.679,48.531s10.281,6.737,10.477,16.454c0,0-7.313-12.938-10.477-16.454" fill="#ffe5d2"/>
                <path id="Trazado_158207" data-name="Trazado 158207" d="M262.156,69.318a23.19,23.19,0,0,0-10.651-20.412,50.483,50.483,0,0,0-4.913-2.746c1.186.411,2.389.823,3.554,1.321a29.166,29.166,0,0,1,3.315,1.886,19.938,19.938,0,0,1,8.7,19.951" fill="#dbdbdb"/>
                <path id="Trazado_158208" data-name="Trazado 158208" d="M260.219,78.021c-4.113-11.607-11.686-22.435-22.445-28.706-1.466-.971-3.181-1.65-4.726-2.489,13.784,4.533,23.841,17.325,27.171,31.2" fill="#dbdbdb"/>
                <path id="Trazado_158209" data-name="Trazado 158209" d="M236.842,61.891a7.865,7.865,0,0,0,1.693-.007c6.887-.422,11.5,6.07,12.952,12.106a34.4,34.4,0,0,1,1.132,6.761c-.3-1.1-.537-2.213-.866-3.3-1.684-6.154-4.658-13.541-11.569-15.028-1.09-.331-2.271-.195-3.342-.533" fill="#dbdbdb"/>
                <path id="Trazado_158210" data-name="Trazado 158210" d="M231.958,59.771q5.381,8.532,9.891,17.559-5.384-8.531-9.891-17.559" fill="#ccc6c6"/>
                <path id="Trazado_158211" data-name="Trazado 158211" d="M231.679,62.541q5.381,8.532,9.891,17.559-5.384-8.53-9.891-17.559" fill="#ccc6c6"/>
                <path id="Trazado_158212" data-name="Trazado 158212" d="M262.69,94.38a152.163,152.163,0,0,1,8.368,12.764A151.99,151.99,0,0,1,262.69,94.38" fill="#ccc6c6"/>
                <path id="Trazado_158213" data-name="Trazado 158213" d="M262.455,96.394a152.163,152.163,0,0,1,8.368,12.764,152.169,152.169,0,0,1-8.368-12.764" fill="#ccc6c6"/>
                <path id="Trazado_158214" data-name="Trazado 158214" d="M240.155,58.415Q239.976,68.5,238.8,78.522q.174-10.086,1.356-20.107" fill="#ccc6c6"/>
                <path id="Trazado_158215" data-name="Trazado 158215" d="M234.874,43.023s1.288,3.235.3,5.344-.961,3.211-.421,4.735.233,4.336-1.1,4.148-1.147-2.156-.117-2.367.783-1.734.591-2.578a6,6,0,0,1,.487-3.422c.539-1.219-.571-4.27-.571-4.27Z" fill="#a03838"/>
                <path id="Trazado_158216" data-name="Trazado 158216" d="M269.224,99.044a151.854,151.854,0,0,1-3.109,14.943,152.147,152.147,0,0,1,3.109-14.943" fill="#ccc6c6"/>
                <path id="Trazado_158217" data-name="Trazado 158217" d="M267.633,100.3a151.846,151.846,0,0,1-3.109,14.943,152.147,152.147,0,0,1,3.109-14.943" fill="#ccc6c6"/>
                <path id="Trazado_158218" data-name="Trazado 158218" d="M227.279,100.882s-1.652.457-1.3,1.09,1.055-.281,1.125.351.528,1.723,1.055,1.055.035-1.125,0-1.406.879-.141.492-.879-1.371-.211-1.371-.211" fill="#a03838"/>
                <path id="Trazado_158219" data-name="Trazado 158219" d="M230.9,103.061a.773.773,0,1,0-.773.773.773.773,0,0,0,.773-.773" fill="#a03838"/>
                <path id="Trazado_158220" data-name="Trazado 158220" d="M278.075,103.061a.773.773,0,1,0-.773.773.773.773,0,0,0,.773-.773" fill="#a03838"/>
                <path id="Trazado_158221" data-name="Trazado 158221" d="M275.631,100.618a.773.773,0,1,0-.773.773.773.773,0,0,0,.773-.773" fill="#a03838"/>
                <path id="Trazado_158222" data-name="Trazado 158222" d="M258,78.518a.773.773,0,1,0-.773.773.773.773,0,0,0,.773-.773" fill="#a03838"/>
                <path id="Trazado_158223" data-name="Trazado 158223" d="M256.381,77.242a.434.434,0,1,0-.434.434.434.434,0,0,0,.434-.434" fill="#a03838"/>
                <path id="Trazado_158224" data-name="Trazado 158224" d="M278.944,101.683c-.17-.245-.7-.172-1.177.162s-.732.8-.562,1.047.7.172,1.178-.162.731-.8.561-1.047" fill="#a03838"/>
                <path id="Trazado_158225" data-name="Trazado 158225" d="M227.233,23.455c-1.335.576-2.684,1.187-4.058,1.871l-6.866,5.349,8.522,12.984A64.353,64.353,0,0,1,244.1,34.481c-1.036-.786-3.3-1.794-8.2-2.686-6.3-1.144-8.156-5.4-8.671-8.34" fill="#ced2db"/>
                <path id="Trazado_158226" data-name="Trazado 158226" d="M247.038,66.6l5.428,13.5s-2.791-11.424-5.428-13.5" fill="#ffe5d2"/>
                <path id="Trazado_158227" data-name="Trazado 158227" d="M256.124,77.242a1.086,1.086,0,0,1-.366-.882c.024-.614-.142-.732-.177-.094s-.237,1.1.034,1.253.509-.277.509-.277" fill="#a03838"/>
                <path id="Trazado_158228" data-name="Trazado 158228" d="M200.108,110.067a56.413,56.413,0,0,0,96.043,0" fill="none" stroke="#bc332e" stroke-linecap="round" stroke-linejoin="round" stroke-width="2"/>
                <path id="Trazado_158229" data-name="Trazado 158229" d="M266.537,123.222a3.99,3.99,0,0,0-4.083,3.536c-.755,3.779-.188,3.4-.755,3.779s-1.607.52-1.748,1.37a18.87,18.87,0,0,0,0,2.9l2.307-.558Z" fill="#a03838"/>
                <path id="Trazado_158230" data-name="Trazado 158230" d="M177.178,152.5l1.431,4.258h-2.844Zm-1.085-2.875L171.859,161h2.492l.781-2.343h4.109l.79,2.343h2.492l-4.258-11.375Z" fill="#636363"/>
              </g>
            </g>
            <g id="Grupo_71118" data-name="Grupo 71118">
              <g id="Grupo_71117" data-name="Grupo 71117" clip-path="url(#clip-path-3)">
                <path id="Trazado_158231" data-name="Trazado 158231" d="M185.179,152.547l.07.945a2.972,2.972,0,0,1,2.43-1.1,2.253,2.253,0,0,1,2.242,1.288,2.9,2.9,0,0,1,2.538-1.289,2.518,2.518,0,0,1,2.047.8,3.689,3.689,0,0,1,.673,2.409V161h-2.266v-5.39a1.6,1.6,0,0,0-.281-1.051,1.243,1.243,0,0,0-.992-.332,1.407,1.407,0,0,0-1.406.968l.007,5.8h-2.257v-5.378a1.594,1.594,0,0,0-.289-1.062,1.261,1.261,0,0,0-.985-.328,1.461,1.461,0,0,0-1.39.8V161h-2.261v-8.453Z" fill="#636363"/>
                <path id="Trazado_158232" data-name="Trazado 158232" d="M204.531,156.852a5.118,5.118,0,0,1-.867,3.168,2.873,2.873,0,0,1-2.422,1.137,2.64,2.64,0,0,1-2.2-1.055l-.1.9h-2.028V149h2.257v4.3a2.572,2.572,0,0,1,2.055-.914,2.9,2.9,0,0,1,2.426,1.137,5.124,5.124,0,0,1,.879,3.2Zm-2.258-.164a3.376,3.376,0,0,0-.406-1.871,1.374,1.374,0,0,0-1.211-.59,1.489,1.489,0,0,0-1.485.883v3.336a1.509,1.509,0,0,0,1.5.89,1.4,1.4,0,0,0,1.438-1.078,5.574,5.574,0,0,0,.164-1.57" fill="#636363"/>
                <path id="Trazado_158233" data-name="Trazado 158233" d="M205.906,150.359a1.113,1.113,0,0,1,.34-.836,1.465,1.465,0,0,1,1.847,0,1.193,1.193,0,0,1,0,1.68,1.448,1.448,0,0,1-1.835,0,1.107,1.107,0,0,1-.348-.844M208.3,161h-2.266v-8.453H208.3Z" fill="#636363"/>
                <path id="Trazado_158234" data-name="Trazado 158234" d="M214.054,161.156a4.152,4.152,0,0,1-3.028-1.14,4.055,4.055,0,0,1-1.167-3.039v-.219a5.092,5.092,0,0,1,.493-2.277,3.621,3.621,0,0,1,1.394-1.547,3.911,3.911,0,0,1,2.059-.543,3.507,3.507,0,0,1,2.73,1.093,4.448,4.448,0,0,1,1,3.1v.922h-5.387a2.094,2.094,0,0,0,.66,1.328,2,2,0,0,0,1.394.5,2.437,2.437,0,0,0,2.039-.945l1.11,1.242a3.4,3.4,0,0,1-1.375,1.121,4.5,4.5,0,0,1-1.922.4m-.257-6.945a1.408,1.408,0,0,0-1.091.455,2.351,2.351,0,0,0-.534,1.3h3.14v-.174a1.688,1.688,0,0,0-.407-1.165,1.453,1.453,0,0,0-1.108-.412" fill="#636363"/>
                <path id="Trazado_158235" data-name="Trazado 158235" d="M220.89,152.547l.07.977a2.952,2.952,0,0,1,2.43-1.133,2.451,2.451,0,0,1,2,.789,3.682,3.682,0,0,1,.669,2.359V161H223.8v-5.406a1.465,1.465,0,0,0-.312-1.043,1.4,1.4,0,0,0-1.04-.324,1.55,1.55,0,0,0-1.429.812V161h-2.258v-8.453Z" fill="#636363"/>
                <path id="Trazado_158236" data-name="Trazado 158236" d="M230.476,150.469v2.078h1.445V154.2h-1.445v4.222a1,1,0,0,0,.18.672.9.9,0,0,0,.687.2,3.6,3.6,0,0,0,.664-.055v1.711a4.621,4.621,0,0,1-1.367.2,2.157,2.157,0,0,1-2.42-1.855,2.209,2.209,0,0,1,0-.545V154.2h-1.234v-1.653h1.234v-2.078Z" fill="#636363"/>
                <path id="Trazado_158237" data-name="Trazado 158237" d="M238.078,161a2.484,2.484,0,0,1-.226-.758,2.732,2.732,0,0,1-2.133.915,3,3,0,0,1-2.059-.719,2.312,2.312,0,0,1-.816-1.813,2.387,2.387,0,0,1,1-2.062,4.9,4.9,0,0,1,2.879-.727h1.036v-.484a1.4,1.4,0,0,0-.3-.938,1.184,1.184,0,0,0-.949-.351,1.348,1.348,0,0,0-.9.273.931.931,0,0,0-.324.75h-2.255a2.265,2.265,0,0,1,.453-1.359,3,3,0,0,1,1.282-.981,4.667,4.667,0,0,1,1.859-.355,3.7,3.7,0,0,1,2.481.785,2.753,2.753,0,0,1,.918,2.207v3.664a4.035,4.035,0,0,0,.335,1.82V161Zm-1.867-1.57a1.935,1.935,0,0,0,.922-.223,1.459,1.459,0,0,0,.625-.6v-1.45h-.844q-1.7,0-1.805,1.171l-.007.133a.9.9,0,0,0,.3.7,1.15,1.15,0,0,0,.812.273" fill="#636363"/>
                <path id="Trazado_158238" data-name="Trazado 158238" d="M245.273,159.336a1.48,1.48,0,0,0,1.016-.344,1.209,1.209,0,0,0,.406-.914h2.117a2.9,2.9,0,0,1-.469,1.574,3.1,3.1,0,0,1-1.261,1.11,3.971,3.971,0,0,1-1.77.394A3.665,3.665,0,0,1,242.453,160a4.558,4.558,0,0,1-1.047-3.18v-.148a4.508,4.508,0,0,1,1.039-3.117,3.62,3.62,0,0,1,2.851-1.164,3.551,3.551,0,0,1,2.543.9,3.2,3.2,0,0,1,.973,2.4H246.7a1.565,1.565,0,0,0-.406-1.072,1.511,1.511,0,0,0-2.136.062c-.03.033-.059.066-.087.1a3.323,3.323,0,0,0-.4,1.866v.235a3.38,3.38,0,0,0,.4,1.878,1.377,1.377,0,0,0,1.211.571" fill="#636363"/>
                <path id="Trazado_158239" data-name="Trazado 158239" d="M250.086,150.359a1.116,1.116,0,0,1,.339-.836,1.464,1.464,0,0,1,1.848,0,1.193,1.193,0,0,1,0,1.68,1.45,1.45,0,0,1-1.836,0,1.113,1.113,0,0,1-.347-.844m2.4,10.641h-2.266v-8.453h2.266Z" fill="#636363"/>
                <path id="Trazado_158240" data-name="Trazado 158240" d="M253.992,156.7a5.006,5.006,0,0,1,.484-2.242,3.533,3.533,0,0,1,1.394-1.528,4.066,4.066,0,0,1,2.114-.539,3.848,3.848,0,0,1,2.793,1.046,4.214,4.214,0,0,1,1.207,2.844l.015.578a4.42,4.42,0,0,1-1.086,3.121,4.207,4.207,0,0,1-5.832,0,4.5,4.5,0,0,1-1.089-3.18Zm2.257.16a3.157,3.157,0,0,0,.453,1.84,1.628,1.628,0,0,0,2.282.3,1.6,1.6,0,0,0,.3-.3,3.472,3.472,0,0,0,.46-2.015,3.138,3.138,0,0,0-.46-1.831,1.5,1.5,0,0,0-1.3-.649,1.473,1.473,0,0,0-1.282.645,3.52,3.52,0,0,0-.453,2M258.429,149h2.461l-2.164,2.422H256.89Z" fill="#636363"/>
                <path id="Trazado_158241" data-name="Trazado 158241" d="M265.468,152.547l.07.977a2.952,2.952,0,0,1,2.43-1.133,2.45,2.45,0,0,1,2,.789,3.685,3.685,0,0,1,.672,2.359V161h-2.258v-5.406a1.465,1.465,0,0,0-.312-1.043,1.4,1.4,0,0,0-1.04-.324,1.55,1.55,0,0,0-1.429.812V161h-2.258v-8.453Z" fill="#636363"/>
                <path id="Trazado_158242" data-name="Trazado 158242" d="M280.914,158.664a.727.727,0,0,0-.41-.652,4.626,4.626,0,0,0-1.317-.426q-3.015-.633-3.015-2.563a2.322,2.322,0,0,1,.933-1.879,3.766,3.766,0,0,1,2.442-.753,4.055,4.055,0,0,1,2.574.757,2.389,2.389,0,0,1,.965,1.969h-2.258a1.094,1.094,0,0,0-.312-.8,1.324,1.324,0,0,0-.977-.317,1.349,1.349,0,0,0-.883.258.81.81,0,0,0-.312.656.694.694,0,0,0,.355.6,3.647,3.647,0,0,0,1.2.4,9.709,9.709,0,0,1,1.422.379,2.334,2.334,0,0,1,1.788,2.272,2.2,2.2,0,0,1-.992,1.871,4.274,4.274,0,0,1-2.562.715,4.471,4.471,0,0,1-1.887-.379,3.162,3.162,0,0,1-1.293-1.039,2.414,2.414,0,0,1-.469-1.426h2.141a1.178,1.178,0,0,0,.445.922,1.759,1.759,0,0,0,1.11.321,1.643,1.643,0,0,0,.98-.246.768.768,0,0,0,.332-.645" fill="#636363"/>
                <path id="Trazado_158243" data-name="Trazado 158243" d="M284.21,156.7a5.007,5.007,0,0,1,.485-2.242,3.541,3.541,0,0,1,1.394-1.524,4.074,4.074,0,0,1,2.113-.539,3.847,3.847,0,0,1,2.793,1.047,4.209,4.209,0,0,1,1.207,2.844l.016.578a4.42,4.42,0,0,1-1.086,3.121,4.207,4.207,0,0,1-5.832,0,4.493,4.493,0,0,1-1.09-3.188Zm2.258.16a3.15,3.15,0,0,0,.453,1.843,1.629,1.629,0,0,0,2.578.008,3.465,3.465,0,0,0,.461-2.015,3.137,3.137,0,0,0-.461-1.831,1.5,1.5,0,0,0-1.3-.65,1.473,1.473,0,0,0-1.281.646,3.512,3.512,0,0,0-.453,2" fill="#636363"/>
                <path id="Trazado_158244" data-name="Trazado 158244" d="M295.687,152.547l.07.977a2.952,2.952,0,0,1,2.43-1.133,2.45,2.45,0,0,1,2,.789,3.684,3.684,0,0,1,.672,2.359V161H298.6v-5.406a1.465,1.465,0,0,0-.312-1.043,1.4,1.4,0,0,0-1.04-.324,1.55,1.55,0,0,0-1.429.812V161h-2.261v-8.453Z" fill="#636363"/>
                <path id="Trazado_158245" data-name="Trazado 158245" d="M302.218,156.7a5.007,5.007,0,0,1,.485-2.242,3.541,3.541,0,0,1,1.394-1.524,4.074,4.074,0,0,1,2.113-.539A3.847,3.847,0,0,1,309,153.442a4.209,4.209,0,0,1,1.207,2.844l.016.578a4.42,4.42,0,0,1-1.086,3.121,4.207,4.207,0,0,1-5.832,0,4.493,4.493,0,0,1-1.09-3.188Zm2.258.16a3.155,3.155,0,0,0,.453,1.84,1.629,1.629,0,0,0,2.578.008,3.465,3.465,0,0,0,.461-2.015,3.129,3.129,0,0,0-.461-1.831,1.5,1.5,0,0,0-1.3-.65,1.473,1.473,0,0,0-1.281.646,3.512,3.512,0,0,0-.453,2" fill="#636363"/>
                <path id="Trazado_158246" data-name="Trazado 158246" d="M316.367,154.664a6.08,6.08,0,0,0-.808-.064,1.654,1.654,0,0,0-1.68.867V161h-2.258v-8.453h2.133l.062,1.008a2.089,2.089,0,0,1,1.883-1.164,2.37,2.37,0,0,1,.7.1Z" fill="#636363"/>
                <path id="Trazado_158247" data-name="Trazado 158247" d="M322.117,161a2.485,2.485,0,0,1-.226-.758,2.732,2.732,0,0,1-2.133.915,3,3,0,0,1-2.059-.719,2.313,2.313,0,0,1-.816-1.813,2.387,2.387,0,0,1,1-2.062,4.9,4.9,0,0,1,2.879-.727H321.8v-.484a1.4,1.4,0,0,0-.3-.938,1.184,1.184,0,0,0-.949-.351,1.348,1.348,0,0,0-.9.273.931.931,0,0,0-.324.75H317.07a2.265,2.265,0,0,1,.453-1.359,3,3,0,0,1,1.282-.981,4.667,4.667,0,0,1,1.859-.355,3.7,3.7,0,0,1,2.481.785,2.753,2.753,0,0,1,.918,2.207v3.664a4.035,4.035,0,0,0,.335,1.82V161Zm-1.867-1.57a1.935,1.935,0,0,0,.922-.223,1.459,1.459,0,0,0,.625-.6v-1.45h-.844q-1.7,0-1.8,1.171l-.007.133a.9.9,0,0,0,.3.7,1.15,1.15,0,0,0,.812.273" fill="#636363"/>
              </g>
            </g>
            <g id="Grupo_71120" data-name="Grupo 71120">
              <g id="Grupo_71119" data-name="Grupo 71119" clip-path="url(#clip-path-2)">
                <path id="Trazado_158248" data-name="Trazado 158248" d="M308.078,65.529a10.8,10.8,0,0,1-9.354,6.559l.822-4.575a5.986,5.986,0,0,1-3.61.966,4.473,4.473,0,0,1-2.85-2.126l-.821,4.575a10.807,10.807,0,0,1-6.488-9.405c-5.548,1.026-9.9,3.631-11.692,7.288,4.834,1.819,8.344,4.964,9.287,8.333a10.541,10.541,0,0,1,1.415.145,10.269,10.269,0,0,1,8.252,7.89,10.266,10.266,0,0,1,10.481-4.525,10.485,10.485,0,0,1,1.377.356c2.056-2.83,6.442-4.557,11.607-4.579-.411-4.054-3.581-8.01-8.426-10.9" fill="#57555c"/>
                <path id="Trazado_158249" data-name="Trazado 158249" d="M293.038,85.178c-.207-3.993-2.534-8.447-6.6-9.881a10.525,10.525,0,0,0-1.372-.371c-.389-3.477-3.348-7.145-7.826-9.718a.368.368,0,0,1-.1-.065,10.649,10.649,0,0,0-3.062,3.668c4.834,1.819,8.347,4.964,9.29,8.333a10.542,10.542,0,0,1,1.415.145,10.265,10.265,0,0,1,8.249,7.889" fill="#787780"/>
                <path id="Trazado_158250" data-name="Trazado 158250" d="M293.038,85.178c1.584-3.671,5.318-7.036,9.627-6.966a10.321,10.321,0,0,1,1.416.13c1.574-3.125,5.724-5.553,10.818-6.406a11.224,11.224,0,0,1,1.6,4.5c-5.164.022-9.55,1.749-11.606,4.579a10.485,10.485,0,0,0-1.377-.356,10.267,10.267,0,0,0-10.482,4.524" fill="#3b3a3c"/>
              </g>
            </g>
          </g>
        </g>
      </g>
    </g>
  </g>
</svg>
