<svg xmlns="http://www.w3.org/2000/svg" xmlns:xlink="http://www.w3.org/1999/xlink" width="1030" height="203" viewBox="0 0 1030 203">
  <defs>
    <linearGradient id="linear-gradient" x1="0.5" x2="0.5" y2="1" gradientUnits="objectBoundingBox">
      <stop offset="0" stop-color="#fee9cc"/>
      <stop offset="1" stop-color="#fff"/>
    </linearGradient>
    <clipPath id="clip-path">
      <rect id="Rectángulo_11628" data-name="Rectángulo 11628" width="1030" height="203" fill="none"/>
    </clipPath>
    <clipPath id="clip-path-2">
      <rect id="Rectángulo_11627" data-name="Rectángulo 11627" width="278.812" height="18.023" transform="translate(375.594 165.371)" fill="none"/>
    </clipPath>
    <clipPath id="clip-path-4">
      <path id="Trazado_158251" data-name="Trazado 158251" d="M460,99.09a54.742,54.742,0,0,0,9.888,31.465h90.223A55,55,0,1,0,460,99.09" fill="url(#linear-gradient)"/>
    </clipPath>
  </defs>
  <g id="Grupo_71251" data-name="Grupo 71251" transform="translate(-285 -4433.34)">
    <g id="Grupo_71179" data-name="Grupo 71179" transform="translate(-8898 11660.34)">
      <text id="Diálogos_y_efectos_de_audio_especiales_" data-name="Diálogos y efectos de audio especiales
" transform="translate(9401 -7116)" fill="#12263f" font-size="16" font-family="Roboto-Regular, Roboto"><tspan x="-137.879" y="15">Diálogos y efectos de audio especiales</tspan><tspan x="0" y="37"></tspan></text>
      <rect id="Rectángulo_11593" data-name="Rectángulo 11593" width="1030" height="203" transform="translate(9183 -7227)" fill="#fee9cc"/>
      <g id="Grupo_71134" data-name="Grupo 71134" transform="translate(9183 -7227)">
        <g id="Grupo_71129" data-name="Grupo 71129">
          <g id="Grupo_71128" data-name="Grupo 71128" clip-path="url(#clip-path)">
            <g id="Grupo_71127" data-name="Grupo 71127" style="isolation: isolate">
              <g id="Grupo_71126" data-name="Grupo 71126">
                <g id="Grupo_71125" data-name="Grupo 71125" clip-path="url(#clip-path-2)">
                  <g id="Grupo_71124" data-name="Grupo 71124" style="isolation: isolate">
                    <g id="Grupo_71123" data-name="Grupo 71123">
                      <g id="Grupo_71122" data-name="Grupo 71122" clip-path="url(#clip-path-2)">
                        <text id="Diálogos_y_efectos_de_audio_especiales" data-name="Diálogos y efectos de audio especiales" transform="translate(375.594 179.059)" fill="#636363" font-size="16" font-family="Roboto-Bold, Roboto" font-weight="700"><tspan x="0" y="0">Diálogos y e</tspan><tspan y="0" letter-spacing="-0.011em">f</tspan><tspan y="0">ec</tspan><tspan y="0" letter-spacing="-0.014em">t</tspan><tspan y="0">os de audio especiales</tspan></text>
                      </g>
                    </g>
                  </g>
                </g>
              </g>
            </g>
          </g>
        </g>
        <g id="Grupo_71131" data-name="Grupo 71131">
          <g id="Grupo_71130" data-name="Grupo 71130" clip-path="url(#clip-path-4)">
            <rect id="Rectángulo_11629" data-name="Rectángulo 11629" width="110" height="86.464" transform="translate(460 44.091)" fill="url(#linear-gradient)"/>
          </g>
        </g>
        <g id="Grupo_71133" data-name="Grupo 71133">
          <g id="Grupo_71132" data-name="Grupo 71132" clip-path="url(#clip-path)">
            <path id="Trazado_158252" data-name="Trazado 158252" d="M559.165,64.458,571.5,57.277l-13.151-1.523L566.8,41.422l-14.333,8.451-1-15.489-7.7,14.676-9.087-8.579.886,13.145-15.3-1.872L531,61.828l-12.633,7.246,13.446,1.457-8.451,14.333,14.332-8.451,1.46,13.432,7.243-12.62,10.075,10.73-1.873-15.3,15.3,1.873Z" fill="#ffd400"/>
            <path id="Trazado_158253" data-name="Trazado 158253" d="M559.165,64.458,571.5,57.277l-13.151-1.523L566.8,41.422l-14.333,8.451-1-15.489-7.7,14.676-9.087-8.579.886,13.145-15.3-1.872L531,61.828l-12.633,7.246,13.446,1.457-8.451,14.333,14.332-8.451,1.46,13.432,7.243-12.62,10.075,10.73-1.873-15.3,15.3,1.873Z" fill="none" stroke="#dd851b" stroke-miterlimit="10" stroke-width="3"/>
            <path id="Trazado_158254" data-name="Trazado 158254" d="M546.942,143.86a55.318,55.318,0,0,0,13.168-13.31c-2.068-5.694-4.274-10.625-6.149-12.28-1.485-1.313-4.352-2.556-7.711-3.665H515V143.86Z" fill="#e9efff"/>
            <path id="Trazado_158255" data-name="Trazado 158255" d="M483.059,143.86H515V114.605H483.749c-3.358,1.11-6.225,2.352-7.711,3.665-1.875,1.655-4.079,6.586-6.149,12.28A55.308,55.308,0,0,0,483.059,143.86Z" fill="#dae2fe"/>
            <path id="Trazado_158256" data-name="Trazado 158256" d="M477.975,134.973v4.788a55.4,55.4,0,0,0,5.073,4.1l-2.7-9.227a1.21,1.21,0,0,0-2.372.34" fill="#bec8f7"/>
            <path id="Trazado_158257" data-name="Trazado 158257" d="M552.025,134.973v4.788a55.4,55.4,0,0,1-5.073,4.1l2.7-9.227a1.21,1.21,0,0,1,2.372.34" fill="#dae2fe"/>
            <path id="Trazado_158258" data-name="Trazado 158258" d="M546.25,114.606a165.923,165.923,0,0,0-20.613-4.836H504.362a165.724,165.724,0,0,0-20.613,4.836s6.1,20.144-.7,29.252v0a54.7,54.7,0,0,0,27.434,10.045L515,150.828l4.515,3.079a54.707,54.707,0,0,0,27.435-10.045v0C540.155,134.75,546.249,114.609,546.25,114.606Z" fill="#b76c4e"/>
            <path id="Trazado_158259" data-name="Trazado 158259" d="M510.485,153.906l1.85-1.261-.145-.06c-11.3-6.764-19.581-20.729-21.642-37.559-.1-.8-.172-1.572-.233-2.305-2.237.568-4.494,1.2-6.565,1.884,0,0,6.1,20.144-.7,29.252v.005A54.7,54.7,0,0,0,510.485,153.906Z" fill="#a05838"/>
            <path id="Trazado_158260" data-name="Trazado 158260" d="M525.638,109.77H504.363l6.122,44.136q2.234.181,4.515.184t4.516-.184Z" fill="#e9efff"/>
            <path id="Trazado_158261" data-name="Trazado 158261" d="M519.515,153.906l.923-6.652c-5.94-1.394-12.089-8.741-13.5-18.918l3.546,25.57q2.233.181,4.516.184t4.515-.184" fill="#dae2fe"/>
            <path id="Trazado_158262" data-name="Trazado 158262" d="M513.316,154.062c.559.017,1.12.029,1.684.029s1.124-.012,1.683-.029V109.771h-3.367Z" fill="#bec8f7"/>
            <path id="Trazado_158263" data-name="Trazado 158263" d="M533.674,105.819a2.656,2.656,0,0,1-2.121-1.8,4.574,4.574,0,0,0-3.487-3.083,3.6,3.6,0,0,0,.3-2.007,3.682,3.682,0,0,0-3.675-3.116H505.4a3.677,3.677,0,0,0-3.667,3.1,3.715,3.715,0,0,0-.035.645,1.981,1.981,0,0,1-1.053,1.845,4.488,4.488,0,0,0-2.211,2.621,2.655,2.655,0,0,1-2.121,1.8c-1.74.255-4.089,1.185-4.089,4.345,0,5.018,16.671,19.7,22.768,19.7s22.768-14.686,22.768-19.7c0-3.16-2.349-4.09-4.089-4.345" fill="#ff4155"/>
            <path id="Trazado_158264" data-name="Trazado 158264" d="M501.207,110.164c0-3.159,2.349-4.089,4.089-4.344a2.659,2.659,0,0,0,2.122-1.8A4.584,4.584,0,0,1,511,100.916a3.613,3.613,0,0,1,3.3-5.1H505.4a3.619,3.619,0,0,0-3.7,3.741,1.981,1.981,0,0,1-1.052,1.845,4.482,4.482,0,0,0-2.211,2.619,2.657,2.657,0,0,1-2.122,1.8c-1.739.255-4.089,1.185-4.089,4.344,0,5.019,16.672,19.7,22.768,19.7a10.766,10.766,0,0,0,4.49-1.454c-7.395-3.83-18.278-14.2-18.278-18.25" fill="#e80054"/>
            <path id="Trazado_158265" data-name="Trazado 158265" d="M515,44.09a23.6,23.6,0,0,0-23.6,23.6V72.2H538.6V67.694A23.6,23.6,0,0,0,515,44.09" fill="#213159"/>
            <path id="Trazado_158266" data-name="Trazado 158266" d="M498.15,74.973s-2.331-5.676-6.487-4.358.1,13.618,8.21,14.393Z" fill="#fd995b"/>
            <path id="Trazado_158267" data-name="Trazado 158267" d="M531.85,74.973s2.331-5.676,6.487-4.358-.1,13.618-8.21,14.393Z" fill="#fcad6d"/>
            <path id="Trazado_158268" data-name="Trazado 158268" d="M530.95,67.157a24.842,24.842,0,0,0-3.642-7.345,11.042,11.042,0,0,0-2.784-2.043,7.2,7.2,0,0,0-4.974-.561,19.074,19.074,0,0,1-9.1,0,7.2,7.2,0,0,0-4.975.561,11.038,11.038,0,0,0-2.783,2.043,24.821,24.821,0,0,0-3.643,7.345,7.021,7.021,0,0,1-3.7,4.107c-.007.276-.014.552-.014.832,0,14.48,8.8,31.463,19.664,31.463S534.665,86.576,534.665,72.1c0-.28-.007-.556-.014-.832a7.023,7.023,0,0,1-3.7-4.107" fill="#f9ba8f"/>
            <path id="Trazado_158269" data-name="Trazado 158269" d="M504.315,72.1a29.691,29.691,0,0,1,3.829-15.075,7.525,7.525,0,0,0-2.668.748,11.043,11.043,0,0,0-2.783,2.044,24.8,24.8,0,0,0-3.643,7.344,7.021,7.021,0,0,1-3.7,4.107c-.007.277-.014.553-.014.832,0,14.481,8.8,31.464,19.664,31.464a11.142,11.142,0,0,0,4.49-.976C510.793,98.778,504.315,84.517,504.315,72.1Z" fill="#fcad6d"/>
            <path id="Trazado_158270" data-name="Trazado 158270" d="M498.223,56.869a46.211,46.211,0,0,0,33.554,0c1.45-.544,2.916-1.093,4.532-1.593l-2.366-9.323a9.019,9.019,0,0,0-12.981-5.743l-1.357.722a9.8,9.8,0,0,1-9.21,0l-1.357-.722a9.02,9.02,0,0,0-12.982,5.743l-2.365,9.323c1.615.5,3.082,1.049,4.532,1.593" fill="#b76c4e"/>
            <path id="Trazado_158271" data-name="Trazado 158271" d="M504.517,56.224c-2.339-2.133-5.3-13.38-1.864-16.813a9.021,9.021,0,0,0-6.6,6.541l-2.366,9.323c1.616.5,3.082,1.05,4.533,1.594a52.365,52.365,0,0,0,6.294,2.049Z" fill="#a05838"/>
            <path id="Trazado_158272" data-name="Trazado 158272" d="M515,57.328a40.87,40.87,0,0,1-16.777-3.153c-1.213-.455-2.436-.913-3.749-1.344a2.248,2.248,0,0,0-2.88,1.58l-1.731,6.819,2.107.592c1.981.557,3.752,1.221,5.465,1.863a48.452,48.452,0,0,0,35.13,0c1.713-.642,3.484-1.307,5.465-1.863l2.107-.592-1.731-6.819a2.248,2.248,0,0,0-2.88-1.58c-1.313.431-2.536.889-3.749,1.344A40.87,40.87,0,0,1,515,57.328" fill="#934a2e"/>
            <path id="Trazado_158273" data-name="Trazado 158273" d="M504.517,56.224a52.365,52.365,0,0,1-6.294-2.049c-1.213-.455-2.437-.914-3.749-1.344a2.247,2.247,0,0,0-2.88,1.58l-1.731,6.819,2.107.592c1.98.556,3.751,1.22,5.465,1.863a53.373,53.373,0,0,0,6.656,2.149V63.311a3.62,3.62,0,0,1,.426-7.087" fill="#823821"/>
            <path id="Trazado_158274" data-name="Trazado 158274" d="M511.86,82.354l1.894-3.017a1.471,1.471,0,0,1,2.492,0l1.894,3.017a1.471,1.471,0,0,1-1.246,2.253h-3.788a1.471,1.471,0,0,1-1.246-2.253" fill="#fd995b"/>
            <path id="Trazado_158277" data-name="Trazado 158277" d="M527.4,75.525a2.806,2.806,0,1,0-5.612,0,1.161,1.161,0,0,0,1.984.788,1.161,1.161,0,0,1,1.644,0,1.161,1.161,0,0,0,1.984-.788" fill="#162544"/>
            <path id="Trazado_158278" data-name="Trazado 158278" d="M502.6,75.525a2.806,2.806,0,1,1,5.612,0,1.161,1.161,0,0,1-1.984.788,1.161,1.161,0,0,0-1.644,0,1.161,1.161,0,0,1-1.984-.788" fill="#162544"/>
            <path id="Trazado_158279" data-name="Trazado 158279" d="M515,71.246a47.135,47.135,0,0,1-19.142-3.582,40.877,40.877,0,0,0-16.776-3.153,3.367,3.367,0,1,1,0-6.734,47.128,47.128,0,0,1,19.141,3.581,46.211,46.211,0,0,0,33.554,0,47.129,47.129,0,0,1,19.141-3.581,3.367,3.367,0,1,1,0,6.734,40.877,40.877,0,0,0-16.776,3.153A47.135,47.135,0,0,1,515,71.246" fill="#b76c4e"/>
            <path id="Trazado_158280" data-name="Trazado 158280" d="M511.633,67.879A3.367,3.367,0,0,1,515,64.512a40.877,40.877,0,0,1-16.776-3.153,47.135,47.135,0,0,0-19.142-3.582,3.368,3.368,0,0,0,0,6.735,40.87,40.87,0,0,1,16.777,3.153A47.128,47.128,0,0,0,515,71.246a3.367,3.367,0,0,1-3.367-3.367" fill="#a05838"/>
            <path id="Trazado_158281" data-name="Trazado 158281" d="M490.725,148.455a55.864,55.864,0,0,0,2.632-24.939,56.919,56.919,0,0,0-2.377-10.961c-1.087.27-2.184.556-3.267.856a53.9,53.9,0,0,1,2.314,10.618,52.57,52.57,0,0,1-2.31,22.826Q489.193,147.7,490.725,148.455Z" fill="#934a2e"/>
            <path id="Trazado_158282" data-name="Trazado 158282" d="M539.973,124.029a53.9,53.9,0,0,1,2.314-10.618c-1.083-.3-2.18-.586-3.268-.857a57.043,57.043,0,0,0-2.376,10.962,55.849,55.849,0,0,0,2.632,24.939q1.531-.755,3.008-1.6a52.555,52.555,0,0,1-2.31-22.826" fill="#934a2e"/>
            <path id="Trazado_158283" data-name="Trazado 158283" d="M466.979,127.893a56.413,56.413,0,0,0,96.043,0" fill="none" stroke="#bc332e" stroke-linecap="round" stroke-linejoin="round" stroke-width="2"/>
            <ellipse id="Elipse_4127" data-name="Elipse 4127" cx="2.5" cy="3.5" rx="2.5" ry="3.5" transform="translate(513 87)" fill="#162544"/>
            <path id="Intersección_1" data-name="Intersección 1" d="M-9181.861,7231.655a4.354,4.354,0,0,1,2.361-.654,4.352,4.352,0,0,1,2.361.654A2.726,2.726,0,0,1-9179.5,7234,2.726,2.726,0,0,1-9181.861,7231.655Z" transform="translate(9695 -7140)" fill="#d44f4a"/>
          </g>
        </g>
      </g>
    </g>
  </g>
</svg>
