<svg xmlns="http://www.w3.org/2000/svg" xmlns:xlink="http://www.w3.org/1999/xlink" width="505" height="272" viewBox="0 0 505 272">
  <defs>
    <linearGradient id="linear-gradient" x1="0.5" x2="0.5" y2="1" gradientUnits="objectBoundingBox">
      <stop offset="0" stop-color="#f8e2e2"/>
      <stop offset="1" stop-color="#fff"/>
    </linearGradient>
    <clipPath id="clip-path">
      <rect id="Rectángulo_11634" data-name="Rectángulo 11634" width="505" height="272" fill="none"/>
    </clipPath>
    <clipPath id="clip-path-2">
      <rect id="Rectángulo_11633" data-name="Rectángulo 11633" width="226.93" height="18.023" transform="translate(139.035 189.873)" fill="none"/>
    </clipPath>
    <clipPath id="clip-path-4">
      <path id="Trazado_158284" data-name="Trazado 158284" d="M197.5,119.447a54.748,54.748,0,0,0,9.884,31.461h90.232A55,55,0,1,0,197.5,119.447" fill="url(#linear-gradient)"/>
    </clipPath>
  </defs>
  <g id="Grupo_71253" data-name="Grupo 71253" transform="translate(-285 -4660.34)">
    <g id="Grupo_71178" data-name="Grupo 71178" transform="translate(-8906 11660.34)">
      <rect id="Rectángulo_11594" data-name="Rectángulo 11594" width="505" height="272" transform="translate(9191 -7000)" fill="#f8e2e2"/>
      <g id="Grupo_71147" data-name="Grupo 71147" transform="translate(9191 -7000)">
        <g id="Grupo_71142" data-name="Grupo 71142">
          <g id="Grupo_71141" data-name="Grupo 71141" clip-path="url(#clip-path)">
            <g id="Grupo_71140" data-name="Grupo 71140" style="isolation: isolate">
              <g id="Grupo_71139" data-name="Grupo 71139">
                <g id="Grupo_71138" data-name="Grupo 71138" clip-path="url(#clip-path-2)">
                  <g id="Grupo_71137" data-name="Grupo 71137" style="isolation: isolate">
                    <g id="Grupo_71136" data-name="Grupo 71136">
                      <g id="Grupo_71135" data-name="Grupo 71135" clip-path="url(#clip-path-2)">
                        <text id="Compatibilidad_con_iluminación" data-name="Compatibilidad con iluminación" transform="translate(139.035 203.561)" fill="#636363" font-size="16" font-family="Roboto-Bold, Roboto" font-weight="700"><tspan x="0" y="0">Compatibilidad con iluminación</tspan></text>
                      </g>
                    </g>
                  </g>
                </g>
              </g>
            </g>
          </g>
        </g>
        <g id="Grupo_71144" data-name="Grupo 71144">
          <g id="Grupo_71143" data-name="Grupo 71143" clip-path="url(#clip-path-4)">
            <rect id="Rectángulo_11635" data-name="Rectángulo 11635" width="110" height="86.461" transform="translate(197.5 64.447)" fill="url(#linear-gradient)"/>
          </g>
        </g>
        <g id="Grupo_71146" data-name="Grupo 71146">
          <g id="Grupo_71145" data-name="Grupo 71145" clip-path="url(#clip-path)">
            <path id="Trazado_158285" data-name="Trazado 158285" d="M278.418,110.28c-.737-6.371-2.314-5.678-2.314-17.722V88.051a23.6,23.6,0,0,0-47.208,0v4.507c0,12.044-1.577,11.351-2.314,17.722s1.992,12.265,6.98,13.657l-.568-5.54s1.438,9.921,19.506,9.921,19.507-9.921,19.507-9.921l-.569,5.54C276.426,122.545,279.155,116.651,278.418,110.28Z" fill="#b76c4e"/>
            <path id="Trazado_158286" data-name="Trazado 158286" d="M239.031,92.567V80.242a9.354,9.354,0,0,1,3.538-13.608A23.606,23.606,0,0,0,228.9,88.051v4.507c0,12.044-1.578,11.352-2.315,17.722s1.993,12.266,6.98,13.657l-.568-5.54s1.438,9.921,19.507,9.921V111.945Z" fill="#a05838"/>
            <path id="Trazado_158287" data-name="Trazado 158287" d="M252.5,156.851c27.985,0,39.561-17.6,39.561-17.6a5.863,5.863,0,0,0-.6-.626c-1.487-1.313-4.353-2.555-7.711-3.665a165.838,165.838,0,0,0-20.613-4.835H241.863a165.794,165.794,0,0,0-20.613,4.835c-3.359,1.11-6.225,2.352-7.712,3.665a5.861,5.861,0,0,0-.6.626s11.576,17.6,39.561,17.6" fill="#f3d6ac"/>
            <path id="Trazado_158288" data-name="Trazado 158288" d="M236.106,149.318q-.21-.531-.408-1.078a51.564,51.564,0,0,1-2.839-16.351h0c-3.689.812-7.942,1.864-11.609,3.075-3.359,1.109-6.225,2.35-7.712,3.664a5.861,5.861,0,0,0-.6.626s7.839,11.908,26.2,16.131a37.922,37.922,0,0,1-3.034-6.067" fill="#eabe8d"/>
            <path id="Trazado_158289" data-name="Trazado 158289" d="M278.759,151.433c-7.993-7.795-15.622-13.831-15.622-21.3H241.862c0,7.474-7.629,13.51-15.622,21.3Z" fill="#e80054"/>
            <path id="Trazado_158290" data-name="Trazado 158290" d="M237.012,151.433q-.479-1.033-.906-2.114-.21-.532-.408-1.079a43.8,43.8,0,0,1-1.38-4.617c-2.428,2.477-5.229,5.031-8.078,7.81Z" fill="#cc0053"/>
            <path id="Trazado_158291" data-name="Trazado 158291" d="M252.516,131.89c6.037,0,10.621-6.252,10.621-6.252V109.175H241.863v16.463s4.614,6.252,10.653,6.252" fill="#f3d6ac"/>
            <path id="Trazado_158292" data-name="Trazado 158292" d="M246.5,129.916c16.629-1.6,16.638-11.776,16.638-11.776v-9.079H241.863v16.577a19.69,19.69,0,0,0,4.636,4.278" fill="#eabe8d"/>
            <path id="Trazado_158293" data-name="Trazado 158293" d="M297.612,150.913a55,55,0,0,1-90.223,0v-.006c1.853-5.1,3.814-9.582,5.549-11.653,0,0,11.921,11.574,39.562,11.574s39.56-11.574,39.56-11.574c1.736,2.071,3.7,6.555,5.551,11.653v.006" fill="#ff596e"/>
            <path id="Trazado_158294" data-name="Trazado 158294" d="M262.609,173.519h0c-12.389-5.006-21.821-12.322-26.5-24.2v0c-16.03-3.136-23.167-10.063-23.167-10.063-1.736,2.071-3.7,6.556-5.55,11.654v.006a55.082,55.082,0,0,0,55.221,22.606" fill="#ff4155"/>
            <path id="Trazado_158295" data-name="Trazado 158295" d="M222.152,165.318a16.989,16.989,0,0,1,1.056-12.037,1.18,1.18,0,0,0-1.918-1.318,17.853,17.853,0,0,0-4.621,9.205,55.041,55.041,0,0,0,5.483,4.15" fill="#e80054"/>
            <path id="Trazado_158296" data-name="Trazado 158296" d="M282.848,165.318a16.989,16.989,0,0,0-1.056-12.037,1.18,1.18,0,0,1,1.918-1.318,17.852,17.852,0,0,1,4.621,9.205,55.039,55.039,0,0,1-5.483,4.15" fill="#ff4155"/>
            <path id="Trazado_158297" data-name="Trazado 158297" d="M275.66,83.417l2.84-19.881a3.526,3.526,0,0,0-3.99-3.99l-19.882,2.839a3.528,3.528,0,0,0-2.743,4.881,35.975,35.975,0,0,0,18.9,18.894,3.526,3.526,0,0,0,4.88-2.743" fill="#ffdd40"/>
            <path id="Trazado_158298" data-name="Trazado 158298" d="M274.511,59.545l-19.882,2.84a3.526,3.526,0,0,0-2.743,4.88,35.951,35.951,0,0,0,7.628,11.267c-2.149-7.7,6.392-17.758,15-18.987" fill="#ffc839"/>
            <path id="Trazado_158299" data-name="Trazado 158299" d="M265.906,60.775l-8.135,1.162A35.968,35.968,0,0,0,276.11,80.275l1.162-8.134a35.974,35.974,0,0,1-11.366-11.366" fill="#7255ce"/>
            <path id="Trazado_158300" data-name="Trazado 158300" d="M261.588,68.554a21.443,21.443,0,0,1,5.587-5.9c-.441-.614-.866-1.241-1.269-1.884l-8.135,1.162a35.961,35.961,0,0,0,3.817,6.617" fill="#5c45bf"/>
            <path id="Trazado_158301" data-name="Trazado 158301" d="M235.65,95.443s-2.331-5.676-6.487-4.358.1,13.618,8.21,14.393Z" fill="#eabe8d"/>
            <path id="Trazado_158302" data-name="Trazado 158302" d="M239.031,80.242a20.547,20.547,0,0,1-6.184,11.5q-.011.413-.011.829c0,14.481,8.8,31.464,19.664,31.464,8.893,0,16.4-11.386,18.836-23.461-20.694-2.064-32.3-20.328-32.3-20.328" fill="#f8e6cc"/>
            <path id="Trazado_158303" data-name="Trazado 158303" d="M241.815,92.567a32.791,32.791,0,0,1,.877-7.643,41.1,41.1,0,0,1-3.661-4.682,20.551,20.551,0,0,1-6.185,11.5c-.006.275-.011.551-.011.829,0,14.481,8.8,31.464,19.665,31.464a11.142,11.142,0,0,0,4.49-.976c-8.7-3.806-15.175-18.067-15.175-30.488" fill="#f3d6ac"/>
            <path id="Trazado_158304" data-name="Trazado 158304" d="M249.36,102.824l1.894-3.017a1.471,1.471,0,0,1,2.492,0l1.894,3.017a1.471,1.471,0,0,1-1.246,2.253h-3.788a1.471,1.471,0,0,1-1.246-2.253" fill="#eabe8d"/>
            <path id="Trazado_158305" data-name="Trazado 158305" d="M247.872,113.695h9.256a6.993,6.993,0,0,0,2.023-3.06,1.677,1.677,0,0,0-1.6-2.19h-10.1a1.678,1.678,0,0,0-1.6,2.19,7.008,7.008,0,0,0,2.023,3.06" fill="#162544"/>
            <path id="Trazado_158306" data-name="Trazado 158306" d="M257.128,113.695a6.992,6.992,0,0,1-9.256,0,6.992,6.992,0,0,1,9.256,0" fill="#ff4155"/>
            <path id="Trazado_158307" data-name="Trazado 158307" d="M240.153,95.895a2.806,2.806,0,1,1,5.612,0,1.161,1.161,0,0,1-1.984.787,1.162,1.162,0,0,0-1.644,0,1.161,1.161,0,0,1-1.984-.787" fill="#162544"/>
            <path id="Trazado_158308" data-name="Trazado 158308" d="M245.2,90.706h-4.49a1.684,1.684,0,0,1,0-3.367h4.49a1.684,1.684,0,1,1,0,3.367" fill="#934a2e"/>
            <path id="Trazado_158309" data-name="Trazado 158309" d="M252.5,128.8h-.048a19.181,19.181,0,0,1-10.59-3.164v4.49a15.887,15.887,0,0,0,10.59,4.511h.048a16.285,16.285,0,0,0,10.638-4.51v-4.49A19.78,19.78,0,0,1,252.5,128.8" fill="#3c5082"/>
            <path id="Trazado_158310" data-name="Trazado 158310" d="M252.5,128.8h-.048a19.181,19.181,0,0,1-10.59-3.164v4.49a37.856,37.856,0,0,0,10.653-1.327H252.5" fill="#2d3c6b"/>
            <path id="Trazado_158311" data-name="Trazado 158311" d="M252.5,132.056a3.928,3.928,0,1,1-3.929,3.929,3.929,3.929,0,0,1,3.929-3.929" fill="#e9efff"/>
            <path id="Trazado_158312" data-name="Trazado 158312" d="M204.479,148.232a56.413,56.413,0,0,0,96.043,0" fill="none" stroke="#bc332e" stroke-linecap="round" stroke-linejoin="round" stroke-width="2"/>
          </g>
        </g>
      </g>
    </g>
  </g>
</svg>
