<svg xmlns="http://www.w3.org/2000/svg" xmlns:xlink="http://www.w3.org/1999/xlink" width="505" height="272" viewBox="0 0 505 272">
  <defs>
    <linearGradient id="linear-gradient" x1="0.5" x2="0.5" y2="1" gradientUnits="objectBoundingBox">
      <stop offset="0" stop-color="#f8e2e2"/>
      <stop offset="1" stop-color="#fff"/>
    </linearGradient>
    <clipPath id="clip-path">
      <rect id="Rectángulo_11640" data-name="Rectángulo 11640" width="505" height="272" fill="none"/>
    </clipPath>
    <clipPath id="clip-path-2">
      <rect id="Rectángulo_11639" data-name="Rectángulo 11639" width="272.008" height="18.023" transform="translate(116.496 189.873)" fill="none"/>
    </clipPath>
    <clipPath id="clip-path-4">
      <path id="Trazado_158313" data-name="Trazado 158313" d="M197.5,120.042a54.747,54.747,0,0,0,9.884,31.46h90.232A55,55,0,1,0,197.5,120.042" fill="url(#linear-gradient)"/>
    </clipPath>
  </defs>
  <g id="Grupo_71252" data-name="Grupo 71252" transform="translate(-810 -4660.34)">
    <g id="Grupo_71177" data-name="Grupo 71177" transform="translate(-8906 11660.34)">
      <rect id="Rectángulo_11595" data-name="Rectángulo 11595" width="505" height="272" transform="translate(9716 -7000)" fill="#f8e2e2"/>
      <g id="Grupo_71160" data-name="Grupo 71160" transform="translate(9716 -7000)">
        <g id="Grupo_71155" data-name="Grupo 71155">
          <g id="Grupo_71154" data-name="Grupo 71154" clip-path="url(#clip-path)">
            <g id="Grupo_71153" data-name="Grupo 71153" style="isolation: isolate">
              <g id="Grupo_71152" data-name="Grupo 71152">
                <g id="Grupo_71151" data-name="Grupo 71151" clip-path="url(#clip-path-2)">
                  <g id="Grupo_71150" data-name="Grupo 71150" style="isolation: isolate">
                    <g id="Grupo_71149" data-name="Grupo 71149">
                      <g id="Grupo_71148" data-name="Grupo 71148" clip-path="url(#clip-path-2)">
                        <text id="Compatibilidad_con_clima_y_atmósfera" data-name="Compatibilidad con clima y atmósfera" transform="translate(116.496 203.561)" fill="#636363" font-size="16" font-family="Roboto-Bold, Roboto" font-weight="700"><tspan x="0" y="0">Compatibilidad con clima y atmós</tspan><tspan y="0" letter-spacing="-0.007em">f</tspan><tspan y="0">e</tspan><tspan y="0" letter-spacing="-0.015em">r</tspan><tspan y="0">a</tspan></text>
                      </g>
                    </g>
                  </g>
                </g>
              </g>
            </g>
          </g>
        </g>
        <g id="Grupo_71157" data-name="Grupo 71157">
          <g id="Grupo_71156" data-name="Grupo 71156" clip-path="url(#clip-path-4)">
            <rect id="Rectángulo_11641" data-name="Rectángulo 11641" width="110" height="86.461" transform="translate(197.5 65.041)" fill="url(#linear-gradient)"/>
          </g>
        </g>
        <g id="Grupo_71159" data-name="Grupo 71159">
          <g id="Grupo_71158" data-name="Grupo 71158" clip-path="url(#clip-path)">
            <path id="Trazado_158314" data-name="Trazado 158314" d="M246.727,98.192s-10.164-1.362-22.981,3.845a4.484,4.484,0,0,0-1.43,7.352c5.5,5.406,13.557,15.853,13.557,30.656l5.989-9.21Z" fill="#ff4155"/>
            <path id="Trazado_158315" data-name="Trazado 158315" d="M258.273,98.192s10.164-1.362,22.981,3.845a4.484,4.484,0,0,1,1.43,7.352c-5.5,5.406-13.557,15.853-13.557,30.656l-5.989-9.21Z" fill="#ff4155"/>
            <path id="Trazado_158316" data-name="Trazado 158316" d="M297.611,151.5c-1.853-5.1-3.814-9.582-5.55-11.653a5.88,5.88,0,0,0-.6-.627c-1.487-1.313-4.353-2.555-7.711-3.664a165.725,165.725,0,0,0-20.613-4.836H241.863a165.682,165.682,0,0,0-20.613,4.836c-3.359,1.109-6.225,2.351-7.712,3.664a5.879,5.879,0,0,0-.6.627c-1.735,2.071-3.7,6.555-5.55,11.653v.006a55.077,55.077,0,0,0,30.986,21.7l14.125-3.585,14.125,3.585a55.077,55.077,0,0,0,30.986-21.7V151.5" fill="#2d3c6b"/>
            <path id="Trazado_158317" data-name="Trazado 158317" d="M244.085,171.756A59,59,0,0,1,224.359,134.6c-1.064.305-2.109.624-3.109.954-3.359,1.109-6.225,2.352-7.712,3.665a5.863,5.863,0,0,0-.6.626c-1.735,2.071-3.7,6.556-5.55,11.653v.006a55.075,55.075,0,0,0,30.994,21.7Z" fill="#213159"/>
            <path id="Trazado_158318" data-name="Trazado 158318" d="M215.475,155.925v4.788a55.4,55.4,0,0,0,5.073,4.1l-2.7-9.227a1.21,1.21,0,0,0-2.372.34" fill="#162544"/>
            <path id="Trazado_158319" data-name="Trazado 158319" d="M289.525,155.925v4.788a55.4,55.4,0,0,1-5.073,4.1l2.7-9.227a1.21,1.21,0,0,1,2.371.34" fill="#213159"/>
            <path id="Trazado_158320" data-name="Trazado 158320" d="M279.52,149.91C276.7,135.78,267.454,119.7,252.5,119.7s-24.2,16.076-27.021,30.206a4.843,4.843,0,0,0,3.509,5.628l.437.116a4.837,4.837,0,0,1,3.272,2.928l5.673,14.625q2.183.577,4.432.978l9.7-4.564,9.7,4.563q2.249-.4,4.432-.978l5.673-14.624a4.84,4.84,0,0,1,3.273-2.929l.437-.116A4.841,4.841,0,0,0,279.52,149.91Z" fill="#ff4155"/>
            <path id="Trazado_158321" data-name="Trazado 158321" d="M252.5,169.621l5.093,2.4,8.3-40.792H239.1l8.307,40.792Z" fill="#acbbef"/>
            <path id="Trazado_158322" data-name="Trazado 158322" d="M241.862,109.769v20.953a15.886,15.886,0,0,0,10.589,4.511h.049a16.29,16.29,0,0,0,10.637-4.51V109.769Z" fill="#eabe8d"/>
            <path id="Trazado_158323" data-name="Trazado 158323" d="M239.1,131.226v-6.618a2.164,2.164,0,0,1,3.354-1.807l6,3.955a8.979,8.979,0,0,1,4.04,7.5v3.222a17.827,17.827,0,0,1-13.4-6.251" fill="#dae2fe"/>
            <path id="Trazado_158324" data-name="Trazado 158324" d="M265.892,131.226v-6.618a2.164,2.164,0,0,0-3.354-1.807l-6,3.955a8.979,8.979,0,0,0-4.04,7.5v3.222a17.827,17.827,0,0,0,13.4-6.251" fill="#e9efff"/>
            <path id="Trazado_158325" data-name="Trazado 158325" d="M252.5,60.1c5.449,0,9.867,2.211,9.867,4.939s-4.418,4.939-9.867,4.939-9.867-2.212-9.867-4.939S247.051,60.1,252.5,60.1" fill="#213159"/>
            <path id="Trazado_158326" data-name="Trazado 158326" d="M252.5,68.409a22.449,22.449,0,0,0-22.449,22.449v3.394H252.5Z" fill="#acbbef"/>
            <path id="Trazado_158327" data-name="Trazado 158327" d="M274.949,90.858A22.449,22.449,0,0,0,252.5,68.409V94.252h22.449Z" fill="#bec8f7"/>
            <path id="Trazado_158328" data-name="Trazado 158328" d="M252.66,65.042A23.58,23.58,0,0,0,233.1,75.437a5.23,5.23,0,0,0-.527,4.871L239.49,97.62h25.831l7.106-17.776a5.2,5.2,0,0,0-.589-4.961,23.572,23.572,0,0,0-19.178-9.841" fill="#2d3c6b"/>
            <path id="Trazado_158329" data-name="Trazado 158329" d="M245.55,77.973c-4.673-2.138-5.42-9.331-2.045-11.088A23.7,23.7,0,0,0,233.1,75.437a5.226,5.226,0,0,0-.527,4.87l6.92,17.313h6.06Z" fill="#213159"/>
            <path id="Trazado_158330" data-name="Trazado 158330" d="M236.717,97.154a4.288,4.288,0,1,1-7.923,3.282c-.907-2.188-1.648-3.977-3.076-7.426s7.3-4.177,11,4.144" fill="#eabe8d"/>
            <path id="Trazado_158331" data-name="Trazado 158331" d="M268.283,97.154a4.288,4.288,0,1,0,7.923,3.282c.907-2.188,1.648-3.977,3.076-7.426s-7.305-4.177-11,4.144" fill="#f3d6ac"/>
            <path id="Trazado_158332" data-name="Trazado 158332" d="M268.45,88.109a24.843,24.843,0,0,0-3.642-7.345,11.042,11.042,0,0,0-2.784-2.043,7.2,7.2,0,0,0-4.974-.561,19.075,19.075,0,0,1-9.1,0,7.2,7.2,0,0,0-4.975.561,11.038,11.038,0,0,0-2.783,2.043,24.82,24.82,0,0,0-3.643,7.345,7.021,7.021,0,0,1-3.7,4.107c-.007.276-.014.552-.014.832,0,14.48,8.8,31.463,19.664,31.463s19.665-16.983,19.665-31.463c0-.28-.007-.556-.014-.832A7.023,7.023,0,0,1,268.45,88.109Z" fill="#f8e6cc"/>
            <path id="Trazado_158333" data-name="Trazado 158333" d="M241.815,93.048a29.691,29.691,0,0,1,3.829-15.075,7.525,7.525,0,0,0-2.668.748,11.043,11.043,0,0,0-2.783,2.044,24.8,24.8,0,0,0-3.643,7.344,7.021,7.021,0,0,1-3.7,4.107c-.007.277-.014.553-.014.832,0,14.481,8.8,31.464,19.664,31.464a11.142,11.142,0,0,0,4.49-.976C248.293,119.73,241.815,105.469,241.815,93.048Z" fill="#f3d6ac"/>
            <path id="Trazado_158334" data-name="Trazado 158334" d="M264.9,96.477a2.806,2.806,0,1,0-5.612,0,1.161,1.161,0,0,0,1.984.787,1.162,1.162,0,0,1,1.644,0A1.161,1.161,0,0,0,264.9,96.477Z" fill="#162544"/>
            <path id="Trazado_158335" data-name="Trazado 158335" d="M240.1,96.477a2.806,2.806,0,1,1,5.612,0,1.161,1.161,0,0,1-1.984.787,1.162,1.162,0,0,0-1.644,0,1.161,1.161,0,0,1-1.984-.787" fill="#162544"/>
            <path id="Trazado_158336" data-name="Trazado 158336" d="M249.36,103.305l1.894-3.017a1.471,1.471,0,0,1,2.492,0l1.894,3.017a1.471,1.471,0,0,1-1.246,2.253h-3.788a1.471,1.471,0,0,1-1.246-2.253" fill="#eabe8d"/>
            <path id="Trazado_158337" data-name="Trazado 158337" d="M245.2,91.3h-4.49a1.684,1.684,0,0,1,0-3.367h4.49a1.684,1.684,0,1,1,0,3.367" fill="#162544"/>
            <path id="Trazado_158338" data-name="Trazado 158338" d="M264.286,91.3H259.8a1.684,1.684,0,0,1,0-3.367h4.49a1.684,1.684,0,1,1,0,3.367" fill="#162544"/>
            <path id="Trazado_158339" data-name="Trazado 158339" d="M242.795,174.188a55.571,55.571,0,0,0,19.41,0c.549-24.643-9.7-40.49-9.7-40.49S242.245,149.545,242.795,174.188Z" fill="#e9efff"/>
            <path id="Trazado_158340" data-name="Trazado 158340" d="M262.2,174.188c-8.762-6.592-13.657-24.477-9.783-40.366-.937,1.511-10.148,16.975-9.627,40.366a55.571,55.571,0,0,0,19.41,0Z" fill="#dae2fe"/>
            <path id="Trazado_158341" data-name="Trazado 158341" d="M252.452,128.085c2.48,0,4.489,2.513,4.489,5.613s-2.009,5.612-4.489,5.612-4.49-2.512-4.49-5.612,2.009-5.613,4.49-5.613" fill="#ffdd40"/>
            <path id="Trazado_158342" data-name="Trazado 158342" d="M251.229,133.7a5.729,5.729,0,0,1,2.856-5.227,3.693,3.693,0,0,0-1.633-.385c-2.48,0-4.49,2.512-4.49,5.612s2.01,5.612,4.49,5.612a3.693,3.693,0,0,0,1.633-.385,5.729,5.729,0,0,1-2.856-5.227" fill="#ffc839"/>
            <path id="Trazado_158343" data-name="Trazado 158343" d="M257.549,108.926h-.224l-1.716,1.122-1.715-1.122h-2.788l-1.716,1.122-1.715-1.122h-.224a1.677,1.677,0,0,0-1.6,2.19,7,7,0,0,0,2.023,3.06h9.256a7.008,7.008,0,0,0,2.023-3.06,1.678,1.678,0,0,0-1.6-2.19" fill="#162544"/>
            <path id="Trazado_158344" data-name="Trazado 158344" d="M247.872,114.176a6.992,6.992,0,0,0,9.256,0,6.992,6.992,0,0,0-9.256,0" fill="#ff4155"/>
            <path id="Trazado_158345" data-name="Trazado 158345" d="M257.325,108.926l-1.246,1.985a.554.554,0,0,1-.939,0l-1.246-1.985Z" fill="#fff"/>
            <path id="Trazado_158346" data-name="Trazado 158346" d="M247.675,108.926l1.246,1.985a.554.554,0,0,0,.939,0l1.246-1.985Z" fill="#fff"/>
            <path id="Trazado_158347" data-name="Trazado 158347" d="M294.347,130.845a1.215,1.215,0,0,1-.428-.221,1.192,1.192,0,0,1-.286-1.517l8.266-14.542-10.463-2.934a1.193,1.193,0,0,1-.633-1.863l13.24-17.692a1.194,1.194,0,0,1,1.277-.434L315.882,94.6a1.192,1.192,0,0,1,.6,1.906l-7.438,9.042,8.99,2.521a1.193,1.193,0,0,1,.47,2.04l-23.041,20.475a1.193,1.193,0,0,1-1.115.257" fill="#ffe645"/>
            <path id="Trazado_158348" data-name="Trazado 158348" d="M318.033,108.073l-8.989-2.521,7.438-9.042a1.194,1.194,0,0,0-.6-1.906l-5.607-1.572-9.11,32.488L318.5,110.113a1.193,1.193,0,0,0-.47-2.04" fill="#ffcf2c"/>
            <path id="Trazado_158349" data-name="Trazado 158349" d="M204.479,148.977a56.413,56.413,0,0,0,96.043,0" fill="none" stroke="#bc332e" stroke-linecap="round" stroke-linejoin="round" stroke-width="2"/>
          </g>
        </g>
      </g>
    </g>
  </g>
</svg>
