<svg xmlns="http://www.w3.org/2000/svg" xmlns:xlink="http://www.w3.org/1999/xlink" width="1030" height="451" viewBox="0 0 1030 451">
  <defs>
    <linearGradient id="linear-gradient" x1="0.5" x2="0.5" y2="1" gradientUnits="objectBoundingBox">
      <stop offset="0" stop-color="#f8e2e2"/>
      <stop offset="1" stop-color="#fff8e3"/>
    </linearGradient>
    <linearGradient id="linear-gradient-2" x1="0.037" y1="0.04" x2="1.035" y2="1.031" gradientUnits="objectBoundingBox">
      <stop offset="0" stop-color="#fff"/>
      <stop offset="1" stop-color="#b2b2b2"/>
    </linearGradient>
    <linearGradient id="linear-gradient-3" x1="0.648" y1="0.232" x2="1.747" y2="1.324" xlink:href="#linear-gradient-2"/>
    <linearGradient id="linear-gradient-4" x1="0.037" y1="0.04" x2="1.035" y2="1.031" xlink:href="#linear-gradient-2"/>
    <linearGradient id="linear-gradient-5" x1="0.037" y1="0.039" x2="1.035" y2="1.031" xlink:href="#linear-gradient-2"/>
  </defs>
  <g id="Grupo_70503" data-name="Grupo 70503" transform="translate(-285 -469)">
    <path id="Trazado_157952" data-name="Trazado 157952" d="M0,0H1030V451H0Z" transform="translate(285 469)" fill="url(#linear-gradient)"/>
    <g id="Grupo_70466" data-name="Grupo 70466" transform="translate(285 469)">
      <circle id="Elipse_4098" data-name="Elipse 4098" cx="163.4" cy="163.4" r="163.4" transform="translate(351.3 62.1)" fill="#fafafa"/>
      <path id="Trazado_157713" data-name="Trazado 157713" d="M678.1,225.5A163.391,163.391,0,0,0,514.7,62.1C298,70.7,298,380.3,514.7,388.9A163.455,163.455,0,0,0,678.1,225.5Z" fill="none" stroke="#13273e" stroke-miterlimit="10" stroke-width="1.039" stroke-dasharray="11.158 11.158"/>
    </g>
    <g id="Grupo_70467" data-name="Grupo 70467" transform="translate(285 469)">
      <path id="Trazado_157714" data-name="Trazado 157714" d="M136.5,78h-4.8v3.2h5.6v2h-8.1V71.1h8.1v2h-5.6V76h4.8Z" fill="#3b3d3f"/>
      <path id="Trazado_157715" data-name="Trazado 157715" d="M139.1,83.2V76h-1.3V74.2h1.3v-.8a2.869,2.869,0,0,1,.9-2.3,3.188,3.188,0,0,1,2.4-.8,7.385,7.385,0,0,1,1.2.2v1.9a1.483,1.483,0,0,0-.7-.1c-.9,0-1.4.4-1.4,1.3v.7h1.8V76h-1.8v7.2Z" fill="#3b3d3f"/>
      <path id="Trazado_157716" data-name="Trazado 157716" d="M148.5,83.4a4.129,4.129,0,0,1-4.4-4.4v-.2a6.042,6.042,0,0,1,.5-2.4,2.942,2.942,0,0,1,1.5-1.6,4.032,4.032,0,0,1,2.2-.6,3.7,3.7,0,0,1,2.9,1.2,4.859,4.859,0,0,1,1.1,3.3v1h-5.7a2.1,2.1,0,0,0,.7,1.4,1.964,1.964,0,0,0,1.5.5,2.7,2.7,0,0,0,2.2-1l1.2,1.3a3.638,3.638,0,0,1-1.5,1.2A5.583,5.583,0,0,1,148.5,83.4Zm-.3-7.4a1.656,1.656,0,0,0-1.2.5,2.594,2.594,0,0,0-.6,1.4h3.3v-.2a2.144,2.144,0,0,0-.4-1.2A1.29,1.29,0,0,0,148.2,76Z" fill="#3b3d3f"/>
      <path id="Trazado_157717" data-name="Trazado 157717" d="M157.3,81.5a1.5,1.5,0,0,0,1.1-.4,1.159,1.159,0,0,0,.4-1H161a3.371,3.371,0,0,1-.5,1.7,3.745,3.745,0,0,1-1.3,1.2,4.058,4.058,0,0,1-1.9.4,3.773,3.773,0,0,1-3-1.2,4.954,4.954,0,0,1-1.1-3.4v-.2a4.859,4.859,0,0,1,1.1-3.3,3.773,3.773,0,0,1,3-1.2,3.62,3.62,0,0,1,2.7,1,3.253,3.253,0,0,1,1,2.6h-2.2a1.82,1.82,0,0,0-.4-1.1,1.246,1.246,0,0,0-1.1-.4,1.486,1.486,0,0,0-1.3.6,3.524,3.524,0,0,0-.4,2V79a3.524,3.524,0,0,0,.4,2A1.428,1.428,0,0,0,157.3,81.5Z" fill="#3b3d3f"/>
      <path id="Trazado_157718" data-name="Trazado 157718" d="M165.3,72v2.2h1.5V76h-1.5v4.5a.75.75,0,0,0,.9.9,1.483,1.483,0,0,0,.7-.1v1.8a7.719,7.719,0,0,1-1.5.2,2.3,2.3,0,0,1-2.6-2.5V76h-1.3V74.2h1.3V72Z" fill="#3b3d3f"/>
      <path id="Trazado_157719" data-name="Trazado 157719" d="M167.5,78.7a6.042,6.042,0,0,1,.5-2.4,3.318,3.318,0,0,1,1.5-1.6,4.032,4.032,0,0,1,2.2-.6,4.426,4.426,0,0,1,3,1.1,4.2,4.2,0,0,1,1.3,3v.6a4.459,4.459,0,0,1-1.2,3.3,4.6,4.6,0,0,1-6.2,0,4.7,4.7,0,0,1-1.2-3.4h.1Zm2.4.1a3.677,3.677,0,0,0,.5,2,1.513,1.513,0,0,0,1.4.7,1.622,1.622,0,0,0,1.4-.7,4.241,4.241,0,0,0,0-4,1.75,1.75,0,0,0-1.4-.7,1.622,1.622,0,0,0-1.4.7A2.981,2.981,0,0,0,169.9,78.8Z" fill="#3b3d3f"/>
      <path id="Trazado_157720" data-name="Trazado 157720" d="M182.4,80.7a.755.755,0,0,0-.4-.7,7.172,7.172,0,0,0-1.4-.5c-2.1-.4-3.2-1.4-3.2-2.7a2.334,2.334,0,0,1,1-2A4.237,4.237,0,0,1,181,74a4.338,4.338,0,0,1,2.7.8,2.393,2.393,0,0,1,1,2.1h-2.4a1.613,1.613,0,0,0-.3-.9,1.493,1.493,0,0,0-1-.3,1.222,1.222,0,0,0-.9.3.908.908,0,0,0-.3.7.548.548,0,0,0,.4.6,3.323,3.323,0,0,0,1.3.4,15.462,15.462,0,0,1,1.5.4,2.493,2.493,0,0,1,1.9,2.4,2.432,2.432,0,0,1-1.1,2,4.551,4.551,0,0,1-2.7.8,4.211,4.211,0,0,1-2-.4,3.815,3.815,0,0,1-1.4-1.1,2.26,2.26,0,0,1-.5-1.5h2.3a1.231,1.231,0,0,0,.5,1,2.133,2.133,0,0,0,1.2.3,1.327,1.327,0,0,0,1-.3A1.268,1.268,0,0,0,182.4,80.7Z" fill="#3b3d3f"/>
      <path id="Trazado_157721" data-name="Trazado 157721" d="M111.8,99.3l1.7-6.1H116l-3,9h-2.3l-3-9h2.5Z" fill="#3b3d3f"/>
      <path id="Trazado_157722" data-name="Trazado 157722" d="M117,90.9a.975.975,0,0,1,.4-.9,1.493,1.493,0,0,1,1-.3,1.689,1.689,0,0,1,1,.3,1.213,1.213,0,0,1,0,1.8,1.493,1.493,0,0,1-1,.3,1.689,1.689,0,0,1-1-.3A1.268,1.268,0,0,1,117,90.9Zm2.6,11.3h-2.4v-9h2.4Z" fill="#3b3d3f"/>
      <path id="Trazado_157723" data-name="Trazado 157723" d="M126.4,99.7a.755.755,0,0,0-.4-.7,7.172,7.172,0,0,0-1.4-.5c-2.1-.4-3.2-1.4-3.2-2.7a2.334,2.334,0,0,1,1-2A4.237,4.237,0,0,1,125,93a4.338,4.338,0,0,1,2.7.8,2.393,2.393,0,0,1,1,2.1h-2.4a1.613,1.613,0,0,0-.3-.9,1.493,1.493,0,0,0-1-.3,1.222,1.222,0,0,0-.9.3.908.908,0,0,0-.3.7.548.548,0,0,0,.4.6,3.323,3.323,0,0,0,1.3.4,15.462,15.462,0,0,1,1.5.4,2.493,2.493,0,0,1,1.9,2.4,2.432,2.432,0,0,1-1.1,2,4.551,4.551,0,0,1-2.7.8,4.211,4.211,0,0,1-2-.4,3.815,3.815,0,0,1-1.4-1.1,2.26,2.26,0,0,1-.5-1.5h2.3a1.231,1.231,0,0,0,.5,1,2.133,2.133,0,0,0,1.2.3,1.327,1.327,0,0,0,1-.3C126.3,100.3,126.4,100,126.4,99.7Z" fill="#3b3d3f"/>
      <path id="Trazado_157724" data-name="Trazado 157724" d="M135.7,101.3a3.1,3.1,0,0,1-2.5,1.1,2.947,2.947,0,0,1-2.2-.8,3.649,3.649,0,0,1-.8-2.4V93.3h2.4v5.8c0,.9.4,1.4,1.3,1.4a1.879,1.879,0,0,0,1.7-.8V93.3H138v9h-2.3Z" fill="#3b3d3f"/>
      <path id="Trazado_157725" data-name="Trazado 157725" d="M145,102.2a1.884,1.884,0,0,1-.2-.8,3.083,3.083,0,0,1-2.3,1,3.3,3.3,0,0,1-2.2-.8,2.463,2.463,0,0,1-.9-1.9,2.529,2.529,0,0,1,1.1-2.2,5.225,5.225,0,0,1,3.1-.8h1.1v-.5a1.689,1.689,0,0,0-.3-1,1.333,1.333,0,0,0-1-.4,1.689,1.689,0,0,0-1,.3,1.136,1.136,0,0,0-.3.8h-2.4a2.389,2.389,0,0,1,.5-1.4,2.981,2.981,0,0,1,1.4-1,5.917,5.917,0,0,1,2-.4,4.033,4.033,0,0,1,2.6.8,3.083,3.083,0,0,1,1,2.3v3.9a3.161,3.161,0,0,0,.4,1.9v.1H145Zm-2-1.6a2.959,2.959,0,0,0,1-.2,4.349,4.349,0,0,0,.7-.6V98.3h-.9c-1.2,0-1.8.4-1.9,1.2v.1a.908.908,0,0,0,.3.7A1.135,1.135,0,0,0,143,100.6Z" fill="#3b3d3f"/>
      <path id="Trazado_157726" data-name="Trazado 157726" d="M151.5,102.2H149V89.5h2.4v12.7Z" fill="#3b3d3f"/>
      <path id="Trazado_157727" data-name="Trazado 157727" d="M157.6,102.4a4.129,4.129,0,0,1-4.4-4.4v-.2a6.042,6.042,0,0,1,.5-2.4,2.942,2.942,0,0,1,1.5-1.6,4.032,4.032,0,0,1,2.2-.6,3.7,3.7,0,0,1,2.9,1.2,4.859,4.859,0,0,1,1.1,3.3v1h-5.7a2.1,2.1,0,0,0,.7,1.4,1.964,1.964,0,0,0,1.5.5,2.7,2.7,0,0,0,2.2-1l1.2,1.3a3.638,3.638,0,0,1-1.5,1.2A5.583,5.583,0,0,1,157.6,102.4Zm-.3-7.4a1.656,1.656,0,0,0-1.2.5,2.594,2.594,0,0,0-.6,1.4h3.3v-.2a2.144,2.144,0,0,0-.4-1.2A1.29,1.29,0,0,0,157.3,95Z" fill="#3b3d3f"/>
      <path id="Trazado_157728" data-name="Trazado 157728" d="M167.5,99.7a.755.755,0,0,0-.4-.7,7.172,7.172,0,0,0-1.4-.5c-2.1-.4-3.2-1.4-3.2-2.7a2.334,2.334,0,0,1,1-2,4.237,4.237,0,0,1,2.6-.8,4.338,4.338,0,0,1,2.7.8,2.393,2.393,0,0,1,1,2.1h-2.4a1.613,1.613,0,0,0-.3-.9,1.493,1.493,0,0,0-1-.3,1.222,1.222,0,0,0-.9.3.908.908,0,0,0-.3.7.548.548,0,0,0,.4.6,3.323,3.323,0,0,0,1.3.4,15.462,15.462,0,0,1,1.5.4,2.493,2.493,0,0,1,1.9,2.4,2.432,2.432,0,0,1-1.1,2,4.551,4.551,0,0,1-2.7.8,4.211,4.211,0,0,1-2-.4,3.815,3.815,0,0,1-1.4-1.1,2.26,2.26,0,0,1-.5-1.5h2.3a1.231,1.231,0,0,0,.5,1,2.133,2.133,0,0,0,1.2.3,1.327,1.327,0,0,0,1-.3C167.4,100.3,167.5,100,167.5,99.7Z" fill="#3b3d3f"/>
      <path id="Trazado_157729" data-name="Trazado 157729" d="M180.2,99.2l2.7-9.1h2.8l-4.2,12.1h-2.6l-4.2-12.1h2.8Z" fill="#3b3d3f"/>
      <path id="Trazado_157730" data-name="Trazado 157730" d="M194.1,97.3h-4.8v4.9h-2.5V90.1h7.9v2h-5.4v3.1h4.8Z" fill="#3b3d3f"/>
      <path id="Trazado_157731" data-name="Trazado 157731" d="M200.5,94.3l2.3-4.2h2.9l-3.5,6,3.6,6.1h-2.9L200.6,98l-2.3,4.2h-2.9l3.6-6.1-3.5-6h2.9Z" fill="#3b3d3f"/>
    </g>
    <g id="Grupo_70469" data-name="Grupo 70469" transform="translate(285 469)">
      <g id="Grupo_70468" data-name="Grupo 70468">
        <path id="Trazado_157732" data-name="Trazado 157732" d="M110.4,215.7V220h-2.5V207.9h4.7a6.042,6.042,0,0,1,2.4.5,3.638,3.638,0,0,1,1.6,1.4,3.7,3.7,0,0,1,.6,2.1,3.489,3.489,0,0,1-1.2,2.8,4.935,4.935,0,0,1-3.4,1Zm0-2h2.2a2.07,2.07,0,0,0,1.5-.5,1.9,1.9,0,0,0,.5-1.3,1.978,1.978,0,0,0-.5-1.4,2.026,2.026,0,0,0-1.4-.6h-2.3v3.8Z" fill="#3b3d3f"/>
        <path id="Trazado_157733" data-name="Trazado 157733" d="M121.3,220h-2.4V207.2h2.4Z" fill="#3b3d3f"/>
        <path id="Trazado_157734" data-name="Trazado 157734" d="M128.5,220a1.884,1.884,0,0,1-.2-.8,3.083,3.083,0,0,1-2.3,1,3.3,3.3,0,0,1-2.2-.8,2.463,2.463,0,0,1-.9-1.9,2.529,2.529,0,0,1,1.1-2.2,5.225,5.225,0,0,1,3.1-.8h1.1V214a1.689,1.689,0,0,0-.3-1,1.333,1.333,0,0,0-1-.4,1.689,1.689,0,0,0-1,.3,1.136,1.136,0,0,0-.3.8h-2.4a2.389,2.389,0,0,1,.5-1.4,2.981,2.981,0,0,1,1.4-1,5.917,5.917,0,0,1,2-.4,4.033,4.033,0,0,1,2.6.8,3.083,3.083,0,0,1,1,2.3v3.9a3.161,3.161,0,0,0,.4,1.9v.1h-2.6Zm-2-1.7a2.959,2.959,0,0,0,1-.2,4.348,4.348,0,0,0,.7-.6V216h-.9c-1.2,0-1.8.4-1.9,1.2v.1a.908.908,0,0,0,.3.7A.984.984,0,0,0,126.5,218.3Z" fill="#3b3d3f"/>
        <path id="Trazado_157735" data-name="Trazado 157735" d="M134.6,211l.1,1a3.094,3.094,0,0,1,2.6-1.2,2.564,2.564,0,0,1,2.1.8,3.727,3.727,0,0,1,.7,2.5v5.8h-2.4v-5.7a1.149,1.149,0,0,0-1.4-1.4,1.551,1.551,0,0,0-1.5.9V220h-2.4v-9Z" fill="#3b3d3f"/>
        <path id="Trazado_157736" data-name="Trazado 157736" d="M141.9,208.7a.975.975,0,0,1,.4-.9,1.493,1.493,0,0,1,1-.3,1.689,1.689,0,0,1,1,.3,1.212,1.212,0,0,1,0,1.8,1.493,1.493,0,0,1-1,.3,1.689,1.689,0,0,1-1-.3A1.222,1.222,0,0,1,141.9,208.7Zm2.5,11.3H142v-9h2.4Z" fill="#3b3d3f"/>
        <path id="Trazado_157737" data-name="Trazado 157737" d="M147.1,220v-7.2h-1.3V211h1.3v-.8a2.869,2.869,0,0,1,.9-2.3,3.188,3.188,0,0,1,2.4-.8,7.385,7.385,0,0,1,1.2.2v1.9a1.483,1.483,0,0,0-.7-.1c-.9,0-1.4.4-1.4,1.3v.7h1.8v1.8h-1.8v7.2h-2.4Z" fill="#3b3d3f"/>
        <path id="Trazado_157738" data-name="Trazado 157738" d="M152.5,208.7a.975.975,0,0,1,.4-.9,1.493,1.493,0,0,1,1-.3,1.689,1.689,0,0,1,1,.3,1.212,1.212,0,0,1,0,1.8,1.493,1.493,0,0,1-1,.3,1.689,1.689,0,0,1-1-.3A1.222,1.222,0,0,1,152.5,208.7ZM155,220h-2.4v-9H155Z" fill="#3b3d3f"/>
        <path id="Trazado_157739" data-name="Trazado 157739" d="M160.7,218.2a1.5,1.5,0,0,0,1.1-.4,1.159,1.159,0,0,0,.4-1h2.2a3.371,3.371,0,0,1-.5,1.7,3.745,3.745,0,0,1-1.3,1.2,4.058,4.058,0,0,1-1.9.4,3.773,3.773,0,0,1-3-1.2,4.954,4.954,0,0,1-1.1-3.4v-.2a4.859,4.859,0,0,1,1.1-3.3,3.773,3.773,0,0,1,3-1.2,3.62,3.62,0,0,1,2.7,1,3.253,3.253,0,0,1,1,2.6h-2.2a1.82,1.82,0,0,0-.4-1.1,1.246,1.246,0,0,0-1.1-.4,1.486,1.486,0,0,0-1.3.6,3.524,3.524,0,0,0-.4,2v.2a3.524,3.524,0,0,0,.4,2A1.536,1.536,0,0,0,160.7,218.2Z" fill="#3b3d3f"/>
        <path id="Trazado_157740" data-name="Trazado 157740" d="M171.1,220a1.884,1.884,0,0,1-.2-.8,3.083,3.083,0,0,1-2.3,1,3.3,3.3,0,0,1-2.2-.8,2.463,2.463,0,0,1-.9-1.9,2.529,2.529,0,0,1,1.1-2.2,5.225,5.225,0,0,1,3.1-.8h1.1V214a1.689,1.689,0,0,0-.3-1,1.333,1.333,0,0,0-1-.4,1.689,1.689,0,0,0-1,.3,1.136,1.136,0,0,0-.3.8h-2.4a2.389,2.389,0,0,1,.5-1.4,2.981,2.981,0,0,1,1.4-1,5.917,5.917,0,0,1,2-.4,4.033,4.033,0,0,1,2.6.8,3.083,3.083,0,0,1,1,2.3v3.9a3.161,3.161,0,0,0,.4,1.9v.1h-2.6Zm-2-1.7a2.959,2.959,0,0,0,1-.2,4.348,4.348,0,0,0,.7-.6V216h-.9c-1.2,0-1.8.4-1.9,1.2v.1a.908.908,0,0,0,.3.7A.984.984,0,0,0,169.1,218.3Z" fill="#3b3d3f"/>
        <path id="Trazado_157741" data-name="Trazado 157741" d="M178.7,218.2a1.5,1.5,0,0,0,1.1-.4,1.159,1.159,0,0,0,.4-1h2.2a3.371,3.371,0,0,1-.5,1.7,3.745,3.745,0,0,1-1.3,1.2,4.058,4.058,0,0,1-1.9.4,3.773,3.773,0,0,1-3-1.2,4.954,4.954,0,0,1-1.1-3.4v-.2a4.859,4.859,0,0,1,1.1-3.3,3.773,3.773,0,0,1,3-1.2,3.62,3.62,0,0,1,2.7,1,3.253,3.253,0,0,1,1,2.6h-2.2a1.82,1.82,0,0,0-.4-1.1,1.246,1.246,0,0,0-1.1-.4,1.486,1.486,0,0,0-1.3.6,3.524,3.524,0,0,0-.4,2v.2a3.524,3.524,0,0,0,.4,2A1.428,1.428,0,0,0,178.7,218.2Z" fill="#3b3d3f"/>
        <path id="Trazado_157742" data-name="Trazado 157742" d="M183.8,208.7a.975.975,0,0,1,.4-.9,1.493,1.493,0,0,1,1-.3,1.689,1.689,0,0,1,1,.3,1.212,1.212,0,0,1,0,1.8,1.493,1.493,0,0,1-1,.3,1.689,1.689,0,0,1-1-.3A1.8,1.8,0,0,1,183.8,208.7Zm2.6,11.3H184v-9h2.4Z" fill="#3b3d3f"/>
        <path id="Trazado_157743" data-name="Trazado 157743" d="M188,215.4a6.042,6.042,0,0,1,.5-2.4,3.318,3.318,0,0,1,1.5-1.6,4.032,4.032,0,0,1,2.2-.6,4.426,4.426,0,0,1,3,1.1,4.2,4.2,0,0,1,1.3,3v.6a4.459,4.459,0,0,1-1.2,3.3,4.6,4.6,0,0,1-6.2,0,4.7,4.7,0,0,1-1.2-3.4h.1Zm2.4.2a3.677,3.677,0,0,0,.5,2,1.513,1.513,0,0,0,1.4.7,1.622,1.622,0,0,0,1.4-.7,4.241,4.241,0,0,0,0-4,1.75,1.75,0,0,0-1.4-.7,1.622,1.622,0,0,0-1.4.7A2.825,2.825,0,0,0,190.4,215.6Zm2.3-8.4h2.6l-2.3,2.6h-2Z" fill="#3b3d3f"/>
        <path id="Trazado_157744" data-name="Trazado 157744" d="M200.2,211l.1,1a3.094,3.094,0,0,1,2.6-1.2,2.564,2.564,0,0,1,2.1.8,3.727,3.727,0,0,1,.7,2.5v5.8h-2.4v-5.7a1.149,1.149,0,0,0-1.4-1.4,1.551,1.551,0,0,0-1.5.9V220H198v-9Z" fill="#3b3d3f"/>
        <path id="Trazado_157745" data-name="Trazado 157745" d="M103.7,234.4a5.389,5.389,0,0,1,.9-3.3,3.094,3.094,0,0,1,2.6-1.2,2.7,2.7,0,0,1,2.2,1v-4.6h2.4V239h-2.2l-.1-1a2.99,2.99,0,0,1-2.3,1.1,2.908,2.908,0,0,1-2.5-1.2A5.4,5.4,0,0,1,103.7,234.4Zm2.4.2a3.361,3.361,0,0,0,.4,1.9,1.561,1.561,0,0,0,1.3.7,1.7,1.7,0,0,0,1.6-.9v-3.6a1.6,1.6,0,0,0-1.6-.9C106.7,231.8,106.1,232.7,106.1,234.6Z" fill="#3b3d3f"/>
        <path id="Trazado_157746" data-name="Trazado 157746" d="M117.8,239.1a4.129,4.129,0,0,1-4.4-4.4v-.2a6.042,6.042,0,0,1,.5-2.4,2.942,2.942,0,0,1,1.5-1.6,4.032,4.032,0,0,1,2.2-.6,3.7,3.7,0,0,1,2.9,1.2,4.859,4.859,0,0,1,1.1,3.3v1h-5.7a2.1,2.1,0,0,0,.7,1.4,1.964,1.964,0,0,0,1.5.5,2.7,2.7,0,0,0,2.2-1l1.2,1.3a3.638,3.638,0,0,1-1.5,1.2A5.344,5.344,0,0,1,117.8,239.1Zm-.3-7.4a1.656,1.656,0,0,0-1.2.5,2.594,2.594,0,0,0-.6,1.4H119v-.2a2.144,2.144,0,0,0-.4-1.2A1.29,1.29,0,0,0,117.5,231.7Z" fill="#3b3d3f"/>
        <path id="Trazado_157747" data-name="Trazado 157747" d="M129.6,239h-2.4V226.2h2.4Z" fill="#3b3d3f"/>
        <path id="Trazado_157748" data-name="Trazado 157748" d="M131.2,234.4a6.042,6.042,0,0,1,.5-2.4,3.318,3.318,0,0,1,1.5-1.6,4.032,4.032,0,0,1,2.2-.6,4.426,4.426,0,0,1,3,1.1,4.2,4.2,0,0,1,1.3,3v.6a4.459,4.459,0,0,1-1.2,3.3,4.6,4.6,0,0,1-6.2,0,4.7,4.7,0,0,1-1.2-3.4h.1Zm2.4.2a3.677,3.677,0,0,0,.5,2,1.513,1.513,0,0,0,1.4.7,1.622,1.622,0,0,0,1.4-.7,4.241,4.241,0,0,0,0-4,1.75,1.75,0,0,0-1.4-.7,1.622,1.622,0,0,0-1.4.7A2.825,2.825,0,0,0,133.6,234.6Z" fill="#3b3d3f"/>
        <path id="Trazado_157749" data-name="Trazado 157749" d="M146.1,236.5a.755.755,0,0,0-.4-.7,7.172,7.172,0,0,0-1.4-.5c-2.1-.4-3.2-1.4-3.2-2.7a2.334,2.334,0,0,1,1-2,4.237,4.237,0,0,1,2.6-.8,4.338,4.338,0,0,1,2.7.8,2.393,2.393,0,0,1,1,2.1H146a1.613,1.613,0,0,0-.3-.9,1.493,1.493,0,0,0-1-.3,1.222,1.222,0,0,0-.9.3.908.908,0,0,0-.3.7.548.548,0,0,0,.4.6,3.323,3.323,0,0,0,1.3.4,15.462,15.462,0,0,1,1.5.4,2.493,2.493,0,0,1,1.9,2.4,2.432,2.432,0,0,1-1.1,2,4.551,4.551,0,0,1-2.7.8,4.212,4.212,0,0,1-2-.4,3.815,3.815,0,0,1-1.4-1.1,2.26,2.26,0,0,1-.5-1.5h2.3a1.231,1.231,0,0,0,.5,1,2.133,2.133,0,0,0,1.2.3,1.327,1.327,0,0,0,1-.3A.845.845,0,0,0,146.1,236.5Z" fill="#3b3d3f"/>
        <path id="Trazado_157750" data-name="Trazado 157750" d="M158.3,239.1a4.129,4.129,0,0,1-4.4-4.4v-.2a6.042,6.042,0,0,1,.5-2.4,2.942,2.942,0,0,1,1.5-1.6,4.032,4.032,0,0,1,2.2-.6,3.7,3.7,0,0,1,2.9,1.2,4.859,4.859,0,0,1,1.1,3.3v1h-5.7a2.1,2.1,0,0,0,.7,1.4,1.964,1.964,0,0,0,1.5.5,2.7,2.7,0,0,0,2.2-1l1.2,1.3a3.638,3.638,0,0,1-1.5,1.2A5.344,5.344,0,0,1,158.3,239.1Zm-.2-7.4a1.656,1.656,0,0,0-1.2.5,2.594,2.594,0,0,0-.6,1.4h3.3v-.2a2.144,2.144,0,0,0-.4-1.2A1.29,1.29,0,0,0,158.1,231.7Z" fill="#3b3d3f"/>
        <path id="Trazado_157751" data-name="Trazado 157751" d="M164,239v-7.2h-1.3V230H164v-.8a2.869,2.869,0,0,1,.9-2.3,3.188,3.188,0,0,1,2.4-.8,7.385,7.385,0,0,1,1.2.2v1.9a1.483,1.483,0,0,0-.7-.1c-.9,0-1.4.4-1.4,1.3v.7h1.8v1.8h-1.8v7.2H164Z" fill="#3b3d3f"/>
        <path id="Trazado_157752" data-name="Trazado 157752" d="M173.4,239.1a4.129,4.129,0,0,1-4.4-4.4v-.2a6.042,6.042,0,0,1,.5-2.4,2.942,2.942,0,0,1,1.5-1.6,4.032,4.032,0,0,1,2.2-.6,3.7,3.7,0,0,1,2.9,1.2,4.859,4.859,0,0,1,1.1,3.3v1h-5.7a2.1,2.1,0,0,0,.7,1.4,1.964,1.964,0,0,0,1.5.5,2.7,2.7,0,0,0,2.2-1l1.2,1.3a3.638,3.638,0,0,1-1.5,1.2A5.344,5.344,0,0,1,173.4,239.1Zm-.3-7.4a1.656,1.656,0,0,0-1.2.5,2.594,2.594,0,0,0-.6,1.4h3.3v-.2a2.144,2.144,0,0,0-.4-1.2A1.29,1.29,0,0,0,173.1,231.7Z" fill="#3b3d3f"/>
        <path id="Trazado_157753" data-name="Trazado 157753" d="M182.2,237.2a1.5,1.5,0,0,0,1.1-.4,1.159,1.159,0,0,0,.4-1h2.2a3.371,3.371,0,0,1-.5,1.7,3.745,3.745,0,0,1-1.3,1.2,4.058,4.058,0,0,1-1.9.4,3.773,3.773,0,0,1-3-1.2,4.954,4.954,0,0,1-1.1-3.4v-.2a4.859,4.859,0,0,1,1.1-3.3,3.773,3.773,0,0,1,3-1.2,3.62,3.62,0,0,1,2.7,1,3.253,3.253,0,0,1,1,2.6h-2.2a1.82,1.82,0,0,0-.4-1.1,1.246,1.246,0,0,0-1.1-.4,1.486,1.486,0,0,0-1.3.6,3.524,3.524,0,0,0-.4,2v.2a3.524,3.524,0,0,0,.4,2A1.428,1.428,0,0,0,182.2,237.2Z" fill="#3b3d3f"/>
        <path id="Trazado_157754" data-name="Trazado 157754" d="M190.2,227.8V230h1.5v1.8h-1.5v4.5a.75.75,0,0,0,.9.9,1.483,1.483,0,0,0,.7-.1v1.8a7.719,7.719,0,0,1-1.5.2,2.3,2.3,0,0,1-2.6-2.5v-4.8h-1.3V230h1.3v-2.2Z" fill="#3b3d3f"/>
        <path id="Trazado_157755" data-name="Trazado 157755" d="M192.5,234.4a6.042,6.042,0,0,1,.5-2.4,3.318,3.318,0,0,1,1.5-1.6,4.032,4.032,0,0,1,2.2-.6,4.426,4.426,0,0,1,3,1.1,4.2,4.2,0,0,1,1.3,3v.6a4.459,4.459,0,0,1-1.2,3.3,4.6,4.6,0,0,1-6.2,0,4.7,4.7,0,0,1-1.2-3.4h.1Zm2.4.2a3.677,3.677,0,0,0,.5,2,1.513,1.513,0,0,0,1.4.7,1.622,1.622,0,0,0,1.4-.7,4.241,4.241,0,0,0,0-4,1.75,1.75,0,0,0-1.4-.7,1.622,1.622,0,0,0-1.4.7A2.825,2.825,0,0,0,194.9,234.6Z" fill="#3b3d3f"/>
        <path id="Trazado_157756" data-name="Trazado 157756" d="M207.3,236.5a.755.755,0,0,0-.4-.7,7.172,7.172,0,0,0-1.4-.5c-2.1-.4-3.2-1.4-3.2-2.7a2.334,2.334,0,0,1,1-2,4.237,4.237,0,0,1,2.6-.8,4.338,4.338,0,0,1,2.7.8,2.393,2.393,0,0,1,1,2.1h-2.4a1.613,1.613,0,0,0-.3-.9,1.493,1.493,0,0,0-1-.3,1.222,1.222,0,0,0-.9.3.908.908,0,0,0-.3.7.548.548,0,0,0,.4.6,3.323,3.323,0,0,0,1.3.4,15.462,15.462,0,0,1,1.5.4,2.493,2.493,0,0,1,1.9,2.4,2.432,2.432,0,0,1-1.1,2,4.551,4.551,0,0,1-2.7.8,4.212,4.212,0,0,1-2-.4,3.815,3.815,0,0,1-1.4-1.1,2.26,2.26,0,0,1-.5-1.5h2.3a1.231,1.231,0,0,0,.5,1,2.133,2.133,0,0,0,1.2.3,1.327,1.327,0,0,0,1-.3A.845.845,0,0,0,207.3,236.5Z" fill="#3b3d3f"/>
      </g>
    </g>
    <g id="Grupo_70471" data-name="Grupo 70471" transform="translate(285 469)">
      <g id="Grupo_70470" data-name="Grupo 70470">
        <path id="Trazado_157757" data-name="Trazado 157757" d="M128.1,351.7h-4.8v3.2h5.6v2h-8.1V344.8h8.1v2h-5.6v2.9h4.8Z" fill="#3b3d3f"/>
        <path id="Trazado_157758" data-name="Trazado 157758" d="M133.4,354l1.7-6.1h2.5l-3,9h-2.3l-3-9h2.5Z" fill="#3b3d3f"/>
        <path id="Trazado_157759" data-name="Trazado 157759" d="M138.1,352.4a6.042,6.042,0,0,1,.5-2.4,3.318,3.318,0,0,1,1.5-1.6,4.032,4.032,0,0,1,2.2-.6,4.426,4.426,0,0,1,3,1.1,4.2,4.2,0,0,1,1.3,3v.6a4.459,4.459,0,0,1-1.2,3.3,4.6,4.6,0,0,1-6.2,0,4.7,4.7,0,0,1-1.2-3.4h.1Zm2.4.2a3.677,3.677,0,0,0,.5,2,1.513,1.513,0,0,0,1.4.7,1.622,1.622,0,0,0,1.4-.7,3.81,3.81,0,0,0,.5-2.1,3.312,3.312,0,0,0-.5-1.9,1.513,1.513,0,0,0-1.4-.7,1.622,1.622,0,0,0-1.4.7A3.02,3.02,0,0,0,140.5,352.6Z" fill="#3b3d3f"/>
        <path id="Trazado_157760" data-name="Trazado 157760" d="M150.6,357h-2.4V344.2h2.4Z" fill="#3b3d3f"/>
        <path id="Trazado_157761" data-name="Trazado 157761" d="M158,356a3.1,3.1,0,0,1-2.5,1.1,2.947,2.947,0,0,1-2.2-.8,3.649,3.649,0,0,1-.8-2.4V348h2.4v5.8c0,.9.4,1.4,1.3,1.4a1.879,1.879,0,0,0,1.7-.8V348h2.4v9H158Z" fill="#3b3d3f"/>
        <path id="Trazado_157762" data-name="Trazado 157762" d="M165.8,355.2a1.5,1.5,0,0,0,1.1-.4,1.159,1.159,0,0,0,.4-1h2.2a3.371,3.371,0,0,1-.5,1.7,3.745,3.745,0,0,1-1.3,1.2,4.058,4.058,0,0,1-1.9.4,3.773,3.773,0,0,1-3-1.2,4.954,4.954,0,0,1-1.1-3.4v-.2a4.859,4.859,0,0,1,1.1-3.3,3.773,3.773,0,0,1,3-1.2,3.62,3.62,0,0,1,2.7,1,3.253,3.253,0,0,1,1,2.6h-2.2a1.82,1.82,0,0,0-.4-1.1,1.366,1.366,0,0,0-1.1-.4,1.486,1.486,0,0,0-1.3.6,3.524,3.524,0,0,0-.4,2v.2a3.524,3.524,0,0,0,.4,2A1.536,1.536,0,0,0,165.8,355.2Z" fill="#3b3d3f"/>
        <path id="Trazado_157763" data-name="Trazado 157763" d="M171,345.7a.975.975,0,0,1,.4-.9,1.493,1.493,0,0,1,1-.3,1.69,1.69,0,0,1,1,.3,1.268,1.268,0,0,1,.4.9.975.975,0,0,1-.4.9,1.493,1.493,0,0,1-1,.3,1.69,1.69,0,0,1-1-.3A1.086,1.086,0,0,1,171,345.7Zm2.5,11.3h-2.4v-9h2.4Z" fill="#3b3d3f"/>
        <path id="Trazado_157764" data-name="Trazado 157764" d="M175.1,352.4a6.042,6.042,0,0,1,.5-2.4,3.318,3.318,0,0,1,1.5-1.6,4.032,4.032,0,0,1,2.2-.6,4.426,4.426,0,0,1,3,1.1,4.2,4.2,0,0,1,1.3,3v.6a4.459,4.459,0,0,1-1.2,3.3,4.6,4.6,0,0,1-6.2,0,4.7,4.7,0,0,1-1.2-3.4h.1Zm2.4.2a3.677,3.677,0,0,0,.5,2,1.513,1.513,0,0,0,1.4.7,1.622,1.622,0,0,0,1.4-.7,3.81,3.81,0,0,0,.5-2.1,3.312,3.312,0,0,0-.5-1.9,1.513,1.513,0,0,0-1.4-.7,1.622,1.622,0,0,0-1.4.7A3.02,3.02,0,0,0,177.5,352.6Zm2.3-8.4h2.6l-2.3,2.6h-2Z" fill="#3b3d3f"/>
        <path id="Trazado_157765" data-name="Trazado 157765" d="M187.3,348l.1,1a3.094,3.094,0,0,1,2.6-1.2,2.564,2.564,0,0,1,2.1.8,3.727,3.727,0,0,1,.7,2.5v5.8h-2.4v-5.7a1.149,1.149,0,0,0-1.4-1.4,1.551,1.551,0,0,0-1.5.9V357H185v-9h2.3Z" fill="#3b3d3f"/>
        <path id="Trazado_157766" data-name="Trazado 157766" d="M116.6,371.4a5.389,5.389,0,0,1,.9-3.3,3.094,3.094,0,0,1,2.6-1.2,2.7,2.7,0,0,1,2.2,1v-4.6h2.4V376h-2.2l-.1-1a2.99,2.99,0,0,1-2.3,1.1,2.908,2.908,0,0,1-2.5-1.2A5.4,5.4,0,0,1,116.6,371.4Zm2.4.2a3.361,3.361,0,0,0,.4,1.9,1.561,1.561,0,0,0,1.3.7,1.7,1.7,0,0,0,1.6-.9v-3.6a1.6,1.6,0,0,0-1.6-.9C119.6,368.8,119,369.7,119,371.6Z" fill="#3b3d3f"/>
        <path id="Trazado_157767" data-name="Trazado 157767" d="M130.7,376.1a4.13,4.13,0,0,1-4.4-4.4v-.2a6.042,6.042,0,0,1,.5-2.4,2.942,2.942,0,0,1,1.5-1.6,4.032,4.032,0,0,1,2.2-.6,3.7,3.7,0,0,1,2.9,1.2,4.859,4.859,0,0,1,1.1,3.3v1h-5.7a2.1,2.1,0,0,0,.7,1.4,1.964,1.964,0,0,0,1.5.5,2.7,2.7,0,0,0,2.2-1l1.2,1.3a3.638,3.638,0,0,1-1.5,1.2A5.583,5.583,0,0,1,130.7,376.1Zm-.3-7.4a1.656,1.656,0,0,0-1.2.5,2.594,2.594,0,0,0-.6,1.4h3.3v-.2a2.144,2.144,0,0,0-.4-1.2A1.29,1.29,0,0,0,130.4,368.7Z" fill="#3b3d3f"/>
        <path id="Trazado_157768" data-name="Trazado 157768" d="M142.5,376h-2.4V363.2h2.4Z" fill="#3b3d3f"/>
        <path id="Trazado_157769" data-name="Trazado 157769" d="M144.1,371.4a6.042,6.042,0,0,1,.5-2.4,3.318,3.318,0,0,1,1.5-1.6,4.032,4.032,0,0,1,2.2-.6,4.426,4.426,0,0,1,3,1.1,4.2,4.2,0,0,1,1.3,3v.6a4.459,4.459,0,0,1-1.2,3.3,4.6,4.6,0,0,1-6.2,0,4.7,4.7,0,0,1-1.2-3.4h.1Zm2.4.2a3.677,3.677,0,0,0,.5,2,1.513,1.513,0,0,0,1.4.7,1.622,1.622,0,0,0,1.4-.7,3.81,3.81,0,0,0,.5-2.1,3.312,3.312,0,0,0-.5-1.9,1.513,1.513,0,0,0-1.4-.7,1.622,1.622,0,0,0-1.4.7A3.02,3.02,0,0,0,146.5,371.6Z" fill="#3b3d3f"/>
        <path id="Trazado_157770" data-name="Trazado 157770" d="M159,373.5a.755.755,0,0,0-.4-.7,7.172,7.172,0,0,0-1.4-.5c-2.1-.4-3.2-1.4-3.2-2.7a2.334,2.334,0,0,1,1-2,4.237,4.237,0,0,1,2.6-.8,4.338,4.338,0,0,1,2.7.8,2.393,2.393,0,0,1,1,2.1h-2.4a1.613,1.613,0,0,0-.3-.9,1.493,1.493,0,0,0-1-.3,1.222,1.222,0,0,0-.9.3.908.908,0,0,0-.3.7.548.548,0,0,0,.4.6,3.323,3.323,0,0,0,1.3.4,15.462,15.462,0,0,1,1.5.4,2.493,2.493,0,0,1,1.9,2.4,2.432,2.432,0,0,1-1.1,2,4.551,4.551,0,0,1-2.7.8,4.212,4.212,0,0,1-2-.4,3.814,3.814,0,0,1-1.4-1.1,2.26,2.26,0,0,1-.5-1.5h2.3a1.231,1.231,0,0,0,.5,1,2.132,2.132,0,0,0,1.2.3,1.327,1.327,0,0,0,1-.3C158.8,374,159,373.8,159,373.5Z" fill="#3b3d3f"/>
        <path id="Trazado_157771" data-name="Trazado 157771" d="M171.7,373l2.7-9.1h2.8L173,376h-2.6l-4.2-12.1H169Z" fill="#3b3d3f"/>
        <path id="Trazado_157772" data-name="Trazado 157772" d="M185.6,371h-4.8v4.9h-2.5V363.8h7.9v2h-5.4v3.1h4.8Z" fill="#3b3d3f"/>
        <path id="Trazado_157773" data-name="Trazado 157773" d="M192,368l2.3-4.2h2.9l-3.5,6,3.6,6.1h-2.9l-2.3-4.2-2.3,4.2h-2.9l3.6-6.1-3.5-6h2.9Z" fill="#3b3d3f"/>
      </g>
    </g>
    <g id="Grupo_70473" data-name="Grupo 70473" transform="translate(285 469)">
      <g id="Grupo_70472" data-name="Grupo 70472">
        <path id="Trazado_157774" data-name="Trazado 157774" d="M841.3,72.8a3.86,3.86,0,0,1-1.4,2.9,4.962,4.962,0,0,1-3.2,1.1,4.061,4.061,0,0,1-3.4-1.5,6.186,6.186,0,0,1-1.3-4v-.7a6.528,6.528,0,0,1,.6-2.9,3.942,3.942,0,0,1,1.7-1.9,5.2,5.2,0,0,1,2.5-.7,4.771,4.771,0,0,1,3.2,1.1,4.269,4.269,0,0,1,1.4,3H839a2.981,2.981,0,0,0-.6-1.6,2.348,2.348,0,0,0-1.6-.5,2.2,2.2,0,0,0-1.8.8,4.326,4.326,0,0,0-.6,2.6v.9a4.91,4.91,0,0,0,.6,2.7,2.019,2.019,0,0,0,1.8.9,2.348,2.348,0,0,0,1.6-.5A2.09,2.09,0,0,0,839,73h2.3Z" fill="#3b3d3f"/>
        <path id="Trazado_157775" data-name="Trazado 157775" d="M842.3,72.3a5.091,5.091,0,0,1,.5-2.2,3.389,3.389,0,0,1,1.4-1.5,4.648,4.648,0,0,1,2.1-.5,3.857,3.857,0,0,1,2.8,1,4.262,4.262,0,0,1,1.2,2.8v.6a4.505,4.505,0,0,1-1.1,3.1,4.1,4.1,0,0,1-5.8,0,4.59,4.59,0,0,1-1.1-3.2Zm2.3.1a2.969,2.969,0,0,0,.5,1.8,1.486,1.486,0,0,0,1.3.6,1.612,1.612,0,0,0,1.3-.6,3.439,3.439,0,0,0,.5-2,2.969,2.969,0,0,0-.5-1.8,1.708,1.708,0,0,0-2.6,0A3.439,3.439,0,0,0,844.6,72.4Z" fill="#3b3d3f"/>
        <path id="Trazado_157776" data-name="Trazado 157776" d="M853.9,68.1l.1.9a3.043,3.043,0,0,1,2.4-1.1,2.134,2.134,0,0,1,2.2,1.3,2.764,2.764,0,0,1,2.5-1.3,2.481,2.481,0,0,1,2,.8,3.808,3.808,0,0,1,.7,2.4v5.4h-2.3V71.1a1.8,1.8,0,0,0-.3-1.1c-.2-.3-.5-.3-1-.3a1.379,1.379,0,0,0-1.4,1v5.8h-2.3V71.1a1.8,1.8,0,0,0-.3-1.1c-.2-.3-.5-.3-1-.3a1.6,1.6,0,0,0-1.4.8v6h-2.3V68h2.4Z" fill="#3b3d3f"/>
        <path id="Trazado_157777" data-name="Trazado 157777" d="M873.2,72.4a4.963,4.963,0,0,1-.9,3.1,2.851,2.851,0,0,1-2.4,1.2,2.723,2.723,0,0,1-2.1-.9v4h-2.3V68.1h2.1l.1.8a2.512,2.512,0,0,1,2.1-1,2.73,2.73,0,0,1,2.4,1.2,5.788,5.788,0,0,1,.9,3.2v.1Zm-2.3-.1a3.006,3.006,0,0,0-.4-1.8,1.426,1.426,0,0,0-1.2-.6,1.645,1.645,0,0,0-1.5.8v3.5a1.476,1.476,0,0,0,1.5.8C870.4,74.9,870.9,74,870.9,72.3Z" fill="#3b3d3f"/>
        <path id="Trazado_157778" data-name="Trazado 157778" d="M879.7,75.7a2.765,2.765,0,0,1-2.3,1,2.865,2.865,0,0,1-2.1-.8,3.174,3.174,0,0,1-.7-2.3V68.1h2.3v5.5c0,.9.4,1.3,1.2,1.3a1.7,1.7,0,0,0,1.6-.8v-6H882v8.5h-2.1Z" fill="#3b3d3f"/>
        <path id="Trazado_157779" data-name="Trazado 157779" d="M886.3,66v2.1h1.4v1.7h-1.4V74a1.445,1.445,0,0,0,.2.7c.1.2.3.2.7.2a1.7,1.7,0,0,0,.7-.1v1.7a5.9,5.9,0,0,1-1.4.2,2.121,2.121,0,0,1-2.4-2.4V69.7h-1.2V68h1.2V66Z" fill="#3b3d3f"/>
        <path id="Trazado_157780" data-name="Trazado 157780" d="M892.9,76.7a4.426,4.426,0,0,1-3-1.1,3.917,3.917,0,0,1-1.2-3v-.2a5.932,5.932,0,0,1,.5-2.3,2.94,2.94,0,0,1,1.4-1.5,4.648,4.648,0,0,1,2.1-.5,3.387,3.387,0,0,1,2.7,1.1,4.789,4.789,0,0,1,1,3.1v.9H891a1.858,1.858,0,0,0,.7,1.3,2.168,2.168,0,0,0,1.4.5,2.384,2.384,0,0,0,2-.9l1.1,1.2a2.586,2.586,0,0,1-1.4,1.1A5.822,5.822,0,0,1,892.9,76.7Zm-.3-6.9a1.606,1.606,0,0,0-1.1.5,1.728,1.728,0,0,0-.5,1.3h3.1v-.2a1.594,1.594,0,0,0-.4-1.2A1.366,1.366,0,0,0,892.6,69.8Z" fill="#3b3d3f"/>
        <path id="Trazado_157781" data-name="Trazado 157781" d="M902.4,70.2c-.3,0-.6-.1-.8-.1a1.661,1.661,0,0,0-1.7.9v5.5h-2.3V68h2.1l.1,1a2.163,2.163,0,0,1,1.9-1.2,1.7,1.7,0,0,1,.7.1Z" fill="#3b3d3f"/>
        <path id="Trazado_157782" data-name="Trazado 157782" d="M911.8,72.6h-4.4V70.8h4.4Z" fill="#3b3d3f"/>
        <path id="Trazado_157783" data-name="Trazado 157783" d="M844.9,94.1a4.068,4.068,0,0,1-1.8,1.2,7.1,7.1,0,0,1-2.6.4,5.536,5.536,0,0,1-2.6-.6,3.942,3.942,0,0,1-1.7-1.9,6.527,6.527,0,0,1-.6-2.9v-.8a6.528,6.528,0,0,1,.6-2.9,3.942,3.942,0,0,1,1.7-1.9,5.528,5.528,0,0,1,2.5-.7,4.722,4.722,0,0,1,3.2,1,4.432,4.432,0,0,1,1.4,2.8h-2.3a1.891,1.891,0,0,0-.7-1.4,2.251,2.251,0,0,0-1.5-.5,2.019,2.019,0,0,0-1.8.9,4.91,4.91,0,0,0-.6,2.7v.7a4.148,4.148,0,0,0,.7,2.7,2.384,2.384,0,0,0,2,.9,2.546,2.546,0,0,0,1.9-.6v-2h-2.1V89.5h4.5v4.6Z" fill="#3b3d3f"/>
        <path id="Trazado_157784" data-name="Trazado 157784" d="M850.5,95.7a4.426,4.426,0,0,1-3-1.1,3.917,3.917,0,0,1-1.2-3v-.2a5.932,5.932,0,0,1,.5-2.3,2.94,2.94,0,0,1,1.4-1.5,4.648,4.648,0,0,1,2.1-.5,3.387,3.387,0,0,1,2.7,1.1,4.789,4.789,0,0,1,1,3.1v.9h-5.4a1.858,1.858,0,0,0,.7,1.3,2.168,2.168,0,0,0,1.4.5,2.384,2.384,0,0,0,2-.9l1.1,1.2a2.586,2.586,0,0,1-1.4,1.1A5.822,5.822,0,0,1,850.5,95.7Zm-.2-6.9a1.606,1.606,0,0,0-1.1.5,1.728,1.728,0,0,0-.5,1.3h3.1v-.2a1.594,1.594,0,0,0-.4-1.2A1.5,1.5,0,0,0,850.3,88.8Z" fill="#3b3d3f"/>
        <path id="Trazado_157785" data-name="Trazado 157785" d="M857.4,87.1l.1,1a2.767,2.767,0,0,1,2.4-1.1,2.481,2.481,0,0,1,2,.8,3.808,3.808,0,0,1,.7,2.4v5.5h-2.3V90.3a1.327,1.327,0,0,0-.3-1,1.493,1.493,0,0,0-1-.3,1.6,1.6,0,0,0-1.4.8v6h-2.3V87.3h2.1Z" fill="#3b3d3f"/>
        <path id="Trazado_157786" data-name="Trazado 157786" d="M868.1,95.7a4.426,4.426,0,0,1-3-1.1,3.917,3.917,0,0,1-1.2-3v-.2a5.932,5.932,0,0,1,.5-2.3,2.94,2.94,0,0,1,1.4-1.5,4.648,4.648,0,0,1,2.1-.5,3.387,3.387,0,0,1,2.7,1.1,4.789,4.789,0,0,1,1,3.1v.9h-5.4a1.858,1.858,0,0,0,.7,1.3,2.168,2.168,0,0,0,1.4.5,2.384,2.384,0,0,0,2-.9l1.1,1.2a2.586,2.586,0,0,1-1.4,1.1A5.822,5.822,0,0,1,868.1,95.7Zm-.2-6.9a1.606,1.606,0,0,0-1.1.5,1.728,1.728,0,0,0-.5,1.3h3.1v-.2a1.594,1.594,0,0,0-.4-1.2A1.366,1.366,0,0,0,867.9,88.8Z" fill="#3b3d3f"/>
        <path id="Trazado_157787" data-name="Trazado 157787" d="M877.6,89.2c-.3,0-.6-.1-.8-.1a1.661,1.661,0,0,0-1.7.9v5.5h-2.3V87h2.1l.1,1a2.163,2.163,0,0,1,1.9-1.2,1.7,1.7,0,0,1,.7.1Z" fill="#3b3d3f"/>
        <path id="Trazado_157788" data-name="Trazado 157788" d="M883.4,95.6a1.884,1.884,0,0,1-.2-.8,2.723,2.723,0,0,1-2.1.9A3.139,3.139,0,0,1,879,95a2.172,2.172,0,0,1-.8-1.8,2.393,2.393,0,0,1,1-2.1,4.789,4.789,0,0,1,2.9-.7h1v-.5a1.222,1.222,0,0,0-.3-.9,1.268,1.268,0,0,0-.9-.4,1.222,1.222,0,0,0-.9.3.984.984,0,0,0-.3.8h-2.3a2.654,2.654,0,0,1,.5-1.4,2.683,2.683,0,0,1,1.3-1,4.058,4.058,0,0,1,1.9-.4,3.936,3.936,0,0,1,2.5.8,2.792,2.792,0,0,1,.9,2.2v3.7a4.178,4.178,0,0,0,.3,1.8v.1h-2.4ZM881.5,94a2.92,2.92,0,0,0,.9-.2.9.9,0,0,0,.6-.6V91.7h-.8q-1.65,0-1.8,1.2V93a.908.908,0,0,0,.3.7A1.136,1.136,0,0,0,881.5,94Z" fill="#3b3d3f"/>
        <path id="Trazado_157789" data-name="Trazado 157789" d="M889.8,85v2.1h1.4v1.7h-1.4V93a1.445,1.445,0,0,0,.2.7c.1.2.3.2.7.2a1.7,1.7,0,0,0,.7-.1v1.7a5.9,5.9,0,0,1-1.4.2,2.121,2.121,0,0,1-2.4-2.4V88.7h-1.2V87h1.2V85Z" fill="#3b3d3f"/>
        <path id="Trazado_157790" data-name="Trazado 157790" d="M896.4,95.7a4.426,4.426,0,0,1-3-1.1,3.917,3.917,0,0,1-1.2-3v-.2a5.932,5.932,0,0,1,.5-2.3,2.94,2.94,0,0,1,1.4-1.5,4.648,4.648,0,0,1,2.1-.5,3.387,3.387,0,0,1,2.7,1.1,4.789,4.789,0,0,1,1,3.1v.9h-5.4a1.858,1.858,0,0,0,.7,1.3,2.168,2.168,0,0,0,1.4.5,2.384,2.384,0,0,0,2-.9l1.1,1.2a2.586,2.586,0,0,1-1.4,1.1A5.822,5.822,0,0,1,896.4,95.7Zm-.3-6.9a1.606,1.606,0,0,0-1.1.5,1.728,1.728,0,0,0-.5,1.3h3.1v-.2a1.594,1.594,0,0,0-.4-1.2A1.366,1.366,0,0,0,896.1,88.8Z" fill="#3b3d3f"/>
        <path id="Trazado_157791" data-name="Trazado 157791" d="M900.8,91.3a4.771,4.771,0,0,1,.9-3.1,3.132,3.132,0,0,1,2.4-1.2,2.518,2.518,0,0,1,2,.9V83.6h2.3v12h-2l-.1-.9a2.8,2.8,0,0,1-2.2,1.1,2.851,2.851,0,0,1-2.4-1.2A5.389,5.389,0,0,1,900.8,91.3Zm2.2.2a3.006,3.006,0,0,0,.4,1.8,1.426,1.426,0,0,0,1.2.6,1.551,1.551,0,0,0,1.5-.9V89.7a1.551,1.551,0,0,0-1.5-.9C903.6,88.8,903,89.7,903,91.5Z" fill="#3b3d3f"/>
        <path id="Trazado_157792" data-name="Trazado 157792" d="M825.5,114.6h-2.3V103.2h2.3Z" fill="#3b3d3f"/>
        <path id="Trazado_157793" data-name="Trazado 157793" d="M829.6,106.1l.1.9a3.043,3.043,0,0,1,2.4-1.1,2.134,2.134,0,0,1,2.2,1.3,2.764,2.764,0,0,1,2.5-1.3,2.481,2.481,0,0,1,2,.8,3.808,3.808,0,0,1,.7,2.4v5.4h-2.3v-5.4a1.8,1.8,0,0,0-.3-1.1c-.2-.3-.5-.3-1-.3a1.379,1.379,0,0,0-1.4,1v5.8h-2.3v-5.4a1.8,1.8,0,0,0-.3-1.1c-.2-.3-.5-.3-1-.3a1.6,1.6,0,0,0-1.4.8v6h-2.3V106h2.4Z" fill="#3b3d3f"/>
        <path id="Trazado_157794" data-name="Trazado 157794" d="M846.3,114.6a1.884,1.884,0,0,1-.2-.8,2.723,2.723,0,0,1-2.1.9,3.139,3.139,0,0,1-2.1-.7,2.172,2.172,0,0,1-.8-1.8,2.393,2.393,0,0,1,1-2.1,4.789,4.789,0,0,1,2.9-.7h1v-.5a1.222,1.222,0,0,0-.3-.9,1.268,1.268,0,0,0-.9-.4,1.222,1.222,0,0,0-.9.3.984.984,0,0,0-.3.8h-2.3a2.654,2.654,0,0,1,.5-1.4,2.683,2.683,0,0,1,1.3-1,4.058,4.058,0,0,1,1.9-.4,3.936,3.936,0,0,1,2.5.8,2.792,2.792,0,0,1,.9,2.2v3.7a4.178,4.178,0,0,0,.3,1.8v.1h-2.4Zm-1.9-1.6a2.92,2.92,0,0,0,.9-.2.9.9,0,0,0,.6-.6v-1.5h-.8q-1.65,0-1.8,1.2v.1a.908.908,0,0,0,.3.7A1.135,1.135,0,0,0,844.4,113Z" fill="#3b3d3f"/>
        <path id="Trazado_157795" data-name="Trazado 157795" d="M849.6,110.3a4.963,4.963,0,0,1,.9-3.1A2.908,2.908,0,0,1,853,106a2.7,2.7,0,0,1,2.2,1l.1-.8h2v8.2a3.83,3.83,0,0,1-.5,1.9,2.758,2.758,0,0,1-1.4,1.2,6.537,6.537,0,0,1-2.1.4,3.922,3.922,0,0,1-1.8-.4,3.448,3.448,0,0,1-1.3-1l1-1.4a2.665,2.665,0,0,0,2,.9,1.736,1.736,0,0,0,1.9-1.9v-.5a2.583,2.583,0,0,1-2.1.9,3.17,3.17,0,0,1-2.5-1.2,4.009,4.009,0,0,1-.9-3Zm2.3.2a2.969,2.969,0,0,0,.5,1.8,1.561,1.561,0,0,0,1.3.7,1.645,1.645,0,0,0,1.5-.8v-3.6a1.645,1.645,0,0,0-1.5-.8,1.457,1.457,0,0,0-1.3.7A3.677,3.677,0,0,0,851.9,110.5Z" fill="#3b3d3f"/>
        <path id="Trazado_157796" data-name="Trazado 157796" d="M863,114.7a4.426,4.426,0,0,1-3-1.1,3.917,3.917,0,0,1-1.2-3v-.2a5.932,5.932,0,0,1,.5-2.3,2.94,2.94,0,0,1,1.4-1.5,4.648,4.648,0,0,1,2.1-.5,3.387,3.387,0,0,1,2.7,1.1,4.789,4.789,0,0,1,1,3.1v.9h-5.4a1.858,1.858,0,0,0,.7,1.3,2.168,2.168,0,0,0,1.4.5,2.384,2.384,0,0,0,2-.9l1.1,1.2a2.586,2.586,0,0,1-1.4,1.1A5.822,5.822,0,0,1,863,114.7Zm-.3-6.9a1.606,1.606,0,0,0-1.1.5,1.728,1.728,0,0,0-.5,1.3h3.1v-.2a1.594,1.594,0,0,0-.4-1.2A1.366,1.366,0,0,0,862.7,107.8Z" fill="#3b3d3f"/>
        <path id="Trazado_157797" data-name="Trazado 157797" d="M872.5,108.2c-.3,0-.6-.1-.8-.1a1.661,1.661,0,0,0-1.7.9v5.5h-2.3V106h2.1l.1,1a2.163,2.163,0,0,1,1.9-1.2,1.7,1.7,0,0,1,.7.1Z" fill="#3b3d3f"/>
        <path id="Trazado_157798" data-name="Trazado 157798" d="M876.9,111.4l1.6-5.3h2.4l-3.4,9.8-.2.4a2.582,2.582,0,0,1-2.5,1.7,3.4,3.4,0,0,1-1-.1v-1.7h.3a2.958,2.958,0,0,0,1-.2c.3-.1.4-.3.5-.6l.3-.7-3-8.5h2.4Z" fill="#3b3d3f"/>
        <path id="Trazado_157799" data-name="Trazado 157799" d="M885.8,110a12.7,12.7,0,0,1,.5-3.4,9.744,9.744,0,0,1,1.4-2.9,4.465,4.465,0,0,1,2-1.7l.4,1.2a5.079,5.079,0,0,0-1.8,2.6,13.09,13.09,0,0,0-.6,4.1v.2a12.238,12.238,0,0,0,.6,4.1,5.079,5.079,0,0,0,1.8,2.6l-.4,1.2a5.211,5.211,0,0,1-2-1.7,8.185,8.185,0,0,1-1.4-2.8,12.571,12.571,0,0,1-.5-3.3Z" fill="#3b3d3f"/>
        <path id="Trazado_157800" data-name="Trazado 157800" d="M900.4,110.8a3.86,3.86,0,0,1-1.4,2.9,4.962,4.962,0,0,1-3.2,1.1,4.061,4.061,0,0,1-3.4-1.5,6.186,6.186,0,0,1-1.3-4v-.7a6.528,6.528,0,0,1,.6-2.9,3.942,3.942,0,0,1,1.7-1.9,5.2,5.2,0,0,1,2.5-.7,4.771,4.771,0,0,1,3.2,1.1,4.269,4.269,0,0,1,1.4,3h-2.3a2.981,2.981,0,0,0-.6-1.6,2.348,2.348,0,0,0-1.6-.5,2.2,2.2,0,0,0-1.8.8,4.326,4.326,0,0,0-.6,2.6v.9a4.91,4.91,0,0,0,.6,2.7,2.019,2.019,0,0,0,1.8.9,2.348,2.348,0,0,0,1.6-.5,2.09,2.09,0,0,0,.6-1.5h2.2Z" fill="#3b3d3f"/>
        <path id="Trazado_157801" data-name="Trazado 157801" d="M911,113.1a4.068,4.068,0,0,1-1.8,1.2,7.1,7.1,0,0,1-2.6.4,5.536,5.536,0,0,1-2.6-.6,3.942,3.942,0,0,1-1.7-1.9,6.527,6.527,0,0,1-.6-2.9v-.8a6.528,6.528,0,0,1,.6-2.9,3.942,3.942,0,0,1,1.7-1.9,5.528,5.528,0,0,1,2.5-.7,4.722,4.722,0,0,1,3.2,1,4.432,4.432,0,0,1,1.4,2.8h-2.3a1.891,1.891,0,0,0-.7-1.4,2.251,2.251,0,0,0-1.5-.5,2.019,2.019,0,0,0-1.8.9,4.91,4.91,0,0,0-.6,2.7v.7a4.148,4.148,0,0,0,.7,2.7,2.384,2.384,0,0,0,2,.9,2.546,2.546,0,0,0,1.9-.6v-2h-2.1v-1.7h4.5v4.6Z" fill="#3b3d3f"/>
        <path id="Trazado_157802" data-name="Trazado 157802" d="M915.3,114.6H913V103.2h2.3Z" fill="#3b3d3f"/>
        <path id="Trazado_157803" data-name="Trazado 157803" d="M921.3,110.1a12.7,12.7,0,0,1-.5,3.4,8.03,8.03,0,0,1-1.5,2.9,5.05,5.05,0,0,1-2,1.7l-.4-1.2a6.631,6.631,0,0,0,1.8-2.6,12.4,12.4,0,0,0,.7-4v-.4a12.654,12.654,0,0,0-.6-4.1,5.377,5.377,0,0,0-1.8-2.7l.4-1.2a5.211,5.211,0,0,1,2,1.7,10.622,10.622,0,0,1,1.5,2.8,9.461,9.461,0,0,1,.5,3.3v.4Z" fill="#3b3d3f"/>
      </g>
    </g>
    <g id="Grupo_70475" data-name="Grupo 70475" transform="translate(285 469)">
      <g id="Grupo_70474" data-name="Grupo 70474">
        <path id="Trazado_157804" data-name="Trazado 157804" d="M834.7,216.5h-2v4.4h-2.5V208.8h4.5a4.826,4.826,0,0,1,3.3,1,3.16,3.16,0,0,1,1.2,2.7,4.649,4.649,0,0,1-.5,2.1,3.436,3.436,0,0,1-1.6,1.3l2.6,4.9v.1H837Zm-1.9-2h2a2.456,2.456,0,0,0,1.5-.5,1.535,1.535,0,0,0,.5-1.3,1.728,1.728,0,0,0-.5-1.3,2.07,2.07,0,0,0-1.5-.5h-2Z" fill="#3b3d3f"/>
        <path id="Trazado_157805" data-name="Trazado 157805" d="M845.1,221.1a4.13,4.13,0,0,1-4.4-4.4v-.2a6.042,6.042,0,0,1,.5-2.4,2.942,2.942,0,0,1,1.5-1.6,4.032,4.032,0,0,1,2.2-.6,3.7,3.7,0,0,1,2.9,1.2,4.859,4.859,0,0,1,1.1,3.3v1h-5.7a2.1,2.1,0,0,0,.7,1.4,1.964,1.964,0,0,0,1.5.5,2.7,2.7,0,0,0,2.2-1l1.2,1.3a3.638,3.638,0,0,1-1.5,1.2A5.583,5.583,0,0,1,845.1,221.1Zm-.3-7.3a1.656,1.656,0,0,0-1.2.5,2.594,2.594,0,0,0-.6,1.4h3.3v-.2a2.144,2.144,0,0,0-.4-1.2A1.29,1.29,0,0,0,844.8,213.8Z" fill="#3b3d3f"/>
        <path id="Trazado_157806" data-name="Trazado 157806" d="M853.9,219.2a1.5,1.5,0,0,0,1.1-.4,1.16,1.16,0,0,0,.4-1h2.2a3.371,3.371,0,0,1-.5,1.7,3.744,3.744,0,0,1-1.3,1.2,4.058,4.058,0,0,1-1.9.4,3.773,3.773,0,0,1-3-1.2,4.954,4.954,0,0,1-1.1-3.4v-.2a4.859,4.859,0,0,1,1.1-3.3,3.773,3.773,0,0,1,3-1.2,3.62,3.62,0,0,1,2.7,1,3.253,3.253,0,0,1,1,2.6h-2.2a1.82,1.82,0,0,0-.4-1.1,1.246,1.246,0,0,0-1.1-.4,1.486,1.486,0,0,0-1.3.6,3.524,3.524,0,0,0-.4,2v.2a3.523,3.523,0,0,0,.4,2A1.428,1.428,0,0,0,853.9,219.2Z" fill="#3b3d3f"/>
        <path id="Trazado_157807" data-name="Trazado 157807" d="M864.1,214.2c-.3,0-.6-.1-.9-.1a1.814,1.814,0,0,0-1.8.9v5.9H859v-9h2.3l.1,1.1a2.2,2.2,0,0,1,2-1.2,1.483,1.483,0,0,1,.7.1Z" fill="#3b3d3f"/>
        <path id="Trazado_157808" data-name="Trazado 157808" d="M869.2,221.1a4.13,4.13,0,0,1-4.4-4.4v-.2a6.042,6.042,0,0,1,.5-2.4,2.942,2.942,0,0,1,1.5-1.6,4.032,4.032,0,0,1,2.2-.6,3.7,3.7,0,0,1,2.9,1.2,4.859,4.859,0,0,1,1.1,3.3v1h-5.7a2.1,2.1,0,0,0,.7,1.4,1.964,1.964,0,0,0,1.5.5,2.7,2.7,0,0,0,2.2-1l1.2,1.3a3.638,3.638,0,0,1-1.5,1.2A5.583,5.583,0,0,1,869.2,221.1Zm-.3-7.3a1.656,1.656,0,0,0-1.2.5,2.594,2.594,0,0,0-.6,1.4h3.3v-.2a2.144,2.144,0,0,0-.4-1.2A1.29,1.29,0,0,0,868.9,213.8Z" fill="#3b3d3f"/>
        <path id="Trazado_157809" data-name="Trazado 157809" d="M879.5,221a1.884,1.884,0,0,1-.2-.8,3.083,3.083,0,0,1-2.3,1,3.3,3.3,0,0,1-2.2-.8,2.463,2.463,0,0,1-.9-1.9,2.529,2.529,0,0,1,1.1-2.2,5.225,5.225,0,0,1,3.1-.8h1.1V215a1.689,1.689,0,0,0-.3-1,1.333,1.333,0,0,0-1-.4,1.689,1.689,0,0,0-1,.3,1.135,1.135,0,0,0-.3.8h-2.4a2.389,2.389,0,0,1,.5-1.4,2.981,2.981,0,0,1,1.4-1,5.917,5.917,0,0,1,2-.4,4.033,4.033,0,0,1,2.6.8,3.083,3.083,0,0,1,1,2.3v3.9a3.16,3.16,0,0,0,.4,1.9v.1h-2.6Zm-2-1.7a2.959,2.959,0,0,0,1-.2,4.35,4.35,0,0,0,.7-.6V217h-.9c-1.2,0-1.8.4-1.9,1.2v.1a.908.908,0,0,0,.3.7A.984.984,0,0,0,877.5,219.3Z" fill="#3b3d3f"/>
        <path id="Trazado_157810" data-name="Trazado 157810" d="M887.1,219.2a1.5,1.5,0,0,0,1.1-.4,1.16,1.16,0,0,0,.4-1h2.2a3.371,3.371,0,0,1-.5,1.7,3.744,3.744,0,0,1-1.3,1.2,4.058,4.058,0,0,1-1.9.4,3.773,3.773,0,0,1-3-1.2,4.954,4.954,0,0,1-1.1-3.4v-.2a4.859,4.859,0,0,1,1.1-3.3,3.773,3.773,0,0,1,3-1.2,3.62,3.62,0,0,1,2.7,1,3.253,3.253,0,0,1,1,2.6h-2.2a1.82,1.82,0,0,0-.4-1.1,1.246,1.246,0,0,0-1.1-.4,1.486,1.486,0,0,0-1.3.6,3.524,3.524,0,0,0-.4,2v.2a3.523,3.523,0,0,0,.4,2A1.428,1.428,0,0,0,887.1,219.2Z" fill="#3b3d3f"/>
        <path id="Trazado_157811" data-name="Trazado 157811" d="M892.2,209.7a.975.975,0,0,1,.4-.9,1.493,1.493,0,0,1,1-.3,1.689,1.689,0,0,1,1,.3,1.212,1.212,0,0,1,0,1.8,1.493,1.493,0,0,1-1,.3,1.689,1.689,0,0,1-1-.3A1.221,1.221,0,0,1,892.2,209.7Zm2.6,11.3h-2.4v-9h2.4Z" fill="#3b3d3f"/>
        <path id="Trazado_157812" data-name="Trazado 157812" d="M896.4,216.4a6.042,6.042,0,0,1,.5-2.4,3.318,3.318,0,0,1,1.5-1.6,4.032,4.032,0,0,1,2.2-.6,4.426,4.426,0,0,1,3,1.1,4.2,4.2,0,0,1,1.3,3v.6a4.459,4.459,0,0,1-1.2,3.3,4.6,4.6,0,0,1-6.2,0,4.7,4.7,0,0,1-1.2-3.4h0Zm2.4.2a3.677,3.677,0,0,0,.5,2,1.513,1.513,0,0,0,1.4.7,1.622,1.622,0,0,0,1.4-.7,4.241,4.241,0,0,0,0-4,1.75,1.75,0,0,0-1.4-.7,1.622,1.622,0,0,0-1.4.7A2.825,2.825,0,0,0,898.8,216.6Zm2.3-8.4h2.6l-2.3,2.6h-2Z" fill="#3b3d3f"/>
        <path id="Trazado_157813" data-name="Trazado 157813" d="M908.6,212l.1,1a3.093,3.093,0,0,1,2.6-1.2,2.564,2.564,0,0,1,2.1.8,3.727,3.727,0,0,1,.7,2.5v5.8h-2.4v-5.7a1.149,1.149,0,0,0-1.4-1.4,1.551,1.551,0,0,0-1.5.9V221h-2.4v-9Z" fill="#3b3d3f"/>
        <path id="Trazado_157814" data-name="Trazado 157814" d="M848.8,235.4a5.389,5.389,0,0,1,.9-3.3,3.093,3.093,0,0,1,2.6-1.2,2.7,2.7,0,0,1,2.2,1v-4.6h2.4V240h-2.2l-.1-1a2.99,2.99,0,0,1-2.3,1.1,2.908,2.908,0,0,1-2.5-1.2A5.219,5.219,0,0,1,848.8,235.4Zm2.4.2a3.361,3.361,0,0,0,.4,1.9,1.561,1.561,0,0,0,1.3.7,1.7,1.7,0,0,0,1.6-.9v-3.6a1.6,1.6,0,0,0-1.6-.9C851.8,232.8,851.2,233.7,851.2,235.6Z" fill="#3b3d3f"/>
        <path id="Trazado_157815" data-name="Trazado 157815" d="M858.7,228.7a.975.975,0,0,1,.4-.9,1.493,1.493,0,0,1,1-.3,1.689,1.689,0,0,1,1,.3,1.212,1.212,0,0,1,0,1.8,1.493,1.493,0,0,1-1,.3,1.689,1.689,0,0,1-1-.3A1.221,1.221,0,0,1,858.7,228.7Zm2.6,11.3h-2.4v-9h2.4Z" fill="#3b3d3f"/>
        <path id="Trazado_157816" data-name="Trazado 157816" d="M862.9,235.4a4.826,4.826,0,0,1,1-3.3,3.366,3.366,0,0,1,2.7-1.3,2.644,2.644,0,0,1,2.3,1l.1-.8h2.2v8.7a4.649,4.649,0,0,1-.5,2.1,3.738,3.738,0,0,1-1.5,1.3,5.214,5.214,0,0,1-2.3.5,4.058,4.058,0,0,1-1.9-.4,3.881,3.881,0,0,1-1.4-1l1.1-1.5a2.7,2.7,0,0,0,2.2,1,2.456,2.456,0,0,0,1.5-.5,1.624,1.624,0,0,0,.5-1.4v-.5a3.2,3.2,0,0,1-4.8-.4,4.547,4.547,0,0,1-1.2-3.5Zm2.4.2a3.312,3.312,0,0,0,.5,1.9,1.709,1.709,0,0,0,1.3.7,1.816,1.816,0,0,0,1.6-.8v-3.8a1.7,1.7,0,0,0-1.6-.8,1.622,1.622,0,0,0-1.4.7A5.178,5.178,0,0,0,865.3,235.6Z" fill="#3b3d3f"/>
        <path id="Trazado_157817" data-name="Trazado 157817" d="M872.9,228.7a.975.975,0,0,1,.4-.9,1.493,1.493,0,0,1,1-.3,1.689,1.689,0,0,1,1,.3,1.212,1.212,0,0,1,0,1.8,1.493,1.493,0,0,1-1,.3,1.689,1.689,0,0,1-1-.3A1.8,1.8,0,0,1,872.9,228.7Zm2.6,11.3h-2.4v-9h2.4Z" fill="#3b3d3f"/>
        <path id="Trazado_157818" data-name="Trazado 157818" d="M880.3,228.8V231h1.5v1.8h-1.5v4.5a.75.75,0,0,0,.9.9,1.483,1.483,0,0,0,.7-.1v1.8a7.719,7.719,0,0,1-1.5.2,2.3,2.3,0,0,1-2.6-2.5v-4.8h-1.3V231h1.3v-2.2Z" fill="#3b3d3f"/>
        <path id="Trazado_157819" data-name="Trazado 157819" d="M888.4,240a1.884,1.884,0,0,1-.2-.8,3.083,3.083,0,0,1-2.3,1,3.3,3.3,0,0,1-2.2-.8,2.463,2.463,0,0,1-.9-1.9,2.529,2.529,0,0,1,1.1-2.2,5.225,5.225,0,0,1,3.1-.8h1.1V234a1.689,1.689,0,0,0-.3-1,1.333,1.333,0,0,0-1-.4,1.689,1.689,0,0,0-1,.3,1.135,1.135,0,0,0-.3.8H883a2.389,2.389,0,0,1,.5-1.4,2.981,2.981,0,0,1,1.4-1,5.917,5.917,0,0,1,2-.4,4.033,4.033,0,0,1,2.6.8,3.083,3.083,0,0,1,1,2.3v3.9a3.16,3.16,0,0,0,.4,1.9v.1h-2.5Zm-2-1.7a2.959,2.959,0,0,0,1-.2,4.35,4.35,0,0,0,.7-.6V236h-.9c-1.2,0-1.8.4-1.9,1.2v.1a.908.908,0,0,0,.3.7A1.136,1.136,0,0,0,886.4,238.3Z" fill="#3b3d3f"/>
        <path id="Trazado_157820" data-name="Trazado 157820" d="M894.8,240h-2.4V227.2h2.4Z" fill="#3b3d3f"/>
      </g>
    </g>
    <g id="Grupo_70477" data-name="Grupo 70477" transform="translate(285 469)">
      <g id="Grupo_70476" data-name="Grupo 70476">
        <path id="Trazado_157821" data-name="Trazado 157821" d="M829.6,345.8h-3.7v10.1h-2.5V345.8h-3.7v-2h9.8v2Z" fill="#3b3d3f"/>
        <path id="Trazado_157822" data-name="Trazado 157822" d="M834.2,356a4.13,4.13,0,0,1-4.4-4.4v-.2a6.042,6.042,0,0,1,.5-2.4,2.942,2.942,0,0,1,1.5-1.6,4.032,4.032,0,0,1,2.2-.6,3.7,3.7,0,0,1,2.9,1.2,4.859,4.859,0,0,1,1.1,3.3v1h-5.7a2.1,2.1,0,0,0,.7,1.4,1.964,1.964,0,0,0,1.5.5,2.7,2.7,0,0,0,2.2-1l1.2,1.3a3.638,3.638,0,0,1-1.5,1.2A5.344,5.344,0,0,1,834.2,356Zm-.3-7.4a1.656,1.656,0,0,0-1.2.5,2.594,2.594,0,0,0-.6,1.4h3.3v-.2a2.144,2.144,0,0,0-.4-1.2A1.29,1.29,0,0,0,833.9,348.6Zm.2-5.5h2.6l-2.3,2.6h-2Z" fill="#3b3d3f"/>
        <path id="Trazado_157823" data-name="Trazado 157823" d="M843,354.1a1.5,1.5,0,0,0,1.1-.4,1.16,1.16,0,0,0,.4-1h2.2a3.371,3.371,0,0,1-.5,1.7,3.745,3.745,0,0,1-1.3,1.2,4.058,4.058,0,0,1-1.9.4,3.773,3.773,0,0,1-3-1.2,4.954,4.954,0,0,1-1.1-3.4v-.2a4.859,4.859,0,0,1,1.1-3.3,3.773,3.773,0,0,1,3-1.2,3.62,3.62,0,0,1,2.7,1,3.253,3.253,0,0,1,1,2.6h-2.2a1.82,1.82,0,0,0-.4-1.1,1.246,1.246,0,0,0-1.1-.4,1.486,1.486,0,0,0-1.3.6,3.524,3.524,0,0,0-.4,2v.2a3.523,3.523,0,0,0,.4,2A1.428,1.428,0,0,0,843,354.1Z" fill="#3b3d3f"/>
        <path id="Trazado_157824" data-name="Trazado 157824" d="M850.3,346.9l.1,1a3.094,3.094,0,0,1,2.6-1.2,2.564,2.564,0,0,1,2.1.8,3.727,3.727,0,0,1,.7,2.5v5.8h-2.4v-5.7a1.149,1.149,0,0,0-1.4-1.4,1.551,1.551,0,0,0-1.5.9v6.3h-2.4v-9h2.2Z" fill="#3b3d3f"/>
        <path id="Trazado_157825" data-name="Trazado 157825" d="M857.6,344.5a.975.975,0,0,1,.4-.9,1.493,1.493,0,0,1,1-.3,1.689,1.689,0,0,1,1,.3,1.212,1.212,0,0,1,0,1.8,1.493,1.493,0,0,1-1,.3,1.689,1.689,0,0,1-1-.3A1.267,1.267,0,0,1,857.6,344.5Zm2.6,11.4h-2.4v-9h2.4Z" fill="#3b3d3f"/>
        <path id="Trazado_157826" data-name="Trazado 157826" d="M865.9,354.1a1.5,1.5,0,0,0,1.1-.4,1.16,1.16,0,0,0,.4-1h2.2a3.371,3.371,0,0,1-.5,1.7,3.745,3.745,0,0,1-1.3,1.2,4.058,4.058,0,0,1-1.9.4,3.773,3.773,0,0,1-3-1.2,4.954,4.954,0,0,1-1.1-3.4v-.2a4.859,4.859,0,0,1,1.1-3.3,3.773,3.773,0,0,1,3-1.2,3.62,3.62,0,0,1,2.7,1,3.253,3.253,0,0,1,1,2.6h-2.2a1.82,1.82,0,0,0-.4-1.1,1.246,1.246,0,0,0-1.1-.4,1.486,1.486,0,0,0-1.3.6,3.524,3.524,0,0,0-.4,2v.2a3.523,3.523,0,0,0,.4,2A1.428,1.428,0,0,0,865.9,354.1Z" fill="#3b3d3f"/>
        <path id="Trazado_157827" data-name="Trazado 157827" d="M876.2,355.9a1.884,1.884,0,0,1-.2-.8,3.083,3.083,0,0,1-2.3,1,3.3,3.3,0,0,1-2.2-.8,2.463,2.463,0,0,1-.9-1.9,2.529,2.529,0,0,1,1.1-2.2,5.225,5.225,0,0,1,3.1-.8h1.1v-.5a1.689,1.689,0,0,0-.3-1,1.333,1.333,0,0,0-1-.4,1.689,1.689,0,0,0-1,.3,1.135,1.135,0,0,0-.3.8h-2.4a2.389,2.389,0,0,1,.5-1.4,2.981,2.981,0,0,1,1.4-1,5.917,5.917,0,0,1,2-.4,4.033,4.033,0,0,1,2.6.8,3.083,3.083,0,0,1,1,2.3v3.9a3.16,3.16,0,0,0,.4,1.9v.1h-2.6Zm-2-1.7a2.958,2.958,0,0,0,1-.2,4.351,4.351,0,0,0,.7-.6v-1.5H875c-1.2,0-1.8.4-1.9,1.2v.1a.908.908,0,0,0,.3.7A1.136,1.136,0,0,0,874.2,354.2Z" fill="#3b3d3f"/>
        <path id="Trazado_157828" data-name="Trazado 157828" d="M885,353.4a.755.755,0,0,0-.4-.7,7.171,7.171,0,0,0-1.4-.5c-2.1-.4-3.2-1.4-3.2-2.7a2.334,2.334,0,0,1,1-2,4.237,4.237,0,0,1,2.6-.8,4.338,4.338,0,0,1,2.7.8,2.393,2.393,0,0,1,1,2.1h-2.4a1.613,1.613,0,0,0-.3-.9,1.493,1.493,0,0,0-1-.3,1.222,1.222,0,0,0-.9.3.908.908,0,0,0-.3.7.548.548,0,0,0,.4.6,3.323,3.323,0,0,0,1.3.4,15.467,15.467,0,0,1,1.5.4,2.493,2.493,0,0,1,1.9,2.4,2.432,2.432,0,0,1-1.1,2,4.551,4.551,0,0,1-2.7.8,4.212,4.212,0,0,1-2-.4,3.815,3.815,0,0,1-1.4-1.1,2.26,2.26,0,0,1-.5-1.5h2.3a1.231,1.231,0,0,0,.5,1,2.133,2.133,0,0,0,1.2.3,1.327,1.327,0,0,0,1-.3A.845.845,0,0,0,885,353.4Z" fill="#3b3d3f"/>
        <path id="Trazado_157829" data-name="Trazado 157829" d="M895.4,346.9l.1,1a3.094,3.094,0,0,1,2.6-1.2,2.394,2.394,0,0,1,2.4,1.4,3.067,3.067,0,0,1,2.7-1.4,2.656,2.656,0,0,1,2.2.9,3.847,3.847,0,0,1,.7,2.6v5.7h-2.4v-5.7a1.256,1.256,0,0,0-1.4-1.5,1.5,1.5,0,0,0-1.5,1v6.2h-2.4v-5.7a1.609,1.609,0,0,0-.3-1.1,1.493,1.493,0,0,0-1-.3,1.645,1.645,0,0,0-1.5.8v6.3h-2.4v-9h2.2Z" fill="#3b3d3f"/>
        <path id="Trazado_157830" data-name="Trazado 157830" d="M913,355.9a1.884,1.884,0,0,1-.2-.8,3.083,3.083,0,0,1-2.3,1,3.3,3.3,0,0,1-2.2-.8,2.463,2.463,0,0,1-.9-1.9,2.529,2.529,0,0,1,1.1-2.2,5.225,5.225,0,0,1,3.1-.8h1.1v-.5a1.689,1.689,0,0,0-.3-1,1.333,1.333,0,0,0-1-.4,1.689,1.689,0,0,0-1,.3,1.135,1.135,0,0,0-.3.8h-2.4a2.389,2.389,0,0,1,.5-1.4,2.981,2.981,0,0,1,1.4-1,5.917,5.917,0,0,1,2-.4,4.033,4.033,0,0,1,2.6.8,3.083,3.083,0,0,1,1,2.3v3.9a3.16,3.16,0,0,0,.4,1.9v.1H913Zm-2-1.7a2.958,2.958,0,0,0,1-.2,4.351,4.351,0,0,0,.7-.6v-1.5h-.9c-1.2,0-1.8.4-1.9,1.2v.1a.908.908,0,0,0,.3.7A1.136,1.136,0,0,0,911,354.2Zm1-11.1h2.6l-2.3,2.6h-2Z" fill="#3b3d3f"/>
        <path id="Trazado_157831" data-name="Trazado 157831" d="M921.8,353.4a.755.755,0,0,0-.4-.7,7.171,7.171,0,0,0-1.4-.5c-2.1-.4-3.2-1.4-3.2-2.7a2.334,2.334,0,0,1,1-2,4.237,4.237,0,0,1,2.6-.8,4.338,4.338,0,0,1,2.7.8,2.393,2.393,0,0,1,1,2.1h-2.4a1.613,1.613,0,0,0-.3-.9,1.493,1.493,0,0,0-1-.3,1.222,1.222,0,0,0-.9.3.908.908,0,0,0-.3.7.548.548,0,0,0,.4.6,3.323,3.323,0,0,0,1.3.4,15.467,15.467,0,0,1,1.5.4,2.493,2.493,0,0,1,1.9,2.4,2.432,2.432,0,0,1-1.1,2,4.551,4.551,0,0,1-2.7.8,4.212,4.212,0,0,1-2-.4,3.815,3.815,0,0,1-1.4-1.1,2.26,2.26,0,0,1-.5-1.5h2.3a1.231,1.231,0,0,0,.5,1,2.133,2.133,0,0,0,1.2.3,1.327,1.327,0,0,0,1-.3A.845.845,0,0,0,921.8,353.4Z" fill="#3b3d3f"/>
        <path id="Trazado_157832" data-name="Trazado 157832" d="M851,373.9a3.1,3.1,0,0,1-2.5,1.1,2.947,2.947,0,0,1-2.2-.8,3.649,3.649,0,0,1-.8-2.4v-5.9h2.4v5.8c0,.9.4,1.4,1.3,1.4a1.879,1.879,0,0,0,1.7-.8v-6.4h2.4v9H851Z" fill="#3b3d3f"/>
        <path id="Trazado_157833" data-name="Trazado 157833" d="M860,372.4a.755.755,0,0,0-.4-.7,7.171,7.171,0,0,0-1.4-.5c-2.1-.4-3.2-1.4-3.2-2.7a2.334,2.334,0,0,1,1-2,4.237,4.237,0,0,1,2.6-.8,4.338,4.338,0,0,1,2.7.8,2.393,2.393,0,0,1,1,2.1h-2.4a1.613,1.613,0,0,0-.3-.9,1.493,1.493,0,0,0-1-.3,1.222,1.222,0,0,0-.9.3.908.908,0,0,0-.3.7.548.548,0,0,0,.4.6,3.323,3.323,0,0,0,1.3.4,15.467,15.467,0,0,1,1.5.4,2.493,2.493,0,0,1,1.9,2.4,2.432,2.432,0,0,1-1.1,2,4.551,4.551,0,0,1-2.7.8,4.212,4.212,0,0,1-2-.4,3.815,3.815,0,0,1-1.4-1.1,2.26,2.26,0,0,1-.5-1.5h2.3a1.231,1.231,0,0,0,.5,1,2.133,2.133,0,0,0,1.2.3,1.327,1.327,0,0,0,1-.3C859.8,372.9,860,372.7,860,372.4Z" fill="#3b3d3f"/>
        <path id="Trazado_157834" data-name="Trazado 157834" d="M869,374.9a1.884,1.884,0,0,1-.2-.8,3.083,3.083,0,0,1-2.3,1,3.3,3.3,0,0,1-2.2-.8,2.463,2.463,0,0,1-.9-1.9,2.529,2.529,0,0,1,1.1-2.2,5.225,5.225,0,0,1,3.1-.8h1.1v-.5a1.689,1.689,0,0,0-.3-1,1.333,1.333,0,0,0-1-.4,1.689,1.689,0,0,0-1,.3,1.135,1.135,0,0,0-.3.8h-2.4a2.389,2.389,0,0,1,.5-1.4,2.981,2.981,0,0,1,1.4-1,5.917,5.917,0,0,1,2-.4,4.033,4.033,0,0,1,2.6.8,3.083,3.083,0,0,1,1,2.3v3.9a3.16,3.16,0,0,0,.4,1.9v.1H869Zm-1.9-1.7a2.958,2.958,0,0,0,1-.2,4.351,4.351,0,0,0,.7-.6v-1.5h-.9c-1.2,0-1.8.4-1.9,1.2v.1a.908.908,0,0,0,.3.7A.984.984,0,0,0,867.1,373.2Z" fill="#3b3d3f"/>
        <path id="Trazado_157835" data-name="Trazado 157835" d="M872.6,370.3a5.389,5.389,0,0,1,.9-3.3,3.094,3.094,0,0,1,2.6-1.2,2.7,2.7,0,0,1,2.2,1v-4.6h2.4V375h-2.2l-.1-1a2.99,2.99,0,0,1-2.3,1.1,2.908,2.908,0,0,1-2.5-1.2A5.889,5.889,0,0,1,872.6,370.3Zm2.4.2a3.361,3.361,0,0,0,.4,1.9,1.561,1.561,0,0,0,1.3.7,1.7,1.7,0,0,0,1.6-.9v-3.6a1.6,1.6,0,0,0-1.6-.9C875.6,367.7,875,368.6,875,370.5Z" fill="#3b3d3f"/>
        <path id="Trazado_157836" data-name="Trazado 157836" d="M887.7,374.9a1.884,1.884,0,0,1-.2-.8,3.083,3.083,0,0,1-2.3,1,3.3,3.3,0,0,1-2.2-.8,2.463,2.463,0,0,1-.9-1.9,2.529,2.529,0,0,1,1.1-2.2,5.225,5.225,0,0,1,3.1-.8h1.1v-.5a1.689,1.689,0,0,0-.3-1,1.333,1.333,0,0,0-1-.4,1.689,1.689,0,0,0-1,.3,1.135,1.135,0,0,0-.3.8h-2.4a2.389,2.389,0,0,1,.5-1.4,2.981,2.981,0,0,1,1.4-1,5.917,5.917,0,0,1,2-.4,4.033,4.033,0,0,1,2.6.8,3.083,3.083,0,0,1,1,2.3v3.9a3.16,3.16,0,0,0,.4,1.9v.1h-2.6Zm-1.9-1.7a2.958,2.958,0,0,0,1-.2,4.351,4.351,0,0,0,.7-.6v-1.5h-.9c-1.2,0-1.8.4-1.9,1.2v.1a.908.908,0,0,0,.3.7A.984.984,0,0,0,885.8,373.2Z" fill="#3b3d3f"/>
        <path id="Trazado_157837" data-name="Trazado 157837" d="M896.5,372.4a.755.755,0,0,0-.4-.7,7.171,7.171,0,0,0-1.4-.5c-2.1-.4-3.2-1.4-3.2-2.7a2.334,2.334,0,0,1,1-2,4.237,4.237,0,0,1,2.6-.8,4.338,4.338,0,0,1,2.7.8,2.393,2.393,0,0,1,1,2.1h-2.4a1.613,1.613,0,0,0-.3-.9,1.493,1.493,0,0,0-1-.3,1.222,1.222,0,0,0-.9.3.908.908,0,0,0-.3.7.548.548,0,0,0,.4.6,3.323,3.323,0,0,0,1.3.4,15.467,15.467,0,0,1,1.5.4,2.493,2.493,0,0,1,1.9,2.4,2.432,2.432,0,0,1-1.1,2,4.551,4.551,0,0,1-2.7.8,4.212,4.212,0,0,1-2-.4,3.815,3.815,0,0,1-1.4-1.1,2.26,2.26,0,0,1-.5-1.5h2.3a1.231,1.231,0,0,0,.5,1,2.133,2.133,0,0,0,1.2.3,1.327,1.327,0,0,0,1-.3A.845.845,0,0,0,896.5,372.4Z" fill="#3b3d3f"/>
      </g>
    </g>
    <path id="Trazado_157838" data-name="Trazado 157838" d="M314.8,129.4l-10.3-16.7a48.78,48.78,0,0,0,5.3-22.2h0a49.376,49.376,0,0,0-45.4-49.2v98.4a49.865,49.865,0,0,0,31-14.3Z" transform="translate(285 469)" fill="#d4514b"/>
    <path id="Trazado_157839" data-name="Trazado 157839" d="M255,140.9H103.7a50.3,50.3,0,1,1,0-100.6H255a.9.9,0,0,1,0,1.8H103.7a48.5,48.5,0,0,0,0,97H255a.9.9,0,0,1,.9.9A.967.967,0,0,1,255,140.9Z" transform="translate(285 469)" fill="#d4514b"/>
    <circle id="Elipse_4099" data-name="Elipse 4099" cx="40" cy="40" r="40" transform="translate(505 519.6)" fill="url(#linear-gradient-2)"/>
    <circle id="Elipse_4100" data-name="Elipse 4100" cx="36.3" cy="36.3" r="36.3" transform="translate(508.7 523.3)" fill="url(#linear-gradient-3)"/>
    <path id="Trazado_157840" data-name="Trazado 157840" d="M304.1,247.5a48.213,48.213,0,0,0,5.6-22,49.376,49.376,0,0,0-45.4-49.2v98.4c0,.1,6.6-1,7.2-1.1a43.679,43.679,0,0,0,7-2.2,49.289,49.289,0,0,0,21.3-17A61.212,61.212,0,0,0,304.1,247.5Z" transform="translate(285 469)" fill="#fcc10c"/>
    <path id="Trazado_157841" data-name="Trazado 157841" d="M255,275.8H103.7a50.3,50.3,0,0,1,0-100.6H255a.9.9,0,0,1,0,1.8H103.7a48.5,48.5,0,0,0,0,97H255a.9.9,0,0,1,.9.9A.967.967,0,0,1,255,275.8Z" transform="translate(285 469)" fill="#fcc10c"/>
    <circle id="Elipse_4101" data-name="Elipse 4101" cx="40" cy="40" r="40" transform="translate(505 654.5)" fill="url(#linear-gradient-4)"/>
    <path id="Trazado_157842" data-name="Trazado 157842" d="M304.1,382.4a48.213,48.213,0,0,0,5.6-22,49.376,49.376,0,0,0-45.4-49.2v98.4c0,.1,6.6-1,7.2-1.1a43.679,43.679,0,0,0,7-2.2,49.289,49.289,0,0,0,21.3-17A61.208,61.208,0,0,0,304.1,382.4Z" transform="translate(285 469)" fill="#f39315"/>
    <path id="Trazado_157843" data-name="Trazado 157843" d="M255,410.7H103.7a50.3,50.3,0,1,1,0-100.6H255a.9.9,0,0,1,0,1.8H103.7a48.5,48.5,0,0,0,0,97H255a.9.9,0,0,1,.9.9A.967.967,0,0,1,255,410.7Z" transform="translate(285 469)" fill="#f39315"/>
    <circle id="Elipse_4103" data-name="Elipse 4103" cx="40" cy="40" r="40" transform="translate(505 789.4)" fill="url(#linear-gradient-5)"/>
    <circle id="Elipse_4105" data-name="Elipse 4105" cx="8.4" cy="8.4" r="8.4" transform="translate(938 615)" fill="#c2134b"/>
    <circle id="Elipse_4106" data-name="Elipse 4106" cx="8.4" cy="8.4" r="8.4" transform="translate(643.3 615)" fill="#c2134b"/>
    <circle id="Elipse_4107" data-name="Elipse 4107" cx="8.4" cy="8.4" r="8.4" transform="translate(660.2 785)" fill="#f39315"/>
    <circle id="Elipse_4108" data-name="Elipse 4108" cx="8.4" cy="8.4" r="8.4" transform="translate(921.1 785)" fill="#f39315"/>
    <circle id="Elipse_4109" data-name="Elipse 4109" cx="8.4" cy="8.4" r="8.4" transform="translate(627.9 686.1)" fill="#fcc10c"/>
    <circle id="Elipse_4110" data-name="Elipse 4110" cx="8.4" cy="8.4" r="8.4" transform="translate(954.7 686.1)" fill="#fcc10c"/>
    <path id="Trazado_157844" data-name="Trazado 157844" d="M301.7,339l22.9,3.2-17.3,14.2Z" transform="translate(285 469)" fill="#f39315"/>
    <path id="Trazado_157845" data-name="Trazado 157845" d="M302.4,216.4l21.6,8-20,10.2Z" transform="translate(285 469)" fill="#fcc10c"/>
    <path id="Trazado_157846" data-name="Trazado 157846" d="M715.9,129.4l10.3-16.7a48.78,48.78,0,0,1-5.3-22.2h0a49.376,49.376,0,0,1,45.4-49.2v98.4a49.865,49.865,0,0,1-31-14.3Z" transform="translate(285 469)" fill="#d4514b"/>
    <path id="Trazado_157847" data-name="Trazado 157847" d="M775.8,140.9H927a50.3,50.3,0,0,0,0-100.6H775.8a.9.9,0,1,0,0,1.8H927a48.5,48.5,0,0,1,0,97H775.8a.9.9,0,1,0,0,1.8Z" transform="translate(285 469)" fill="#d4514b"/>
    <path id="Trazado_157848" data-name="Trazado 157848" d="M726.6,247.5a48.213,48.213,0,0,1-5.6-22,49.376,49.376,0,0,1,45.4-49.2v98.4c0,.1-6.6-1-7.2-1.1a43.678,43.678,0,0,1-7-2.2,49.289,49.289,0,0,1-21.3-17A61.208,61.208,0,0,1,726.6,247.5Z" transform="translate(285 469)" fill="#fcc10c"/>
    <path id="Trazado_157849" data-name="Trazado 157849" d="M775.8,275.8H927a50.3,50.3,0,0,0,0-100.6H775.8a.9.9,0,1,0,0,1.8H927a48.5,48.5,0,0,1,0,97H775.8a.9.9,0,1,0,0,1.8Z" transform="translate(285 469)" fill="#fcc10c"/>
    <path id="Trazado_157850" data-name="Trazado 157850" d="M726.6,382.4a48.213,48.213,0,0,1-5.6-22,49.376,49.376,0,0,1,45.4-49.2v98.4c0,.1-6.6-1-7.2-1.1a43.678,43.678,0,0,1-7-2.2,49.289,49.289,0,0,1-21.3-17A61.2,61.2,0,0,1,726.6,382.4Z" transform="translate(285 469)" fill="#f39315"/>
    <path id="Trazado_157851" data-name="Trazado 157851" d="M775.8,410.7H927a50.3,50.3,0,1,0,0-100.6H775.8a.9.9,0,1,0,0,1.8H927a48.5,48.5,0,0,1,0,97H775.8a.9.9,0,1,0,0,1.8Z" transform="translate(285 469)" fill="#f39315"/>
    <path id="Trazado_157852" data-name="Trazado 157852" d="M729,339l-22.9,3.2,17.3,14.2Z" transform="translate(285 469)" fill="#f39315"/>
    <path id="Trazado_157853" data-name="Trazado 157853" d="M728.3,216.4l-21.6,8,20,10.2Z" transform="translate(285 469)" fill="#fcc10c"/>
    <g id="Grupo_70479" data-name="Grupo 70479" transform="translate(285 469)">
      <path id="Trazado_157854" data-name="Trazado 157854" d="M277,84H250l25.9-7.5a1,1,0,0,0,.5-.4,1.268,1.268,0,0,0,.1-.6l-1.4-4.7a4.381,4.381,0,0,0-4.2-3.2,5.02,5.02,0,0,0-1.2.2l-24.4,7.1a4.433,4.433,0,0,0-3,5.4l1.3,4.6v18.9a4.439,4.439,0,0,0,4.4,4.4h9.5a.8.8,0,0,0,0-1.6H248a2.8,2.8,0,0,1-2.8-2.8V93h31v10.8a2.8,2.8,0,0,1-2.8,2.8h-9.5a.8.8,0,0,0,0,1.6h9.5a4.439,4.439,0,0,0,4.4-4.4v-19A.86.86,0,0,0,277,84Zm-14,7.4,3.4-5.8h4.4l-3.4,5.8Zm-6.2,0,3.4-5.8h4.4l-3.4,5.8Zm-6.2,0,3.4-5.8h4.4L255,91.4Zm3-10.2L248,75.8l4.2-1.2.1.1,5.6,5.4-4.2,1.2Zm10.6-10,5.6,5.4-4.2,1.2-.1-.1-5.6-5.4,4.2-1.2C264.1,71.2,264.1,71.2,264.2,71.2Zm-6,1.8,5.6,5.4-4.2,1.2-.1-.1-5.6-5.4,4.2-1.2C258.2,72.9,258.2,72.9,258.2,73Zm11.9-3.6a2.2,2.2,0,0,1,.8-.1,2.7,2.7,0,0,1,2.7,2l1.1,3.9-3.2.9-.1-.1-5.6-5.4Zm-26,8.4a3.33,3.33,0,0,1,1.7-1.4l.5-.1.1.1,5.6,5.4-7,2-1.1-3.9A2.232,2.232,0,0,1,244.1,77.8Zm1.1,7.8h7l-3.4,5.8h-3.6Zm24,5.8,3.4-5.8h3.6v5.8Z" fill="#919191" fill-rule="evenodd"/>
      <path id="Trazado_157855" data-name="Trazado 157855" d="M266.2,99.7a1.012,1.012,0,0,0-.4-.7l-7-4a1.1,1.1,0,0,0-.8,0,.842.842,0,0,0-.4.7v8a1.012,1.012,0,0,0,.4.7.85.85,0,0,0,.8,0l7-4A.842.842,0,0,0,266.2,99.7Zm-7,2.7V97.1l4.6,2.6Z" fill="#919191" fill-rule="evenodd"/>
      <path id="Trazado_157856" data-name="Trazado 157856" d="M260.7,106.6a.8.8,0,1,0,.8.8A.86.86,0,0,0,260.7,106.6Z" fill="#919191" fill-rule="evenodd"/>
    </g>
    <g id="Grupo_70502" data-name="Grupo 70502" transform="translate(285 469)">
      <g id="Grupo_70485" data-name="Grupo 70485">
        <path id="Trazado_157893" data-name="Trazado 157893" d="M407.5,286h10.3v1.8h-8.5v5.6h8.4v1.8h-8.4v7h8.4V304H407.5V286Z" fill="#13273e"/>
        <path id="Trazado_157894" data-name="Trazado 157894" d="M420.8,286h9v1.8h-7.2v5.6h7.2v1.8h-7.2V304h-1.8Z" fill="#13273e"/>
        <path id="Trazado_157895" data-name="Trazado 157895" d="M432.9,286h10.3v1.8h-8.5v5.6h8.4v1.8h-8.4v7h8.4V304H432.9V286Z" fill="#13273e"/>
        <path id="Trazado_157896" data-name="Trazado 157896" d="M462.9,289.4l-1.4,1.1a7.694,7.694,0,0,0-2.8-2.3,8.627,8.627,0,0,0-3.6-.8,7.924,7.924,0,0,0-4,1,6.864,6.864,0,0,0-2.8,2.8,7.561,7.561,0,0,0-1,3.9,7.386,7.386,0,0,0,2.2,5.5,7.686,7.686,0,0,0,5.7,2.2,8.167,8.167,0,0,0,6.3-2.9l1.4,1.1a9.309,9.309,0,0,1-3.3,2.6,10.632,10.632,0,0,1-4.5.9,9.243,9.243,0,0,1-7.4-3.1,9.659,9.659,0,0,1-2.3-6.4,8.7,8.7,0,0,1,2.8-6.6,10.333,10.333,0,0,1,11.4-1.7A6.748,6.748,0,0,1,462.9,289.4Z" fill="#13273e"/>
        <path id="Trazado_157897" data-name="Trazado 157897" d="M464.7,287.8V286h9.8v1.8h-4v16.1h-1.8V287.8Z" fill="#13273e"/>
        <path id="Trazado_157898" data-name="Trazado 157898" d="M485.7,285.6a9.272,9.272,0,0,1,6.8,2.7,9.045,9.045,0,0,1,2.7,6.7,9.369,9.369,0,0,1-2.7,6.7,9.4,9.4,0,0,1-16.1-6.6,10.05,10.05,0,0,1,1.2-4.8,9.5,9.5,0,0,1,8.1-4.7Zm0,1.7a7.557,7.557,0,0,0-6.6,3.8,7.561,7.561,0,0,0-1,3.9,7.512,7.512,0,0,0,7.5,7.6,7.783,7.783,0,0,0,6.7-11.6,8.331,8.331,0,0,0-2.8-2.8A9.242,9.242,0,0,0,485.7,287.3Z" fill="#13273e"/>
        <path id="Trazado_157899" data-name="Trazado 157899" d="M496.9,300.6l1.5-.9c1.1,2,2.3,3,3.7,3a3.287,3.287,0,0,0,1.7-.4,4.263,4.263,0,0,0,1.2-1.1,2.822,2.822,0,0,0,.4-1.5,3.226,3.226,0,0,0-.6-1.8,14.9,14.9,0,0,0-3.1-2.9,16.388,16.388,0,0,1-2.8-2.4,4.6,4.6,0,0,1-.9-2.7,3.7,3.7,0,0,1,.6-2.1,4.629,4.629,0,0,1,1.6-1.5,4.282,4.282,0,0,1,2.2-.6,5.325,5.325,0,0,1,2.4.6,8.253,8.253,0,0,1,2.3,2.3l-1.5,1.1a7.487,7.487,0,0,0-1.7-1.8,2.934,2.934,0,0,0-1.6-.4,2.41,2.41,0,0,0-1.8.7,1.99,1.99,0,0,0-.7,1.6,3.6,3.6,0,0,0,.2,1.1,4.7,4.7,0,0,0,.9,1.2c.2.2,1,.8,2.3,1.8a13.566,13.566,0,0,1,3.2,3.1,4.839,4.839,0,0,1,.9,2.7,4.635,4.635,0,0,1-1.5,3.4,4.82,4.82,0,0,1-3.6,1.4,5.291,5.291,0,0,1-3-.9A13.609,13.609,0,0,1,496.9,300.6Z" fill="#13273e"/>
        <path id="Trazado_157900" data-name="Trazado 157900" d="M516.7,286h1.9l5.9,13.8,6-13.8h1.9l-7.8,17.9h-.4Z" fill="#13273e"/>
        <path id="Trazado_157901" data-name="Trazado 157901" d="M535.3,286h1.8v17.9h-1.8Z" fill="#13273e"/>
        <path id="Trazado_157902" data-name="Trazado 157902" d="M539.4,300.6l1.5-.9c1.1,2,2.3,3,3.7,3a3.287,3.287,0,0,0,1.7-.4,4.263,4.263,0,0,0,1.2-1.1,2.822,2.822,0,0,0,.4-1.5,3.226,3.226,0,0,0-.6-1.8,14.9,14.9,0,0,0-3.1-2.9,16.386,16.386,0,0,1-2.8-2.4,4.6,4.6,0,0,1-.9-2.7,3.7,3.7,0,0,1,.6-2.1,4.63,4.63,0,0,1,1.6-1.5,4.282,4.282,0,0,1,2.2-.6,5.326,5.326,0,0,1,2.4.6,8.253,8.253,0,0,1,2.3,2.3l-1.5,1.1a7.487,7.487,0,0,0-1.7-1.8,2.934,2.934,0,0,0-1.6-.4,2.41,2.41,0,0,0-1.8.7,1.99,1.99,0,0,0-.7,1.6,3.594,3.594,0,0,0,.2,1.1,4.7,4.7,0,0,0,.9,1.2c.2.2,1,.8,2.3,1.8a13.566,13.566,0,0,1,3.2,3.1,4.839,4.839,0,0,1,.9,2.7,4.635,4.635,0,0,1-1.5,3.4,4.82,4.82,0,0,1-3.6,1.4,5.291,5.291,0,0,1-3-.9A9.431,9.431,0,0,1,539.4,300.6Z" fill="#13273e"/>
        <path id="Trazado_157903" data-name="Trazado 157903" d="M553.7,286h1.8v10.8a12.312,12.312,0,0,0,.1,2.4,4.779,4.779,0,0,0,.6,1.8,3.09,3.09,0,0,0,1.5,1.2,4.919,4.919,0,0,0,2,.5,3.287,3.287,0,0,0,1.7-.4,7.1,7.1,0,0,0,1.4-1,4.02,4.02,0,0,0,.8-1.6,15.158,15.158,0,0,0,.2-2.8V286h1.8v10.8a13.7,13.7,0,0,1-.5,3.9,5.171,5.171,0,0,1-1.9,2.6,5.536,5.536,0,0,1-3.4,1.1,6.413,6.413,0,0,1-3.7-1,5.557,5.557,0,0,1-2.1-2.7,16.23,16.23,0,0,1-.3-3.8V286Z" fill="#13273e"/>
        <path id="Trazado_157904" data-name="Trazado 157904" d="M577.3,286l8.3,17.9h-1.9l-2.8-5.9h-7.7l-2.8,5.9h-2l8.5-17.9Zm-.3,3.8-3.1,6.5H580Z" fill="#13273e"/>
        <path id="Trazado_157905" data-name="Trazado 157905" d="M588.4,286h1.8v16.2h6.9v1.7h-8.7Z" fill="#13273e"/>
        <path id="Trazado_157906" data-name="Trazado 157906" d="M599.9,286h10.3v1.8h-8.5v5.6h8.4v1.8h-8.4v7h8.4V304H599.9Z" fill="#13273e"/>
        <path id="Trazado_157907" data-name="Trazado 157907" d="M611.4,300.6l1.5-.9c1.1,2,2.3,3,3.7,3a3.287,3.287,0,0,0,1.7-.4,4.263,4.263,0,0,0,1.2-1.1,2.822,2.822,0,0,0,.4-1.5,3.226,3.226,0,0,0-.6-1.8,14.9,14.9,0,0,0-3.1-2.9,16.386,16.386,0,0,1-2.8-2.4,4.6,4.6,0,0,1-.9-2.7,3.7,3.7,0,0,1,.6-2.1,4.63,4.63,0,0,1,1.6-1.5,4.282,4.282,0,0,1,2.2-.6,5.326,5.326,0,0,1,2.4.6,8.253,8.253,0,0,1,2.3,2.3l-1.5,1.1a7.487,7.487,0,0,0-1.7-1.8,2.934,2.934,0,0,0-1.6-.4,2.41,2.41,0,0,0-1.8.7,2.13,2.13,0,0,0-.7,1.6,3.594,3.594,0,0,0,.2,1.1,4.7,4.7,0,0,0,.9,1.2c.2.2,1,.8,2.3,1.8a13.566,13.566,0,0,1,3.2,3.1,4.839,4.839,0,0,1,.9,2.7,4.635,4.635,0,0,1-1.5,3.4,4.82,4.82,0,0,1-3.6,1.4,5.291,5.291,0,0,1-3-.9A13.6,13.6,0,0,1,611.4,300.6Z" fill="#13273e"/>
      </g>
      <rect id="Rectngulo_10949" data-name="Rectngulo 10949" width="214.4" height="3" transform="translate(407.5 270.8)" fill="#c2134b"/>
      <g id="Grupo_70494" data-name="Grupo 70494">
        <g id="Grupo_70493" data-name="Grupo 70493">
          <g id="Grupo_70486" data-name="Grupo 70486">
            <path id="Trazado_157908" data-name="Trazado 157908" d="M487.7,187.7a2.011,2.011,0,0,0-2.1,1.9v42.5a2.111,2.111,0,0,0,4.2,0V189.6A2.082,2.082,0,0,0,487.7,187.7Z" fill="#625d5f"/>
            <path id="Trazado_157909" data-name="Trazado 157909" d="M539.1,187.7a2.011,2.011,0,0,0-2.1,1.9v42.5a2.111,2.111,0,0,0,4.2,0V189.6A2.157,2.157,0,0,0,539.1,187.7Z" fill="#625d5f"/>
          </g>
          <g id="Grupo_70487" data-name="Grupo 70487">
            <path id="Trazado_157910" data-name="Trazado 157910" d="M539.1,187.7a2.011,2.011,0,0,0-2.1,1.9V191a2.111,2.111,0,0,1,4.2,0v-1.4A2.157,2.157,0,0,0,539.1,187.7Z" fill="#828383"/>
            <path id="Trazado_157911" data-name="Trazado 157911" d="M487.7,187.7a2.011,2.011,0,0,0-2.1,1.9V191a2.111,2.111,0,0,1,4.2,0v-1.4A2.082,2.082,0,0,0,487.7,187.7Z" fill="#828383"/>
          </g>
          <g id="Grupo_70488" data-name="Grupo 70488">
            <path id="Trazado_157912" data-name="Trazado 157912" d="M544,218.6a.988.988,0,0,1-1,.8H483a.915.915,0,0,1-1-.8V194.3a.908.908,0,0,1,1-.8h59.9a.915.915,0,0,1,1,.8v24.3Z" fill="#eb5f62"/>
          </g>
          <g id="Grupo_70489" data-name="Grupo 70489">
            <path id="Trazado_157913" data-name="Trazado 157913" d="M538.4,263.3a2.016,2.016,0,0,1-1.1-.3l-51.2-28.9a1.775,1.775,0,0,1-.7-2.6,2.177,2.177,0,0,1,2.8-.6l51.2,28.9a1.775,1.775,0,0,1,.7,2.6A1.853,1.853,0,0,1,538.4,263.3Z" fill="#625d5f"/>
          </g>
          <g id="Grupo_70490" data-name="Grupo 70490">
            <path id="Trazado_157914" data-name="Trazado 157914" d="M487.2,263.3a2.138,2.138,0,0,1-1.8-.9,1.792,1.792,0,0,1,.7-2.6l51.2-28.9a2.153,2.153,0,0,1,2.8.6,1.792,1.792,0,0,1-.7,2.6L488.3,263A2.016,2.016,0,0,1,487.2,263.3Z" fill="#6d6d6c"/>
          </g>
          <g id="Grupo_70491" data-name="Grupo 70491">
            <path id="Trazado_157915" data-name="Trazado 157915" d="M544,229.9a.987.987,0,0,0-1-.9H483a.923.923,0,0,0-1,.9v5.3a.987.987,0,0,0,1,.9h59.9a.923.923,0,0,0,1-.9v-5.3Z" fill="#eb5f62"/>
          </g>
          <g id="Grupo_70492" data-name="Grupo 70492">
            <path id="Trazado_157916" data-name="Trazado 157916" d="M542.9,229H483a.923.923,0,0,0-1,.9v1.7a.987.987,0,0,1,1-.9h59.9a.923.923,0,0,1,1,.9v-1.7C544,229.4,543.5,229,542.9,229Z" fill="#eb5f62"/>
            <path id="Trazado_157917" data-name="Trazado 157917" d="M542.9,193.5H483a.915.915,0,0,0-1,.8V196a.908.908,0,0,1,1-.8h59.9a.915.915,0,0,1,1,.8v-1.7C544,193.8,543.5,193.5,542.9,193.5Z" fill="#eb5f62"/>
          </g>
        </g>
        <path id="Trazado_157918" data-name="Trazado 157918" d="M515,205.9l3.7.6-2.7,2.6.6,3.7-3.3-1.7-3.4,1.7.7-3.7-2.7-2.6,3.7-.6,1.7-3.4Z" fill="#fecb40"/>
        <path id="Trazado_157919" data-name="Trazado 157919" d="M502.4,205.9l3.8.6-2.7,2.6.6,3.7-3.3-1.7-3.4,1.7.7-3.7-2.8-2.6,3.8-.6,1.7-3.4Z" fill="#fecb40"/>
        <path id="Trazado_157920" data-name="Trazado 157920" d="M527.5,205.9l3.7.6-2.7,2.6.6,3.7-3.3-1.7-3.4,1.7.7-3.7-2.7-2.6,3.7-.6,1.7-3.4Z" fill="#fecb40"/>
      </g>
      <g id="Grupo_70497" data-name="Grupo 70497">
        <path id="Trazado_157921" data-name="Trazado 157921" d="M569.8,216.1a4.9,4.9,0,1,1-4.9-4.9A4.908,4.908,0,0,1,569.8,216.1Z" fill="#524d4f"/>
        <path id="Trazado_157922" data-name="Trazado 157922" d="M585.8,216.1a4.9,4.9,0,1,1-4.9-4.9A4.908,4.908,0,0,1,585.8,216.1Z" fill="#524d4f"/>
        <path id="Trazado_157923" data-name="Trazado 157923" d="M550,228.6l.6.4a1.072,1.072,0,0,0,.6.2h0v3.6h-.1a1.421,1.421,0,0,0-.6.2l-.5.3c-.1.1-.3,0-.3-.3v-4C549.8,228.7,549.9,228.5,550,228.6Z" fill="#bccdcd"/>
        <path id="Trazado_157924" data-name="Trazado 157924" d="M566.5,229.1H552.1v3.7h12.1l3.5,4.6h5.1Z" fill="#524d4f"/>
        <path id="Trazado_157925" data-name="Trazado 157925" d="M583.4,242.4h3.1a1.9,1.9,0,0,0,2-1.7v-15a1.9,1.9,0,0,0-2-1.7H559.7a1.9,1.9,0,0,0-2,1.7v15a1.9,1.9,0,0,0,2,1.7h2.6L554,258.1a1.489,1.489,0,0,0,.8,2,1.087,1.087,0,0,0,.5.1,1.681,1.681,0,0,0,1.7-.9l9-17h5v18.4a1.655,1.655,0,0,0,1.7,1.5h0a1.655,1.655,0,0,0,1.7-1.5V242.3h5l9,17a1.852,1.852,0,0,0,1.7.9,4.329,4.329,0,0,0,.5-.1,1.477,1.477,0,0,0,.9-2Z" fill="#eb5f62"/>
        <path id="Trazado_157926" data-name="Trazado 157926" d="M595.5,226.6l-2.9.9a10.871,10.871,0,0,1-2.6.4h-.2v9h.6a11.7,11.7,0,0,1,2.6.4l2.5.8c.7.2,1.3-.1,1.3-.7v-10A.948.948,0,0,0,595.5,226.6Z" fill="#524d4f"/>
        <g id="Grupo_70495" data-name="Grupo 70495">
          <path id="Trazado_157927" data-name="Trazado 157927" d="M564.9,208.2a8,8,0,1,0,8,8A8.024,8.024,0,0,0,564.9,208.2Zm0,1.1a2.2,2.2,0,1,1-2.2,2.2A2.1,2.1,0,0,1,564.9,209.3Zm1.2,7a.3.3,0,1,1-.3.3A.319.319,0,0,1,566.1,216.3Zm-.5-.9a.3.3,0,1,1,.3-.3A.265.265,0,0,1,565.6,215.4Zm-1.8-.3a.3.3,0,1,1,.3.3A.319.319,0,0,1,563.8,215.1Zm.2,1.5a.3.3,0,1,1-.3-.3A.451.451,0,0,1,564,216.6Zm-5.9-1.8a2.2,2.2,0,1,1,2.2,2.2A2.22,2.22,0,0,1,558.1,214.8Zm3.9,7.4a2.2,2.2,0,1,1,2.2-2.2A2.22,2.22,0,0,1,562,222.2Zm2.9-4.5a.3.3,0,1,1,.3-.3A.319.319,0,0,1,564.9,217.7Zm0-.8a.7.7,0,1,1,.7-.7A.684.684,0,0,1,564.9,216.9Zm2.9,5.3A2.2,2.2,0,1,1,570,220,2.22,2.22,0,0,1,567.8,222.2Zm1.6-5.2a2.2,2.2,0,1,1,2.2-2.2A2.22,2.22,0,0,1,569.4,217Z" fill="#bccdcd"/>
          <path id="Trazado_157928" data-name="Trazado 157928" d="M580.8,208a8,8,0,1,0,8,8A8.024,8.024,0,0,0,580.8,208Zm0,1.1a2.2,2.2,0,1,1-2.2,2.2A2.22,2.22,0,0,1,580.8,209.1Zm1.3,7.1a.3.3,0,1,1-.3.3A.265.265,0,0,1,582.1,216.2Zm-.5-1a.3.3,0,1,1,.3-.3A.265.265,0,0,1,581.6,215.2Zm-1.8-.2a.3.3,0,1,1,.3.3Q579.8,215.15,579.8,215Zm.1,1.4a.3.3,0,1,1-.3-.3Q579.9,216.25,579.9,216.4Zm-5.8-1.8a2.2,2.2,0,1,1,2.2,2.2A2.156,2.156,0,0,1,574.1,214.6ZM578,222a2.2,2.2,0,1,1,2.2-2.2A2.22,2.22,0,0,1,578,222Zm2.8-4.5a.3.3,0,1,1,.3-.3A.265.265,0,0,1,580.8,217.5Zm0-.8a.7.7,0,1,1,.7-.7C581.6,216.4,581.3,216.7,580.8,216.7Zm2.9,5.3a2.2,2.2,0,1,1,2.2-2.2A2.1,2.1,0,0,1,583.7,222Zm1.6-5.1a2.2,2.2,0,1,1,2.2-2.2A2.153,2.153,0,0,1,585.3,216.9Z" fill="#bccdcd"/>
        </g>
        <g id="Grupo_70496" data-name="Grupo 70496">
          <path id="Trazado_157929" data-name="Trazado 157929" d="M571.1,260.8a1.655,1.655,0,0,0,1.7,1.5h0a1.655,1.655,0,0,0,1.7-1.5V242.4h-3.4Z" fill="#524d4f"/>
          <path id="Trazado_157930" data-name="Trazado 157930" d="M588.6,259.4a1.852,1.852,0,0,0,1.7.9,4.329,4.329,0,0,0,.5-.1,1.477,1.477,0,0,0,.9-2l-8.3-15.7h-3.8Z" fill="#524d4f"/>
          <path id="Trazado_157931" data-name="Trazado 157931" d="M554.8,260.1a1.087,1.087,0,0,0,.5.1,1.681,1.681,0,0,0,1.7-.9l9-17h-3.8L553.9,258A1.484,1.484,0,0,0,554.8,260.1Z" fill="#524d4f"/>
        </g>
        <rect id="Rectngulo_10950" data-name="Rectngulo 10950" width="20.8" height="2.1" transform="translate(562.5 235.3)" fill="#d5d3db"/>
        <rect id="Rectngulo_10951" data-name="Rectngulo 10951" width="20.8" height="2.1" transform="translate(562.4 232.2)" fill="#d5d3db"/>
      </g>
      <g id="Grupo_70500" data-name="Grupo 70500">
        <path id="Trazado_157932" data-name="Trazado 157932" d="M456.1,216.1a4.9,4.9,0,1,0,4.9-4.9A4.908,4.908,0,0,0,456.1,216.1Z" fill="#524d4f"/>
        <path id="Trazado_157933" data-name="Trazado 157933" d="M440.1,216.1a4.9,4.9,0,1,0,4.9-4.9A4.908,4.908,0,0,0,440.1,216.1Z" fill="#524d4f"/>
        <path id="Trazado_157934" data-name="Trazado 157934" d="M475.8,228.6l-.6.4a1.072,1.072,0,0,1-.6.2h0v3.6h.1a1.421,1.421,0,0,1,.6.2l.5.3c.1.1.3,0,.3-.3v-4C476.1,228.7,476,228.5,475.8,228.6Z" fill="#bccdcd"/>
        <path id="Trazado_157935" data-name="Trazado 157935" d="M459.4,229.1h14.4v3.7H461.7l-3.5,4.6h-5.1Z" fill="#524d4f"/>
        <path id="Trazado_157936" data-name="Trazado 157936" d="M442.5,242.4h-3.1a1.9,1.9,0,0,1-2-1.7v-15a1.9,1.9,0,0,1,2-1.7h26.8a1.9,1.9,0,0,1,2,1.7v15a1.9,1.9,0,0,1-2,1.7h-2.6l8.3,15.7a1.489,1.489,0,0,1-.8,2,1.087,1.087,0,0,1-.5.1,1.682,1.682,0,0,1-1.7-.9l-9-17h-5v18.4a1.655,1.655,0,0,1-1.7,1.5h0a1.655,1.655,0,0,1-1.7-1.5V242.3h-5l-9,17a1.852,1.852,0,0,1-1.7.9,4.331,4.331,0,0,1-.5-.1,1.477,1.477,0,0,1-.9-2Z" fill="#eb5f62"/>
        <path id="Trazado_157937" data-name="Trazado 157937" d="M430.4,226.6l2.9.9a10.872,10.872,0,0,0,2.6.4h.2v9h-.6a11.705,11.705,0,0,0-2.6.4l-2.5.8c-.7.2-1.3-.1-1.3-.7v-10A.921.921,0,0,1,430.4,226.6Z" fill="#524d4f"/>
        <g id="Grupo_70498" data-name="Grupo 70498">
          <path id="Trazado_157938" data-name="Trazado 157938" d="M453,216.1a8,8,0,1,0,8-8A8.024,8.024,0,0,0,453,216.1Zm10.2-4.6a2.2,2.2,0,1,1-2.2-2.2A2.22,2.22,0,0,1,463.2,211.5Zm-3.1,5.1a.3.3,0,1,1-.3-.3A.451.451,0,0,1,460.1,216.6Zm-.2-1.5a.3.3,0,1,1,.3.3A.319.319,0,0,1,459.9,215.1Zm1.9.3a.3.3,0,1,1,.3-.3Q461.95,215.4,461.8,215.4Zm.4.9a.3.3,0,1,1-.3.3A.319.319,0,0,1,462.2,216.3Zm3.3.7a2.2,2.2,0,1,1,2.2-2.2A2.22,2.22,0,0,1,465.5,217Zm-3.9,2.9a2.2,2.2,0,1,1,2.2,2.2A2.1,2.1,0,0,1,461.6,219.9Zm-.9-2.5a.3.3,0,1,1,.3.3A.265.265,0,0,1,460.7,217.4Zm-.5-1.3a.7.7,0,1,1,.7.7C460.6,216.9,460.2,216.6,460.2,216.1Zm-4.3,3.8a2.2,2.2,0,1,1,2.2,2.2A2.1,2.1,0,0,1,455.9,219.9Zm-1.6-5.1a2.2,2.2,0,1,1,2.2,2.2A2.22,2.22,0,0,1,454.3,214.8Z" fill="#bccdcd"/>
          <path id="Trazado_157939" data-name="Trazado 157939" d="M437,216a8,8,0,1,0,8-8A8.024,8.024,0,0,0,437,216Zm10.3-4.7a2.2,2.2,0,1,1-2.2-2.2A2.22,2.22,0,0,1,447.3,211.3Zm-3.2,5.1a.3.3,0,1,1-.3-.3Q444.1,216.25,444.1,216.4ZM444,215a.3.3,0,1,1,.3.3Q444,215.15,444,215Zm1.8.2a.3.3,0,1,1,.3-.3A.319.319,0,0,1,445.8,215.2Zm.4,1a.3.3,0,1,1-.3.3Q446.05,216.2,446.2,216.2Zm3.3.7a2.2,2.2,0,1,1,2.2-2.2A2.153,2.153,0,0,1,449.5,216.9Zm-3.8,2.9a2.2,2.2,0,1,1,2.2,2.2A2.22,2.22,0,0,1,445.7,219.8Zm-1-2.6a.3.3,0,1,1,.3.3A.319.319,0,0,1,444.7,217.2Zm-.4-1.2a.7.7,0,1,1,.7.7A.684.684,0,0,1,444.3,216Zm-4.4,3.8a2.2,2.2,0,1,1,2.2,2.2A2.22,2.22,0,0,1,439.9,219.8Zm-1.6-5.2a2.2,2.2,0,1,1,2.2,2.2A2.156,2.156,0,0,1,438.3,214.6Z" fill="#bccdcd"/>
        </g>
        <g id="Grupo_70499" data-name="Grupo 70499">
          <path id="Trazado_157940" data-name="Trazado 157940" d="M454.8,260.8a1.655,1.655,0,0,1-1.7,1.5h0a1.655,1.655,0,0,1-1.7-1.5V242.4h3.4Z" fill="#524d4f"/>
          <path id="Trazado_157941" data-name="Trazado 157941" d="M437.3,259.4a1.852,1.852,0,0,1-1.7.9,4.331,4.331,0,0,1-.5-.1,1.477,1.477,0,0,1-.9-2l8.3-15.7h3.8Z" fill="#524d4f"/>
          <path id="Trazado_157942" data-name="Trazado 157942" d="M471.1,260.1a1.087,1.087,0,0,1-.5.1,1.682,1.682,0,0,1-1.7-.9l-9-17h3.8L472,258A1.484,1.484,0,0,1,471.1,260.1Z" fill="#524d4f"/>
        </g>
        <rect id="Rectngulo_10952" data-name="Rectngulo 10952" width="20.8" height="2.1" transform="translate(442.6 235.3)" fill="#d5d3db"/>
        <rect id="Rectngulo_10953" data-name="Rectngulo 10953" width="20.8" height="2.1" transform="translate(442.7 232.2)" fill="#d5d3db"/>
      </g>
      <g id="Grupo_70501" data-name="Grupo 70501">
        <path id="Trazado_157943" data-name="Trazado 157943" d="M522.3,148.7a142.727,142.727,0,0,1-16.3,3.2,141.561,141.561,0,0,1-16.5,1.5s1.3,15.2,2.9,20c3.4,10.6,18.9,14.8,18.9,14.8s13.7-8.4,13.9-19.5C525.3,163.6,522.3,148.7,522.3,148.7Zm-22.8,10.8c1.8-.3,3.6,1.5,4.1,4.1l-6.8,1C496.5,162,497.7,159.8,499.5,159.5Zm10.6,20.9a7.452,7.452,0,0,1-8.4-5.9l14.8-2.1A7.488,7.488,0,0,1,510.1,180.4Zm1-17.9c-.2-2.6.9-4.8,2.7-5,1.8-.3,3.6,1.5,4.1,4.1Z" fill="#f39315"/>
        <path id="Trazado_157944" data-name="Trazado 157944" d="M510.9,150.5c.8-2.3,1.4-3.9,1.4-3.9,1.8.8,3.8,1.6,5.9,2.4C515.9,149.5,513.5,150,510.9,150.5Z" fill="#bccdcd"/>
        <path id="Trazado_157945" data-name="Trazado 157945" d="M527.9,152.3q-2.4-.75-4.5-1.5c.8,4.4,2.5,13.9,2.4,17.8a15.066,15.066,0,0,1-.9,4.7,7.616,7.616,0,0,1,2.2,7.2l-5.1-1.6a39.7,39.7,0,0,1-6.5,6.9c1,1,1.6,1.5,1.6,1.5s16-1.8,21-11.7c2.3-4.5,5.9-19.2,5.9-19.2A131.557,131.557,0,0,1,527.9,152.3Zm7.2,14.6-6.6-2c.9-2.4,2.9-3.9,4.6-3.4C534.9,162,535.7,164.4,535.1,166.9Z" fill="#bccdcd"/>
        <path id="Trazado_157946" data-name="Trazado 157946" d="M510.9,150.5c.8-2.3,1.4-3.9,1.4-3.9,1.8.8,3.8,1.6,5.9,2.4C515.9,149.5,513.5,150,510.9,150.5Z" fill="#524d4f"/>
        <path id="Trazado_157947" data-name="Trazado 157947" d="M527.9,152.3q-2.4-.75-4.5-1.5c.8,4.4,2.5,13.9,2.4,17.8a15.066,15.066,0,0,1-.9,4.7,7.616,7.616,0,0,1,2.2,7.2l-5.1-1.6a39.7,39.7,0,0,1-6.5,6.9c1,1,1.6,1.5,1.6,1.5s16-1.8,21-11.7c2.3-4.5,5.9-19.2,5.9-19.2A131.557,131.557,0,0,1,527.9,152.3Zm7.2,14.6-6.6-2c.9-2.4,2.9-3.9,4.6-3.4C534.9,162,535.7,164.4,535.1,166.9Z" fill="#524d4f"/>
        <path id="Trazado_157948" data-name="Trazado 157948" d="M514.7,150.5h0a40.509,40.509,0,0,1-.7,7c1.8-.2,3.5,1.6,3.9,4.1l-5.3.8a34.477,34.477,0,0,1-7.5,11.8l11.5-1.7a7.552,7.552,0,0,1-6.4,8,7.457,7.457,0,0,1-7.7-3.9,30.181,30.181,0,0,1-5.6,3.7c5.8,5.6,14.4,7.9,14.4,7.9s13.7-8.4,13.9-19.5c.1-5-2.9-19.9-2.9-19.9C520,149.3,517.5,149.9,514.7,150.5Z" fill="#bccdcd" opacity="0.6"/>
      </g>
    </g>
    <circle id="Elipse_4117" data-name="Elipse 4117" cx="40" cy="40" r="40" transform="translate(1015.75 519.6)" fill="url(#linear-gradient-2)"/>
    <circle id="Elipse_4118" data-name="Elipse 4118" cx="40" cy="40" r="40" transform="translate(1015.7 654.503)" fill="url(#linear-gradient-2)"/>
    <circle id="Elipse_4119" data-name="Elipse 4119" cx="40" cy="40" r="40" transform="translate(1016 789)" fill="url(#linear-gradient-2)"/>
    <circle id="Elipse_4120" data-name="Elipse 4120" cx="36.3" cy="36.3" r="36.3" transform="translate(508.7 658.25)" fill="url(#linear-gradient-3)"/>
    <circle id="Elipse_4121" data-name="Elipse 4121" cx="36.3" cy="36.3" r="36.3" transform="translate(508.7 793.1)" fill="url(#linear-gradient-3)"/>
    <circle id="Elipse_4122" data-name="Elipse 4122" cx="36.3" cy="36.3" r="36.3" transform="translate(1019 793)" fill="url(#linear-gradient-3)"/>
    <circle id="Elipse_4123" data-name="Elipse 4123" cx="36.3" cy="36.3" r="36.3" transform="translate(1019 658.203)" fill="url(#linear-gradient-3)"/>
    <circle id="Elipse_4124" data-name="Elipse 4124" cx="36.3" cy="36.3" r="36.3" transform="translate(1019 523.201)" fill="url(#linear-gradient-3)"/>
    <g id="Grupo_70480" data-name="Grupo 70480" transform="translate(285 469)">
      <path id="Trazado_157857" data-name="Trazado 157857" d="M248.6,211.7h-.3a.1.1,0,0,0-.1.1h0a.1.1,0,0,0-.1.1l-6.7,6.7-.1.1h0a.1.1,0,0,1-.1.1h0v.1h0v.1h0v.1h0v19.6a.684.684,0,0,0,.7.7H278a.684.684,0,0,0,.7-.7V228.5a.7.7,0,0,0-1.4,0V238H242.7V219.9h5.9a.684.684,0,0,0,.7-.7v-5.9h28v9.5a.7.7,0,0,0,1.4,0V212.6a.684.684,0,0,0-.7-.7l-29.4-.2Zm-.7,6.6h-4.2l4.2-4.2Z" fill="#919191" fill-rule="evenodd"/>
      <path id="Trazado_157858" data-name="Trazado 157858" d="M265.5,234.7V222.2h.4a2.4,2.4,0,1,0,0-4.8h-.4v-.6a.7.7,0,0,0-1.4,0v.6h-.4a2.4,2.4,0,1,0,0,4.8h.4v12.5a.684.684,0,0,0,.7.7C265.2,235.5,265.5,235.1,265.5,234.7Zm-2.8-14.9a.9.9,0,0,1,.9-.9h2.3a.9.9,0,0,1,0,1.8h-2.4A.882.882,0,0,1,262.7,219.8Z" fill="#919191" fill-rule="evenodd"/>
      <path id="Trazado_157859" data-name="Trazado 157859" d="M272.1,216.8a.7.7,0,0,0-1.4,0v6.6h-.4a2.4,2.4,0,0,0,0,4.8h.4v6.6a.7.7,0,0,0,1.4,0v-6.6h.4a2.4,2.4,0,0,0,0-4.8h-.4Zm.4,8a.9.9,0,0,1,0,1.8h-2.3a.9.9,0,0,1,0-1.8Z" fill="#919191" fill-rule="evenodd"/>
      <path id="Trazado_157860" data-name="Trazado 157860" d="M254.6,230.4a2.433,2.433,0,0,0,2.4,2.4h.4v2a.7.7,0,0,0,1.4,0v-2h.4a2.4,2.4,0,1,0,0-4.8h-.4V216.8h0a.7.7,0,0,0-1.4,0V228H257A2.369,2.369,0,0,0,254.6,230.4Zm4.7-1a.9.9,0,1,1,0,1.8H257a.9.9,0,1,1,0-1.8Z" fill="#919191" fill-rule="evenodd"/>
      <path id="Trazado_157861" data-name="Trazado 157861" d="M245.8,230.4a2.433,2.433,0,0,0,2.4,2.4h.4v2a.7.7,0,0,0,1.4,0v-2h.4a2.4,2.4,0,0,0,0-4.8H250v-5.1h0a.7.7,0,0,0-1.4,0V228h-.4A2.369,2.369,0,0,0,245.8,230.4Zm4.7-1a.9.9,0,0,1,0,1.8h-2.3a.9.9,0,1,1,0-1.8Z" fill="#919191" fill-rule="evenodd"/>
      <path id="Trazado_157862" data-name="Trazado 157862" d="M277.3,225.5a.7.7,0,1,0,.7-.7A.684.684,0,0,0,277.3,225.5Z" fill="#919191" fill-rule="evenodd"/>
    </g>
    <g id="Grupo_70481" data-name="Grupo 70481" transform="translate(285 469)">
      <path id="Trazado_157863" data-name="Trazado 157863" d="M242.4,359.7a.684.684,0,0,0,.7-.7V347.9a1.324,1.324,0,0,1,1.3-1.3h31a1.324,1.324,0,0,1,1.3,1.3v2.2a.7.7,0,0,0,1.4,0v-2.2a2.8,2.8,0,0,0-2.8-2.8h-31a2.8,2.8,0,0,0-2.8,2.8V359A1.068,1.068,0,0,0,242.4,359.7Z" fill="#919191" fill-rule="evenodd"/>
      <path id="Trazado_157864" data-name="Trazado 157864" d="M277.6,355.1a.684.684,0,0,0-.7.7V367a1.324,1.324,0,0,1-1.3,1.3h-31a1.324,1.324,0,0,1-1.3-1.3v-2.2a.7.7,0,1,0-1.4,0V367a2.8,2.8,0,0,0,2.8,2.8h31a2.8,2.8,0,0,0,2.8-2.8V355.9C278.3,355.5,278,355.1,277.6,355.1Z" fill="#919191" fill-rule="evenodd"/>
      <path id="Trazado_157865" data-name="Trazado 157865" d="M255.4,351.1a.854.854,0,0,0-.7,0,.822.822,0,0,0-.4.6v11.4a.548.548,0,0,0,.4.6c.1.1.2.1.4.1a.756.756,0,0,0,.4-.1l9.9-5.7a.822.822,0,0,0,.4-.6.548.548,0,0,0-.4-.6Zm.4,10.8V353l7.7,4.5Z" fill="#919191" fill-rule="evenodd"/>
      <path id="Trazado_157866" data-name="Trazado 157866" d="M277.6,375H254.2v-.7a2.6,2.6,0,1,0-5.2,0v.7h-6.6a.7.7,0,0,0,0,1.4H249v.7a2.6,2.6,0,1,0,5.2,0v-.7h23.4a.7.7,0,0,0,0-1.4Zm-24.8,2.1a1.216,1.216,0,0,1-1.2,1.2,1.155,1.155,0,0,1-1.2-1.2v-2.8a1.216,1.216,0,0,1,1.2-1.2,1.155,1.155,0,0,1,1.2,1.2Z" fill="#919191" fill-rule="evenodd"/>
      <path id="Trazado_157867" data-name="Trazado 157867" d="M242.4,362.6a.7.7,0,1,0-.7-.7A.684.684,0,0,0,242.4,362.6Z" fill="#919191" fill-rule="evenodd"/>
      <path id="Trazado_157868" data-name="Trazado 157868" d="M277.6,352.2a.7.7,0,1,0,.7.7A.684.684,0,0,0,277.6,352.2Z" fill="#919191" fill-rule="evenodd"/>
    </g>
    <g id="Grupo_70482" data-name="Grupo 70482" transform="translate(285 469)">
      <path id="Trazado_157869" data-name="Trazado 157869" d="M788.5,75.9H753a.684.684,0,0,0-.7.7V101a.684.684,0,0,0,.7.7h12.6v2.1h-3.9a.7.7,0,1,0,0,1.4h18.1a.7.7,0,1,0,0-1.4h-3.9v-2.1h12.6a.684.684,0,0,0,.7-.7V91.7a.7.7,0,0,0-1.4,0v8.6H753.7V77.4h34.1V86a.7.7,0,0,0,1.4,0V76.7A.713.713,0,0,0,788.5,75.9Zm-14,25.8v2.1H767v-2.1Z" fill="#919191" fill-rule="evenodd"/>
      <path id="Trazado_157870" data-name="Trazado 157870" d="M766.8,91.9a.756.756,0,0,0,.4-.1l7.9-4.5a.822.822,0,0,0,.4-.6.548.548,0,0,0-.4-.6l-7.9-4.5a.854.854,0,0,0-.7,0,.822.822,0,0,0-.4.6v9.1a.548.548,0,0,0,.4.6Zm.7-8.6,5.7,3.3-5.7,3.3Z" fill="#919191" fill-rule="evenodd"/>
      <path id="Trazado_157871" data-name="Trazado 157871" d="M761.1,96.2a.684.684,0,0,0,.7.7h22.9a.7.7,0,1,0,0-1.4H761.8A.684.684,0,0,0,761.1,96.2Z" fill="#919191" fill-rule="evenodd"/>
      <path id="Trazado_157872" data-name="Trazado 157872" d="M755.9,94.2v4a.7.7,0,0,0,1.4,0v-4a.7.7,0,0,0-1.4,0Z" fill="#919191" fill-rule="evenodd"/>
      <path id="Trazado_157873" data-name="Trazado 157873" d="M758.5,94.2v4a.7.7,0,0,0,1.4,0v-4a.7.7,0,0,0-1.4,0Z" fill="#919191" fill-rule="evenodd"/>
      <path id="Trazado_157874" data-name="Trazado 157874" d="M788.5,88.1a.7.7,0,1,0,.7.7A.684.684,0,0,0,788.5,88.1Z" fill="#919191" fill-rule="evenodd"/>
    </g>
    <g id="Grupo_70483" data-name="Grupo 70483" transform="translate(285 469)">
      <path id="Trazado_157875" data-name="Trazado 157875" d="M788.4,222.3a.684.684,0,0,0-.7.7v12.9a1.538,1.538,0,0,1-1.5,1.5h-31a1.538,1.538,0,0,1-1.5-1.5v-2.2a.7.7,0,0,0-1.4,0v2.2a2.9,2.9,0,0,0,2.9,2.9h31a2.9,2.9,0,0,0,2.9-2.9V223A.684.684,0,0,0,788.4,222.3Z" fill="#919191" fill-rule="evenodd"/>
      <path id="Trazado_157876" data-name="Trazado 157876" d="M786.2,212.1h-31a2.9,2.9,0,0,0-2.9,2.9v13a.7.7,0,0,0,1.4,0V215.1a1.538,1.538,0,0,1,1.5-1.5h31a1.538,1.538,0,0,1,1.5,1.5v2.2a.7.7,0,0,0,1.4,0v-2.2A2.989,2.989,0,0,0,786.2,212.1Z" fill="#919191" fill-rule="evenodd"/>
      <path id="Trazado_157877" data-name="Trazado 157877" d="M761.1,223.2a.684.684,0,0,0-.7.7v3.2a.684.684,0,0,0,.7.7h1.1a11.921,11.921,0,0,0,.8,2l-.8.8a.668.668,0,0,0,0,1l2.3,2.3a.725.725,0,0,0,1,0l.8-.8a6.982,6.982,0,0,0,2,.8V235a.684.684,0,0,0,.7.7h3.2a.684.684,0,0,0,.7-.7v-1a11.917,11.917,0,0,0,2-.8l.8.8a.725.725,0,0,0,1,0l2.3-2.3a.725.725,0,0,0,0-1l-.8-.8a6.982,6.982,0,0,0,.8-2h1.1a.684.684,0,0,0,.7-.7V224a.684.684,0,0,0-.7-.7H779a11.921,11.921,0,0,0-.8-2l.8-.8a.725.725,0,0,0,0-1l-2.3-2.3a.725.725,0,0,0-1,0l-.8.8a6.982,6.982,0,0,0-2-.8v-1.1a.684.684,0,0,0-.7-.7H769a.684.684,0,0,0-.7.7v1.1a11.917,11.917,0,0,0-2,.8l-.8-.8a.668.668,0,0,0-1,0l-2.3,2.3a.668.668,0,0,0,0,1l.8.8a6.982,6.982,0,0,0-.8,2h-1.1Zm2.4.8a6.6,6.6,0,0,1,1.1-2.6.633.633,0,0,0-.1-.9l-.7-.7,1.3-1.3.7.7a.744.744,0,0,0,.9.1,7.564,7.564,0,0,1,2.6-1.1.858.858,0,0,0,.6-.7v-1h1.8v1a.73.73,0,0,0,.6.7,6.6,6.6,0,0,1,2.6,1.1.633.633,0,0,0,.9-.1l.7-.7,1.3,1.3-.7.7a.744.744,0,0,0-.1.9,7.563,7.563,0,0,1,1.1,2.6.858.858,0,0,0,.7.6h1v1.8h-1a.73.73,0,0,0-.7.6,6.6,6.6,0,0,1-1.1,2.6.633.633,0,0,0,.1.9l.7.7-1.3,1.3-.7-.7a.744.744,0,0,0-.9-.1,7.564,7.564,0,0,1-2.6,1.1.858.858,0,0,0-.6.7v1h-1.8v-1a.73.73,0,0,0-.6-.7,6.6,6.6,0,0,1-2.6-1.1.633.633,0,0,0-.9.1l-.7.7-1.3-1.3.7-.7a.744.744,0,0,0,.1-.9,7.563,7.563,0,0,1-1.1-2.6.858.858,0,0,0-.7-.6h-1v-1.8h1A.73.73,0,0,0,763.5,224Z" fill="#919191" fill-rule="evenodd"/>
      <path id="Trazado_157878" data-name="Trazado 157878" d="M768.3,229.7c.1.1.2.1.4.1a.756.756,0,0,0,.4-.1l6.2-3.6a.822.822,0,0,0,.4-.6.622.622,0,0,0-.4-.6l-6.2-3.6a.854.854,0,0,0-.7,0,.822.822,0,0,0-.4.6V229A.779.779,0,0,0,768.3,229.7Zm1.1-6.5,4,2.3-4,2.3Z" fill="#919191" fill-rule="evenodd"/>
      <path id="Trazado_157879" data-name="Trazado 157879" d="M753,231.6a.7.7,0,1,0-.7-.7A.684.684,0,0,0,753,231.6Z" fill="#919191" fill-rule="evenodd"/>
      <path id="Trazado_157880" data-name="Trazado 157880" d="M788.4,219.4a.7.7,0,1,0,.7.7A.684.684,0,0,0,788.4,219.4Z" fill="#919191" fill-rule="evenodd"/>
    </g>
    <g id="Grupo_70484" data-name="Grupo 70484" transform="translate(285 469)">
      <path id="Trazado_157881" data-name="Trazado 157881" d="M788.6,350.9H763.8v-5.7a2.22,2.22,0,0,0-2.2-2.2h-2.2a2.22,2.22,0,0,0-2.2,2.2v5.7h-4.4a.684.684,0,0,0-.7.7v20.2a.684.684,0,0,0,.7.7h15.9l-4.7,3.9a.711.711,0,0,0,.9,1.1l5.8-4.8,5.8,4.8a.764.764,0,0,0,.5.2.864.864,0,0,0,.6-.3.668.668,0,0,0-.1-1l-4.7-3.9h15.9a.684.684,0,0,0,.7-.7V351.6A.849.849,0,0,0,788.6,350.9Zm-29.9-5.7a.684.684,0,0,1,.7-.7h2.2a.684.684,0,0,1,.7.7v2.1h-3.6v-2.1Zm29.2,25.9H753.6V352.4h3.7v2.5a.7.7,0,0,0,1.4,0v-6h3.6v14.8h-3.6v-2.9a.7.7,0,1,0-1.4,0v3.7h0v.1h0v.1h0v.1h0v.1h0l2.5,3.8a.75.75,0,0,0,1.2,0l2.5-3.8h0v-.1h0v-.1h0v-.1h0v-.1h0V352.6h24.1v18.5ZM761.7,365l-1.2,1.8-1.2-1.8Z" fill="#919191" fill-rule="evenodd"/>
      <path id="Trazado_157882" data-name="Trazado 157882" d="M772.8,365.7h12.1a.7.7,0,1,0,0-1.4H772.8a.7.7,0,0,0,0,1.4Z" fill="#919191" fill-rule="evenodd"/>
      <path id="Trazado_157883" data-name="Trazado 157883" d="M772.8,362.4h12.1a.7.7,0,0,0,0-1.4H772.8a.7.7,0,0,0,0,1.4Z" fill="#919191" fill-rule="evenodd"/>
      <path id="Trazado_157884" data-name="Trazado 157884" d="M772.8,359.2h12.1a.7.7,0,1,0,0-1.4H772.8a.7.7,0,0,0,0,1.4Z" fill="#919191" fill-rule="evenodd"/>
      <path id="Trazado_157885" data-name="Trazado 157885" d="M772.8,368.9h12.1a.7.7,0,0,0,0-1.4H772.8a.7.7,0,0,0,0,1.4Z" fill="#919191" fill-rule="evenodd"/>
      <path id="Trazado_157886" data-name="Trazado 157886" d="M772.8,355.9h12.1a.7.7,0,0,0,0-1.4H772.8a.7.7,0,0,0,0,1.4Z" fill="#919191" fill-rule="evenodd"/>
      <path id="Trazado_157887" data-name="Trazado 157887" d="M767.8,365.7H770a.7.7,0,1,0,0-1.4h-2.2a.7.7,0,0,0,0,1.4Z" fill="#919191" fill-rule="evenodd"/>
      <path id="Trazado_157888" data-name="Trazado 157888" d="M767.8,362.4H770a.7.7,0,0,0,0-1.4h-2.2a.684.684,0,0,0-.7.7C767,362.1,767.4,362.4,767.8,362.4Z" fill="#919191" fill-rule="evenodd"/>
      <path id="Trazado_157889" data-name="Trazado 157889" d="M767.8,355.9H770a.7.7,0,0,0,0-1.4h-2.2a.7.7,0,0,0,0,1.4Z" fill="#919191" fill-rule="evenodd"/>
      <path id="Trazado_157890" data-name="Trazado 157890" d="M769.9,367.4h-2.2a.7.7,0,0,0,0,1.4h2.2a.684.684,0,0,0,.7-.7C770.7,367.8,770.3,367.4,769.9,367.4Z" fill="#919191" fill-rule="evenodd"/>
      <path id="Trazado_157891" data-name="Trazado 157891" d="M767.8,359.2H770a.7.7,0,1,0,0-1.4h-2.2a.7.7,0,0,0,0,1.4Z" fill="#919191" fill-rule="evenodd"/>
      <path id="Trazado_157892" data-name="Trazado 157892" d="M757.9,358.4a.7.7,0,1,0-.7-.7A.684.684,0,0,0,757.9,358.4Z" fill="#919191" fill-rule="evenodd"/>
    </g>
  </g>
</svg>
