<svg xmlns="http://www.w3.org/2000/svg" xmlns:xlink="http://www.w3.org/1999/xlink" width="1030.999" height="112.982" viewBox="0 0 1030.999 112.982">
  <defs>
    <linearGradient id="linear-gradient" x1="0.5" x2="0.5" y2="1" gradientUnits="objectBoundingBox">
      <stop offset="0" stop-color="#d44f4a"/>
      <stop offset="0.479" stop-color="#fa9300"/>
      <stop offset="1" stop-color="#d44f4a"/>
    </linearGradient>
  </defs>
  <g id="Grupo_71044" data-name="Grupo 71044" transform="translate(-284.501 -1444.52)">
    <path id="Uni贸n_1" data-name="Uni贸n 1" d="M586.64,111.979v-7.946h16.916v7.946Zm-20.229,0v-7.946h16.919v7.946Zm-20.23,0v-7.946H563.1v7.946Zm-20.227,0v-7.946H542.87v7.946Zm-20.229,0h0v-7.946h16.92v7.946Zm-20.229,0v-7.946h16.916v7.946Zm-20.229,0v-7.946h16.92v7.946Zm-20.227,0v-7.946h16.917v7.946Zm-20.232,0v-7.946h16.92v7.946Zm-20.229,0v-7.946H421.5v7.946Zm-20.227,0v-7.946h16.92v7.946Zm-20.229,0v-7.946h16.92v7.946Zm-20.23,0v-7.946h16.917v7.946Zm-20.229,0v-7.946h16.917v7.946Zm-20.226,0v-7.946h16.917v7.946Zm-20.229,0v-7.946h16.915v7.946Zm-20.231,0v-7.946H279.9v7.946Zm-20.229,0v-7.946h16.917v7.946Zm-20.229,0v-7.946h16.921v7.946Zm-20.226,0v-7.946h16.917v7.946Zm-20.229,0v-7.946h16.917v7.946Zm-20.229,0v-7.946h16.92v7.946Zm-20.229,0v-7.946h16.919v7.946Zm-20.227,0v-7.946h16.917v7.946Zm-20.229,0v-7.946h16.917v7.946Zm-20.229,0v-7.946H97.835v7.946Zm-20.229,0v-7.946H77.6v7.946Zm-20.229,0v-7.946h16.92v7.946Zm-20.229,0v-7.946H37.149v7.946Zm-20.23,0v-7.946H16.92v7.946Zm566.41-11.562V92.473h16.919v7.945Zm-20.23,0V92.473H563.1v7.945Zm-20.227,0V92.473H542.87v7.945Zm-20.229,0h0V92.473h16.92v7.945Zm-20.229,0V92.473h16.916v7.945Zm-20.229,0V92.473h16.92v7.945Zm-20.227,0V92.473h16.917v7.945Zm-20.232,0V92.473h16.92v7.945Zm-20.226,0V92.473H421.5v7.945Zm-20.23,0V92.473h16.92v7.945Zm-20.229,0V92.473h16.92v7.945Zm-20.23,0V92.473h16.917v7.945Zm-20.229,0V92.473h16.917v7.945Zm-20.226,0V92.473h16.917v7.945Zm-20.229,0V92.473h16.915v7.945Zm-20.231,0V92.473H279.9v7.945Zm-20.229,0V92.473h16.921v7.945Zm-40.454,0V92.473h16.917v7.945Zm-20.229,0V92.473h16.917v7.945Zm-20.229,0V92.473h16.92v7.945Zm-20.229,0V92.473h16.919v7.945Zm-40.456,0V92.473h16.917v7.945Zm-20.229,0V92.473H97.835v7.945Zm-20.229,0V92.473H77.6v7.945Zm-20.229,0V92.473h16.92v7.945Zm-20.229,0V92.473H37.149v7.945Zm-20.23,0V92.473H16.92v7.945ZM546.184,88.859h0V80.915H563.1v7.944Zm-20.23,0V80.915H542.87v7.944Zm-20.229,0h0V80.915h16.92v7.944Zm-40.455,0h0V80.915h16.92v7.944Zm-40.463,0V80.915h16.92v7.944Zm-20.226,0V80.915H421.5v7.944Zm-20.23,0V80.915h16.92v7.944Zm-20.229,0V80.915h16.92v7.944Zm-20.23,0V80.915h16.917v7.944Zm-20.226,0h0V80.915h16.917v7.944Zm-20.229,0V80.915h16.917v7.944Zm-20.229,0V80.915h16.915v7.944Zm-20.231,0V80.915H279.9v7.944Zm-20.226,0h0V80.915h16.921v7.944Zm-40.458,0V80.915h16.917v7.944Zm-40.459,0V80.915h16.92v7.944Zm-20.229,0V80.915h16.919v7.944Zm-40.456,0V80.915h16.917v7.944Zm-20.229,0V80.915H97.835v7.944Zm-20.229,0V80.915H77.6v7.944Zm-20.229,0V80.915h16.92v7.944Zm-20.226,0h0V80.915H37.149v7.944ZM0,88.859H0V80.915H16.92v7.944ZM546.184,77.3h0V69.354H563.1V77.3Zm-40.459,0h0V69.354h16.92V77.3Zm-40.455,0h0V69.354h16.92V77.3Zm-40.463,0V69.354h16.92V77.3Zm-40.456,0V69.354h16.92V77.3Zm-40.46,0V69.354h16.917V77.3Zm-20.226,0h0V69.354h16.917V77.3Zm-20.229,0V69.354h16.917V77.3Zm-20.229,0V69.354h16.915V77.3Zm-40.457,0h0V69.354h16.921V77.3Zm-80.917,0V69.354h16.92V77.3Zm-20.229,0V69.354h16.919V77.3Zm-60.686,0V69.354H97.835V77.3Zm-20.229,0V69.354H77.6V77.3Zm-20.229,0V69.354h16.92V77.3Zm-20.226,0h0V69.354H37.149V77.3ZM0,77.3H0V69.354H16.92V77.3Zm546.18-11.562h0V57.8H563.1v7.945Zm-40.459,0h0V57.8h16.92v7.945Zm-80.918,0V57.8h16.92v7.945Zm-40.456,0V57.8h16.92v7.945Zm-40.46,0V57.8h16.917v7.945Zm-20.226,0h0V57.8h16.917v7.945Zm-20.229,0V57.8h16.917v7.945Zm-20.229,0V57.8h16.915v7.945Zm-40.457,0h0V57.8h16.921v7.945Zm-80.917,0V57.8h16.92v7.945Zm-80.915,0V57.8H97.835v7.945Zm-20.229,0V57.8H77.6v7.945Zm-20.229,0V57.8h16.92v7.945Zm-20.226,0h0V57.8H37.149v7.945ZM424.807,54.185v-7.95h16.92v7.95Zm-40.456,0v-7.95h16.92v7.95Zm-40.46,0v-7.95h16.917v7.95Zm-40.454,0v-7.95h16.917v7.95Zm-20.229,0v-7.95h16.915v7.95Zm-40.457,0h0v-7.95h16.921v7.95Zm-80.917,0v-7.95h16.92v7.95Zm-80.915,0v-7.95H97.835v7.95Zm-40.459,0v-7.95h16.92v7.95Zm-20.226,0h0v-7.95H37.149v7.95ZM424.807,42.623V34.678h16.92v7.945Zm-121.37,0V34.678h16.917v7.945Zm-20.229,0V34.678h16.915v7.945Zm-121.374,0V34.678h16.92v7.945Zm-80.915,0V34.678H97.835v7.945Zm-40.459,0V34.678h16.92v7.945Zm-20.229,0V34.678H37.149v7.945Zm404.576-11.56V23.116h16.92v7.947Zm-121.37,0V23.116h16.917v7.947Zm-262.978,0V23.116h16.92v7.947Zm-20.229,0V23.116H37.149v7.947ZM303.437,19.5V11.56h16.917V19.5Zm-262.978,0V11.56h16.92V19.5ZM303.437,7.945V0h16.917V7.945Zm-262.978,0V0h16.92V7.945Z" transform="translate(285.001 1445.021)" stroke="rgba(0,0,0,0)" stroke-miterlimit="10" stroke-width="1" fill="url(#linear-gradient)"/>
    <path id="Uni贸n_2" data-name="Uni贸n 2" d="M404.576,111.982v-7.947H421.5v7.947Zm-20.226,0v-7.947h16.917v7.947Zm-20.232,0v-7.947h16.92v7.947Zm-20.229,0v-7.947h16.917v7.947Zm-20.228,0v-7.947h16.917v7.947Zm-20.227,0v-7.947h16.917v7.947Zm-20.231,0v-7.947h16.917v7.947Zm-20.229,0v-7.947H279.9v7.947Zm-20.229,0v-7.947h16.917v7.947Zm-20.228,0v-7.947h16.917v7.947Zm-20.229,0v-7.947h16.916v7.947Zm-20.229,0v-7.947h16.92v7.941l0,.006Zm-20.231,0v-7.947h16.92v7.947Zm-20.227,0v-7.947H158.52v7.947Zm-20.228,0v-7.947h16.917v7.947Zm-20.229,0v-7.947h16.917v7.947Zm-20.232,0v-7.947h16.92v7.947Zm-20.229,0v-7.947h16.92v7.947Zm-20.229,0v-7.947h16.92v7.947Zm-20.229,0v-7.947H37.146v7.947ZM0,111.982v-7.947H16.917v7.947Zm404.579-11.561V92.476H421.5v7.946Zm-20.229,0V92.476h16.917v7.946Zm-20.232,0V92.476h16.92v7.946Zm-20.229,0V92.476h16.917v7.946Zm-20.228,0V92.476h16.917v7.946Zm-20.227,0V92.476h16.917v7.946Zm-20.231,0V92.476h16.92v7.946Zm-20.229,0V92.476h16.917v7.946Zm-20.229,0V92.476h16.92v7.94l0,.006Zm-40.456,0V92.476h16.919v7.94l0,.006Zm-20.229,0V92.476h16.92v7.946Zm-20.231,0V92.476h16.92v7.946Zm-20.227,0V92.476H158.52v7.946Zm-40.456,0V92.476h16.917v7.946Zm-20.229,0V92.476H97.834v7.946Zm-20.231,0V92.476h16.92v7.946Zm-20.229,0V92.476h16.92v7.946Zm-20.229,0V92.476h16.92v7.946ZM0,100.422V92.476H16.917v7.946ZM404.579,88.863V80.917H421.5v7.946Zm-20.229,0V80.917h16.917v7.946Zm-20.232,0V80.917h16.92v7.946Zm-20.229,0V80.917h16.917v7.946Zm-20.228,0V80.917h16.917v7.946Zm-20.227,0V80.917h16.917v7.946Zm-20.231,0V80.917h16.92v7.946Zm-20.229,0V80.917h16.917v7.946Zm-20.229,0V80.917h16.92v7.946Zm-40.456,0V80.917h16.919v7.94l0,.006Zm-40.461,0V80.917h16.92v7.946Zm-20.227,0V80.917H158.52v7.946Zm-40.456,0V80.917h16.917v7.946Zm-20.229,0V80.917H97.834v7.946Zm-20.231,0V80.917h16.92v7.946Zm-20.229,0V80.917h16.92v7.946Zm-20.229,0V80.917h16.92v7.946ZM0,88.863V80.917H16.917v7.946ZM384.351,77.3V69.357h16.917V77.3Zm-40.461,0V69.357h16.917V77.3Zm-20.228,0V69.357h16.917V77.3Zm-20.227,0V69.357h16.917V77.3Zm-20.231,0V69.357h16.92V77.3Zm-40.458,0V69.357h16.92V77.3Zm-80.917,0V69.357h16.92V77.3Zm-20.227,0V69.357H158.52V77.3Zm-60.686,0V69.357H97.834V77.3Zm-20.231,0V69.357h16.92V77.3Zm-20.229,0V69.357h16.92V77.3Zm-20.229,0V69.357h16.92V77.3ZM0,77.3V69.357H16.917V77.3ZM384.351,65.743V57.8h16.917v7.947Zm-40.461,0V57.8h16.917v7.947Zm-20.228,0V57.8h16.917v7.947Zm-20.227,0V57.8h16.917v7.947Zm-20.231,0V57.8h16.92v7.947Zm-40.458,0V57.8h16.92v7.941l0,.006Zm-80.917,0V57.8h16.92v7.947Zm-80.912,0V57.8H97.834v7.947Zm-20.231,0V57.8h16.92v7.947Zm-20.229,0V57.8h16.92v7.947Zm-20.229,0V57.8h16.92v7.947ZM384.351,54.186V46.238h16.917v7.947Zm-40.461,0V46.238h16.917v7.947Zm-40.454,0V46.238h16.917v7.947Zm-20.231,0V46.238h16.92v7.947Zm-40.458,0V46.238h16.92V54.18l0,.006Zm-80.917,0V46.238h16.92v7.947Zm-80.912,0V46.238H97.834v7.947Zm-40.46,0V46.238h16.92v7.947Zm-20.229,0V46.238h16.92v7.947ZM303.436,42.625V34.679h16.917v7.946Zm-20.231,0V34.679h16.92v7.946Zm-121.375,0V34.679h16.92v7.946Zm-80.912,0V34.679H97.834v7.946Zm-40.46,0V34.679h16.92v7.946Zm-20.229,0V34.679h16.92v7.946ZM303.436,31.064V23.117h16.917v7.947Zm-262.979,0V23.117h16.92v7.947Zm-20.229,0V23.117h16.92v7.947ZM303.436,19.507V11.561h16.917v7.946Zm-262.979,0V11.561h16.92v7.946ZM303.436,7.946V0h16.917V7.946Zm-262.979,0V0h16.92V7.946Z" transform="translate(893.504 1445.02)" stroke="rgba(0,0,0,0)" stroke-miterlimit="10" stroke-width="1" fill="url(#linear-gradient)"/>
  </g>
</svg>
