<svg xmlns="http://www.w3.org/2000/svg" width="295" height="57" viewBox="0 0 295 57">
  <g id="Grupo_71072" data-name="Grupo 71072" transform="translate(-12379 5246)">
    <g id="Grupo_71070" data-name="Grupo 71070" transform="translate(0 368)">
      <g id="Grupo_71067" data-name="Grupo 71067" transform="translate(0 328)">
        <g id="Grupo_71064" data-name="Grupo 71064" transform="translate(11569 -11700)">
          <rect id="Rectángulo_11547" data-name="Rectángulo 11547" width="295" height="57" transform="translate(810 5758)" fill="none"/>
        </g>
      </g>
    </g>
    <g id="Grupo_71071" data-name="Grupo 71071" transform="translate(-2.3 -3.669)">
      <rect id="Rectángulo_11572" data-name="Rectángulo 11572" width="4.765" height="14.188" transform="translate(12481.303 -5205.464)" fill="#edc596"/>
      <rect id="Rectángulo_11573" data-name="Rectángulo 11573" width="4.765" height="17.866" transform="translate(12490.235 -5209.142)" fill="#edc596"/>
      <rect id="Rectángulo_11574" data-name="Rectángulo 11574" width="4.765" height="43.325" transform="translate(12499.166 -5234.6)" fill="#edc596"/>
      <rect id="Rectángulo_11575" data-name="Rectángulo 11575" width="4.765" height="27.245" transform="translate(12508.1 -5218.521)" fill="#edc596"/>
      <rect id="Rectángulo_11576" data-name="Rectángulo 11576" width="4.765" height="11.166" transform="translate(12517.033 -5202.441)" fill="#edc596"/>
      <rect id="Rectángulo_11577" data-name="Rectángulo 11577" width="4.765" height="5.583" transform="translate(12525.966 -5196.858)" fill="#edc596"/>
      <rect id="Rectángulo_11578" data-name="Rectángulo 11578" width="4.765" height="18.145" transform="translate(12534.899 -5209.42)" fill="#edc596"/>
      <rect id="Rectángulo_11579" data-name="Rectángulo 11579" width="4.765" height="46.032" transform="translate(12543.83 -5237.308)" fill="#edc596"/>
      <rect id="Rectángulo_11580" data-name="Rectángulo 11580" width="4.765" height="40.673" transform="translate(12552.765 -5231.948)" fill="#edc596"/>
      <rect id="Rectángulo_11581" data-name="Rectángulo 11581" width="4.765" height="33.08" transform="translate(12561.698 -5224.355)" fill="#edc596"/>
      <rect id="Rectángulo_11582" data-name="Rectángulo 11582" width="4.765" height="24.147" transform="translate(12570.632 -5215.421)" fill="#edc596"/>
    </g>
  </g>
</svg>
