<svg xmlns="http://www.w3.org/2000/svg" width="295" height="60.129" viewBox="0 0 295 60.129">
  <g id="Grupo_71063" data-name="Grupo 71063" transform="translate(-0.005)">
    <g id="Grupo_71062" data-name="Grupo 71062" transform="translate(83.75 0.001)">
      <path id="Trazado_158038" data-name="Trazado 158038" d="M175.156,206.389l-1.466-6.17H164.4l-.745,1.568-1.49-1.568h-5.7l-1.847,2.916-1.109-2.916H119.858V201.6H137.23l.735-.775,5.93,7.8,4.386-8.075,5.064,13.326,6.373-10.06,5.588,5.883,3.562-7.5,5.941,25,7.324-26.979h-5.3Z" transform="translate(-119.858 -167.07)" fill="#edc596"/>
      <path id="Trazado_158039" data-name="Trazado 158039" d="M290.617,201.959l-.6-1.741H279.98l-2.257,6.731-1.37-6.731h-5.28l5.38,26.419L285,201.146l4.806,13.908,6.479-13.64,4.426,4.657,4.426-4.657,2.625,5.525,5.072-5.338h16.753v-1.381H291.444Z" transform="translate(-203.588 -167.069)" fill="#edc596"/>
      <path id="Trazado_158040" data-name="Trazado 158040" d="M334.688,190.687l-2.625-5.525-6.074,6.394-6.074-6.394-3.194,6.72h38.144V190.5h-20Z" transform="translate(-228.863 -158.732)" fill="#edc596"/>
      <path id="Trazado_158041" data-name="Trazado 158041" d="M295.976,167.193l-4.943,14.739h10.035Z" transform="translate(-214.639 -148.782)" fill="#edc596"/>
      <path id="Trazado_158042" data-name="Trazado 158042" d="M256.562,125.941h-.041l-9,33.149h5.3l2.976-10.963,2.233,10.963h5.28Z" transform="translate(-190.545 -125.941)" fill="#edc596"/>
      <path id="Trazado_158043" data-name="Trazado 158043" d="M149.182,174.714l-6.114,11.262-4.57-6.011-4.515,4.75H119.858V186.1H153.51Z" transform="translate(-119.858 -152.946)" fill="#edc596"/>
      <path id="Trazado_158044" data-name="Trazado 158044" d="M219.667,184.048h9.289l-3.1-13.033Z" transform="translate(-175.123 -150.899)" fill="#edc596"/>
    </g>
    <rect id="Rectángulo_11547" data-name="Rectángulo 11547" width="295" height="57" transform="translate(0.005)" fill="none"/>
  </g>
</svg>
