<svg xmlns="http://www.w3.org/2000/svg" width="295" height="57" viewBox="0 0 295 57">
  <g id="Grupo_71073" data-name="Grupo 71073" transform="translate(-12379 5246)">
    <g id="Grupo_71070" data-name="Grupo 71070" transform="translate(0 368)">
      <g id="Grupo_71067" data-name="Grupo 71067" transform="translate(0 328)">
        <g id="Grupo_71064" data-name="Grupo 71064" transform="translate(11569 -11700)">
          <rect id="Rectángulo_11547" data-name="Rectángulo 11547" width="295" height="57" transform="translate(810 5758)" fill="none"/>
        </g>
      </g>
    </g>
    <path id="Trazado_158058" data-name="Trazado 158058" d="M2151.986,118.914h-9.69v-6.759c0-.746-.868-1.352-1.938-1.352s-1.938.606-1.938,1.352v6.759h-3.876V95.935c0-.746-.869-1.352-1.938-1.352s-1.938.605-1.938,1.352v22.979h-3.876V104.045c0-.746-.868-1.352-1.938-1.352s-1.939.606-1.939,1.352v14.869h-3.875v-9.462c0-.746-.869-1.352-1.938-1.352s-1.938.606-1.938,1.352v9.462h-3.877v-4.055c0-.746-.868-1.352-1.938-1.352s-1.937.605-1.937,1.352v4.055h-7.753v-6.759c0-.746-.868-1.352-1.938-1.352s-1.938.606-1.938,1.352v6.759H2091.9V104.045c0-.746-.869-1.352-1.937-1.352s-1.939.606-1.939,1.352v14.869h-3.876v-9.462c0-.746-.868-1.352-1.938-1.352s-1.938.606-1.938,1.352v9.462H2076.4v-4.055c0-.746-.868-1.352-1.938-1.352s-1.939.605-1.939,1.352v4.055h-9.69c-1.07,0-1.938.606-1.938,1.352s.869,1.352,1.938,1.352h9.69v4.055c0,.746.869,1.352,1.939,1.352s1.938-.605,1.938-1.352v-4.055h3.876v9.462c0,.746.868,1.352,1.938,1.352s1.938-.606,1.938-1.352v-9.462h3.876v14.869c0,.746.868,1.352,1.939,1.352s1.938-.606,1.938-1.352V121.618h3.876v6.759c0,.746.869,1.352,1.938,1.352s1.938-.606,1.938-1.352v-6.759h7.753v4.055c0,.746.868,1.352,1.938,1.352s1.938-.605,1.938-1.352v-4.055h3.876v9.462c0,.746.868,1.352,1.938,1.352s1.938-.606,1.938-1.352v-9.462h3.875v14.869c0,.746.869,1.352,1.939,1.352s1.938-.606,1.938-1.352V121.618h3.876V144.6c0,.746.868,1.352,1.938,1.352s1.938-.605,1.938-1.352V121.618h3.876v6.759c0,.746.868,1.352,1.938,1.352s1.938-.606,1.938-1.352v-6.759h9.69c1.07,0,1.938-.606,1.938-1.352s-.868-1.352-1.938-1.352" transform="translate(10419.105 -5337.583)" fill="#edc596"/>
  </g>
</svg>
