<svg xmlns="http://www.w3.org/2000/svg" width="420" height="420" viewBox="0 0 420 420">
  <g id="Grupo_71217" data-name="Grupo 71217" transform="translate(-390 -2340.945)">
    <rect id="Rectángulo_5290" data-name="Rectángulo 5290" width="420" height="420" rx="10" transform="translate(390 2340.945)" fill="#fff"/>
    <g id="prop" transform="translate(412.144 2369.514)">
      <g id="Grupo_57566" data-name="Grupo 57566" transform="translate(0 0)">
        <ellipse id="Elipse_4392" data-name="Elipse 4392" cx="13.873" cy="5.72" rx="13.873" ry="5.72" transform="translate(226.832 45.038)" fill="#fff" stroke="#000" stroke-width="1"/>
        <g id="Grupo_57519" data-name="Grupo 57519" transform="translate(103.094 133.677)">
          <path id="Trazado_101711" data-name="Trazado 101711" d="M511.4,240.161a328.022,328.022,0,0,1,84.947,0v27.614a328.022,328.022,0,0,0-84.947,0Z" transform="translate(-416.525 -237.4)" fill="#ae676b" stroke="#000" stroke-width="1"/>
          <path id="Trazado_101712" data-name="Trazado 101712" d="M367.1,306.169c0-12.426,9.731-23.932,26.234-33.269v27.614c-16.5,9.336-26.234,20.842-26.234,33.269V306.169Z" transform="translate(-367.1 -249.559)" fill="#8e6fa1" stroke="#000" stroke-width="1"/>
          <path id="Trazado_101713" data-name="Trazado 101713" d="M744.2,272.4c16.832,9.4,26.825,20.974,26.825,33.6v27.614c0-12.558-9.928-24.2-26.825-33.6Z" transform="translate(-496.263 -249.388)" fill="#927830" stroke="#000" stroke-width="1"/>
          <path id="Trazado_101714" data-name="Trazado 101714" d="M640.6,241.6c27.549,3.682,51.284,10.848,68.115,20.251v27.614c-16.832-9.4-40.567-16.569-68.115-20.251Z" transform="translate(-460.778 -238.839)" fill="#a86d4b" stroke="#000" stroke-width="1"/>
          <path id="Trazado_101715" data-name="Trazado 101715" d="M407,262.179c16.9-9.534,40.83-16.832,68.707-20.579v27.614C447.83,272.962,423.9,280.26,407,289.794Z" transform="translate(-380.766 -238.839)" fill="#a66885" stroke="#000" stroke-width="1"/>
          <path id="Trazado_101716" data-name="Trazado 101716" d="M367.1,323.5c0,12.558,9.928,24.2,26.825,33.6v27.614c-16.832-9.4-26.825-20.974-26.825-33.6Z" transform="translate(-367.1 -266.891)" fill="#657bab" stroke="#000" stroke-width="1"/>
        </g>
        <g id="Grupo_57521" data-name="Grupo 57521" transform="translate(226.898 52.007)">
          <g id="Grupo_57520" data-name="Grupo 57520">
            <path id="Trazado_101717" data-name="Trazado 101717" d="M583.08,187.52c-5.786,6.443-21.894,6.378-27.68,0V160.3c5.786,6.378,21.96,6.443,27.68,0Z" transform="translate(-555.4 -133.08)" fill="#e8e8e8" stroke="#000" stroke-width="0.923"/>
            <path id="Trazado_101718" data-name="Trazado 101718" d="M583.08,146.12c-5.786,6.443-21.894,6.378-27.68,0V118.9c5.786,6.312,21.96,6.443,27.68,0Z" transform="translate(-555.4 -118.9)" fill="#fff" stroke="#000" stroke-width="0.923"/>
            <path id="Trazado_101719" data-name="Trazado 101719" d="M583.08,228.92c-5.786,6.443-21.894,6.378-27.68,0V201.7c5.786,6.378,21.894,6.443,27.68,0Z" transform="translate(-555.4 -145.881)" fill="#cbcbcb" stroke="#000" stroke-width="0.923"/>
            <path id="Trazado_101720" data-name="Trazado 101720" d="M583.08,270.22c-5.786,6.378-21.894,6.378-27.68,0V243c5.852,6.378,21.894,6.443,27.68,0Z" transform="translate(-555.4 -159.339)" fill="#b3b3b3" stroke="#000" stroke-width="0.923"/>
            <path id="Trazado_101721" data-name="Trazado 101721" d="M583.08,311.62c-5.852,6.378-21.894,6.378-27.68,0V284.4c5.852,6.378,21.894,6.378,27.68,0Z" transform="translate(-555.4 -172.83)" fill="#969696" stroke="#000" stroke-width="0.923"/>
            <path id="Trazado_101722" data-name="Trazado 101722" d="M583.08,353.02c-5.852,6.378-21.894,6.378-27.68,0V325.8c5.852,6.378,21.894,6.378,27.68,0Z" transform="translate(-555.4 -186.32)" fill="#7c7c7c" stroke="#000" stroke-width="0.923"/>
            <path id="Trazado_101723" data-name="Trazado 101723" d="M583.08,394.42c-5.852,6.378-21.894,6.378-27.68,0V367.2c5.852,6.378,21.894,6.378,27.68,0Z" transform="translate(-555.4 -199.811)" fill="#616161" stroke="#000" stroke-width="0.923"/>
            <path id="Trazado_101724" data-name="Trazado 101724" d="M583.08,435.72c-5.852,6.378-21.894,6.443-27.68,0V408.5c5.852,6.378,21.894,6.378,27.68,0Z" transform="translate(-555.4 -213.268)" fill="#464646" stroke="#000" stroke-width="0.923"/>
            <path id="Trazado_101725" data-name="Trazado 101725" d="M583.08,477.12c-5.852,6.378-21.894,6.443-27.68,0V449.9c5.852,6.443,21.828,6.378,27.68,0Z" transform="translate(-555.4 -226.759)" fill="#303030" stroke="#000" stroke-width="0.923"/>
            <path id="Trazado_101726" data-name="Trazado 101726" d="M583.08,518.52c-5.852,6.312-21.829,6.443-27.68,0V491.3c5.852,6.443,21.828,6.312,27.68,0Z" transform="translate(-555.4 -239.56)" fill="#1c1c1c" stroke="#000" stroke-width="0.923"/>
            <path id="Trazado_101727" data-name="Trazado 101727" d="M583.08,559.92c-5.917,6.312-21.894,6.443-27.68,0V532.7c5.852,6.443,21.828,6.312,27.68,0Z" transform="translate(-555.4 -253.74)" stroke="#000" stroke-width="0.923"/>
          </g>
        </g>
        <g id="Grupo_57522" data-name="Grupo 57522" transform="translate(240.442 190.442)">
          <path id="Trazado_101728" data-name="Trazado 101728" d="M576,323.5" transform="translate(-576 -323.5)" fill="none" stroke="#7c7c7c" stroke-linecap="square" stroke-linejoin="bevel" stroke-width="9.891"/>
          <path id="Trazado_101729" data-name="Trazado 101729" d="M576,365.4" transform="translate(-576 -337.851)" fill="none" stroke="#7c7c7c" stroke-linecap="square" stroke-linejoin="bevel" stroke-width="9.891"/>
        </g>
        <g id="Grupo_57523" data-name="Grupo 57523" transform="translate(0 191.229)">
          <path id="Trazado_101730" data-name="Trazado 101730" d="M210.4,351.014c0,22.026,17.423,42.342,46.879,58.779V382.179C227.823,365.742,210.4,345.426,210.4,323.4Z" transform="translate(-210.334 -323.4)" fill="#2e7cd6" stroke="#000" stroke-width="1"/>
          <path id="Trazado_101731" data-name="Trazado 101731" d="M244.686,323.5c0,18.87,14.925,36.293,40.172,50.363v27.614l-27.68,8.416V382.279C227.723,365.842,210.3,345.526,210.3,323.5Z" transform="translate(-210.3 -323.434)" fill="#2e7cd6" stroke="#000" stroke-width="1"/>
          <path id="Trazado_101732" data-name="Trazado 101732" d="M296.955,323.5c0,15.714,12.426,30.244,33.532,41.948v27.614l-27.614,8.416V373.863C277.625,359.793,262.7,342.37,262.7,323.5Z" transform="translate(-228.248 -323.434)" fill="#487bc7" stroke="#000" stroke-width="1"/>
          <path id="Trazado_101733" data-name="Trazado 101733" d="M349.186,323.5c0,12.558,9.928,24.2,26.825,33.6v27.614l-27.68,8.416V365.513c-21.04-11.769-33.532-26.234-33.532-41.948l34.386-.066Z" transform="translate(-246.093 -323.434)" fill="#597bb9" stroke="#000" stroke-width="1"/>
          <path id="Trazado_101734" data-name="Trazado 101734" d="M401.421,323.5c0,9.4,7.5,18.147,20.119,25.182V376.3l-27.614,8.416V357.1c-16.832-9.4-26.825-20.974-26.825-33.6Z" transform="translate(-264.006 -323.434)" fill="#657bab" stroke="#000" stroke-width="1"/>
          <path id="Trazado_101735" data-name="Trazado 101735" d="M467.033,367.88V340.266c-8.416-4.668-13.413-10.52-13.413-16.766H419.3c0,9.4,7.5,18.147,20.119,25.182V376.3Z" transform="translate(-281.886 -323.434)" fill="#6f7a9c" stroke="#000" stroke-width="1"/>
          <path id="Trazado_101736" data-name="Trazado 101736" d="M484.913,367.846l27.614-8.416V331.816c-4.208-2.367-6.706-5.26-6.706-8.416H471.5c0,6.312,5,12.1,13.413,16.766v27.68Z" transform="translate(-299.765 -323.4)" fill="#787a8e" stroke="#000" stroke-width="1"/>
          <path id="Trazado_101737" data-name="Trazado 101737" d="M547.009,326.819v27.614l-16.5,5V331.816c-4.208-2.367-6.706-5.26-6.706-8.416h20.711C544.445,324.846,545.957,326.1,547.009,326.819Z" transform="translate(-317.679 -323.4)" fill="#7c7c7c" stroke="#000" stroke-width="1"/>
          <line id="Línea_139" data-name="Línea 139" x1="182.386" y2="55.36" transform="translate(46.944 3.419)" fill="none" stroke="#000" stroke-width="1"/>
        </g>
        <g id="Grupo_57524" data-name="Grupo 57524" transform="translate(129.853 191.257)">
          <path id="Trazado_101738" data-name="Trazado 101738" d="M596.347,405.3a323.155,323.155,0,0,1-42.473,2.761A324.673,324.673,0,0,1,511.4,405.3v27.614a323.16,323.16,0,0,0,42.474,2.761,324.669,324.669,0,0,0,42.473-2.761Z" transform="translate(-443.284 -351.518)" fill="#2d8788" stroke="#000" stroke-width="1"/>
          <path id="Trazado_101739" data-name="Trazado 101739" d="M709.307,374.1c-16.9,9.534-40.83,16.832-68.707,20.579v27.614c27.877-3.748,51.81-11.046,68.707-20.579Z" transform="translate(-487.538 -340.831)" fill="#42886d" stroke="#000" stroke-width="1"/>
          <path id="Trazado_101740" data-name="Trazado 101740" d="M771.334,323.5c0,12.426-9.731,23.932-26.234,33.269v27.614c16.5-9.336,26.234-20.842,26.234-33.269Z" transform="translate(-523.33 -323.5)" fill="#72823d" stroke="#000" stroke-width="1"/>
          <path id="Trazado_101741" data-name="Trazado 101741" d="M475.915,394.751C448.367,391.069,424.632,383.9,407.8,374.5v27.614c16.832,9.4,40.567,16.569,68.115,20.251Z" transform="translate(-407.8 -340.968)" fill="#3584a2" stroke="#000" stroke-width="1"/>
        </g>
        <g id="Grupo_57525" data-name="Grupo 57525" transform="translate(89.615 110.276)">
          <line id="Línea_140" data-name="Línea 140" x2="23.669" y2="21.04" transform="translate(3.945 51.284)" fill="none" stroke="#000" stroke-width="1"/>
          <line id="Línea_141" data-name="Línea 141" x2="19.067" y2="30.244" transform="translate(52.599 19.067)" fill="none" stroke="#000" stroke-width="1"/>
          <line id="Línea_142" data-name="Línea 142" x2="10.52" y2="24.327" transform="translate(117.69 13.15)" fill="none" stroke="#000" stroke-width="1"/>
          <line id="Línea_143" data-name="Línea 143" x2="6.575" y2="49.311" transform="translate(217.627)" fill="none" stroke="#000" stroke-width="1"/>
          <line id="Línea_144" data-name="Línea 144" x2="14.465" y2="45.366" transform="translate(260.364 26.299)" fill="none" stroke="#000" stroke-width="1"/>
          <line id="Línea_145" data-name="Línea 145" y1="29.587" x2="7.89" transform="translate(61.541 143.726)" fill="none" stroke="#000" stroke-width="1"/>
          <line id="Línea_146" data-name="Línea 146" y1="43.394" x2="37.477" transform="translate(103.948 152.602)" fill="none" stroke="#000" stroke-width="1"/>
          <line id="Línea_147" data-name="Línea 147" x2="17.358" y2="9.928" transform="translate(252.277 99.28)" fill="none" stroke="#000" stroke-width="1"/>
          <line id="Línea_148" data-name="Línea 148" x2="23.143" y2="23.669" transform="translate(235.643 137.809)" fill="none" stroke="#000" stroke-width="1"/>
          <line id="Línea_149" data-name="Línea 149" y1="38.792" x2="1.315" transform="translate(0 141.359)" fill="none" stroke="#000" stroke-width="1"/>
        </g>
        <g id="Chroma_Labels" transform="translate(25.247 198.354)">
          <g id="Grupo_57526" data-name="Grupo 57526" transform="translate(192.643 7.693)">
            <path id="Trazado_101742" data-name="Trazado 101742" d="M544.527,355.876c-1.644,0-2.827-1.578-2.827-4.405,0-2.893,1.249-4.471,2.959-4.471,1.775,0,2.827,1.578,2.827,4.339,0,2.893-1.052,4.537-2.959,4.537Zm.066-.92c1.183,0,1.709-1.381,1.709-3.55,0-2.1-.526-3.485-1.709-3.485-1.052,0-1.709,1.315-1.709,3.485-.066,2.235.592,3.55,1.709,3.55Z" transform="translate(-541.7 -347)"/>
          </g>
          <g id="Grupo_57527" data-name="Grupo 57527" transform="translate(172.13 14.333)">
            <path id="Trazado_101743" data-name="Trazado 101743" d="M510.5,365.713v-.723l.92-.855c2.17-2.1,3.156-3.156,3.156-4.471a1.5,1.5,0,0,0-1.709-1.644,2.957,2.957,0,0,0-1.841.723l-.395-.789a4.014,4.014,0,0,1,2.433-.855,2.413,2.413,0,0,1,2.63,2.5c0,1.578-1.118,2.827-2.959,4.6l-.657.657h3.813v.986l-5.391-.132Z" transform="translate(-510.5 -357.1)"/>
          </g>
          <g id="Grupo_57528" data-name="Grupo 57528" transform="translate(132.352)">
            <path id="Trazado_101744" data-name="Trazado 101744" d="M453.945,343.782v-2.3H450v-.723l3.813-5.457h1.249v5.326h1.183v.921h-1.183v2.3l-1.118-.066Zm0-3.222v-2.827a8.384,8.384,0,0,1,.066-1.315h-.066a10.517,10.517,0,0,1-.723,1.249l-2.1,2.893h2.827Z" transform="translate(-450 -335.3)"/>
          </g>
          <g id="Grupo_57529" data-name="Grupo 57529" transform="translate(100.99 4.208)">
            <path id="Trazado_101745" data-name="Trazado 101745" d="M407.3,342.62a4.045,4.045,0,0,0-.855.066,3.407,3.407,0,0,0-2.959,3.024h0a2.588,2.588,0,0,1,2.1-.986,2.542,2.542,0,0,1,2.564,2.762,2.851,2.851,0,0,1-2.827,3.024c-1.841,0-3.024-1.446-3.024-3.616a5.362,5.362,0,0,1,1.446-3.879,4.492,4.492,0,0,1,2.761-1.249,4.365,4.365,0,0,1,.855-.066l-.066.92Zm-1.972,7.035c.986,0,1.644-.855,1.644-2.038a1.794,1.794,0,0,0-3.419-.921,1.019,1.019,0,0,0-.132.526c.066,1.381.723,2.433,1.907,2.433Z" transform="translate(-402.3 -341.7)"/>
          </g>
          <g id="Grupo_57530" data-name="Grupo 57530" transform="translate(68.115 8.81)">
            <path id="Trazado_101746" data-name="Trazado 101746" d="M355.324,348.7a2.235,2.235,0,0,1,2.5,2.1,2.149,2.149,0,0,1-1.446,1.972v.066a2.367,2.367,0,0,1,1.709,2.235,2.607,2.607,0,0,1-2.893,2.5c-1.775,0-2.893-1.052-2.893-2.3a2.509,2.509,0,0,1,1.709-2.3v-.066A2.1,2.1,0,0,1,352.629,351a2.438,2.438,0,0,1,2.7-2.3Zm-.066,8.021a1.545,1.545,0,0,0,1.709-1.512c0-1.052-.723-1.512-1.907-1.841a1.857,1.857,0,0,0-1.512,1.775,1.554,1.554,0,0,0,1.709,1.578Zm0-7.167a1.384,1.384,0,0,0-1.512,1.381c0,.855.658,1.315,1.644,1.578a1.743,1.743,0,0,0,1.315-1.578,1.294,1.294,0,0,0-1.447-1.381Z" transform="translate(-352.3 -348.7)"/>
          </g>
          <g id="Grupo_57531" data-name="Grupo 57531" transform="translate(32.02 12.689)">
            <path id="Trazado_101747" data-name="Trazado 101747" d="M299.109,356.052h0l-1.512.789-.2-.855,1.841-.986h.986v8.547h-1.118Z" transform="translate(-297.4 -354.737)"/>
            <path id="Trazado_101748" data-name="Trazado 101748" d="M309.127,363.476c-1.644,0-2.827-1.578-2.827-4.405,0-2.893,1.249-4.471,2.959-4.471,1.775,0,2.827,1.578,2.827,4.339,0,2.959-1.118,4.537-2.959,4.537Zm.066-.855c1.183,0,1.709-1.381,1.709-3.55,0-2.1-.526-3.485-1.709-3.485-1.052,0-1.709,1.315-1.709,3.485-.066,2.17.592,3.55,1.709,3.55Z" transform="translate(-300.448 -354.6)"/>
          </g>
          <g id="Grupo_57532" data-name="Grupo 57532" transform="translate(0 18.081)">
            <path id="Trazado_101749" data-name="Trazado 101749" d="M250.409,364.052h0l-1.512.789-.2-.855,1.841-.986h.986v8.547h-1.118Z" transform="translate(-248.7 -362.869)"/>
            <path id="Trazado_101750" data-name="Trazado 101750" d="M257.8,371.413v-.723l.92-.855c2.17-2.1,3.156-3.156,3.156-4.471a1.5,1.5,0,0,0-1.709-1.644,2.957,2.957,0,0,0-1.841.723l-.395-.789a4.013,4.013,0,0,1,2.433-.855,2.413,2.413,0,0,1,2.63,2.5c0,1.578-1.118,2.827-2.959,4.6l-.658.658h3.813v.986l-5.391-.132Z" transform="translate(-251.817 -362.8)"/>
          </g>
        </g>
        <g id="Value_Labels" transform="translate(262.271 66.395)">
          <g id="Grupo_57533" data-name="Grupo 57533" transform="translate(1.183)">
            <path id="Trazado_101751" data-name="Trazado 101751" d="M612.709,131.652h0l-1.512.789-.2-.855,1.841-.986h.986v8.547h-1.118v-7.5Z" transform="translate(-611 -130.403)"/>
            <path id="Trazado_101752" data-name="Trazado 101752" d="M622.727,139.176c-1.644,0-2.827-1.578-2.827-4.405,0-2.893,1.249-4.471,2.959-4.471,1.775,0,2.827,1.578,2.827,4.339,0,2.959-1.052,4.537-2.959,4.537Zm.066-.92c1.183,0,1.709-1.381,1.709-3.55,0-2.1-.526-3.485-1.709-3.485-1.052,0-1.709,1.315-1.709,3.485-.066,2.235.592,3.55,1.709,3.55Z" transform="translate(-614.048 -130.3)"/>
          </g>
          <g id="Grupo_57534" data-name="Grupo 57534" transform="translate(0.263 54.637)">
            <path id="Trazado_101753" data-name="Trazado 101753" d="M612.624,213.4a2.235,2.235,0,0,1,2.5,2.1,2.149,2.149,0,0,1-1.446,1.972v.066a2.367,2.367,0,0,1,1.709,2.235,2.607,2.607,0,0,1-2.893,2.5c-1.775,0-2.893-1.052-2.893-2.3a2.509,2.509,0,0,1,1.709-2.3v-.066a2.1,2.1,0,0,1-1.381-1.907,2.438,2.438,0,0,1,2.7-2.3Zm-.066,7.956a1.545,1.545,0,0,0,1.709-1.512c0-1.052-.723-1.512-1.907-1.841a1.857,1.857,0,0,0-1.512,1.775,1.522,1.522,0,0,0,1.709,1.578Zm0-7.167a1.384,1.384,0,0,0-1.512,1.381c0,.855.657,1.315,1.644,1.578a1.743,1.743,0,0,0,1.315-1.578,1.325,1.325,0,0,0-1.446-1.381Z" transform="translate(-609.6 -213.4)"/>
          </g>
          <g id="Grupo_57535" data-name="Grupo 57535" transform="translate(0.263 274.829)">
            <path id="Trazado_101754" data-name="Trazado 101754" d="M612.427,557.176c-1.644,0-2.827-1.578-2.827-4.405,0-2.893,1.249-4.471,2.959-4.471,1.775,0,2.827,1.578,2.827,4.339.066,2.959-1.052,4.537-2.959,4.537Zm.066-.92c1.183,0,1.709-1.381,1.709-3.55,0-2.1-.526-3.485-1.709-3.485-1.052,0-1.709,1.315-1.709,3.485-.066,2.235.657,3.55,1.709,3.55Z" transform="translate(-609.6 -548.3)"/>
          </g>
          <g id="Grupo_57536" data-name="Grupo 57536" transform="translate(0.394 221.046)">
            <path id="Trazado_101755" data-name="Trazado 101755" d="M609.8,475.113v-.723l.921-.855c2.17-2.1,3.156-3.156,3.156-4.471a1.5,1.5,0,0,0-1.709-1.644,2.957,2.957,0,0,0-1.841.723l-.394-.789a4.013,4.013,0,0,1,2.433-.855,2.413,2.413,0,0,1,2.63,2.5c0,1.578-1.118,2.827-2.959,4.6l-.658.658h3.813v.986l-5.391-.132Z" transform="translate(-609.8 -466.5)"/>
          </g>
          <g id="Grupo_57537" data-name="Grupo 57537" transform="translate(0.263 111.181)">
            <path id="Trazado_101756" data-name="Trazado 101756" d="M614.6,300.32a4.047,4.047,0,0,0-.855.066,3.407,3.407,0,0,0-2.959,3.024h0a2.588,2.588,0,0,1,2.1-.986,2.542,2.542,0,0,1,2.564,2.761,2.851,2.851,0,0,1-2.827,3.024c-1.841,0-3.024-1.446-3.024-3.616a5.363,5.363,0,0,1,1.446-3.879,4.492,4.492,0,0,1,2.761-1.249,4.364,4.364,0,0,1,.855-.066l-.066.92Zm-1.972,6.969c.986,0,1.644-.855,1.644-2.038a1.794,1.794,0,0,0-3.419-.921,1.019,1.019,0,0,0-.131.526c0,1.381.657,2.433,1.907,2.433Z" transform="translate(-609.6 -299.4)"/>
          </g>
          <g id="Grupo_57538" data-name="Grupo 57538" transform="translate(0 165.883)">
            <path id="Trazado_101757" data-name="Trazado 101757" d="M613.145,391.147V388.78H609.2v-.723l3.813-5.457h1.249v5.326h1.183v.921h-1.183v2.3Zm0-3.222v-2.893a8.384,8.384,0,0,1,.066-1.315h-.066a10.528,10.528,0,0,1-.723,1.249l-2.1,2.893h2.827Z" transform="translate(-609.2 -382.6)"/>
          </g>
          <g id="Grupo_57539" data-name="Grupo 57539" transform="translate(0.46 138.598)">
            <path id="Trazado_101758" data-name="Trazado 101758" d="M614.963,342.086h-3.288l-.329,2.17c.2,0,.394-.066.723-.066a3.486,3.486,0,0,1,1.841.46,2.516,2.516,0,0,1,1.249,2.235A2.945,2.945,0,0,1,612,349.779a4.074,4.074,0,0,1-2.1-.526l.263-.855a3.923,3.923,0,0,0,1.841.46,1.926,1.926,0,0,0,2.038-1.841c0-1.118-.723-1.907-2.433-1.907-.526,0-.855.066-1.183.066l.526-4.076h4.076l-.066.986Z" transform="translate(-609.9 -341.1)"/>
          </g>
        </g>
        <g id="Grupo_57552" data-name="Grupo 57552" transform="translate(13.018 0)">
          <g id="Grupo_57544" data-name="Grupo 57544" transform="translate(66.077)">
            <g id="Grupo_57541" data-name="Grupo 57541" transform="translate(0 78.241)">
              <g id="Grupo_57540" data-name="Grupo 57540">
                <line id="Línea_150" data-name="Línea 150" y2="28.272" transform="translate(3.156)" fill="none" stroke="#14315d" stroke-width="1.5"/>
                <path id="Trazado_101759" data-name="Trazado 101759" d="M333.756,204.889A20.189,20.189,0,0,0,330.6,199.3l3.156,1.118,3.156-1.118A21.18,21.18,0,0,0,333.756,204.889Z" transform="translate(-330.6 -172.672)" fill="#14315d"/>
              </g>
            </g>
            <g id="Grupo_57543" data-name="Grupo 57543">
              <g id="Grupo_57542" data-name="Grupo 57542">
                <line id="Línea_151" data-name="Línea 151" y2="68.05" transform="translate(3.156 3.945)" fill="none" stroke="#14315d" stroke-width="1.5"/>
                <path id="Trazado_101760" data-name="Trazado 101760" d="M333.756,39.8a20.187,20.187,0,0,0,3.156,5.589l-3.156-1.118L330.6,45.389A18.058,18.058,0,0,0,333.756,39.8Z" transform="translate(-330.6 -39.8)" fill="#14315d"/>
              </g>
            </g>
          </g>
          <g id="Grupo_57549" data-name="Grupo 57549" transform="translate(21.763 34.255)">
            <g id="Grupo_57546" data-name="Grupo 57546" transform="translate(51.218)">
              <g id="Grupo_57545" data-name="Grupo 57545">
                <path id="Trazado_101761" data-name="Trazado 101761" d="M341.1,94.9a104.114,104.114,0,0,1,14.07,1.381" transform="translate(-341.1 -92.928)" fill="none" stroke="#0b3a18" stroke-width="1.5"/>
                <path id="Trazado_101762" data-name="Trazado 101762" d="M365.349,95.911a20.729,20.729,0,0,0-6.049,2.17l1.644-2.893-.592-3.287A20.3,20.3,0,0,0,365.349,95.911Z" transform="translate(-347.334 -91.9)" fill="#0b3a18"/>
              </g>
            </g>
            <g id="Grupo_57548" data-name="Grupo 57548" transform="translate(0 1.972)">
              <g id="Grupo_57547" data-name="Grupo 57547">
                <path id="Trazado_101763" data-name="Trazado 101763" d="M355.577,107.984a9.992,9.992,0,0,1,2.564,6.378c0,10.783-21.237,19.527-47.47,19.527s-47.47-8.745-47.47-19.527c0-10.323,19.4-18.738,43.986-19.462" transform="translate(-263.2 -94.9)" fill="none" stroke="#0b3a18" stroke-width="1.5"/>
                <path id="Trazado_101764" data-name="Trazado 101764" d="M399.8,110.2a20.847,20.847,0,0,0,5.983,2.3l-3.09,1.118-1.644,2.893A21.1,21.1,0,0,0,399.8,110.2Z" transform="translate(-309.988 -100.14)" fill="#0b3a18"/>
              </g>
            </g>
          </g>
          <g id="Grupo_57551" data-name="Grupo 57551" transform="translate(0 55.163)">
            <g id="Grupo_57550" data-name="Grupo 57550">
              <line id="Línea_152" data-name="Línea 152" x1="57.53" y2="15.188" transform="translate(3.813 2.564)" fill="none" stroke="#591d24" stroke-width="1.5"/>
              <path id="Trazado_101765" data-name="Trazado 101765" d="M230.1,149.871a20.134,20.134,0,0,0,4.668-4.471l-.329,3.287,1.907,2.761A21.8,21.8,0,0,0,230.1,149.871Z" transform="translate(-230.1 -131.133)" fill="#591d24"/>
              <path id="Trazado_101766" data-name="Trazado 101766" d="M325.946,125.278a20.135,20.135,0,0,0-4.668,4.471l.329-3.287L319.7,123.7A20.3,20.3,0,0,0,325.946,125.278Z" transform="translate(-260.789 -123.7)" fill="#591d24"/>
            </g>
          </g>
        </g>
        <g id="Grupo_57553" data-name="Grupo 57553" transform="translate(111.246 29.521)">
          <path id="Trazado_101767" data-name="Trazado 101767" d="M386.469,84.7v1.249h-2.761v9.665h-1.381V85.949H379.5V84.7Z" transform="translate(-379.5 -84.7)"/>
          <path id="Trazado_101768" data-name="Trazado 101768" d="M393.779,97.39a3.971,3.971,0,0,1-1.972-.46,3.487,3.487,0,0,1-1.381-1.381,4.337,4.337,0,0,1-.526-2.1,3.924,3.924,0,0,1,1.052-2.893,4.15,4.15,0,0,1,5.523,0,3.824,3.824,0,0,1,1.052,2.893,3.923,3.923,0,0,1-1.052,2.893A3.718,3.718,0,0,1,393.779,97.39Zm0-1.118a2.251,2.251,0,0,0,1.775-.789,3.234,3.234,0,0,0,0-4.076,2.392,2.392,0,0,0-3.55,0,3.234,3.234,0,0,0,0,4.076A2.251,2.251,0,0,0,393.779,96.272Z" transform="translate(-383.062 -86.344)"/>
          <path id="Trazado_101769" data-name="Trazado 101769" d="M408.45,89.4a2.594,2.594,0,0,1,1.907.657,2.683,2.683,0,0,1,.723,1.972v5.128h-1.315v-4.8a1.852,1.852,0,0,0-.46-1.381,1.89,1.89,0,0,0-1.183-.46,2.122,2.122,0,0,0-1.381.526,2.165,2.165,0,0,0-.526,1.578v4.537H404.9V89.6h1.315v.986A2.436,2.436,0,0,1,408.45,89.4Z" transform="translate(-388.2 -86.31)"/>
          <path id="Trazado_101770" data-name="Trazado 101770" d="M421.079,97.39a3.971,3.971,0,0,1-1.972-.46,3.487,3.487,0,0,1-1.381-1.381,4.338,4.338,0,0,1-.526-2.1,3.924,3.924,0,0,1,1.052-2.893,4.15,4.15,0,0,1,5.523,0,3.824,3.824,0,0,1,1.052,2.893,3.924,3.924,0,0,1-1.052,2.893A3.718,3.718,0,0,1,421.079,97.39Zm0-1.118a2.251,2.251,0,0,0,1.775-.789,3.234,3.234,0,0,0,0-4.076,2.392,2.392,0,0,0-3.55,0,3.234,3.234,0,0,0,0,4.076A2.251,2.251,0,0,0,421.079,96.272Z" transform="translate(-392.413 -86.344)"/>
        </g>
        <g id="Grupo_57554" data-name="Grupo 57554" transform="translate(292.318 91.137)">
          <path id="Trazado_101771" data-name="Trazado 101771" d="M660.357,176h1.052v8.153h-1.118l-4.405-6.575v6.575H654.9V176h1.052l4.405,6.575Z" transform="translate(-654.9 -175.803)"/>
          <path id="Trazado_101772" data-name="Trazado 101772" d="M669.209,185.417a1.9,1.9,0,0,1-1.249-.395,1.407,1.407,0,0,1-.46-1.183,2.362,2.362,0,0,1,.132-.723,1.17,1.17,0,0,1,.46-.526,2.055,2.055,0,0,1,.657-.329c.263-.066.526-.131.855-.2l.92-.132c.329-.066.526-.263.526-.526a1.136,1.136,0,0,0-.329-.855,1.391,1.391,0,0,0-.92-.263,1.51,1.51,0,0,0-.921.263.937.937,0,0,0-.394.789l-.92-.2a1.884,1.884,0,0,1,.723-1.249,2.362,2.362,0,0,1,1.578-.395,3.332,3.332,0,0,1,.855.132,2.058,2.058,0,0,1,.657.329,1.05,1.05,0,0,1,.46.592,3.793,3.793,0,0,1,.2.92v2.367a1.312,1.312,0,0,0,.132.592c.066.132.263.132.46.132h.066v.723h-.526c-.592,0-.986-.263-1.052-.789h-.066A1.99,1.99,0,0,1,669.209,185.417Zm.2-.789a1.684,1.684,0,0,0,1.249-.526,2.087,2.087,0,0,0,.46-1.512l-1.512.263a1.766,1.766,0,0,0-.855.329.8.8,0,0,0,0,1.183A.762.762,0,0,0,669.407,184.628Z" transform="translate(-659.216 -177.002)"/>
          <path id="Trazado_101773" data-name="Trazado 101773" d="M678.521,180.618a1.672,1.672,0,0,1,.723-.789,2.216,2.216,0,0,1,1.118-.329v.92a1.963,1.963,0,0,0-1.315.395,1.607,1.607,0,0,0-.46,1.315v3.024H677.6V179.5h.986v1.118Z" transform="translate(-662.675 -177.002)"/>
          <path id="Trazado_101774" data-name="Trazado 101774" d="M684.51,185.417a1.9,1.9,0,0,1-1.249-.395,1.407,1.407,0,0,1-.46-1.183,2.362,2.362,0,0,1,.132-.723,1.17,1.17,0,0,1,.46-.526,2.055,2.055,0,0,1,.657-.329c.263-.066.526-.131.855-.2l.92-.132c.329-.066.526-.263.526-.526a1.136,1.136,0,0,0-.329-.855,1.391,1.391,0,0,0-.92-.263,1.51,1.51,0,0,0-.921.263.937.937,0,0,0-.394.789l-.92-.2a1.884,1.884,0,0,1,.723-1.249,2.362,2.362,0,0,1,1.578-.395,3.332,3.332,0,0,1,.855.132,2.058,2.058,0,0,1,.657.329,1.05,1.05,0,0,1,.46.592,3.793,3.793,0,0,1,.2.92v2.367a1.312,1.312,0,0,0,.132.592c.066.132.263.132.46.132h.066v.723h-.46c-.592,0-.986-.263-1.052-.789h-.066A2.1,2.1,0,0,1,684.51,185.417Zm.263-.789a1.684,1.684,0,0,0,1.249-.526,2.087,2.087,0,0,0,.46-1.512l-1.512.263a1.767,1.767,0,0,0-.855.329.8.8,0,0,0,0,1.183A.692.692,0,0,0,684.772,184.628Z" transform="translate(-664.456 -177.002)"/>
          <path id="Trazado_101775" data-name="Trazado 101775" d="M695.53,179.6a2.167,2.167,0,0,1,1.447.526,2.047,2.047,0,0,1,.526,1.446v3.813h-.986V181.77a1.361,1.361,0,0,0-.329-.986,1.3,1.3,0,0,0-.92-.329,1.338,1.338,0,0,0-.986.394,1.607,1.607,0,0,0-.394,1.183v3.419H692.9V179.8h.986v.723A1.748,1.748,0,0,1,695.53,179.6Z" transform="translate(-667.916 -177.036)"/>
          <path id="Trazado_101776" data-name="Trazado 101776" d="M700.9,186.68v-.855a1.889,1.889,0,0,0,.789-.132.86.86,0,0,0,.394-.526,4.9,4.9,0,0,0,.132-1.183V178.4h.986v5.589a3.383,3.383,0,0,1-.526,2.1A2.216,2.216,0,0,1,700.9,186.68Zm1.775-9.665a.674.674,0,1,1,.46-.2A.512.512,0,0,1,702.675,177.015Z" transform="translate(-670.656 -175.7)"/>
          <path id="Trazado_101777" data-name="Trazado 101777" d="M708.609,185.417a1.9,1.9,0,0,1-1.249-.394,1.407,1.407,0,0,1-.46-1.183,2.364,2.364,0,0,1,.131-.723,1.17,1.17,0,0,1,.46-.526,2.057,2.057,0,0,1,.657-.329c.263-.066.526-.132.855-.2l.921-.131c.329-.066.526-.263.526-.526a1.136,1.136,0,0,0-.329-.855,1.391,1.391,0,0,0-.921-.263,1.509,1.509,0,0,0-.92.263.937.937,0,0,0-.394.789l-.921-.2a1.884,1.884,0,0,1,.723-1.249,2.362,2.362,0,0,1,1.578-.395,3.332,3.332,0,0,1,.855.131,2.057,2.057,0,0,1,.657.329,1.049,1.049,0,0,1,.46.592,3.79,3.79,0,0,1,.2.92v2.367a1.313,1.313,0,0,0,.131.592c.066.131.263.131.46.131h.066v.723h-.526c-.592,0-.986-.263-1.052-.789h-.066A1.99,1.99,0,0,1,708.609,185.417Zm.2-.789a1.683,1.683,0,0,0,1.249-.526,2.087,2.087,0,0,0,.46-1.512l-1.512.263a1.767,1.767,0,0,0-.855.329.8.8,0,0,0,0,1.183A.762.762,0,0,0,708.807,184.628Z" transform="translate(-672.711 -177.002)"/>
        </g>
        <g id="Grupo_57555" data-name="Grupo 57555" transform="translate(339.657 277.002)">
          <path id="Trazado_101778" data-name="Trazado 101778" d="M732.752,454h1.118l-2.959,8.153h-1.052L726.9,454h1.118l2.433,6.838Z" transform="translate(-726.9 -453.277)"/>
          <path id="Trazado_101779" data-name="Trazado 101779" d="M743.357,460.461v.263h-4.471a1.938,1.938,0,0,0,.526,1.447,1.836,1.836,0,0,0,1.315.526,1.51,1.51,0,0,0,.92-.263,2.275,2.275,0,0,0,.657-.723l.92.2a2.63,2.63,0,0,1-.986,1.249,2.426,2.426,0,0,1-1.512.46,2.724,2.724,0,0,1-2.038-.789,3.378,3.378,0,0,1,0-4.339,2.724,2.724,0,0,1,2.038-.789,2.5,2.5,0,0,1,2.63,2.761Zm-2.63-2.1a1.835,1.835,0,0,0-1.183.394,1.713,1.713,0,0,0-.592,1.183h3.419a1.568,1.568,0,0,0-1.644-1.578Z" transform="translate(-730.668 -454.544)"/>
          <path id="Trazado_101780" data-name="Trazado 101780" d="M749.62,458.618a1.672,1.672,0,0,1,.723-.789,2.216,2.216,0,0,1,1.118-.329v.92a1.963,1.963,0,0,0-1.315.395,1.607,1.607,0,0,0-.46,1.315v3.024H748.7V457.5h.986v1.118Z" transform="translate(-734.367 -454.476)"/>
          <path id="Trazado_101781" data-name="Trazado 101781" d="M758.468,452.9h.986v8.876h-.986v-1.118a2.677,2.677,0,0,1-.789.92,1.906,1.906,0,0,1-1.183.329,2.727,2.727,0,0,1-1.052-.2,2.5,2.5,0,0,1-.855-.592,2.758,2.758,0,0,1-.592-.92,3.559,3.559,0,0,1-.2-1.249,2.878,2.878,0,0,1,.789-2.1,2.529,2.529,0,0,1,1.907-.789,2.27,2.27,0,0,1,1.183.329,1.969,1.969,0,0,1,.789.855V452.9Zm-1.841,8.087a1.655,1.655,0,0,0,1.315-.592,2.437,2.437,0,0,0,0-3.024,1.757,1.757,0,0,0-2.63,0,2.437,2.437,0,0,0,0,3.024A1.655,1.655,0,0,0,756.627,460.987Z" transform="translate(-736.114 -452.9)"/>
          <path id="Trazado_101782" data-name="Trazado 101782" d="M770.157,460.461v.263h-4.471a1.938,1.938,0,0,0,.526,1.447,1.836,1.836,0,0,0,1.315.526,1.51,1.51,0,0,0,.92-.263,2.276,2.276,0,0,0,.658-.723l.92.2a2.63,2.63,0,0,1-.986,1.249,2.426,2.426,0,0,1-1.512.46,2.724,2.724,0,0,1-2.038-.789,3.378,3.378,0,0,1,0-4.339,2.725,2.725,0,0,1,2.038-.789,2.631,2.631,0,0,1,1.907.723A2.422,2.422,0,0,1,770.157,460.461Zm-2.63-2.1a1.835,1.835,0,0,0-1.183.394,1.713,1.713,0,0,0-.592,1.183h3.419a1.568,1.568,0,0,0-1.644-1.578Z" transform="translate(-739.847 -454.544)"/>
        </g>
        <g id="Grupo_57556" data-name="Grupo 57556" transform="translate(323.811 113.724)">
          <path id="Trazado_101783" data-name="Trazado 101783" d="M708.98,218.653l-.723-1.972h-3.682l-.723,1.972H702.8l3.024-8.153h1.249l3.024,8.153Zm-4.076-2.827h3.024l-1.512-4.208Z" transform="translate(-702.8 -209.777)"/>
          <path id="Trazado_101784" data-name="Trazado 101784" d="M721.72,214.1a1.791,1.791,0,0,1,1.315.46,1.883,1.883,0,0,1,.526,1.381v3.945h-.986V216.2a1.3,1.3,0,0,0-.329-.92,1.089,1.089,0,0,0-.789-.329,1.25,1.25,0,0,0-.855.329,1.544,1.544,0,0,0-.329,1.052v3.485h-.986v-3.682a1.48,1.48,0,0,0-.329-.986,1.089,1.089,0,0,0-.789-.329,1.06,1.06,0,0,0-.855.395,1.741,1.741,0,0,0-.329,1.118v3.485H716v-5.654h.986v.723a1.865,1.865,0,0,1,.657-.592,2.1,2.1,0,0,1,.921-.2,1.712,1.712,0,0,1,.986.263,1.749,1.749,0,0,1,.658.723,2.343,2.343,0,0,1,.657-.723A1.322,1.322,0,0,1,721.72,214.1Z" transform="translate(-707.321 -211.01)"/>
          <path id="Trazado_101785" data-name="Trazado 101785" d="M731.509,220.017a1.9,1.9,0,0,1-1.249-.395,1.406,1.406,0,0,1-.46-1.183,2.362,2.362,0,0,1,.131-.723,1.17,1.17,0,0,1,.46-.526,2.057,2.057,0,0,1,.658-.329c.263-.066.526-.131.855-.2l.921-.132c.329-.066.526-.263.526-.526a1.136,1.136,0,0,0-.329-.855,1.391,1.391,0,0,0-.92-.263,1.51,1.51,0,0,0-.92.263.937.937,0,0,0-.394.789l-.921-.2a1.884,1.884,0,0,1,.723-1.249,2.362,2.362,0,0,1,1.578-.394,3.331,3.331,0,0,1,.855.131,2.057,2.057,0,0,1,.658.329,1.049,1.049,0,0,1,.46.592,3.79,3.79,0,0,1,.2.92v2.367a1.313,1.313,0,0,0,.131.592c.066.131.263.131.46.131h.066v.723h-.46c-.592,0-.986-.263-1.052-.789h-.066A2.1,2.1,0,0,1,731.509,220.017Zm.263-.789a1.683,1.683,0,0,0,1.249-.526,2.087,2.087,0,0,0,.46-1.512l-1.512.263a1.767,1.767,0,0,0-.855.329.8.8,0,0,0,0,1.183A.762.762,0,0,0,731.772,219.228Z" transform="translate(-712.048 -211.01)"/>
          <path id="Trazado_101786" data-name="Trazado 101786" d="M740.92,215.218a1.673,1.673,0,0,1,.723-.789,2.217,2.217,0,0,1,1.118-.329v.92a1.963,1.963,0,0,0-1.315.395,1.607,1.607,0,0,0-.46,1.315v3.024H740V214.1h.986v1.118Z" transform="translate(-715.542 -211.01)"/>
          <path id="Trazado_101787" data-name="Trazado 101787" d="M746.357,211.615a.674.674,0,1,1,.46-.2A.71.71,0,0,1,746.357,211.615Zm-.526,6.969V212.93h.986v5.654Z" transform="translate(-717.494 -209.708)"/>
          <path id="Trazado_101788" data-name="Trazado 101788" d="M750.5,218.276V209.4h.986v8.876Z" transform="translate(-719.138 -209.4)"/>
          <path id="Trazado_101789" data-name="Trazado 101789" d="M755.1,218.276V209.4h.986v8.876Z" transform="translate(-720.714 -209.4)"/>
          <path id="Trazado_101790" data-name="Trazado 101790" d="M761.893,220.017a3.347,3.347,0,0,1-1.446-.329,2.691,2.691,0,0,1-1.052-1.052,3.124,3.124,0,0,1-.395-1.578,3.037,3.037,0,0,1,.789-2.17,2.828,2.828,0,0,1,2.038-.789,2.724,2.724,0,0,1,2.038.789,2.932,2.932,0,0,1,.789,2.17,3.038,3.038,0,0,1-.789,2.17A2.481,2.481,0,0,1,761.893,220.017Zm0-.855a1.655,1.655,0,0,0,1.315-.592,2.344,2.344,0,0,0,.526-1.512,2.219,2.219,0,0,0-.526-1.512,1.757,1.757,0,0,0-2.63,0,2.344,2.344,0,0,0-.526,1.512,2.218,2.218,0,0,0,.526,1.512A1.655,1.655,0,0,0,761.893,219.163Z" transform="translate(-722.049 -211.01)"/>
        </g>
        <g id="Grupo_57557" data-name="Grupo 57557" transform="translate(191.986 102.269)">
          <path id="Trazado_101791" data-name="Trazado 101791" d="M506.705,200.753l-2.1-3.682h-1.249v3.682H502.3V192.6H505a2.266,2.266,0,0,1,2.5,2.3,2.125,2.125,0,0,1-.46,1.446,2.366,2.366,0,0,1-1.315.723l2.235,3.682h-1.249Zm-3.353-7.232v2.761h1.512a1.607,1.607,0,0,0,1.184-.394,1.43,1.43,0,0,0,0-1.972,1.608,1.608,0,0,0-1.184-.395h-1.512Z" transform="translate(-502.3 -192.403)"/>
          <path id="Trazado_101792" data-name="Trazado 101792" d="M514.793,202.117a3.348,3.348,0,0,1-1.446-.329,2.692,2.692,0,0,1-1.052-1.052,3.124,3.124,0,0,1-.395-1.578,3.038,3.038,0,0,1,.789-2.17,2.828,2.828,0,0,1,2.038-.789,2.724,2.724,0,0,1,2.038.789,2.932,2.932,0,0,1,.789,2.17,3.038,3.038,0,0,1-.789,2.17A2.575,2.575,0,0,1,514.793,202.117Zm-.066-.855a1.655,1.655,0,0,0,1.315-.592,2.344,2.344,0,0,0,.526-1.512,2.219,2.219,0,0,0-.526-1.512,1.757,1.757,0,0,0-2.63,0,2.344,2.344,0,0,0-.526,1.512,2.219,2.219,0,0,0,.526,1.512A1.752,1.752,0,0,0,514.727,201.263Z" transform="translate(-505.588 -193.636)"/>
          <path id="Trazado_101793" data-name="Trazado 101793" d="M521,203.28v-.855a1.888,1.888,0,0,0,.789-.132.86.86,0,0,0,.395-.526,4.9,4.9,0,0,0,.131-1.183V195h.986v5.589a3.383,3.383,0,0,1-.526,2.1A2.216,2.216,0,0,1,521,203.28Zm1.841-9.665a.674.674,0,1,1,.46-.2A.71.71,0,0,1,522.841,193.615Z" transform="translate(-508.705 -192.3)"/>
          <path id="Trazado_101794" data-name="Trazado 101794" d="M529.793,202.117a3.348,3.348,0,0,1-1.447-.329,2.692,2.692,0,0,1-1.052-1.052,3.124,3.124,0,0,1-.394-1.578,3.038,3.038,0,0,1,.789-2.17,2.829,2.829,0,0,1,2.038-.789,2.724,2.724,0,0,1,2.038.789,2.932,2.932,0,0,1,.789,2.17,3.038,3.038,0,0,1-.789,2.17A2.575,2.575,0,0,1,529.793,202.117Zm0-.855a1.655,1.655,0,0,0,1.315-.592,2.344,2.344,0,0,0,.526-1.512,2.219,2.219,0,0,0-.526-1.512,1.757,1.757,0,0,0-2.63,0,2.345,2.345,0,0,0-.526,1.512,2.219,2.219,0,0,0,.526,1.512A1.568,1.568,0,0,0,529.793,201.263Z" transform="translate(-510.726 -193.636)"/>
        </g>
        <g id="Grupo_57558" data-name="Grupo 57558" transform="translate(63.513 144.317)">
          <path id="Trazado_101795" data-name="Trazado 101795" d="M309.99,255a2.518,2.518,0,0,1,1.249.329,2.322,2.322,0,0,1,.855.92,2.72,2.72,0,0,1,.329,1.249,2.38,2.38,0,0,1-.657,1.775,2.428,2.428,0,0,1-1.775.723h-2.038v3.156H306.9V255Zm-.131,4.076a1.355,1.355,0,0,0,1.118-.46,1.716,1.716,0,0,0,.394-1.183,1.547,1.547,0,0,0-.394-1.118,1.586,1.586,0,0,0-1.118-.46h-1.907v3.156h1.907Z" transform="translate(-306.9 -255)"/>
          <path id="Trazado_101796" data-name="Trazado 101796" d="M321.082,258.8h.986v5.654h-.986v-.723a2.345,2.345,0,0,1-.723.657,1.673,1.673,0,0,1-.986.2,2.166,2.166,0,0,1-1.446-.526,2.047,2.047,0,0,1-.526-1.446V258.8h.986v3.616a1.361,1.361,0,0,0,.329.986,1.3,1.3,0,0,0,.921.329,1.338,1.338,0,0,0,.986-.395,1.607,1.607,0,0,0,.395-1.183V258.8Z" transform="translate(-310.496 -256.302)"/>
          <path id="Trazado_101797" data-name="Trazado 101797" d="M328.62,259.718a1.673,1.673,0,0,1,.723-.789,2.216,2.216,0,0,1,1.118-.329v.92a1.963,1.963,0,0,0-1.315.395,1.607,1.607,0,0,0-.46,1.315v3.024H327.7V258.6h.986v1.118Z" transform="translate(-314.024 -256.233)"/>
          <path id="Trazado_101798" data-name="Trazado 101798" d="M336.659,258.6a2.727,2.727,0,0,1,1.052.2,2.5,2.5,0,0,1,.855.592,2.758,2.758,0,0,1,.592.92,3.828,3.828,0,0,1,.2,1.249,3.149,3.149,0,0,1-.789,2.17,2.529,2.529,0,0,1-1.907.789,2.271,2.271,0,0,1-1.183-.329,1.969,1.969,0,0,1-.789-.855v3.945H333.7v-8.547h.986v1.118a2,2,0,0,1,.789-.855A2.308,2.308,0,0,1,336.659,258.6Zm-.2,5.063a1.655,1.655,0,0,0,1.315-.592,2.437,2.437,0,0,0,0-3.024,1.757,1.757,0,0,0-2.63,0,2.437,2.437,0,0,0,0,3.024A1.655,1.655,0,0,0,336.461,263.663Z" transform="translate(-316.079 -256.233)"/>
          <path id="Trazado_101799" data-name="Trazado 101799" d="M348.082,258.8h.986v5.654h-.986v-.723a2.345,2.345,0,0,1-.723.657,1.673,1.673,0,0,1-.986.2,2.166,2.166,0,0,1-1.446-.526,2.047,2.047,0,0,1-.526-1.446V258.8h.986v3.616a1.361,1.361,0,0,0,.329.986,1.3,1.3,0,0,0,.92.329,1.338,1.338,0,0,0,.986-.395,1.607,1.607,0,0,0,.395-1.183V258.8Z" transform="translate(-319.744 -256.302)"/>
          <path id="Trazado_101800" data-name="Trazado 101800" d="M355.62,259.718a1.673,1.673,0,0,1,.723-.789,2.216,2.216,0,0,1,1.118-.329v.92a1.963,1.963,0,0,0-1.315.395,1.607,1.607,0,0,0-.46,1.315v3.024H354.7V258.6h.986v1.118Z" transform="translate(-323.272 -256.233)"/>
          <path id="Trazado_101801" data-name="Trazado 101801" d="M361.609,264.517a1.9,1.9,0,0,1-1.249-.395,1.407,1.407,0,0,1-.46-1.183,2.363,2.363,0,0,1,.132-.723,1.169,1.169,0,0,1,.46-.526,2.057,2.057,0,0,1,.658-.329c.263-.066.526-.132.855-.2l.92-.132c.329-.066.526-.263.526-.526a1.136,1.136,0,0,0-.329-.855,1.391,1.391,0,0,0-.92-.263,1.509,1.509,0,0,0-.92.263.937.937,0,0,0-.395.789l-.92-.2a1.884,1.884,0,0,1,.723-1.249,2.362,2.362,0,0,1,1.578-.395,3.332,3.332,0,0,1,.855.132,2.057,2.057,0,0,1,.657.329,1.049,1.049,0,0,1,.46.592,3.792,3.792,0,0,1,.2.92v2.367a1.314,1.314,0,0,0,.131.592c.066.131.263.131.46.131h.066v.723h-.526c-.592,0-.986-.263-1.052-.789h-.066A2.054,2.054,0,0,1,361.609,264.517Zm.263-.855a1.683,1.683,0,0,0,1.249-.526,2.087,2.087,0,0,0,.46-1.512l-1.512.263a1.767,1.767,0,0,0-.855.329.8.8,0,0,0,0,1.183A.692.692,0,0,0,361.872,263.663Z" transform="translate(-325.053 -256.233)"/>
        </g>
        <g id="Grupo_57559" data-name="Grupo 57559" transform="translate(103.817 111.726)">
          <path id="Trazado_101802" data-name="Trazado 101802" d="M372.605,214.853l-2.1-3.682h-1.249v3.682H368.2V206.7h2.7a2.266,2.266,0,0,1,2.5,2.3,2.125,2.125,0,0,1-.46,1.446,2.366,2.366,0,0,1-1.315.723l2.235,3.682h-1.249Zm-3.353-7.232v2.761h1.512a1.607,1.607,0,0,0,1.183-.395,1.43,1.43,0,0,0,0-1.972,1.607,1.607,0,0,0-1.183-.394Z" transform="translate(-368.2 -206.503)"/>
          <path id="Trazado_101803" data-name="Trazado 101803" d="M380.593,216.217a3.347,3.347,0,0,1-1.447-.329,2.692,2.692,0,0,1-1.052-1.052,3.124,3.124,0,0,1-.394-1.578,3.038,3.038,0,0,1,.789-2.17,2.828,2.828,0,0,1,2.038-.789,2.724,2.724,0,0,1,2.038.789,2.932,2.932,0,0,1,.789,2.17,3.038,3.038,0,0,1-.789,2.17A2.481,2.481,0,0,1,380.593,216.217Zm0-.855a1.655,1.655,0,0,0,1.315-.592,2.344,2.344,0,0,0,.526-1.512,2.219,2.219,0,0,0-.526-1.512,1.757,1.757,0,0,0-2.63,0,2.344,2.344,0,0,0-.526,1.512,2.219,2.219,0,0,0,.526,1.512A1.655,1.655,0,0,0,380.593,215.363Z" transform="translate(-371.454 -207.736)"/>
          <path id="Trazado_101804" data-name="Trazado 101804" d="M386.9,217.38v-.855a1.889,1.889,0,0,0,.789-.131.861.861,0,0,0,.395-.526,4.9,4.9,0,0,0,.132-1.183V209.1h.986v5.589a3.383,3.383,0,0,1-.526,2.1A2.311,2.311,0,0,1,386.9,217.38Zm1.775-9.665a.674.674,0,1,1,.46-.2A.6.6,0,0,1,388.675,207.715Z" transform="translate(-374.605 -206.4)"/>
          <path id="Trazado_101805" data-name="Trazado 101805" d="M395.593,216.217a3.347,3.347,0,0,1-1.446-.329,2.691,2.691,0,0,1-1.052-1.052,3.123,3.123,0,0,1-.395-1.578,3.038,3.038,0,0,1,.789-2.17,2.828,2.828,0,0,1,2.038-.789,2.724,2.724,0,0,1,2.038.789,2.932,2.932,0,0,1,.789,2.17,3.038,3.038,0,0,1-.789,2.17A2.481,2.481,0,0,1,395.593,216.217Zm0-.855a1.655,1.655,0,0,0,1.315-.592,2.344,2.344,0,0,0,.526-1.512,2.219,2.219,0,0,0-.526-1.512,1.757,1.757,0,0,0-2.63,0,2.344,2.344,0,0,0-.526,1.512,2.219,2.219,0,0,0,.526,1.512A1.655,1.655,0,0,0,395.593,215.363Z" transform="translate(-376.592 -207.736)"/>
          <path id="Trazado_101806" data-name="Trazado 101806" d="M408.5,214.555V213.7h4.142v.855Z" transform="translate(-382.003 -208.9)"/>
          <path id="Trazado_101807" data-name="Trazado 101807" d="M425.559,210.3a2.725,2.725,0,0,1,1.052.2,2.5,2.5,0,0,1,.855.592,2.758,2.758,0,0,1,.592.92,3.828,3.828,0,0,1,.2,1.249,3.15,3.15,0,0,1-.789,2.17,2.529,2.529,0,0,1-1.907.789,2.27,2.27,0,0,1-1.183-.329,1.969,1.969,0,0,1-.789-.855v3.945H422.6v-8.547h.986v1.118a2,2,0,0,1,.789-.855A2.308,2.308,0,0,1,425.559,210.3Zm-.2,5.063a1.655,1.655,0,0,0,1.315-.592,2.437,2.437,0,0,0,0-3.024,1.757,1.757,0,0,0-2.63,0,2.437,2.437,0,0,0,0,3.024A1.655,1.655,0,0,0,425.361,215.363Z" transform="translate(-386.833 -207.736)"/>
          <path id="Trazado_101808" data-name="Trazado 101808" d="M437.016,210.5H438v5.654h-.92v-.723a2.346,2.346,0,0,1-.723.658,1.673,1.673,0,0,1-.986.2,2.166,2.166,0,0,1-1.446-.526,2.047,2.047,0,0,1-.526-1.446V210.5h.986v3.616a1.361,1.361,0,0,0,.329.986,1.3,1.3,0,0,0,.921.329,1.338,1.338,0,0,0,.986-.394,1.608,1.608,0,0,0,.395-1.184Z" transform="translate(-390.532 -207.804)"/>
          <path id="Trazado_101809" data-name="Trazado 101809" d="M444.52,211.418a1.673,1.673,0,0,1,.723-.789,2.217,2.217,0,0,1,1.118-.329v.92a1.963,1.963,0,0,0-1.315.394,1.607,1.607,0,0,0-.46,1.315v3.024H443.6V210.3h.986v1.118Z" transform="translate(-394.026 -207.736)"/>
          <path id="Trazado_101810" data-name="Trazado 101810" d="M452.559,210.3a2.725,2.725,0,0,1,1.052.2,2.5,2.5,0,0,1,.855.592,2.758,2.758,0,0,1,.592.92,3.827,3.827,0,0,1,.2,1.249,3.149,3.149,0,0,1-.789,2.17,2.529,2.529,0,0,1-1.907.789,2.27,2.27,0,0,1-1.183-.329,1.969,1.969,0,0,1-.789-.855v3.945H449.6v-8.547h.986v1.118a2,2,0,0,1,.789-.855A2.308,2.308,0,0,1,452.559,210.3Zm-.2,5.063a1.655,1.655,0,0,0,1.315-.592,2.437,2.437,0,0,0,0-3.024,1.757,1.757,0,0,0-2.63,0,2.437,2.437,0,0,0,0,3.024A1.655,1.655,0,0,0,452.361,215.363Z" transform="translate(-396.081 -207.736)"/>
          <path id="Trazado_101811" data-name="Trazado 101811" d="M464.016,210.5H465v5.654h-.92v-.723a2.345,2.345,0,0,1-.723.658,1.673,1.673,0,0,1-.986.2,2.166,2.166,0,0,1-1.447-.526,2.047,2.047,0,0,1-.526-1.446V210.5h.986v3.616a1.361,1.361,0,0,0,.329.986,1.3,1.3,0,0,0,.921.329,1.338,1.338,0,0,0,.986-.394,1.608,1.608,0,0,0,.394-1.184Z" transform="translate(-399.78 -207.804)"/>
          <path id="Trazado_101812" data-name="Trazado 101812" d="M471.52,211.418a1.673,1.673,0,0,1,.723-.789,2.217,2.217,0,0,1,1.118-.329v.92a1.963,1.963,0,0,0-1.315.394,1.607,1.607,0,0,0-.46,1.315v3.024H470.6V210.3h.986v1.118Z" transform="translate(-403.274 -207.736)"/>
          <path id="Trazado_101813" data-name="Trazado 101813" d="M477.509,216.217a1.9,1.9,0,0,1-1.249-.395,1.407,1.407,0,0,1-.46-1.183,2.363,2.363,0,0,1,.132-.723,1.169,1.169,0,0,1,.46-.526,2.057,2.057,0,0,1,.658-.329c.263-.066.526-.132.855-.2l.92-.132c.329-.066.526-.263.526-.526a1.136,1.136,0,0,0-.329-.855,1.391,1.391,0,0,0-.92-.263,1.509,1.509,0,0,0-.92.263.937.937,0,0,0-.395.789l-.92-.2a1.884,1.884,0,0,1,.723-1.249,2.362,2.362,0,0,1,1.578-.394,3.331,3.331,0,0,1,.855.132,2.057,2.057,0,0,1,.657.329,1.049,1.049,0,0,1,.46.592,3.792,3.792,0,0,1,.2.92v2.367a1.313,1.313,0,0,0,.132.592c.066.132.263.132.46.132h.066v.723h-.526c-.592,0-.986-.263-1.052-.789h-.066A2.132,2.132,0,0,1,477.509,216.217Zm.263-.855a1.684,1.684,0,0,0,1.249-.526,2.087,2.087,0,0,0,.46-1.512l-1.512.263a1.766,1.766,0,0,0-.855.329.8.8,0,0,0,0,1.183C477.181,215.3,477.444,215.363,477.772,215.363Z" transform="translate(-405.055 -207.736)"/>
        </g>
        <g id="Grupo_57560" data-name="Grupo 57560" transform="translate(47.273 299.671)">
          <path id="Trazado_101814" data-name="Trazado 101814" d="M288.38,494.353l-.723-1.972h-3.682l-.723,1.972H282.2l3.024-8.153h1.249l3.024,8.153ZM284.3,491.46h3.024l-1.512-4.208Z" transform="translate(-282.2 -485.477)"/>
          <path id="Trazado_101815" data-name="Trazado 101815" d="M295.712,494.865h3.024v.789H294.2l3.024-4.865H294.4V490h4.339Z" transform="translate(-286.31 -486.778)"/>
          <path id="Trazado_101816" data-name="Trazado 101816" d="M306.682,490h.986v5.654h-.986v-.723a2.345,2.345,0,0,1-.723.658,1.673,1.673,0,0,1-.986.2,2.166,2.166,0,0,1-1.446-.526,2.047,2.047,0,0,1-.526-1.447V490h.986v3.616a1.361,1.361,0,0,0,.329.986,1.3,1.3,0,0,0,.92.329,1.338,1.338,0,0,0,.986-.394,1.607,1.607,0,0,0,.395-1.183V490Z" transform="translate(-289.324 -486.778)"/>
          <path id="Trazado_101817" data-name="Trazado 101817" d="M313.2,493.976V485.1h.986v8.876Z" transform="translate(-292.818 -485.1)"/>
          <path id="Trazado_101818" data-name="Trazado 101818" d="M317.8,494.055V493.2h4.142v.855Z" transform="translate(-294.394 -487.874)"/>
          <path id="Trazado_101819" data-name="Trazado 101819" d="M330.159,489.8a2.725,2.725,0,0,1,1.052.2,2.5,2.5,0,0,1,.855.592,2.756,2.756,0,0,1,.592.921,3.828,3.828,0,0,1,.2,1.249,3.149,3.149,0,0,1-.789,2.17,2.529,2.529,0,0,1-1.907.789,2.271,2.271,0,0,1-1.183-.329,1.969,1.969,0,0,1-.789-.855v3.945H327.2v-8.547h.986v1.118a2,2,0,0,1,.789-.855A2.308,2.308,0,0,1,330.159,489.8Zm-.2,5.063a1.655,1.655,0,0,0,1.315-.592,2.437,2.437,0,0,0,0-3.024,1.757,1.757,0,0,0-2.63,0,2.437,2.437,0,0,0,0,3.024A1.655,1.655,0,0,0,329.961,494.863Z" transform="translate(-297.613 -486.71)"/>
          <path id="Trazado_101820" data-name="Trazado 101820" d="M341.582,490h.986v5.654h-.986v-.723a2.344,2.344,0,0,1-.723.658,1.673,1.673,0,0,1-.986.2,2.166,2.166,0,0,1-1.446-.526,2.047,2.047,0,0,1-.526-1.447V490h.986v3.616a1.361,1.361,0,0,0,.329.986,1.3,1.3,0,0,0,.92.329,1.338,1.338,0,0,0,.986-.394,1.607,1.607,0,0,0,.395-1.183V490Z" transform="translate(-301.278 -486.778)"/>
          <path id="Trazado_101821" data-name="Trazado 101821" d="M349.12,490.918a1.673,1.673,0,0,1,.723-.789,2.216,2.216,0,0,1,1.118-.329v.921a1.963,1.963,0,0,0-1.315.394,1.607,1.607,0,0,0-.46,1.315v3.024H348.2v-5.523h.986v.986Z" transform="translate(-304.806 -486.71)"/>
          <path id="Trazado_101822" data-name="Trazado 101822" d="M357.159,489.8a2.725,2.725,0,0,1,1.052.2,2.5,2.5,0,0,1,.855.592,2.758,2.758,0,0,1,.592.921,3.828,3.828,0,0,1,.2,1.249,3.149,3.149,0,0,1-.789,2.17,2.529,2.529,0,0,1-1.907.789,2.271,2.271,0,0,1-1.184-.329,1.969,1.969,0,0,1-.789-.855v3.945H354.2v-8.547h.986v1.118a2,2,0,0,1,.789-.855A2.308,2.308,0,0,1,357.159,489.8Zm-.2,5.063a1.655,1.655,0,0,0,1.315-.592,2.437,2.437,0,0,0,0-3.024,1.757,1.757,0,0,0-2.63,0,2.437,2.437,0,0,0,0,3.024A1.655,1.655,0,0,0,356.961,494.863Z" transform="translate(-306.861 -486.71)"/>
          <path id="Trazado_101823" data-name="Trazado 101823" d="M368.582,490h.986v5.654h-.986v-.723a2.344,2.344,0,0,1-.723.658,1.673,1.673,0,0,1-.986.2,2.166,2.166,0,0,1-1.446-.526,2.047,2.047,0,0,1-.526-1.447V490h.986v3.616a1.361,1.361,0,0,0,.329.986,1.3,1.3,0,0,0,.921.329,1.338,1.338,0,0,0,.986-.394,1.607,1.607,0,0,0,.395-1.183V490Z" transform="translate(-310.526 -486.778)"/>
          <path id="Trazado_101824" data-name="Trazado 101824" d="M376.12,490.918a1.673,1.673,0,0,1,.723-.789,2.216,2.216,0,0,1,1.118-.329v.921a1.963,1.963,0,0,0-1.315.394,1.607,1.607,0,0,0-.46,1.315v3.024H375.2v-5.523h.986v.986Z" transform="translate(-314.054 -486.71)"/>
          <path id="Trazado_101825" data-name="Trazado 101825" d="M382.109,495.752a1.9,1.9,0,0,1-1.249-.394,1.407,1.407,0,0,1-.46-1.183,2.364,2.364,0,0,1,.132-.723,1.169,1.169,0,0,1,.46-.526,2.057,2.057,0,0,1,.657-.329c.263-.066.526-.132.855-.2l.92-.132c.329-.066.526-.263.526-.526a1.136,1.136,0,0,0-.329-.855,1.391,1.391,0,0,0-.92-.263,1.51,1.51,0,0,0-.921.263.937.937,0,0,0-.394.789l-.92-.2a1.612,1.612,0,0,1,.723-1.183,2.8,2.8,0,0,1,1.578-.395,3.333,3.333,0,0,1,.855.132,2.058,2.058,0,0,1,.658.329,1.05,1.05,0,0,1,.46.592,3.792,3.792,0,0,1,.2.921v2.367a1.313,1.313,0,0,0,.132.592c.066.132.263.132.46.132h.066v.723h-.526c-.592,0-.986-.263-1.052-.789h-.066A2.251,2.251,0,0,1,382.109,495.752Zm.263-.855a1.683,1.683,0,0,0,1.249-.526,2.087,2.087,0,0,0,.46-1.512l-1.512.263a1.767,1.767,0,0,0-.855.329.8.8,0,0,0,0,1.183A.692.692,0,0,0,382.372,494.9Z" transform="translate(-315.835 -486.744)"/>
        </g>
        <g id="Grupo_57561" data-name="Grupo 57561" transform="translate(272.593 190.167)">
          <path id="Trazado_101826" data-name="Trazado 101826" d="M630.752,324.6h1.118l-2.959,8.153h-1.052L624.9,324.6h1.118l2.433,6.838Z" transform="translate(-624.9 -323.811)"/>
          <path id="Trazado_101827" data-name="Trazado 101827" d="M641.357,331.061v.263h-4.471a1.938,1.938,0,0,0,.526,1.447,1.836,1.836,0,0,0,1.315.526,1.51,1.51,0,0,0,.921-.263,2.274,2.274,0,0,0,.657-.723l.92.2a2.631,2.631,0,0,1-.986,1.249,2.427,2.427,0,0,1-1.512.46,2.724,2.724,0,0,1-2.038-.789,3.378,3.378,0,0,1,0-4.339,2.724,2.724,0,0,1,2.038-.789,2.631,2.631,0,0,1,1.907.723A2.422,2.422,0,0,1,641.357,331.061Zm-2.63-2.1a1.836,1.836,0,0,0-1.183.394,1.713,1.713,0,0,0-.592,1.184h3.419a1.568,1.568,0,0,0-1.644-1.578Z" transform="translate(-628.668 -325.078)"/>
          <path id="Trazado_101828" data-name="Trazado 101828" d="M647.62,329.218a1.673,1.673,0,0,1,.723-.789,2.217,2.217,0,0,1,1.118-.329v.92a1.963,1.963,0,0,0-1.315.395,1.606,1.606,0,0,0-.46,1.315v3.024H646.7V328.1h.986v1.118Z" transform="translate(-632.367 -325.01)"/>
          <path id="Trazado_101829" data-name="Trazado 101829" d="M656.5,323.4h.986v8.876h-.92v-1.118a2.677,2.677,0,0,1-.789.92,1.907,1.907,0,0,1-1.183.329,2.726,2.726,0,0,1-1.052-.2,2.5,2.5,0,0,1-.855-.592,2.757,2.757,0,0,1-.592-.92,3.558,3.558,0,0,1-.2-1.249,2.878,2.878,0,0,1,.789-2.1,2.529,2.529,0,0,1,1.907-.789,2.27,2.27,0,0,1,1.183.329,1.969,1.969,0,0,1,.789.855V323.4Zm-1.775,8.153a1.655,1.655,0,0,0,1.315-.592,2.437,2.437,0,0,0,0-3.024,1.757,1.757,0,0,0-2.63,0,2.437,2.437,0,0,0,0,3.024A1.656,1.656,0,0,0,654.727,331.553Z" transform="translate(-634.148 -323.4)"/>
          <path id="Trazado_101830" data-name="Trazado 101830" d="M668.257,331.061v.263h-4.471a1.938,1.938,0,0,0,.526,1.447,1.835,1.835,0,0,0,1.315.526,1.51,1.51,0,0,0,.921-.263,2.274,2.274,0,0,0,.657-.723l.92.2a2.631,2.631,0,0,1-.986,1.249,2.427,2.427,0,0,1-1.512.46,2.723,2.723,0,0,1-2.038-.789,3.378,3.378,0,0,1,0-4.339,2.724,2.724,0,0,1,2.038-.789,2.5,2.5,0,0,1,2.63,2.761Zm-2.63-2.1a1.836,1.836,0,0,0-1.183.394,1.713,1.713,0,0,0-.592,1.184h3.419a1.568,1.568,0,0,0-1.644-1.578Z" transform="translate(-637.881 -325.078)"/>
          <path id="Trazado_101831" data-name="Trazado 101831" d="M678.1,332.455V331.6h4.142v.855Z" transform="translate(-643.122 -326.209)"/>
          <path id="Trazado_101832" data-name="Trazado 101832" d="M693.209,334.017a1.9,1.9,0,0,1-1.249-.395,1.407,1.407,0,0,1-.46-1.183,2.362,2.362,0,0,1,.132-.723,1.17,1.17,0,0,1,.46-.526,2.056,2.056,0,0,1,.657-.329c.263-.066.526-.131.855-.2l.92-.132c.329-.066.526-.263.526-.526a1.136,1.136,0,0,0-.329-.855,1.391,1.391,0,0,0-.92-.263,1.51,1.51,0,0,0-.921.263.937.937,0,0,0-.395.789l-.92-.2a1.884,1.884,0,0,1,.723-1.249,2.362,2.362,0,0,1,1.578-.395,3.333,3.333,0,0,1,.855.131,2.058,2.058,0,0,1,.657.329,1.05,1.05,0,0,1,.46.592,3.79,3.79,0,0,1,.2.92v2.367a1.312,1.312,0,0,0,.132.592c.066.132.263.132.46.132h.066v.723h-.526c-.592,0-.986-.263-1.052-.789h0A2.1,2.1,0,0,1,693.209,334.017Zm.263-.789a1.683,1.683,0,0,0,1.249-.526,2.087,2.087,0,0,0,.46-1.512l-1.512.263a1.766,1.766,0,0,0-.855.329.8.8,0,0,0,0,1.183A.692.692,0,0,0,693.472,333.228Z" transform="translate(-647.711 -325.01)"/>
          <path id="Trazado_101833" data-name="Trazado 101833" d="M707.42,328.1a1.791,1.791,0,0,1,1.315.46,1.884,1.884,0,0,1,.526,1.381v3.945h-.986V330.2a1.3,1.3,0,0,0-.329-.921,1.089,1.089,0,0,0-.789-.329,1.25,1.25,0,0,0-.855.329,1.544,1.544,0,0,0-.329,1.052v3.485h-.986v-3.682a1.48,1.48,0,0,0-.329-.986,1.089,1.089,0,0,0-.789-.329,1.06,1.06,0,0,0-.855.395,1.741,1.741,0,0,0-.329,1.118v3.485H701.7v-5.654h.986v.723a1.865,1.865,0,0,1,.658-.592,2.1,2.1,0,0,1,.92-.2,1.712,1.712,0,0,1,.986.263,1.749,1.749,0,0,1,.657.723,2.344,2.344,0,0,1,.657-.723A1.213,1.213,0,0,1,707.42,328.1Z" transform="translate(-651.205 -325.01)"/>
          <path id="Trazado_101834" data-name="Trazado 101834" d="M717.209,334.017a1.9,1.9,0,0,1-1.249-.395,1.407,1.407,0,0,1-.46-1.183,2.364,2.364,0,0,1,.131-.723,1.17,1.17,0,0,1,.46-.526,2.059,2.059,0,0,1,.658-.329c.263-.066.526-.131.855-.2l.921-.132c.329-.066.526-.263.526-.526a1.136,1.136,0,0,0-.329-.855,1.391,1.391,0,0,0-.921-.263,1.51,1.51,0,0,0-.92.263.937.937,0,0,0-.394.789l-.92-.2a1.884,1.884,0,0,1,.723-1.249,2.362,2.362,0,0,1,1.578-.395,3.334,3.334,0,0,1,.855.131,2.058,2.058,0,0,1,.658.329,1.049,1.049,0,0,1,.46.592,3.793,3.793,0,0,1,.2.92v2.367a1.314,1.314,0,0,0,.131.592c.066.132.263.132.46.132h.066v.723h-.526c-.592,0-.986-.263-1.052-.789h-.066A1.99,1.99,0,0,1,717.209,334.017Zm.263-.789a1.684,1.684,0,0,0,1.249-.526,2.087,2.087,0,0,0,.46-1.512l-1.512.263a1.767,1.767,0,0,0-.855.329.8.8,0,0,0,0,1.183A.693.693,0,0,0,717.472,333.228Z" transform="translate(-655.932 -325.01)"/>
          <path id="Trazado_101835" data-name="Trazado 101835" d="M726.521,329.218a1.673,1.673,0,0,1,.723-.789,2.216,2.216,0,0,1,1.118-.329v.92a1.963,1.963,0,0,0-1.315.395,1.607,1.607,0,0,0-.46,1.315v3.024H725.6V328.1h.986v1.118Z" transform="translate(-659.391 -325.01)"/>
          <path id="Trazado_101836" data-name="Trazado 101836" d="M731.957,325.615a.674.674,0,1,1,.46-.2A.6.6,0,0,1,731.957,325.615Zm-.526,6.969V326.93h.986v5.654Z" transform="translate(-661.344 -323.708)"/>
          <path id="Trazado_101837" data-name="Trazado 101837" d="M736.2,332.276V323.4h.986v8.876Z" transform="translate(-663.022 -323.4)"/>
          <path id="Trazado_101838" data-name="Trazado 101838" d="M740.8,332.276V323.4h.986v8.876Z" transform="translate(-664.597 -323.4)"/>
          <path id="Trazado_101839" data-name="Trazado 101839" d="M747.593,334.017a3.347,3.347,0,0,1-1.446-.329,2.691,2.691,0,0,1-1.052-1.052,3.124,3.124,0,0,1-.395-1.578,3.038,3.038,0,0,1,.789-2.17,2.828,2.828,0,0,1,2.038-.789,2.724,2.724,0,0,1,2.038.789,2.932,2.932,0,0,1,.789,2.17,3.037,3.037,0,0,1-.789,2.17A2.575,2.575,0,0,1,747.593,334.017Zm0-.855a1.655,1.655,0,0,0,1.315-.592,2.344,2.344,0,0,0,.526-1.512,2.218,2.218,0,0,0-.526-1.512,1.757,1.757,0,0,0-2.63,0,2.345,2.345,0,0,0-.526,1.512,2.219,2.219,0,0,0,.526,1.512A1.412,1.412,0,0,0,747.593,333.163Z" transform="translate(-665.933 -325.01)"/>
        </g>
        <g id="Grupo_57562" data-name="Grupo 57562" transform="translate(137.743 290.142)">
          <path id="Trazado_101840" data-name="Trazado 101840" d="M425.98,481.753l-.723-1.972h-3.682l-.723,1.972H419.8l3.024-8.153h1.249l3.024,8.153ZM421.9,478.86h3.024l-1.512-4.208Z" transform="translate(-419.8 -472.877)"/>
          <path id="Trazado_101841" data-name="Trazado 101841" d="M433.312,482.165h3.024v.789H431.8l3.024-4.865H432V477.3h4.339Z" transform="translate(-423.91 -474.144)"/>
          <path id="Trazado_101842" data-name="Trazado 101842" d="M444.282,477.3h.986v5.654h-.986v-.723a2.346,2.346,0,0,1-.723.657,1.672,1.672,0,0,1-.986.2,2.166,2.166,0,0,1-1.446-.526,2.047,2.047,0,0,1-.526-1.447V477.3h.986v3.616a1.361,1.361,0,0,0,.329.986,1.3,1.3,0,0,0,.92.329,1.338,1.338,0,0,0,.986-.395,1.607,1.607,0,0,0,.395-1.183V477.3Z" transform="translate(-426.924 -474.144)"/>
          <path id="Trazado_101843" data-name="Trazado 101843" d="M450.8,481.376V472.5h.986v8.876Z" transform="translate(-430.418 -472.5)"/>
        </g>
        <g id="Grupo_57563" data-name="Grupo 57563" transform="translate(142.543 315.779)">
          <path id="Trazado_101844" data-name="Trazado 101844" d="M433.28,518.853l-.723-1.972h-3.682l-.723,1.972H427.1l3.024-8.153h1.249l3.024,8.153ZM429.2,515.96h3.024l-1.512-4.208Z" transform="translate(-427.1 -509.977)"/>
          <path id="Trazado_101845" data-name="Trazado 101845" d="M440.612,519.365h3.024v.789H439.1l3.024-4.865H439.3V514.5h4.339Z" transform="translate(-431.21 -511.278)"/>
          <path id="Trazado_101846" data-name="Trazado 101846" d="M451.582,514.4h.986v5.654h-.986v-.723a2.344,2.344,0,0,1-.723.657,1.672,1.672,0,0,1-.986.2,2.166,2.166,0,0,1-1.446-.526,2.047,2.047,0,0,1-.526-1.446V514.4h.986v3.616a1.361,1.361,0,0,0,.329.986,1.3,1.3,0,0,0,.92.329,1.338,1.338,0,0,0,.986-.394,1.607,1.607,0,0,0,.395-1.184V514.4Z" transform="translate(-434.224 -511.244)"/>
          <path id="Trazado_101847" data-name="Trazado 101847" d="M458.1,518.476V509.6h.986v8.876Z" transform="translate(-437.718 -509.6)"/>
          <path id="Trazado_101848" data-name="Trazado 101848" d="M467.4,518.555V517.7h4.142v.855Z" transform="translate(-440.903 -512.374)"/>
          <path id="Trazado_101849" data-name="Trazado 101849" d="M484.505,514.4h1.052l-2.3,5.654H482.4l-2.3-5.654h1.052l1.644,4.537Z" transform="translate(-445.253 -511.244)"/>
          <path id="Trazado_101850" data-name="Trazado 101850" d="M494.657,517.161v.263h-4.471a1.937,1.937,0,0,0,.526,1.446,1.836,1.836,0,0,0,1.315.526,1.51,1.51,0,0,0,.92-.263,2.276,2.276,0,0,0,.657-.723l.92.2a2.631,2.631,0,0,1-.986,1.249,2.426,2.426,0,0,1-1.512.46,2.724,2.724,0,0,1-2.038-.789,3.378,3.378,0,0,1,0-4.339,2.724,2.724,0,0,1,2.038-.789,2.5,2.5,0,0,1,2.63,2.761Zm-2.63-2.1a1.836,1.836,0,0,0-1.184.394,1.713,1.713,0,0,0-.592,1.184h3.419a1.568,1.568,0,0,0-1.644-1.578Z" transform="translate(-448.37 -511.244)"/>
          <path id="Trazado_101851" data-name="Trazado 101851" d="M500.82,515.418a1.673,1.673,0,0,1,.723-.789,2.216,2.216,0,0,1,1.118-.329v.92a1.963,1.963,0,0,0-1.315.394,1.607,1.607,0,0,0-.46,1.315v3.024H499.9V514.3h.986v1.118Z" transform="translate(-452.035 -511.21)"/>
          <path id="Trazado_101852" data-name="Trazado 101852" d="M509.668,509.6h.986v8.876h-.986v-1.118a2.678,2.678,0,0,1-.789.921,1.906,1.906,0,0,1-1.183.329,2.725,2.725,0,0,1-1.052-.2,2.5,2.5,0,0,1-.855-.592,2.758,2.758,0,0,1-.592-.92,3.559,3.559,0,0,1-.2-1.249,2.878,2.878,0,0,1,.789-2.1,2.529,2.529,0,0,1,1.907-.789,2.271,2.271,0,0,1,1.184.329,1.97,1.97,0,0,1,.789.855Zm-1.775,8.087a1.655,1.655,0,0,0,1.315-.592,2.437,2.437,0,0,0,0-3.024,1.757,1.757,0,0,0-2.63,0,2.437,2.437,0,0,0,0,3.024A1.655,1.655,0,0,0,507.893,517.687Z" transform="translate(-453.782 -509.6)"/>
          <path id="Trazado_101853" data-name="Trazado 101853" d="M518.893,520.117a3.347,3.347,0,0,1-1.446-.329,2.692,2.692,0,0,1-1.052-1.052,3.123,3.123,0,0,1-.394-1.578,3.037,3.037,0,0,1,.789-2.17,2.828,2.828,0,0,1,2.038-.789,2.724,2.724,0,0,1,2.038.789,2.932,2.932,0,0,1,.789,2.17,3.038,3.038,0,0,1-.789,2.17A2.576,2.576,0,0,1,518.893,520.117Zm0-.789a1.655,1.655,0,0,0,1.315-.592,2.344,2.344,0,0,0,.526-1.512,2.219,2.219,0,0,0-.526-1.512,1.757,1.757,0,0,0-2.63,0,2.344,2.344,0,0,0-.526,1.512,2.218,2.218,0,0,0,.526,1.512A1.567,1.567,0,0,0,518.893,519.328Z" transform="translate(-457.55 -511.176)"/>
          <path id="Trazado_101854" data-name="Trazado 101854" d="M528.635,520.152a2.724,2.724,0,0,1-1.512-.394,1.612,1.612,0,0,1-.723-1.183l.855-.263a1.219,1.219,0,0,0,.46.789,1.509,1.509,0,0,0,.92.263,1.283,1.283,0,0,0,.526-.066c.131-.066.329-.132.394-.263a1.256,1.256,0,0,0,.2-.526.5.5,0,0,0-.066-.263c-.066-.132-.066-.132-.066-.2a.141.141,0,0,0-.132-.131c-.066,0-.131-.066-.2-.132s-.131-.066-.263-.132a.5.5,0,0,0-.263-.066,2.846,2.846,0,0,0-.329-.066,2.844,2.844,0,0,1-.329-.066,3.056,3.056,0,0,1-.592-.2,1.647,1.647,0,0,1-.46-.263,2.854,2.854,0,0,1-.395-.46,1.081,1.081,0,0,1-.131-.657,1.509,1.509,0,0,1,.263-.921,1.485,1.485,0,0,1,.723-.526,2.4,2.4,0,0,1,.986-.131,2.431,2.431,0,0,1,1.381.394,1.422,1.422,0,0,1,.657,1.118l-.789.2a.948.948,0,0,0-.46-.723,1.869,1.869,0,0,0-.789-.263,1.561,1.561,0,0,0-.789.2.575.575,0,0,0-.329.592.593.593,0,0,0,.066.329q.1.2.2.2c.066,0,.131.131.329.2s.263.132.329.132a2.581,2.581,0,0,1,.394.132h.066a2.031,2.031,0,0,0,.526.131c.131.066.329.131.46.2a2,2,0,0,1,.46.329,1.058,1.058,0,0,1,.263.46,1.918,1.918,0,0,1,.132.592,1.751,1.751,0,0,1-.2.789,1.773,1.773,0,0,1-.46.526,1.969,1.969,0,0,1-.657.263A2.026,2.026,0,0,1,528.635,520.152Z" transform="translate(-461.112 -511.21)"/>
          <path id="Trazado_101855" data-name="Trazado 101855" d="M537.493,520.117a3.347,3.347,0,0,1-1.446-.329,2.692,2.692,0,0,1-1.052-1.052,3.123,3.123,0,0,1-.394-1.578,3.037,3.037,0,0,1,.789-2.17,2.828,2.828,0,0,1,2.038-.789,2.724,2.724,0,0,1,2.038.789,2.932,2.932,0,0,1,.789,2.17,3.038,3.038,0,0,1-.789,2.17A2.392,2.392,0,0,1,537.493,520.117Zm0-.789a1.655,1.655,0,0,0,1.315-.592,2.344,2.344,0,0,0,.526-1.512,2.219,2.219,0,0,0-.526-1.512,1.757,1.757,0,0,0-2.63,0,2.344,2.344,0,0,0-.526,1.512,2.219,2.219,0,0,0,.526,1.512A1.752,1.752,0,0,0,537.493,519.328Z" transform="translate(-463.92 -511.176)"/>
        </g>
        <g id="Grupo_57564" data-name="Grupo 57564" transform="translate(0.855 82.824)">
          <path id="Trazado_101856" data-name="Trazado 101856" d="M215.874,175.077a4.786,4.786,0,0,1-2.827-.789,3.35,3.35,0,0,1-1.446-2.1l1.381-.329a2.381,2.381,0,0,0,.986,1.512,3.6,3.6,0,0,0,1.907.526,2.7,2.7,0,0,0,.723-.066c.2-.066.46-.132.658-.2a1.38,1.38,0,0,0,.855-.855,2.363,2.363,0,0,0,.131-.723c0-.2-.066-.329-.066-.526l-.2-.394c-.066-.132-.2-.2-.394-.329a1.648,1.648,0,0,0-.46-.263,4.53,4.53,0,0,0-.526-.2l-.592-.2a4.084,4.084,0,0,0-.657-.2h-.131a5.333,5.333,0,0,1-.723-.2,4.534,4.534,0,0,1-.657-.263,6.109,6.109,0,0,1-.657-.329,2.743,2.743,0,0,1-.526-.395l-.46-.46a2.336,2.336,0,0,1-.263-.592,3.3,3.3,0,0,1-.131-.789,2.726,2.726,0,0,1,.526-1.644,3.461,3.461,0,0,1,1.315-1.052,3.894,3.894,0,0,1,1.775-.329,4.889,4.889,0,0,1,2.63.658,3.064,3.064,0,0,1,1.381,1.972l-1.315.329a1.959,1.959,0,0,0-.92-1.315,2.9,2.9,0,0,0-1.709-.46,3.848,3.848,0,0,0-.855.131,2.432,2.432,0,0,0-.723.329,1.552,1.552,0,0,0-.526.592,1.82,1.82,0,0,0-.2.855.975.975,0,0,0,.066.46l.2.395c.066.132.2.2.329.329.131.066.263.2.395.263a2.225,2.225,0,0,0,.526.2,2.225,2.225,0,0,1,.526.2,4.2,4.2,0,0,0,.592.132,9.41,9.41,0,0,1,2.1.723,2.712,2.712,0,0,1,1.644,1.972v.46a3.056,3.056,0,0,1-.329,1.381,3.1,3.1,0,0,1-.855.986,4.2,4.2,0,0,1-1.249.526C216.86,175.011,216.4,175.077,215.874,175.077Z" transform="translate(-211.6 -163.505)"/>
          <path id="Trazado_101857" data-name="Trazado 101857" d="M228.9,176.756a2.588,2.588,0,0,1-1.644-.526,1.97,1.97,0,0,1-.658-1.578,2.2,2.2,0,0,1,.2-.986,2.055,2.055,0,0,1,.592-.723,4.015,4.015,0,0,1,.92-.46,5.274,5.274,0,0,1,1.183-.263l1.249-.2a.671.671,0,0,0,.657-.723,1.2,1.2,0,0,0-.46-1.118,1.8,1.8,0,0,0-1.183-.329,2.271,2.271,0,0,0-1.183.329,1.55,1.55,0,0,0-.592,1.052l-1.183-.263a2.722,2.722,0,0,1,.92-1.644,3.336,3.336,0,0,1,2.1-.526,5.79,5.79,0,0,1,1.118.132,3.886,3.886,0,0,1,.92.395,1.586,1.586,0,0,1,.657.789,3.5,3.5,0,0,1,.263,1.249v3.156a1.142,1.142,0,0,0,.2.789.8.8,0,0,0,.592.2h.132v.986h-.657a1.278,1.278,0,0,1-1.446-1.052h-.066A3.15,3.15,0,0,1,228.9,176.756Zm.263-1.052a2.137,2.137,0,0,0,1.644-.723,3.137,3.137,0,0,0,.592-2.038l-2.038.395a2.5,2.5,0,0,0-1.183.395,1.123,1.123,0,0,0,0,1.709A2.178,2.178,0,0,0,229.164,175.7Z" transform="translate(-216.738 -165.184)"/>
          <path id="Trazado_101858" data-name="Trazado 101858" d="M241.716,175.425a1.838,1.838,0,0,1-2.038-2.038v-4.471H238.1v-1.052h.592a1.116,1.116,0,0,0,.855-.263,1.532,1.532,0,0,0,.263-.92V165.3h1.249v2.564h1.775v1.052h-1.775v4.339a1.213,1.213,0,0,0,.263.855,1.089,1.089,0,0,0,.789.329h.723v1.052h-1.118Z" transform="translate(-220.677 -163.985)"/>
          <path id="Trazado_101859" data-name="Trazado 101859" d="M252.865,169.1h1.315v7.627h-1.315v-.986a2.29,2.29,0,0,1-.92.855,2.993,2.993,0,0,1-1.315.329,2.594,2.594,0,0,1-1.907-.657,2.683,2.683,0,0,1-.723-1.972v-5.128h1.315v4.8a1.852,1.852,0,0,0,.46,1.381,1.584,1.584,0,0,0,1.183.46,2.122,2.122,0,0,0,1.381-.526,2.165,2.165,0,0,0,.526-1.578v-4.6Z" transform="translate(-224.068 -165.287)"/>
          <path id="Trazado_101860" data-name="Trazado 101860" d="M262.915,170.346a2.815,2.815,0,0,1,.92-1.052,2.651,2.651,0,0,1,1.446-.395v1.249a2.092,2.092,0,0,0-2.367,2.367v4.076H261.6v-7.627h1.315Z" transform="translate(-228.726 -165.218)"/>
          <path id="Trazado_101861" data-name="Trazado 101861" d="M271,176.756a2.588,2.588,0,0,1-1.644-.526,1.97,1.97,0,0,1-.657-1.578,2.2,2.2,0,0,1,.2-.986,2.055,2.055,0,0,1,.592-.723,4.016,4.016,0,0,1,.92-.46,5.274,5.274,0,0,1,1.183-.263l1.249-.2a.671.671,0,0,0,.657-.723,1.2,1.2,0,0,0-.46-1.118,1.8,1.8,0,0,0-1.183-.329,2.27,2.27,0,0,0-1.183.329,1.55,1.55,0,0,0-.592,1.052l-1.183-.263a2.721,2.721,0,0,1,.92-1.644,3.336,3.336,0,0,1,2.1-.526,5.79,5.79,0,0,1,1.118.132,3.887,3.887,0,0,1,.921.395,1.586,1.586,0,0,1,.657.789,3.5,3.5,0,0,1,.263,1.249v3.156a1.142,1.142,0,0,0,.2.789.8.8,0,0,0,.592.2h.132v.986h-.658a1.278,1.278,0,0,1-1.446-1.052h-.2A2.775,2.775,0,0,1,271,176.756Zm.263-1.052a2.137,2.137,0,0,0,1.644-.723,3.137,3.137,0,0,0,.592-2.038l-2.038.395a2.5,2.5,0,0,0-1.183.395,1.123,1.123,0,0,0,0,1.709A2.438,2.438,0,0,0,271.264,175.7Z" transform="translate(-231.158 -165.184)"/>
          <path id="Trazado_101862" data-name="Trazado 101862" d="M284.748,176.79a3.516,3.516,0,0,1-2.7-1.118,4.325,4.325,0,0,1,0-5.654,3.724,3.724,0,0,1,2.7-1.118,3.408,3.408,0,0,1,2.17.657,3.324,3.324,0,0,1,1.249,1.841l-1.249.2a2.317,2.317,0,0,0-.855-1.183,2.431,2.431,0,0,0-1.381-.395,2.251,2.251,0,0,0-1.775.789,3.234,3.234,0,0,0,0,4.076,2.251,2.251,0,0,0,1.775.789,2.431,2.431,0,0,0,1.381-.394,2.317,2.317,0,0,0,.855-1.183l1.249.2a3.427,3.427,0,0,1-1.315,1.841A3.1,3.1,0,0,1,284.748,176.79Z" transform="translate(-235.371 -165.218)"/>
          <path id="Trazado_101863" data-name="Trazado 101863" d="M295.52,165.441a.9.9,0,1,1,.657-.263A.844.844,0,0,1,295.52,165.441Zm-.657,9.4v-7.627h1.315v7.627Z" transform="translate(-240.029 -163.403)"/>
          <path id="Trazado_101864" data-name="Trazado 101864" d="M304.079,174.872a3.971,3.971,0,0,1-1.972-.46,3.487,3.487,0,0,1-1.381-1.381,4.337,4.337,0,0,1-.526-2.1,3.924,3.924,0,0,1,1.052-2.893,4.15,4.15,0,0,1,5.523,0,3.824,3.824,0,0,1,1.052,2.893,3.923,3.923,0,0,1-1.052,2.893A3.471,3.471,0,0,1,304.079,174.872Zm0-1.118a2.251,2.251,0,0,0,1.775-.789,3.234,3.234,0,0,0,0-4.076,2.392,2.392,0,0,0-3.55,0,3.234,3.234,0,0,0,0,4.076A2.251,2.251,0,0,0,304.079,173.754Zm-.526-7.956,1.972-2.5.723.526-1.709,1.972Z" transform="translate(-241.947 -163.3)"/>
          <path id="Trazado_101865" data-name="Trazado 101865" d="M318.65,168.9a2.594,2.594,0,0,1,1.907.657,2.683,2.683,0,0,1,.723,1.972v5.128h-1.315v-4.8a1.852,1.852,0,0,0-.46-1.381,1.89,1.89,0,0,0-1.184-.46,2.122,2.122,0,0,0-1.381.526,2.165,2.165,0,0,0-.526,1.578v4.537H315.1v-7.627h1.315v.986A2.6,2.6,0,0,1,318.65,168.9Z" transform="translate(-247.05 -165.218)"/>
        </g>
        <g id="Grupo_57565" data-name="Grupo 57565" transform="translate(39.909 9.139)">
          <path id="Trazado_101866" data-name="Trazado 101866" d="M278.956,55.2H280.4l-4.011,10.914h-1.446L271,55.2h1.446l3.222,9.139Z" transform="translate(-271 -54.214)"/>
          <path id="Trazado_101867" data-name="Trazado 101867" d="M288.4,67.856a2.588,2.588,0,0,1-1.644-.526,1.788,1.788,0,0,1-.658-1.578,2.2,2.2,0,0,1,.2-.986,2.055,2.055,0,0,1,.592-.723,4.016,4.016,0,0,1,.92-.46,5.275,5.275,0,0,1,1.183-.263l1.249-.2a.671.671,0,0,0,.658-.723,1.2,1.2,0,0,0-.46-1.118,1.8,1.8,0,0,0-1.183-.329,2.27,2.27,0,0,0-1.183.329,1.55,1.55,0,0,0-.592,1.052L286.3,62.07a2.722,2.722,0,0,1,.92-1.644,3.336,3.336,0,0,1,2.1-.526,5.79,5.79,0,0,1,1.118.131,3.886,3.886,0,0,1,.92.394,1.933,1.933,0,0,1,.658.789,3.5,3.5,0,0,1,.263,1.249V65.62a1.142,1.142,0,0,0,.2.789.8.8,0,0,0,.592.2h.132v.986h-.657a1.278,1.278,0,0,1-1.447-1.052h-.066A3.15,3.15,0,0,1,288.4,67.856Zm.263-1.052a2.137,2.137,0,0,0,1.644-.723,3.137,3.137,0,0,0,.592-2.038l-2.038.394a2.5,2.5,0,0,0-1.184.394,1.123,1.123,0,0,0,0,1.709A1.712,1.712,0,0,0,288.664,66.8Z" transform="translate(-276.172 -55.824)"/>
          <path id="Trazado_101868" data-name="Trazado 101868" d="M299.5,65.6V53.7h1.381V65.6Z" transform="translate(-280.762 -53.7)"/>
          <path id="Trazado_101869" data-name="Trazado 101869" d="M308.579,67.89a3.971,3.971,0,0,1-1.972-.46,3.487,3.487,0,0,1-1.381-1.381,4.337,4.337,0,0,1-.526-2.1,3.924,3.924,0,0,1,1.052-2.893,4.15,4.15,0,0,1,5.523,0,3.824,3.824,0,0,1,1.052,2.893,3.924,3.924,0,0,1-1.052,2.893A3.471,3.471,0,0,1,308.579,67.89Zm0-1.118a2.251,2.251,0,0,0,1.775-.789,3.234,3.234,0,0,0,0-4.076,2.392,2.392,0,0,0-3.55,0,3.234,3.234,0,0,0,0,4.076A2.251,2.251,0,0,0,308.579,66.772Z" transform="translate(-282.543 -55.858)"/>
          <path id="Trazado_101870" data-name="Trazado 101870" d="M320.915,61.546a2.814,2.814,0,0,1,.92-1.052,2.651,2.651,0,0,1,1.446-.394v1.249a2.092,2.092,0,0,0-2.367,2.367v4.076H319.6V60.166h1.315Z" transform="translate(-287.646 -55.892)"/>
        </g>
      </g>
    </g>
  </g>
</svg>
