<?xml version="1.0" encoding="utf-8"?>
<!-- Generator: Adobe Illustrator 26.0.1, SVG Export Plug-In . SVG Version: 6.00 Build 0)  -->
<svg version="1.1" id="info_1_4-08" xmlns="http://www.w3.org/2000/svg" xmlns:xlink="http://www.w3.org/1999/xlink" x="0px"
	 y="0px" viewBox="0 0 426.8 227.5" style="enable-background:new 0 0 426.8 227.5;" xml:space="preserve">
<style type="text/css">
	.st0{fill:#754C24;}
	.st1{fill:#F2F2F2;}
	.st2{opacity:0.75;}
	.st3{opacity:0.5;}
	.st4{opacity:0.25;}
</style>
<rect id="Rectángulo_5411" y="173" class="st0" width="53.3" height="54.5"/>
<g id="Grupo_57730">
	<rect id="Rectángulo_5412" class="st0" width="213.4" height="173"/>
	<rect id="Rectángulo_5413" x="213.4" class="st1" width="213.4" height="227.5"/>
	<g id="Grupo_57722" transform="translate(53.345 173)" class="st2">
		<rect id="Rectángulo_5414" x="0" class="st0" width="53.3" height="54.5"/>
	</g>
	<g id="Grupo_57723" transform="translate(106.697 173)" class="st3">
		<rect id="Rectángulo_5415" x="0" class="st0" width="53.3" height="54.5"/>
	</g>
	<g id="Grupo_57724" transform="translate(160.042 173)" class="st4">
		<rect id="Rectángulo_5416" x="0" class="st0" width="53.3" height="54.5"/>
	</g>
	<g id="Grupo_57725" transform="translate(239.749 40.819)">
		<path id="Trazado_102825" d="M24.1,21.6h-4.2L18.6,6.3l-5.1,15.3h-2.7L5.6,6.3L4.2,21.6H0L1.7,1.3h6L12,14l4.4-12.7h6L24.1,21.6z"
			/>
		<path id="Trazado_102826" d="M39.8,17.7c0,1.2,0.1,2.4,0.4,3.5v0.4h-3.8L36,20c-0.5,0.6-1.2,1.1-2,1.4c-0.8,0.3-1.7,0.5-2.6,0.5
			c-0.5,0-0.9,0-1.4-0.1c-0.4-0.1-0.8-0.2-1.2-0.4c-0.4-0.2-0.7-0.4-1-0.8c-0.3-0.3-0.5-0.7-0.7-1.1c-0.2-0.5-0.3-1-0.2-1.6
			c0-0.5,0.1-1.1,0.3-1.6c0.2-0.4,0.4-0.8,0.7-1.2c0.3-0.3,0.7-0.6,1.1-0.9c0.5-0.3,0.9-0.5,1.4-0.6c0.6-0.2,1.1-0.3,1.7-0.4
			l2.4-0.5c0.4-0.1,0.8-0.2,1.1-0.5c0.2-0.2,0.3-0.5,0.3-0.8c0-0.6-0.2-1.1-0.7-1.4c-0.5-0.3-1.1-0.4-1.7-0.4
			c-1.7,0-2.6,0.7-2.8,2.2L27,11.2c0.2-1.3,1-2.5,2.1-3.3c1.4-0.8,3-1.1,4.5-1.1c4,0,6.1,1.7,6.1,5.2L39.8,17.7z M32.6,19.1
			c0.9,0,1.9-0.4,2.5-1c0.7-0.9,1.1-2,1-3.1l-3.4,1c-0.5,0.1-1,0.3-1.4,0.6c-0.3,0.2-0.5,0.6-0.5,1c0,0.4,0.2,0.9,0.5,1.2
			C31.7,19,32.1,19.1,32.6,19.1L32.6,19.1z"/>
		<path id="Trazado_102827" d="M47.6,9.4c0.5-0.7,1.1-1.3,1.9-1.7c0.9-0.5,1.8-0.8,2.8-0.8v3.6c-1.2-0.1-2.4,0.2-3.5,0.9
			c-0.8,0.8-1.2,2-1.1,3.1v7.1h-4.1V7.1h3.9V9.4z"/>
		<path id="Trazado_102828" d="M58.5,9.4c0.5-0.7,1.1-1.3,1.9-1.7c0.9-0.5,1.8-0.8,2.8-0.8v3.6c-1.2-0.1-2.4,0.2-3.5,0.9
			c-0.8,0.8-1.2,2-1.1,3.1v7.1h-4.1V7.1h3.9L58.5,9.4z"/>
		<path id="Trazado_102829" d="M72.3,21.9c-1.4,0-2.8-0.3-4.1-0.9c-1.2-0.6-2.1-1.5-2.8-2.6c-0.7-1.2-1-2.6-1-4
			c-0.1-2.1,0.7-4.1,2.2-5.5c3.4-2.7,8.1-2.7,11.5,0c1.5,1.4,2.3,3.4,2.2,5.5c0.1,2.1-0.7,4.1-2.2,5.5C76.4,21.2,74.4,22,72.3,21.9
			L72.3,21.9z M72.3,18.6c1.1,0,2.1-0.4,2.8-1.2c1.4-1.8,1.4-4.4,0-6.2c-0.7-0.8-1.8-1.2-2.8-1.2c-1.1,0-2.1,0.4-2.8,1.2
			c-1.4,1.8-1.4,4.4,0,6.2C70.2,18.3,71.2,18.7,72.3,18.6z M71.1,5.2L74.7,0l2,1.4l-3.2,3.8L71.1,5.2z"/>
		<path id="Trazado_102830" d="M91.7,6.9c1.4-0.1,2.9,0.3,4,1.3c1,1,1.5,2.3,1.4,3.7v9.7h-4.1v-8.8c0.1-0.7-0.2-1.5-0.8-2
			c-0.5-0.4-1.2-0.7-1.9-0.6c-0.4,0-0.8,0.1-1.2,0.2c-0.4,0.1-0.7,0.3-1,0.6c-0.3,0.3-0.6,0.7-0.7,1.1c-0.2,0.5-0.3,1.1-0.3,1.7v8
			h-4.1V7.1h4.1v1.6C88.4,7.5,90,6.8,91.7,6.9L91.7,6.9z"/>
	</g>
	<g id="Grupo_57726" transform="translate(242.058 113.763)">
		<path id="Trazado_102831" d="M5,1.7H1.7v2.7h3v1h-3v2.8H5v1H0.6V0.8H5V1.7z"/>
		<path id="Trazado_102832" d="M8.6,9.2c-0.6,0-1.1-0.1-1.6-0.4C6.7,8.5,6.4,8.1,6.3,7.6l0.9-0.3c0.1,0.3,0.2,0.6,0.5,0.8
			c0.3,0.2,0.6,0.3,1,0.3c0.2,0,0.4,0,0.6-0.1c0.2-0.1,0.3-0.2,0.4-0.3c0.1-0.2,0.2-0.3,0.2-0.5c0-0.1,0-0.2-0.1-0.2
			c0-0.1-0.1-0.1-0.1-0.2C9.6,7,9.6,7,9.5,6.9c-0.1,0-0.1-0.1-0.2-0.1C9.2,6.8,9.1,6.7,9,6.7L8.8,6.6L8.4,6.5L8.1,6.4
			C7.9,6.3,7.6,6.3,7.5,6.2C7.3,6.1,7.2,6,7,5.9C6.8,5.8,6.7,5.6,6.6,5.5C6.5,5.3,6.5,5,6.5,4.8c0-0.3,0.1-0.7,0.3-0.9
			C7,3.6,7.2,3.4,7.5,3.3c0.3-0.1,0.7-0.2,1-0.2c0.5,0,1,0.1,1.4,0.4c0.4,0.3,0.6,0.7,0.7,1.1L9.9,4.9c0-0.3-0.2-0.6-0.4-0.8
			C9.2,4,8.9,3.9,8.6,3.9C8.3,3.9,8,4,7.8,4.1C7.6,4.2,7.5,4.5,7.5,4.7c0,0.1,0,0.2,0.1,0.3c0,0.1,0.1,0.2,0.2,0.2
			C7.8,5.3,8,5.4,8.1,5.4c0.1,0.1,0.2,0.1,0.3,0.1l0.4,0.1h0.1l0.6,0.2C9.7,5.9,9.8,6,10,6c0.2,0.1,0.3,0.2,0.5,0.3
			c0.3,0.3,0.4,0.7,0.4,1.1c0,0.3-0.1,0.5-0.2,0.8c-0.1,0.2-0.3,0.4-0.5,0.5C10,8.9,9.8,9,9.5,9C9.2,9.1,8.9,9.2,8.6,9.2z"/>
		<path id="Trazado_102833" d="M14.3,9.1c-0.4,0-0.8-0.1-1.1-0.4c-0.3-0.3-0.4-0.7-0.4-1.2V4.1h-1.2V3.3H12c0.2,0,0.5,0,0.6-0.2
			c0.1-0.2,0.2-0.4,0.2-0.7v-1h1v1.9h1.3v0.8h-1.3v3.3c0,0.2,0.1,0.5,0.2,0.6c0.2,0.2,0.4,0.2,0.6,0.2h0.5v0.8L14.3,9.1z"/>
		<path id="Trazado_102834" d="M17.8,9.2c-0.5,0-0.9-0.1-1.3-0.4c-0.3-0.3-0.5-0.7-0.5-1.2c0-0.3,0-0.5,0.2-0.8
			c0.1-0.2,0.3-0.4,0.5-0.5c0.2-0.1,0.4-0.3,0.7-0.3c0.3-0.1,0.6-0.2,0.9-0.2l0.9-0.2c0.3-0.1,0.5-0.2,0.5-0.5
			c0-0.3-0.1-0.7-0.4-0.9C19.1,4,18.8,3.9,18.4,4c-0.3,0-0.6,0.1-0.9,0.3c-0.3,0.2-0.4,0.5-0.4,0.8l-0.9-0.2c0.1-0.5,0.3-1,0.8-1.2
			c0.5-0.3,1-0.4,1.6-0.4c0.3,0,0.6,0,0.8,0.1c0.3,0.1,0.5,0.2,0.7,0.3c0.2,0.2,0.4,0.4,0.5,0.6c0.1,0.3,0.2,0.6,0.2,1v2.4
			c0,0.2,0,0.4,0.1,0.6c0.1,0.1,0.3,0.2,0.5,0.2h0.1v0.8h-0.5c-0.5,0.1-1-0.2-1.1-0.8h-0.1C19.3,8.9,18.6,9.3,17.8,9.2z M18.1,8.4
			c0.5,0,0.9-0.2,1.2-0.6c0.3-0.4,0.5-1,0.5-1.5l-1.5,0.3c-0.3,0-0.6,0.1-0.9,0.3C17,7.2,17,7.8,17.3,8.1c0,0,0,0,0.1,0.1
			C17.6,8.3,17.8,8.4,18.1,8.4L18.1,8.4z"/>
		<path id="Trazado_102835" d="M25.9,3.2c0.7,0,1.4,0.3,1.9,0.8c0.5,0.6,0.8,1.4,0.8,2.2c0,0.8-0.2,1.6-0.8,2.2
			c-0.5,0.5-1.2,0.9-1.9,0.8c-0.4,0-0.9-0.1-1.2-0.3C24.3,8.7,24,8.3,23.8,8v1.1h-1V0h1v4.4C24,4,24.3,3.7,24.7,3.5
			C25.1,3.3,25.5,3.2,25.9,3.2z M25.7,8.3c0.5,0,1-0.2,1.4-0.6c0.4-0.4,0.6-1,0.6-1.5c0-0.6-0.2-1.1-0.6-1.5
			c-0.3-0.4-0.8-0.6-1.4-0.6c-0.5,0-1,0.2-1.3,0.6c-0.7,0.9-0.7,2.1,0,3C24.7,8.1,25.2,8.3,25.7,8.3L25.7,8.3z"/>
		<path id="Trazado_102836" d="M30.2,9.1V0h1v9.1H30.2z"/>
		<path id="Trazado_102837" d="M38.4,6.1v0.3h-4.5c0,0.6,0.2,1.1,0.6,1.5c0.4,0.3,0.8,0.5,1.3,0.5c0.7,0,1.3-0.4,1.6-1.1l0.9,0.2
			c-0.2,0.5-0.5,0.9-1,1.3c-0.4,0.3-1,0.5-1.5,0.5c-0.8,0-1.5-0.3-2.1-0.8c-1.1-1.3-1.1-3.1,0-4.4c0.5-0.5,1.3-0.8,2.1-0.8
			c0.7,0,1.4,0.2,2,0.8C38.2,4.5,38.5,5.3,38.4,6.1z M35.7,3.9c-0.4,0-0.9,0.1-1.2,0.4c-0.3,0.3-0.6,0.7-0.6,1.2h3.5
			c0-0.5-0.2-0.9-0.5-1.2C36.6,4.1,36.2,3.9,35.7,3.9L35.7,3.9z"/>
		<path id="Trazado_102838" d="M5.9,15.3h1.1v8.3H5.9v-3.7H1.6v3.7H0.6v-8.3h1.1V19h4.2L5.9,15.3z"/>
		<path id="Trazado_102839" d="M11.6,23.7c-0.5,0-1.1-0.1-1.5-0.4c-0.4-0.2-0.8-0.6-1.1-1.1c-0.3-0.5-0.4-1-0.4-1.6
			c0-0.8,0.3-1.6,0.8-2.2c1.2-1.1,3-1.1,4.2,0c0.6,0.6,0.9,1.4,0.8,2.2c0,0.8-0.3,1.6-0.8,2.2C13.2,23.5,12.4,23.8,11.6,23.7z
			 M11.6,22.9c0.5,0,1-0.2,1.4-0.6c0.7-0.9,0.7-2.2,0-3.1c-0.3-0.4-0.9-0.6-1.4-0.6c-0.5,0-1,0.2-1.4,0.6c-0.7,0.9-0.7,2.2,0,3.1
			C10.6,22.7,11.1,22.9,11.6,22.9z"/>
		<path id="Trazado_102840" d="M18.9,17.7c0.5,0,1.1,0.2,1.5,0.5c0.4,0.4,0.6,1,0.5,1.5v3.9h-1V20c0-0.4-0.1-0.8-0.4-1
			c-0.2-0.2-0.6-0.3-0.9-0.3c-0.4,0-0.8,0.1-1,0.4c-0.3,0.3-0.4,0.8-0.4,1.2v3.5h-1v-5.8h1v0.8C17.6,18,18.2,17.7,18.9,17.7z"/>
		<path id="Trazado_102841" d="M28,20.6v0.3h-4.5c0,0.6,0.2,1.1,0.6,1.5c0.4,0.3,0.8,0.5,1.3,0.5c0.3,0,0.7-0.1,1-0.3
			c0.3-0.2,0.5-0.4,0.7-0.8l0.9,0.2c-0.2,0.5-0.5,0.9-1,1.2c-0.4,0.3-1,0.5-1.5,0.5c-0.8,0-1.5-0.3-2.1-0.8c-1.1-1.3-1.1-3.1,0-4.4
			c0.5-0.5,1.3-0.8,2.1-0.8c0.7,0,1.4,0.2,2,0.8C27.8,19.1,28,19.8,28,20.6z M25.3,18.5c-0.4,0-0.9,0.1-1.2,0.4
			c-0.3,0.3-0.6,0.7-0.6,1.2H27c0-0.5-0.2-0.9-0.5-1.2C26.1,18.6,25.7,18.5,25.3,18.5L25.3,18.5z"/>
		<path id="Trazado_102842" d="M31.4,23.7c-0.6,0-1.1-0.1-1.6-0.4c-0.4-0.3-0.7-0.7-0.8-1.2l0.9-0.3c0,0.3,0.2,0.6,0.5,0.8
			c0.3,0.2,0.6,0.3,1,0.3c0.2,0,0.4,0,0.6-0.1c0.2-0.1,0.3-0.2,0.4-0.3c0.1-0.1,0.2-0.3,0.2-0.5c0-0.1,0-0.2,0-0.2
			c0-0.1-0.1-0.1-0.1-0.2c0-0.1-0.1-0.1-0.2-0.2c-0.1,0-0.1-0.1-0.2-0.1c-0.1,0-0.2-0.1-0.3-0.1l-0.3-0.1l-0.3-0.1L30.9,21
			c-0.2-0.1-0.4-0.1-0.6-0.2c-0.2-0.1-0.3-0.2-0.5-0.3c-0.2-0.1-0.3-0.3-0.4-0.5c-0.1-0.2-0.1-0.4-0.1-0.7c0-0.3,0.1-0.7,0.3-0.9
			c0.2-0.3,0.5-0.4,0.8-0.6c0.3-0.1,0.7-0.2,1-0.2c0.5,0,1,0.1,1.4,0.4c0.4,0.3,0.6,0.7,0.7,1.1l-0.8,0.2c0-0.3-0.2-0.6-0.4-0.8
			c-0.2-0.2-0.5-0.3-0.8-0.2c-0.3,0-0.5,0.1-0.8,0.2c-0.2,0.1-0.3,0.4-0.3,0.6c0,0.1,0,0.2,0.1,0.3c0,0.1,0.1,0.2,0.2,0.2
			c0.1,0.1,0.2,0.1,0.3,0.2l0.3,0.1l0.4,0.1h0.1c0.2,0.1,0.4,0.1,0.6,0.2c0.2,0.1,0.3,0.1,0.5,0.2c0.2,0.1,0.3,0.2,0.4,0.3
			c0.1,0.1,0.2,0.3,0.3,0.5c0.1,0.2,0.1,0.4,0.1,0.6c0,0.3-0.1,0.5-0.2,0.8c-0.1,0.2-0.3,0.4-0.5,0.5c-0.2,0.1-0.4,0.2-0.7,0.3
			C32,23.7,31.7,23.7,31.4,23.7z"/>
		<path id="Trazado_102843" d="M37,23.6c-0.4,0-0.8-0.1-1.1-0.4c-0.3-0.3-0.4-0.7-0.4-1.2v-3.4h-1.2v-0.8h0.4c0.2,0,0.5,0,0.6-0.2
			c0.1-0.2,0.2-0.4,0.2-0.7v-1.1h1v1.9h1.3v0.8h-1.3v3.3c0,0.2,0.1,0.5,0.2,0.6c0.2,0.2,0.4,0.2,0.6,0.2h0.5v0.8L37,23.6z"/>
		<path id="Trazado_102844" d="M41.7,23.7c-0.5,0-1.1-0.1-1.5-0.4c-0.4-0.2-0.8-0.6-1.1-1.1c-0.3-0.5-0.4-1-0.4-1.6
			c0-0.8,0.3-1.6,0.8-2.2c1.2-1.1,3-1.1,4.2,0c0.6,0.6,0.9,1.4,0.8,2.2c0,0.8-0.3,1.6-0.8,2.2C43.2,23.5,42.5,23.8,41.7,23.7
			L41.7,23.7z M41.7,22.9c0.5,0,1-0.2,1.4-0.6c0.7-0.9,0.7-2.2,0-3.1c-0.3-0.4-0.8-0.6-1.4-0.6c-0.5,0-1,0.2-1.4,0.6
			c-0.7,0.9-0.7,2.2,0,3.1C40.7,22.7,41.2,22.9,41.7,22.9L41.7,22.9z"/>
		<path id="Trazado_102845" d="M4.2,38.3c-0.6,0-1.1-0.1-1.6-0.3c-0.5-0.2-0.9-0.5-1.3-0.8c-0.4-0.4-0.7-0.8-0.9-1.4
			C0.1,35.2,0,34.6,0,34c0-0.6,0.1-1.2,0.3-1.8c0.2-0.5,0.5-1,0.9-1.4C1.6,30.5,2,30.2,2.5,30c0.5-0.2,1.1-0.3,1.6-0.3
			c0.8,0,1.5,0.2,2.2,0.6c0.7,0.4,1.2,0.9,1.5,1.6l-1,0.4c-0.2-0.5-0.6-0.9-1.1-1.2c-0.5-0.3-1-0.4-1.6-0.4c-0.4,0-0.8,0.1-1.2,0.2
			c-0.4,0.1-0.7,0.4-1,0.6c-0.3,0.3-0.5,0.6-0.7,1C1.2,33,1.1,33.5,1.1,34c0,0.5,0.1,0.9,0.2,1.4c0.1,0.4,0.4,0.7,0.7,1
			c0.3,0.3,0.6,0.5,1,0.6c0.4,0.2,0.8,0.2,1.2,0.2c0.6,0,1.1-0.1,1.6-0.4c0.5-0.3,0.9-0.7,1.1-1.2l1,0.4c-0.3,0.7-0.9,1.3-1.5,1.6
			C5.7,38.1,4.9,38.3,4.2,38.3z"/>
		<path id="Trazado_102846" d="M10.7,38.3c-0.5,0-0.9-0.1-1.3-0.4c-0.3-0.3-0.5-0.7-0.5-1.2c0-0.3,0-0.5,0.2-0.8
			c0.1-0.2,0.3-0.4,0.5-0.5c0.2-0.1,0.4-0.3,0.7-0.3c0.3-0.1,0.6-0.2,0.9-0.2l0.9-0.2c0.3-0.1,0.5-0.2,0.5-0.5
			c0-0.3-0.1-0.7-0.4-0.9C12,33.1,11.7,33,11.3,33c-0.3,0-0.6,0.1-0.9,0.3c-0.3,0.2-0.4,0.5-0.4,0.8L9,33.9c0.1-0.5,0.3-1,0.8-1.2
			c0.5-0.3,1-0.4,1.6-0.4c0.3,0,0.6,0,0.8,0.1c0.3,0.1,0.5,0.2,0.7,0.3c0.2,0.2,0.4,0.4,0.5,0.6c0.1,0.3,0.2,0.6,0.2,1v2.4
			c0,0.2,0,0.4,0.1,0.6c0.1,0.1,0.3,0.2,0.5,0.2h0.1v0.8h-0.5c-0.6,0-1-0.3-1.1-0.8h0C12.2,38,11.5,38.3,10.7,38.3L10.7,38.3z
			 M11,37.5c0.5,0,0.9-0.2,1.2-0.6c0.3-0.4,0.5-1,0.5-1.5l-1.5,0.3c-0.3,0-0.6,0.1-0.9,0.3c-0.4,0.3-0.4,0.8-0.1,1.2
			c0,0,0,0.1,0.1,0.1C10.5,37.4,10.7,37.5,11,37.5L11,37.5z"/>
		<path id="Trazado_102847" d="M15.7,38.2v-9.1h1v9.1H15.7z"/>
		<path id="Trazado_102848" d="M19.4,31c-0.2,0-0.4-0.1-0.5-0.2c-0.1-0.1-0.2-0.3-0.2-0.5c0-0.2,0.1-0.4,0.2-0.5
			c0.1-0.1,0.3-0.2,0.5-0.2c0.2,0,0.4,0.1,0.5,0.2c0.1,0.1,0.2,0.3,0.2,0.5C20.1,30.7,19.7,31,19.4,31L19.4,31z M18.8,38.2v-5.8h1
			v5.8H18.8z"/>
		<path id="Trazado_102849" d="M26.2,29.1h1v9.1h-1V37c-0.2,0.4-0.5,0.7-0.8,0.9c-0.4,0.2-0.8,0.3-1.2,0.3c-0.4,0-0.7-0.1-1.1-0.2
			c-0.3-0.1-0.6-0.3-0.9-0.6c-0.3-0.3-0.5-0.6-0.6-1c-0.1-0.4-0.2-0.8-0.2-1.2c0-0.8,0.2-1.6,0.8-2.2c0.5-0.5,1.2-0.9,1.9-0.8
			c0.4,0,0.9,0.1,1.2,0.3c0.4,0.2,0.6,0.5,0.8,0.9L26.2,29.1z M24.4,37.4c0.5,0,1-0.2,1.4-0.6c0.4-0.4,0.6-1,0.5-1.5
			c0-0.6-0.2-1.1-0.6-1.5c-0.3-0.4-0.8-0.6-1.3-0.6c-0.5,0-1,0.2-1.4,0.6c-0.4,0.4-0.6,1-0.6,1.5c0,0.6,0.2,1.1,0.6,1.5
			C23.4,37.2,23.9,37.4,24.4,37.4L24.4,37.4z"/>
		<path id="Trazado_102850" d="M31.8,38.3c-0.5,0-1.1-0.1-1.5-0.4c-0.4-0.2-0.8-0.6-1.1-1.1c-0.3-0.5-0.4-1-0.4-1.6
			c0-0.8,0.3-1.6,0.8-2.2c1.2-1.1,3-1.1,4.2,0c1.1,1.3,1.1,3.1,0,4.4C33.3,38,32.6,38.3,31.8,38.3z M31.8,37.4c0.5,0,1-0.2,1.4-0.6
			c0.7-0.9,0.7-2.2,0-3.1c-0.3-0.4-0.9-0.6-1.4-0.6c-0.5,0-1,0.2-1.4,0.6c-0.7,0.9-0.7,2.2,0,3.1C30.8,37.2,31.3,37.4,31.8,37.4
			L31.8,37.4z"/>
		<path id="Trazado_102851" d="M4.2,52.8c-0.6,0-1.1-0.1-1.6-0.3c-0.5-0.2-0.9-0.5-1.3-0.8c-0.4-0.4-0.7-0.8-0.9-1.4
			c-0.4-1.2-0.4-2.4,0-3.6c0.2-0.5,0.5-1,0.9-1.4c0.4-0.4,0.8-0.6,1.3-0.8c0.5-0.2,1.1-0.3,1.6-0.3c0.8,0,1.5,0.2,2.2,0.6
			c0.6,0.4,1.2,0.9,1.5,1.6l-1,0.4c-0.2-0.5-0.6-0.9-1.1-1.2c-0.5-0.3-1-0.4-1.6-0.4c-0.4,0-0.8,0.1-1.2,0.2c-0.4,0.1-0.7,0.4-1,0.6
			c-0.3,0.3-0.5,0.6-0.7,1c-0.2,0.4-0.2,0.9-0.2,1.4c0,0.5,0.1,0.9,0.2,1.4c0.1,0.4,0.4,0.7,0.7,1c0.3,0.3,0.6,0.5,1,0.6
			c0.4,0.2,0.8,0.2,1.2,0.2c0.6,0,1.1-0.1,1.6-0.4c0.5-0.3,0.9-0.7,1.1-1.2l1,0.4c-0.3,0.7-0.9,1.3-1.5,1.6
			C5.7,52.6,4.9,52.8,4.2,52.8z"/>
		<path id="Trazado_102852" d="M11.8,52.8c-0.5,0-1.1-0.1-1.5-0.4c-0.4-0.2-0.8-0.6-1.1-1.1c-0.3-0.5-0.4-1-0.4-1.6
			c0-0.8,0.3-1.6,0.8-2.2c1.2-1.1,3-1.1,4.2,0c0.6,0.6,0.9,1.4,0.8,2.2c0,0.8-0.3,1.6-0.8,2.2C13.4,52.6,12.6,52.9,11.8,52.8z
			 M11.8,52c0.5,0,1-0.2,1.4-0.6c0.4-0.4,0.6-1,0.5-1.6c0-0.6-0.2-1.1-0.5-1.6c-0.3-0.4-0.9-0.6-1.4-0.6c-0.5,0-1,0.2-1.4,0.6
			c-0.4,0.4-0.6,1-0.5,1.6c0,0.6,0.2,1.1,0.5,1.6C10.8,51.8,11.3,52,11.8,52L11.8,52z"/>
		<path id="Trazado_102853" d="M19.1,46.8c0.5,0,1.1,0.2,1.5,0.5c0.4,0.4,0.6,1,0.5,1.5v3.9h-1v-3.7c0-0.4-0.1-0.8-0.4-1
			c-0.2-0.2-0.6-0.3-0.9-0.3c-0.4,0-0.8,0.1-1,0.4c-0.3,0.3-0.4,0.8-0.4,1.2v3.5h-1v-5.8h1v0.8C17.8,47.1,18.4,46.8,19.1,46.8z"/>
		<path id="Trazado_102854" d="M25.8,44.5h-0.4c-0.1,0-0.1,0-0.2,0l-0.2,0.1c-0.1,0-0.1,0.1-0.2,0.1c0,0-0.1,0.1-0.1,0.2
			c-0.1,0.1-0.1,0.1-0.1,0.2c0,0.1-0.1,0.2-0.1,0.3c0,0.1,0,0.2,0,0.4v1.2h1.4v0.8h-1.4v5h-1v-5h-1.2v-0.8h1.1v-1.2
			c0-0.2,0-0.5,0.1-0.7c0-0.2,0.1-0.3,0.2-0.5c0.1-0.1,0.2-0.3,0.3-0.4c0.1-0.1,0.2-0.2,0.4-0.3c0.1-0.1,0.3-0.1,0.4-0.1
			c0.2,0,0.3-0.1,0.5-0.1h0.6L25.8,44.5z"/>
		<path id="Trazado_102855" d="M29.3,52.8c-0.5,0-1.1-0.1-1.5-0.4c-0.4-0.3-0.8-0.6-1-1.1c-0.3-0.5-0.4-1-0.4-1.6
			c0-0.8,0.3-1.6,0.8-2.2c1.2-1.1,3-1.1,4.2,0c1.1,1.3,1.1,3.1,0,4.4C30.9,52.6,30.1,52.9,29.3,52.8z M29.3,52c0.5,0,1-0.2,1.4-0.6
			c0.4-0.4,0.6-1,0.5-1.6c0-0.6-0.2-1.1-0.5-1.6c-0.3-0.4-0.9-0.6-1.4-0.6c-0.5,0-1,0.2-1.4,0.6c-0.4,0.4-0.6,1-0.5,1.6
			c0,0.6,0.2,1.1,0.5,1.6C28.3,51.8,28.8,52,29.3,52L29.3,52z"/>
		<path id="Trazado_102856" d="M34.9,47.9c0.2-0.3,0.4-0.6,0.8-0.8c0.3-0.2,0.7-0.3,1.1-0.3v1c-0.5,0-1,0.1-1.3,0.4
			c-0.3,0.4-0.5,0.9-0.5,1.4v3.1h-1v-5.8h1L34.9,47.9z"/>
		<path id="Trazado_102857" d="M40.1,52.7c-0.4,0-0.8-0.1-1.1-0.4c-0.3-0.3-0.4-0.7-0.4-1.2v-3.4h-1.1v-0.8h0.4c0.2,0,0.5,0,0.6-0.2
			c0.1-0.2,0.2-0.4,0.2-0.7V45h1v1.9h1.3v0.8h-1.3V51c0,0.2,0.1,0.5,0.2,0.6c0.2,0.2,0.4,0.2,0.6,0.2h0.5v0.8L40.1,52.7z"/>
		<path id="Trazado_102858" d="M43.7,52.8c-0.5,0-0.9-0.1-1.3-0.4c-0.3-0.3-0.5-0.7-0.5-1.2c0-0.3,0-0.5,0.2-0.8
			c0.1-0.2,0.3-0.4,0.5-0.5c0.2-0.1,0.4-0.3,0.7-0.3c0.3-0.1,0.6-0.2,0.9-0.2l0.9-0.2c0.3-0.1,0.5-0.2,0.5-0.5
			c0-0.3-0.1-0.7-0.4-0.9c-0.3-0.2-0.6-0.3-0.9-0.3c-0.3,0-0.6,0.1-0.9,0.3c-0.3,0.2-0.4,0.5-0.4,0.8L42,48.5c0.1-0.5,0.3-1,0.8-1.2
			c0.5-0.3,1-0.4,1.6-0.4c0.3,0,0.6,0,0.8,0.1c0.3,0.1,0.5,0.2,0.7,0.3c0.2,0.2,0.4,0.4,0.5,0.6c0.1,0.3,0.2,0.6,0.2,1v2.4
			c0,0.2,0,0.4,0.1,0.6C46.8,52,47,52,47.2,52h0.1v0.8h-0.5c-0.5,0.1-1-0.2-1.1-0.8h-0.1C45.1,52.6,44.4,52.9,43.7,52.8L43.7,52.8z
			 M43.9,52c0.5,0,0.9-0.2,1.2-0.6c0.3-0.4,0.5-1,0.5-1.5l-1.5,0.3c-0.3,0-0.6,0.2-0.9,0.3c-0.4,0.3-0.4,0.8-0.1,1.2
			c0,0,0.1,0.1,0.1,0.1C43.4,52,43.6,52,43.9,52L43.9,52z"/>
		<path id="Trazado_102859" d="M51.8,46.8c0.7,0,1.4,0.3,1.9,0.8c1,1.3,1,3.1,0,4.4c-0.5,0.5-1.2,0.9-1.9,0.8
			c-0.4,0-0.9-0.1-1.2-0.3c-0.4-0.2-0.7-0.5-0.8-0.9v1.1h-1v-9.1h1V48c0.2-0.4,0.5-0.7,0.8-0.9C50.9,46.9,51.4,46.8,51.8,46.8z
			 M51.6,52c0.5,0,1-0.2,1.4-0.6c0.7-0.9,0.7-2.2,0-3.1c-0.3-0.4-0.8-0.6-1.4-0.6c-0.5,0-1,0.2-1.3,0.6c-0.7,0.9-0.7,2.1,0,3
			C50.5,51.7,51,51.9,51.6,52L51.6,52z"/>
		<path id="Trazado_102860" d="M56.1,52.7v-9.1h1v9.1H56.1z"/>
		<path id="Trazado_102861" d="M64.3,49.7V50h-4.5c0,0.6,0.2,1.1,0.6,1.5c0.4,0.3,0.8,0.5,1.3,0.5c0.7,0,1.3-0.4,1.6-1.1l0.9,0.2
			c-0.2,0.5-0.5,0.9-1,1.2c-0.4,0.3-1,0.5-1.5,0.5c-0.8,0-1.5-0.3-2.1-0.8c-1.1-1.3-1.1-3.1,0-4.4c0.5-0.5,1.3-0.8,2.1-0.8
			c0.7,0,1.4,0.2,2,0.8C64.1,48.2,64.3,48.9,64.3,49.7z M61.6,47.6c-0.4,0-0.9,0.1-1.2,0.4c-0.3,0.3-0.6,0.7-0.6,1.2h3.5
			c0-0.5-0.2-0.9-0.5-1.2C62.4,47.7,62,47.5,61.6,47.6L61.6,47.6z"/>
		<path id="Trazado_102862" d="M6.2,58.9h1.1v8.3H6.1l-4.5-6.7v6.7h-1v-8.3h1.1l4.5,6.7V58.9z"/>
		<path id="Trazado_102863" d="M14.6,64.2v0.3H10c0,0.6,0.2,1.1,0.6,1.5c0.4,0.3,0.8,0.5,1.3,0.5c0.7,0,1.3-0.4,1.6-1.1l0.9,0.2
			c-0.2,0.5-0.5,0.9-1,1.2c-0.4,0.3-1,0.5-1.5,0.5c-0.8,0-1.5-0.3-2.1-0.8c-1.1-1.3-1.1-3.1,0-4.4c0.5-0.5,1.3-0.8,2.1-0.8
			c0.7,0,1.4,0.2,2,0.8C14.4,62.7,14.6,63.4,14.6,64.2z M11.9,62.1c-0.4,0-0.9,0.1-1.2,0.4c-0.3,0.3-0.6,0.7-0.6,1.2h3.5
			c0-0.5-0.2-0.9-0.5-1.2C12.7,62.2,12.3,62.1,11.9,62.1L11.9,62.1z"/>
		<path id="Trazado_102864" d="M19.8,61.4h1v5.8h-1v-0.8c-0.2,0.3-0.4,0.5-0.7,0.7c-0.3,0.2-0.7,0.2-1,0.2c-0.5,0-1.1-0.2-1.5-0.5
			c-0.4-0.4-0.6-1-0.5-1.5v-3.9h1v3.7c0,0.4,0.1,0.8,0.4,1c0.2,0.2,0.6,0.4,0.9,0.3c0.4,0,0.8-0.1,1-0.4c0.3-0.3,0.4-0.8,0.4-1.2
			L19.8,61.4z"/>
		<path id="Trazado_102865" d="M24.8,67.2c-0.4,0-0.8-0.1-1.1-0.4c-0.3-0.3-0.4-0.7-0.4-1.2v-3.4H22v-0.8h0.4c0.2,0,0.5,0,0.6-0.2
			c0.1-0.2,0.2-0.4,0.2-0.7v-1.1h0.9v1.9h1.3v0.8h-1.3v3.3c0,0.2,0.1,0.5,0.2,0.6c0.2,0.2,0.4,0.2,0.6,0.2h0.5v0.8L24.8,67.2z"/>
		<path id="Trazado_102866" d="M28.1,62.5c0.2-0.3,0.4-0.6,0.8-0.8c0.3-0.2,0.7-0.3,1.1-0.3v1c-0.5,0-1,0.1-1.3,0.4
			c-0.3,0.4-0.5,0.9-0.5,1.4v3.1h-1v-5.8h1L28.1,62.5z"/>
		<path id="Trazado_102867" d="M32.4,67.4c-0.5,0-0.9-0.1-1.3-0.4c-0.3-0.3-0.5-0.7-0.5-1.2c0-0.3,0-0.5,0.2-0.8
			c0.1-0.2,0.3-0.4,0.5-0.5c0.2-0.1,0.4-0.3,0.7-0.3c0.3-0.1,0.6-0.2,0.9-0.2l0.9-0.2c0.3-0.1,0.5-0.2,0.5-0.5
			c0-0.3-0.1-0.7-0.4-0.9c-0.3-0.2-0.6-0.3-0.9-0.3c-0.3,0-0.6,0.1-0.9,0.3c-0.3,0.2-0.4,0.5-0.4,0.8L30.7,63c0.1-0.5,0.3-1,0.8-1.2
			c0.5-0.3,1-0.4,1.6-0.4c0.3,0,0.6,0,0.8,0.1c0.3,0.1,0.5,0.2,0.7,0.3c0.2,0.2,0.4,0.4,0.5,0.6c0.1,0.3,0.2,0.6,0.2,1v2.4
			c0,0.2,0,0.4,0.1,0.6c0.1,0.1,0.3,0.2,0.5,0.2H36v0.8h-0.5c-0.5,0.1-1-0.2-1.1-0.8h-0.1C33.9,67.1,33.1,67.4,32.4,67.4L32.4,67.4z
			 M32.6,66.5c0.5,0,0.9-0.2,1.2-0.6c0.3-0.4,0.5-1,0.5-1.5l-1.5,0.3c-0.3,0-0.6,0.1-0.9,0.3c-0.4,0.3-0.4,0.8-0.1,1.2
			c0,0,0.1,0.1,0.1,0.1C32.1,66.5,32.4,66.6,32.6,66.5L32.6,66.5z"/>
		<path id="Trazado_102868" d="M37.4,67.2v-9.1h1v9.1H37.4z"/>
	</g>
	<g id="Grupo_57727" transform="translate(242.438 88.287)">
		<path id="Trazado_102869" d="M3.6,0.4c0.7,0,1.5,0.2,2,0.8c0.5,0.5,0.8,1.2,0.8,2c0,0.7-0.2,1.4-0.8,2C5,5.6,4.3,5.9,3.6,5.8H1.8
			v3H0V0.4L3.6,0.4z M3.3,4.4c0.4,0,0.7-0.1,1-0.3c0.2-0.3,0.3-0.6,0.3-0.9c0-0.3-0.1-0.7-0.3-0.9C4,2,3.6,1.9,3.3,1.9H1.7v2.5
			L3.3,4.4z"/>
		<path id="Trazado_102870" d="M10.2,9.1C9.6,9.1,9,9,8.4,8.7C8,8.5,7.5,8.1,7.3,7.6C7,7.1,6.8,6.5,6.8,5.9c0-0.9,0.3-1.7,0.9-2.3
			c1.4-1.1,3.4-1.1,4.8,0c1.2,1.3,1.2,3.3,0,4.6C11.9,8.8,11,9.1,10.2,9.1z M10.2,7.7c0.5,0,0.9-0.2,1.2-0.5
			c0.3-0.4,0.5-0.8,0.5-1.3c0-0.5-0.1-1-0.5-1.3c-0.3-0.3-0.7-0.5-1.2-0.5C9.7,4.1,9.3,4.3,9,4.6C8.4,5.4,8.4,6.4,9,7.2
			C9.3,7.5,9.7,7.7,10.2,7.7L10.2,7.7z"/>
		<path id="Trazado_102871" d="M16.9,9.1c-0.6,0-1.2-0.1-1.8-0.4c-0.5-0.3-0.8-0.7-0.9-1.3L15.7,7c0.1,0.6,0.6,1,1.2,0.9
			c0.2,0,0.4,0,0.6-0.1c0.2-0.1,0.3-0.3,0.2-0.5c0-0.1,0-0.2-0.1-0.3c-0.1-0.1-0.2-0.2-0.3-0.2l-0.4-0.2l-0.5-0.2
			c-0.2,0-0.4-0.1-0.6-0.2c-0.2-0.1-0.4-0.1-0.5-0.2c-0.2-0.1-0.3-0.2-0.4-0.3c-0.1-0.1-0.3-0.3-0.3-0.5c-0.1-0.2-0.1-0.4-0.1-0.7
			c0-0.5,0.2-1.1,0.7-1.4c0.5-0.3,1.1-0.5,1.7-0.5c0.6,0,1.1,0.1,1.6,0.4c0.4,0.3,0.7,0.7,0.8,1.2l-1.3,0.3
			c-0.1-0.5-0.6-0.8-1.1-0.8c-0.2,0-0.4,0-0.6,0.1C16.1,4.1,16,4.3,16,4.5c0,0.1,0,0.1,0,0.2c0,0.1,0.1,0.1,0.1,0.1l0.2,0.1
			c0.1,0,0.2,0.1,0.2,0.1c0.1,0,0.2,0.1,0.3,0.1l0.3,0.1l0.3,0.1c0.2,0,0.4,0.1,0.6,0.2c0.2,0.1,0.4,0.2,0.5,0.2
			C18.7,5.8,18.8,5.9,19,6c0.1,0.2,0.2,0.3,0.3,0.5c0.1,0.2,0.1,0.4,0.1,0.7c0,0.3-0.1,0.6-0.2,0.9c-0.1,0.2-0.3,0.5-0.6,0.6
			c-0.2,0.1-0.5,0.3-0.8,0.3C17.5,9.1,17.2,9.1,16.9,9.1z"/>
		<path id="Trazado_102872" d="M21.5,2c-0.5,0-1-0.4-1-1c0-0.3,0.1-0.5,0.3-0.7C21,0.1,21.2,0,21.5,0c0.5,0,0.9,0.5,0.9,1.1
			C22.4,1.5,22,1.9,21.5,2L21.5,2z M20.6,9V2.9h1.7V9H20.6z"/>
		<path id="Trazado_102873" d="M26.4,9c-0.5,0-1-0.1-1.4-0.5c-0.3-0.4-0.5-0.9-0.5-1.4V4.2h-1.2V2.9h0.4c0.3,0,0.6-0.1,0.8-0.3
			c0.2-0.3,0.3-0.6,0.2-0.9V0.9h1.5v2h1.3v1.3h-1.3v2.7c0,0.5,0.2,0.8,0.7,0.8h0.6v1.3L26.4,9z"/>
		<path id="Trazado_102874" d="M29.7,2c-0.3,0-0.5-0.1-0.7-0.3c-0.2-0.2-0.3-0.4-0.3-0.7c0-0.3,0.1-0.5,0.3-0.7
			C29.2,0.1,29.4,0,29.7,0c0.3,0,0.5,0.1,0.7,0.3c0.4,0.4,0.4,1,0,1.4c0,0,0,0,0,0C30.2,1.9,30,2,29.7,2z M28.8,9V2.9h1.7V9H28.8z"
			/>
		<path id="Trazado_102875" d="M36.3,2.9h1.8l-2.6,6.1H34l-2.6-6.1h1.8L34.7,7L36.3,2.9z"/>
		<path id="Trazado_102876" d="M41.6,9.1c-0.6,0-1.2-0.1-1.7-0.4c-0.5-0.2-0.9-0.6-1.2-1.1c-0.3-0.5-0.4-1.1-0.4-1.7
			c0-0.9,0.3-1.7,0.9-2.3c1.4-1.1,3.4-1.1,4.8,0c1.2,1.3,1.2,3.3,0,4.6C43.3,8.8,42.4,9.1,41.6,9.1z M41.6,7.7
			c0.5,0,0.9-0.2,1.2-0.5c0.3-0.4,0.5-0.8,0.5-1.3c0-0.5-0.1-1-0.5-1.3c-0.3-0.3-0.7-0.5-1.2-0.5c-0.4,0-0.9,0.2-1.2,0.5
			c-0.6,0.8-0.6,1.9,0,2.6C40.7,7.5,41.1,7.7,41.6,7.7L41.6,7.7z"/>
	</g>
	<g id="Grupo_57728" transform="translate(327.377 113.763)">
		<path id="Trazado_102877" d="M6.3,9.1l-0.7-2H1.8l-0.7,2H0l3.1-8.3h1.3l3.1,8.3H6.3z M2.2,6.2h3.1L3.7,1.8L2.2,6.2z"/>
		<path id="Trazado_102878" d="M11.9,3.2c0.7,0,1.4,0.3,1.9,0.8c1,1.3,1,3.1,0,4.4c-0.5,0.5-1.2,0.9-1.9,0.8c-0.4,0-0.9-0.1-1.2-0.3
			C10.3,8.7,10,8.3,9.8,8v1.1h-1V0h1v4.4c0.2-0.4,0.5-0.7,0.8-0.9C11.1,3.3,11.5,3.2,11.9,3.2z M11.7,8.3c0.5,0,1-0.2,1.4-0.6
			c0.4-0.4,0.6-1,0.5-1.5c0-0.6-0.2-1.1-0.5-1.5c-0.3-0.4-0.8-0.6-1.4-0.6c-0.5,0-1,0.2-1.3,0.6c-0.7,0.9-0.7,2.1,0,3
			C10.7,8.1,11.2,8.3,11.7,8.3L11.7,8.3z"/>
		<path id="Trazado_102879" d="M19.8,3.3h1v5.8h-1V8.3c-0.2,0.3-0.4,0.5-0.8,0.7c-0.3,0.2-0.7,0.2-1,0.2c-0.5,0-1.1-0.2-1.5-0.5
			c-0.4-0.4-0.6-1-0.6-1.5V3.3h1v3.7c0,0.4,0.1,0.8,0.4,1c0.2,0.2,0.6,0.4,0.9,0.3c0.4,0,0.8-0.1,1-0.4c0.3-0.3,0.4-0.8,0.4-1.2
			L19.8,3.3z"/>
		<path id="Trazado_102880" d="M24,4.3c0.2-0.3,0.4-0.6,0.8-0.8c0.3-0.2,0.7-0.3,1.1-0.3v1c-0.5,0-1,0.1-1.3,0.4C24.1,5,24,5.5,24,6
			v3.1H23V3.3h1V4.3z"/>
		<path id="Trazado_102881" d="M28,4.3c0.2-0.3,0.4-0.6,0.7-0.8c0.3-0.2,0.7-0.3,1.1-0.3v1c-0.5,0-1,0.1-1.4,0.4C28.1,5,28,5.5,28,6
			v3.1h-1V3.3h1V4.3z"/>
		<path id="Trazado_102882" d="M31.6,1.9c-0.2,0-0.4-0.1-0.5-0.2c-0.1-0.1-0.2-0.3-0.2-0.5c0-0.2,0.1-0.4,0.2-0.5
			c0.3-0.3,0.7-0.3,1,0c0.1,0.1,0.2,0.3,0.2,0.5c0,0.2-0.1,0.4-0.2,0.5C31.9,1.8,31.8,1.9,31.6,1.9L31.6,1.9z M31.1,9.1V3.3h1v5.8
			H31.1z"/>
		<path id="Trazado_102883" d="M38.4,0h1v9.1h-1V8c-0.2,0.4-0.5,0.7-0.8,0.9c-0.4,0.2-0.8,0.3-1.2,0.3c-0.4,0-0.7-0.1-1.1-0.2
			c-0.3-0.1-0.6-0.3-0.9-0.6c-0.3-0.3-0.5-0.6-0.6-1c-0.2-0.4-0.2-0.8-0.2-1.2c0-0.8,0.2-1.6,0.8-2.2c0.5-0.5,1.2-0.9,1.9-0.8
			c0.4,0,0.9,0.1,1.2,0.3C38,3.7,38.3,4,38.4,4.4L38.4,0z M36.6,8.3c0.5,0,1-0.2,1.4-0.6c0.7-0.9,0.7-2.1,0-3
			c-0.7-0.8-1.8-0.8-2.6-0.2c0,0-0.1,0.1-0.1,0.1c-0.4,0.4-0.6,1-0.6,1.5c0,0.6,0.2,1.1,0.6,1.5C35.6,8.1,36.1,8.3,36.6,8.3
			L36.6,8.3z"/>
		<path id="Trazado_102884" d="M44,9.2c-0.5,0-1.1-0.1-1.5-0.4c-0.4-0.2-0.8-0.6-1.1-1.1c-0.3-0.5-0.4-1-0.4-1.6
			c0-0.8,0.3-1.6,0.8-2.2c1.2-1.1,3-1.1,4.2,0c1.1,1.3,1.1,3.1,0,4.4C45.5,8.9,44.8,9.2,44,9.2z M44,8.4c0.5,0,1-0.2,1.4-0.6
			c0.4-0.4,0.6-1,0.5-1.6c0-0.6-0.2-1.1-0.5-1.6C45,4.2,44.5,4,44,4c-0.5,0-1,0.2-1.4,0.6c-0.7,0.9-0.7,2.2,0,3.1
			C43,8.1,43.5,8.4,44,8.4L44,8.4z"/>
		<path id="Trazado_102885" d="M4.1,15.3c0.5,0,0.9,0.1,1.3,0.3c0.4,0.2,0.7,0.5,0.9,0.9c0.2,0.4,0.3,0.8,0.3,1.3
			c0,0.7-0.2,1.3-0.7,1.8c-0.5,0.5-1.1,0.8-1.8,0.8H2.1v3.2H1v-8.3L4.1,15.3z M4,19.5c0.4,0,0.9-0.1,1.2-0.4c0.6-0.7,0.6-1.7,0-2.4
			c-0.3-0.3-0.7-0.5-1.2-0.5H2.1v3.3H4z"/>
		<path id="Trazado_102886" d="M12.8,20.6v0.3H8.2c0,0.6,0.2,1.1,0.6,1.5c0.4,0.3,0.8,0.5,1.3,0.5c0.3,0,0.7-0.1,1-0.3
			c0.3-0.2,0.5-0.4,0.7-0.8l0.9,0.2c-0.2,0.5-0.5,0.9-1,1.2c-0.4,0.3-1,0.5-1.5,0.5c-0.8,0-1.5-0.3-2.1-0.8c-1.1-1.3-1.1-3.1,0-4.4
			c0.5-0.5,1.3-0.8,2.1-0.8c0.7,0,1.4,0.2,2,0.8C12.6,19.1,12.8,19.8,12.8,20.6z M10.1,18.5c-0.4,0-0.9,0.1-1.2,0.4
			c-0.3,0.3-0.6,0.7-0.6,1.2h3.5c0-0.5-0.2-0.9-0.5-1.2C10.9,18.6,10.5,18.5,10.1,18.5L10.1,18.5z"/>
		<path id="Trazado_102887" d="M16.2,23.7c-0.6,0-1.1-0.1-1.6-0.4c-0.4-0.3-0.7-0.7-0.8-1.2l0.9-0.3c0,0.3,0.2,0.6,0.5,0.8
			c0.3,0.2,0.6,0.3,1,0.3c0.2,0,0.4,0,0.6-0.1c0.2-0.1,0.3-0.2,0.4-0.3c0.1-0.1,0.2-0.3,0.2-0.5c0-0.1,0-0.2,0-0.2
			c0-0.1-0.1-0.1-0.1-0.2c0-0.1-0.1-0.1-0.2-0.2l-0.2-0.1l-0.3-0.1l-0.3-0.1L16,21.1L15.6,21c-0.2-0.1-0.4-0.1-0.6-0.2
			c-0.2-0.1-0.3-0.2-0.5-0.3c-0.2-0.1-0.3-0.3-0.4-0.5c-0.1-0.2-0.1-0.4-0.1-0.7c0-0.3,0.1-0.7,0.3-0.9c0.2-0.3,0.5-0.4,0.8-0.6
			c0.3-0.1,0.7-0.2,1-0.2c0.5,0,1,0.1,1.4,0.4c0.4,0.3,0.6,0.7,0.7,1.1l-0.8,0.2c0-0.3-0.2-0.6-0.4-0.8c-0.2-0.2-0.5-0.3-0.8-0.2
			c-0.3,0-0.5,0.1-0.8,0.2C15.1,18.8,15,19,15,19.3c0,0.1,0,0.2,0.1,0.3c0,0.1,0.1,0.2,0.2,0.2c0.1,0.1,0.2,0.1,0.3,0.2l0.3,0.1
			l0.4,0.1h0.1c0.2,0.1,0.4,0.1,0.6,0.2c0.2,0.1,0.3,0.1,0.5,0.2c0.2,0.1,0.3,0.2,0.5,0.3c0.1,0.1,0.2,0.3,0.3,0.5
			c0.1,0.2,0.1,0.4,0.1,0.6c0,0.3-0.1,0.5-0.2,0.8c-0.1,0.2-0.3,0.4-0.5,0.5c-0.2,0.1-0.4,0.2-0.7,0.3
			C16.8,23.7,16.5,23.7,16.2,23.7z"/>
		<path id="Trazado_102888" d="M21.3,23.7c-0.5,0-0.9-0.1-1.3-0.4c-0.3-0.3-0.5-0.7-0.5-1.2c0-0.3,0-0.5,0.2-0.8
			c0.1-0.2,0.3-0.4,0.5-0.5c0.2-0.1,0.4-0.3,0.7-0.3c0.3-0.1,0.6-0.2,0.9-0.2l0.9-0.2c0.3-0.1,0.5-0.2,0.5-0.5
			c0-0.3-0.1-0.7-0.4-0.9c-0.6-0.4-1.3-0.4-1.8,0c-0.3,0.2-0.4,0.5-0.4,0.8l-0.9-0.2c0.1-0.5,0.3-1,0.8-1.2c0.5-0.3,1-0.4,1.6-0.4
			c0.3,0,0.6,0,0.8,0.1c0.3,0.1,0.5,0.2,0.7,0.3c0.2,0.2,0.4,0.4,0.5,0.6c0.1,0.3,0.2,0.6,0.2,1v2.4c0,0.2,0,0.4,0.1,0.6
			c0.1,0.1,0.3,0.2,0.5,0.2h0.1v0.8h-0.5c-0.5,0.1-1-0.2-1.1-0.8h0C22.8,23.5,22.1,23.8,21.3,23.7L21.3,23.7z M21.5,22.9
			c0.5,0,0.9-0.2,1.2-0.6c0.3-0.4,0.5-1,0.5-1.5l-1.5,0.3c-0.3,0-0.6,0.1-0.9,0.3c-0.4,0.3-0.4,0.8-0.1,1.2c0,0,0,0.1,0.1,0.1
			C21.1,22.9,21.3,22.9,21.5,22.9L21.5,22.9z"/>
		<path id="Trazado_102889" d="M30.5,14.5h1v9.1h-1v-1.1c-0.2,0.4-0.5,0.7-0.8,0.9c-0.4,0.2-0.8,0.3-1.2,0.3c-0.4,0-0.7-0.1-1.1-0.2
			c-0.3-0.1-0.6-0.3-0.9-0.6c-0.3-0.3-0.5-0.6-0.6-1c-0.2-0.4-0.2-0.8-0.2-1.2c0-0.8,0.2-1.6,0.8-2.2c0.5-0.5,1.2-0.9,1.9-0.8
			c0.4,0,0.9,0.1,1.2,0.3c0.4,0.2,0.6,0.5,0.8,0.9L30.5,14.5z M28.7,22.9c0.5,0,1-0.2,1.4-0.6c0.7-0.9,0.7-2.1,0-3
			c-0.7-0.8-1.8-0.8-2.6-0.2c0,0-0.1,0.1-0.1,0.1c-0.4,0.4-0.6,1-0.6,1.6c0,0.6,0.2,1.1,0.6,1.5C27.6,22.7,28.1,22.9,28.7,22.9
			L28.7,22.9z"/>
		<path id="Trazado_102890" d="M36,23.7c-0.5,0-1.1-0.1-1.5-0.4c-0.4-0.2-0.8-0.6-1-1.1c-0.3-0.5-0.4-1-0.4-1.6
			c0-0.8,0.3-1.6,0.8-2.2c1.2-1.1,3-1.1,4.2,0c1.1,1.3,1.1,3.1,0,4.4C37.6,23.5,36.8,23.8,36,23.7z M36,22.9c0.5,0,1-0.2,1.4-0.6
			c0.4-0.4,0.6-1,0.5-1.6c0-0.6-0.2-1.1-0.5-1.6c-0.3-0.4-0.9-0.6-1.4-0.6c-0.5,0-1,0.2-1.4,0.6c-0.7,0.9-0.7,2.2,0,3.1
			C35,22.7,35.5,22.9,36,22.9L36,22.9z"/>
		<path id="Trazado_102891" d="M6.3,38.2l-0.7-2H1.8l-0.7,2H0l3.1-8.3h1.3l3.1,8.3L6.3,38.2z M2.2,35.2h3.1l-1.6-4.4L2.2,35.2z"/>
		<path id="Trazado_102892" d="M11.6,32.2c0.5,0,1.1,0.2,1.5,0.5c0.4,0.4,0.6,1,0.5,1.5v3.9h-1v-3.7c0-0.4-0.1-0.8-0.4-1
			c-0.2-0.2-0.6-0.4-0.9-0.3c-0.4,0-0.8,0.1-1,0.4c-0.3,0.3-0.4,0.8-0.4,1.2v3.5h-1v-5.8h1v0.8C10.3,32.6,10.9,32.2,11.6,32.2z"/>
		<path id="Trazado_102893" d="M17.4,38.2c-0.4,0-0.8-0.1-1.1-0.4c-0.3-0.3-0.4-0.7-0.4-1.2v-3.4h-1.2v-0.8h0.4c0.2,0,0.5,0,0.6-0.2
			c0.1-0.2,0.2-0.4,0.2-0.7v-1.1h0.9v1.9h1.3v0.8h-1.3v3.3c0,0.2,0.1,0.5,0.2,0.6c0.2,0.2,0.4,0.2,0.6,0.2h0.5v0.8L17.4,38.2z"/>
		<path id="Trazado_102894" d="M20.2,31c-0.2,0-0.4-0.1-0.5-0.2c-0.1-0.1-0.2-0.3-0.2-0.5c0-0.2,0.1-0.4,0.2-0.5
			c0.1-0.1,0.3-0.2,0.5-0.2c0.2,0,0.4,0.1,0.5,0.2c0.1,0.1,0.2,0.3,0.2,0.5C20.9,30.7,20.6,31,20.2,31L20.2,31z M19.7,38.2v-5.8h1
			v5.8H19.7z"/>
		<path id="Trazado_102895" d="M25.2,38.3c-0.8,0-1.5-0.3-2.1-0.8c-0.6-0.6-0.9-1.4-0.8-2.2c0-0.8,0.3-1.6,0.8-2.2
			c0.5-0.6,1.3-0.9,2.1-0.8c0.6,0,1.2,0.2,1.7,0.5c0.5,0.3,0.8,0.8,1,1.4l-1,0.2c-0.2-0.7-0.9-1.2-1.7-1.2c-0.5,0-1,0.2-1.3,0.6
			c-0.7,0.9-0.7,2.2,0,3.1c0.3,0.4,0.8,0.6,1.3,0.6c0.8,0,1.5-0.5,1.7-1.2l1,0.2c-0.2,0.6-0.5,1.1-1,1.4
			C26.4,38.1,25.8,38.3,25.2,38.3z"/>
		<path id="Trazado_102896" d="M33,32.4h1v5.8h-1v-0.8c-0.2,0.3-0.4,0.5-0.7,0.7c-0.3,0.2-0.7,0.2-1,0.2c-0.5,0-1.1-0.2-1.5-0.5
			c-0.4-0.4-0.6-1-0.5-1.5v-3.9h1V36c0,0.4,0.1,0.8,0.4,1c0.2,0.2,0.6,0.4,0.9,0.3c0.4,0,0.8-0.1,1-0.4c0.3-0.3,0.4-0.8,0.4-1.2
			L33,32.4z"/>
		<path id="Trazado_102897" d="M37.5,38.3c-0.5,0-0.9-0.1-1.3-0.4c-0.3-0.3-0.5-0.7-0.5-1.2c0-0.3,0-0.5,0.2-0.8
			c0.1-0.2,0.3-0.4,0.5-0.5c0.2-0.1,0.4-0.3,0.7-0.3c0.3-0.1,0.6-0.2,0.9-0.2l0.9-0.2c0.3-0.1,0.5-0.2,0.5-0.5
			c0-0.3-0.1-0.7-0.4-0.9c-0.3-0.2-0.6-0.3-0.9-0.3c-0.3,0-0.6,0.1-0.9,0.3c-0.3,0.2-0.4,0.5-0.4,0.8l-0.9-0.2
			c0.1-0.5,0.3-1,0.8-1.2c0.5-0.3,1-0.4,1.6-0.4c0.3,0,0.6,0,0.8,0.1c0.3,0.1,0.5,0.2,0.7,0.3c0.2,0.2,0.4,0.4,0.5,0.6
			c0.1,0.3,0.2,0.6,0.2,1v2.4c0,0.2,0,0.4,0.1,0.6c0.1,0.1,0.3,0.2,0.5,0.2h0.1v0.8h-0.5c-0.5,0.1-1-0.3-1.1-0.8h0
			C38.9,38,38.2,38.3,37.5,38.3z M37.7,37.5c0.5,0,0.9-0.2,1.2-0.6c0.3-0.4,0.5-1,0.5-1.5l-1.5,0.3c-0.3,0-0.6,0.1-0.9,0.3
			c-0.4,0.3-0.4,0.8-0.1,1.2c0,0,0,0.1,0.1,0.1C37.2,37.4,37.5,37.5,37.7,37.5L37.7,37.5z"/>
		<path id="Trazado_102898" d="M46.7,29.1h1v9.1h-1V37c-0.2,0.4-0.5,0.7-0.8,0.9c-0.4,0.2-0.8,0.3-1.2,0.3c-0.4,0-0.7-0.1-1.1-0.2
			c-0.3-0.1-0.6-0.3-0.9-0.6c-0.3-0.3-0.5-0.6-0.6-1C42,36.1,42,35.7,42,35.3c0-0.8,0.2-1.6,0.8-2.2c0.5-0.5,1.2-0.9,1.9-0.8
			c0.4,0,0.8,0.1,1.2,0.3c0.4,0.2,0.6,0.5,0.8,0.9L46.7,29.1z M44.8,37.4c0.5,0,1-0.2,1.3-0.6c0.7-0.9,0.7-2.1,0-3
			c-0.3-0.4-0.8-0.6-1.3-0.6c-0.5,0-1,0.2-1.4,0.6c-0.7,0.9-0.7,2.2,0,3.1C43.8,37.2,44.3,37.4,44.8,37.4L44.8,37.4z"/>
		<path id="Trazado_102899" d="M52.2,38.3c-0.5,0-1.1-0.1-1.5-0.4c-0.4-0.2-0.8-0.6-1.1-1.1c-0.3-0.5-0.4-1-0.4-1.6
			c0-0.8,0.3-1.6,0.8-2.2c0.6-0.6,1.3-0.8,2.1-0.8c0.8,0,1.6,0.3,2.1,0.8c1.1,1.3,1.1,3.1,0,4.4C53.7,38,53,38.3,52.2,38.3
			L52.2,38.3z M52.2,37.4c0.5,0,1-0.2,1.4-0.6c0.4-0.4,0.6-1,0.6-1.6c0-0.6-0.2-1.1-0.6-1.6c-0.3-0.4-0.8-0.6-1.4-0.6
			c-0.5,0-1,0.2-1.4,0.6c-0.4,0.4-0.6,1-0.5,1.6c0,0.6,0.2,1.1,0.5,1.6C51.2,37.2,51.7,37.4,52.2,37.4z"/>
		<path id="Trazado_102900" d="M3.6,52.8c-0.8,0-1.5-0.2-2.2-0.6c-0.6-0.4-1-0.9-1.1-1.6l1.1-0.3c0.1,0.5,0.4,0.9,0.8,1.1
			c0.4,0.3,1,0.4,1.5,0.4c0.2,0,0.4,0,0.5-0.1c0.2,0,0.3-0.1,0.5-0.2c0.2-0.1,0.3-0.2,0.4-0.3c0.1-0.1,0.2-0.3,0.3-0.4
			c0.1-0.2,0.1-0.4,0.1-0.6c0-0.1,0-0.3-0.1-0.4c0-0.1-0.1-0.2-0.2-0.3c-0.1-0.1-0.2-0.2-0.3-0.2c-0.2-0.2-0.5-0.3-0.8-0.4L3.7,49
			l-0.5-0.1H3.1l-0.6-0.2l-0.5-0.2c-0.2-0.1-0.3-0.1-0.5-0.2c-0.1-0.1-0.3-0.2-0.4-0.3c-0.1-0.1-0.2-0.2-0.3-0.4
			c-0.2-0.3-0.3-0.7-0.3-1.1c0-0.5,0.1-0.9,0.4-1.3c0.3-0.3,0.6-0.6,1-0.8c0.4-0.2,0.9-0.3,1.4-0.2c0.7,0,1.4,0.2,2,0.5
			c0.6,0.3,0.9,0.9,1.1,1.5l-1,0.3c-0.1-0.4-0.3-0.8-0.7-1c-0.4-0.2-0.8-0.4-1.3-0.3c-0.2,0-0.4,0-0.6,0.1c-0.2,0-0.4,0.1-0.6,0.2
			C2,45.7,1.9,45.8,1.8,46c-0.1,0.2-0.1,0.4-0.1,0.6c0,0.1,0,0.2,0.1,0.4c0,0.1,0.1,0.2,0.1,0.3c0.1,0.1,0.2,0.2,0.3,0.2
			c0.1,0.1,0.2,0.1,0.3,0.2c0.1,0.1,0.3,0.1,0.4,0.1L3.2,48l0.5,0.1c0.5,0.1,1.1,0.3,1.6,0.5c0.6,0.3,1.1,0.8,1.2,1.5
			c0,0.1,0,0.2,0,0.4c0,0.4-0.1,0.7-0.2,1.1c-0.2,0.3-0.4,0.6-0.7,0.8c-0.3,0.2-0.6,0.3-0.9,0.4C4.3,52.8,3.9,52.9,3.6,52.8z"/>
		<path id="Trazado_102901" d="M11.9,46.9h1v5.8h-1V52c-0.2,0.3-0.4,0.5-0.7,0.7c-0.3,0.2-0.7,0.2-1,0.2c-0.5,0-1.1-0.2-1.5-0.5
			c-0.4-0.4-0.6-1-0.5-1.5v-3.9h1v3.7c0,0.4,0.1,0.8,0.4,1c0.2,0.2,0.6,0.4,0.9,0.3c0.4,0,0.8-0.1,1-0.4c0.3-0.3,0.4-0.8,0.4-1.2
			L11.9,46.9z"/>
		<path id="Trazado_102902" d="M17.4,52.8c-0.8,0-1.5-0.3-2.1-0.8c-1.1-1.2-1.1-3.1,0-4.4c1-1,2.6-1.1,3.8-0.3
			c0.5,0.3,0.8,0.8,1,1.4l-1,0.2c-0.2-0.7-0.9-1.2-1.7-1.2c-0.5,0-1,0.2-1.3,0.6c-0.7,0.9-0.7,2.2,0,3.1c0.3,0.4,0.8,0.6,1.3,0.6
			c0.8,0,1.5-0.5,1.7-1.2l1,0.2c-0.2,0.6-0.5,1.1-1,1.4C18.6,52.7,18,52.9,17.4,52.8L17.4,52.8z"/>
		<path id="Trazado_102903" d="M22.1,45.5c-0.2,0-0.4-0.1-0.5-0.2c-0.1-0.1-0.2-0.3-0.2-0.5c0-0.2,0.1-0.4,0.2-0.5
			c0.3-0.3,0.7-0.3,1,0c0.1,0.1,0.2,0.3,0.2,0.5c0,0.2-0.1,0.4-0.2,0.5C22.4,45.5,22.2,45.5,22.1,45.5L22.1,45.5z M21.5,52.7v-5.8h1
			v5.8H21.5z"/>
		<path id="Trazado_102904" d="M27.1,52.8c-0.5,0-1.1-0.1-1.5-0.4c-0.4-0.2-0.8-0.6-1.1-1.1c-0.3-0.5-0.4-1-0.4-1.6
			c0-0.8,0.3-1.6,0.8-2.2c1.2-1.1,3-1.1,4.2,0c1.1,1.3,1.1,3.1,0,4.4C28.6,52.6,27.9,52.9,27.1,52.8z M27.1,52c0.5,0,1-0.2,1.4-0.6
			c0.4-0.4,0.6-1,0.5-1.6c0-0.6-0.2-1.1-0.5-1.6c-0.3-0.4-0.9-0.6-1.4-0.6c-0.5,0-1,0.2-1.4,0.6c-0.7,0.9-0.7,2.2,0,3.1
			C26.1,51.8,26.6,52,27.1,52L27.1,52z"/>
		<path id="Trazado_102905" d="M5.3,58.9v1H3.2v7.4H2.1v-7.3H0v-1H5.3z"/>
		<path id="Trazado_102906" d="M7,62.5c0.2-0.3,0.4-0.6,0.8-0.8c0.3-0.2,0.7-0.3,1.1-0.3v1c-0.5,0-1,0.1-1.3,0.4
			C7.2,63.2,7,63.7,7,64.2v3.1H6v-5.8h1L7,62.5z"/>
		<path id="Trazado_102907" d="M10.5,60.1c-0.4,0-0.7-0.3-0.7-0.7c0,0,0,0,0,0c0-0.2,0.1-0.4,0.2-0.5c0.1-0.1,0.3-0.2,0.5-0.2
			c0.2,0,0.4,0.1,0.5,0.2c0.1,0.1,0.2,0.3,0.2,0.5c0,0.2-0.1,0.4-0.2,0.5C10.9,60,10.7,60.1,10.5,60.1L10.5,60.1z M10,67.2v-5.8h1
			v5.8L10,67.2z"/>
		<path id="Trazado_102908" d="M15,67.4c-0.6,0-1.1-0.1-1.6-0.4c-0.4-0.3-0.7-0.7-0.8-1.2l0.9-0.3c0,0.3,0.2,0.6,0.5,0.8
			c0.3,0.2,0.6,0.3,1,0.3c0.2,0,0.4,0,0.6-0.1c0.2-0.1,0.3-0.2,0.4-0.3c0.1-0.1,0.2-0.3,0.2-0.5c0-0.1,0-0.2,0-0.2
			c0-0.1-0.1-0.1-0.1-0.2c0-0.1-0.1-0.1-0.2-0.2c-0.1,0-0.1-0.1-0.2-0.1l-0.3-0.1l-0.3-0.1l-0.3-0.1l-0.3-0.1
			c-0.2-0.1-0.4-0.1-0.6-0.2c-0.2-0.1-0.3-0.2-0.5-0.3c-0.2-0.1-0.3-0.3-0.4-0.5c-0.1-0.2-0.1-0.4-0.1-0.7c0-0.3,0.1-0.7,0.3-0.9
			c0.2-0.3,0.5-0.4,0.8-0.5c0.3-0.1,0.7-0.2,1-0.2c0.5,0,1,0.1,1.4,0.4c0.4,0.3,0.6,0.7,0.7,1.1l-0.8,0.2c0-0.3-0.2-0.6-0.4-0.8
			c-0.2-0.2-0.5-0.3-0.8-0.2c-0.3,0-0.5,0.1-0.8,0.2c-0.2,0.1-0.3,0.4-0.3,0.6c0,0.1,0,0.2,0.1,0.3c0,0.1,0.1,0.2,0.2,0.2
			c0.1,0.1,0.2,0.1,0.3,0.2c0.1,0,0.2,0.1,0.3,0.1l0.4,0.1h0.1l0.6,0.2c0.2,0.1,0.3,0.1,0.5,0.2c0.2,0.1,0.3,0.2,0.4,0.3
			c0.1,0.1,0.2,0.3,0.3,0.4c0.1,0.2,0.1,0.4,0.1,0.6c0,0.3-0.1,0.5-0.2,0.8c-0.1,0.2-0.3,0.4-0.5,0.5c-0.2,0.1-0.4,0.2-0.7,0.3
			C15.5,67.3,15.3,67.3,15,67.4z"/>
		<path id="Trazado_102909" d="M20.6,67.2c-0.4,0-0.8-0.1-1.1-0.4c-0.3-0.3-0.4-0.7-0.4-1.2v-3.4h-1.2v-0.8h0.4c0.2,0,0.5,0,0.6-0.2
			c0.1-0.2,0.2-0.4,0.2-0.7v-1.1h1v1.9h1.3v0.8h-1.3v3.3c0,0.2,0.1,0.5,0.2,0.6c0.2,0.2,0.4,0.2,0.6,0.2h0.5v0.8L20.6,67.2z"/>
		<path id="Trazado_102910" d="M27.9,64.2v0.3h-4.5c0,0.6,0.2,1.1,0.6,1.5c0.4,0.3,0.8,0.5,1.3,0.5c0.3,0,0.7-0.1,1-0.3
			c0.3-0.2,0.5-0.4,0.7-0.8l0.9,0.2c-0.2,0.5-0.5,0.9-1,1.2c-0.4,0.3-1,0.5-1.5,0.5c-0.8,0-1.5-0.3-2.1-0.8c-1.1-1.3-1.1-3.1,0-4.4
			c0.5-0.5,1.3-0.8,2.1-0.8c0.7,0,1.4,0.2,2,0.8C27.7,62.7,27.9,63.4,27.9,64.2z M25.2,62.1c-0.4,0-0.9,0.1-1.2,0.4
			c-0.3,0.3-0.6,0.7-0.6,1.2h3.5c0-0.5-0.2-0.9-0.5-1.2C26,62.2,25.6,62.1,25.2,62.1L25.2,62.1z"/>
	</g>
	<g id="Grupo_57729" transform="translate(328.127 88.287)">
		<path id="Trazado_102911" d="M5.8,0.4h1.8V9H5.6L1.8,2.8V9H0V0.4h2.1l3.8,6.1L5.8,0.4z"/>
		<path id="Trazado_102912" d="M15.3,5.8v0.4h-4.5c0,0.4,0.2,0.8,0.5,1.1c0.5,0.4,1.3,0.5,1.9,0.2c0.2-0.1,0.4-0.4,0.5-0.6l1.6,0.2
			c-0.2,0.6-0.6,1.1-1.1,1.4c-0.5,0.3-1.2,0.5-1.8,0.5c-0.9,0-1.7-0.3-2.4-0.8C9.3,7.6,9,6.8,9.1,5.9C9,5,9.4,4.2,10,3.6
			c0.6-0.6,1.5-0.9,2.3-0.8c1.5-0.1,2.9,1,3,2.5C15.3,5.4,15.3,5.6,15.3,5.8L15.3,5.8z M12.3,3.9c-0.7-0.1-1.4,0.4-1.5,1.2h2.8
			c0-0.3-0.2-0.6-0.4-0.9C12.9,4,12.6,3.9,12.3,3.9L12.3,3.9z"/>
		<path id="Trazado_102913" d="M20.8,2.9h1.6v5.6c0,0.5-0.1,1-0.2,1.5c-0.1,0.4-0.4,0.8-0.7,1c-0.3,0.3-0.6,0.5-1,0.6
			c-0.4,0.1-0.9,0.2-1.3,0.2c-1.4,0.2-2.6-0.6-3.1-1.9l1.4-0.6c0.1,0.3,0.4,0.7,0.7,0.9c0.3,0.2,0.6,0.3,1,0.3
			c1.1,0,1.6-0.6,1.6-1.9V7.9c-0.2,0.3-0.5,0.5-0.8,0.6c-0.3,0.2-0.7,0.2-1.1,0.2c-0.4,0-0.7-0.1-1.1-0.2c-0.3-0.1-0.6-0.3-0.9-0.6
			c-0.3-0.3-0.5-0.6-0.6-1c-0.3-0.8-0.3-1.7,0-2.5c0.1-0.4,0.3-0.7,0.6-0.9c0.3-0.3,0.6-0.5,0.9-0.6c0.3-0.1,0.7-0.2,1.1-0.2
			c0.4,0,0.8,0.1,1.1,0.3c0.3,0.1,0.6,0.4,0.8,0.7L20.8,2.9z M18.2,6.9c0.3,0.3,0.7,0.5,1.1,0.5c0.4,0,0.8-0.2,1.1-0.5
			c0.6-0.7,0.6-1.7,0-2.3c-0.6-0.6-1.6-0.6-2.2,0c0,0,0,0,0,0c-0.3,0.3-0.5,0.7-0.4,1.2C17.7,6.2,17.9,6.6,18.2,6.9z"/>
		<path id="Trazado_102914" d="M29.2,7.3c0,0.5,0,1,0.1,1.5V9h-1.6l-0.1-0.7c-0.2,0.3-0.5,0.5-0.8,0.6C26.4,9,26,9.1,25.6,9.1
			c-0.2,0-0.4,0-0.6-0.1c-0.2,0-0.3-0.1-0.5-0.2c-0.2-0.1-0.3-0.2-0.4-0.3c-0.1-0.1-0.2-0.3-0.3-0.5c-0.1-0.2-0.1-0.4-0.1-0.7
			c0-0.2,0-0.4,0.1-0.7c0.1-0.2,0.2-0.3,0.3-0.5c0.1-0.1,0.3-0.3,0.5-0.4c0.2-0.1,0.4-0.2,0.6-0.3c0.2-0.1,0.5-0.1,0.8-0.2l1-0.2
			c0.2,0,0.3-0.1,0.4-0.2c0.1-0.1,0.1-0.2,0.1-0.3c0-0.2-0.1-0.5-0.3-0.6C27,4,26.8,4,26.5,4c-0.6-0.1-1.1,0.3-1.2,0.9c0,0,0,0,0,0
			l-1.5-0.3c0.1-0.6,0.4-1.1,0.9-1.4c0.6-0.3,1.2-0.5,1.9-0.4c1.7,0,2.6,0.7,2.6,2.2L29.2,7.3z M26.1,7.9c0.4,0,0.8-0.1,1.1-0.4
			c0.3-0.4,0.4-0.8,0.4-1.3l-1.4,0.4c-0.2,0-0.4,0.1-0.6,0.2c-0.1,0.1-0.2,0.3-0.2,0.4c0,0.2,0.1,0.4,0.2,0.5
			C25.7,7.9,26,7.9,26.1,7.9L26.1,7.9z"/>
		<path id="Trazado_102915" d="M33,9c-0.5,0-1-0.1-1.4-0.5c-0.3-0.4-0.5-0.9-0.5-1.4V4.2H30V2.9h0.4c0.3,0,0.6-0.1,0.8-0.3
			c0.2-0.3,0.3-0.6,0.2-0.9V0.9h1.5v2h1.2v1.3h-1.2v2.7c0,0.5,0.2,0.8,0.7,0.8h0.5v1.3L33,9z"/>
		<path id="Trazado_102916" d="M36.3,2c-0.3,0-0.5-0.1-0.7-0.3c-0.2-0.2-0.3-0.4-0.3-0.7c0-0.3,0.1-0.5,0.3-0.7c0.4-0.4,1-0.4,1.4,0
			s0.4,1,0,1.4C36.8,1.9,36.6,2,36.3,2z M35.5,9V2.9h1.7V9H35.5z"/>
		<path id="Trazado_102917" d="M42.9,2.9h1.8l-2.6,6.1h-1.5L38,2.9h1.8L41.3,7L42.9,2.9z"/>
		<path id="Trazado_102918" d="M48.2,9.1c-0.6,0-1.2-0.1-1.7-0.4c-0.5-0.2-0.9-0.6-1.2-1.1c-0.3-0.5-0.4-1.1-0.4-1.7
			c0-0.9,0.3-1.7,0.9-2.3c1.4-1.1,3.4-1.1,4.8,0c1.2,1.3,1.2,3.3,0,4.6C49.9,8.8,49.1,9.1,48.2,9.1L48.2,9.1z M48.2,7.7
			c0.5,0,0.9-0.2,1.2-0.5c0.3-0.4,0.5-0.8,0.5-1.3c0-0.5-0.1-1-0.5-1.3c-0.3-0.3-0.7-0.5-1.2-0.5c-0.4,0-0.9,0.2-1.2,0.5
			c-0.6,0.8-0.6,1.8,0,2.6C47.3,7.5,47.7,7.7,48.2,7.7L48.2,7.7z"/>
	</g>
</g>
<polygon points="253,145.4 254.5,143.5 255,143.9 253.7,145.4 "/>
</svg>
