<?xml version="1.0" encoding="utf-8"?>
<!-- Generator: Adobe Illustrator 26.0.1, SVG Export Plug-In . SVG Version: 6.00 Build 0)  -->
<svg version="1.1" id="Capa_1" xmlns="http://www.w3.org/2000/svg" xmlns:xlink="http://www.w3.org/1999/xlink" x="0px" y="0px"
	 viewBox="0 0 426.8 227.5" style="enable-background:new 0 0 426.8 227.5;" xml:space="preserve">
<style type="text/css">
	.st0{fill:#8CC63F;}
	.st1{fill:#F2F2F2;}
	.st2{opacity:0.75;}
	.st3{opacity:0.5;}
	.st4{opacity:0.25;}
</style>
<g id="info_1_4-07" transform="translate(0)">
	<rect id="Rectángulo_5405" class="st0" width="213.4" height="173"/>
	<rect id="Rectángulo_5406" x="213.4" class="st1" width="213.4" height="227.5"/>
	<rect id="Rectángulo_5407" y="173" class="st0" width="53.3" height="54.5"/>
	<g id="Grupo_57714" transform="translate(53.345 173)" class="st2">
		<rect id="Rectángulo_5408" x="0" class="st0" width="53.3" height="54.5"/>
	</g>
	<g id="Grupo_57715" transform="translate(106.697 173)" class="st3">
		<rect id="Rectángulo_5409" x="0" class="st0" width="53.3" height="54.5"/>
	</g>
	<g id="Grupo_57716" transform="translate(160.042 173)" class="st4">
		<rect id="Rectángulo_5410" x="0" class="st0" width="53.3" height="54.5"/>
	</g>
	<g id="Grupo_57717" transform="translate(238.386 40.819)">
		<path id="Trazado_102713" d="M15.1,1.3h4.5l-7.5,20.3H7.5L0,1.3h4.5l5.3,15.4L15.1,1.3z"/>
		<path id="Trazado_102714" d="M34.2,14.2v1H23.5c0,1,0.4,1.9,1.2,2.6c0.7,0.6,1.6,0.9,2.5,0.9c0.7,0,1.3-0.2,1.9-0.5
			c0.5-0.3,1-0.9,1.2-1.5l3.7,0.6c-0.4,1.4-1.3,2.6-2.5,3.4c-1.3,0.8-2.8,1.2-4.3,1.2c-2.1,0.1-4.1-0.6-5.6-2
			c-1.4-1.5-2.2-3.5-2.1-5.5c-0.1-2.1,0.7-4.1,2.1-5.5c1.5-1.4,3.5-2.1,5.5-2c3.6-0.3,6.8,2.3,7.1,6C34.3,13.2,34.3,13.7,34.2,14.2
			L34.2,14.2z M27.1,9.7c-1.7-0.2-3.3,1.1-3.5,2.8h6.6c0-0.8-0.4-1.5-1-2.1C28.7,9.9,27.9,9.7,27.1,9.7L27.1,9.7z"/>
		<path id="Trazado_102715" d="M41.2,9.4c0.5-0.7,1.1-1.3,1.9-1.7C44,7.2,45,6.9,45.9,6.9v3.6c-1.2-0.1-2.4,0.2-3.5,0.9
			c-0.8,0.8-1.2,2-1.1,3.1v7.1h-4.1V7.1h3.9L41.2,9.4z"/>
		<path id="Trazado_102716" d="M58.5,0h4v21.6h-3.8l-0.1-1.9c-0.4,0.7-1.1,1.3-1.8,1.6c-0.8,0.4-1.8,0.6-2.7,0.6
			c-0.9,0-1.8-0.2-2.7-0.5c-1.7-0.7-3.1-2.1-3.7-3.8c-0.4-1-0.5-2.1-0.5-3.2c0-1.4,0.3-2.8,1-4c0.6-1.1,1.4-2,2.5-2.6
			c1.1-0.6,2.3-0.9,3.5-0.9c0.9,0,1.8,0.2,2.6,0.5c0.7,0.3,1.4,0.8,1.8,1.5L58.5,0z M55,18.6c1,0,2-0.4,2.7-1.2
			c1.5-1.8,1.5-4.3,0-6.1C57,10.6,56,10.2,55,10.2c-1,0-2,0.4-2.7,1.1c-1.4,1.8-1.4,4.3,0,6.1C52.9,18.2,53.9,18.6,55,18.6L55,18.6z
			"/>
		<path id="Trazado_102717" d="M80.3,14.2l0,1H69.6c0,1,0.4,2,1.2,2.6c0.7,0.6,1.6,0.9,2.5,0.9c0.7,0,1.3-0.2,1.9-0.5
			c0.6-0.3,1-0.8,1.2-1.4l3.7,0.6c-0.4,1.4-1.3,2.6-2.5,3.4c-1.3,0.8-2.8,1.2-4.3,1.2c-2.1,0.1-4.1-0.6-5.6-2
			c-1.4-1.5-2.2-3.5-2.1-5.5c-0.1-2,0.7-4.1,2.1-5.5c1.5-1.4,3.5-2.1,5.5-2c1.9-0.1,3.8,0.6,5.2,1.8C79.7,10.1,80.5,12.1,80.3,14.2z
			 M73.2,9.7c-1.7-0.2-3.3,1.1-3.5,2.8h6.6c0-0.8-0.4-1.5-1-2.1C74.7,9.9,74,9.7,73.2,9.7L73.2,9.7z"/>
	</g>
	<g id="Grupo_57718" transform="translate(241.665 114.294)">
		<path id="Trazado_102718" d="M6.3,8.6l-0.7-2H1.8l-0.7,2H0l3.1-8.3h1.3l3.1,8.3H6.3z M2.2,5.6h3.1L3.7,1.3L2.2,5.6z"/>
		<path id="Trazado_102719" d="M9.8,3.8C10,3.4,10.3,3.2,10.6,3c0.3-0.2,0.7-0.3,1.1-0.3v1c-0.5,0-1,0.1-1.3,0.4
			C10,4.5,9.8,5,9.9,5.5v3.1h-1V2.8h1L9.8,3.8z"/>
		<path id="Trazado_102720" d="M18.9,2.6c0.5,0,1,0.2,1.4,0.5c0.4,0.4,0.5,0.9,0.5,1.4v4h-1V4.8c0-0.4-0.1-0.7-0.3-1
			c-0.2-0.2-0.5-0.3-0.8-0.3c-0.3,0-0.7,0.1-0.9,0.4c-0.2,0.3-0.4,0.7-0.3,1.1v3.6h-1V4.8c0-0.4-0.1-0.7-0.3-1
			c-0.2-0.2-0.5-0.3-0.8-0.3c-0.3,0-0.7,0.1-0.9,0.4C14,4.2,13.9,4.6,13.9,5v3.6h-1.1V2.7h1v0.8c0.2-0.3,0.4-0.5,0.7-0.6
			c0.3-0.2,0.6-0.2,0.9-0.2c0.3,0,0.7,0.1,1,0.2C16.8,3,17,3.3,17.1,3.6c0.2-0.3,0.4-0.5,0.7-0.7C18.1,2.7,18.5,2.6,18.9,2.6z"/>
		<path id="Trazado_102721" d="M25.1,8.7c-0.5,0-1.1-0.1-1.5-0.4c-0.4-0.2-0.8-0.6-1-1.1c-0.3-0.5-0.4-1-0.4-1.6
			c0-0.8,0.3-1.6,0.8-2.2c1.2-1.1,3-1.1,4.2,0c1.1,1.3,1.1,3.1,0,4.4C26.6,8.4,25.9,8.7,25.1,8.7z M25.1,7.8c0.5,0,1-0.2,1.4-0.6
			c0.4-0.4,0.6-1,0.5-1.6c0-0.6-0.2-1.1-0.5-1.6c-0.3-0.4-0.9-0.6-1.4-0.6c-0.5,0-1,0.2-1.4,0.6C23,5,23,6.3,23.8,7.2
			C24.1,7.6,24.6,7.8,25.1,7.8L25.1,7.8z"/>
		<path id="Trazado_102722" d="M32.4,2.6c0.5,0,1.1,0.2,1.5,0.5c0.4,0.4,0.6,1,0.6,1.5v3.9h-1V4.9c0-0.4-0.1-0.8-0.3-1
			c-0.2-0.2-0.6-0.4-0.9-0.3c-0.4,0-0.8,0.1-1,0.4c-0.3,0.3-0.4,0.8-0.4,1.2v3.5h-1V2.8h1v0.8C31,2.9,31.7,2.6,32.4,2.6L32.4,2.6z"
			/>
		<path id="Trazado_102723" d="M36.4,8.6V2.7h1v5.8H36.4z"/>
		<path id="Trazado_102724" d="M40.8,8.7c-0.5,0-0.9-0.1-1.3-0.4C39.2,8,39,7.5,39,7.1c0-0.3,0-0.5,0.2-0.8c0.1-0.2,0.3-0.4,0.5-0.5
			c0.2-0.1,0.4-0.3,0.7-0.3c0.3-0.1,0.6-0.2,0.9-0.2l0.9-0.2c0.3-0.1,0.5-0.2,0.5-0.5c0-0.3-0.1-0.7-0.4-0.9
			c-0.3-0.2-0.6-0.3-0.9-0.3c-0.3,0-0.6,0.1-0.9,0.3c-0.3,0.2-0.4,0.5-0.4,0.8l-0.9-0.2c0.1-0.5,0.3-1,0.8-1.2
			c0.5-0.3,1-0.4,1.6-0.4c0.3,0,0.6,0,0.8,0.1c0.3,0.1,0.5,0.2,0.7,0.3c0.2,0.2,0.4,0.4,0.5,0.6c0.1,0.3,0.2,0.6,0.2,1v2.4
			c0,0.2,0,0.4,0.1,0.6c0.1,0.1,0.3,0.2,0.5,0.2h0.1v0.8h-0.5c-0.5,0.1-1-0.2-1.1-0.8h-0.1C42.3,8.4,41.6,8.7,40.8,8.7z M41,7.8
			c0.5,0,0.9-0.2,1.2-0.6c0.3-0.4,0.5-1,0.5-1.5l-1.5,0.3c-0.3,0-0.6,0.1-0.9,0.3C40,6.7,40,7.2,40.3,7.6c0,0,0.1,0.1,0.1,0.1
			C40.6,7.8,40.8,7.9,41,7.8L41,7.8z"/>
		<path id="Trazado_102725" d="M4.9,18.8c0.5,0.1,0.9,0.4,1.2,0.8c0.3,0.4,0.5,0.9,0.4,1.4c0,0.6-0.2,1.2-0.6,1.6
			c-0.5,0.4-1.1,0.7-1.7,0.6H1v-8.3h2.5c0.7,0,1.3,0.2,1.8,0.6C5.7,15.8,6,16.4,6,17c0,0.4-0.1,0.7-0.3,1.1
			C5.5,18.4,5.2,18.6,4.9,18.8z M5,17c0-0.4-0.1-0.7-0.4-1c-0.3-0.3-0.7-0.4-1.1-0.4H2v2.7h1.7c0.4,0,0.7-0.1,0.9-0.4
			C4.9,17.7,5,17.4,5,17L5,17z M4,22.2c0.4,0,0.8-0.1,1.1-0.4c0.6-0.6,0.6-1.5,0-2.1c-0.3-0.3-0.7-0.4-1.2-0.4H2v2.9L4,22.2z"/>
		<path id="Trazado_102726" d="M9.6,23.2c-0.5,0-0.9-0.1-1.3-0.4c-0.3-0.3-0.5-0.7-0.5-1.2c0-0.3,0-0.5,0.2-0.8
			c0.1-0.2,0.3-0.4,0.5-0.5c0.2-0.1,0.4-0.3,0.7-0.3c0.3-0.1,0.6-0.2,0.9-0.2l0.9-0.2c0.3-0.1,0.5-0.2,0.5-0.5
			c0-0.3-0.1-0.7-0.4-0.9c-0.3-0.2-0.6-0.3-0.9-0.3c-0.3,0-0.6,0.1-0.9,0.3c-0.3,0.2-0.4,0.5-0.4,0.8L8,18.9c0.1-0.5,0.3-1,0.8-1.2
			c0.5-0.3,1-0.4,1.6-0.4c0.3,0,0.6,0,0.8,0.1c0.3,0.1,0.5,0.2,0.7,0.3c0.2,0.2,0.4,0.4,0.5,0.6c0.1,0.3,0.2,0.6,0.2,1v2.4
			c0,0.2,0,0.4,0.1,0.6c0.1,0.1,0.3,0.2,0.5,0.2h0.1v0.8h-0.5c-0.5,0.1-1-0.2-1.1-0.8h0C11.1,23,10.4,23.3,9.6,23.2z M9.9,22.4
			c0.5,0,0.9-0.2,1.2-0.6c0.3-0.4,0.5-1,0.5-1.5l-1.5,0.3c-0.3,0-0.6,0.1-0.9,0.3c-0.4,0.3-0.4,0.9-0.1,1.2c0,0,0,0,0.1,0.1
			C9.4,22.3,9.6,22.4,9.9,22.4L9.9,22.4z"/>
		<path id="Trazado_102727" d="M14.6,23.1V14h1v9.1H14.6z"/>
		<path id="Trazado_102728" d="M19.1,23.2c-0.5,0-0.9-0.1-1.3-0.4c-0.3-0.3-0.5-0.7-0.5-1.2c0-0.3,0-0.5,0.2-0.8
			c0.1-0.2,0.3-0.4,0.5-0.5c0.2-0.1,0.4-0.3,0.7-0.3c0.3-0.1,0.6-0.2,0.9-0.2l0.9-0.2c0.3-0.1,0.5-0.2,0.5-0.5
			c0-0.3-0.1-0.7-0.4-0.9C20.3,18,20,17.9,19.7,18c-0.3,0-0.6,0.1-0.9,0.3c-0.3,0.2-0.4,0.5-0.4,0.8l-0.9-0.2c0.1-0.5,0.3-1,0.8-1.2
			c0.5-0.3,1-0.4,1.6-0.4c0.3,0,0.6,0,0.8,0.1c0.3,0.1,0.5,0.2,0.7,0.3c0.2,0.2,0.4,0.4,0.5,0.6c0.1,0.3,0.2,0.6,0.2,1v2.4
			c0,0.2,0,0.4,0.1,0.6c0.1,0.1,0.3,0.2,0.5,0.2h0.1v0.8h-0.5c-0.5,0.1-1-0.2-1.1-0.8h0C20.5,22.9,19.8,23.3,19.1,23.2z M19.3,22.4
			c0.5,0,0.9-0.2,1.2-0.6c0.3-0.4,0.5-1,0.5-1.5l-1.5,0.3c-0.3,0-0.6,0.1-0.9,0.3c-0.4,0.3-0.4,0.9-0.1,1.2c0,0,0,0,0.1,0.1
			C18.8,22.3,19.1,22.4,19.3,22.4L19.3,22.4z"/>
		<path id="Trazado_102729" d="M26.8,17.2c0.5,0,1.1,0.2,1.5,0.5c0.4,0.4,0.6,1,0.5,1.5v3.9h-1v-3.7c0-0.4-0.1-0.8-0.4-1
			c-0.2-0.2-0.6-0.3-0.9-0.3c-0.4,0-0.8,0.1-1,0.4c-0.3,0.3-0.4,0.8-0.4,1.2v3.5h-1v-5.8h1v0.8C25.5,17.5,26.1,17.1,26.8,17.2
			L26.8,17.2z"/>
		<path id="Trazado_102730" d="M33.2,23.2c-0.8,0-1.5-0.3-2.1-0.8c-1.1-1.2-1.1-3.1,0-4.4c0.5-0.6,1.3-0.9,2.1-0.8
			c0.6,0,1.2,0.2,1.7,0.5c0.5,0.3,0.8,0.8,1,1.4l-1,0.2C34.7,18.5,34,18,33.2,18c-0.5,0-1,0.2-1.3,0.6c-0.7,0.9-0.7,2.2,0,3.1
			c0.7,0.7,1.8,0.8,2.6,0.1c0.2-0.2,0.4-0.5,0.5-0.8l1,0.2c-0.2,0.6-0.5,1.1-1,1.4C34.4,23,33.8,23.2,33.2,23.2z"/>
		<path id="Trazado_102731" d="M42.5,20.1v0.3h-4.5c0,0.6,0.2,1.1,0.6,1.5c0.4,0.3,0.8,0.5,1.3,0.5c0.7,0,1.3-0.4,1.6-1.1l0.9,0.2
			c-0.2,0.5-0.5,0.9-1,1.2c-0.4,0.3-1,0.5-1.5,0.5c-0.8,0-1.5-0.3-2.1-0.8c-1.1-1.3-1.1-3.1,0-4.4c0.5-0.5,1.3-0.8,2.1-0.8
			c0.7,0,1.4,0.2,2,0.8C42.3,18.5,42.5,19.3,42.5,20.1L42.5,20.1z M39.8,18c-0.4,0-0.9,0.1-1.2,0.4c-0.3,0.3-0.6,0.7-0.6,1.2h3.5
			c0-0.5-0.2-0.9-0.5-1.2C40.6,18.1,40.2,17.9,39.8,18L39.8,18z"/>
		<path id="Trazado_102732" d="M5.4,30.3H2.1V33h3v0.9h-3v2.7h3.4v1H1v-8.3h4.5V30.3z"/>
		<path id="Trazado_102733" d="M9,37.8c-0.6,0-1.1-0.1-1.6-0.4c-0.4-0.3-0.7-0.7-0.8-1.2l0.9-0.3c0.1,0.3,0.2,0.6,0.5,0.8
			C8.4,36.9,8.7,37,9,37c0.2,0,0.4,0,0.6-0.1c0.2-0.1,0.3-0.2,0.4-0.3c0.1-0.2,0.2-0.3,0.2-0.5c0-0.1,0-0.2-0.1-0.2
			c0-0.1-0.1-0.1-0.1-0.2c0-0.1-0.1-0.1-0.2-0.2c-0.1,0-0.1-0.1-0.2-0.1c-0.1,0-0.2-0.1-0.3-0.1l-0.3-0.1l-0.3-0.1L8.5,35
			c-0.2-0.1-0.4-0.1-0.6-0.2c-0.2-0.1-0.3-0.2-0.5-0.3C7.2,34.4,7.1,34.2,7,34c-0.1-0.2-0.1-0.4-0.1-0.7c0-0.3,0.1-0.7,0.3-0.9
			c0.2-0.3,0.5-0.4,0.8-0.5c0.3-0.1,0.7-0.2,1-0.2c0.5,0,1,0.1,1.4,0.4c0.4,0.3,0.6,0.7,0.7,1.1l-0.8,0.2c0-0.3-0.2-0.6-0.4-0.8
			c-0.2-0.2-0.5-0.3-0.8-0.2c-0.3,0-0.5,0.1-0.8,0.2C8,32.8,7.9,33,7.9,33.3c0,0.1,0,0.2,0.1,0.3c0,0.1,0.1,0.2,0.2,0.2
			c0.1,0.1,0.2,0.1,0.3,0.2c0.1,0.1,0.2,0.1,0.3,0.1l0.4,0.1h0.1l0.6,0.2c0.2,0.1,0.3,0.1,0.5,0.2c0.2,0.1,0.3,0.2,0.5,0.3
			c0.3,0.3,0.4,0.7,0.4,1.1c0,0.3-0.1,0.5-0.2,0.8c-0.1,0.2-0.3,0.4-0.5,0.5c-0.2,0.1-0.4,0.2-0.7,0.3C9.6,37.7,9.3,37.7,9,37.8z"/>
		<path id="Trazado_102734" d="M14.7,37.6c-0.4,0-0.8-0.1-1.1-0.4c-0.3-0.3-0.4-0.7-0.4-1.2v-3.4h-1.2v-0.8h0.4c0.2,0,0.5,0,0.6-0.2
			c0.1-0.2,0.2-0.4,0.2-0.7v-1.1h1v1.9h1.3v0.8h-1.3v3.3c0,0.2,0.1,0.5,0.2,0.6c0.2,0.2,0.4,0.2,0.6,0.2h0.5v0.8L14.7,37.6z"/>
		<path id="Trazado_102735" d="M18.2,37.8c-0.5,0-0.9-0.1-1.3-0.4c-0.4-0.3-0.5-0.7-0.5-1.2c0-0.3,0-0.5,0.2-0.8
			c0.1-0.2,0.3-0.4,0.5-0.5c0.2-0.1,0.4-0.3,0.7-0.3c0.3-0.1,0.6-0.2,0.9-0.2l0.9-0.2c0.3-0.1,0.5-0.2,0.5-0.5
			c0-0.3-0.1-0.7-0.4-0.9c-0.3-0.2-0.6-0.3-0.9-0.3c-0.3,0-0.6,0.1-0.9,0.3c-0.3,0.2-0.4,0.5-0.4,0.8l-0.9-0.2
			c0.1-0.5,0.3-1,0.8-1.2c0.5-0.3,1-0.4,1.6-0.4c0.3,0,0.6,0,0.8,0.1c0.3,0.1,0.5,0.2,0.7,0.3c0.2,0.2,0.4,0.4,0.5,0.6
			c0.1,0.3,0.2,0.6,0.2,1v2.4c0,0.2,0,0.4,0.1,0.6c0.1,0.1,0.3,0.2,0.5,0.2h0.1v0.8h-0.5c-0.5,0.1-1-0.2-1.1-0.8h-0.1
			C19.7,37.5,19,37.8,18.2,37.8z M18.5,36.9c0.5,0,0.9-0.2,1.2-0.6c0.3-0.4,0.5-1,0.5-1.5l-1.5,0.3c-0.3,0-0.6,0.1-0.9,0.3
			c-0.4,0.3-0.4,0.9-0.1,1.2c0,0,0,0,0.1,0.1C18,36.9,18.2,36.9,18.5,36.9L18.5,36.9z"/>
		<path id="Trazado_102736" d="M26.3,31.7c0.7,0,1.4,0.3,1.9,0.8c0.5,0.6,0.8,1.4,0.8,2.2c0,0.8-0.2,1.6-0.8,2.2
			c-0.5,0.5-1.2,0.9-1.9,0.8c-0.4,0-0.9-0.1-1.2-0.3c-0.4-0.2-0.7-0.5-0.8-0.9v1.1h-1v-9.1h1v4.4c0.2-0.4,0.5-0.7,0.8-0.9
			C25.5,31.8,25.9,31.7,26.3,31.7z M26.1,36.9c0.5,0,1-0.2,1.4-0.6c0.4-0.4,0.6-1,0.6-1.5c0-0.6-0.2-1.1-0.6-1.5
			c-0.3-0.4-0.8-0.6-1.4-0.6c-0.5,0-1,0.2-1.3,0.6c-0.4,0.4-0.6,1-0.6,1.5c0,0.6,0.2,1.1,0.6,1.5C25.1,36.7,25.6,36.9,26.1,36.9
			L26.1,36.9z"/>
		<path id="Trazado_102737" d="M31.1,30.5c-0.2,0-0.4-0.1-0.5-0.2c-0.1-0.1-0.2-0.3-0.2-0.5c0-0.2,0.1-0.4,0.2-0.5
			c0.3-0.3,0.7-0.3,1,0c0.1,0.1,0.2,0.3,0.2,0.5C31.8,30.2,31.5,30.5,31.1,30.5L31.1,30.5z M30.6,37.6v-5.8h1v5.8H30.6z"/>
		<path id="Trazado_102738" d="M33.7,37.6v-9.1h1v9.1H33.7z"/>
		<path id="Trazado_102739" d="M37.4,30.5c-0.4,0-0.7-0.3-0.7-0.7c0,0,0,0,0,0c0-0.2,0.1-0.4,0.2-0.5c0.1-0.1,0.3-0.2,0.5-0.2
			c0.2,0,0.4,0.1,0.5,0.2c0.1,0.1,0.2,0.3,0.2,0.5c0,0.2-0.1,0.4-0.2,0.5C37.7,30.4,37.6,30.5,37.4,30.5z M36.9,37.6v-5.8h1v5.8
			H36.9z"/>
		<path id="Trazado_102740" d="M44.3,28.5h1v9.1h-1v-1.1c-0.2,0.4-0.5,0.7-0.8,0.9c-0.4,0.2-0.8,0.3-1.2,0.3c-0.7,0-1.4-0.3-1.9-0.8
			c-0.3-0.3-0.5-0.6-0.6-1c-0.1-0.4-0.2-0.8-0.2-1.2c0-0.8,0.3-1.6,0.8-2.2c0.5-0.5,1.2-0.9,1.9-0.8c0.4,0,0.8,0.1,1.2,0.3
			c0.4,0.2,0.6,0.5,0.8,0.9L44.3,28.5z M42.4,36.9c0.5,0,1-0.2,1.3-0.6c0.7-0.9,0.7-2.1,0-3c-0.3-0.4-0.8-0.6-1.3-0.6
			c-0.5,0-1,0.2-1.4,0.6c-0.4,0.4-0.6,1-0.6,1.5c0,0.6,0.2,1.1,0.6,1.5C41.4,36.6,41.9,36.9,42.4,36.9L42.4,36.9z"/>
		<path id="Trazado_102741" d="M48.7,37.8c-0.5,0-0.9-0.1-1.3-0.4c-0.3-0.3-0.5-0.7-0.5-1.2c0-0.3,0-0.5,0.2-0.8
			c0.1-0.2,0.3-0.4,0.5-0.5c0.2-0.1,0.4-0.3,0.7-0.3c0.3-0.1,0.6-0.2,0.9-0.2l0.9-0.2c0.3-0.1,0.5-0.2,0.5-0.5
			c0-0.3-0.1-0.7-0.4-0.9c-0.3-0.2-0.6-0.3-0.9-0.3c-0.3,0-0.6,0.1-0.9,0.3C48.1,33,48,33.3,48,33.6L47,33.4c0.1-0.5,0.3-1,0.8-1.2
			c0.5-0.3,1-0.4,1.6-0.4c0.3,0,0.6,0,0.8,0.1c0.3,0.1,0.5,0.2,0.7,0.3c0.2,0.2,0.4,0.4,0.5,0.6c0.1,0.3,0.2,0.6,0.2,1v2.4
			c0,0.2,0,0.4,0.1,0.6c0.1,0.1,0.3,0.2,0.5,0.2h0.1v0.8h-0.5c-0.6,0-1-0.3-1.1-0.8h0C50.2,37.5,49.5,37.8,48.7,37.8z M49,36.9
			c0.5,0,0.9-0.2,1.2-0.6c0.3-0.4,0.5-1,0.5-1.5l-1.5,0.3c-0.3,0-0.6,0.1-0.9,0.3c-0.4,0.3-0.4,0.8-0.1,1.2c0,0,0,0.1,0.1,0.1
			C48.5,36.9,48.7,36.9,49,36.9L49,36.9z"/>
		<path id="Trazado_102742" d="M57.9,28.5h1v9.1h-1v-1.1c-0.2,0.4-0.5,0.7-0.8,0.9c-0.4,0.2-0.8,0.3-1.2,0.3c-0.7,0-1.4-0.3-1.9-0.8
			c-0.3-0.3-0.5-0.6-0.6-1c-0.1-0.4-0.2-0.8-0.2-1.2c0-0.8,0.3-1.6,0.8-2.2c0.5-0.5,1.2-0.9,1.9-0.8c0.4,0,0.8,0.1,1.2,0.3
			c0.4,0.2,0.6,0.5,0.8,0.9L57.9,28.5z M56.1,36.9c0.5,0,1-0.2,1.3-0.6c0.7-0.9,0.7-2.1,0-3c-0.3-0.4-0.8-0.6-1.3-0.6
			c-0.5,0-1,0.2-1.4,0.6c-0.4,0.4-0.6,1-0.6,1.5c0,0.6,0.2,1.1,0.6,1.5C55,36.6,55.5,36.9,56.1,36.9L56.1,36.9z"/>
		<path id="Trazado_102743" d="M3.5,52.3c-0.8,0-1.5-0.2-2.2-0.6c-0.6-0.4-1-1-1.1-1.6l1.1-0.3c0.1,0.5,0.4,0.9,0.8,1.1
			c0.4,0.3,0.9,0.4,1.5,0.4c0.2,0,0.4,0,0.6,0c0.2,0,0.3-0.1,0.5-0.2C4.8,51.1,4.9,51,5,50.9c0.1-0.1,0.2-0.3,0.3-0.4
			c0.1-0.2,0.1-0.4,0.1-0.6c0-0.1,0-0.3-0.1-0.4c0-0.1-0.1-0.2-0.2-0.3C5.1,49.2,5,49.1,4.9,49c-0.1-0.1-0.2-0.1-0.3-0.2
			c-0.1-0.1-0.3-0.1-0.4-0.2l-0.4-0.1l-0.5-0.1H3.1l-0.6-0.2L2.1,48c-0.2-0.1-0.3-0.1-0.5-0.2c-0.1-0.1-0.3-0.2-0.4-0.3
			c-0.1-0.1-0.2-0.2-0.3-0.4c-0.1-0.1-0.2-0.3-0.2-0.5c-0.1-0.2-0.1-0.4-0.1-0.6c0-0.5,0.1-0.9,0.4-1.3c0.3-0.3,0.6-0.6,1-0.8
			c0.4-0.2,0.9-0.3,1.4-0.2c0.7,0,1.4,0.2,2,0.5c0.6,0.3,0.9,0.9,1.1,1.5l-1,0.3c-0.1-0.4-0.3-0.8-0.7-1c-0.4-0.2-0.8-0.4-1.3-0.3
			c-0.2,0-0.4,0-0.6,0.1c-0.2,0-0.4,0.1-0.6,0.2c-0.2,0.1-0.3,0.3-0.4,0.4c-0.1,0.2-0.2,0.4-0.2,0.6c0,0.2,0.1,0.5,0.2,0.6
			C1.9,46.8,2,46.9,2.1,47l0.3,0.2c0.1,0.1,0.3,0.1,0.4,0.2l0.4,0.1l0.5,0.1c0.6,0.1,1.1,0.3,1.6,0.5c0.6,0.3,1.1,0.8,1.2,1.5
			c0,0.1,0,0.2,0,0.4c0,0.4-0.1,0.7-0.2,1.1c-0.2,0.3-0.4,0.6-0.7,0.8C5.3,52,5,52.1,4.7,52.2C4.3,52.3,3.9,52.3,3.5,52.3L3.5,52.3z
			"/>
		<path id="Trazado_102744" d="M13.3,49.2v0.3H8.8c0,0.6,0.2,1.1,0.6,1.5c0.4,0.3,0.8,0.5,1.3,0.5c0.3,0,0.7-0.1,1-0.3
			c0.3-0.2,0.5-0.4,0.7-0.8l0.9,0.2c-0.2,0.5-0.5,0.9-1,1.2c-0.4,0.3-1,0.5-1.5,0.5c-0.8,0-1.5-0.3-2.1-0.8
			c-0.6-0.6-0.8-1.4-0.8-2.2c0-0.8,0.2-1.6,0.8-2.2c0.5-0.5,1.3-0.8,2.1-0.8c0.7,0,1.4,0.2,2,0.8C13.1,47.6,13.4,48.4,13.3,49.2z
			 M10.6,47c-0.4,0-0.9,0.1-1.2,0.4c-0.3,0.3-0.6,0.7-0.6,1.2h3.5c0-0.5-0.2-0.9-0.5-1.2C11.5,47.2,11.1,47,10.6,47L10.6,47z"/>
		<path id="Trazado_102745" d="M19.1,46.4h1v5.5c0.1,0.8-0.2,1.6-0.8,2.3c-1.3,1.1-3.3,1-4.4-0.2c-0.2-0.2-0.4-0.5-0.5-0.7l0.8-0.4
			c0.3,0.8,1.1,1.4,1.9,1.3c0.5,0,1-0.2,1.4-0.6c0.3-0.5,0.5-1,0.5-1.6v-1.1c-0.2,0.4-0.5,0.6-0.8,0.8c-1,0.6-2.3,0.3-3.1-0.5
			c-0.5-0.6-0.8-1.3-0.8-2.1c0-0.8,0.2-1.5,0.8-2.1c0.5-0.5,1.2-0.8,1.9-0.8c0.4,0,0.8,0.1,1.2,0.3c0.4,0.2,0.6,0.5,0.8,0.9
			L19.1,46.4z M17.3,51.1c0.5,0,1-0.2,1.3-0.6c0.7-0.8,0.7-2,0-2.8c-0.3-0.4-0.8-0.6-1.3-0.6c-0.5,0-1,0.2-1.3,0.6
			c-0.4,0.4-0.6,0.9-0.6,1.4c0,0.5,0.2,1,0.6,1.4C16.3,50.9,16.8,51.2,17.3,51.1z"/>
		<path id="Trazado_102746" d="M25.8,46.4h1v5.8h-1v-0.8c-0.2,0.3-0.4,0.5-0.7,0.7c-0.3,0.2-0.7,0.2-1,0.2c-0.5,0-1.1-0.2-1.5-0.5
			c-0.4-0.4-0.6-1-0.5-1.5v-3.9h1V50c0,0.4,0.1,0.8,0.4,1c0.2,0.2,0.6,0.4,0.9,0.3c0.4,0,0.8-0.1,1-0.4c0.3-0.3,0.4-0.8,0.4-1.2
			L25.8,46.4z"/>
		<path id="Trazado_102747" d="M29.9,47.4c0.2-0.3,0.4-0.6,0.7-0.8c0.3-0.2,0.7-0.3,1.1-0.3v1c-0.5,0-1,0.1-1.4,0.4
			c-0.3,0.4-0.5,0.9-0.5,1.4v3.1h-1v-5.8h1V47.4z"/>
		<path id="Trazado_102748" d="M33.5,45c-0.2,0-0.4-0.1-0.5-0.2c-0.1-0.1-0.2-0.3-0.2-0.5c0-0.2,0.1-0.4,0.2-0.5
			c0.3-0.3,0.7-0.3,1,0c0.1,0.1,0.2,0.3,0.2,0.5c0,0.2-0.1,0.4-0.2,0.5C33.9,44.9,33.7,45,33.5,45z M33,52.2v-5.8h1v5.8H33z"/>
		<path id="Trazado_102749" d="M40.4,43.1h1v9.1h-1v-1.1c-0.2,0.4-0.5,0.7-0.8,0.9c-0.4,0.2-0.8,0.3-1.2,0.3c-0.4,0-0.7-0.1-1.1-0.2
			c-0.3-0.1-0.6-0.3-0.9-0.6c-0.3-0.3-0.5-0.6-0.6-1c-0.1-0.4-0.2-0.8-0.2-1.2c0-0.8,0.2-1.6,0.8-2.2c0.5-0.5,1.2-0.9,1.9-0.8
			c0.4,0,0.9,0.1,1.2,0.3c0.4,0.2,0.6,0.5,0.8,0.9L40.4,43.1z M38.5,51.4c0.5,0,1-0.2,1.4-0.6c0.4-0.4,0.6-1,0.5-1.5
			c0-0.6-0.2-1.1-0.6-1.5c-0.3-0.4-0.8-0.6-1.3-0.6c-0.5,0-1,0.2-1.4,0.6c-0.7,0.9-0.7,2.2,0,3.1C37.5,51.2,38,51.4,38.5,51.4
			L38.5,51.4z"/>
		<path id="Trazado_102750" d="M44.8,52.3c-0.5,0-0.9-0.1-1.3-0.4c-0.3-0.3-0.5-0.7-0.5-1.2c0-0.3,0-0.5,0.2-0.8
			c0.1-0.2,0.3-0.4,0.5-0.5c0.2-0.1,0.4-0.3,0.7-0.3c0.3-0.1,0.6-0.2,0.9-0.2l0.9-0.2c0.3-0.1,0.5-0.2,0.5-0.5
			c0-0.3-0.1-0.7-0.4-0.9c-0.3-0.2-0.6-0.3-0.9-0.3c-0.3,0-0.6,0.1-0.9,0.3c-0.3,0.2-0.4,0.5-0.4,0.8L43.2,48c0.1-0.5,0.3-1,0.8-1.2
			c0.5-0.3,1-0.4,1.6-0.4c0.3,0,0.6,0,0.8,0.1c0.3,0.1,0.5,0.2,0.7,0.3c0.2,0.2,0.4,0.4,0.5,0.6c0.1,0.3,0.2,0.6,0.2,1v2.4
			c0,0.2,0,0.4,0.1,0.6c0.1,0.1,0.3,0.2,0.5,0.2h0.1v0.8h-0.5c-0.5,0.1-1-0.2-1.1-0.8h0C46.3,52,45.6,52.4,44.8,52.3z M45.1,51.5
			c0.5,0,0.9-0.2,1.2-0.6c0.3-0.4,0.5-1,0.5-1.5l-1.5,0.3c-0.3,0-0.6,0.2-0.9,0.3c-0.4,0.3-0.4,0.9-0.1,1.2c0,0,0,0,0.1,0.1
			C44.6,51.4,44.8,51.5,45.1,51.5L45.1,51.5z"/>
		<path id="Trazado_102751" d="M54,43.1h1v9.1h-1v-1.1c-0.2,0.4-0.5,0.7-0.8,0.9c-0.4,0.2-0.8,0.3-1.2,0.3c-0.4,0-0.7-0.1-1.1-0.2
			c-0.3-0.1-0.6-0.3-0.9-0.6c-0.3-0.3-0.5-0.6-0.6-1c-0.1-0.4-0.2-0.8-0.2-1.2c0-0.8,0.2-1.6,0.8-2.2c0.5-0.5,1.2-0.9,1.9-0.8
			c0.4,0,0.9,0.1,1.2,0.3c0.4,0.2,0.6,0.5,0.8,0.9L54,43.1z M52.2,51.4c0.5,0,1-0.2,1.4-0.6c0.4-0.4,0.6-1,0.5-1.5
			c0-0.6-0.2-1.1-0.6-1.5c-0.3-0.4-0.8-0.6-1.3-0.6c-0.5,0-1,0.2-1.4,0.6c-0.7,0.9-0.7,2.2,0,3.1C51.2,51.2,51.7,51.4,52.2,51.4
			L52.2,51.4z"/>
		<path id="Trazado_102752" d="M4.1,58.4c0.5,0,0.9,0.1,1.3,0.3c0.4,0.2,0.7,0.5,0.9,0.9c0.2,0.4,0.3,0.8,0.3,1.3
			c0,0.7-0.2,1.3-0.7,1.8c-0.5,0.5-1.1,0.8-1.8,0.8H2v3.2H1v-8.3H4.1z M4,62.5c0.4,0,0.9-0.1,1.2-0.4c0.6-0.7,0.6-1.7,0-2.4
			c-0.3-0.3-0.7-0.5-1.2-0.5H2v3.3H4z"/>
		<path id="Trazado_102753" d="M9,66.8c-0.5,0-0.9-0.1-1.3-0.4c-0.3-0.3-0.5-0.7-0.5-1.2c0-0.3,0-0.5,0.2-0.8
			c0.1-0.2,0.3-0.4,0.5-0.5c0.2-0.1,0.4-0.3,0.7-0.3c0.3-0.1,0.6-0.2,0.9-0.2l0.9-0.2c0.3-0.1,0.5-0.2,0.5-0.5
			c0-0.3-0.1-0.7-0.4-0.9c-0.3-0.2-0.6-0.3-0.9-0.3c-0.3,0-0.6,0.1-0.9,0.3c-0.3,0.2-0.4,0.5-0.4,0.8l-0.9-0.2
			c0.1-0.5,0.3-1,0.8-1.2c0.5-0.3,1-0.4,1.6-0.4c0.3,0,0.6,0,0.8,0.1c0.3,0.1,0.5,0.2,0.7,0.3c0.2,0.2,0.4,0.4,0.5,0.6
			c0.1,0.3,0.2,0.6,0.2,1v2.4c0,0.2,0,0.4,0.1,0.6c0.1,0.1,0.3,0.2,0.5,0.2h0.1v0.8h-0.5c-0.5,0.1-1-0.2-1.1-0.8h-0.1
			C10.5,66.6,9.8,66.9,9,66.8L9,66.8z M9.2,66c0.5,0,0.9-0.2,1.2-0.6c0.3-0.4,0.5-1,0.5-1.5l-1.5,0.3c-0.3,0-0.6,0.1-0.9,0.3
			c-0.4,0.3-0.4,0.8-0.1,1.2c0,0,0.1,0.1,0.1,0.1C8.8,66,9,66,9.2,66L9.2,66z"/>
		<path id="Trazado_102754" d="M14.8,65.9h3.1v0.8h-4.6l3.1-5h-2.9v-0.8h4.5L14.8,65.9z"/>
	</g>
	<g id="Grupo_57719" transform="translate(242.438 88.287)">
		<path id="Trazado_102755" d="M3.6,0.4c0.7,0,1.5,0.2,2,0.8c0.5,0.5,0.8,1.2,0.8,2c0,0.7-0.3,1.4-0.8,2C5,5.6,4.3,5.9,3.6,5.8H1.8
			v3H0V0.4L3.6,0.4z M3.3,4.4c0.4,0,0.7-0.1,1-0.3c0.2-0.3,0.3-0.6,0.3-0.9c0-0.3-0.1-0.7-0.3-0.9C4,2,3.6,1.9,3.3,1.9H1.7v2.5
			L3.3,4.4z"/>
		<path id="Trazado_102756" d="M10.2,9.1C9.6,9.1,9,9,8.4,8.7C8,8.5,7.5,8.1,7.3,7.6C7,7.1,6.8,6.5,6.8,5.9c0-0.9,0.3-1.7,0.9-2.3
			c1.4-1.1,3.4-1.1,4.8,0c1.2,1.3,1.2,3.3,0,4.6C11.9,8.8,11,9.1,10.2,9.1z M10.2,7.7c0.5,0,0.9-0.2,1.2-0.5
			c0.3-0.4,0.5-0.8,0.5-1.3c0-0.5-0.1-1-0.5-1.3c-0.3-0.3-0.7-0.5-1.2-0.5C9.7,4.1,9.3,4.3,9,4.6C8.4,5.4,8.4,6.4,9,7.2
			C9.3,7.5,9.7,7.7,10.2,7.7L10.2,7.7z"/>
		<path id="Trazado_102757" d="M16.9,9.1c-0.6,0-1.2-0.1-1.8-0.4c-0.5-0.3-0.8-0.7-0.9-1.3L15.7,7c0.1,0.6,0.6,1,1.2,0.9
			c0.2,0,0.4,0,0.6-0.1c0.2-0.1,0.3-0.3,0.2-0.5c0-0.1,0-0.2-0.1-0.3c-0.1-0.1-0.2-0.2-0.3-0.2l-0.4-0.2l-0.5-0.2
			c-0.2,0-0.4-0.1-0.6-0.2c-0.2-0.1-0.4-0.1-0.5-0.2c-0.2-0.1-0.3-0.2-0.4-0.3c-0.1-0.1-0.3-0.3-0.3-0.5c-0.1-0.2-0.1-0.4-0.1-0.7
			c0-0.5,0.2-1.1,0.7-1.4c0.5-0.3,1.1-0.5,1.7-0.5c0.6,0,1.1,0.1,1.6,0.4c0.4,0.3,0.7,0.7,0.8,1.2l-1.3,0.3
			c-0.1-0.5-0.6-0.8-1.1-0.8c-0.2,0-0.4,0-0.6,0.1C16.1,4.1,16,4.3,16,4.5c0,0.1,0,0.1,0,0.2c0,0.1,0.1,0.1,0.1,0.1l0.2,0.1
			c0.1,0,0.2,0.1,0.2,0.1c0.1,0,0.2,0.1,0.3,0.1l0.3,0.1l0.3,0.1c0.2,0,0.4,0.1,0.6,0.2c0.2,0.1,0.4,0.2,0.5,0.2
			C18.7,5.8,18.8,5.9,19,6c0.1,0.2,0.2,0.3,0.3,0.5c0.1,0.2,0.1,0.4,0.1,0.7c0,0.3-0.1,0.6-0.2,0.9c-0.1,0.2-0.3,0.5-0.6,0.6
			c-0.2,0.1-0.5,0.3-0.8,0.3C17.5,9.1,17.2,9.1,16.9,9.1z"/>
		<path id="Trazado_102758" d="M21.5,2c-0.5,0-1-0.4-1-1c0-0.3,0.1-0.5,0.3-0.7C21,0.1,21.2,0,21.5,0c0.5,0,0.9,0.5,0.9,1.1
			C22.4,1.5,22,1.9,21.5,2L21.5,2z M20.6,9V2.9h1.7V9H20.6z"/>
		<path id="Trazado_102759" d="M26.4,9c-0.5,0-1-0.1-1.4-0.5c-0.3-0.4-0.5-0.9-0.5-1.4V4.2h-1.2V2.9h0.4c0.3,0,0.6-0.1,0.8-0.3
			c0.2-0.3,0.3-0.6,0.2-0.9V0.9h1.5v2h1.3v1.3h-1.3v2.7c0,0.5,0.2,0.8,0.7,0.8h0.6v1.3L26.4,9z"/>
		<path id="Trazado_102760" d="M29.7,2c-0.3,0-0.5-0.1-0.7-0.3c-0.4-0.4-0.4-1,0-1.4C29.2,0.1,29.4,0,29.7,0c0.3,0,0.5,0.1,0.7,0.3
			c0.4,0.4,0.4,1,0,1.4c0,0,0,0,0,0C30.2,1.9,30,2,29.7,2z M28.8,9V2.9h1.7V9H28.8z"/>
		<path id="Trazado_102761" d="M36.3,2.9h1.8l-2.6,6.1H34l-2.6-6.1h1.8L34.7,7L36.3,2.9z"/>
		<path id="Trazado_102762" d="M41.6,9.1c-0.6,0-1.2-0.1-1.7-0.4c-0.5-0.2-0.9-0.6-1.2-1.1c-0.3-0.5-0.4-1.1-0.4-1.7
			c0-0.9,0.3-1.7,0.9-2.3c1.4-1.1,3.4-1.1,4.8,0c1.2,1.3,1.2,3.3,0,4.6C43.3,8.8,42.4,9.1,41.6,9.1z M41.6,7.7
			c0.5,0,0.9-0.2,1.2-0.5c0.3-0.4,0.5-0.8,0.5-1.3c0-0.5-0.1-1-0.5-1.3c-0.3-0.3-0.7-0.5-1.2-0.5c-0.4,0-0.9,0.2-1.2,0.5
			c-0.6,0.8-0.6,1.9,0,2.6C40.7,7.5,41.1,7.7,41.6,7.7L41.6,7.7z"/>
	</g>
	<g id="Grupo_57720" transform="translate(327.385 113.763)">
		<path id="Trazado_102763" d="M6.3,9.1l-0.7-2H1.8l-0.7,2H0l3.1-8.3h1.3l3.1,8.3H6.3z M2.2,6.2h3.1L3.7,1.8L2.2,6.2z"/>
		<path id="Trazado_102764" d="M11.9,3.2c0.7,0,1.4,0.3,1.9,0.8c1,1.3,1,3.1,0,4.4c-0.5,0.5-1.2,0.9-1.9,0.8c-0.4,0-0.9-0.1-1.2-0.3
			C10.3,8.7,10,8.3,9.8,8v1.1h-1V0h1v4.4c0.2-0.4,0.5-0.7,0.8-0.9C11.1,3.3,11.5,3.2,11.9,3.2z M11.7,8.3c0.5,0,1-0.2,1.4-0.6
			c0.4-0.4,0.6-1,0.5-1.5c0-0.6-0.2-1.1-0.5-1.5c-0.3-0.4-0.8-0.6-1.4-0.6c-0.5,0-1,0.2-1.3,0.6c-0.7,0.9-0.7,2.1,0,3
			C10.7,8.1,11.2,8.3,11.7,8.3L11.7,8.3z"/>
		<path id="Trazado_102765" d="M19.8,3.3h1v5.8h-1V8.3c-0.2,0.3-0.4,0.5-0.8,0.7c-0.3,0.2-0.7,0.2-1,0.2c-0.5,0-1.1-0.2-1.5-0.5
			c-0.4-0.4-0.6-1-0.6-1.5V3.3h1v3.7c0,0.4,0.1,0.8,0.4,1c0.2,0.2,0.6,0.4,0.9,0.3c0.4,0,0.8-0.1,1-0.4c0.3-0.3,0.4-0.8,0.4-1.2
			L19.8,3.3z"/>
		<path id="Trazado_102766" d="M23.9,4.3c0.2-0.3,0.4-0.6,0.8-0.8c0.3-0.2,0.7-0.3,1.1-0.3v1c-0.5,0-1,0.1-1.3,0.4
			C24.1,5,24,5.5,24,6v3.1h-1.1V3.3h1V4.3z"/>
		<path id="Trazado_102767" d="M28,4.3c0.2-0.3,0.4-0.6,0.7-0.8c0.3-0.2,0.7-0.3,1.1-0.3v1c-0.5,0-1,0.1-1.4,0.4C28.1,5,28,5.5,28,6
			v3.1h-1V3.3h1V4.3z"/>
		<path id="Trazado_102768" d="M31.6,1.9c-0.2,0-0.4-0.1-0.5-0.2c-0.1-0.1-0.2-0.3-0.2-0.5c0-0.2,0.1-0.4,0.2-0.5
			c0.3-0.3,0.7-0.3,1,0c0.1,0.1,0.2,0.3,0.2,0.5c0,0.2-0.1,0.4-0.2,0.5C31.9,1.8,31.8,1.9,31.6,1.9L31.6,1.9z M31.1,9.1V3.3h1v5.8
			H31.1z"/>
		<path id="Trazado_102769" d="M40.1,3.2c0.5,0,1,0.2,1.4,0.5C41.8,4,42,4.5,42,5v4h-1V5.3c0-0.4-0.1-0.7-0.3-1
			C40.4,4.1,40.1,4,39.8,4c-0.3,0-0.7,0.1-0.9,0.4c-0.2,0.3-0.4,0.7-0.3,1.1v3.6h-1V5.3c0-0.4-0.1-0.7-0.3-1C37,4.1,36.7,4,36.4,4
			c-0.3,0-0.7,0.1-0.9,0.4c-0.2,0.3-0.4,0.7-0.3,1.1v3.6h-1V3.3h1V4c0.2-0.3,0.4-0.5,0.7-0.6c0.3-0.2,0.6-0.2,0.9-0.2
			c0.3,0,0.7,0.1,1,0.2c0.3,0.2,0.5,0.4,0.6,0.7c0.2-0.3,0.4-0.5,0.7-0.7C39.4,3.2,39.7,3.2,40.1,3.2z"/>
		<path id="Trazado_102770" d="M44.5,1.9c-0.2,0-0.4-0.1-0.5-0.2c-0.1-0.1-0.2-0.3-0.2-0.5c0-0.2,0.1-0.4,0.2-0.5
			c0.1-0.1,0.3-0.2,0.5-0.2c0.2,0,0.4,0.1,0.5,0.2c0.1,0.1,0.2,0.3,0.2,0.5C45.1,1.6,44.8,1.9,44.5,1.9z M43.9,9.1V3.3h1v5.8H43.9z"
			/>
		<path id="Trazado_102771" d="M52.1,6.1v0.3h-4.5c0,0.6,0.2,1.1,0.6,1.5c0.4,0.3,0.8,0.5,1.3,0.5c0.3,0,0.7-0.1,1-0.3
			c0.3-0.2,0.5-0.4,0.7-0.8L52,7.5c-0.2,0.5-0.5,0.9-1,1.3c-0.4,0.3-1,0.5-1.5,0.5c-0.8,0-1.5-0.3-2.1-0.8c-1.1-1.3-1.1-3.1,0-4.4
			c0.5-0.5,1.3-0.8,2.1-0.8c0.7,0,1.4,0.2,2,0.8C51.9,4.5,52.2,5.3,52.1,6.1z M49.5,3.9c-0.4,0-0.9,0.1-1.2,0.4
			c-0.3,0.3-0.6,0.7-0.6,1.2h3.5c0-0.5-0.2-0.9-0.5-1.2C50.3,4.1,49.9,3.9,49.5,3.9L49.5,3.9z"/>
		<path id="Trazado_102772" d="M56.5,3.2c0.5,0,1.1,0.2,1.5,0.5c0.4,0.4,0.6,1,0.5,1.5v3.9h-1V5.4c0-0.4-0.1-0.8-0.4-1
			c-0.2-0.2-0.6-0.4-0.9-0.3c-0.4,0-0.8,0.1-1,0.4c-0.3,0.3-0.4,0.8-0.4,1.2v3.5h-1V3.3h1v0.8C55.1,3.5,55.8,3.1,56.5,3.2z"/>
		<path id="Trazado_102773" d="M62.3,9.1c-0.4,0-0.8-0.1-1.1-0.4c-0.3-0.3-0.4-0.7-0.4-1.2V4.1h-1.2V3.3H60c0.2,0,0.5,0,0.6-0.2
			c0.1-0.2,0.2-0.4,0.2-0.7v-1h0.9v1.9h1.3v0.8h-1.3v3.3c0,0.2,0.1,0.5,0.2,0.6c0.2,0.2,0.4,0.2,0.6,0.2h0.5v0.8L62.3,9.1z"/>
		<path id="Trazado_102774" d="M67,9.2c-0.5,0-1.1-0.1-1.5-0.4c-0.4-0.2-0.8-0.6-1-1.1c-0.3-0.5-0.4-1-0.4-1.6
			c0-0.8,0.3-1.6,0.8-2.2c1.2-1.1,3-1.1,4.2,0c1.1,1.3,1.1,3.1,0,4.4C68.5,8.9,67.8,9.2,67,9.2z M67,8.4c0.5,0,1-0.2,1.4-0.6
			c0.4-0.4,0.6-1,0.5-1.6c0-0.6-0.2-1.1-0.5-1.6C68,4.2,67.5,4,67,4c-0.5,0-1,0.2-1.4,0.6c-0.4,0.4-0.6,1-0.5,1.6
			c0,0.6,0.2,1.1,0.5,1.6C66,8.1,66.5,8.4,67,8.4z"/>
		<path id="Trazado_102775" d="M5.4,16.3H2V19h3v1H2v2.7h3.4v1H1v-8.3h4.5L5.4,16.3z"/>
		<path id="Trazado_102776" d="M9,23.7c-0.6,0-1.1-0.1-1.6-0.4c-0.4-0.3-0.7-0.7-0.8-1.2l0.9-0.3c0,0.3,0.2,0.6,0.5,0.8
			C8.4,22.9,8.7,23,9,23c0.2,0,0.4,0,0.6-0.1c0.2-0.1,0.3-0.2,0.4-0.3c0.1-0.1,0.2-0.3,0.2-0.5c0-0.1,0-0.2,0-0.2
			c0-0.1-0.1-0.1-0.1-0.2c0-0.1-0.1-0.1-0.2-0.2c-0.1,0-0.1-0.1-0.2-0.1l-0.3-0.1l-0.3-0.1l-0.3-0.1L8.5,21
			c-0.2-0.1-0.4-0.1-0.6-0.2c-0.2-0.1-0.3-0.2-0.5-0.3C7.2,20.3,7.1,20.2,7,20c-0.1-0.2-0.1-0.4-0.1-0.7c0-0.3,0.1-0.7,0.3-0.9
			c0.2-0.3,0.5-0.4,0.8-0.6c0.3-0.1,0.7-0.2,1-0.2c0.5,0,1,0.1,1.4,0.4c0.4,0.3,0.6,0.7,0.7,1.1l-0.8,0.2c0-0.3-0.2-0.6-0.4-0.8
			c-0.2-0.2-0.5-0.3-0.8-0.2c-0.3,0-0.5,0.1-0.8,0.2C8,18.8,7.9,19,7.9,19.3c0,0.1,0,0.2,0.1,0.3c0,0.1,0.1,0.2,0.2,0.2
			c0.1,0.1,0.2,0.1,0.3,0.2l0.3,0.1l0.4,0.1h0.1c0.2,0.1,0.4,0.1,0.6,0.2c0.2,0.1,0.3,0.1,0.5,0.2c0.2,0.1,0.3,0.2,0.4,0.3
			c0.1,0.1,0.2,0.3,0.3,0.5c0.1,0.2,0.1,0.4,0.1,0.6c0,0.3-0.1,0.5-0.2,0.8c-0.1,0.2-0.3,0.4-0.5,0.5c-0.2,0.1-0.4,0.2-0.7,0.3
			C9.6,23.7,9.3,23.7,9,23.7z"/>
		<path id="Trazado_102777" d="M14.6,23.6c-0.4,0-0.8-0.1-1.1-0.4c-0.3-0.3-0.4-0.7-0.4-1.2v-3.4h-1.2v-0.8h0.4c0.2,0,0.5,0,0.6-0.2
			c0.1-0.2,0.2-0.4,0.2-0.7v-1.1h1v1.9h1.3v0.8h-1.3v3.3c0,0.2,0.1,0.5,0.2,0.6c0.2,0.2,0.4,0.2,0.6,0.2h0.5v0.8L14.6,23.6z"/>
		<path id="Trazado_102778" d="M18.2,23.7c-0.5,0-0.9-0.1-1.3-0.4c-0.3-0.3-0.5-0.7-0.5-1.2c0-0.3,0-0.5,0.2-0.8
			c0.1-0.2,0.3-0.4,0.5-0.5c0.2-0.1,0.4-0.3,0.7-0.3c0.3-0.1,0.6-0.2,0.9-0.2l0.9-0.2c0.3-0.1,0.5-0.2,0.5-0.5
			c0-0.3-0.1-0.7-0.4-0.9c-0.6-0.4-1.3-0.4-1.8,0c-0.3,0.2-0.4,0.5-0.4,0.8l-0.9-0.2c0.1-0.5,0.3-1,0.8-1.2c0.5-0.3,1-0.4,1.6-0.4
			c0.3,0,0.6,0,0.8,0.1c0.3,0.1,0.5,0.2,0.7,0.3c0.2,0.2,0.4,0.4,0.5,0.6c0.1,0.3,0.2,0.6,0.2,1v2.4c0,0.2,0,0.4,0.1,0.6
			c0.1,0.1,0.3,0.2,0.5,0.2h0.1v0.8h-0.5c-0.6,0-1-0.3-1.1-0.8h0C19.7,23.5,19,23.8,18.2,23.7z M18.5,22.9c0.5,0,0.9-0.2,1.2-0.6
			c0.3-0.4,0.5-1,0.5-1.5l-1.5,0.3c-0.3,0-0.6,0.1-0.9,0.3c-0.4,0.3-0.4,0.8-0.1,1.2c0,0,0,0.1,0.1,0.1C18,22.9,18.2,22.9,18.5,22.9
			L18.5,22.9z"/>
		<path id="Trazado_102779" d="M26,17.7c0.5,0,1.1,0.2,1.5,0.5c0.4,0.4,0.6,1,0.5,1.5v3.9h-1V20c0-0.4-0.1-0.8-0.4-1
			c-0.2-0.2-0.6-0.3-0.9-0.3c-0.4,0-0.8,0.1-1,0.4c-0.3,0.3-0.4,0.8-0.4,1.2v3.5h-1v-5.8h1v0.8C24.6,18,25.3,17.7,26,17.7z"/>
		<path id="Trazado_102780" d="M32.3,23.7c-0.8,0-1.5-0.3-2.1-0.8c-1.1-1.2-1.1-3.1,0-4.4c1-1,2.6-1.1,3.8-0.3
			c0.5,0.3,0.8,0.8,1,1.4l-1,0.2c-0.1-0.4-0.3-0.7-0.7-0.9c-0.3-0.2-0.7-0.3-1.1-0.3c-0.5,0-1,0.2-1.3,0.6c-0.7,0.9-0.7,2.2,0,3.1
			c0.3,0.4,0.8,0.6,1.3,0.6c0.4,0,0.7-0.1,1.1-0.3c0.3-0.2,0.5-0.5,0.7-0.9l1,0.2c-0.2,0.6-0.5,1.1-1,1.4
			C33.5,23.6,32.9,23.8,32.3,23.7z"/>
		<path id="Trazado_102781" d="M37.9,23.7c-0.5,0-0.9-0.1-1.3-0.4c-0.3-0.3-0.5-0.7-0.5-1.2c0-0.3,0-0.5,0.2-0.8
			c0.1-0.2,0.3-0.4,0.5-0.5c0.2-0.1,0.4-0.3,0.7-0.3c0.3-0.1,0.6-0.2,0.9-0.2l0.9-0.2c0.3-0.1,0.5-0.2,0.5-0.5
			c0-0.3-0.1-0.7-0.4-0.9c-0.6-0.4-1.3-0.4-1.8,0c-0.3,0.2-0.4,0.5-0.4,0.8l-0.9-0.2c0.1-0.5,0.3-1,0.8-1.2c0.5-0.3,1-0.4,1.6-0.4
			c0.3,0,0.6,0,0.8,0.1c0.3,0.1,0.5,0.2,0.7,0.3c0.2,0.2,0.4,0.4,0.5,0.6c0.1,0.3,0.2,0.6,0.2,1v2.4c0,0.2,0,0.4,0.1,0.6
			c0.1,0.1,0.3,0.2,0.5,0.2h0v0.8h-0.5c-0.5,0.1-1-0.3-1.1-0.8h0C39.3,23.5,38.6,23.8,37.9,23.7z M38.1,22.9c0.5,0,0.9-0.2,1.2-0.6
			c0.3-0.4,0.5-1,0.5-1.5l-1.5,0.3c-0.3,0-0.6,0.1-0.9,0.3c-0.4,0.3-0.4,0.8-0.1,1.2c0,0,0,0.1,0.1,0.1
			C37.6,22.9,37.9,22.9,38.1,22.9L38.1,22.9z"/>
		<path id="Trazado_102782" d="M48.8,17.7c0.5,0,1,0.2,1.4,0.5c0.4,0.4,0.5,0.9,0.5,1.4v4h-1v-3.8c0-0.4-0.1-0.7-0.3-1
			c-0.2-0.2-0.5-0.3-0.8-0.3c-0.3,0-0.7,0.1-0.9,0.4c-0.2,0.3-0.4,0.7-0.3,1.1v3.6h-1v-3.7c0-0.4-0.1-0.7-0.3-1
			c-0.2-0.2-0.5-0.3-0.8-0.3c-0.3,0-0.7,0.1-0.9,0.4c-0.2,0.3-0.4,0.7-0.3,1.1v3.6h-1v-5.8h1v0.8c0.2-0.3,0.4-0.5,0.7-0.6
			c0.3-0.2,0.6-0.2,0.9-0.2c0.3,0,0.7,0.1,1,0.2c0.3,0.2,0.5,0.4,0.6,0.7c0.2-0.3,0.4-0.5,0.7-0.7C48.1,17.8,48.5,17.7,48.8,17.7z"
			/>
		<path id="Trazado_102783" d="M53.2,16.4c-0.4,0-0.7-0.3-0.7-0.7c0,0,0,0,0,0c0-0.2,0.1-0.4,0.2-0.5c0.1-0.1,0.3-0.2,0.5-0.2
			c0.2,0,0.4,0.1,0.5,0.2c0.1,0.1,0.2,0.3,0.2,0.5c0,0.2-0.1,0.4-0.2,0.5C53.6,16.4,53.4,16.4,53.2,16.4z M52.7,23.6v-5.8h1v5.8
			H52.7z"/>
		<path id="Trazado_102784" d="M60.9,20.6v0.3h-4.5c0,0.6,0.2,1.1,0.6,1.5c0.4,0.3,0.8,0.5,1.3,0.5c0.7,0,1.3-0.4,1.6-1.1l0.9,0.2
			c-0.2,0.5-0.5,0.9-1,1.2c-0.4,0.3-1,0.5-1.5,0.5c-0.8,0-1.5-0.3-2.1-0.8c-1.1-1.3-1.1-3.1,0-4.4c0.5-0.5,1.3-0.8,2.1-0.8
			c0.7,0,1.4,0.2,2,0.8C60.7,19.1,60.9,19.8,60.9,20.6z M58.2,18.5c-0.4,0-0.9,0.1-1.2,0.4c-0.3,0.3-0.6,0.7-0.6,1.2h3.5
			c0-0.5-0.2-0.9-0.5-1.2C59,18.6,58.6,18.5,58.2,18.5L58.2,18.5z"/>
		<path id="Trazado_102785" d="M65.2,17.7c0.5,0,1.1,0.2,1.5,0.5c0.4,0.4,0.6,1,0.6,1.5v3.9h-1V20c0-0.4-0.1-0.8-0.3-1
			c-0.2-0.2-0.6-0.3-0.9-0.3c-0.4,0-0.8,0.1-1,0.4c-0.3,0.3-0.4,0.8-0.4,1.2v3.5h-1v-5.8h1v0.8C63.9,18,64.5,17.7,65.2,17.7z"/>
		<path id="Trazado_102786" d="M71.1,23.6c-0.4,0-0.8-0.1-1.1-0.4c-0.3-0.3-0.4-0.7-0.4-1.2v-3.4h-1.2v-0.8h0.4c0.2,0,0.5,0,0.6-0.2
			c0.1-0.2,0.2-0.4,0.2-0.7v-1.1h1v1.9h1.3v0.8h-1.3v3.3c0,0.2,0.1,0.5,0.2,0.6c0.2,0.2,0.4,0.2,0.6,0.2h0.5v0.8L71.1,23.6z"/>
		<path id="Trazado_102787" d="M75.8,23.7c-0.5,0-1.1-0.1-1.5-0.4c-0.4-0.2-0.8-0.6-1-1.1c-0.3-0.5-0.4-1-0.4-1.6
			c0-0.8,0.3-1.6,0.8-2.2c1.2-1.1,3-1.1,4.2,0c1.1,1.3,1.1,3.1,0,4.4C77.3,23.5,76.5,23.8,75.8,23.7z M75.8,22.9
			c0.5,0,1-0.2,1.4-0.6c0.4-0.4,0.6-1,0.5-1.6c0-0.6-0.2-1.1-0.5-1.6c-0.3-0.4-0.9-0.6-1.4-0.6c-0.5,0-1,0.2-1.4,0.6
			c-0.7,0.9-0.7,2.2,0,3.1C74.7,22.7,75.2,22.9,75.8,22.9L75.8,22.9z"/>
		<path id="Trazado_102788" d="M1,38.2v-8.3H2v8.3H1z"/>
		<path id="Trazado_102789" d="M7.1,32.2c0.5,0,1.1,0.2,1.5,0.5c0.4,0.4,0.6,1,0.5,1.5v3.9h-1v-3.7c0-0.4-0.1-0.8-0.4-1
			c-0.2-0.2-0.6-0.4-0.9-0.3c-0.4,0-0.8,0.1-1,0.4c-0.3,0.3-0.4,0.8-0.4,1.2v3.5h-1v-5.8h1v0.8C5.8,32.5,6.4,32.2,7.1,32.2z"/>
		<path id="Trazado_102790" d="M13,38.3c-0.6,0-1.1-0.1-1.6-0.4c-0.4-0.3-0.7-0.7-0.8-1.2l0.9-0.3c0.1,0.3,0.2,0.6,0.5,0.8
			c0.3,0.2,0.6,0.3,1,0.3c0.2,0,0.4,0,0.6-0.1c0.2-0.1,0.3-0.2,0.4-0.3c0.1-0.1,0.2-0.3,0.2-0.5c0-0.1,0-0.2,0-0.2
			c0-0.1-0.1-0.1-0.1-0.2c0-0.1-0.1-0.1-0.2-0.2c-0.1,0-0.1-0.1-0.2-0.1c-0.1,0-0.2-0.1-0.3-0.1l-0.3-0.1l-0.3-0.1l-0.3-0.1
			c-0.2-0.1-0.4-0.1-0.6-0.2c-0.2-0.1-0.3-0.2-0.5-0.3c-0.2-0.1-0.3-0.3-0.4-0.5c-0.1-0.2-0.1-0.4-0.1-0.7c0-0.3,0.1-0.7,0.3-0.9
			c0.2-0.3,0.5-0.4,0.8-0.5c0.3-0.1,0.7-0.2,1-0.2c0.5,0,1,0.1,1.4,0.4c0.4,0.3,0.6,0.7,0.7,1.1L14.2,34c0-0.3-0.2-0.6-0.4-0.8
			C13.5,33,13.2,33,12.9,33c-0.3,0-0.5,0.1-0.8,0.2c-0.2,0.1-0.3,0.4-0.3,0.6c0,0.1,0,0.2,0.1,0.3c0.1,0.2,0.3,0.3,0.5,0.4
			c0.1,0,0.2,0.1,0.3,0.1l0.4,0.1h0.1l0.6,0.2c0.2,0.1,0.3,0.1,0.5,0.2c0.2,0.1,0.3,0.2,0.5,0.3c0.3,0.3,0.4,0.7,0.4,1.1
			c0,0.3-0.1,0.5-0.2,0.8c-0.1,0.2-0.3,0.4-0.5,0.5c-0.2,0.1-0.4,0.2-0.7,0.3C13.5,38.2,13.2,38.3,13,38.3z"/>
		<path id="Trazado_102791" d="M17.2,31c-0.2,0-0.4-0.1-0.5-0.2c-0.1-0.1-0.2-0.3-0.2-0.5c0-0.2,0.1-0.4,0.2-0.5
			c0.3-0.3,0.7-0.3,1,0c0.1,0.1,0.2,0.3,0.2,0.5c0,0.2-0.1,0.4-0.2,0.5C17.5,30.9,17.4,31,17.2,31L17.2,31z M16.7,38.2v-5.8h1v5.8
			H16.7z"/>
		<path id="Trazado_102792" d="M22.9,32.2c0.4,0,0.7,0.1,1.1,0.2c0.3,0.1,0.6,0.3,0.9,0.6c0.3,0.3,0.5,0.6,0.6,1
			c0.1,0.4,0.2,0.8,0.2,1.3c0,0.8-0.2,1.6-0.8,2.2c-0.5,0.5-1.2,0.9-1.9,0.8c-0.4,0-0.9-0.1-1.2-0.3c-0.4-0.2-0.6-0.5-0.8-0.9v4h-1
			v-8.8h1v1.1c0.2-0.4,0.5-0.7,0.8-0.9C22,32.3,22.4,32.2,22.9,32.2L22.9,32.2z M22.7,37.4c0.5,0,1-0.2,1.3-0.6
			c0.7-0.9,0.7-2.2,0-3.1c-0.3-0.4-0.8-0.6-1.3-0.6c-0.5,0-1,0.2-1.4,0.6c-0.7,0.9-0.7,2.2,0,3C21.7,37.2,22.2,37.4,22.7,37.4
			L22.7,37.4z"/>
		<path id="Trazado_102793" d="M27.7,31c-0.2,0-0.4-0.1-0.5-0.2c-0.1-0.1-0.2-0.3-0.2-0.5c0-0.2,0.1-0.4,0.2-0.5
			c0.3-0.3,0.7-0.3,1,0c0.1,0.1,0.2,0.3,0.2,0.5c0,0.2-0.1,0.4-0.2,0.5C28.1,30.9,27.9,31,27.7,31L27.7,31z M27.2,38.2v-5.8h1v5.8
			H27.2z"/>
		<path id="Trazado_102794" d="M34.6,29.1h1v9.1h-1V37c-0.2,0.4-0.5,0.7-0.8,0.9c-0.4,0.2-0.8,0.3-1.2,0.3c-0.4,0-0.7-0.1-1.1-0.2
			c-0.3-0.1-0.6-0.3-0.9-0.6c-0.3-0.3-0.5-0.6-0.6-1c-0.1-0.4-0.2-0.8-0.2-1.2c0-0.8,0.2-1.6,0.8-2.2c0.5-0.5,1.2-0.9,1.9-0.8
			c0.4,0,0.9,0.1,1.2,0.3c0.4,0.2,0.6,0.5,0.8,0.9L34.6,29.1z M32.8,37.4c0.5,0,1-0.2,1.3-0.6c0.7-0.9,0.7-2.1,0-3
			c-0.3-0.4-0.8-0.6-1.3-0.6c-0.5,0-1,0.2-1.4,0.6c-0.7,0.9-0.7,2.2,0,3.1C31.8,37.2,32.3,37.4,32.8,37.4L32.8,37.4z"/>
		<path id="Trazado_102795" d="M42.8,35.1v0.3h-4.5c0,0.6,0.2,1.1,0.6,1.5c0.4,0.3,0.8,0.5,1.3,0.5c0.3,0,0.7-0.1,1-0.3
			c0.3-0.2,0.5-0.4,0.7-0.8l0.9,0.2c-0.2,0.5-0.5,0.9-1,1.2c-0.4,0.3-1,0.5-1.5,0.5c-0.8,0-1.5-0.3-2.1-0.8c-1.1-1.3-1.1-3.1,0-4.4
			c0.5-0.5,1.3-0.8,2.1-0.8c0.7,0,1.4,0.2,2,0.8C42.6,33.6,42.9,34.4,42.8,35.1z M40.1,33c-0.4,0-0.9,0.1-1.2,0.4
			c-0.3,0.3-0.6,0.7-0.6,1.2h3.5c0-0.5-0.2-0.9-0.5-1.2C41,33.2,40.5,33,40.1,33L40.1,33z"/>
		<path id="Trazado_102796" d="M45.1,37.3h3.1v0.8h-4.6l3.1-5h-2.9v-0.8h4.5L45.1,37.3z"/>
		<path id="Trazado_102797" d="M5.4,45.3H2v2.7h3v1H2v2.7h3.4v1H1v-8.3h4.5L5.4,45.3z"/>
		<path id="Trazado_102798" d="M9.9,46.8c0.5,0,1.1,0.2,1.5,0.5c0.4,0.4,0.6,1,0.5,1.5v3.9h-1v-3.7c0-0.4-0.1-0.8-0.4-1
			c-0.2-0.2-0.6-0.4-0.9-0.3c-0.4,0-0.8,0.1-1,0.4c-0.3,0.3-0.4,0.8-0.4,1.2v3.5h-1v-5.8h1v0.8C8.6,47.1,9.3,46.8,9.9,46.8L9.9,46.8
			z"/>
		<path id="Trazado_102799" d="M19,49.7V50h-4.5c0,0.6,0.2,1.1,0.6,1.5c0.4,0.3,0.8,0.5,1.3,0.5c0.7,0,1.3-0.4,1.6-1.1l0.9,0.2
			c-0.2,0.5-0.5,0.9-1,1.2c-0.4,0.3-1,0.5-1.5,0.5c-0.8,0-1.5-0.3-2.1-0.8c-1.1-1.3-1.1-3.1,0-4.4c0.5-0.5,1.3-0.8,2.1-0.8
			c0.7,0,1.4,0.2,2,0.8C18.8,48.2,19.1,48.9,19,49.7z M16.3,47.6c-0.4,0-0.9,0.1-1.2,0.4c-0.3,0.3-0.6,0.7-0.6,1.2H18
			c0-0.4-0.2-0.9-0.5-1.2C17.2,47.7,16.8,47.5,16.3,47.6L16.3,47.6z"/>
		<path id="Trazado_102800" d="M21.6,47.9c0.2-0.3,0.4-0.6,0.8-0.8c0.3-0.2,0.7-0.3,1.1-0.3v1c-0.5,0-1,0.1-1.3,0.4
			c-0.3,0.4-0.5,0.9-0.5,1.4v3.1h-1v-5.8h1L21.6,47.9z"/>
		<path id="Trazado_102801" d="M28.4,46.9h1.1l-2.4,5.8h-0.9l-2.4-5.8H25l1.7,4.6L28.4,46.9z"/>
		<path id="Trazado_102802" d="M31.8,52.8c-0.5,0-0.9-0.1-1.3-0.4c-0.3-0.3-0.5-0.7-0.5-1.2c0-0.3,0-0.5,0.2-0.8
			c0.1-0.2,0.3-0.4,0.5-0.5c0.2-0.1,0.4-0.3,0.7-0.3c0.3-0.1,0.6-0.2,0.9-0.2l0.9-0.2c0.3-0.1,0.5-0.2,0.5-0.5
			c0-0.3-0.1-0.7-0.4-0.9c-0.3-0.2-0.6-0.3-0.9-0.3c-0.3,0-0.6,0.1-0.9,0.3c-0.3,0.2-0.4,0.5-0.4,0.8l-0.9-0.2
			c0.1-0.5,0.3-1,0.8-1.2c0.5-0.3,1-0.4,1.6-0.4c0.3,0,0.6,0,0.8,0.1c0.3,0.1,0.5,0.2,0.7,0.3c0.2,0.2,0.4,0.4,0.5,0.6
			c0.1,0.3,0.2,0.6,0.2,1v2.4c0,0.2,0,0.4,0.1,0.6C35,52,35.2,52,35.3,52h0v0.8h-0.5c-0.5,0.1-1-0.2-1.1-0.8h0
			C33.3,52.6,32.6,52.9,31.8,52.8z M32.1,52c0.5,0,0.9-0.2,1.2-0.6c0.3-0.4,0.5-1,0.5-1.5l-1.5,0.3c-0.3,0-0.6,0.1-0.9,0.3
			c-0.4,0.3-0.4,0.9-0.1,1.2c0,0,0,0,0.1,0.1C31.6,52,31.8,52,32.1,52L32.1,52z"/>
		<path id="Trazado_102803" d="M39.2,52.8c-0.8,0-1.5-0.3-2.1-0.8c-1.1-1.2-1.1-3.1,0-4.4c1-1,2.6-1.1,3.8-0.3
			c0.5,0.3,0.8,0.8,1,1.4l-1,0.2c-0.2-0.7-0.9-1.2-1.7-1.2c-0.5,0-1,0.2-1.3,0.6c-0.7,0.9-0.7,2.2,0,3.1c0.3,0.4,0.8,0.6,1.3,0.6
			c0.8,0,1.5-0.5,1.7-1.2l1,0.2c-0.2,0.6-0.5,1.1-1,1.4C40.4,52.7,39.8,52.9,39.2,52.8L39.2,52.8z"/>
		<path id="Trazado_102804" d="M43.8,45.5c-0.4,0-0.7-0.3-0.7-0.7c0,0,0,0,0,0c0-0.2,0.1-0.4,0.2-0.5c0.1-0.1,0.3-0.2,0.5-0.2
			c0.2,0,0.4,0.1,0.5,0.2c0.1,0.1,0.2,0.3,0.2,0.5c0,0.2-0.1,0.4-0.2,0.5C44.2,45.5,44,45.5,43.8,45.5L43.8,45.5z M43.3,52.7v-5.8h1
			v5.8H43.3z"/>
		<path id="Trazado_102805" d="M48.9,52.8c-0.5,0-1.1-0.1-1.5-0.4c-0.4-0.2-0.8-0.6-1-1.1c-0.2-0.5-0.4-1.1-0.3-1.6
			c0-0.8,0.3-1.6,0.8-2.2c1.2-1.1,3-1.1,4.2,0c1.1,1.3,1.1,3.1,0,4.4C50.4,52.6,49.7,52.9,48.9,52.8z M48.9,52c0.5,0,1-0.2,1.4-0.6
			c0.4-0.4,0.6-1,0.5-1.6c0-0.6-0.2-1.1-0.5-1.6c-0.3-0.4-0.9-0.6-1.4-0.6c-0.5,0-1,0.2-1.4,0.6c-0.7,0.9-0.7,2.2,0,3.1
			C47.8,51.8,48.3,52,48.9,52L48.9,52z M48.5,45.9L50,44l0.5,0.4l-1.3,1.5L48.5,45.9z"/>
		<path id="Trazado_102806" d="M56.1,46.8c0.5,0,1.1,0.2,1.5,0.5c0.4,0.4,0.6,1,0.5,1.5v3.9h-1v-3.7c0-0.4-0.1-0.8-0.4-1
			c-0.2-0.2-0.6-0.4-0.9-0.3c-0.4,0-0.8,0.1-1,0.4c-0.3,0.3-0.4,0.8-0.4,1.2v3.5h-1v-5.8h1v0.8C54.8,47.1,55.4,46.8,56.1,46.8
			L56.1,46.8z"/>
		<path id="Trazado_102807" d="M5.4,59.9H2v2.7h3v0.9H2v2.7h3.4v0.9H1v-8.3h4.5L5.4,59.9z"/>
		<path id="Trazado_102808" d="M9.9,61.3c0.5,0,1.1,0.2,1.5,0.5c0.4,0.4,0.6,1,0.5,1.5v3.9h-1v-3.7c0-0.4-0.1-0.8-0.4-1
			c-0.2-0.2-0.6-0.4-0.9-0.3c-0.4,0-0.8,0.1-1,0.4c-0.3,0.3-0.4,0.8-0.4,1.2v3.5h-1v-5.8h1v0.8C8.6,61.6,9.3,61.3,9.9,61.3z"/>
		<path id="Trazado_102809" d="M16.6,59h-0.4c-0.1,0-0.1,0-0.2,0l-0.2,0.1c-0.1,0-0.1,0.1-0.2,0.1l-0.1,0.2
			c-0.1,0.1-0.1,0.1-0.1,0.2c0,0.1,0,0.2-0.1,0.3c0,0.1,0,0.2,0,0.4v1.2h1.3v0.8h-1.3v5h-1v-5h-1.1v-0.8h1.1v-1.2
			c0-0.2,0-0.5,0.1-0.7c0-0.2,0.1-0.4,0.2-0.5c0.1-0.1,0.2-0.3,0.3-0.4c0.1-0.1,0.2-0.2,0.4-0.2c0.1-0.1,0.3-0.1,0.4-0.1
			c0.2,0,0.3-0.1,0.5-0.1h0.6L16.6,59z"/>
		<path id="Trazado_102810" d="M22.8,64.2v0.3h-4.5c0,0.6,0.2,1.1,0.6,1.5c0.4,0.3,0.8,0.5,1.3,0.5c0.3,0,0.7-0.1,1-0.3
			c0.3-0.2,0.5-0.4,0.7-0.8l0.9,0.2c-0.2,0.5-0.5,0.9-1,1.2c-0.4,0.3-1,0.5-1.5,0.5c-0.8,0-1.5-0.3-2.1-0.8c-1.1-1.3-1.1-3.1,0-4.4
			c0.5-0.5,1.3-0.8,2.1-0.8c0.7,0,1.4,0.2,2,0.8C22.6,62.7,22.9,63.4,22.8,64.2z M20.1,62.1c-0.4,0-0.9,0.1-1.2,0.4
			c-0.3,0.3-0.6,0.7-0.6,1.2h3.5c0-0.5-0.2-0.9-0.5-1.2C20.9,62.2,20.5,62.1,20.1,62.1L20.1,62.1z"/>
		<path id="Trazado_102811" d="M25.4,62.5c0.2-0.3,0.4-0.6,0.7-0.8c0.3-0.2,0.7-0.3,1.1-0.3v1c-0.5,0-1,0.1-1.4,0.4
			c-0.3,0.4-0.5,0.9-0.5,1.4v3.1h-1v-5.8h1V62.5z"/>
		<path id="Trazado_102812" d="M34.4,61.3c0.5,0,1,0.2,1.4,0.5c0.4,0.4,0.5,0.9,0.5,1.4v4h-1v-3.8c0-0.4-0.1-0.7-0.3-1
			c-0.2-0.2-0.5-0.3-0.8-0.3c-0.3,0-0.7,0.1-0.9,0.4c-0.2,0.3-0.4,0.7-0.3,1.1v3.6h-1v-3.7c0-0.4-0.1-0.7-0.3-1
			c-0.2-0.2-0.5-0.4-0.8-0.3c-0.3,0-0.7,0.1-0.9,0.4c-0.2,0.3-0.4,0.7-0.3,1.1v3.6h-1v-5.8h1v0.8c0.2-0.3,0.4-0.5,0.7-0.6
			c0.3-0.2,0.6-0.2,0.9-0.2c0.3,0,0.7,0.1,1,0.2c0.3,0.2,0.5,0.4,0.6,0.7c0.2-0.3,0.4-0.5,0.7-0.7C33.7,61.4,34,61.3,34.4,61.3z"/>
		<path id="Trazado_102813" d="M43.3,64.2v0.3h-4.5c0,0.6,0.2,1.1,0.6,1.5c0.4,0.3,0.8,0.5,1.3,0.5c0.3,0,0.7-0.1,1-0.3
			c0.3-0.2,0.5-0.4,0.7-0.8l0.9,0.2c-0.2,0.5-0.5,0.9-1,1.2c-0.4,0.3-1,0.5-1.5,0.5c-0.8,0-1.5-0.3-2.1-0.8c-1.1-1.3-1.1-3.1,0-4.4
			c0.5-0.5,1.3-0.8,2.1-0.8c0.7,0,1.4,0.2,2,0.8C43.1,62.7,43.4,63.4,43.3,64.2z M40.6,62.1c-0.4,0-0.9,0.1-1.2,0.4
			c-0.3,0.3-0.6,0.7-0.6,1.2h3.5c0-0.5-0.2-0.9-0.5-1.2C41.5,62.2,41.1,62.1,40.6,62.1L40.6,62.1z"/>
		<path id="Trazado_102814" d="M49.2,58.1h1v9.1h-1v-1.1c-0.2,0.4-0.5,0.7-0.8,0.9c-0.4,0.2-0.8,0.3-1.2,0.3c-0.4,0-0.7-0.1-1.1-0.2
			c-0.3-0.1-0.6-0.3-0.9-0.6c-0.3-0.3-0.5-0.6-0.6-1c-0.2-0.4-0.2-0.8-0.2-1.2c0-0.8,0.2-1.6,0.8-2.2c0.5-0.5,1.2-0.9,1.9-0.8
			c0.4,0,0.9,0.1,1.2,0.3c0.4,0.2,0.6,0.5,0.8,0.9L49.2,58.1z M47.4,66.5c0.5,0,1-0.2,1.3-0.6c0.7-0.9,0.7-2.1,0-3
			c-0.3-0.4-0.8-0.6-1.3-0.6c-0.5,0-1,0.2-1.4,0.6c-0.4,0.4-0.6,1-0.6,1.6c0,0.6,0.2,1.1,0.6,1.5C46.4,66.3,46.9,66.5,47.4,66.5
			L47.4,66.5z"/>
		<path id="Trazado_102815" d="M53.7,67.4c-0.5,0-0.9-0.1-1.3-0.4c-0.3-0.3-0.5-0.7-0.5-1.2c0-0.3,0-0.5,0.2-0.8
			c0.1-0.2,0.3-0.4,0.5-0.5c0.2-0.1,0.4-0.3,0.7-0.3c0.3-0.1,0.6-0.2,0.9-0.2l0.9-0.2c0.3-0.1,0.5-0.2,0.5-0.5
			c0-0.3-0.1-0.7-0.4-0.9c-0.3-0.2-0.6-0.3-0.9-0.3c-0.3,0-0.6,0.1-0.9,0.3c-0.3,0.2-0.4,0.5-0.4,0.8L52,63c0.1-0.5,0.3-1,0.8-1.2
			c0.5-0.3,1-0.4,1.6-0.4c0.3,0,0.6,0,0.8,0.1c0.3,0.1,0.5,0.2,0.7,0.3c0.2,0.2,0.4,0.4,0.5,0.6c0.1,0.3,0.2,0.6,0.2,1v2.4
			c0,0.2,0,0.4,0.1,0.6c0.1,0.1,0.3,0.2,0.5,0.2h0.1v0.8h-0.5c-0.5,0.1-1-0.3-1.1-0.8h0C55.2,67.1,54.4,67.4,53.7,67.4z M53.9,66.5
			c0.5,0,0.9-0.2,1.2-0.6c0.3-0.4,0.5-1,0.5-1.5l-1.5,0.3c-0.3,0-0.6,0.1-0.9,0.3c-0.4,0.3-0.4,0.8-0.1,1.2c0,0,0,0.1,0.1,0.1
			C53.4,66.5,53.7,66.6,53.9,66.5L53.9,66.5z"/>
		<path id="Trazado_102816" d="M62.9,58.1h1v9.1h-1v-1.1c-0.2,0.4-0.5,0.7-0.8,0.9c-0.4,0.2-0.8,0.3-1.2,0.3c-0.4,0-0.7-0.1-1.1-0.2
			c-0.3-0.1-0.6-0.3-0.9-0.6c-0.3-0.3-0.5-0.6-0.6-1c-0.2-0.4-0.2-0.8-0.2-1.2c0-0.8,0.2-1.6,0.8-2.2c0.5-0.5,1.2-0.9,1.9-0.8
			c0.4,0,0.9,0.1,1.2,0.3c0.4,0.2,0.6,0.5,0.8,0.9L62.9,58.1z M61,66.5c0.5,0,1-0.2,1.3-0.6c0.7-0.9,0.7-2.1,0-3
			c-0.3-0.4-0.8-0.6-1.3-0.6c-0.5,0-1,0.2-1.4,0.6c-0.4,0.4-0.6,1-0.6,1.6c0,0.6,0.2,1.1,0.6,1.5C60,66.3,60.5,66.5,61,66.5L61,66.5
			z"/>
	</g>
	<g id="Grupo_57721" transform="translate(328.127 88.287)">
		<path id="Trazado_102817" d="M5.8,0.4h1.8V9H5.6L1.8,2.8V9H0V0.4h2.1l3.8,6.1L5.8,0.4z"/>
		<path id="Trazado_102818" d="M15.3,5.8v0.4h-4.5c0,0.4,0.2,0.8,0.5,1.1c0.5,0.4,1.3,0.5,1.9,0.2c0.2-0.1,0.4-0.4,0.5-0.6l1.6,0.2
			c-0.2,0.6-0.6,1.1-1.1,1.4c-0.5,0.3-1.2,0.5-1.8,0.5c-0.9,0-1.7-0.3-2.4-0.8C9.3,7.6,9,6.8,9.1,5.9C9,5,9.4,4.2,10,3.6
			c0.6-0.6,1.5-0.9,2.3-0.8c1.5-0.1,2.9,1,3,2.5C15.3,5.4,15.3,5.6,15.3,5.8L15.3,5.8z M12.3,3.9c-0.7-0.1-1.4,0.4-1.5,1.2h2.8
			c0-0.3-0.2-0.6-0.4-0.9C12.9,4,12.6,3.9,12.3,3.9L12.3,3.9z"/>
		<path id="Trazado_102819" d="M20.8,2.9h1.6v5.6c0,0.5-0.1,1-0.2,1.5c-0.1,0.4-0.4,0.8-0.7,1c-0.3,0.3-0.6,0.5-1,0.6
			c-0.4,0.1-0.9,0.2-1.3,0.2c-1.4,0.2-2.6-0.6-3.1-1.9l1.4-0.6c0.1,0.3,0.4,0.7,0.7,0.9c0.3,0.2,0.6,0.3,1,0.3
			c1.1,0,1.6-0.6,1.6-1.9V7.9c-0.2,0.3-0.5,0.5-0.8,0.6c-0.3,0.2-0.7,0.2-1.1,0.2c-0.4,0-0.7-0.1-1.1-0.2c-0.3-0.1-0.6-0.3-0.9-0.6
			c-0.3-0.3-0.5-0.6-0.6-1c-0.3-0.8-0.3-1.7,0-2.5c0.1-0.4,0.3-0.7,0.6-0.9c0.3-0.3,0.6-0.5,0.9-0.6c0.3-0.1,0.7-0.2,1.1-0.2
			c0.4,0,0.8,0.1,1.1,0.3c0.3,0.1,0.6,0.4,0.8,0.7L20.8,2.9z M18.2,6.9c0.3,0.3,0.7,0.5,1.1,0.5c0.4,0,0.8-0.2,1.1-0.5
			c0.6-0.7,0.6-1.7,0-2.3c-0.6-0.6-1.6-0.6-2.2,0c0,0,0,0,0,0c-0.3,0.3-0.5,0.7-0.4,1.2C17.7,6.2,17.9,6.6,18.2,6.9z"/>
		<path id="Trazado_102820" d="M29.2,7.3c0,0.5,0,1,0.1,1.5V9h-1.6l-0.1-0.7c-0.2,0.3-0.5,0.5-0.8,0.6C26.4,9,26,9.1,25.6,9.1
			c-0.2,0-0.4,0-0.6-0.1c-0.2,0-0.4-0.1-0.5-0.2c-0.2-0.1-0.3-0.2-0.4-0.3c-0.1-0.1-0.2-0.3-0.3-0.5c-0.1-0.2-0.1-0.4-0.1-0.7
			c0-0.2,0-0.4,0.1-0.7c0.1-0.2,0.2-0.3,0.3-0.5c0.1-0.1,0.3-0.3,0.5-0.4c0.2-0.1,0.4-0.2,0.6-0.3c0.2-0.1,0.5-0.1,0.8-0.2l1-0.2
			c0.2,0,0.3-0.1,0.5-0.2c0.1-0.1,0.1-0.2,0.1-0.3c0-0.2-0.1-0.5-0.3-0.6C27,4,26.8,4,26.5,4c-0.6-0.1-1.1,0.3-1.2,0.9c0,0,0,0,0,0
			l-1.5-0.3c0.1-0.6,0.4-1.1,0.9-1.4c0.6-0.3,1.2-0.5,1.9-0.4c1.7,0,2.6,0.7,2.6,2.2L29.2,7.3z M26.1,7.9c0.4,0,0.8-0.1,1.1-0.4
			c0.3-0.4,0.4-0.8,0.4-1.3l-1.4,0.4c-0.2,0-0.4,0.1-0.6,0.2c-0.1,0.1-0.2,0.3-0.2,0.4c0,0.2,0.1,0.4,0.2,0.5
			C25.7,7.9,26,7.9,26.1,7.9L26.1,7.9z"/>
		<path id="Trazado_102821" d="M33,9c-0.5,0-1-0.1-1.4-0.5c-0.3-0.4-0.5-0.9-0.5-1.4V4.2H30V2.9h0.4c0.3,0,0.6-0.1,0.8-0.3
			c0.2-0.3,0.3-0.6,0.2-0.9V0.9h1.5v2h1.2v1.3h-1.2v2.7c0,0.5,0.2,0.8,0.7,0.8h0.5v1.3L33,9z"/>
		<path id="Trazado_102822" d="M36.3,2c-0.3,0-0.5-0.1-0.7-0.3c-0.2-0.2-0.3-0.4-0.3-0.7c0-0.3,0.1-0.5,0.3-0.7c0.4-0.4,1-0.4,1.4,0
			s0.4,1,0,1.4C36.8,1.9,36.6,2,36.3,2z M35.5,9V2.9h1.7V9H35.5z"/>
		<path id="Trazado_102823" d="M42.9,2.9h1.8l-2.6,6.1h-1.5L38,2.9h1.8L41.3,7L42.9,2.9z"/>
		<path id="Trazado_102824" d="M48.2,9.1c-0.6,0-1.2-0.1-1.7-0.4c-0.5-0.2-0.9-0.6-1.2-1.1c-0.3-0.5-0.4-1.1-0.4-1.7
			c0-0.9,0.3-1.7,0.9-2.3c1.4-1.1,3.4-1.1,4.8,0c1.2,1.3,1.2,3.3,0,4.6C49.9,8.8,49.1,9.1,48.2,9.1L48.2,9.1z M48.2,7.7
			c0.5,0,0.9-0.2,1.2-0.5c0.3-0.4,0.5-0.8,0.5-1.3c0-0.5-0.1-1-0.5-1.3c-0.3-0.3-0.7-0.5-1.2-0.5c-0.4,0-0.9,0.2-1.2,0.5
			c-0.6,0.8-0.6,1.8,0,2.6C47.3,7.5,47.7,7.7,48.2,7.7L48.2,7.7z"/>
	</g>
</g>
<polygon points="278.2,116.8 279.7,114.8 280.2,115.2 278.9,116.7 "/>
</svg>
