<svg xmlns="http://www.w3.org/2000/svg" xmlns:xlink="http://www.w3.org/1999/xlink" width="327" height="238" viewBox="0 0 327 238">
  <defs>
    <clipPath id="clip-path">
      <rect id="Rectángulo_11743" data-name="Rectángulo 11743" width="327" height="238" transform="translate(849 1802)" fill="none"/>
    </clipPath>
    <clipPath id="clip-path-2">
      <rect id="Rectángulo_11741" data-name="Rectángulo 11741" width="305.46" height="259.86" fill="none"/>
    </clipPath>
    <clipPath id="clip-path-4">
      <rect id="Rectángulo_11694" data-name="Rectángulo 11694" width="253.321" height="3.676" fill="none"/>
    </clipPath>
    <clipPath id="clip-path-5">
      <rect id="Rectángulo_11695" data-name="Rectángulo 11695" width="54.256" height="5.121" fill="none"/>
    </clipPath>
    <clipPath id="clip-path-7">
      <rect id="Rectángulo_11716" data-name="Rectángulo 11716" width="54.259" height="5.121" fill="none"/>
    </clipPath>
    <clipPath id="clip-path-8">
      <rect id="Rectángulo_11722" data-name="Rectángulo 11722" width="5.872" height="5.872" fill="none"/>
    </clipPath>
    <clipPath id="clip-path-9">
      <rect id="Rectángulo_11730" data-name="Rectángulo 11730" width="62.693" height="9.702" fill="none"/>
    </clipPath>
  </defs>
  <g id="Enmascarar_grupo_122" data-name="Enmascarar grupo 122" transform="translate(-849 -1802)" clip-path="url(#clip-path)">
    <g id="Grupo_71250" data-name="Grupo 71250" transform="translate(852 1780.14)">
      <g id="Grupo_71249" data-name="Grupo 71249" clip-path="url(#clip-path-2)">
        <rect id="Rectángulo_11684" data-name="Rectángulo 11684" width="202.504" height="3.821" transform="translate(52.168 41.458)" fill="#7d7e7d"/>
        <path id="Trazado_158373" data-name="Trazado 158373" d="M128.536,0l.765,172.509h3.057L133.122,0Z" transform="translate(-79.425 39.165)" fill="#7d7e7d"/>
        <path id="Trazado_158374" data-name="Trazado 158374" d="M93.754,476.721l13.889-47.663-2.147-1.267-14.482,48.9.087.026Z" transform="translate(-56.239 -264.339)" fill="#7d7e7d"/>
        <path id="Trazado_158375" data-name="Trazado 158375" d="M149.083,476.721l-14.547-47.663,2.287-1.267,14.482,48.9-.087.026Z" transform="translate(-83.132 -264.339)" fill="#7d7e7d"/>
        <rect id="Rectángulo_11685" data-name="Rectángulo 11685" width="6.113" height="3.821" transform="translate(48.348 161.621)" fill="#515151"/>
        <rect id="Rectángulo_11686" data-name="Rectángulo 11686" width="4.585" height="3.057" transform="translate(49.112 209.764)" fill="#515151"/>
        <rect id="Rectángulo_11687" data-name="Rectángulo 11687" width="4.585" height="3.057" transform="translate(64.395 209.764)" fill="#515151"/>
        <rect id="Rectángulo_11688" data-name="Rectángulo 11688" width="4.585" height="3.057" transform="translate(34.211 209.764)" fill="#515151"/>
        <path id="Trazado_158376" data-name="Trazado 158376" d="M660.537,0l.764,172.509h3.057L665.122,0Z" transform="translate(-408.157 39.165)" fill="#7d7e7d"/>
        <path id="Trazado_158377" data-name="Trazado 158377" d="M680.426,476.721l-13.889-47.663,2.147-1.267,14.482,48.9-.087.026Z" transform="translate(-411.864 -264.339)" fill="#7d7e7d"/>
        <path id="Trazado_158378" data-name="Trazado 158378" d="M624.87,476.721l14.547-47.663-2.287-1.267-14.482,48.9.087.026Z" transform="translate(-384.744 -264.339)" fill="#7d7e7d"/>
        <rect id="Rectángulo_11689" data-name="Rectángulo 11689" width="6.113" height="3.821" transform="translate(251.616 161.621)" fill="#515151"/>
        <rect id="Rectángulo_11690" data-name="Rectángulo 11690" width="4.585" height="3.057" transform="translate(252.38 209.764)" fill="#515151"/>
        <rect id="Rectángulo_11691" data-name="Rectángulo 11691" width="4.585" height="3.057" transform="translate(237.097 209.764)" fill="#515151"/>
        <rect id="Rectángulo_11692" data-name="Rectángulo 11692" width="4.585" height="3.057" transform="translate(267.281 209.764)" fill="#515151"/>
        <rect id="Rectángulo_11693" data-name="Rectángulo 11693" width="184.928" height="148.056" transform="translate(60.574 41.458)" fill="#fff8e3"/>
        <g id="Grupo_71248" data-name="Grupo 71248">
          <g id="Grupo_71247" data-name="Grupo 71247" clip-path="url(#clip-path-2)">
            <g id="Grupo_71231" data-name="Grupo 71231" transform="translate(24.276 212.087)" opacity="0.05">
              <g id="Grupo_71230" data-name="Grupo 71230">
                <g id="Grupo_71229" data-name="Grupo 71229" clip-path="url(#clip-path-4)">
                  <path id="Trazado_158379" data-name="Trazado 158379" d="M304.213,555.08H76.182c-8.1.337-12.645.716-12.645,1.116,0,1.414,56.71,2.56,126.66,2.56s126.66-1.146,126.66-2.56c0-.4-4.547-.779-12.645-1.116" transform="translate(-63.537 -555.08)"/>
                </g>
              </g>
            </g>
            <g id="Grupo_71234" data-name="Grupo 71234" transform="translate(45.291 246.556)" opacity="0.1">
              <g id="Grupo_71233" data-name="Grupo 71233">
                <g id="Grupo_71232" data-name="Grupo 71232" clip-path="url(#clip-path-5)">
                  <path id="Trazado_158380" data-name="Trazado 158380" d="M172.792,647.855c0,1.414-12.146,2.56-27.128,2.56s-27.128-1.146-27.128-2.56,12.146-2.56,27.128-2.56,27.128,1.147,27.128,2.56" transform="translate(-118.536 -645.295)"/>
                </g>
              </g>
            </g>
            <path id="Rectángulo_11696" data-name="Rectángulo 11696" d="M1.719,0H3.248A1.719,1.719,0,0,1,4.967,1.719v0A1.719,1.719,0,0,1,3.248,3.439H1.719A1.719,1.719,0,0,1,0,1.719v0A1.719,1.719,0,0,1,1.719,0Z" transform="matrix(0.473, -0.881, 0.881, 0.473, 65.335, 69.195)" fill="#262626"/>
            <path id="Trazado_158381" data-name="Trazado 158381" d="M56.815,167.7c-11.3-1.515-20.135.256-25.542,5.124-7.129,6.419-8.562,18.069-4.256,34.627,7.447,28.641,12.813,59.585,14.723,84.9,2.048,27.142-.006,45.377-5.785,51.348-6.515,6.731-16.846,11.108-27.635,11.707a45.634,45.634,0,0,1-8.319-.3v1.541a47.1,47.1,0,0,0,5.765.356q1.315,0,2.639-.073c11.163-.62,21.873-5.17,28.649-12.17,7.8-8.06,7.684-33.013,6.212-52.526-1.917-25.4-7.3-56.442-14.768-85.168-4.15-15.96-2.872-27.1,3.8-33.106,12.309-11.085,39.207-1.178,39.477-1.077l.537-1.431A79.876,79.876,0,0,0,56.815,167.7" transform="translate(0 -103.302)" fill="#262626"/>
            <path id="Trazado_158382" data-name="Trazado 158382" d="M231.643,213.327s11.372-3.2,11.372-18.593c0,0-16.916-5.246-20.121,0s3.5,15.1,8.75,18.593" transform="translate(-137.214 -118.889)" fill="#262626"/>
            <rect id="Rectángulo_11697" data-name="Rectángulo 11697" width="1.91" height="143.281" transform="translate(72.801 80.619)" fill="#5c5e5c"/>
            <rect id="Rectángulo_11698" data-name="Rectángulo 11698" width="4.585" height="6.495" rx="2.292" transform="translate(71.655 121.884)" fill="#464646"/>
            <rect id="Rectángulo_11699" data-name="Rectángulo 11699" width="4.585" height="6.495" rx="2.292" transform="translate(71.655 162.385)" fill="#464646"/>
            <rect id="Rectángulo_11700" data-name="Rectángulo 11700" width="1.911" height="42.829" transform="translate(73.525 207.406) rotate(-21.938)" fill="#5c5e5c"/>
            <rect id="Rectángulo_11701" data-name="Rectángulo 11701" width="42.829" height="1.911" transform="translate(56.126 246.42) rotate(-68.062)" fill="#5c5e5c"/>
            <rect id="Rectángulo_11702" data-name="Rectángulo 11702" width="6.495" height="4.585" rx="2.292" transform="translate(54.079 244.915)" fill="#464646"/>
            <rect id="Rectángulo_11703" data-name="Rectángulo 11703" width="6.495" height="4.585" rx="2.292" transform="translate(86.938 244.915)" fill="#464646"/>
            <path id="Rectángulo_11704" data-name="Rectángulo 11704" d="M2.675,0h0A2.675,2.675,0,0,1,5.349,2.675V4.586A2.674,2.674,0,0,1,2.675,7.26h0A2.675,2.675,0,0,1,0,4.585V2.675A2.675,2.675,0,0,1,2.675,0Z" transform="translate(71.272 202.886)" fill="#464646"/>
            <rect id="Rectángulo_11705" data-name="Rectángulo 11705" width="4.585" height="6.495" rx="2.292" transform="translate(71.655 221.99)" fill="#464646"/>
            <path id="Trazado_158383" data-name="Trazado 158383" d="M185.206,198.505s-.518,4.106-2.848,5.845-.629,4.292,1.258,3.848,11.172-5.549,11.172-5.549Z" transform="translate(-111.984 -122.66)" fill="#9d9e9d"/>
            <path id="Trazado_158384" data-name="Trazado 158384" d="M194.546,185.63a1.748,1.748,0,0,1-2.343.789l-17.229-8.548a1.748,1.748,0,0,1-.789-2.344l3.108-6.265a1.749,1.749,0,0,1,2.344-.789l17.229,8.548a1.749,1.749,0,0,1,.789,2.344Z" transform="translate(-107.519 -103.99)" fill="#5c5e5c"/>
            <path id="Trazado_158385" data-name="Trazado 158385" d="M185.672,217.208a.888.888,0,1,1-.888-.888.888.888,0,0,1,.888.888" transform="translate(-113.632 -133.668)" fill="#5c5e5c"/>
            <rect id="Rectángulo_11706" data-name="Rectángulo 11706" width="9.552" height="8.406" rx="3" transform="translate(268.045 35.534)" fill="#464646"/>
            <g id="Grupo_71237" data-name="Grupo 71237" transform="translate(236.714 249.616)" opacity="0.1">
              <g id="Grupo_71236" data-name="Grupo 71236">
                <g id="Grupo_71235" data-name="Grupo 71235" clip-path="url(#clip-path-5)">
                  <path id="Trazado_158386" data-name="Trazado 158386" d="M673.791,655.863c0,1.414-12.145,2.56-27.128,2.56s-27.128-1.146-27.128-2.56,12.146-2.56,27.128-2.56,27.128,1.147,27.128,2.56" transform="translate(-619.535 -653.303)"/>
                </g>
              </g>
            </g>
            <rect id="Rectángulo_11708" data-name="Rectángulo 11708" width="2.292" height="181.871" transform="translate(263.078 38.972)" fill="#5c5e5c"/>
            <rect id="Rectángulo_11709" data-name="Rectángulo 11709" width="5.731" height="8.406" rx="2.866" transform="translate(261.55 91.318)" fill="#464646"/>
            <rect id="Rectángulo_11710" data-name="Rectángulo 11710" width="5.731" height="8.406" rx="2.866" transform="translate(261.55 142.899)" fill="#464646"/>
            <rect id="Rectángulo_11711" data-name="Rectángulo 11711" width="54.278" height="2.421" transform="translate(241.969 249.257) rotate(-68.051)" fill="#5c5e5c"/>
            <rect id="Rectángulo_11712" data-name="Rectángulo 11712" width="2.421" height="54.279" transform="translate(264.02 199.818) rotate(-21.949)" fill="#5c5e5c"/>
            <rect id="Rectángulo_11713" data-name="Rectángulo 11713" width="8.406" height="5.731" rx="2.866" transform="translate(280.654 247.207)" fill="#464646"/>
            <path id="Rectángulo_11714" data-name="Rectángulo 11714" d="M2.865,0H5.54A2.866,2.866,0,0,1,8.406,2.866v0A2.865,2.865,0,0,1,5.54,5.731H2.866A2.866,2.866,0,0,1,0,2.865v0A2.865,2.865,0,0,1,2.865,0Z" transform="translate(239.007 247.208)" fill="#464646"/>
            <path id="Trazado_158389" data-name="Trazado 158389" d="M690.414,510.518A2.533,2.533,0,0,0,687.87,508h-1.721a2.592,2.592,0,0,0-2.612,2.518v4.144a2.584,2.584,0,0,0,2.612,2.509h1.721a2.525,2.525,0,0,0,2.544-2.509Z" transform="translate(-422.369 -313.902)" fill="#464646"/>
            <path id="Rectángulo_11715" data-name="Rectángulo 11715" d="M2.865,0h0A2.866,2.866,0,0,1,5.731,2.866V5.54A2.865,2.865,0,0,1,2.866,8.406h0A2.866,2.866,0,0,1,0,5.54V2.865A2.865,2.865,0,0,1,2.865,0Z" transform="translate(261.55 216.641)" fill="#464646"/>
            <path id="Trazado_158390" data-name="Trazado 158390" d="M682.949,131.51s-2.471,4.627-1.333,8.132-2.492,4.9-4.118,3.059S670,128.781,670,128.781Z" transform="translate(-414.006 -79.576)" fill="#9d9e9d"/>
            <path id="Trazado_158391" data-name="Trazado 158391" d="M692.011,158.256a1.125,1.125,0,1,0,1.568-.269,1.125,1.125,0,0,0-1.568.269" transform="translate(-427.478 -97.495)" fill="#5c5e5c"/>
            <path id="Trazado_158392" data-name="Trazado 158392" d="M674.574,98.917c.141.516.11.974-.231,1.068l-22.888,6.255c-.342.093-.733-.25-.874-.766L645.641,87.4c-.141-.516.022-1.011.364-1.1l22.888-6.255c.342-.094.6.285.742.8Z" transform="translate(-398.921 -49.451)" fill="#5c5e5c"/>
            <path id="Trazado_158393" data-name="Trazado 158393" d="M553.657,141.583s-30.428-14.356-23.152-57.593c0,0,49.988-6.738,56.512,9.51s-16.977,40.742-33.36,48.084" transform="translate(-327.114 -51.043)" fill="#f2f0c4"/>
            <path id="Trazado_158394" data-name="Trazado 158394" d="M555.475,141.583s3.78-22.72-23.152-57.593c0,0,49.988-6.738,56.512,9.51s-16.977,40.742-33.36,48.084" transform="translate(-328.931 -51.043)" fill="#262626"/>
            <g id="Grupo_71240" data-name="Grupo 71240" transform="translate(104.72 246.556)" opacity="0.1">
              <g id="Grupo_71239" data-name="Grupo 71239">
                <g id="Grupo_71238" data-name="Grupo 71238" clip-path="url(#clip-path-7)">
                  <path id="Trazado_158395" data-name="Trazado 158395" d="M328.336,647.855c0,1.414-12.149,2.56-27.131,2.56s-27.128-1.146-27.128-2.56,12.146-2.56,27.128-2.56,27.131,1.147,27.131,2.56" transform="translate(-274.077 -645.295)"/>
                </g>
              </g>
            </g>
            <path id="Trazado_158396" data-name="Trazado 158396" d="M331.727,506.424,308.6,417.461l0,0v0h-2.4v.03L283.089,506l2.424,1.283,20.692-80.611V507.28h2.4V426.626l20.7,80.654Z" transform="translate(-174.926 -257.956)" fill="#4f4f4e"/>
            <rect id="Rectángulo_11717" data-name="Rectángulo 11717" width="5.131" height="20.942" transform="translate(129.886 147.033)" fill="#878786"/>
            <path id="Rectángulo_11718" data-name="Rectángulo 11718" d="M2.286,0H4.451A2.287,2.287,0,0,1,6.738,2.287v0A2.286,2.286,0,0,1,4.452,4.575H2.288A2.288,2.288,0,0,1,0,2.286v0A2.286,2.286,0,0,1,2.286,0Z" transform="translate(129.082 163.524)" fill="#282826"/>
            <rect id="Rectángulo_11719" data-name="Rectángulo 11719" width="8.406" height="3.057" transform="translate(128.203 145.956)" fill="#3c3c3c"/>
            <path id="Rectángulo_11720" data-name="Rectángulo 11720" d="M7.759,0h22.8a7.76,7.76,0,0,1,7.76,7.76v6.311a7.759,7.759,0,0,1-7.759,7.759H7.759A7.759,7.759,0,0,1,0,14.071V7.759A7.759,7.759,0,0,1,7.759,0Z" transform="translate(113.245 124.26)" fill="#4c4c4c"/>
            <path id="Trazado_158397" data-name="Trazado 158397" d="M336.29,309.068H324.865l-3.984,6.553h19.565Zm-1.306,4.87h-8.64v-3.07h8.64Z" transform="translate(-198.278 -190.978)" fill="#4c4c4c"/>
            <rect id="Rectángulo_11721" data-name="Rectángulo 11721" width="21.397" height="15.665" transform="translate(117.123 127.234)" fill="#def8fc"/>
            <path id="Trazado_158398" data-name="Trazado 158398" d="M377.93,357.555a3.769,3.769,0,1,1-3.768-3.768,3.769,3.769,0,0,1,3.768,3.768" transform="translate(-228.872 -218.611)" fill="#5c5e5c"/>
            <g id="Grupo_71243" data-name="Grupo 71243" transform="translate(142.353 136.009)" opacity="0.3">
              <g id="Grupo_71242" data-name="Grupo 71242">
                <g id="Grupo_71241" data-name="Grupo 71241" clip-path="url(#clip-path-8)">
                  <path id="Trazado_158399" data-name="Trazado 158399" d="M378.444,358.9a2.936,2.936,0,1,1-2.936-2.936,2.936,2.936,0,0,1,2.936,2.936" transform="translate(-372.572 -355.965)" fill="#181919"/>
                </g>
              </g>
            </g>
            <rect id="Rectángulo_11723" data-name="Rectángulo 11723" width="3.057" height="1.91" rx="0.955" transform="translate(141.958 127.234)" fill="#5c5e5c"/>
            <rect id="Rectángulo_11724" data-name="Rectángulo 11724" width="3.057" height="1.91" rx="0.955" transform="translate(141.958 130.29)" fill="#5c5e5c"/>
            <rect id="Rectángulo_11725" data-name="Rectángulo 11725" width="3.057" height="1.91" rx="0.955" transform="translate(146.161 127.234)" fill="#5c5e5c"/>
            <rect id="Rectángulo_11726" data-name="Rectángulo 11726" width="3.057" height="1.91" rx="0.955" transform="translate(146.161 130.29)" fill="#5c5e5c"/>
            <rect id="Rectángulo_11727" data-name="Rectángulo 11727" width="5.349" height="3.439" rx="1" transform="translate(106.806 247.208)" fill="#4f4f4e"/>
            <rect id="Rectángulo_11728" data-name="Rectángulo 11728" width="5.349" height="3.439" rx="1" transform="translate(129.731 247.208)" fill="#4f4f4e"/>
            <rect id="Rectángulo_11729" data-name="Rectángulo 11729" width="5.349" height="3.439" rx="1" transform="translate(152.656 247.208)" fill="#4f4f4e"/>
            <g id="Grupo_71246" data-name="Grupo 71246" transform="translate(160.474 220.983)" opacity="0.1">
              <g id="Grupo_71245" data-name="Grupo 71245">
                <g id="Grupo_71244" data-name="Grupo 71244" clip-path="url(#clip-path-9)">
                  <path id="Trazado_158400" data-name="Trazado 158400" d="M482.69,583.215c0,2.68-14.034,4.851-31.346,4.851S420,585.894,420,583.215s14.035-4.851,31.346-4.851,31.346,2.172,31.346,4.851" transform="translate(-419.997 -578.364)"/>
                </g>
              </g>
            </g>
            <path id="Trazado_158401" data-name="Trazado 158401" d="M489.965,378.338a93.31,93.31,0,0,1-17.89,1.572,78.513,78.513,0,0,1-18.283-1.572" transform="translate(-280.406 -233.782)" fill="#7d7e7d"/>
            <rect id="Rectángulo_11731" data-name="Rectángulo 11731" width="2.495" height="21.205" transform="matrix(0.342, -0.94, 0.94, 0.342, 169.857, 196.36)" fill="#987732"/>
            <rect id="Rectángulo_11732" data-name="Rectángulo 11732" width="21.205" height="2.495" transform="matrix(0.94, -0.342, 0.342, 0.94, 191.883, 201.273)" fill="#987732"/>
            <rect id="Rectángulo_11733" data-name="Rectángulo 11733" width="21.205" height="2.495" transform="matrix(0.94, -0.342, 0.342, 0.94, 169.857, 192.853)" fill="#987732"/>
            <rect id="Rectángulo_11734" data-name="Rectángulo 11734" width="2.495" height="21.205" transform="translate(191.883 187.94) rotate(-69.987)" fill="#987732"/>
            <rect id="Rectángulo_11735" data-name="Rectángulo 11735" width="1.934" height="16.438" transform="translate(174.668 169.771) rotate(-69.989)" fill="#987732"/>
            <rect id="Rectángulo_11736" data-name="Rectángulo 11736" width="16.439" height="1.934" transform="translate(191.743 173.579) rotate(-20.011)" fill="#987732"/>
            <rect id="Rectángulo_11737" data-name="Rectángulo 11737" width="16.438" height="1.934" transform="translate(174.668 167.052) rotate(-20.01)" fill="#987732"/>
            <rect id="Rectángulo_11738" data-name="Rectángulo 11738" width="1.934" height="16.439" transform="translate(191.743 163.245) rotate(-69.99)" fill="#987732"/>
            <path id="Rectángulo_11739" data-name="Rectángulo 11739" d="M2.483,0h0A2.484,2.484,0,0,1,4.967,2.484V84.249a2.484,2.484,0,0,1-2.484,2.484h0A2.483,2.483,0,0,1,0,84.249V2.483A2.483,2.483,0,0,1,2.483,0Z" transform="translate(188.572 143.281)" fill="#ca9e42"/>
            <path id="Trazado_158402" data-name="Trazado 158402" d="M434.361,447.106a1.872,1.872,0,0,1-2.1,1.612l-1.237-.161a1.872,1.872,0,0,1-1.613-2.1l11.167-85.339a1.872,1.872,0,0,1,2.1-1.613l1.238.162a1.87,1.87,0,0,1,1.612,2.1Z" transform="translate(-265.332 -222.135)" fill="#ca9e42"/>
            <path id="Trazado_158403" data-name="Trazado 158403" d="M543.365,445.368a1.871,1.871,0,0,0,2.1,1.612l1.237-.161a1.871,1.871,0,0,0,1.612-2.1l-11.931-86.868a1.872,1.872,0,0,0-2.1-1.613l-1.237.162a1.871,1.871,0,0,0-1.612,2.1Z" transform="translate(-328.372 -220.117)" fill="#ca9e42"/>
            <path id="Trazado_158404" data-name="Trazado 158404" d="M489.274,363.281a1.9,1.9,0,0,1-1.9,1.871s-13.4,1.572-17.907,1.572c-4.532,0-18.168-1.572-18.168-1.572a1.777,1.777,0,0,1-1.757-1.871v-4.366A1.717,1.717,0,0,1,451.163,357h36.173a1.968,1.968,0,0,1,1.938,1.916Z" transform="translate(-277.777 -220.596)" fill="#5c5e5c"/>
            <path id="Trazado_158405" data-name="Trazado 158405" d="M489.445,354.441c0,1.733-10.092,3.138-19.464,3.138s-20.059-1.4-20.059-3.138,10.687-3.137,20.059-3.137,19.464,1.4,19.464,3.137" transform="translate(-278.014 -217.077)" fill="#7d7e7d"/>
          </g>
        </g>
      </g>
    </g>
  </g>
</svg>
